<svg width="18" height="11" viewBox="0 0 18 11" fill="none" xmlns="http://www.w3.org/2000/svg">
<path d="M4.52528 10.4937C3.93483 10.4937 3.39396 10.3708 2.90264 10.1252C2.41133 9.87953 1.98681 9.53475 1.6291 9.09084C1.2757 8.64262 1.00203 8.11467 0.808085 7.50699C0.614145 6.89931 0.517174 6.2356 0.517174 5.51587C0.517174 4.79614 0.618454 4.13243 0.821014 3.52475C1.02788 2.91707 1.31448 2.39128 1.68082 1.94737C2.04715 1.49915 2.47166 1.15221 2.95436 0.906554C3.44136 0.660896 3.965 0.538068 4.52528 0.538068C5.08555 0.538068 5.60703 0.660896 6.08973 0.906554C6.57673 1.15221 7.0034 1.49915 7.36973 1.94737C7.73607 2.39128 8.02051 2.91707 8.22307 3.52475C8.42994 4.13243 8.53338 4.79614 8.53338 5.51587C8.53338 6.2356 8.43641 6.89931 8.24247 7.50699C8.04853 8.11467 7.7727 8.64262 7.41499 9.09084C7.06158 9.53475 6.63923 9.87953 6.14791 10.1252C5.65659 10.3708 5.11572 10.4937 4.52528 10.4937ZM4.52528 10.4032C4.76662 10.4032 4.95194 10.2911 5.08124 10.067C5.21484 9.83859 5.30966 9.51104 5.36568 9.08437C5.42602 8.6577 5.46265 8.14484 5.47558 7.54578C5.48851 6.94241 5.49498 6.26577 5.49498 5.51587C5.49498 4.76597 5.48851 4.09149 5.47558 3.49243C5.46265 2.88906 5.42602 2.37404 5.36568 1.94737C5.30966 1.5207 5.21484 1.19531 5.08124 0.971201C4.95194 0.742783 4.76662 0.628573 4.52528 0.628573C4.31841 0.628573 4.15032 0.742783 4.02103 0.971201C3.89605 1.19531 3.79908 1.5207 3.73012 1.94737C3.66116 2.37404 3.61376 2.88906 3.5879 3.49243C3.56635 4.09149 3.55557 4.76597 3.55557 5.51587C3.55557 6.26577 3.56204 6.94241 3.57497 7.54578C3.5879 8.14484 3.62238 8.6577 3.6784 9.08437C3.73874 9.51104 3.83571 9.83859 3.96931 10.067C4.10292 10.2911 4.28824 10.4032 4.52528 10.4032ZM13.3677 10.3321V0.764332H11.9067V0.667361H16.1475V10.3321H13.3677ZM11.6869 10.3644V10.2674H17.5698V10.3644H11.6869Z" fill="#FCFCFC"/>
</svg>
