<svg width="19" height="11" viewBox="0 0 19 11" fill="none" xmlns="http://www.w3.org/2000/svg">
<path d="M4.52528 10.126C3.93483 10.126 3.39396 10.0032 2.90264 9.75751C2.41133 9.51185 1.98681 9.16707 1.6291 8.72316C1.2757 8.27494 1.00203 7.747 0.808085 7.13932C0.614145 6.53164 0.517174 5.86793 0.517174 5.14819C0.517174 4.42846 0.618454 3.76475 0.821014 3.15707C1.02788 2.54939 1.31448 2.0236 1.68082 1.57969C2.04715 1.13147 2.47166 0.784537 2.95436 0.538879C3.44136 0.293221 3.965 0.170392 4.52528 0.170392C5.08555 0.170392 5.60703 0.293221 6.08973 0.538879C6.57673 0.784537 7.0034 1.13147 7.36973 1.57969C7.73607 2.0236 8.02051 2.54939 8.22307 3.15707C8.42994 3.76475 8.53338 4.42846 8.53338 5.14819C8.53338 5.86793 8.43641 6.53164 8.24247 7.13932C8.04853 7.747 7.7727 8.27494 7.41499 8.72316C7.06158 9.16707 6.63923 9.51185 6.14791 9.75751C5.65659 10.0032 5.11572 10.126 4.52528 10.126ZM4.52528 10.0355C4.76662 10.0355 4.95194 9.92344 5.08124 9.69933C5.21484 9.47091 5.30966 9.14337 5.36568 8.7167C5.42602 8.29003 5.46265 7.77716 5.47558 7.1781C5.48851 6.57473 5.49498 5.8981 5.49498 5.14819C5.49498 4.39829 5.48851 3.72381 5.47558 3.12475C5.46265 2.52138 5.42602 2.00636 5.36568 1.57969C5.30966 1.15302 5.21484 0.827634 5.08124 0.603525C4.95194 0.375107 4.76662 0.260898 4.52528 0.260898C4.31841 0.260898 4.15032 0.375107 4.02103 0.603525C3.89605 0.827634 3.79908 1.15302 3.73012 1.57969C3.66116 2.00636 3.61376 2.52138 3.5879 3.12475C3.56635 3.72381 3.55557 4.39829 3.55557 5.14819C3.55557 5.8981 3.56204 6.57473 3.57497 7.1781C3.5879 7.77716 3.62238 8.29003 3.6784 8.7167C3.73874 9.14337 3.83571 9.47091 3.96931 9.69933C4.10292 9.92344 4.28824 10.0355 4.52528 10.0355ZM11.5576 9.9967V8.25124L14.2211 6.57042C14.7641 6.22995 15.1757 5.81837 15.4558 5.33567C15.736 4.84866 15.876 4.20435 15.876 3.40273C15.876 2.87694 15.8092 2.39855 15.6756 1.96757C15.542 1.53659 15.3481 1.19181 15.0938 0.933224C14.8395 0.674637 14.5271 0.545344 14.1564 0.545344C13.7729 0.545344 13.3957 0.646623 13.0251 0.849183C12.6588 1.04743 12.3571 1.32972 12.1201 1.69606C11.883 2.06239 11.7645 2.49337 11.7645 2.98899H11.6805C11.6805 2.7735 11.7623 2.56663 11.9261 2.36838C12.0942 2.17013 12.3054 2.00852 12.5596 1.88353C12.8182 1.75855 13.0833 1.69606 13.3548 1.69606C13.6134 1.69606 13.859 1.76286 14.0918 1.89646C14.3245 2.03006 14.5141 2.21108 14.6607 2.43949C14.8115 2.6636 14.8869 2.91573 14.8869 3.19586C14.8869 3.49755 14.8137 3.76475 14.6671 3.99748C14.5206 4.2259 14.3267 4.40691 14.0853 4.54051C13.844 4.66981 13.5832 4.73446 13.3031 4.73446C13.023 4.73446 12.7579 4.66334 12.5079 4.52112C12.258 4.37459 12.0554 4.17203 11.9003 3.91344C11.7451 3.65054 11.6675 3.34239 11.6675 2.98899C11.6675 2.44165 11.8162 1.9568 12.1136 1.53444C12.4153 1.10777 12.8355 0.773762 13.3742 0.532414C13.9129 0.291066 14.5357 0.170392 15.2425 0.170392C15.9579 0.170392 16.5742 0.275982 17.0914 0.487161C17.6129 0.698341 18.0137 0.989251 18.2938 1.35989C18.5783 1.72622 18.7205 2.14643 18.7205 2.62051C18.7205 3.03424 18.6214 3.39842 18.4231 3.71304C18.2292 4.02334 17.977 4.30132 17.6667 4.54698C17.3564 4.78833 17.0246 5.01028 16.6712 5.21284C16.3221 5.41109 15.9945 5.60503 15.6886 5.79466L13.2837 7.28154H18.8886V6.31184H18.9855V9.9967H11.5576Z" fill="#FCFCFC"/>
</svg>
