<svg width="19" height="11" viewBox="0 0 19 11" fill="none" xmlns="http://www.w3.org/2000/svg">
<path d="M4.52528 10.7707C3.93483 10.7707 3.39396 10.6478 2.90264 10.4022C2.41133 10.1565 1.98681 9.81172 1.6291 9.36782C1.2757 8.9196 1.00203 8.39165 0.808085 7.78397C0.614145 7.17629 0.517174 6.51258 0.517174 5.79285C0.517174 5.07311 0.618454 4.40941 0.821014 3.80173C1.02788 3.19405 1.31448 2.66825 1.68082 2.22435C2.04715 1.77613 2.47166 1.42919 2.95436 1.18353C3.44136 0.937874 3.965 0.815045 4.52528 0.815045C5.08555 0.815045 5.60703 0.937874 6.08973 1.18353C6.57673 1.42919 7.0034 1.77613 7.36973 2.22435C7.73607 2.66825 8.02051 3.19405 8.22307 3.80173C8.42994 4.40941 8.53338 5.07311 8.53338 5.79285C8.53338 6.51258 8.43641 7.17629 8.24247 7.78397C8.04853 8.39165 7.7727 8.9196 7.41499 9.36782C7.06158 9.81172 6.63923 10.1565 6.14791 10.4022C5.65659 10.6478 5.11572 10.7707 4.52528 10.7707ZM4.52528 10.6801C4.76662 10.6801 4.95194 10.5681 5.08124 10.344C5.21484 10.1156 5.30966 9.78802 5.36568 9.36135C5.42602 8.93468 5.46265 8.42182 5.47558 7.82276C5.48851 7.21939 5.49498 6.54275 5.49498 5.79285C5.49498 5.04295 5.48851 4.36846 5.47558 3.7694C5.46265 3.16603 5.42602 2.65101 5.36568 2.22435C5.30966 1.79768 5.21484 1.47229 5.08124 1.24818C4.95194 1.01976 4.76662 0.905551 4.52528 0.905551C4.31841 0.905551 4.15032 1.01976 4.02103 1.24818C3.89605 1.47229 3.79908 1.79768 3.73012 2.22435C3.66116 2.65101 3.61376 3.16603 3.5879 3.7694C3.56635 4.36846 3.55557 5.04295 3.55557 5.79285C3.55557 6.54275 3.56204 7.21939 3.57497 7.82276C3.5879 8.42182 3.62238 8.93468 3.6784 9.36135C3.73874 9.78802 3.83571 10.1156 3.96931 10.344C4.10292 10.5681 4.28824 10.6801 4.52528 10.6801ZM14.6736 10.7707C13.9539 10.7707 13.3483 10.6457 12.857 10.3957C12.3657 10.1414 11.9929 9.8225 11.7386 9.43893C11.4887 9.05105 11.3637 8.65886 11.3637 8.26236C11.3637 7.83569 11.5038 7.48444 11.7839 7.20861C12.064 6.92848 12.398 6.78841 12.7859 6.78841C13.1436 6.78841 13.4561 6.9177 13.7233 7.17629C13.9905 7.43057 14.1241 7.75596 14.1241 8.15246C14.1241 8.39811 14.0573 8.62222 13.9237 8.82478C13.7944 9.02303 13.6242 9.18249 13.413 9.30317C13.2061 9.41953 12.9842 9.47772 12.7471 9.47772C12.5144 9.47772 12.2924 9.42169 12.0813 9.30963C11.8744 9.19758 11.7042 9.04889 11.5706 8.86357C11.4413 8.67825 11.3766 8.47784 11.3766 8.26236H11.4607C11.4607 8.66748 11.5878 9.04889 11.8421 9.4066C12.0963 9.76432 12.4282 10.0531 12.8376 10.2729C13.2471 10.4927 13.6867 10.6026 14.1564 10.6026C14.5184 10.6026 14.8115 10.4905 15.0356 10.2664C15.264 10.0423 15.43 9.72984 15.5334 9.32903C15.6411 8.92822 15.695 8.46061 15.695 7.92619C15.695 7.68484 15.667 7.4241 15.611 7.14397C15.5549 6.85952 15.458 6.59016 15.3201 6.33588C15.1822 6.07729 14.9882 5.86611 14.7382 5.70234C14.4926 5.53426 14.178 5.45022 13.7944 5.45022V5.38557C14.5745 5.38557 15.2597 5.45668 15.8502 5.59891C16.4449 5.74113 16.9427 5.93723 17.3435 6.18719C17.7443 6.43285 18.046 6.7173 18.2486 7.04053C18.4511 7.35946 18.5524 7.69777 18.5524 8.05549C18.5524 8.47354 18.4382 8.85064 18.2098 9.1868C17.9814 9.52297 17.6775 9.80957 17.2983 10.0466C16.919 10.2793 16.5009 10.4582 16.0441 10.5832C15.5873 10.7082 15.1304 10.7707 14.6736 10.7707ZM13.7944 5.4179V5.35325C14.1478 5.35325 14.4258 5.28214 14.6283 5.13992C14.8309 4.99338 14.9796 4.80806 15.0744 4.58395C15.1735 4.35553 15.236 4.1185 15.2619 3.87284C15.2921 3.62287 15.3071 3.39445 15.3071 3.18758C15.3071 2.95054 15.2942 2.70273 15.2683 2.44414C15.2425 2.18556 15.1951 1.94852 15.1261 1.73303C15.0615 1.51323 14.9645 1.33437 14.8352 1.19646C14.7059 1.05855 14.5378 0.989592 14.331 0.989592C14.15 0.989592 13.9194 1.03269 13.6393 1.11889C13.3634 1.20508 13.0876 1.33222 12.8118 1.5003C12.5403 1.66407 12.3097 1.86663 12.1201 2.10798C11.9347 2.34502 11.8421 2.61438 11.8421 2.91607H11.758C11.758 2.67903 11.827 2.46785 11.9649 2.28253C12.1071 2.0929 12.2838 1.94421 12.495 1.83646C12.7105 1.72441 12.926 1.66838 13.1415 1.66838C13.3785 1.66838 13.6005 1.72657 13.8073 1.84293C14.0185 1.95498 14.1887 2.11229 14.318 2.31485C14.4516 2.5131 14.5184 2.74152 14.5184 3.00011C14.5184 3.28024 14.4473 3.52375 14.3051 3.73062C14.1672 3.93318 13.9927 4.09048 13.7815 4.20254C13.5703 4.31028 13.357 4.36415 13.1415 4.36415C12.9044 4.36415 12.6782 4.30382 12.4627 4.18314C12.2515 4.05816 12.0791 3.88792 11.9455 3.67243C11.8119 3.45263 11.7451 3.20051 11.7451 2.91607C11.7451 2.61869 11.8399 2.34286 12.0295 2.08859C12.2235 1.83431 12.4735 1.61236 12.7794 1.42272C13.0854 1.23309 13.4173 1.08656 13.775 0.983127C14.1327 0.879692 14.4753 0.827974 14.8029 0.827974C15.1649 0.827974 15.5399 0.875382 15.9277 0.970198C16.3199 1.0607 16.6841 1.19646 17.0203 1.37747C17.3608 1.55848 17.6366 1.78475 17.8478 2.05626C18.0589 2.32778 18.1645 2.64239 18.1645 3.00011C18.1645 3.32334 18.0762 3.63149 17.8995 3.92456C17.7271 4.21331 17.4599 4.46974 17.0979 4.69385C16.7401 4.91796 16.2855 5.09466 15.7338 5.22396C15.1865 5.35325 14.54 5.4179 13.7944 5.4179Z" fill="#FCFCFC"/>
</svg>
