<svg width="175" height="127" viewBox="0 0 175 127" fill="none" xmlns="http://www.w3.org/2000/svg">
<g style="mix-blend-mode:multiply" opacity="0.5">
<path d="M18.6464 124.491L45.8993 3.68384H27.0256V2.46356H75.9994L48.3398 124.491H18.6464ZM0.911732 124.491V123.271H66.4813V124.491H0.911732ZM109.493 126.118C101.738 126.118 95.0667 124.301 89.4806 120.668C83.8944 117.034 79.5828 112.288 76.5456 106.431C73.5085 100.52 71.9899 94.147 71.9899 87.3135C71.9899 77.9309 73.156 68.9551 75.4881 60.386C77.8744 51.7627 81.1285 43.8445 85.2503 36.6313C89.4263 29.3639 94.2532 23.0727 99.7309 17.7577C105.263 12.3885 111.201 8.23954 117.547 5.31088C123.892 2.32798 130.428 0.836526 137.153 0.836526C144.854 0.836526 151.498 2.65338 157.084 6.2871C162.724 9.86657 167.036 14.6121 170.019 20.5237C173.056 26.4352 174.575 32.8078 174.575 39.6413C174.575 49.0239 173.408 58.0268 171.076 66.6501C168.744 75.2192 165.49 83.1374 161.314 90.4048C157.138 97.618 152.284 103.909 146.752 109.278C141.275 114.593 135.363 118.742 129.018 121.725C122.672 124.654 116.164 126.118 109.493 126.118ZM109.493 124.979C112.368 124.979 115.161 123.542 117.872 120.668C120.584 117.793 123.187 113.915 125.682 109.034C128.177 104.099 130.482 98.54 132.597 92.3573C134.766 86.1745 136.719 79.7477 138.454 73.0769C140.19 66.406 141.654 59.8437 142.847 53.3898C144.095 46.9359 145.044 40.9972 145.695 35.5737C146.4 30.096 146.752 25.5675 146.752 21.988C146.752 19.1136 146.617 16.4832 146.345 14.0969C146.129 11.6563 145.668 9.54117 144.962 7.75143C144.312 5.90745 143.335 4.49736 142.034 3.52113C140.786 2.49068 139.159 1.97546 137.153 1.97546C134.224 1.97546 131.404 3.38555 128.692 6.20574C125.98 8.9717 123.377 12.7681 120.882 17.595C118.388 22.3676 116.055 27.7911 113.886 33.8653C111.771 39.9396 109.846 46.285 108.11 52.9017C106.375 59.5183 104.883 66.0806 103.636 72.5888C102.443 79.0427 101.494 85.0627 100.788 90.6489C100.138 96.235 99.8123 101.008 99.8123 104.967C99.8123 107.787 99.9207 110.417 100.138 112.858C100.409 115.298 100.87 117.441 101.521 119.285C102.226 121.074 103.202 122.485 104.449 123.515C105.751 124.491 107.432 124.979 109.493 124.979Z" fill="#333333"/>
</g>
</svg>
