<svg width="222" height="176" viewBox="0 0 222 176" fill="none" xmlns="http://www.w3.org/2000/svg">
<g style="mix-blend-mode:multiply" opacity="0.5">
<path d="M25.042 173.461L63.2318 4.17163H36.784V2.46162H105.412L66.6518 173.461H25.042ZM0.190186 173.461V171.751H92.0736V173.461H0.190186Z" fill="#343434"/>
<path d="M152.347 175.741C141.479 175.741 132.131 173.195 124.303 168.103C116.475 163.011 110.433 156.361 106.177 148.153C101.921 139.869 99.793 130.939 99.793 121.363C99.793 108.215 101.427 95.637 104.695 83.6291C108.039 71.5452 112.599 60.4493 118.375 50.3413C124.227 40.1574 130.991 31.3414 138.667 23.8935C146.419 16.3695 154.741 10.5556 163.633 6.45161C172.525 2.27163 181.682 0.181641 191.106 0.181641C201.898 0.181641 211.208 2.72763 219.036 7.8196C226.94 12.8356 232.982 19.4855 237.162 27.7695C241.418 36.0534 243.546 44.9834 243.546 54.5593C243.546 67.7072 241.912 80.3231 238.644 92.4071C235.376 104.415 230.816 115.511 224.964 125.695C219.112 135.803 212.31 144.619 204.558 152.143C196.882 159.591 188.598 165.405 179.706 169.585C170.815 173.689 161.695 175.741 152.347 175.741ZM152.347 174.145C156.375 174.145 160.289 172.131 164.089 168.103C167.889 164.075 171.537 158.641 175.033 151.801C178.528 144.885 181.758 137.095 184.722 128.431C187.762 119.767 190.498 110.761 192.93 101.413C195.362 92.0651 197.414 82.8691 199.086 73.8252C200.834 64.7812 202.164 56.4593 203.076 48.8593C204.064 41.1834 204.558 34.8374 204.558 29.8215C204.558 25.7935 204.368 22.1075 203.988 18.7635C203.684 15.3435 203.038 12.3796 202.05 9.87158C201.138 7.2876 199.77 5.31161 197.946 3.94362C196.198 2.49963 193.918 1.77764 191.106 1.77764C187.002 1.77764 183.05 3.75362 179.25 7.70559C175.451 11.5816 171.803 16.9015 168.307 23.6655C164.811 30.3535 161.543 37.9534 158.503 46.4653C155.539 54.9773 152.841 63.8692 150.409 73.1412C147.977 82.4131 145.887 91.6091 144.139 100.729C142.467 109.773 141.137 118.209 140.149 126.037C139.237 133.865 138.781 140.553 138.781 146.101C138.781 150.053 138.933 153.739 139.237 157.159C139.617 160.579 140.263 163.581 141.175 166.165C142.163 168.673 143.531 170.649 145.279 172.093C147.103 173.461 149.459 174.145 152.347 174.145Z" fill="#343434"/>
</g>
</svg>
