<svg width="152" height="34" viewBox="0 0 152 34" fill="none" xmlns="http://www.w3.org/2000/svg">
<g style="mix-blend-mode:multiply" opacity="0.8">
<path d="M3.97909 32.6725L22.4414 0.646064H24.8277L28.8048 32.6725H21.8971L19.2387 6.84202L4.33494 32.6725H3.97909ZM0.336871 32.6725V32.3585H9.54708V32.6725H0.336871ZM17.0827 32.6725V32.3585H31.7353V32.6725H17.0827ZM10.1332 22.5831V22.2691H23.781V22.5831H10.1332ZM38.9391 33.0911C37.7251 33.0911 36.7901 32.819 36.1342 32.2748C35.4923 31.7166 35.1085 30.963 34.9829 30.0141C34.8573 29.0512 34.9411 27.9697 35.2341 26.7696L38.5205 13.7288H35.7993V13.4148H44.235L40.7812 26.6649C40.5021 27.7534 40.2997 28.6744 40.1742 29.428C40.0625 30.1676 40.0695 30.7258 40.1951 31.1026C40.3346 31.4793 40.6486 31.6677 41.137 31.6677C41.5836 31.6677 42.1488 31.3328 42.8326 30.663C43.5303 29.9932 44.256 29.0721 45.0095 27.8999C45.7631 26.7277 46.4818 25.3811 47.1655 23.86C47.8493 22.325 48.4145 20.6992 48.8611 18.9828H49.1332C48.8262 20.155 48.4215 21.39 47.9191 22.6878C47.4167 23.9856 46.8376 25.2555 46.1817 26.4975C45.5258 27.7255 44.8072 28.8349 44.0257 29.8257C43.2442 30.8165 42.4209 31.6119 41.5557 32.212C40.7044 32.7981 39.8323 33.0911 38.9391 33.0911ZM50.0961 33.0911C48.7424 33.0911 47.7516 32.8051 47.1237 32.2329C46.5097 31.6608 46.2027 30.9491 46.2027 30.0978C46.2027 29.8745 46.2236 29.6233 46.2655 29.3442C46.3073 29.0652 46.3562 28.814 46.412 28.5907L50.2635 13.4148H55.8524L51.1636 30.977C51.1217 31.1165 51.0938 31.2421 51.0799 31.3538C51.0659 31.4654 51.0589 31.5701 51.0589 31.6677C51.0589 32.0585 51.2404 32.2538 51.6032 32.2538C52.0637 32.2538 52.5591 32.0864 53.0894 31.7515C53.6336 31.4026 54.2128 30.7746 54.8268 29.8676C55.4547 28.9605 56.1315 27.6627 56.8572 25.9741L57.1503 26.0579C56.4944 27.6208 55.8245 28.9256 55.1407 29.9722C54.4709 31.0049 53.7313 31.7864 52.9219 32.3166C52.1125 32.833 51.1706 33.0911 50.0961 33.0911ZM62.9147 33.0911C61.8401 33.0911 60.9819 32.9446 60.34 32.6516C59.712 32.3445 59.2585 31.9608 58.9794 31.5003C58.7142 31.0258 58.5817 30.5304 58.5817 30.0141C58.5817 29.6931 58.6305 29.3094 58.7282 28.8628C58.8398 28.4023 58.9515 27.9627 59.0631 27.5441L63.9403 9.22831H69.3827L63.5636 30.7258C63.5217 30.8653 63.4798 31.0328 63.438 31.2282C63.3961 31.4096 63.3752 31.598 63.3752 31.7933C63.3752 32.2259 63.6682 32.4422 64.2543 32.4422C64.673 32.4422 65.1265 32.3376 65.6149 32.1282C66.1173 31.9189 66.6336 31.5701 67.1639 31.0816C67.7081 30.5932 68.2594 29.9164 68.8176 29.0512C69.3758 28.172 69.92 27.0766 70.4503 25.7648L70.7643 25.8486C70.0944 27.4534 69.3897 28.793 68.6501 29.8676C67.9244 30.9421 67.0941 31.7515 66.1592 32.2957C65.2381 32.826 64.1566 33.0911 62.9147 33.0911ZM58.7073 13.7288V13.4148H72.1039V13.7288H58.7073ZM75.7784 33.0911C74.5643 33.0911 73.6293 32.819 72.9734 32.2748C72.3315 31.7166 71.9478 30.963 71.8222 30.0141C71.6966 29.0512 71.7803 27.9697 72.0734 26.7696L75.3597 13.7288H72.6385V13.4148H81.0742L77.6204 26.6649C77.3413 27.7534 77.139 28.6744 77.0134 29.428C76.9017 30.1676 76.9087 30.7258 77.0343 31.1026C77.1739 31.4793 77.4878 31.6677 77.9763 31.6677C78.4228 31.6677 78.988 31.3328 79.6718 30.663C80.3695 29.9932 81.0952 29.0721 81.8487 27.8999C82.6023 26.7277 83.321 25.3811 84.0048 23.86C84.6886 22.325 85.2537 20.6992 85.7003 18.9828H85.9724C85.6654 20.155 85.2607 21.39 84.7583 22.6878C84.256 23.9856 83.6768 25.2555 83.021 26.4975C82.3651 27.7255 81.6464 28.8349 80.8649 29.8257C80.0834 30.8165 79.2601 31.6119 78.3949 32.212C77.5437 32.7981 76.6715 33.0911 75.7784 33.0911ZM86.9353 33.0911C85.5817 33.0911 84.5909 32.8051 83.9629 32.2329C83.3489 31.6608 83.0419 30.9491 83.0419 30.0978C83.0419 29.8745 83.0628 29.6233 83.1047 29.3442C83.1465 29.0652 83.1954 28.814 83.2512 28.5907L87.1027 13.4148H92.6917L88.0028 30.977C87.961 31.1165 87.9331 31.2421 87.9191 31.3538C87.9052 31.4654 87.8982 31.5701 87.8982 31.6677C87.8982 32.0585 88.0796 32.2538 88.4424 32.2538C88.9029 32.2538 89.3983 32.0864 89.9286 31.7515C90.4728 31.4026 91.052 30.7746 91.666 29.8676C92.294 28.9605 92.9708 27.6627 93.6964 25.9741L93.9895 26.0579C93.3336 27.6208 92.6638 28.9256 91.98 29.9722C91.3101 31.0049 90.5705 31.7864 89.7612 32.3166C88.9518 32.833 88.0098 33.0911 86.9353 33.0911ZM120.707 33.0911C119.395 33.0911 118.439 32.7841 117.839 32.1701C117.239 31.5561 116.939 30.7746 116.939 29.8257C116.939 29.5187 116.974 29.1907 117.044 28.8419C117.128 28.479 117.204 28.1581 117.274 27.879L119.64 19.7782C120.17 17.978 120.47 16.6453 120.54 15.7801C120.609 14.9149 120.4 14.4823 119.912 14.4823C119.312 14.4823 118.656 14.8382 117.944 15.5499C117.232 16.2476 116.521 17.1965 115.809 18.3967C115.097 19.5828 114.434 20.9295 113.82 22.4366C113.206 23.9437 112.69 25.4997 112.271 27.1045H112.041C112.46 25.4997 112.997 23.8739 113.653 22.2273C114.309 20.5666 115.062 19.0456 115.914 17.664C116.765 16.2685 117.693 15.1452 118.698 14.2939C119.716 13.4427 120.798 13.0171 121.942 13.0171C123.17 13.0171 124.07 13.3101 124.642 13.8962C125.215 14.4684 125.529 15.2289 125.584 16.1778C125.654 17.1268 125.529 18.1664 125.208 19.2967L121.879 30.8304C121.824 30.9979 121.775 31.1793 121.733 31.3747C121.705 31.5561 121.691 31.7166 121.691 31.8561C121.691 32.0096 121.733 32.1352 121.817 32.2329C121.914 32.3166 122.054 32.3585 122.235 32.3585C122.668 32.3585 123.163 32.191 123.721 31.8561C124.28 31.5073 124.88 30.8723 125.522 29.9513C126.163 29.0163 126.833 27.6906 127.531 25.9741L127.824 26.0579C127.154 27.7464 126.477 29.107 125.794 30.1397C125.11 31.1584 124.356 31.905 123.533 32.3794C122.724 32.8539 121.782 33.0911 120.707 33.0911ZM94.3324 32.6725L99.1259 13.7288H96.2582V13.4148H104.631L99.7748 32.6725H94.3324ZM105.427 32.6725L108.713 19.7782C109.159 17.9501 109.439 16.5965 109.55 15.7173C109.676 14.8242 109.487 14.3777 108.985 14.3777C108.385 14.3777 107.722 14.7335 106.996 15.4452C106.271 16.1569 105.538 17.1198 104.799 18.3339C104.059 19.5479 103.368 20.9155 102.726 22.4366C102.098 23.9437 101.575 25.4997 101.156 27.1045H100.947C101.366 25.5276 101.903 23.9158 102.559 22.2691C103.229 20.6225 103.996 19.1014 104.861 17.7059C105.727 16.2964 106.669 15.1661 107.687 14.3149C108.72 13.4497 109.808 13.0171 110.953 13.0171C112.069 13.0171 112.92 13.3101 113.506 13.8962C114.093 14.4684 114.441 15.2289 114.553 16.1778C114.665 17.1268 114.574 18.1664 114.281 19.2967L110.848 32.6725H105.427ZM143.616 33.0911C142.43 33.0911 141.53 32.8051 140.916 32.2329C140.316 31.6468 140.016 30.8514 140.016 29.8466C140.016 29.5396 140.051 29.2187 140.12 28.8837C140.19 28.5349 140.267 28.2279 140.351 27.9627L142.842 19.4223C143.163 18.3339 143.386 17.4198 143.511 16.6802C143.637 15.9406 143.623 15.3824 143.47 15.0056C143.33 14.6288 143.03 14.4405 142.569 14.4405C142.109 14.4405 141.537 14.7754 140.853 15.4452C140.169 16.115 139.451 17.0361 138.697 18.2083C137.957 19.3665 137.246 20.7132 136.562 22.2482C135.892 23.7693 135.327 25.388 134.866 27.1045H134.657C134.964 25.9323 135.362 24.7043 135.85 23.4204C136.353 22.1226 136.925 20.8597 137.567 19.6317C138.222 18.4036 138.934 17.2942 139.702 16.3034C140.469 15.2987 141.279 14.5032 142.13 13.9171C142.981 13.3171 143.853 13.0171 144.746 13.0171C145.905 13.0171 146.805 13.2962 147.447 13.8543C148.103 14.3986 148.507 15.1452 148.661 16.0941C148.828 17.043 148.737 18.1106 148.389 19.2967L145.165 30.4955C145.123 30.6072 145.088 30.7397 145.06 30.8932C145.032 31.0467 145.019 31.1793 145.019 31.291C145.019 31.5142 145.06 31.6887 145.144 31.8143C145.242 31.9399 145.402 32.0027 145.626 32.0027C146.463 32.0027 147.307 31.5073 148.158 30.5165C149.024 29.5257 149.882 28.0116 150.733 25.9741L151.026 26.0579C150.342 27.7464 149.624 29.107 148.87 30.1397C148.13 31.1584 147.328 31.905 146.463 32.3794C145.612 32.8539 144.663 33.0911 143.616 33.0911ZM127.959 32.6725L132.836 13.7288H129.884V13.4148H138.446L133.443 32.6725H127.959Z" fill="#333333"/>
</g>
</svg>
