<svg width="98" height="40" viewBox="0 0 98 40" fill="none" xmlns="http://www.w3.org/2000/svg">
<g opacity="0.8" clip-path="url(#clip0_651_928)">
<path d="M3.12224 30.4762V39.5367H0.393799V19.511H13.7271L14.0875 21.4157C14.036 21.4157 14.036 21.4157 13.9845 21.3643C13.8816 21.3643 13.8301 21.3643 13.8301 21.3128C13.6242 21.0039 12.852 20.695 11.565 20.3861C10.2265 20.0773 8.47617 19.9228 6.26252 19.9228H3.12224V29.9614H11.8224V30.4248H3.12224V30.4762Z" fill="black"/>
<path d="M23.251 33.8741C23.251 33.3593 23.251 32.8445 23.251 32.3297C23.251 31.7634 23.1995 31.2486 23.1995 30.6823C22.9936 31.1456 22.6332 31.4545 22.1184 31.7634C21.6036 32.0208 21.0373 32.2782 20.4196 32.4841C19.8018 32.69 19.1326 32.8959 18.4633 33.0504C17.7941 33.2563 17.1248 33.4622 16.5586 33.7711C15.9923 34.08 15.529 34.4403 15.1686 34.9037C14.8082 35.367 14.6023 35.9848 14.6023 36.7055C14.6023 37.5292 14.8082 38.0954 15.2201 38.5073C15.6319 38.9191 16.1982 39.125 16.9189 39.125C17.6396 39.125 18.5663 38.9191 19.5444 38.4558C20.574 37.9925 21.7066 37.3232 22.9421 36.4481C22.6332 36.757 22.2214 37.1173 21.7066 37.5292C21.1918 37.941 20.574 38.3014 19.9048 38.6617C19.2355 39.0221 18.5663 39.331 17.897 39.5369C17.1763 39.7943 16.5586 39.8972 15.9923 39.8972C15.529 39.8972 15.0142 39.8458 14.5508 39.7428C14.0875 39.6398 13.6242 39.4854 13.2123 39.228C12.8005 38.9706 12.4916 38.6617 12.2342 38.2499C11.9768 37.838 11.8224 37.2717 11.8224 36.6025C11.8224 36.0362 11.9768 35.5214 12.2857 35.1096C12.5946 34.6977 13.0064 34.3374 13.5212 34.0285C14.036 33.7196 14.6538 33.4622 15.323 33.2563C15.9923 33.0504 16.6615 32.8445 17.3822 32.69C18.103 32.4841 18.7722 32.3297 19.4414 32.1752C20.1107 32.0208 20.7284 31.8149 21.2432 31.6089C21.8095 31.403 22.2214 31.1456 22.5817 30.8882C22.8906 30.5793 23.0965 30.2705 23.148 29.8586C23.045 29.2409 22.9421 28.6746 22.7362 28.1083C22.5817 27.542 22.3243 27.0787 22.0154 26.6669C21.7066 26.255 21.2947 25.9461 20.8314 25.6887C20.3681 25.4313 19.7503 25.3799 19.0811 25.3799C18.0515 25.4313 17.2793 25.5343 16.7645 25.7402C16.2497 25.9461 15.8893 26.2035 15.6319 26.5124C15.3745 26.8213 15.323 27.1302 15.323 27.4905C15.323 27.8509 15.323 28.1598 15.323 28.4687C15.323 28.829 15.2201 29.0864 15.0142 29.2923C14.8082 29.4983 14.5508 29.5497 14.2419 29.5497C13.9331 29.5497 13.6242 29.4468 13.3153 29.1894C13.0064 28.932 12.9035 28.6231 12.9035 28.2113C12.9035 27.645 13.1609 27.1302 13.6242 26.7183C14.0875 26.3065 14.7053 25.9461 15.3745 25.6887C16.0438 25.4313 16.7645 25.2254 17.4852 25.1225C18.2059 25.0195 18.7722 24.968 19.2355 24.968C20.677 24.968 21.861 25.1739 22.7362 25.5858C23.6113 25.9976 24.2806 26.5639 24.7439 27.2331C25.2072 27.9024 25.5161 28.7261 25.6705 29.6527C25.825 30.5793 25.8764 31.506 25.8764 32.5356V39.5884H23.3024V33.8741H23.251Z" fill="black"/>
<path d="M31.5393 38.5072C31.7967 38.8676 32.2085 39.125 32.7748 39.2794C33.3411 39.4339 33.9073 39.5368 34.5766 39.5368C35.1943 39.5368 35.8636 39.4854 36.4813 39.3309C37.1506 39.1765 37.7169 38.9706 38.2317 38.7132C38.7465 38.4558 39.2098 38.1469 39.5187 37.735C39.879 37.3747 40.0335 36.9114 40.0335 36.3966C40.0335 35.7788 39.7761 35.264 39.2098 34.9036C38.6435 34.5433 37.9228 34.2344 37.0991 33.977C36.2754 33.7196 35.3488 33.4622 34.3707 33.2563C33.3925 33.0504 32.4659 32.7415 31.6422 32.4326C30.8185 32.0722 30.0978 31.6604 29.5315 31.0941C28.9653 30.5278 28.7079 29.8071 28.7079 28.9319C28.7079 28.1083 28.9138 27.439 29.3256 26.9242C29.7375 26.4094 30.3037 25.9976 30.9215 25.6887C31.5907 25.3798 32.26 25.1739 33.0322 25.0709C33.8044 24.968 34.4736 24.9165 35.1429 24.9165C35.4517 24.9165 35.8636 24.968 36.3784 25.0195C36.8932 25.0709 37.408 25.2254 37.8713 25.4313C38.3346 25.6372 38.7979 25.8431 39.1583 26.152C39.5187 26.4609 39.7246 26.8727 39.7246 27.3361C39.7246 27.6449 39.6216 27.9023 39.3642 28.1083C39.1068 28.3142 38.8494 28.4171 38.5405 28.4171C38.1287 28.4171 37.8713 28.3142 37.6654 28.1597C37.4595 28.0053 37.3565 27.7994 37.2535 27.542C37.1506 27.3361 37.0991 27.0787 37.0476 26.8213C36.9961 26.5639 36.9447 26.3579 36.7902 26.2035C36.5328 25.8946 36.2239 25.6372 35.9151 25.5343C35.5547 25.4313 35.1429 25.3283 34.6795 25.3283C34.1647 25.3283 33.6499 25.3798 33.1351 25.4828C32.5689 25.5857 32.1055 25.7402 31.6422 25.9461C31.1789 26.152 30.8185 26.4609 30.5611 26.7698C30.2523 27.1301 30.1493 27.542 30.1493 28.0053C30.1493 28.4686 30.3037 28.8805 30.6641 29.1893C30.973 29.4982 31.4363 29.7556 31.9511 30.013C32.4659 30.2189 33.0837 30.4249 33.8044 30.5793C34.4736 30.7337 35.1943 30.8882 35.9151 31.0941C36.6358 31.3 37.3565 31.5059 38.0257 31.7119C38.695 31.9178 39.3127 32.2267 39.879 32.5356C40.3938 32.8444 40.8571 33.2563 41.166 33.7196C41.4749 34.1829 41.6808 34.8007 41.6808 35.4699C41.6808 36.2421 41.4749 36.9114 41.0631 37.4776C40.6512 38.0439 40.1364 38.4558 39.4672 38.8161C38.7979 39.1765 38.0772 39.4339 37.2535 39.5883C36.4299 39.7428 35.5547 39.8457 34.6795 39.8457C34.3707 39.8457 34.0618 39.8457 33.6499 39.7942C33.2381 39.7428 32.8263 39.7428 32.3629 39.6398C31.8996 39.5883 31.4878 39.4854 31.0245 39.3309C30.5611 39.228 30.2008 39.0735 29.8404 38.8676C29.4801 38.6617 29.2227 38.4558 28.9653 38.1984C28.7593 37.941 28.6564 37.6321 28.6564 37.2202C28.6564 36.9114 28.7593 36.7054 29.0167 36.4995C29.2741 36.2936 29.5315 36.1906 29.8404 36.1906C30.2523 36.1906 30.5097 36.2936 30.7156 36.448C30.9215 36.6025 31.0245 36.8084 31.1274 37.0658C31.1789 37.3232 31.2819 37.5291 31.2819 37.7865C31.3333 38.1469 31.4363 38.3528 31.5393 38.5072Z" fill="black"/>
<path d="M43.637 19.5111L46.211 18.1211V39.5883H43.637V19.5111ZM46.5199 26.6668C46.7258 26.3579 47.0347 26.1005 47.3436 25.8946C47.6525 25.6887 48.0128 25.4827 48.4247 25.3798C48.8365 25.2768 49.1969 25.1224 49.6087 25.0709C50.0206 25.0194 50.3809 24.9679 50.7928 24.9679C51.9768 24.9679 52.9549 25.1224 53.7271 25.3798C54.4993 25.6372 55.1686 26.049 55.6319 26.5123C56.1467 26.9757 56.507 27.5419 56.7644 28.1597C57.0218 28.7775 57.2278 29.4467 57.3307 30.1159C57.4337 30.8367 57.4852 31.5059 57.5366 32.2781C57.5366 32.9988 57.5366 33.7196 57.5366 34.3888V39.5883H54.9626V34.1314C54.9626 33.6166 54.9626 33.1018 54.9626 32.484C54.9626 31.8663 54.9112 31.2485 54.8597 30.5793C54.8082 29.91 54.6538 29.2923 54.4993 28.6745C54.3449 28.0567 54.0875 27.5419 53.7786 27.0271C53.4697 26.5638 53.0064 26.152 52.4916 25.8946C51.9768 25.5857 51.3076 25.4313 50.4839 25.4313C49.8146 25.4313 49.2998 25.4827 48.8365 25.5857C48.3732 25.6887 48.0128 25.7916 47.7039 25.8946C47.3951 25.9975 47.1377 26.152 46.9832 26.3064C46.7773 26.4609 46.6229 26.5638 46.5199 26.6668Z" fill="black"/>
<path d="M63.3705 24.5046V39.5367H60.7965V25.8946L63.3705 24.5046Z" fill="black"/>
<path d="M60.0909 20.0765C59.6852 20.2899 58.6827 20.3847 58.6827 20.3847V20.7639C58.6827 20.7639 59.6852 20.8587 60.0909 21.0721C60.4728 21.2854 60.807 21.5698 61.0456 21.9491C61.3082 22.3283 61.4753 22.755 61.5946 23.2527C61.7139 23.7505 61.7617 24.1795 61.7617 24.1795H62.0958C62.0958 24.1795 62.2136 23.499 62.2629 23.2527C62.3822 22.755 62.5732 22.3283 62.8118 21.9491C63.0505 21.5698 63.3608 21.2854 63.7665 21.0721C64.1723 20.8587 65.1747 20.7639 65.1747 20.7639V20.3847C65.1747 20.3847 64.1723 20.2899 63.7665 20.0765C63.3847 19.8632 63.0505 19.5788 62.8118 19.1995C62.5493 18.8203 62.3822 18.3936 62.2629 17.8959C62.2081 17.6025 62.0958 16.855 62.0958 16.855H61.7617C61.7617 16.855 61.6507 17.7063 61.5946 17.8959C61.4753 18.3936 61.2843 18.8203 61.0456 19.1995C60.807 19.5788 60.4967 19.8632 60.0909 20.0765Z" fill="black"/>
<path d="M66.4667 32.4326C66.4667 31.4545 66.6212 30.5278 66.9301 29.6012C67.2389 28.6745 67.7537 27.9023 68.423 27.1816C69.0922 26.4609 69.9159 25.9461 70.894 25.5343C71.8721 25.1224 73.0562 24.9165 74.3947 24.9165C75.7331 24.9165 76.9172 25.1224 77.8953 25.5343C78.8734 25.9461 79.6971 26.5124 80.3663 27.2331C81.0356 27.9538 81.4989 28.726 81.8078 29.6527C82.1167 30.5278 82.2711 31.5059 82.2711 32.4326C82.2711 33.4107 82.1167 34.3374 81.8078 35.264C81.4989 36.1906 80.9841 36.9628 80.3149 37.6836C79.6456 38.4043 78.8219 38.9191 77.8438 39.3309C76.8657 39.7428 75.6817 39.9487 74.3947 39.9487C73.1077 39.9487 71.8721 39.7428 70.894 39.3309C69.9159 38.9191 69.0922 38.3528 68.423 37.6321C67.7537 36.9114 67.2904 36.1392 66.9301 35.2125C66.6212 34.3374 66.4667 33.4107 66.4667 32.4326ZM73.0562 25.5343C72.181 25.5343 71.4603 25.7402 70.894 26.152C70.3277 26.5639 69.8644 27.0787 69.5555 27.6964C69.2467 28.3142 69.0922 29.0864 68.9893 29.9101C68.9378 30.7337 68.9893 31.6089 69.1437 32.4841C69.2981 33.3592 69.5555 34.1829 69.9674 35.0581C70.3277 35.8818 70.7911 36.6025 71.3573 37.2717C71.9236 37.8895 72.5414 38.4558 73.2621 38.8161C73.9828 39.228 74.755 39.4339 75.6302 39.4339C76.5053 39.4339 77.1746 39.228 77.7409 38.8161C78.3071 38.4043 78.719 37.8895 79.0279 37.2717C79.3367 36.654 79.4912 35.8818 79.5941 35.0581C79.6456 34.2344 79.5941 33.3592 79.4397 32.4841C79.2853 31.6089 78.9764 30.7852 78.616 29.9101C78.2557 29.0864 77.7923 28.3657 77.2261 27.6964C76.6598 27.0787 76.042 26.5124 75.3213 26.152C74.6006 25.7917 73.9313 25.5343 73.0562 25.5343Z" fill="black"/>
<path d="M84.4793 25.8946L87.0533 24.5046V39.5368H84.4793V25.8946ZM87.3107 26.6668C87.5166 26.3579 87.8255 26.1005 88.1344 25.8946C88.4433 25.6887 88.8036 25.4828 89.2155 25.3798C89.6273 25.2768 89.9877 25.1224 90.3995 25.0709C90.8114 25.0194 91.1717 24.968 91.5835 24.968C92.7676 24.968 93.7457 25.1224 94.5179 25.3798C95.2901 25.6372 95.9594 26.049 96.4227 26.5124C96.9375 26.9757 97.2978 27.542 97.5552 28.1597C97.8126 28.7775 98.0186 29.4467 98.1215 30.116C98.2245 30.8367 98.276 31.5059 98.3274 32.2781C98.3274 32.9988 98.3274 33.7196 98.3274 34.3888V39.5883H95.7534V34.1314C95.7534 33.6166 95.7534 33.1018 95.7534 32.484C95.7534 31.8663 95.702 31.2485 95.6505 30.5793C95.599 29.91 95.4446 29.2923 95.2901 28.6745C95.1357 28.0568 94.8783 27.542 94.5694 27.0272C94.2605 26.5638 93.7972 26.152 93.2824 25.8946C92.7676 25.5857 92.0984 25.4313 91.2747 25.4313C90.6054 25.4313 90.0906 25.4828 89.6273 25.5857C89.164 25.6887 88.8036 25.7916 88.4947 25.8946C88.1859 25.9976 87.9285 26.152 87.774 26.3064C87.5681 26.4609 87.4137 26.5638 87.3107 26.6668Z" fill="black"/>
<path d="M28.4955 1.0813C30.5547 1.0813 32.3565 1.39018 33.9009 1.95646C35.4453 2.57422 36.7323 3.34642 37.7619 4.32454C38.7915 5.30266 39.5637 6.38374 40.0786 7.67075C40.5934 8.90627 40.8508 10.1933 40.8508 11.5317C40.8508 12.8187 40.5934 14.1058 40.0786 15.3413C39.5637 16.5768 38.7915 17.7094 37.7619 18.6875C36.7323 19.6656 35.4453 20.4378 33.9009 21.0556C32.3565 21.6733 30.5547 21.9822 28.4955 21.9822C26.4363 21.9822 24.6345 21.6733 23.0901 21.0556C21.5457 20.4378 20.2587 19.6656 19.2291 18.6875C18.1995 17.7094 17.4273 16.5768 16.9125 15.3413C16.3977 14.1058 16.1403 12.8187 16.1403 11.5317C16.1403 10.1933 16.3977 8.95775 16.9125 7.67075C17.4273 6.43522 18.1995 5.30266 19.2291 4.32454C20.2587 3.34642 21.5457 2.57422 23.0901 1.95646C24.6345 1.39018 26.4363 1.0813 28.4955 1.0813ZM30.0399 21.313C31.5843 21.313 32.9228 21.0556 34.0039 20.4893C35.085 19.923 35.9601 19.2023 36.6294 18.2756C37.2986 17.349 37.7105 16.3194 37.9164 15.1354C38.1223 13.9513 38.1223 12.7673 37.9679 11.5317C37.7619 10.2962 37.4016 9.11219 36.7838 7.92815C36.1661 6.7441 35.4453 5.7145 34.5187 4.78786C33.5921 3.86122 32.511 3.1405 31.224 2.57422C29.937 2.00794 28.547 1.75054 27.0026 1.75054C25.4067 1.75054 24.0682 2.00794 22.9872 2.57422C21.9061 3.1405 21.0309 3.86122 20.4132 4.78786C19.7439 5.7145 19.3321 6.7441 19.1262 7.92815C18.9202 9.11219 18.9202 10.2962 19.0747 11.5317C19.2806 12.7673 19.641 13.9513 20.2072 15.1354C20.7735 16.3194 21.5457 17.349 22.4724 18.2756C23.399 19.2023 24.5316 19.923 25.7671 20.4893C27.0541 21.0041 28.4955 21.313 30.0399 21.313Z" fill="black"/>
<path d="M43.637 5.92023L46.211 4.53027V13.076C46.2625 13.9511 46.4169 14.8263 46.6743 15.5985C46.9317 16.3707 47.2921 17.0914 47.8069 17.6577C48.2702 18.224 48.8365 18.7388 49.5572 19.0476C50.2265 19.408 50.9987 19.5624 51.8738 19.5624C52.9549 19.5624 53.7786 19.2021 54.4478 18.5328C55.1171 17.8636 55.5289 16.9884 55.7863 15.9588C56.0437 14.9292 56.0952 13.7967 55.9922 12.6126C55.8893 11.4286 55.5804 10.296 55.1171 9.26644C54.6538 8.23684 54.036 7.36168 53.2638 6.69244C52.4916 6.02319 51.565 5.66283 50.5354 5.66283C50.175 5.66283 49.7631 5.71431 49.4028 5.86875C49.0424 6.02319 48.6821 6.17763 48.3217 6.38356C47.9613 6.58948 47.6525 6.84688 47.3951 7.10428C47.0862 7.36168 46.8803 7.67056 46.7258 7.92796C47.1377 7.0528 47.8069 6.33208 48.6821 5.76579C49.6087 5.19951 50.5868 4.94211 51.6164 4.94211C52.9034 4.94211 53.9845 5.14803 54.9112 5.55987C55.8378 5.97171 56.5585 6.538 57.1763 7.25872C57.7426 7.97944 58.2059 8.75164 58.4633 9.67828C58.7207 10.6049 58.8751 11.4801 58.8751 12.4582C58.8751 13.4363 58.7207 14.3115 58.4633 15.2381C58.2059 16.1133 57.7426 16.937 57.1763 17.6577C56.61 18.3784 55.8378 18.9447 54.9112 19.3565C53.9845 19.7684 52.9034 20.0258 51.6679 20.0258C50.3294 20.0258 49.1969 19.8198 48.3217 19.4595C47.4465 19.0991 46.7773 18.5843 46.2625 17.9666V26.7697H43.6885V5.92023H43.637Z" fill="black"/>
<path d="M64.888 9.8842C64.888 10.8623 65.0424 11.8404 65.3513 12.87C65.6602 13.8996 66.1235 14.7748 66.6898 15.65C67.256 16.4736 67.9768 17.1429 68.8004 17.6577C69.6241 18.1725 70.5508 18.4299 71.5289 18.4299C72.4555 18.4299 73.2792 18.224 73.9999 17.8636C74.7206 17.4518 75.3384 16.9884 75.8532 16.4736C76.368 15.9588 76.7799 15.3926 77.0373 14.8778C77.3461 14.363 77.5006 13.9511 77.5006 13.6937C77.4491 14.363 77.1917 15.0837 76.7799 15.7529C76.368 16.4222 75.8532 17.0399 75.184 17.6062C74.5147 18.1725 73.794 18.5843 72.9188 18.9447C72.0437 19.2536 71.117 19.4595 70.1389 19.4595C68.8004 19.4595 67.6164 19.2536 66.6383 18.8417C65.6602 18.4299 64.8365 17.8636 64.1672 17.1429C63.498 16.4222 63.0347 15.65 62.6743 14.7233C62.3654 13.8482 62.211 12.87 62.211 11.9434C62.211 10.6564 62.4169 9.57532 62.8288 8.64868C63.2406 7.72204 63.8069 6.94984 64.4761 6.33208C65.1454 5.71431 65.9176 5.25099 66.7927 4.99359C67.6679 4.68471 68.543 4.53027 69.4182 4.53027C70.0874 4.53027 70.7567 4.63323 71.3744 4.83915C72.0437 5.04507 72.61 5.35395 73.1762 5.76579C73.7425 6.17763 74.2059 6.64096 74.6177 7.15576C75.0295 7.72204 75.3384 8.28832 75.5958 8.95756C75.6988 9.26644 75.6473 9.52384 75.4928 9.72976C75.3384 9.93568 75.081 10.0386 74.7206 10.0386H64.888V9.8842ZM68.9034 4.89063C68.2342 4.89063 67.6679 4.99359 67.1531 5.25099C66.6383 5.50839 66.2264 5.81727 65.9176 6.22912C65.6087 6.64096 65.3513 7.15576 65.1454 7.67056C64.9909 8.23684 64.888 8.80312 64.8365 9.42088H73.2792C73.1762 9.06052 73.0218 8.64868 72.8159 8.13388C72.61 7.61908 72.3011 7.10428 71.9407 6.64096C71.5804 6.17763 71.1685 5.76579 70.6537 5.40543C70.1389 5.04507 69.5212 4.89063 68.9034 4.89063Z" fill="black"/>
<path d="M78.8984 5.76594L81.4724 4.37598V19.4082H78.8984V5.76594ZM81.7813 6.53814C81.9872 6.22926 82.2961 5.97186 82.605 5.76594C82.9139 5.56002 83.2742 5.3541 83.6861 5.25114C84.0979 5.0967 84.4583 4.99374 84.8701 4.94226C85.282 4.89078 85.6423 4.8393 86.0542 4.8393C87.2382 4.8393 88.2163 4.99374 88.9885 5.25114C89.7607 5.50854 90.43 5.92038 90.8933 6.3837C91.4081 6.84702 91.7684 7.4133 92.0258 8.03106C92.2833 8.64882 92.4892 9.31806 92.5921 9.9873C92.6951 10.708 92.7466 11.3773 92.7981 12.1495C92.7981 12.8702 92.7981 13.5909 92.7981 14.2601V19.4596H90.224V14.0027C90.224 13.4879 90.224 12.9731 90.224 12.3039C90.224 11.6861 90.1726 11.0684 90.1211 10.3991C90.0696 9.7299 89.9152 9.11214 89.7607 8.49438C89.6063 7.87662 89.3489 7.36182 89.04 6.84702C88.7311 6.3837 88.2678 5.97186 87.753 5.66298C87.2382 5.3541 86.569 5.19966 85.7453 5.19966C85.076 5.19966 84.5612 5.25114 84.0979 5.3541C83.6346 5.45706 83.2742 5.56002 82.9654 5.66298C82.6565 5.76594 82.3991 5.92038 82.2446 6.07482C82.0387 6.28074 81.8843 6.43518 81.7813 6.53814Z" fill="black"/>
</g>
<defs>
<clipPath id="clip0_651_928">
<rect width="97.6062" height="40" fill="white" transform="translate(0.393799)"/>
</clipPath>
</defs>
</svg>
