<svg width="168" height="11" viewBox="0 0 168 11" fill="none" xmlns="http://www.w3.org/2000/svg">
<path d="M0.686823 9.9967H3.93209C4.5096 9.9967 4.99661 9.92344 5.39311 9.77691C5.78961 9.62175 6.10853 9.4235 6.34988 9.18215C6.59123 8.94081 6.76362 8.66929 6.86706 8.36761C6.97911 8.0573 7.03514 7.747 7.03514 7.43669C7.03514 6.94538 6.92739 6.55318 6.7119 6.26012C6.50503 5.96705 6.25507 5.74295 5.962 5.58779C5.66894 5.43264 5.36725 5.32921 5.05695 5.27749C4.74664 5.22577 4.49667 5.1956 4.30704 5.18698V5.13527C4.60873 5.13527 4.89317 5.07924 5.16038 4.96718C5.42759 4.84651 5.66032 4.69567 5.85857 4.51466C6.06544 4.32503 6.22921 4.10954 6.34988 3.86819C6.47056 3.61822 6.53089 3.35532 6.53089 3.0795C6.53089 2.83815 6.47917 2.59249 6.37574 2.34252C6.27231 2.09256 6.11284 1.86414 5.89735 1.65727C5.69048 1.4504 5.41897 1.28232 5.0828 1.15302C4.75526 1.01511 4.36738 0.946153 3.91916 0.946153H0.686823V9.9967ZM1.86339 9.42781V5.47143H3.28562C3.70798 5.47143 4.07431 5.52746 4.38462 5.63951C4.69492 5.75156 4.9492 5.90241 5.14745 6.09204C5.35432 6.28167 5.50516 6.50147 5.59998 6.75144C5.70341 7.0014 5.75513 7.2643 5.75513 7.54013C5.75513 7.84181 5.6991 8.10902 5.58705 8.34175C5.48361 8.57447 5.34139 8.77272 5.16038 8.9365C4.97937 9.10027 4.76388 9.22525 4.51391 9.31145C4.27256 9.38902 4.01398 9.42781 3.73815 9.42781H1.86339ZM1.86339 4.90254V1.51505H3.44078C3.77694 1.51505 4.06139 1.56245 4.29411 1.65727C4.53546 1.75208 4.7294 1.87707 4.87593 2.03222C5.03109 2.18737 5.14314 2.36407 5.2121 2.56232C5.28105 2.76057 5.31553 2.95882 5.31553 3.15707C5.31553 3.40704 5.26382 3.63977 5.16038 3.85526C5.06557 4.07075 4.92765 4.25607 4.74664 4.41122C4.57425 4.56637 4.37169 4.68705 4.13896 4.77324C3.91485 4.85944 3.6735 4.90254 3.41492 4.90254H1.86339ZM11.2348 9.9967V0.946153H12.4114V9.28559H17.0789V9.9967H11.2348ZM26.0422 7.33326L27.2834 9.9967H28.5375L24.3226 0.946153H23.6761L19.849 9.9967H20.4438L21.5816 7.33326H26.0422ZM25.7707 6.75144H21.8272L23.689 2.39424H23.7408L25.7707 6.75144ZM40.0978 8.32882C39.2186 9.1563 38.1756 9.57004 36.9689 9.57004C36.2966 9.57004 35.7018 9.45367 35.1846 9.22094C34.6675 8.98821 34.2365 8.67791 33.8917 8.29003C33.5469 7.90215 33.284 7.45393 33.103 6.94538C32.9306 6.43682 32.8444 5.90672 32.8444 5.35506C32.8444 4.76893 32.9349 4.23452 33.1159 3.75182C33.3056 3.26051 33.5685 2.83815 33.9046 2.48475C34.2408 2.13134 34.6373 1.85552 35.0941 1.65727C35.5596 1.45902 36.0638 1.35989 36.6069 1.35989C36.9775 1.35989 37.3137 1.40299 37.6154 1.48919C37.9257 1.57538 38.1972 1.68744 38.4299 1.82535C38.6713 1.96326 38.8652 2.12272 39.0117 2.30374C39.1669 2.47613 39.2746 2.65283 39.335 2.83384H40.2917C40.1624 2.54077 39.9944 2.26926 39.7875 2.01929C39.5892 1.76932 39.3393 1.55383 39.0376 1.37282C38.7359 1.19181 38.3825 1.04959 37.9774 0.946153C37.5723 0.842719 37.1111 0.791001 36.5939 0.791001C35.844 0.791001 35.1588 0.898746 34.5382 1.11424C33.9262 1.32972 33.4004 1.64003 32.9608 2.04515C32.5212 2.44165 32.1807 2.92435 31.9394 3.49324C31.698 4.05351 31.5774 4.68274 31.5774 5.38092C31.5774 5.98429 31.6722 6.57473 31.8618 7.15225C32.06 7.72114 32.3617 8.22969 32.7669 8.67791C33.172 9.11751 33.6891 9.47522 34.3184 9.75105C34.9476 10.0183 35.6975 10.1519 36.5681 10.1519C37.1197 10.1519 37.6111 10.1001 38.042 9.9967C38.4816 9.89327 38.8609 9.76829 39.1798 9.62175C39.5074 9.4666 39.7789 9.30283 39.9944 9.13044C40.2099 8.95805 40.3736 8.8072 40.4857 8.67791L40.0978 8.32882ZM44.2931 9.9967H45.4696V6.81608L46.9307 5.25163L50.3699 9.9967H51.7145L47.6806 4.45001L50.9646 0.946153H50.3181L45.4696 6.04032V0.946153H44.2931V9.9967ZM69.7848 8.32882C68.9056 9.1563 67.8626 9.57004 66.6559 9.57004C65.9836 9.57004 65.3888 9.45367 64.8716 9.22094C64.3545 8.98821 63.9235 8.67791 63.5787 8.29003C63.2339 7.90215 62.971 7.45393 62.79 6.94538C62.6176 6.43682 62.5314 5.90672 62.5314 5.35506C62.5314 4.76893 62.6219 4.23452 62.8029 3.75182C62.9926 3.26051 63.2555 2.83815 63.5916 2.48475C63.9278 2.13134 64.3243 1.85552 64.7811 1.65727C65.2466 1.45902 65.7508 1.35989 66.2939 1.35989C66.6645 1.35989 67.0007 1.40299 67.3023 1.48919C67.6127 1.57538 67.8842 1.68744 68.1169 1.82535C68.3582 1.96326 68.5522 2.12272 68.6987 2.30374C68.8539 2.47613 68.9616 2.65283 69.022 2.83384H69.9787C69.8494 2.54077 69.6814 2.26926 69.4745 2.01929C69.2762 1.76932 69.0263 1.55383 68.7246 1.37282C68.4229 1.19181 68.0695 1.04959 67.6644 0.946153C67.2593 0.842719 66.7981 0.791001 66.2809 0.791001C65.531 0.791001 64.8458 0.898746 64.2252 1.11424C63.6132 1.32972 63.0874 1.64003 62.6478 2.04515C62.2082 2.44165 61.8677 2.92435 61.6264 3.49324C61.385 4.05351 61.2643 4.68274 61.2643 5.38092C61.2643 5.98429 61.3592 6.57473 61.5488 7.15225C61.747 7.72114 62.0487 8.22969 62.4538 8.67791C62.859 9.11751 63.3761 9.47522 64.0054 9.75105C64.6346 10.0183 65.3845 10.1519 66.2551 10.1519C66.8067 10.1519 67.298 10.1001 67.729 9.9967C68.1686 9.89327 68.5479 9.76829 68.8668 9.62175C69.1943 9.4666 69.4659 9.30283 69.6814 9.13044C69.8968 8.95805 70.0606 8.8072 70.1727 8.67791L69.7848 8.32882ZM73.075 5.47143C73.075 5.95412 73.1655 6.4713 73.3465 7.02295C73.5361 7.56598 73.8292 8.07023 74.2257 8.53569C74.6222 9.00114 75.1265 9.38902 75.7384 9.69933C76.3504 10.001 77.0831 10.1519 77.9364 10.1519C78.5139 10.1519 79.0354 10.0829 79.5009 9.94499C79.975 9.79845 80.3973 9.60451 80.768 9.36317C81.1472 9.12182 81.4748 8.84599 81.7506 8.53569C82.0264 8.21676 82.2505 7.88491 82.4229 7.54013C82.6039 7.18672 82.7375 6.83332 82.8237 6.47992C82.9185 6.12652 82.966 5.79035 82.966 5.47143C82.966 4.98873 82.8668 4.47587 82.6686 3.93284C82.4703 3.38118 82.1643 2.87263 81.7506 2.40717C81.3369 1.94171 80.8111 1.55814 80.1732 1.25646C79.544 0.946153 78.7984 0.791001 77.9364 0.791001C77.0831 0.791001 76.3504 0.941844 75.7384 1.24353C75.1265 1.54521 74.6222 1.92878 74.2257 2.39424C73.8292 2.85108 73.5361 3.35532 73.3465 3.90698C73.1655 4.45863 73.075 4.98011 73.075 5.47143ZM74.3421 5.47143C74.3421 4.86806 74.4326 4.31641 74.6136 3.81647C74.8032 3.30792 75.0575 2.87263 75.3764 2.51061C75.704 2.14858 76.0875 1.86845 76.5271 1.6702C76.9667 1.46333 77.4451 1.35989 77.9623 1.35989C78.4708 1.35989 78.9492 1.46333 79.3975 1.6702C79.8543 1.86845 80.2508 2.14858 80.587 2.51061C80.9317 2.87263 81.2033 3.30792 81.4015 3.81647C81.5998 4.31641 81.6989 4.86806 81.6989 5.47143C81.6989 6.0748 81.5998 6.63076 81.4015 7.13932C81.2033 7.63925 80.9317 8.07023 80.587 8.43225C80.2508 8.79427 79.8543 9.07872 79.3975 9.28559C78.9492 9.48384 78.4708 9.58296 77.9623 9.58296C77.4451 9.58296 76.9667 9.48384 76.5271 9.28559C76.0875 9.07872 75.704 8.79427 75.3764 8.43225C75.0575 8.07023 74.8032 7.63925 74.6136 7.13932C74.4326 6.63076 74.3421 6.0748 74.3421 5.47143ZM87.167 9.9967V0.946153H88.3435V9.28559H93.011V9.9967H87.167ZM96.9448 9.9967V0.946153H98.1214V9.28559H102.789V9.9967H96.9448ZM106.723 0.946153V9.9967H112.567V9.28559H107.899V5.49729H111.907V4.90254H107.899V1.65727H112.567V0.946153H106.723ZM124.116 8.32882C123.237 9.1563 122.194 9.57004 120.987 9.57004C120.315 9.57004 119.72 9.45367 119.203 9.22094C118.685 8.98821 118.255 8.67791 117.91 8.29003C117.565 7.90215 117.302 7.45393 117.121 6.94538C116.949 6.43682 116.862 5.90672 116.862 5.35506C116.862 4.76893 116.953 4.23452 117.134 3.75182C117.324 3.26051 117.586 2.83815 117.923 2.48475C118.259 2.13134 118.655 1.85552 119.112 1.65727C119.578 1.45902 120.082 1.35989 120.625 1.35989C120.996 1.35989 121.332 1.40299 121.633 1.48919C121.944 1.57538 122.215 1.68744 122.448 1.82535C122.689 1.96326 122.883 2.12272 123.03 2.30374C123.185 2.47613 123.293 2.65283 123.353 2.83384H124.31C124.18 2.54077 124.012 2.26926 123.806 2.01929C123.607 1.76932 123.357 1.55383 123.056 1.37282C122.754 1.19181 122.401 1.04959 121.995 0.946153C121.59 0.842719 121.129 0.791001 120.612 0.791001C119.862 0.791001 119.177 0.898746 118.556 1.11424C117.944 1.32972 117.418 1.64003 116.979 2.04515C116.539 2.44165 116.199 2.92435 115.957 3.49324C115.716 4.05351 115.595 4.68274 115.595 5.38092C115.595 5.98429 115.69 6.57473 115.88 7.15225C116.078 7.72114 116.38 8.22969 116.785 8.67791C117.19 9.11751 117.707 9.47522 118.336 9.75105C118.966 10.0183 119.716 10.1519 120.586 10.1519C121.138 10.1519 121.629 10.1001 122.06 9.9967C122.5 9.89327 122.879 9.76829 123.198 9.62175C123.525 9.4666 123.797 9.30283 124.012 9.13044C124.228 8.95805 124.392 8.8072 124.504 8.67791L124.116 8.32882ZM131.66 9.9967V1.65727H135.125V0.946153H127.018V1.65727H130.483V9.9967H131.66ZM139.452 0.946153V9.9967H140.629V0.946153H139.452ZM145.345 5.47143C145.345 5.95412 145.436 6.4713 145.617 7.02295C145.807 7.56598 146.1 8.07023 146.496 8.53569C146.893 9.00114 147.397 9.38902 148.009 9.69933C148.621 10.001 149.354 10.1519 150.207 10.1519C150.784 10.1519 151.306 10.0829 151.771 9.94499C152.245 9.79845 152.668 9.60451 153.038 9.36317C153.418 9.12182 153.745 8.84599 154.021 8.53569C154.297 8.21676 154.521 7.88491 154.693 7.54013C154.874 7.18672 155.008 6.83332 155.094 6.47992C155.189 6.12652 155.236 5.79035 155.236 5.47143C155.236 4.98873 155.137 4.47587 154.939 3.93284C154.741 3.38118 154.435 2.87263 154.021 2.40717C153.607 1.94171 153.082 1.55814 152.444 1.25646C151.814 0.946153 151.069 0.791001 150.207 0.791001C149.354 0.791001 148.621 0.941844 148.009 1.24353C147.397 1.54521 146.893 1.92878 146.496 2.39424C146.1 2.85108 145.807 3.35532 145.617 3.90698C145.436 4.45863 145.345 4.98011 145.345 5.47143ZM146.613 5.47143C146.613 4.86806 146.703 4.31641 146.884 3.81647C147.074 3.30792 147.328 2.87263 147.647 2.51061C147.974 2.14858 148.358 1.86845 148.798 1.6702C149.237 1.46333 149.716 1.35989 150.233 1.35989C150.741 1.35989 151.22 1.46333 151.668 1.6702C152.125 1.86845 152.521 2.14858 152.857 2.51061C153.202 2.87263 153.474 3.30792 153.672 3.81647C153.87 4.31641 153.969 4.86806 153.969 5.47143C153.969 6.0748 153.87 6.63076 153.672 7.13932C153.474 7.63925 153.202 8.07023 152.857 8.43225C152.521 8.79427 152.125 9.07872 151.668 9.28559C151.22 9.48384 150.741 9.58296 150.233 9.58296C149.716 9.58296 149.237 9.48384 148.798 9.28559C148.358 9.07872 147.974 8.79427 147.647 8.43225C147.328 8.07023 147.074 7.63925 146.884 7.13932C146.703 6.63076 146.613 6.0748 146.613 5.47143ZM166.73 0.946153V7.86336H166.678L159.502 0.791001H159.437V9.9967H160.032V3.0795H160.084L167.26 10.1519H167.324V0.946153H166.73Z" fill="#FCFCFC"/>
</svg>
