<svg width="375" height="56" viewBox="0 0 375 56" fill="none" xmlns="http://www.w3.org/2000/svg">
<rect width="375" height="56" fill="black"/>
<path d="M73.5008 39.2315L74.1724 25.5988H87.6365L88.3081 39.2315H73.5008Z" stroke="#FCFCFC"/>
<path d="M77.3003 28.3723L77.3003 24.5409C77.3003 23.5851 77.68 22.6684 78.3559 21.9925C79.0318 21.3166 79.9485 20.9369 80.9043 20.9369C81.8602 20.9369 82.7769 21.3166 83.4528 21.9925C84.1287 22.6684 84.5084 23.5851 84.5084 24.5409V28.3723" stroke="#FCFCFC"/>
<path d="M125.9 32.8508C124.812 33.8748 123.521 34.3868 122.028 34.3868C121.196 34.3868 120.46 34.2428 119.82 33.9548C119.18 33.6668 118.647 33.2828 118.22 32.8028C117.793 32.3228 117.468 31.7681 117.244 31.1388C117.031 30.5095 116.924 29.8535 116.924 29.1708C116.924 28.4455 117.036 27.7841 117.26 27.1868C117.495 26.5788 117.82 26.0561 118.236 25.6188C118.652 25.1815 119.143 24.8401 119.708 24.5948C120.284 24.3495 120.908 24.2268 121.58 24.2268C122.039 24.2268 122.455 24.2801 122.828 24.3868C123.212 24.4935 123.548 24.6321 123.836 24.8028C124.135 24.9735 124.375 25.1708 124.556 25.3948C124.748 25.6081 124.881 25.8268 124.956 26.0508H126.14C125.98 25.6881 125.772 25.3521 125.516 25.0428C125.271 24.7335 124.961 24.4668 124.588 24.2428C124.215 24.0188 123.777 23.8428 123.276 23.7148C122.775 23.5868 122.204 23.5228 121.564 23.5228C120.636 23.5228 119.788 23.6561 119.02 23.9228C118.263 24.1895 117.612 24.5735 117.068 25.0748C116.524 25.5655 116.103 26.1628 115.804 26.8668C115.505 27.5601 115.356 28.3388 115.356 29.2028C115.356 29.9495 115.473 30.6801 115.708 31.3948C115.953 32.0988 116.327 32.7281 116.828 33.2828C117.329 33.8268 117.969 34.2695 118.748 34.6108C119.527 34.9415 120.455 35.1068 121.532 35.1068C122.215 35.1068 122.823 35.0428 123.356 34.9148C123.9 34.7868 124.369 34.6321 124.764 34.4508C125.169 34.2588 125.505 34.0561 125.772 33.8428C126.039 33.6295 126.241 33.4428 126.38 33.2828L125.9 32.8508ZM127.657 29.3148C127.657 29.9121 127.769 30.5521 127.993 31.2348C128.227 31.9068 128.59 32.5308 129.081 33.1068C129.571 33.6828 130.195 34.1628 130.953 34.5468C131.71 34.9201 132.617 35.1068 133.673 35.1068C134.387 35.1068 135.033 35.0215 135.609 34.8508C136.195 34.6695 136.718 34.4295 137.177 34.1308C137.646 33.8321 138.051 33.4908 138.393 33.1068C138.734 32.7121 139.011 32.3015 139.225 31.8748C139.449 31.4375 139.614 31.0001 139.721 30.5628C139.838 30.1255 139.897 29.7095 139.897 29.3148C139.897 28.7175 139.774 28.0828 139.529 27.4108C139.283 26.7281 138.905 26.0988 138.393 25.5228C137.881 24.9468 137.23 24.4721 136.441 24.0988C135.662 23.7148 134.739 23.5228 133.673 23.5228C132.617 23.5228 131.71 23.7095 130.953 24.0828C130.195 24.4561 129.571 24.9308 129.081 25.5068C128.59 26.0721 128.227 26.6961 127.993 27.3788C127.769 28.0615 127.657 28.7068 127.657 29.3148ZM129.225 29.3148C129.225 28.5681 129.337 27.8855 129.561 27.2668C129.795 26.6375 130.11 26.0988 130.505 25.6508C130.91 25.2028 131.385 24.8561 131.929 24.6108C132.473 24.3548 133.065 24.2268 133.705 24.2268C134.334 24.2268 134.926 24.3548 135.481 24.6108C136.046 24.8561 136.537 25.2028 136.953 25.6508C137.379 26.0988 137.715 26.6375 137.961 27.2668C138.206 27.8855 138.329 28.5681 138.329 29.3148C138.329 30.0615 138.206 30.7495 137.961 31.3788C137.715 31.9975 137.379 32.5308 136.953 32.9788C136.537 33.4268 136.046 33.7788 135.481 34.0348C134.926 34.2801 134.334 34.4028 133.705 34.4028C133.065 34.4028 132.473 34.2801 131.929 34.0348C131.385 33.7788 130.91 33.4268 130.505 32.9788C130.11 32.5308 129.795 31.9975 129.561 31.3788C129.337 30.7495 129.225 30.0615 129.225 29.3148ZM151.804 23.7148V32.2748H151.74L142.86 23.5228H142.78V34.9148H143.516V26.3548H143.58L152.46 35.1068H152.54V23.7148H151.804ZM160.678 34.9148V24.5948H164.966V23.7148H154.934V24.5948H159.222V34.9148H160.678ZM168.006 23.7148V34.9148H169.462V23.7148H168.006ZM183.128 23.7148V32.2748H183.064L174.184 23.5228H174.104V34.9148H174.84V26.3548H174.904L183.784 35.1068H183.864V23.7148H183.128ZM187.218 23.7148V30.5948C187.218 31.0321 187.26 31.5175 187.346 32.0508C187.431 32.5735 187.634 33.0641 187.954 33.5228C188.274 33.9708 188.748 34.3495 189.378 34.6588C190.007 34.9575 190.866 35.1068 191.954 35.1068C192.636 35.1068 193.239 35.0001 193.762 34.7868C194.295 34.5735 194.738 34.2801 195.09 33.9068C195.452 33.5335 195.724 33.1015 195.906 32.6108C196.087 32.1095 196.178 31.5761 196.178 31.0108V23.7148H195.474V30.4828C195.474 30.7175 195.468 30.9575 195.458 31.2028C195.447 31.4375 195.415 31.6775 195.362 31.9228C195.308 32.1575 195.223 32.3921 195.106 32.6268C194.999 32.8615 194.839 33.0961 194.626 33.3308C194.242 33.7468 193.81 34.0295 193.33 34.1788C192.85 34.3281 192.348 34.4028 191.826 34.4028C191.378 34.4028 190.978 34.3335 190.626 34.1948C190.284 34.0561 189.959 33.8481 189.65 33.5708C189.404 33.3575 189.218 33.1441 189.09 32.9308C188.962 32.7175 188.866 32.5095 188.802 32.3068C188.738 32.0935 188.7 31.8801 188.69 31.6668C188.679 31.4535 188.674 31.2401 188.674 31.0268V23.7148H187.218ZM199.533 23.7148V34.9148H206.765V34.0348H200.989V29.3468H205.949V28.6108H200.989V24.5948H206.765V23.7148H199.533ZM213.744 32.0828C213.766 32.5415 213.883 32.9575 214.096 33.3308C214.32 33.7041 214.619 34.0241 214.992 34.2908C215.376 34.5468 215.824 34.7495 216.336 34.8988C216.848 35.0375 217.408 35.1068 218.016 35.1068C218.635 35.1068 219.19 35.0321 219.68 34.8828C220.182 34.7335 220.608 34.5201 220.96 34.2428C221.312 33.9655 221.584 33.6295 221.776 33.2348C221.968 32.8401 222.064 32.4028 222.064 31.9228C222.064 31.2615 221.899 30.7228 221.568 30.3068C221.238 29.8801 220.822 29.5281 220.32 29.2508C219.83 28.9628 219.291 28.7228 218.704 28.5308C218.128 28.3388 217.59 28.1361 217.088 27.9228C216.598 27.7095 216.187 27.4641 215.856 27.1868C215.526 26.9095 215.36 26.5415 215.36 26.0828C215.36 25.8268 215.414 25.5868 215.52 25.3628C215.638 25.1388 215.803 24.9468 216.016 24.7868C216.24 24.6161 216.512 24.4828 216.832 24.3868C217.152 24.2801 217.52 24.2268 217.936 24.2268C218.63 24.2268 219.216 24.3761 219.696 24.6748C220.187 24.9628 220.475 25.4215 220.56 26.0508H221.648C221.584 25.6561 221.44 25.3041 221.216 24.9948C220.992 24.6748 220.71 24.4081 220.368 24.1948C220.027 23.9708 219.638 23.8055 219.2 23.6988C218.774 23.5815 218.326 23.5228 217.856 23.5228C217.366 23.5228 216.896 23.5868 216.448 23.7148C216.011 23.8428 215.622 24.0295 215.28 24.2748C214.95 24.5201 214.683 24.8295 214.48 25.2028C214.288 25.5761 214.192 26.0028 214.192 26.4828C214.192 27.1121 214.352 27.6188 214.672 28.0028C214.992 28.3868 215.392 28.7068 215.872 28.9628C216.363 29.2188 216.891 29.4375 217.456 29.6188C218.022 29.8001 218.544 30.0081 219.024 30.2428C219.515 30.4668 219.92 30.7441 220.24 31.0748C220.56 31.4055 220.72 31.8481 220.72 32.4028C220.72 33.0961 220.464 33.6028 219.952 33.9228C219.451 34.2428 218.779 34.4028 217.936 34.4028C217.264 34.4028 216.726 34.3175 216.32 34.1468C215.915 33.9655 215.606 33.7521 215.392 33.5068C215.179 33.2615 215.035 33.0108 214.96 32.7548C214.886 32.4881 214.843 32.2641 214.832 32.0828H213.744ZM226.688 29.3468H233.392V34.9148H234.848V23.7148H233.392V28.6108H226.688V23.7148H225.232V34.9148H226.688V29.3468ZM237.725 29.3148C237.725 29.9121 237.837 30.5521 238.061 31.2348C238.296 31.9068 238.659 32.5308 239.149 33.1068C239.64 33.6828 240.264 34.1628 241.021 34.5468C241.779 34.9201 242.685 35.1068 243.741 35.1068C244.456 35.1068 245.101 35.0215 245.677 34.8508C246.264 34.6695 246.787 34.4295 247.245 34.1308C247.715 33.8321 248.12 33.4908 248.461 33.1068C248.803 32.7121 249.08 32.3015 249.293 31.8748C249.517 31.4375 249.683 31.0001 249.789 30.5628C249.907 30.1255 249.965 29.7095 249.965 29.3148C249.965 28.7175 249.843 28.0828 249.597 27.4108C249.352 26.7281 248.973 26.0988 248.461 25.5228C247.949 24.9468 247.299 24.4721 246.509 24.0988C245.731 23.7148 244.808 23.5228 243.741 23.5228C242.685 23.5228 241.779 23.7095 241.021 24.0828C240.264 24.4561 239.64 24.9308 239.149 25.5068C238.659 26.0721 238.296 26.6961 238.061 27.3788C237.837 28.0615 237.725 28.7068 237.725 29.3148ZM239.293 29.3148C239.293 28.5681 239.405 27.8855 239.629 27.2668C239.864 26.6375 240.179 26.0988 240.573 25.6508C240.979 25.2028 241.453 24.8561 241.997 24.6108C242.541 24.3548 243.133 24.2268 243.773 24.2268C244.403 24.2268 244.995 24.3548 245.549 24.6108C246.115 24.8561 246.605 25.2028 247.021 25.6508C247.448 26.0988 247.784 26.6375 248.029 27.2668C248.275 27.8855 248.397 28.5681 248.397 29.3148C248.397 30.0615 248.275 30.7495 248.029 31.3788C247.784 31.9975 247.448 32.5308 247.021 32.9788C246.605 33.4268 246.115 33.7788 245.549 34.0348C244.995 34.2801 244.403 34.4028 243.773 34.4028C243.133 34.4028 242.541 34.2801 241.997 34.0348C241.453 33.7788 240.979 33.4268 240.573 32.9788C240.179 32.5308 239.864 31.9975 239.629 31.3788C239.405 30.7495 239.293 30.0615 239.293 29.3148ZM254.305 30.2428C254.582 30.3175 254.881 30.3815 255.201 30.4348C255.521 30.4775 255.873 30.4988 256.257 30.4988C256.908 30.4988 257.484 30.4081 257.985 30.2268C258.486 30.0455 258.902 29.8001 259.233 29.4908C259.574 29.1708 259.83 28.8081 260.001 28.4028C260.172 27.9868 260.257 27.5441 260.257 27.0748C260.257 26.6268 260.182 26.2001 260.033 25.7948C259.884 25.3788 259.654 25.0215 259.345 24.7228C259.046 24.4135 258.668 24.1681 258.209 23.9868C257.75 23.8055 257.212 23.7148 256.593 23.7148H252.849V34.9148H254.305V30.2428ZM254.305 24.4188H255.985C256.433 24.4188 256.828 24.4988 257.169 24.6588C257.51 24.8188 257.793 25.0321 258.017 25.2988C258.241 25.5548 258.406 25.8481 258.513 26.1788C258.63 26.4988 258.689 26.8188 258.689 27.1388C258.689 27.4481 258.636 27.7628 258.529 28.0828C258.433 28.3921 258.273 28.6748 258.049 28.9308C257.825 29.1868 257.542 29.3948 257.201 29.5548C256.86 29.7148 256.449 29.7948 255.969 29.7948C255.638 29.7948 255.334 29.7841 255.057 29.7628C254.78 29.7308 254.529 29.6721 254.305 29.5868V24.4188ZM264.278 30.2428C264.555 30.3175 264.854 30.3815 265.174 30.4348C265.494 30.4775 265.846 30.4988 266.23 30.4988C266.88 30.4988 267.456 30.4081 267.958 30.2268C268.459 30.0455 268.875 29.8001 269.206 29.4908C269.547 29.1708 269.803 28.8081 269.974 28.4028C270.144 27.9868 270.23 27.5441 270.23 27.0748C270.23 26.6268 270.155 26.2001 270.006 25.7948C269.856 25.3788 269.627 25.0215 269.318 24.7228C269.019 24.4135 268.64 24.1681 268.182 23.9868C267.723 23.8055 267.184 23.7148 266.566 23.7148H262.822V34.9148H264.278V30.2428ZM264.278 24.4188H265.958C266.406 24.4188 266.8 24.4988 267.142 24.6588C267.483 24.8188 267.766 25.0321 267.99 25.2988C268.214 25.5548 268.379 25.8481 268.486 26.1788C268.603 26.4988 268.662 26.8188 268.662 27.1388C268.662 27.4481 268.608 27.7628 268.502 28.0828C268.406 28.3921 268.246 28.6748 268.022 28.9308C267.798 29.1868 267.515 29.3948 267.174 29.5548C266.832 29.7148 266.422 29.7948 265.942 29.7948C265.611 29.7948 265.307 29.7841 265.03 29.7628C264.752 29.7308 264.502 29.6721 264.278 29.5868V24.4188ZM273.434 23.7148V34.9148H274.89V23.7148H273.434ZM288.556 23.7148V32.2748H288.492L279.612 23.5228H279.532V34.9148H280.268V26.3548H280.332L289.212 35.1068H289.292V23.7148H288.556ZM303.478 29.9228H300.31V30.5788H302.102V33.4748C301.622 33.7841 301.131 34.0135 300.63 34.1628C300.129 34.3121 299.558 34.3868 298.918 34.3868C298.075 34.3868 297.339 34.2588 296.71 34.0028C296.081 33.7468 295.558 33.3948 295.142 32.9468C294.726 32.4881 294.411 31.9495 294.198 31.3308C293.995 30.7015 293.894 30.0135 293.894 29.2668C293.894 28.5308 293.99 27.8535 294.182 27.2348C294.385 26.6161 294.683 26.0828 295.078 25.6348C295.473 25.1868 295.953 24.8401 296.518 24.5948C297.094 24.3495 297.761 24.2268 298.518 24.2268C299.019 24.2268 299.489 24.2801 299.926 24.3868C300.363 24.4935 300.753 24.6321 301.094 24.8028C301.435 24.9735 301.713 25.1708 301.926 25.3948C302.15 25.6081 302.294 25.8268 302.358 26.0508H303.51C303.414 25.8161 303.249 25.5548 303.014 25.2668C302.79 24.9681 302.481 24.6908 302.086 24.4348C301.691 24.1788 301.201 23.9655 300.614 23.7948C300.038 23.6135 299.355 23.5228 298.566 23.5228C297.659 23.5228 296.822 23.6508 296.054 23.9068C295.297 24.1628 294.641 24.5308 294.086 25.0108C293.531 25.4908 293.099 26.0828 292.79 26.7868C292.481 27.4801 292.326 28.2695 292.326 29.1548C292.326 29.9121 292.443 30.6481 292.678 31.3628C292.923 32.0668 293.291 32.7015 293.782 33.2668C294.283 33.8215 294.918 34.2695 295.686 34.6108C296.454 34.9415 297.371 35.1068 298.438 35.1068C299.238 35.1068 299.947 35.0215 300.566 34.8508C301.185 34.6695 301.697 34.4721 302.102 34.2588V34.9148H303.478V29.9228Z" fill="#FCFCFC"/>
</svg>
