<svg width="253" height="40" viewBox="0 0 253 40" fill="none" xmlns="http://www.w3.org/2000/svg">
<g filter="url(#filter0_b_751_1733)">
<rect width="253" height="40" rx="20" fill="black" fill-opacity="0.4"/>
<path d="M31.92 13.8V25H39.152V24.12H33.376V19.432H38.336V18.696H33.376V14.68H39.152V13.8H31.92ZM41.897 13.8H40.105L44.473 19.416L40.185 25H41.049L44.873 19.992H44.937L48.841 25H50.649L45.801 18.808L49.625 13.8H48.777L45.401 18.2H45.321L41.897 13.8ZM54.501 20.328C54.7783 20.4027 55.077 20.4667 55.397 20.52C55.717 20.5627 56.069 20.584 56.453 20.584C57.1037 20.584 57.6797 20.4933 58.181 20.312C58.6823 20.1307 59.0983 19.8853 59.429 19.576C59.7703 19.256 60.0263 18.8933 60.197 18.488C60.3677 18.072 60.453 17.6293 60.453 17.16C60.453 16.712 60.3783 16.2853 60.229 15.88C60.0797 15.464 59.8503 15.1067 59.541 14.808C59.2423 14.4987 58.8637 14.2533 58.405 14.072C57.9463 13.8907 57.4077 13.8 56.789 13.8H53.045V25H54.501V20.328ZM54.501 14.504H56.181C56.629 14.504 57.0237 14.584 57.365 14.744C57.7063 14.904 57.989 15.1173 58.213 15.384C58.437 15.64 58.6023 15.9333 58.709 16.264C58.8263 16.584 58.885 16.904 58.885 17.224C58.885 17.5333 58.8317 17.848 58.725 18.168C58.629 18.4773 58.469 18.76 58.245 19.016C58.021 19.272 57.7383 19.48 57.397 19.64C57.0557 19.8 56.645 19.88 56.165 19.88C55.8343 19.88 55.5303 19.8693 55.253 19.848C54.9757 19.816 54.725 19.7573 54.501 19.672V14.504ZM62.8575 25V13.8H64.3135V24.12H70.0895V25H62.8575ZM71.3625 19.4C71.3625 19.9973 71.4745 20.6373 71.6985 21.32C71.9332 21.992 72.2958 22.616 72.7865 23.192C73.2772 23.768 73.9012 24.248 74.6585 24.632C75.4158 25.0053 76.3225 25.192 77.3785 25.192C78.0932 25.192 78.7385 25.1067 79.3145 24.936C79.9012 24.7547 80.4238 24.5147 80.8825 24.216C81.3518 23.9173 81.7572 23.576 82.0985 23.192C82.4398 22.7973 82.7172 22.3867 82.9305 21.96C83.1545 21.5227 83.3198 21.0853 83.4265 20.648C83.5438 20.2107 83.6025 19.7947 83.6025 19.4C83.6025 18.8027 83.4798 18.168 83.2345 17.496C82.9892 16.8133 82.6105 16.184 82.0985 15.608C81.5865 15.032 80.9358 14.5573 80.1465 14.184C79.3678 13.8 78.4452 13.608 77.3785 13.608C76.3225 13.608 75.4158 13.7947 74.6585 14.168C73.9012 14.5413 73.2772 15.016 72.7865 15.592C72.2958 16.1573 71.9332 16.7813 71.6985 17.464C71.4745 18.1467 71.3625 18.792 71.3625 19.4ZM72.9305 19.4C72.9305 18.6533 73.0425 17.9707 73.2665 17.352C73.5012 16.7227 73.8158 16.184 74.2105 15.736C74.6158 15.288 75.0905 14.9413 75.6345 14.696C76.1785 14.44 76.7705 14.312 77.4105 14.312C78.0398 14.312 78.6318 14.44 79.1865 14.696C79.7518 14.9413 80.2425 15.288 80.6585 15.736C81.0852 16.184 81.4212 16.7227 81.6665 17.352C81.9118 17.9707 82.0345 18.6533 82.0345 19.4C82.0345 20.1467 81.9118 20.8347 81.6665 21.464C81.4212 22.0827 81.0852 22.616 80.6585 23.064C80.2425 23.512 79.7518 23.864 79.1865 24.12C78.6318 24.3653 78.0398 24.488 77.4105 24.488C76.7705 24.488 76.1785 24.3653 75.6345 24.12C75.0905 23.864 74.6158 23.512 74.2105 23.064C73.8158 22.616 73.5012 22.0827 73.2665 21.464C73.0425 20.8347 72.9305 20.1467 72.9305 19.4ZM86.3263 13.8V25H87.7823V20.056H88.4863C88.7849 20.056 89.0303 20.0827 89.2223 20.136C89.4249 20.1893 89.6063 20.28 89.7663 20.408C89.9263 20.536 90.0756 20.7013 90.2143 20.904C90.3529 21.1067 90.5183 21.3573 90.7103 21.656L91.9743 23.528C92.1343 23.7733 92.2889 23.9973 92.4383 24.2C92.5983 24.4027 92.7689 24.5787 92.9503 24.728C93.1316 24.8667 93.3343 24.9787 93.5583 25.064C93.7929 25.1493 94.0703 25.192 94.3903 25.192C94.6249 25.192 94.8169 25.1813 94.9663 25.16C95.1156 25.1387 95.2649 25.0853 95.4143 25V24.408C95.3609 24.4187 95.3076 24.4293 95.2543 24.44C95.2009 24.44 95.1476 24.44 95.0943 24.44C94.8703 24.44 94.6729 24.408 94.5023 24.344C94.3316 24.28 94.1716 24.1893 94.0223 24.072C93.8729 23.944 93.7289 23.7947 93.5903 23.624C93.4516 23.4427 93.3076 23.24 93.1583 23.016C92.7103 22.3653 92.3636 21.848 92.1183 21.464C91.8729 21.0693 91.6756 20.7653 91.5263 20.552C91.3876 20.3387 91.2703 20.184 91.1743 20.088C91.0889 19.992 90.9823 19.912 90.8543 19.848L90.6943 19.768V19.704C91.2063 19.672 91.6436 19.56 92.0063 19.368C92.3796 19.176 92.6836 18.936 92.9183 18.648C93.1529 18.36 93.3236 18.0507 93.4303 17.72C93.5369 17.3787 93.5903 17.048 93.5903 16.728C93.5903 16.44 93.5316 16.1253 93.4143 15.784C93.3076 15.4427 93.1156 15.128 92.8383 14.84C92.5716 14.5413 92.2036 14.296 91.7343 14.104C91.2649 13.9013 90.6729 13.8 89.9583 13.8H86.3263ZM87.7823 14.504H89.3983C89.8036 14.504 90.1663 14.5627 90.4863 14.68C90.8169 14.7973 91.0996 14.9627 91.3343 15.176C91.5689 15.3787 91.7449 15.624 91.8623 15.912C91.9903 16.2 92.0543 16.5147 92.0543 16.856C92.0543 17.144 91.9956 17.4373 91.8783 17.736C91.7716 18.024 91.6063 18.2907 91.3823 18.536C91.1583 18.7707 90.8809 18.9627 90.5503 19.112C90.2303 19.2613 89.8569 19.336 89.4303 19.336H87.7823V14.504ZM97.8106 13.8V25H105.043V24.12H99.2666V19.432H104.227V18.696H99.2666V14.68H105.043V13.8H97.8106ZM122.453 22.936C121.365 23.96 120.075 24.472 118.581 24.472C117.749 24.472 117.013 24.328 116.373 24.04C115.733 23.752 115.2 23.368 114.773 22.888C114.347 22.408 114.021 21.8533 113.797 21.224C113.584 20.5947 113.477 19.9387 113.477 19.256C113.477 18.5307 113.589 17.8693 113.813 17.272C114.048 16.664 114.373 16.1413 114.789 15.704C115.205 15.2667 115.696 14.9253 116.261 14.68C116.837 14.4347 117.461 14.312 118.133 14.312C118.592 14.312 119.008 14.3653 119.381 14.472C119.765 14.5787 120.101 14.7173 120.389 14.888C120.688 15.0587 120.928 15.256 121.109 15.48C121.301 15.6933 121.435 15.912 121.509 16.136H122.693C122.533 15.7733 122.325 15.4373 122.069 15.128C121.824 14.8187 121.515 14.552 121.141 14.328C120.768 14.104 120.331 13.928 119.829 13.8C119.328 13.672 118.757 13.608 118.117 13.608C117.189 13.608 116.341 13.7413 115.573 14.008C114.816 14.2747 114.165 14.6587 113.621 15.16C113.077 15.6507 112.656 16.248 112.357 16.952C112.059 17.6453 111.909 18.424 111.909 19.288C111.909 20.0347 112.027 20.7653 112.261 21.48C112.507 22.184 112.88 22.8133 113.381 23.368C113.883 23.912 114.523 24.3547 115.301 24.696C116.08 25.0267 117.008 25.192 118.085 25.192C118.768 25.192 119.376 25.128 119.909 25C120.453 24.872 120.923 24.7173 121.317 24.536C121.723 24.344 122.059 24.1413 122.325 23.928C122.592 23.7147 122.795 23.528 122.933 23.368L122.453 22.936ZM124.05 19.4C124.05 19.9973 124.162 20.6373 124.386 21.32C124.621 21.992 124.983 22.616 125.474 23.192C125.965 23.768 126.589 24.248 127.346 24.632C128.103 25.0053 129.01 25.192 130.066 25.192C130.781 25.192 131.426 25.1067 132.002 24.936C132.589 24.7547 133.111 24.5147 133.57 24.216C134.039 23.9173 134.445 23.576 134.786 23.192C135.127 22.7973 135.405 22.3867 135.618 21.96C135.842 21.5227 136.007 21.0853 136.114 20.648C136.231 20.2107 136.29 19.7947 136.29 19.4C136.29 18.8027 136.167 18.168 135.922 17.496C135.677 16.8133 135.298 16.184 134.786 15.608C134.274 15.032 133.623 14.5573 132.834 14.184C132.055 13.8 131.133 13.608 130.066 13.608C129.01 13.608 128.103 13.7947 127.346 14.168C126.589 14.5413 125.965 15.016 125.474 15.592C124.983 16.1573 124.621 16.7813 124.386 17.464C124.162 18.1467 124.05 18.792 124.05 19.4ZM125.618 19.4C125.618 18.6533 125.73 17.9707 125.954 17.352C126.189 16.7227 126.503 16.184 126.898 15.736C127.303 15.288 127.778 14.9413 128.322 14.696C128.866 14.44 129.458 14.312 130.098 14.312C130.727 14.312 131.319 14.44 131.874 14.696C132.439 14.9413 132.93 15.288 133.346 15.736C133.773 16.184 134.109 16.7227 134.354 17.352C134.599 17.9707 134.722 18.6533 134.722 19.4C134.722 20.1467 134.599 20.8347 134.354 21.464C134.109 22.0827 133.773 22.616 133.346 23.064C132.93 23.512 132.439 23.864 131.874 24.12C131.319 24.3653 130.727 24.488 130.098 24.488C129.458 24.488 128.866 24.3653 128.322 24.12C127.778 23.864 127.303 23.512 126.898 23.064C126.503 22.616 126.189 22.0827 125.954 21.464C125.73 20.8347 125.618 20.1467 125.618 19.4ZM139.014 25V13.8H140.47V24.12H146.246V25H139.014ZM148.639 25V13.8H150.095V24.12H155.871V25H148.639ZM158.264 13.8V25H165.496V24.12H159.72V19.432H164.68V18.696H159.72V14.68H165.496V13.8H158.264ZM177.313 22.936C176.225 23.96 174.934 24.472 173.441 24.472C172.609 24.472 171.873 24.328 171.233 24.04C170.593 23.752 170.059 23.368 169.633 22.888C169.206 22.408 168.881 21.8533 168.657 21.224C168.443 20.5947 168.337 19.9387 168.337 19.256C168.337 18.5307 168.449 17.8693 168.673 17.272C168.907 16.664 169.233 16.1413 169.649 15.704C170.065 15.2667 170.555 14.9253 171.121 14.68C171.697 14.4347 172.321 14.312 172.993 14.312C173.451 14.312 173.867 14.3653 174.241 14.472C174.625 14.5787 174.961 14.7173 175.249 14.888C175.547 15.0587 175.787 15.256 175.969 15.48C176.161 15.6933 176.294 15.912 176.369 16.136H177.553C177.393 15.7733 177.185 15.4373 176.929 15.128C176.683 14.8187 176.374 14.552 176.001 14.328C175.627 14.104 175.19 13.928 174.689 13.8C174.187 13.672 173.617 13.608 172.977 13.608C172.049 13.608 171.201 13.7413 170.433 14.008C169.675 14.2747 169.025 14.6587 168.481 15.16C167.937 15.6507 167.515 16.248 167.217 16.952C166.918 17.6453 166.769 18.424 166.769 19.288C166.769 20.0347 166.886 20.7653 167.121 21.48C167.366 22.184 167.739 22.8133 168.241 23.368C168.742 23.912 169.382 24.3547 170.161 24.696C170.939 25.0267 171.867 25.192 172.945 25.192C173.627 25.192 174.235 25.128 174.769 25C175.313 24.872 175.782 24.7173 176.177 24.536C176.582 24.344 176.918 24.1413 177.185 23.928C177.451 23.7147 177.654 23.528 177.793 23.368L177.313 22.936ZM184.173 25V14.68H188.461V13.8H178.429V14.68H182.717V25H184.173ZM191.341 13.8V25H192.797V13.8H191.341ZM196.159 19.4C196.159 19.9973 196.271 20.6373 196.495 21.32C196.73 21.992 197.093 22.616 197.583 23.192C198.074 23.768 198.698 24.248 199.455 24.632C200.213 25.0053 201.119 25.192 202.175 25.192C202.89 25.192 203.535 25.1067 204.111 24.936C204.698 24.7547 205.221 24.5147 205.679 24.216C206.149 23.9173 206.554 23.576 206.895 23.192C207.237 22.7973 207.514 22.3867 207.727 21.96C207.951 21.5227 208.117 21.0853 208.223 20.648C208.341 20.2107 208.399 19.7947 208.399 19.4C208.399 18.8027 208.277 18.168 208.031 17.496C207.786 16.8133 207.407 16.184 206.895 15.608C206.383 15.032 205.733 14.5573 204.943 14.184C204.165 13.8 203.242 13.608 202.175 13.608C201.119 13.608 200.213 13.7947 199.455 14.168C198.698 14.5413 198.074 15.016 197.583 15.592C197.093 16.1573 196.73 16.7813 196.495 17.464C196.271 18.1467 196.159 18.792 196.159 19.4ZM197.727 19.4C197.727 18.6533 197.839 17.9707 198.063 17.352C198.298 16.7227 198.613 16.184 199.007 15.736C199.413 15.288 199.887 14.9413 200.431 14.696C200.975 14.44 201.567 14.312 202.207 14.312C202.837 14.312 203.429 14.44 203.983 14.696C204.549 14.9413 205.039 15.288 205.455 15.736C205.882 16.184 206.218 16.7227 206.463 17.352C206.709 17.9707 206.831 18.6533 206.831 19.4C206.831 20.1467 206.709 20.8347 206.463 21.464C206.218 22.0827 205.882 22.616 205.455 23.064C205.039 23.512 204.549 23.864 203.983 24.12C203.429 24.3653 202.837 24.488 202.207 24.488C201.567 24.488 200.975 24.3653 200.431 24.12C199.887 23.864 199.413 23.512 199.007 23.064C198.613 22.616 198.298 22.0827 198.063 21.464C197.839 20.8347 197.727 20.1467 197.727 19.4ZM220.147 13.8V22.36H220.083L211.203 13.608H211.123V25H211.859V16.44H211.923L220.803 25.192H220.883V13.8H220.147Z" fill="#FCFCFC"/>
</g>
<defs>
<filter id="filter0_b_751_1733" x="-4" y="-4" width="261" height="48" filterUnits="userSpaceOnUse" color-interpolation-filters="sRGB">
<feFlood flood-opacity="0" result="BackgroundImageFix"/>
<feGaussianBlur in="BackgroundImageFix" stdDeviation="2"/>
<feComposite in2="SourceAlpha" operator="in" result="effect1_backgroundBlur_751_1733"/>
<feBlend mode="normal" in="SourceGraphic" in2="effect1_backgroundBlur_751_1733" result="shape"/>
</filter>
</defs>
</svg>
