<svg width="375" height="56" viewBox="0 0 375 56" fill="none" xmlns="http://www.w3.org/2000/svg">
<g filter="url(#filter0_d_861_3097)">
<rect width="375" height="56" fill="black"/>
<path d="M126.501 39.2314L127.172 25.5986H140.637L141.308 39.2314H126.501Z" stroke="#FCFCFC"/>
<path d="M130.3 28.3724L130.3 24.541C130.3 23.5852 130.68 22.6685 131.356 21.9926C132.032 21.3167 132.949 20.937 133.904 20.937C134.86 20.937 135.777 21.3167 136.453 21.9926C137.129 22.6685 137.508 23.5852 137.508 24.541V28.3724" stroke="#FCFCFC"/>
<path d="M169.823 34.9148H173.839C174.553 34.9148 175.156 34.8241 175.647 34.6428C176.137 34.4508 176.532 34.2055 176.831 33.9068C177.129 33.6081 177.343 33.2721 177.471 32.8988C177.609 32.5148 177.679 32.1308 177.679 31.7468C177.679 31.1388 177.545 30.6535 177.279 30.2908C177.023 29.9281 176.713 29.6508 176.351 29.4588C175.988 29.2668 175.615 29.1388 175.231 29.0748C174.847 29.0108 174.537 28.9735 174.303 28.9628V28.8988C174.676 28.8988 175.028 28.8295 175.359 28.6908C175.689 28.5415 175.977 28.3548 176.223 28.1308C176.479 27.8961 176.681 27.6295 176.831 27.3308C176.98 27.0215 177.055 26.6961 177.055 26.3548C177.055 26.0561 176.991 25.7521 176.863 25.4428C176.735 25.1335 176.537 24.8508 176.271 24.5948C176.015 24.3388 175.679 24.1308 175.263 23.9708C174.857 23.8001 174.377 23.7148 173.823 23.7148H169.823V34.9148ZM171.279 34.2108V29.3148H173.039C173.561 29.3148 174.015 29.3841 174.399 29.5228C174.783 29.6615 175.097 29.8481 175.343 30.0828C175.599 30.3175 175.785 30.5895 175.903 30.8988C176.031 31.2081 176.095 31.5335 176.095 31.8748C176.095 32.2481 176.025 32.5788 175.887 32.8668C175.759 33.1548 175.583 33.4001 175.359 33.6028C175.135 33.8055 174.868 33.9601 174.559 34.0668C174.26 34.1628 173.94 34.2108 173.599 34.2108H171.279ZM171.279 28.6108V24.4188H173.231C173.647 24.4188 173.999 24.4775 174.287 24.5948C174.585 24.7121 174.825 24.8668 175.007 25.0588C175.199 25.2508 175.337 25.4695 175.423 25.7148C175.508 25.9601 175.551 26.2055 175.551 26.4508C175.551 26.7601 175.487 27.0481 175.359 27.3148C175.241 27.5815 175.071 27.8108 174.847 28.0028C174.633 28.1948 174.383 28.3441 174.095 28.4508C173.817 28.5575 173.519 28.6108 173.199 28.6108H171.279ZM179.921 23.7148V30.5948C179.921 31.0321 179.964 31.5175 180.049 32.0508C180.134 32.5735 180.337 33.0641 180.657 33.5228C180.977 33.9708 181.452 34.3495 182.081 34.6588C182.71 34.9575 183.569 35.1068 184.657 35.1068C185.34 35.1068 185.942 35.0001 186.465 34.7868C186.998 34.5735 187.441 34.2801 187.793 33.9068C188.156 33.5335 188.428 33.1015 188.609 32.6108C188.79 32.1095 188.881 31.5761 188.881 31.0108V23.7148H188.177V30.4828C188.177 30.7175 188.172 30.9575 188.161 31.2028C188.15 31.4375 188.118 31.6775 188.065 31.9228C188.012 32.1575 187.926 32.3921 187.809 32.6268C187.702 32.8615 187.542 33.0961 187.329 33.3308C186.945 33.7468 186.513 34.0295 186.033 34.1788C185.553 34.3281 185.052 34.4028 184.529 34.4028C184.081 34.4028 183.681 34.3335 183.329 34.1948C182.988 34.0561 182.662 33.8481 182.353 33.5708C182.108 33.3575 181.921 33.1441 181.793 32.9308C181.665 32.7175 181.569 32.5095 181.505 32.3068C181.441 32.0935 181.404 31.8801 181.393 31.6668C181.382 31.4535 181.377 31.2401 181.377 31.0268V23.7148H179.921ZM190.797 23.7148L194.669 30.6748V34.9148H196.125V30.5308L200.061 23.7148H199.197L195.773 29.6188H195.709L192.445 23.7148H190.797ZM217.393 23.7148V32.2748H217.329L208.449 23.5228H208.369V34.9148H209.105V26.3548H209.169L218.049 35.1068H218.129V23.7148H217.393ZM221.003 29.3148C221.003 29.9121 221.115 30.5521 221.339 31.2348C221.573 31.9068 221.936 32.5308 222.427 33.1068C222.917 33.6828 223.541 34.1628 224.299 34.5468C225.056 34.9201 225.963 35.1068 227.019 35.1068C227.733 35.1068 228.379 35.0215 228.955 34.8508C229.541 34.6695 230.064 34.4295 230.523 34.1308C230.992 33.8321 231.397 33.4908 231.739 33.1068C232.08 32.7121 232.357 32.3015 232.571 31.8748C232.795 31.4375 232.96 31.0001 233.067 30.5628C233.184 30.1255 233.243 29.7095 233.243 29.3148C233.243 28.7175 233.12 28.0828 232.875 27.4108C232.629 26.7281 232.251 26.0988 231.739 25.5228C231.227 24.9468 230.576 24.4721 229.787 24.0988C229.008 23.7148 228.085 23.5228 227.019 23.5228C225.963 23.5228 225.056 23.7095 224.299 24.0828C223.541 24.4561 222.917 24.9308 222.427 25.5068C221.936 26.0721 221.573 26.6961 221.339 27.3788C221.115 28.0615 221.003 28.7068 221.003 29.3148ZM222.571 29.3148C222.571 28.5681 222.683 27.8855 222.907 27.2668C223.141 26.6375 223.456 26.0988 223.851 25.6508C224.256 25.2028 224.731 24.8561 225.275 24.6108C225.819 24.3548 226.411 24.2268 227.051 24.2268C227.68 24.2268 228.272 24.3548 228.827 24.6108C229.392 24.8561 229.883 25.2028 230.299 25.6508C230.725 26.0988 231.061 26.6375 231.307 27.2668C231.552 27.8855 231.675 28.5681 231.675 29.3148C231.675 30.0615 231.552 30.7495 231.307 31.3788C231.061 31.9975 230.725 32.5308 230.299 32.9788C229.883 33.4268 229.392 33.7788 228.827 34.0348C228.272 34.2801 227.68 34.4028 227.051 34.4028C226.411 34.4028 225.819 34.2801 225.275 34.0348C224.731 33.7788 224.256 33.4268 223.851 32.9788C223.456 32.5308 223.141 31.9975 222.907 31.3788C222.683 30.7495 222.571 30.0615 222.571 29.3148ZM234.687 23.7148L238.655 34.9148H239.615L242.671 26.1628H242.751L245.711 34.9148H246.655L250.623 23.7148H249.887L246.575 33.0588H246.511L243.391 23.7148H242.703L239.519 33.0108H239.455L236.159 23.7148H234.687Z" fill="#FCFCFC"/>
</g>
<defs>
<filter id="filter0_d_861_3097" x="-4" y="0" width="383" height="64" filterUnits="userSpaceOnUse" color-interpolation-filters="sRGB">
<feFlood flood-opacity="0" result="BackgroundImageFix"/>
<feColorMatrix in="SourceAlpha" type="matrix" values="0 0 0 0 0 0 0 0 0 0 0 0 0 0 0 0 0 0 127 0" result="hardAlpha"/>
<feOffset dy="4"/>
<feGaussianBlur stdDeviation="2"/>
<feComposite in2="hardAlpha" operator="out"/>
<feColorMatrix type="matrix" values="0 0 0 0 0 0 0 0 0 0 0 0 0 0 0 0 0 0 0.25 0"/>
<feBlend mode="normal" in2="BackgroundImageFix" result="effect1_dropShadow_861_3097"/>
<feBlend mode="normal" in="SourceGraphic" in2="effect1_dropShadow_861_3097" result="shape"/>
</filter>
</defs>
</svg>
