<svg width="134" height="14" viewBox="0 0 134 14" fill="none" xmlns="http://www.w3.org/2000/svg">
<path d="M12.0961 10.678C10.8721 11.83 9.42015 12.406 7.74014 12.406C6.80414 12.406 5.97615 12.244 5.25615 11.92C4.53615 11.596 3.93614 11.164 3.45614 10.624C2.97614 10.084 2.61014 9.46 2.35814 8.752C2.11814 8.044 1.99814 7.306 1.99814 6.538C1.99814 5.722 2.12414 4.978 2.37614 4.306C2.64014 3.622 3.00614 3.034 3.47414 2.542C3.94214 2.05 4.49415 1.666 5.13015 1.39C5.77814 1.114 6.48014 0.975999 7.23614 0.975999C7.75214 0.975999 8.22014 1.036 8.64014 1.156C9.07215 1.276 9.45015 1.432 9.77415 1.624C10.1101 1.816 10.3801 2.038 10.5841 2.29C10.8001 2.53 10.9501 2.776 11.0341 3.028H12.3661C12.1861 2.62 11.9521 2.242 11.6641 1.894C11.3881 1.546 11.0401 1.246 10.6201 0.993999C10.2001 0.741999 9.70814 0.543999 9.14414 0.399999C8.58015 0.256 7.93815 0.184 7.21815 0.184C6.17414 0.184 5.22014 0.334 4.35614 0.633999C3.50414 0.933999 2.77214 1.366 2.16014 1.93C1.54814 2.482 1.07414 3.154 0.738145 3.946C0.402145 4.726 0.234145 5.602 0.234145 6.574C0.234145 7.414 0.366145 8.236 0.630145 9.04C0.906145 9.832 1.32614 10.54 1.89014 11.164C2.45414 11.776 3.17414 12.274 4.05015 12.658C4.92614 13.03 5.97014 13.216 7.18214 13.216C7.95014 13.216 8.63414 13.144 9.23414 13C9.84614 12.856 10.3741 12.682 10.8181 12.478C11.2741 12.262 11.6521 12.034 11.9521 11.794C12.2521 11.554 12.4801 11.344 12.6361 11.164L12.0961 10.678ZM20.7903 6.736H28.3323V13H29.9703V0.399999H28.3323V5.908H20.7903V0.399999H19.1523V13H20.7903V6.736ZM38.2871 0.399999V13H46.4231V12.01H39.9251V6.736H45.5051V5.908H39.9251V1.39H46.4231V0.399999H38.2871ZM63.7172 10.678C62.4932 11.83 61.0412 12.406 59.3612 12.406C58.4252 12.406 57.5972 12.244 56.8772 11.92C56.1572 11.596 55.5572 11.164 55.0772 10.624C54.5972 10.084 54.2312 9.46 53.9792 8.752C53.7392 8.044 53.6192 7.306 53.6192 6.538C53.6192 5.722 53.7452 4.978 53.9972 4.306C54.2612 3.622 54.6272 3.034 55.0952 2.542C55.5632 2.05 56.1152 1.666 56.7512 1.39C57.3992 1.114 58.1012 0.975999 58.8572 0.975999C59.3732 0.975999 59.8412 1.036 60.2612 1.156C60.6932 1.276 61.0712 1.432 61.3952 1.624C61.7312 1.816 62.0012 2.038 62.2052 2.29C62.4212 2.53 62.5712 2.776 62.6552 3.028H63.9872C63.8072 2.62 63.5732 2.242 63.2852 1.894C63.0092 1.546 62.6612 1.246 62.2412 0.993999C61.8212 0.741999 61.3292 0.543999 60.7652 0.399999C60.2012 0.256 59.5592 0.184 58.8392 0.184C57.7952 0.184 56.8412 0.334 55.9772 0.633999C55.1252 0.933999 54.3932 1.366 53.7812 1.93C53.1692 2.482 52.6952 3.154 52.3592 3.946C52.0232 4.726 51.8552 5.602 51.8552 6.574C51.8552 7.414 51.9872 8.236 52.2512 9.04C52.5272 9.832 52.9472 10.54 53.5112 11.164C54.0752 11.776 54.7952 12.274 55.6712 12.658C56.5472 13.03 57.5912 13.216 58.8032 13.216C59.5712 13.216 60.2552 13.144 60.8552 13C61.4672 12.856 61.9952 12.682 62.4392 12.478C62.8952 12.262 63.2732 12.034 63.5732 11.794C63.8732 11.554 64.1012 11.344 64.2572 11.164L63.7172 10.678ZM70.7734 13H72.4114V8.572L74.4454 6.394L79.2334 13H81.1054L75.4894 5.278L80.0614 0.399999H79.1614L72.4114 7.492V0.399999H70.7734V13ZM86.5388 6.7C86.5388 7.372 86.6648 8.092 86.9168 8.86C87.1808 9.616 87.5888 10.318 88.1408 10.966C88.6928 11.614 89.3948 12.154 90.2468 12.586C91.0988 13.006 92.1188 13.216 93.3068 13.216C94.1108 13.216 94.8368 13.12 95.4848 12.928C96.1448 12.724 96.7328 12.454 97.2488 12.118C97.7768 11.782 98.2328 11.398 98.6168 10.966C99.0008 10.522 99.3128 10.06 99.5528 9.58C99.8048 9.088 99.9908 8.596 100.111 8.104C100.243 7.612 100.309 7.144 100.309 6.7C100.309 6.028 100.171 5.314 99.8948 4.558C99.6188 3.79 99.1928 3.082 98.6168 2.434C98.0408 1.786 97.3088 1.252 96.4208 0.831999C95.5448 0.399999 94.5068 0.184 93.3068 0.184C92.1188 0.184 91.0988 0.394 90.2468 0.813999C89.3948 1.234 88.6928 1.768 88.1408 2.416C87.5888 3.052 87.1808 3.754 86.9168 4.522C86.6648 5.29 86.5388 6.016 86.5388 6.7ZM88.3028 6.7C88.3028 5.86 88.4288 5.092 88.6808 4.396C88.9448 3.688 89.2988 3.082 89.7428 2.578C90.1988 2.074 90.7328 1.684 91.3448 1.408C91.9568 1.12 92.6228 0.975999 93.3428 0.975999C94.0508 0.975999 94.7168 1.12 95.3408 1.408C95.9768 1.684 96.5288 2.074 96.9968 2.578C97.4768 3.082 97.8548 3.688 98.1308 4.396C98.4068 5.092 98.5448 5.86 98.5448 6.7C98.5448 7.54 98.4068 8.314 98.1308 9.022C97.8548 9.718 97.4768 10.318 96.9968 10.822C96.5288 11.326 95.9768 11.722 95.3408 12.01C94.7168 12.286 94.0508 12.424 93.3428 12.424C92.6228 12.424 91.9568 12.286 91.3448 12.01C90.7328 11.722 90.1988 11.326 89.7428 10.822C89.2988 10.318 88.9448 9.718 88.6808 9.022C88.4288 8.314 88.3028 7.54 88.3028 6.7ZM106.653 0.399999V8.14C106.653 8.632 106.701 9.178 106.797 9.778C106.893 10.366 107.121 10.918 107.481 11.434C107.841 11.938 108.375 12.364 109.083 12.712C109.791 13.048 110.757 13.216 111.981 13.216C112.749 13.216 113.427 13.096 114.015 12.856C114.615 12.616 115.113 12.286 115.509 11.866C115.917 11.446 116.223 10.96 116.427 10.408C116.631 9.844 116.733 9.244 116.733 8.608V0.399999H115.941V8.014C115.941 8.278 115.935 8.548 115.923 8.824C115.911 9.088 115.875 9.358 115.815 9.634C115.755 9.898 115.659 10.162 115.527 10.426C115.407 10.69 115.227 10.954 114.987 11.218C114.555 11.686 114.069 12.004 113.529 12.172C112.989 12.34 112.425 12.424 111.837 12.424C111.333 12.424 110.883 12.346 110.487 12.19C110.103 12.034 109.737 11.8 109.389 11.488C109.113 11.248 108.903 11.008 108.759 10.768C108.615 10.528 108.507 10.294 108.435 10.066C108.363 9.826 108.321 9.586 108.309 9.346C108.297 9.106 108.291 8.866 108.291 8.626V0.399999H106.653ZM128.99 13V1.39H133.814V0.399999H122.528V1.39H127.352V13H128.99Z" fill="black"/>
</svg>
