<svg width="126" height="9" viewBox="0 0 126 9" fill="none" xmlns="http://www.w3.org/2000/svg">
<path d="M8.42913 7.3616C7.65923 8.08621 6.74592 8.44852 5.68919 8.44852C5.10045 8.44852 4.57963 8.34662 4.12675 8.14282C3.67387 7.93902 3.29647 7.66729 2.99454 7.32763C2.69262 6.98797 2.46241 6.59547 2.3039 6.15014C2.15294 5.70481 2.07746 5.2406 2.07746 4.75753C2.07746 4.24426 2.15671 3.77628 2.31522 3.35359C2.48128 2.92336 2.71149 2.5535 3.00587 2.24403C3.30024 1.93456 3.64745 1.69303 4.04749 1.51942C4.45509 1.34582 4.89665 1.25901 5.37217 1.25901C5.69674 1.25901 5.99111 1.29675 6.25529 1.37223C6.52702 1.44771 6.76479 1.54584 6.96858 1.66661C7.17993 1.78738 7.34976 1.92701 7.47808 2.08552C7.61394 2.23648 7.70829 2.39122 7.76113 2.54973H8.59896C8.48574 2.29309 8.33855 2.05533 8.1574 1.83644C7.98379 1.61755 7.7649 1.42884 7.50072 1.27034C7.23654 1.11183 6.92707 0.987285 6.57231 0.896708C6.21755 0.806132 5.81373 0.760844 5.36085 0.760844C4.70417 0.760844 4.1041 0.855194 3.56065 1.04389C3.02474 1.2326 2.56431 1.50432 2.17936 1.85908C1.79441 2.20629 1.49626 2.62898 1.28491 3.12715C1.07357 3.61777 0.967897 4.16878 0.967897 4.78017C0.967897 5.30853 1.05093 5.82557 1.21698 6.33129C1.39059 6.82946 1.65477 7.2748 2.00953 7.66729C2.36428 8.05224 2.81717 8.36549 3.36817 8.60702C3.91918 8.84101 4.57586 8.95801 5.33821 8.95801C5.82128 8.95801 6.25152 8.91272 6.62892 8.82214C7.01387 8.73157 7.34599 8.62212 7.62526 8.4938C7.91209 8.35794 8.14985 8.21453 8.33855 8.06357C8.52725 7.91261 8.67067 7.78051 8.76879 7.66729L8.42913 7.3616ZM14.8662 4.85943C14.8662 5.28212 14.9454 5.735 15.1039 6.21807C15.27 6.6936 15.5266 7.13516 15.8738 7.54275C16.221 7.95035 16.6626 8.29001 17.1985 8.56174C17.7344 8.82592 18.376 8.95801 19.1232 8.95801C19.629 8.95801 20.0856 8.89762 20.4932 8.77686C20.9084 8.64854 21.2782 8.47871 21.6028 8.26736C21.9349 8.05602 22.2217 7.81448 22.4633 7.54275C22.7048 7.26347 22.901 6.97288 23.052 6.67095C23.2105 6.36148 23.3275 6.05202 23.403 5.74255C23.486 5.43308 23.5275 5.1387 23.5275 4.85943C23.5275 4.43674 23.4407 3.98763 23.2671 3.5121C23.0935 3.02903 22.8256 2.58369 22.4633 2.1761C22.1009 1.76851 21.6405 1.43262 21.082 1.16844C20.531 0.896708 19.8781 0.760844 19.1232 0.760844C18.376 0.760844 17.7344 0.892934 17.1985 1.15712C16.6626 1.4213 16.221 1.75718 15.8738 2.16478C15.5266 2.56482 15.27 3.00638 15.1039 3.48946C14.9454 3.97253 14.8662 4.42919 14.8662 4.85943ZM15.9757 4.85943C15.9757 4.33106 16.055 3.84799 16.2135 3.4102C16.3795 2.96487 16.6022 2.58369 16.8815 2.26668C17.1683 1.94966 17.5042 1.70435 17.8891 1.53074C18.2741 1.34959 18.693 1.25901 19.1459 1.25901C19.5912 1.25901 20.0101 1.34959 20.4026 1.53074C20.8027 1.70435 21.1499 1.94966 21.4443 2.26668C21.7462 2.58369 21.984 2.96487 22.1576 3.4102C22.3312 3.84799 22.418 4.33106 22.418 4.85943C22.418 5.38779 22.3312 5.87464 22.1576 6.31997C21.984 6.75776 21.7462 7.13516 21.4443 7.45218C21.1499 7.76919 20.8027 8.01828 20.4026 8.19943C20.0101 8.37304 19.5912 8.45984 19.1459 8.45984C18.693 8.45984 18.2741 8.37304 17.8891 8.19943C17.5042 8.01828 17.1683 7.76919 16.8815 7.45218C16.6022 7.13516 16.3795 6.75776 16.2135 6.31997C16.055 5.87464 15.9757 5.38779 15.9757 4.85943ZM30.7621 8.82214V0.896708H31.7924V8.19943H35.8797V8.82214H30.7621ZM42.8803 8.82214V0.896708H43.9106V8.19943H47.9978V8.82214H42.8803ZM54.9984 0.896708V8.82214H60.116V8.19943H56.0287V4.88207H59.5385V4.36126H56.0287V1.51942H60.116V0.896708H54.9984ZM73.7852 7.3616C73.0153 8.08621 72.102 8.44852 71.0453 8.44852C70.4565 8.44852 69.9357 8.34662 69.4828 8.14282C69.03 7.93902 68.6526 7.66729 68.3506 7.32763C68.0487 6.98797 67.8185 6.59547 67.66 6.15014C67.509 5.70481 67.4336 5.2406 67.4336 4.75753C67.4336 4.24426 67.5128 3.77628 67.6713 3.35359C67.8374 2.92336 68.0676 2.5535 68.362 2.24403C68.6563 1.93456 69.0035 1.69303 69.4036 1.51942C69.8112 1.34582 70.2527 1.25901 70.7283 1.25901C71.0528 1.25901 71.3472 1.29675 71.6114 1.37223C71.8831 1.44771 72.1209 1.54584 72.3247 1.66661C72.536 1.78738 72.7059 1.92701 72.8342 2.08552C72.97 2.23648 73.0644 2.39122 73.1172 2.54973H73.9551C73.8418 2.29309 73.6946 2.05533 73.5135 1.83644C73.3399 1.61755 73.121 1.42884 72.8568 1.27034C72.5926 1.11183 72.2832 0.987285 71.9284 0.896708C71.5736 0.806132 71.1698 0.760844 70.7169 0.760844C70.0603 0.760844 69.4602 0.855194 68.9167 1.04389C68.3808 1.2326 67.9204 1.50432 67.5355 1.85908C67.1505 2.20629 66.8524 2.62898 66.641 3.12715C66.4297 3.61777 66.324 4.16878 66.324 4.78017C66.324 5.30853 66.407 5.82557 66.5731 6.33129C66.7467 6.82946 67.0109 7.2748 67.3656 7.66729C67.7204 8.05224 68.1733 8.36549 68.7243 8.60702C69.2753 8.84101 69.932 8.95801 70.6943 8.95801C71.1774 8.95801 71.6076 8.91272 71.985 8.82214C72.37 8.73157 72.7021 8.62212 72.9814 8.4938C73.2682 8.35794 73.5059 8.21453 73.6946 8.06357C73.8833 7.91261 74.0268 7.78051 74.1249 7.66729L73.7852 7.3616ZM83.9472 8.82214V1.51942H86.9815V0.896708H79.8826V1.51942H82.9169V8.82214H83.9472ZM94.3266 0.896708V8.82214H95.3569V0.896708H94.3266ZM103.043 4.85943C103.043 5.28212 103.123 5.735 103.281 6.21807C103.447 6.6936 103.704 7.13516 104.051 7.54275C104.398 7.95035 104.84 8.29001 105.376 8.56174C105.912 8.82592 106.553 8.95801 107.3 8.95801C107.806 8.95801 108.263 8.89762 108.67 8.77686C109.085 8.64854 109.455 8.47871 109.78 8.26736C110.112 8.05602 110.399 7.81448 110.64 7.54275C110.882 7.26347 111.078 6.97288 111.229 6.67095C111.388 6.36148 111.505 6.05202 111.58 5.74255C111.663 5.43308 111.705 5.1387 111.705 4.85943C111.705 4.43674 111.618 3.98763 111.444 3.5121C111.271 3.02903 111.003 2.58369 110.64 2.1761C110.278 1.76851 109.818 1.43262 109.259 1.16844C108.708 0.896708 108.055 0.760844 107.3 0.760844C106.553 0.760844 105.912 0.892934 105.376 1.15712C104.84 1.4213 104.398 1.75718 104.051 2.16478C103.704 2.56482 103.447 3.00638 103.281 3.48946C103.123 3.97253 103.043 4.42919 103.043 4.85943ZM104.153 4.85943C104.153 4.33106 104.232 3.84799 104.391 3.4102C104.557 2.96487 104.779 2.58369 105.059 2.26668C105.345 1.94966 105.681 1.70435 106.066 1.53074C106.451 1.34959 106.87 1.25901 107.323 1.25901C107.768 1.25901 108.187 1.34959 108.58 1.53074C108.98 1.70435 109.327 1.94966 109.621 2.26668C109.923 2.58369 110.161 2.96487 110.335 3.4102C110.508 3.84799 110.595 4.33106 110.595 4.85943C110.595 5.38779 110.508 5.87464 110.335 6.31997C110.161 6.75776 109.923 7.13516 109.621 7.45218C109.327 7.76919 108.98 8.01828 108.58 8.19943C108.187 8.37304 107.768 8.45984 107.323 8.45984C106.87 8.45984 106.451 8.37304 106.066 8.19943C105.681 8.01828 105.345 7.76919 105.059 7.45218C104.779 7.13516 104.557 6.75776 104.391 6.31997C104.232 5.87464 104.153 5.38779 104.153 4.85943ZM125.325 0.896708V6.95401H125.28L118.996 0.760844H118.939V8.82214H119.46V2.76485H119.505L125.789 8.95801H125.846V0.896708H125.325Z" fill="#333333"/>
</svg>
