<svg width="143" height="11" viewBox="0 0 143 11" fill="none" xmlns="http://www.w3.org/2000/svg">
<path d="M8.69328 8.44967C7.81409 9.27715 6.77112 9.69088 5.56438 9.69088C4.89205 9.69088 4.2973 9.57452 3.78013 9.34179C3.26295 9.10906 2.83197 8.79876 2.48719 8.41088C2.14241 8.023 1.87951 7.57478 1.6985 7.06623C1.52611 6.55767 1.43991 6.02757 1.43991 5.47591C1.43991 4.88978 1.53042 4.35537 1.71143 3.87267C1.90106 3.38136 2.16396 2.959 2.50012 2.6056C2.83628 2.25219 3.23278 1.97637 3.68962 1.77812C4.15508 1.57987 4.65932 1.48074 5.20236 1.48074C5.573 1.48074 5.90916 1.52384 6.21085 1.61004C6.52115 1.69623 6.79267 1.80829 7.0254 1.9462C7.26674 2.08411 7.46068 2.24357 7.60722 2.42459C7.76237 2.59698 7.87011 2.77368 7.93045 2.95469H8.88722C8.75793 2.66162 8.58985 2.39011 8.38298 2.14014C8.18473 1.89017 7.93476 1.67468 7.63307 1.49367C7.33139 1.31266 6.97799 1.17044 6.57287 1.067C6.16775 0.963568 5.7066 0.911851 5.18943 0.911851C4.43952 0.911851 3.75427 1.0196 3.13366 1.23508C2.52167 1.45057 1.99587 1.76088 1.55628 2.166C1.11668 2.5625 0.776205 3.0452 0.534857 3.61409C0.293509 4.17436 0.172835 4.80359 0.172835 5.50177C0.172835 6.10514 0.26765 6.69558 0.457281 7.27309C0.655531 7.84199 0.957216 8.35054 1.36234 8.79876C1.76746 9.23836 2.28463 9.59607 2.91386 9.8719C3.54309 10.1391 4.29299 10.2727 5.16357 10.2727C5.71522 10.2727 6.20654 10.221 6.63751 10.1176C7.07711 10.0141 7.45637 9.88914 7.7753 9.7426C8.10284 9.58745 8.37436 9.42368 8.58985 9.25129C8.80534 9.0789 8.96911 8.92805 9.08116 8.79876L8.69328 8.44967ZM16.0441 5.59228C16.0441 6.07497 16.1346 6.59215 16.3156 7.1438C16.5053 7.68683 16.7983 8.19108 17.1948 8.65654C17.5913 9.12199 18.0956 9.50987 18.7076 9.82018C19.3196 10.1219 20.0522 10.2727 20.9056 10.2727C21.4831 10.2727 22.0046 10.2037 22.47 10.0658C22.9441 9.9193 23.3665 9.72536 23.7371 9.48402C24.1164 9.24267 24.4439 8.96684 24.7197 8.65654C24.9956 8.33761 25.2197 8.00576 25.3921 7.66098C25.5731 7.30757 25.7067 6.95417 25.7929 6.60077C25.8877 6.24737 25.9351 5.9112 25.9351 5.59228C25.9351 5.10958 25.836 4.59672 25.6377 4.05368C25.4395 3.50203 25.1335 2.99348 24.7197 2.52802C24.306 2.06256 23.7802 1.67899 23.1423 1.37731C22.5131 1.067 21.7675 0.911851 20.9056 0.911851C20.0522 0.911851 19.3196 1.06269 18.7076 1.36438C18.0956 1.66606 17.5913 2.04963 17.1948 2.51509C16.7983 2.97193 16.5053 3.47617 16.3156 4.02783C16.1346 4.57948 16.0441 5.10096 16.0441 5.59228ZM17.3112 5.59228C17.3112 4.98891 17.4017 4.43726 17.5827 3.93732C17.7724 3.42877 18.0266 2.99348 18.3456 2.63145C18.6731 2.26943 19.0567 1.9893 19.4963 1.79105C19.9359 1.58418 20.4142 1.48074 20.9314 1.48074C21.44 1.48074 21.9184 1.58418 22.3666 1.79105C22.8234 1.9893 23.2199 2.26943 23.5561 2.63145C23.9009 2.99348 24.1724 3.42877 24.3706 3.93732C24.5689 4.43726 24.668 4.98891 24.668 5.59228C24.668 6.19565 24.5689 6.75161 24.3706 7.26017C24.1724 7.7601 23.9009 8.19108 23.5561 8.5531C23.2199 8.91512 22.8234 9.19957 22.3666 9.40644C21.9184 9.60469 21.44 9.70381 20.9314 9.70381C20.4142 9.70381 19.9359 9.60469 19.4963 9.40644C19.0567 9.19957 18.6731 8.91512 18.3456 8.5531C18.0266 8.19108 17.7724 7.7601 17.5827 7.26017C17.4017 6.75161 17.3112 6.19565 17.3112 5.59228ZM34.1967 10.1176V1.067H35.3733V9.40644H40.0408V10.1176H34.1967ZM48.0352 10.1176V1.067H49.2118V9.40644H53.8793V10.1176H48.0352ZM61.8737 1.067V10.1176H67.7177V9.40644H63.0502V5.61814H67.0583V5.02339H63.0502V1.77812H67.7177V1.067H61.8737ZM83.3275 8.44967C82.4483 9.27715 81.4053 9.69088 80.1986 9.69088C79.5263 9.69088 78.9315 9.57452 78.4143 9.34179C77.8972 9.10906 77.4662 8.79876 77.1214 8.41088C76.7766 8.023 76.5137 7.57478 76.3327 7.06623C76.1603 6.55767 76.0741 6.02757 76.0741 5.47591C76.0741 4.88978 76.1646 4.35537 76.3456 3.87267C76.5353 3.38136 76.7982 2.959 77.1343 2.6056C77.4705 2.25219 77.867 1.97637 78.3238 1.77812C78.7893 1.57987 79.2935 1.48074 79.8366 1.48074C80.2072 1.48074 80.5434 1.52384 80.8451 1.61004C81.1554 1.69623 81.4269 1.80829 81.6596 1.9462C81.901 2.08411 82.0949 2.24357 82.2414 2.42459C82.3966 2.59698 82.5043 2.77368 82.5647 2.95469H83.5214C83.3921 2.66162 83.2241 2.39011 83.0172 2.14014C82.8189 1.89017 82.569 1.67468 82.2673 1.49367C81.9656 1.31266 81.6122 1.17044 81.2071 1.067C80.802 0.963568 80.3408 0.911851 79.8236 0.911851C79.0737 0.911851 78.3885 1.0196 77.7679 1.23508C77.1559 1.45057 76.6301 1.76088 76.1905 2.166C75.7509 2.5625 75.4104 3.0452 75.1691 3.61409C74.9277 4.17436 74.8071 4.80359 74.8071 5.50177C74.8071 6.10514 74.9019 6.69558 75.0915 7.27309C75.2897 7.84199 75.5914 8.35054 75.9966 8.79876C76.4017 9.23836 76.9188 9.59607 77.5481 9.8719C78.1773 10.1391 78.9272 10.2727 79.7978 10.2727C80.3494 10.2727 80.8408 10.221 81.2717 10.1176C81.7113 10.0141 82.0906 9.88914 82.4095 9.7426C82.7371 9.58745 83.0086 9.42368 83.2241 9.25129C83.4396 9.0789 83.6033 8.92805 83.7154 8.79876L83.3275 8.44967ZM94.9321 10.1176V1.77812H98.3972V1.067H90.2905V1.77812H93.7555V10.1176H94.9321ZM106.785 1.067V10.1176H107.962V1.067H106.785ZM116.739 5.59228C116.739 6.07497 116.83 6.59215 117.011 7.1438C117.2 7.68683 117.493 8.19108 117.89 8.65654C118.286 9.12199 118.791 9.50987 119.403 9.82018C120.015 10.1219 120.747 10.2727 121.601 10.2727C122.178 10.2727 122.7 10.2037 123.165 10.0658C123.639 9.9193 124.061 9.72536 124.432 9.48402C124.811 9.24267 125.139 8.96684 125.415 8.65654C125.69 8.33761 125.915 8.00576 126.087 7.66098C126.268 7.30757 126.402 6.95417 126.488 6.60077C126.583 6.24737 126.63 5.9112 126.63 5.59228C126.63 5.10958 126.531 4.59672 126.333 4.05368C126.134 3.50203 125.828 2.99348 125.415 2.52802C125.001 2.06256 124.475 1.67899 123.837 1.37731C123.208 1.067 122.462 0.911851 121.601 0.911851C120.747 0.911851 120.015 1.06269 119.403 1.36438C118.791 1.66606 118.286 2.04963 117.89 2.51509C117.493 2.97193 117.2 3.47617 117.011 4.02783C116.83 4.57948 116.739 5.10096 116.739 5.59228ZM118.006 5.59228C118.006 4.98891 118.097 4.43726 118.278 3.93732C118.467 3.42877 118.722 2.99348 119.04 2.63145C119.368 2.26943 119.752 1.9893 120.191 1.79105C120.631 1.58418 121.109 1.48074 121.626 1.48074C122.135 1.48074 122.613 1.58418 123.062 1.79105C123.518 1.9893 123.915 2.26943 124.251 2.63145C124.596 2.99348 124.867 3.42877 125.066 3.93732C125.264 4.43726 125.363 4.98891 125.363 5.59228C125.363 6.19565 125.264 6.75161 125.066 7.26017C124.867 7.7601 124.596 8.19108 124.251 8.5531C123.915 8.91512 123.518 9.19957 123.062 9.40644C122.613 9.60469 122.135 9.70381 121.626 9.70381C121.109 9.70381 120.631 9.60469 120.191 9.40644C119.752 9.19957 119.368 8.91512 119.04 8.5531C118.722 8.19108 118.467 7.7601 118.278 7.26017C118.097 6.75161 118.006 6.19565 118.006 5.59228ZM142.184 1.067V7.98421H142.132L134.956 0.911851H134.892V10.1176H135.486V3.20035H135.538L142.714 10.2727H142.779V1.067H142.184Z" fill="#FCFCFC"/>
</svg>
