<svg width="176" height="14" viewBox="0 0 176 14" fill="none" xmlns="http://www.w3.org/2000/svg">
<path d="M12.762 10.678C11.538 11.83 10.086 12.406 8.406 12.406C7.47 12.406 6.642 12.244 5.922 11.92C5.202 11.596 4.602 11.164 4.122 10.624C3.642 10.084 3.276 9.46 3.024 8.752C2.784 8.044 2.664 7.306 2.664 6.538C2.664 5.722 2.79 4.978 3.042 4.306C3.306 3.622 3.672 3.034 4.14 2.542C4.608 2.05 5.16 1.666 5.796 1.39C6.444 1.114 7.146 0.975999 7.902 0.975999C8.418 0.975999 8.886 1.036 9.306 1.156C9.738 1.276 10.116 1.432 10.44 1.624C10.776 1.816 11.046 2.038 11.25 2.29C11.466 2.53 11.616 2.776 11.7 3.028H13.032C12.852 2.62 12.618 2.242 12.33 1.894C12.054 1.546 11.706 1.246 11.286 0.993999C10.866 0.741999 10.374 0.543999 9.81 0.399999C9.246 0.256 8.604 0.184 7.884 0.184C6.84 0.184 5.886 0.334 5.022 0.633999C4.17 0.933999 3.438 1.366 2.826 1.93C2.214 2.482 1.74 3.154 1.404 3.946C1.068 4.726 0.9 5.602 0.9 6.574C0.9 7.414 1.032 8.236 1.296 9.04C1.572 9.832 1.992 10.54 2.556 11.164C3.12 11.776 3.84 12.274 4.716 12.658C5.592 13.03 6.636 13.216 7.848 13.216C8.616 13.216 9.3 13.144 9.9 13C10.512 12.856 11.04 12.682 11.484 12.478C11.94 12.262 12.318 12.034 12.618 11.794C12.918 11.554 13.146 11.344 13.302 11.164L12.762 10.678ZM18.5582 6.7C18.5582 7.372 18.6842 8.092 18.9362 8.86C19.2002 9.616 19.6082 10.318 20.1602 10.966C20.7122 11.614 21.4142 12.154 22.2662 12.586C23.1182 13.006 24.1382 13.216 25.3262 13.216C26.1302 13.216 26.8562 13.12 27.5042 12.928C28.1642 12.724 28.7522 12.454 29.2682 12.118C29.7962 11.782 30.2522 11.398 30.6362 10.966C31.0202 10.522 31.3322 10.06 31.5722 9.58C31.8242 9.088 32.0102 8.596 32.1302 8.104C32.2622 7.612 32.3282 7.144 32.3282 6.7C32.3282 6.028 32.1902 5.314 31.9142 4.558C31.6382 3.79 31.2122 3.082 30.6362 2.434C30.0602 1.786 29.3282 1.252 28.4402 0.831999C27.5642 0.399999 26.5262 0.184 25.3262 0.184C24.1382 0.184 23.1182 0.394 22.2662 0.813999C21.4142 1.234 20.7122 1.768 20.1602 2.416C19.6082 3.052 19.2002 3.754 18.9362 4.522C18.6842 5.29 18.5582 6.016 18.5582 6.7ZM20.3222 6.7C20.3222 5.86 20.4482 5.092 20.7002 4.396C20.9642 3.688 21.3182 3.082 21.7622 2.578C22.2182 2.074 22.7522 1.684 23.3642 1.408C23.9762 1.12 24.6422 0.975999 25.3622 0.975999C26.0702 0.975999 26.7362 1.12 27.3602 1.408C27.9962 1.684 28.5482 2.074 29.0162 2.578C29.4962 3.082 29.8742 3.688 30.1502 4.396C30.4262 5.092 30.5642 5.86 30.5642 6.7C30.5642 7.54 30.4262 8.314 30.1502 9.022C29.8742 9.718 29.4962 10.318 29.0162 10.822C28.5482 11.326 27.9962 11.722 27.3602 12.01C26.7362 12.286 26.0702 12.424 25.3622 12.424C24.6422 12.424 23.9762 12.286 23.3642 12.01C22.7522 11.722 22.2182 11.326 21.7622 10.822C21.3182 10.318 20.9642 9.718 20.7002 9.022C20.4482 8.314 20.3222 7.54 20.3222 6.7ZM39.3924 13V0.399999H41.0304V12.01H47.5284V13H39.3924ZM54.2205 13V0.399999H55.8585V12.01H62.3565V13H54.2205ZM69.0487 0.399999V13H77.1847V12.01H70.6867V6.736H76.2667V5.908H70.6867V1.39H77.1847V0.399999H69.0487ZM94.4788 10.678C93.2548 11.83 91.8028 12.406 90.1228 12.406C89.1868 12.406 88.3588 12.244 87.6388 11.92C86.9188 11.596 86.3188 11.164 85.8388 10.624C85.3588 10.084 84.9928 9.46 84.7408 8.752C84.5008 8.044 84.3808 7.306 84.3808 6.538C84.3808 5.722 84.5068 4.978 84.7588 4.306C85.0228 3.622 85.3888 3.034 85.8568 2.542C86.3248 2.05 86.8768 1.666 87.5128 1.39C88.1608 1.114 88.8628 0.975999 89.6188 0.975999C90.1348 0.975999 90.6028 1.036 91.0228 1.156C91.4548 1.276 91.8328 1.432 92.1568 1.624C92.4928 1.816 92.7628 2.038 92.9668 2.29C93.1828 2.53 93.3328 2.776 93.4168 3.028H94.7488C94.5688 2.62 94.3348 2.242 94.0468 1.894C93.7708 1.546 93.4228 1.246 93.0028 0.993999C92.5828 0.741999 92.0908 0.543999 91.5268 0.399999C90.9628 0.256 90.3208 0.184 89.6008 0.184C88.5568 0.184 87.6028 0.334 86.7388 0.633999C85.8868 0.933999 85.1548 1.366 84.5428 1.93C83.9308 2.482 83.4568 3.154 83.1208 3.946C82.7848 4.726 82.6168 5.602 82.6168 6.574C82.6168 7.414 82.7488 8.236 83.0128 9.04C83.2888 9.832 83.7088 10.54 84.2728 11.164C84.8368 11.776 85.5568 12.274 86.4328 12.658C87.3088 13.03 88.3528 13.216 89.5648 13.216C90.3328 13.216 91.0168 13.144 91.6168 13C92.2288 12.856 92.7568 12.682 93.2008 12.478C93.6568 12.262 94.0348 12.034 94.3348 11.794C94.6348 11.554 94.8628 11.344 95.0188 11.164L94.4788 10.678ZM106.197 13V1.39H111.021V0.399999H99.735V1.39H104.559V13H106.197ZM118.261 0.399999V13H119.899V0.399999H118.261ZM127.681 6.7C127.681 7.372 127.807 8.092 128.059 8.86C128.323 9.616 128.731 10.318 129.283 10.966C129.835 11.614 130.537 12.154 131.389 12.586C132.241 13.006 133.261 13.216 134.449 13.216C135.253 13.216 135.979 13.12 136.627 12.928C137.287 12.724 137.875 12.454 138.391 12.118C138.919 11.782 139.375 11.398 139.759 10.966C140.143 10.522 140.455 10.06 140.695 9.58C140.947 9.088 141.133 8.596 141.253 8.104C141.385 7.612 141.451 7.144 141.451 6.7C141.451 6.028 141.313 5.314 141.037 4.558C140.761 3.79 140.335 3.082 139.759 2.434C139.183 1.786 138.451 1.252 137.563 0.831999C136.687 0.399999 135.649 0.184 134.449 0.184C133.261 0.184 132.241 0.394 131.389 0.813999C130.537 1.234 129.835 1.768 129.283 2.416C128.731 3.052 128.323 3.754 128.059 4.522C127.807 5.29 127.681 6.016 127.681 6.7ZM129.445 6.7C129.445 5.86 129.571 5.092 129.823 4.396C130.087 3.688 130.441 3.082 130.885 2.578C131.341 2.074 131.875 1.684 132.487 1.408C133.099 1.12 133.765 0.975999 134.485 0.975999C135.193 0.975999 135.859 1.12 136.483 1.408C137.119 1.684 137.671 2.074 138.139 2.578C138.619 3.082 138.997 3.688 139.273 4.396C139.549 5.092 139.687 5.86 139.687 6.7C139.687 7.54 139.549 8.314 139.273 9.022C138.997 9.718 138.619 10.318 138.139 10.822C137.671 11.326 137.119 11.722 136.483 12.01C135.859 12.286 135.193 12.424 134.485 12.424C133.765 12.424 133.099 12.286 132.487 12.01C131.875 11.722 131.341 11.326 130.885 10.822C130.441 10.318 130.087 9.718 129.823 9.022C129.571 8.314 129.445 7.54 129.445 6.7ZM158.667 0.399999V10.03H158.595L148.605 0.184H148.515V13H149.343V3.37H149.415L159.405 13.216H159.495V0.399999H158.667ZM166.314 9.814C166.338 10.33 166.47 10.798 166.71 11.218C166.962 11.638 167.298 11.998 167.718 12.298C168.15 12.586 168.654 12.814 169.23 12.982C169.806 13.138 170.436 13.216 171.12 13.216C171.816 13.216 172.44 13.132 172.992 12.964C173.556 12.796 174.036 12.556 174.432 12.244C174.828 11.932 175.134 11.554 175.35 11.11C175.566 10.666 175.674 10.174 175.674 9.634C175.674 8.89 175.488 8.284 175.116 7.816C174.744 7.336 174.276 6.94 173.712 6.628C173.16 6.304 172.554 6.034 171.894 5.818C171.246 5.602 170.64 5.374 170.076 5.134C169.524 4.894 169.062 4.618 168.69 4.306C168.318 3.994 168.132 3.58 168.132 3.064C168.132 2.776 168.192 2.506 168.312 2.254C168.444 2.002 168.63 1.786 168.87 1.606C169.122 1.414 169.428 1.264 169.788 1.156C170.148 1.036 170.562 0.975999 171.03 0.975999C171.81 0.975999 172.47 1.144 173.01 1.48C173.562 1.804 173.886 2.32 173.982 3.028H175.206C175.134 2.584 174.972 2.188 174.72 1.84C174.468 1.48 174.15 1.18 173.766 0.94C173.382 0.687999 172.944 0.501999 172.452 0.381999C171.972 0.25 171.468 0.184 170.94 0.184C170.388 0.184 169.86 0.256 169.356 0.399999C168.864 0.543999 168.426 0.754 168.042 1.03C167.67 1.306 167.37 1.654 167.142 2.074C166.926 2.494 166.818 2.974 166.818 3.514C166.818 4.222 166.998 4.792 167.358 5.224C167.718 5.656 168.168 6.016 168.708 6.304C169.26 6.592 169.854 6.838 170.49 7.042C171.126 7.246 171.714 7.48 172.254 7.744C172.806 7.996 173.262 8.308 173.622 8.68C173.982 9.052 174.162 9.55 174.162 10.174C174.162 10.954 173.874 11.524 173.298 11.884C172.734 12.244 171.978 12.424 171.03 12.424C170.274 12.424 169.668 12.328 169.212 12.136C168.756 11.932 168.408 11.692 168.168 11.416C167.928 11.14 167.766 10.858 167.682 10.57C167.598 10.27 167.55 10.018 167.538 9.814H166.314Z" fill="black"/>
</svg>
