<svg width="142" height="14" viewBox="0 0 142 14" fill="none" xmlns="http://www.w3.org/2000/svg">
<path d="M0.0935938 0.371435V12.9714H1.73159V6.70744H7.31159V5.87944H1.73159V1.36143H8.22959V0.371435H0.0935938ZM13.6617 6.67144C13.6617 7.34344 13.7877 8.06344 14.0397 8.83144C14.3037 9.58744 14.7117 10.2894 15.2637 10.9374C15.8157 11.5854 16.5177 12.1254 17.3697 12.5574C18.2217 12.9774 19.2417 13.1874 20.4297 13.1874C21.2337 13.1874 21.9597 13.0914 22.6077 12.8994C23.2677 12.6954 23.8557 12.4254 24.3717 12.0894C24.8997 11.7534 25.3557 11.3694 25.7397 10.9374C26.1237 10.4934 26.4357 10.0314 26.6757 9.55144C26.9277 9.05944 27.1137 8.56744 27.2337 8.07544C27.3657 7.58344 27.4317 7.11544 27.4317 6.67144C27.4317 5.99944 27.2937 5.28544 27.0177 4.52944C26.7417 3.76143 26.3157 3.05343 25.7397 2.40544C25.1637 1.75744 24.4317 1.22343 23.5437 0.803434C22.6677 0.371435 21.6297 0.155435 20.4297 0.155435C19.2417 0.155435 18.2217 0.365435 17.3697 0.785435C16.5177 1.20544 15.8157 1.73944 15.2637 2.38744C14.7117 3.02344 14.3037 3.72544 14.0397 4.49344C13.7877 5.26144 13.6617 5.98744 13.6617 6.67144ZM15.4257 6.67144C15.4257 5.83144 15.5517 5.06344 15.8037 4.36744C16.0677 3.65944 16.4217 3.05344 16.8657 2.54943C17.3217 2.04543 17.8557 1.65543 18.4677 1.37943C19.0797 1.09143 19.7457 0.947435 20.4657 0.947435C21.1737 0.947435 21.8397 1.09143 22.4637 1.37943C23.0997 1.65543 23.6517 2.04543 24.1197 2.54943C24.5997 3.05344 24.9777 3.65944 25.2537 4.36744C25.5297 5.06344 25.6677 5.83144 25.6677 6.67144C25.6677 7.51144 25.5297 8.28544 25.2537 8.99344C24.9777 9.68944 24.5997 10.2894 24.1197 10.7934C23.6517 11.2974 23.0997 11.6934 22.4637 11.9814C21.8397 12.2574 21.1737 12.3954 20.4657 12.3954C19.7457 12.3954 19.0797 12.2574 18.4677 11.9814C17.8557 11.6934 17.3217 11.2974 16.8657 10.7934C16.4217 10.2894 16.0677 9.68944 15.8037 8.99344C15.5517 8.28544 15.4257 7.51144 15.4257 6.67144ZM34.4959 12.9714V0.371435H36.1339V11.9814H42.6319V12.9714H34.4959ZM49.3241 12.9714V0.371435H50.9621V11.9814H57.4601V12.9714H49.3241ZM62.8922 6.67144C62.8922 7.34344 63.0182 8.06344 63.2702 8.83144C63.5342 9.58744 63.9422 10.2894 64.4942 10.9374C65.0462 11.5854 65.7482 12.1254 66.6002 12.5574C67.4522 12.9774 68.4722 13.1874 69.6602 13.1874C70.4642 13.1874 71.1902 13.0914 71.8382 12.8994C72.4982 12.6954 73.0862 12.4254 73.6022 12.0894C74.1302 11.7534 74.5862 11.3694 74.9702 10.9374C75.3542 10.4934 75.6662 10.0314 75.9062 9.55144C76.1582 9.05944 76.3442 8.56744 76.4642 8.07544C76.5962 7.58344 76.6622 7.11544 76.6622 6.67144C76.6622 5.99944 76.5242 5.28544 76.2482 4.52944C75.9722 3.76143 75.5462 3.05343 74.9702 2.40544C74.3942 1.75744 73.6622 1.22343 72.7742 0.803434C71.8982 0.371435 70.8602 0.155435 69.6602 0.155435C68.4722 0.155435 67.4522 0.365435 66.6002 0.785435C65.7482 1.20544 65.0462 1.73944 64.4942 2.38744C63.9422 3.02344 63.5342 3.72544 63.2702 4.49344C63.0182 5.26144 62.8922 5.98744 62.8922 6.67144ZM64.6562 6.67144C64.6562 5.83144 64.7822 5.06344 65.0342 4.36744C65.2982 3.65944 65.6522 3.05344 66.0962 2.54943C66.5522 2.04543 67.0862 1.65543 67.6982 1.37943C68.3102 1.09143 68.9762 0.947435 69.6962 0.947435C70.4042 0.947435 71.0702 1.09143 71.6942 1.37943C72.3302 1.65543 72.8822 2.04543 73.3502 2.54943C73.8302 3.05344 74.2082 3.65944 74.4842 4.36744C74.7602 5.06344 74.8982 5.83144 74.8982 6.67144C74.8982 7.51144 74.7602 8.28544 74.4842 8.99344C74.2082 9.68944 73.8302 10.2894 73.3502 10.7934C72.8822 11.2974 72.3302 11.6934 71.6942 11.9814C71.0702 12.2574 70.4042 12.3954 69.6962 12.3954C68.9762 12.3954 68.3102 12.2574 67.6982 11.9814C67.0862 11.6934 66.5522 11.2974 66.0962 10.7934C65.6522 10.2894 65.2982 9.68944 65.0342 8.99344C64.7822 8.28544 64.6562 7.51144 64.6562 6.67144ZM82.1064 0.371435L86.5704 12.9714H87.6504L91.0884 3.12543H91.1784L94.5084 12.9714H95.5704L100.034 0.371435H99.2064L95.4804 10.8834H95.4084L91.8984 0.371435H91.1244L87.5424 10.8294H87.4704L83.7624 0.371435H82.1064ZM116.301 0.371435V8.11144C116.301 8.60344 116.349 9.14944 116.445 9.74944C116.541 10.3374 116.769 10.8894 117.129 11.4054C117.489 11.9094 118.023 12.3354 118.731 12.6834C119.439 13.0194 120.405 13.1874 121.629 13.1874C122.397 13.1874 123.075 13.0674 123.663 12.8274C124.263 12.5874 124.761 12.2574 125.157 11.8374C125.565 11.4174 125.871 10.9314 126.075 10.3794C126.279 9.81544 126.381 9.21544 126.381 8.57944V0.371435H125.589V7.98544C125.589 8.24944 125.583 8.51944 125.571 8.79544C125.559 9.05944 125.523 9.32944 125.463 9.60544C125.403 9.86944 125.307 10.1334 125.175 10.3974C125.055 10.6614 124.875 10.9254 124.635 11.1894C124.203 11.6574 123.717 11.9754 123.177 12.1434C122.637 12.3114 122.073 12.3954 121.485 12.3954C120.981 12.3954 120.531 12.3174 120.135 12.1614C119.751 12.0054 119.385 11.7714 119.037 11.4594C118.761 11.2194 118.551 10.9794 118.407 10.7394C118.263 10.4994 118.155 10.2654 118.083 10.0374C118.011 9.79744 117.969 9.55744 117.957 9.31744C117.945 9.07744 117.939 8.83744 117.939 8.59744V0.371435H116.301ZM132.482 9.78544C132.506 10.3014 132.638 10.7694 132.878 11.1894C133.13 11.6094 133.466 11.9694 133.886 12.2694C134.318 12.5574 134.822 12.7854 135.398 12.9534C135.974 13.1094 136.604 13.1874 137.288 13.1874C137.984 13.1874 138.608 13.1034 139.16 12.9354C139.724 12.7674 140.204 12.5274 140.6 12.2154C140.996 11.9034 141.302 11.5254 141.518 11.0814C141.734 10.6374 141.842 10.1454 141.842 9.60544C141.842 8.86144 141.656 8.25544 141.284 7.78744C140.912 7.30744 140.444 6.91144 139.88 6.59944C139.328 6.27544 138.722 6.00544 138.062 5.78944C137.414 5.57344 136.808 5.34544 136.244 5.10544C135.692 4.86544 135.23 4.58944 134.858 4.27744C134.486 3.96544 134.3 3.55144 134.3 3.03543C134.3 2.74743 134.36 2.47744 134.48 2.22544C134.612 1.97344 134.798 1.75744 135.038 1.57744C135.29 1.38543 135.596 1.23543 135.956 1.12743C136.316 1.00743 136.73 0.947435 137.198 0.947435C137.978 0.947435 138.638 1.11543 139.178 1.45143C139.73 1.77543 140.054 2.29144 140.15 2.99944H141.374C141.302 2.55544 141.14 2.15944 140.888 1.81144C140.636 1.45144 140.318 1.15144 139.934 0.911435C139.55 0.659435 139.112 0.473435 138.62 0.353435C138.14 0.221435 137.636 0.155435 137.108 0.155435C136.556 0.155435 136.028 0.227435 135.524 0.371435C135.032 0.515435 134.594 0.725435 134.21 1.00144C133.838 1.27744 133.538 1.62543 133.31 2.04543C133.094 2.46543 132.986 2.94544 132.986 3.48544C132.986 4.19344 133.166 4.76344 133.526 5.19544C133.886 5.62744 134.336 5.98744 134.876 6.27544C135.428 6.56344 136.022 6.80944 136.658 7.01344C137.294 7.21744 137.882 7.45144 138.422 7.71544C138.974 7.96744 139.43 8.27944 139.79 8.65144C140.15 9.02344 140.33 9.52144 140.33 10.1454C140.33 10.9254 140.042 11.4954 139.466 11.8554C138.902 12.2154 138.146 12.3954 137.198 12.3954C136.442 12.3954 135.836 12.2994 135.38 12.1074C134.924 11.9034 134.576 11.6634 134.336 11.3874C134.096 11.1114 133.934 10.8294 133.85 10.5414C133.766 10.2414 133.718 9.98944 133.706 9.78544H132.482Z" fill="black"/>
</svg>
