<svg width="157" height="14" viewBox="0 0 157 14" fill="none" xmlns="http://www.w3.org/2000/svg">
<path d="M0.212837 0.199999V10H1.48684V5.128H5.82684V4.484H1.48684V0.969999H6.54084V0.199999H0.212837ZM8.07471 3V10H9.26471V5.772C9.26471 5.38933 9.30671 5.06733 9.39071 4.806C9.48405 4.53533 9.60071 4.316 9.74071 4.148C9.88071 3.98 10.0347 3.85867 10.2027 3.784C10.3707 3.70933 10.534 3.672 10.6927 3.672C10.9074 3.672 11.1034 3.742 11.2807 3.882C11.4674 4.022 11.6027 4.15267 11.6867 4.274L12.1627 3.406C12.0787 3.294 11.976 3.20067 11.8547 3.126C11.7427 3.05133 11.626 2.99533 11.5047 2.958C11.3927 2.91133 11.2854 2.88333 11.1827 2.874C11.0894 2.85533 11.0194 2.846 10.9727 2.846C10.5807 2.846 10.254 2.95333 9.99271 3.168C9.73138 3.38267 9.51671 3.7 9.34871 4.12H9.26471V3H8.07471ZM19.6364 6.808V6.514C19.6364 5.88867 19.5477 5.34733 19.3704 4.89C19.1931 4.43267 18.9504 4.05467 18.6424 3.756C18.3437 3.45733 17.9937 3.23333 17.5924 3.084C17.1911 2.93467 16.7664 2.86 16.3184 2.86C15.8424 2.86 15.4037 2.944 15.0024 3.112C14.6011 3.27067 14.2511 3.50867 13.9524 3.826C13.6537 4.134 13.4204 4.512 13.2524 4.96C13.0844 5.39867 13.0004 5.898 13.0004 6.458C13.0004 6.92467 13.0704 7.382 13.2104 7.83C13.3597 8.26867 13.5791 8.66533 13.8684 9.02C14.1671 9.36533 14.5404 9.64533 14.9884 9.86C15.4457 10.0653 15.9824 10.168 16.5984 10.168C17.1957 10.168 17.7464 10.0653 18.2504 9.86C18.7544 9.64533 19.1931 9.342 19.5664 8.95L19.1184 8.502C18.9224 8.67 18.7357 8.824 18.5584 8.964C18.3904 9.104 18.2177 9.22067 18.0404 9.314C17.8631 9.40733 17.6764 9.482 17.4804 9.538C17.2937 9.58467 17.0837 9.608 16.8504 9.608C16.5891 9.608 16.3091 9.57067 16.0104 9.496C15.7211 9.412 15.4504 9.26733 15.1984 9.062C14.9464 8.85667 14.7364 8.572 14.5684 8.208C14.4004 7.844 14.3164 7.37733 14.3164 6.808H19.6364ZM14.3164 6.248C14.3164 5.87467 14.3537 5.51533 14.4284 5.17C14.5124 4.81533 14.6337 4.50267 14.7924 4.232C14.9604 3.96133 15.1704 3.74667 15.4224 3.588C15.6744 3.42 15.9731 3.336 16.3184 3.336C16.9811 3.336 17.4944 3.59733 17.8584 4.12C18.2317 4.63333 18.4184 5.34267 18.4184 6.248H14.3164ZM27.6755 6.808V6.514C27.6755 5.88867 27.5868 5.34733 27.4095 4.89C27.2321 4.43267 26.9895 4.05467 26.6815 3.756C26.3828 3.45733 26.0328 3.23333 25.6315 3.084C25.2301 2.93467 24.8055 2.86 24.3575 2.86C23.8815 2.86 23.4428 2.944 23.0415 3.112C22.6401 3.27067 22.2901 3.50867 21.9915 3.826C21.6928 4.134 21.4595 4.512 21.2915 4.96C21.1235 5.39867 21.0395 5.898 21.0395 6.458C21.0395 6.92467 21.1095 7.382 21.2495 7.83C21.3988 8.26867 21.6181 8.66533 21.9075 9.02C22.2061 9.36533 22.5795 9.64533 23.0275 9.86C23.4848 10.0653 24.0215 10.168 24.6375 10.168C25.2348 10.168 25.7855 10.0653 26.2895 9.86C26.7935 9.64533 27.2321 9.342 27.6055 8.95L27.1575 8.502C26.9615 8.67 26.7748 8.824 26.5975 8.964C26.4295 9.104 26.2568 9.22067 26.0795 9.314C25.9021 9.40733 25.7155 9.482 25.5195 9.538C25.3328 9.58467 25.1228 9.608 24.8895 9.608C24.6281 9.608 24.3481 9.57067 24.0495 9.496C23.7601 9.412 23.4895 9.26733 23.2375 9.062C22.9855 8.85667 22.7755 8.572 22.6075 8.208C22.4395 7.844 22.3555 7.37733 22.3555 6.808H27.6755ZM22.3555 6.248C22.3555 5.87467 22.3928 5.51533 22.4675 5.17C22.5515 4.81533 22.6728 4.50267 22.8315 4.232C22.9995 3.96133 23.2095 3.74667 23.4615 3.588C23.7135 3.42 24.0121 3.336 24.3575 3.336C25.0201 3.336 25.5335 3.59733 25.8975 4.12C26.2708 4.63333 26.4575 5.34267 26.4575 6.248H22.3555ZM34.9531 0.199999V10H36.2271V5.128H40.5671V4.484H36.2271V0.969999H41.2811V0.199999H34.9531ZM44.2849 0.199999H43.0949V10H44.2849V0.199999ZM49.3831 2.846C50.0645 2.846 50.5918 2.944 50.9651 3.14C51.3385 3.32667 51.6091 3.574 51.7771 3.882C51.9545 4.19 52.0571 4.54467 52.0851 4.946C52.1131 5.34733 52.1271 5.758 52.1271 6.178V10H50.9931V9.314C50.7225 9.57533 50.3771 9.78533 49.9571 9.944C49.5371 10.0933 49.1171 10.168 48.6971 10.168C48.2958 10.168 47.9411 10.098 47.6331 9.958C47.3251 9.818 47.0685 9.636 46.8631 9.412C46.6578 9.188 46.5038 8.936 46.4011 8.656C46.2985 8.376 46.2471 8.09133 46.2471 7.802C46.2471 7.50333 46.3031 7.20467 46.4151 6.906C46.5271 6.60733 46.6951 6.34133 46.9191 6.108C47.1431 5.86533 47.4185 5.66933 47.7451 5.52C48.0718 5.37067 48.4451 5.296 48.8651 5.296C49.2851 5.296 49.6818 5.38 50.0551 5.548C50.4378 5.70667 50.7505 5.93533 50.9931 6.234V5.632C50.9931 4.86667 50.8765 4.29733 50.6431 3.924C50.4191 3.55067 50.0038 3.364 49.3971 3.364C49.1358 3.364 48.9071 3.39667 48.7111 3.462C48.5151 3.52733 48.3378 3.62067 48.1791 3.742C48.0298 3.854 47.8898 3.99867 47.7591 4.176C47.6285 4.344 47.4978 4.53533 47.3671 4.75L46.6391 4.022C46.7698 3.882 46.9051 3.742 47.0451 3.602C47.1945 3.462 47.3718 3.336 47.5771 3.224C47.7918 3.112 48.0438 3.02333 48.3331 2.958C48.6225 2.88333 48.9725 2.846 49.3831 2.846ZM50.9931 7.228C50.9465 7.116 50.8765 6.98533 50.7831 6.836C50.6991 6.68667 50.5871 6.542 50.4471 6.402C50.3071 6.262 50.1391 6.14533 49.9431 6.052C49.7471 5.94933 49.5138 5.898 49.2431 5.898C48.9725 5.898 48.7251 5.954 48.5011 6.066C48.2771 6.16867 48.0858 6.30867 47.9271 6.486C47.7778 6.654 47.6611 6.85467 47.5771 7.088C47.4931 7.32133 47.4511 7.564 47.4511 7.816C47.4511 8.11467 47.5025 8.376 47.6051 8.6C47.7171 8.81467 47.8571 9.00133 48.0251 9.16C48.1931 9.30933 48.3798 9.42133 48.5851 9.496C48.7905 9.57067 48.9865 9.608 49.1731 9.608C49.3505 9.608 49.5278 9.57533 49.7051 9.51C49.8918 9.44467 50.0645 9.356 50.2231 9.244C50.3911 9.12267 50.5405 8.98267 50.6711 8.824C50.8018 8.66533 50.9091 8.49267 50.9931 8.306V7.228ZM53.6677 3.56V3H54.8857V0.843999H56.0757V3H57.7697V3.56H56.0757V8.208C56.0757 8.32 56.0803 8.45067 56.0897 8.6C56.099 8.74 56.127 8.87533 56.1737 9.006C56.2203 9.12733 56.2903 9.23 56.3837 9.314C56.4863 9.398 56.6263 9.44 56.8037 9.44C57.0277 9.44 57.2143 9.356 57.3637 9.188C57.513 9.02 57.6343 8.838 57.7277 8.642L58.3857 9.314C57.9283 9.77133 57.4103 10 56.8317 10C56.589 10 56.351 9.958 56.1177 9.874C55.8843 9.79 55.6743 9.664 55.4877 9.496C55.3103 9.31867 55.1657 9.09467 55.0537 8.824C54.9417 8.55333 54.8857 8.236 54.8857 7.872V3.56H53.6677ZM65.0722 0.199999V10H66.3462V5.674H66.9622C67.2235 5.674 67.4382 5.69733 67.6062 5.744C67.7835 5.79067 67.9422 5.87 68.0822 5.982C68.2222 6.094 68.3529 6.23867 68.4742 6.416C68.5955 6.59333 68.7402 6.81267 68.9082 7.074L70.0142 8.712C70.1542 8.92667 70.2895 9.12267 70.4202 9.3C70.5602 9.47733 70.7095 9.63133 70.8682 9.762C71.0269 9.88333 71.2042 9.98133 71.4002 10.056C71.6055 10.1307 71.8482 10.168 72.1282 10.168C72.3335 10.168 72.5015 10.1587 72.6322 10.14C72.7629 10.1213 72.8935 10.0747 73.0242 10V9.482C72.9775 9.49133 72.9309 9.50067 72.8842 9.51C72.8375 9.51 72.7909 9.51 72.7442 9.51C72.5482 9.51 72.3755 9.482 72.2262 9.426C72.0769 9.37 71.9369 9.29067 71.8062 9.188C71.6755 9.076 71.5495 8.94533 71.4282 8.796C71.3069 8.63733 71.1809 8.46 71.0502 8.264C70.6582 7.69467 70.3549 7.242 70.1402 6.906C69.9255 6.56067 69.7529 6.29467 69.6222 6.108C69.5009 5.92133 69.3982 5.786 69.3142 5.702C69.2395 5.618 69.1462 5.548 69.0342 5.492L68.8942 5.422V5.366C69.3422 5.338 69.7249 5.24 70.0422 5.072C70.3689 4.904 70.6349 4.694 70.8402 4.442C71.0455 4.19 71.1949 3.91933 71.2882 3.63C71.3815 3.33133 71.4282 3.042 71.4282 2.762C71.4282 2.51 71.3769 2.23467 71.2742 1.936C71.1809 1.63733 71.0129 1.362 70.7702 1.11C70.5369 0.848666 70.2149 0.633999 69.8042 0.465999C69.3935 0.288666 68.8755 0.199999 68.2502 0.199999H65.0722ZM66.3462 0.816H67.7602C68.1149 0.816 68.4322 0.867333 68.7122 0.969999C69.0015 1.07267 69.2489 1.21733 69.4542 1.404C69.6595 1.58133 69.8135 1.796 69.9162 2.048C70.0282 2.3 70.0842 2.57533 70.0842 2.874C70.0842 3.126 70.0329 3.38267 69.9302 3.644C69.8369 3.896 69.6922 4.12933 69.4962 4.344C69.3002 4.54933 69.0575 4.71733 68.7682 4.848C68.4882 4.97867 68.1615 5.044 67.7882 5.044H66.3462V0.816ZM77.137 2.846C77.8184 2.846 78.3457 2.944 78.719 3.14C79.0924 3.32667 79.363 3.574 79.531 3.882C79.7084 4.19 79.811 4.54467 79.839 4.946C79.867 5.34733 79.881 5.758 79.881 6.178V10H78.747V9.314C78.4764 9.57533 78.131 9.78533 77.711 9.944C77.291 10.0933 76.871 10.168 76.451 10.168C76.0497 10.168 75.695 10.098 75.387 9.958C75.079 9.818 74.8224 9.636 74.617 9.412C74.4117 9.188 74.2577 8.936 74.155 8.656C74.0524 8.376 74.001 8.09133 74.001 7.802C74.001 7.50333 74.057 7.20467 74.169 6.906C74.281 6.60733 74.449 6.34133 74.673 6.108C74.897 5.86533 75.1724 5.66933 75.499 5.52C75.8257 5.37067 76.199 5.296 76.619 5.296C77.039 5.296 77.4357 5.38 77.809 5.548C78.1917 5.70667 78.5044 5.93533 78.747 6.234V5.632C78.747 4.86667 78.6304 4.29733 78.397 3.924C78.173 3.55067 77.7577 3.364 77.151 3.364C76.8897 3.364 76.661 3.39667 76.465 3.462C76.269 3.52733 76.0917 3.62067 75.933 3.742C75.7837 3.854 75.6437 3.99867 75.513 4.176C75.3824 4.344 75.2517 4.53533 75.121 4.75L74.393 4.022C74.5237 3.882 74.659 3.742 74.799 3.602C74.9484 3.462 75.1257 3.336 75.331 3.224C75.5457 3.112 75.7977 3.02333 76.087 2.958C76.3764 2.88333 76.7264 2.846 77.137 2.846ZM78.747 7.228C78.7004 7.116 78.6304 6.98533 78.537 6.836C78.453 6.68667 78.341 6.542 78.201 6.402C78.061 6.262 77.893 6.14533 77.697 6.052C77.501 5.94933 77.2677 5.898 76.997 5.898C76.7264 5.898 76.479 5.954 76.255 6.066C76.031 6.16867 75.8397 6.30867 75.681 6.486C75.5317 6.654 75.415 6.85467 75.331 7.088C75.247 7.32133 75.205 7.564 75.205 7.816C75.205 8.11467 75.2564 8.376 75.359 8.6C75.471 8.81467 75.611 9.00133 75.779 9.16C75.947 9.30933 76.1337 9.42133 76.339 9.496C76.5444 9.57067 76.7404 9.608 76.927 9.608C77.1044 9.608 77.2817 9.57533 77.459 9.51C77.6457 9.44467 77.8184 9.356 77.977 9.244C78.145 9.12267 78.2944 8.98267 78.425 8.824C78.5557 8.66533 78.663 8.49267 78.747 8.306V7.228ZM81.4216 3.56V3H82.6396V0.843999H83.8296V3H85.5236V3.56H83.8296V8.208C83.8296 8.32 83.8343 8.45067 83.8436 8.6C83.8529 8.74 83.8809 8.87533 83.9276 9.006C83.9743 9.12733 84.0443 9.23 84.1376 9.314C84.2403 9.398 84.3803 9.44 84.5576 9.44C84.7816 9.44 84.9683 9.356 85.1176 9.188C85.2669 9.02 85.3883 8.838 85.4816 8.642L86.1396 9.314C85.6823 9.77133 85.1643 10 84.5856 10C84.3429 10 84.1049 9.958 83.8716 9.874C83.6383 9.79 83.4283 9.664 83.2416 9.496C83.0643 9.31867 82.9196 9.09467 82.8076 8.824C82.6956 8.55333 82.6396 8.236 82.6396 7.872V3.56H81.4216ZM93.5876 6.808V6.514C93.5876 5.88867 93.4989 5.34733 93.3216 4.89C93.1443 4.43267 92.9016 4.05467 92.5936 3.756C92.2949 3.45733 91.9449 3.23333 91.5436 3.084C91.1423 2.93467 90.7176 2.86 90.2696 2.86C89.7936 2.86 89.3549 2.944 88.9536 3.112C88.5523 3.27067 88.2023 3.50867 87.9036 3.826C87.6049 4.134 87.3716 4.512 87.2036 4.96C87.0356 5.39867 86.9516 5.898 86.9516 6.458C86.9516 6.92467 87.0216 7.382 87.1616 7.83C87.3109 8.26867 87.5303 8.66533 87.8196 9.02C88.1183 9.36533 88.4916 9.64533 88.9396 9.86C89.3969 10.0653 89.9336 10.168 90.5496 10.168C91.1469 10.168 91.6976 10.0653 92.2016 9.86C92.7056 9.64533 93.1443 9.342 93.5176 8.95L93.0696 8.502C92.8736 8.67 92.6869 8.824 92.5096 8.964C92.3416 9.104 92.1689 9.22067 91.9916 9.314C91.8143 9.40733 91.6276 9.482 91.4316 9.538C91.2449 9.58467 91.0349 9.608 90.8016 9.608C90.5403 9.608 90.2603 9.57067 89.9616 9.496C89.6723 9.412 89.4016 9.26733 89.1496 9.062C88.8976 8.85667 88.6876 8.572 88.5196 8.208C88.3516 7.844 88.2676 7.37733 88.2676 6.808H93.5876ZM88.2676 6.248C88.2676 5.87467 88.3049 5.51533 88.3796 5.17C88.4636 4.81533 88.5849 4.50267 88.7436 4.232C88.9116 3.96133 89.1216 3.74667 89.3736 3.588C89.6256 3.42 89.9243 3.336 90.2696 3.336C90.9323 3.336 91.4456 3.59733 91.8096 4.12C92.1829 4.63333 92.3696 5.34267 92.3696 6.248H88.2676ZM99.7032 7.522C99.7218 7.92333 99.8245 8.28733 100.011 8.614C100.207 8.94067 100.469 9.22067 100.795 9.454C101.131 9.678 101.523 9.85533 101.971 9.986C102.419 10.1073 102.909 10.168 103.441 10.168C103.983 10.168 104.468 10.1027 104.897 9.972C105.336 9.84133 105.709 9.65467 106.017 9.412C106.325 9.16933 106.563 8.87533 106.731 8.53C106.899 8.18467 106.983 7.802 106.983 7.382C106.983 6.80333 106.839 6.332 106.549 5.968C106.26 5.59467 105.896 5.28667 105.457 5.044C105.028 4.792 104.557 4.582 104.043 4.414C103.539 4.246 103.068 4.06867 102.629 3.882C102.2 3.69533 101.841 3.48067 101.551 3.238C101.262 2.99533 101.117 2.67333 101.117 2.272C101.117 2.048 101.164 1.838 101.257 1.642C101.36 1.446 101.505 1.278 101.691 1.138C101.887 0.988666 102.125 0.871999 102.405 0.787999C102.685 0.694666 103.007 0.647999 103.371 0.647999C103.978 0.647999 104.491 0.778666 104.911 1.04C105.341 1.292 105.593 1.69333 105.667 2.244H106.619C106.563 1.89867 106.437 1.59067 106.241 1.32C106.045 1.04 105.798 0.806666 105.499 0.62C105.201 0.424 104.86 0.279333 104.477 0.186C104.104 0.0833331 103.712 0.0319998 103.301 0.0319998C102.872 0.0319998 102.461 0.0879997 102.069 0.199999C101.687 0.312 101.346 0.475333 101.047 0.69C100.758 0.904666 100.525 1.17533 100.347 1.502C100.179 1.82867 100.095 2.202 100.095 2.622C100.095 3.17267 100.235 3.616 100.515 3.952C100.795 4.288 101.145 4.568 101.565 4.792C101.995 5.016 102.457 5.20733 102.951 5.366C103.446 5.52467 103.903 5.70667 104.323 5.912C104.753 6.108 105.107 6.35067 105.387 6.64C105.667 6.92933 105.807 7.31667 105.807 7.802C105.807 8.40867 105.583 8.852 105.135 9.132C104.697 9.412 104.109 9.552 103.371 9.552C102.783 9.552 102.312 9.47733 101.957 9.328C101.603 9.16933 101.332 8.98267 101.145 8.768C100.959 8.55333 100.833 8.334 100.767 8.11C100.702 7.87667 100.665 7.68067 100.655 7.522H99.7032ZM109.055 0.199999V10H110.245V5.954C110.245 5.76733 110.259 5.53867 110.287 5.268C110.315 4.99733 110.39 4.736 110.511 4.484C110.642 4.232 110.833 4.01733 111.085 3.84C111.337 3.65333 111.687 3.56 112.135 3.56C112.453 3.56 112.705 3.62067 112.891 3.742C113.087 3.854 113.237 4.008 113.339 4.204C113.442 4.4 113.507 4.62867 113.535 4.89C113.573 5.15133 113.591 5.422 113.591 5.702V10H114.781V5.38C114.781 4.85733 114.707 4.43267 114.557 4.106C114.408 3.77 114.221 3.50867 113.997 3.322C113.773 3.13533 113.526 3.00933 113.255 2.944C112.994 2.87867 112.742 2.846 112.499 2.846C112.173 2.846 111.827 2.91133 111.463 3.042C111.109 3.16333 110.773 3.40133 110.455 3.756L110.301 3.952H110.245V0.199999H109.055ZM117.474 3V10H118.664V3H117.474ZM117.306 0.787999C117.306 0.993333 117.381 1.17067 117.53 1.32C117.679 1.46933 117.857 1.544 118.062 1.544C118.267 1.544 118.445 1.46933 118.594 1.32C118.743 1.17067 118.818 0.993333 118.818 0.787999C118.818 0.582666 118.743 0.405333 118.594 0.255999C118.445 0.106666 118.267 0.0319998 118.062 0.0319998C117.857 0.0319998 117.679 0.106666 117.53 0.255999C117.381 0.405333 117.306 0.582666 117.306 0.787999ZM121.333 13.5H122.523V8.852H122.579C122.672 9.09467 122.793 9.3 122.943 9.468C123.101 9.636 123.279 9.77133 123.475 9.874C123.671 9.97667 123.876 10.0513 124.091 10.098C124.315 10.1447 124.539 10.168 124.763 10.168C125.229 10.168 125.659 10.084 126.051 9.916C126.443 9.73867 126.779 9.49133 127.059 9.174C127.348 8.85667 127.572 8.474 127.731 8.026C127.889 7.56867 127.969 7.06467 127.969 6.514C127.969 5.954 127.889 5.45 127.731 5.002C127.572 4.554 127.348 4.17133 127.059 3.854C126.779 3.52733 126.443 3.28 126.051 3.112C125.659 2.93467 125.229 2.846 124.763 2.846C123.652 2.846 122.924 3.27533 122.579 4.134H122.523V3H121.333V13.5ZM122.523 5.8C122.523 5.492 122.569 5.20267 122.663 4.932C122.765 4.652 122.905 4.414 123.083 4.218C123.26 4.01267 123.465 3.854 123.699 3.742C123.941 3.62067 124.198 3.56 124.469 3.56C124.758 3.56 125.033 3.616 125.295 3.728C125.565 3.83067 125.799 3.99867 125.995 4.232C126.191 4.46533 126.345 4.76867 126.457 5.142C126.578 5.51533 126.639 5.96333 126.639 6.486C126.639 7.018 126.578 7.47067 126.457 7.844C126.345 8.21733 126.186 8.52533 125.981 8.768C125.785 9.00133 125.556 9.174 125.295 9.286C125.033 9.38867 124.758 9.44 124.469 9.44C124.207 9.44 123.96 9.38867 123.727 9.286C123.493 9.174 123.288 9.01533 123.111 8.81C122.933 8.59533 122.789 8.33867 122.677 8.04C122.574 7.74133 122.523 7.40067 122.523 7.018V5.8ZM129.782 13.5H130.972V8.852H131.028C131.121 9.09467 131.242 9.3 131.392 9.468C131.55 9.636 131.728 9.77133 131.924 9.874C132.12 9.97667 132.325 10.0513 132.54 10.098C132.764 10.1447 132.988 10.168 133.212 10.168C133.678 10.168 134.108 10.084 134.5 9.916C134.892 9.73867 135.228 9.49133 135.508 9.174C135.797 8.85667 136.021 8.474 136.18 8.026C136.338 7.56867 136.418 7.06467 136.418 6.514C136.418 5.954 136.338 5.45 136.18 5.002C136.021 4.554 135.797 4.17133 135.508 3.854C135.228 3.52733 134.892 3.28 134.5 3.112C134.108 2.93467 133.678 2.846 133.212 2.846C132.101 2.846 131.373 3.27533 131.028 4.134H130.972V3H129.782V13.5ZM130.972 5.8C130.972 5.492 131.018 5.20267 131.112 4.932C131.214 4.652 131.354 4.414 131.532 4.218C131.709 4.01267 131.914 3.854 132.148 3.742C132.39 3.62067 132.647 3.56 132.918 3.56C133.207 3.56 133.482 3.616 133.744 3.728C134.014 3.83067 134.248 3.99867 134.444 4.232C134.64 4.46533 134.794 4.76867 134.906 5.142C135.027 5.51533 135.088 5.96333 135.088 6.486C135.088 7.018 135.027 7.47067 134.906 7.844C134.794 8.21733 134.635 8.52533 134.43 8.768C134.234 9.00133 134.005 9.174 133.744 9.286C133.482 9.38867 133.207 9.44 132.918 9.44C132.656 9.44 132.409 9.38867 132.176 9.286C131.942 9.174 131.737 9.01533 131.56 8.81C131.382 8.59533 131.238 8.33867 131.126 8.04C131.023 7.74133 130.972 7.40067 130.972 7.018V5.8ZM138.679 3V10H139.869V3H138.679ZM138.511 0.787999C138.511 0.993333 138.586 1.17067 138.735 1.32C138.884 1.46933 139.062 1.544 139.267 1.544C139.472 1.544 139.65 1.46933 139.799 1.32C139.948 1.17067 140.023 0.993333 140.023 0.787999C140.023 0.582666 139.948 0.405333 139.799 0.255999C139.65 0.106666 139.472 0.0319998 139.267 0.0319998C139.062 0.0319998 138.884 0.106666 138.735 0.255999C138.586 0.405333 138.511 0.582666 138.511 0.787999ZM148.39 10V5.464C148.39 5.296 148.376 5.06733 148.348 4.778C148.32 4.47933 148.226 4.19 148.068 3.91C147.918 3.62067 147.676 3.37333 147.34 3.168C147.004 2.95333 146.528 2.846 145.912 2.846C145.641 2.83667 145.338 2.89267 145.002 3.014C144.666 3.126 144.334 3.34533 144.008 3.672L143.784 3.896H143.728V3H142.538V10H143.728V5.674C143.728 5.31 143.779 4.99733 143.882 4.736C143.984 4.47467 144.124 4.25533 144.302 4.078C144.479 3.90067 144.68 3.77 144.904 3.686C145.137 3.602 145.375 3.56 145.618 3.56C146.01 3.56 146.313 3.63933 146.528 3.798C146.742 3.94733 146.896 4.12467 146.99 4.33C147.092 4.53533 147.153 4.74067 147.172 4.946C147.19 5.15133 147.2 5.30067 147.2 5.394V10H148.39ZM155.67 10.588C155.67 11.0173 155.619 11.3813 155.516 11.68C155.414 11.9787 155.269 12.2213 155.082 12.408C154.905 12.5947 154.69 12.73 154.438 12.814C154.196 12.898 153.934 12.94 153.654 12.94C153.16 12.94 152.758 12.814 152.45 12.562C152.152 12.31 151.876 11.974 151.624 11.554L150.854 12.254C150.92 12.338 151.022 12.4453 151.162 12.576C151.302 12.716 151.48 12.8513 151.694 12.982C151.909 13.122 152.166 13.2387 152.464 13.332C152.763 13.4347 153.104 13.486 153.486 13.486C154.196 13.486 154.77 13.3833 155.208 13.178C155.647 12.982 155.988 12.716 156.23 12.38C156.473 12.044 156.636 11.6567 156.72 11.218C156.814 10.7887 156.86 10.3407 156.86 9.874V3H155.67V4.092H155.614C155.502 3.7 155.26 3.39667 154.886 3.182C154.522 2.958 154.042 2.846 153.444 2.846C152.968 2.846 152.534 2.93467 152.142 3.112C151.75 3.28 151.414 3.52267 151.134 3.84C150.854 4.15733 150.635 4.54 150.476 4.988C150.327 5.436 150.252 5.93533 150.252 6.486C150.252 7.046 150.327 7.55467 150.476 8.012C150.635 8.46 150.854 8.84733 151.134 9.174C151.414 9.49133 151.746 9.73867 152.128 9.916C152.52 10.084 152.954 10.168 153.43 10.168C153.953 10.168 154.406 10.0653 154.788 9.86C155.18 9.65467 155.456 9.328 155.614 8.88H155.67V10.588ZM155.67 7.018C155.67 7.41 155.614 7.75533 155.502 8.054C155.4 8.35267 155.26 8.60467 155.082 8.81C154.905 9.01533 154.7 9.174 154.466 9.286C154.233 9.38867 153.99 9.44 153.738 9.44C153.514 9.44 153.272 9.40267 153.01 9.328C152.758 9.244 152.52 9.09467 152.296 8.88C152.082 8.66533 151.9 8.362 151.75 7.97C151.61 7.578 151.54 7.074 151.54 6.458C151.54 5.80467 151.629 5.28667 151.806 4.904C151.984 4.512 152.189 4.21333 152.422 4.008C152.665 3.80267 152.908 3.672 153.15 3.616C153.402 3.55067 153.598 3.518 153.738 3.518C154.046 3.518 154.322 3.588 154.564 3.728C154.807 3.85867 155.008 4.04067 155.166 4.274C155.334 4.498 155.46 4.75933 155.544 5.058C155.628 5.35667 155.67 5.66467 155.67 5.982V7.018Z" fill="black"/>
</svg>
