<svg width="24" height="24" viewBox="0 0 24 24" fill="none" xmlns="http://www.w3.org/2000/svg">
<circle cx="12" cy="12" r="11.5" stroke="#DEDEDE"/>
<path d="M9.245 13.4133C9.25833 13.7 9.33167 13.96 9.465 14.1933C9.605 14.4267 9.79167 14.6267 10.025 14.7933C10.265 14.9533 10.545 15.08 10.865 15.1733C11.185 15.26 11.535 15.3033 11.915 15.3033C12.3017 15.3033 12.6483 15.2567 12.955 15.1633C13.2683 15.07 13.535 14.9367 13.755 14.7633C13.975 14.59 14.145 14.38 14.265 14.1333C14.385 13.8867 14.445 13.6133 14.445 13.3133C14.445 12.9 14.3417 12.5633 14.135 12.3033C13.9283 12.0367 13.6683 11.8167 13.355 11.6433C13.0483 11.4633 12.7117 11.3133 12.345 11.1933C11.985 11.0733 11.6483 10.9467 11.335 10.8133C11.0283 10.68 10.7717 10.5267 10.565 10.3533C10.3583 10.18 10.255 9.95002 10.255 9.66335C10.255 9.50335 10.2883 9.35335 10.355 9.21335C10.4283 9.07335 10.5317 8.95335 10.665 8.85335C10.805 8.74668 10.975 8.66335 11.175 8.60335C11.375 8.53668 11.605 8.50335 11.865 8.50335C12.2983 8.50335 12.665 8.59668 12.965 8.78335C13.2717 8.96335 13.4517 9.25002 13.505 9.64335H14.185C14.145 9.39668 14.055 9.17668 13.915 8.98335C13.775 8.78335 13.5983 8.61668 13.385 8.48335C13.1717 8.34335 12.9283 8.24002 12.655 8.17335C12.3883 8.10002 12.1083 8.06335 11.815 8.06335C11.5083 8.06335 11.215 8.10335 10.935 8.18335C10.6617 8.26335 10.4183 8.38002 10.205 8.53335C9.99833 8.68668 9.83167 8.88002 9.705 9.11335C9.585 9.34668 9.525 9.61335 9.525 9.91335C9.525 10.3067 9.625 10.6233 9.825 10.8633C10.025 11.1033 10.275 11.3033 10.575 11.4633C10.8817 11.6233 11.2117 11.76 11.565 11.8733C11.9183 11.9867 12.245 12.1167 12.545 12.2633C12.8517 12.4033 13.105 12.5767 13.305 12.7833C13.505 12.99 13.605 13.2667 13.605 13.6133C13.605 14.0467 13.445 14.3633 13.125 14.5633C12.8117 14.7633 12.3917 14.8633 11.865 14.8633C11.445 14.8633 11.1083 14.81 10.855 14.7033C10.6017 14.59 10.4083 14.4567 10.275 14.3033C10.1417 14.15 10.0517 13.9933 10.005 13.8333C9.95833 13.6667 9.93167 13.5267 9.925 13.4133H9.245Z" fill="#555555"/>
</svg>
