<svg width="344" height="24" viewBox="0 0 344 24" fill="none" xmlns="http://www.w3.org/2000/svg">
<path d="M4.008 8.31758H2.92V19.5176H3.624V10.3816H3.688L8.632 19.7096H8.92L13.976 10.4456H14.04V19.5176H15.496V8.31758H14.392L9.208 17.9336H9.144L4.008 8.31758ZM22.2219 13.9176C22.2219 14.5149 22.3339 15.1549 22.5579 15.8376C22.7925 16.5096 23.1552 17.1336 23.6459 17.7096C24.1365 18.2856 24.7605 18.7656 25.5179 19.1496C26.2752 19.5229 27.1819 19.7096 28.2379 19.7096C28.9525 19.7096 29.5979 19.6242 30.1739 19.4536C30.7605 19.2722 31.2832 19.0322 31.7419 18.7336C32.2112 18.4349 32.6165 18.0936 32.9579 17.7096C33.2992 17.3149 33.5765 16.9042 33.7899 16.4776C34.0139 16.0402 34.1792 15.6029 34.2859 15.1656C34.4032 14.7282 34.4619 14.3122 34.4619 13.9176C34.4619 13.3202 34.3392 12.6856 34.0939 12.0136C33.8485 11.3309 33.4699 10.7016 32.9579 10.1256C32.4459 9.54958 31.7952 9.07491 31.0059 8.70158C30.2272 8.31758 29.3045 8.12558 28.2379 8.12558C27.1819 8.12558 26.2752 8.31224 25.5179 8.68558C24.7605 9.05891 24.1365 9.53358 23.6459 10.1096C23.1552 10.6749 22.7925 11.2989 22.5579 11.9816C22.3339 12.6642 22.2219 13.3096 22.2219 13.9176ZM23.7899 13.9176C23.7899 13.1709 23.9019 12.4882 24.1259 11.8696C24.3605 11.2402 24.6752 10.7016 25.0699 10.2536C25.4752 9.80558 25.9499 9.45891 26.4939 9.21358C27.0379 8.95758 27.6299 8.82958 28.2699 8.82958C28.8992 8.82958 29.4912 8.95758 30.0459 9.21358C30.6112 9.45891 31.1019 9.80558 31.5179 10.2536C31.9445 10.7016 32.2805 11.2402 32.5259 11.8696C32.7712 12.4882 32.8939 13.1709 32.8939 13.9176C32.8939 14.6642 32.7712 15.3522 32.5259 15.9816C32.2805 16.6002 31.9445 17.1336 31.5179 17.5816C31.1019 18.0296 30.6112 18.3816 30.0459 18.6376C29.4912 18.8829 28.8992 19.0056 28.2699 19.0056C27.6299 19.0056 27.0379 18.8829 26.4939 18.6376C25.9499 18.3816 25.4752 18.0296 25.0699 17.5816C24.6752 17.1336 24.3605 16.6002 24.1259 15.9816C23.9019 15.3522 23.7899 14.6642 23.7899 13.9176ZM42.6416 13.9496H49.3456V19.5176H50.8016V8.31758H49.3456V13.2136H42.6416V8.31758H41.1856V19.5176H42.6416V13.9496ZM64.8628 16.2216L66.3988 19.5176H67.9508L62.7348 8.31758H61.9348L57.1988 19.5176H57.9348L59.3428 16.2216H64.8628ZM64.5268 15.5016H59.6468L61.9508 10.1096H62.0148L64.5268 15.5016ZM83.3815 8.31758V16.8776H83.3175L74.4375 8.12558H74.3575V19.5176H75.0935V10.9576H75.1575L84.0375 19.7096H84.1175V8.31758H83.3815Z" fill="black"/>
<path d="M339.333 5L335.667 1.66667L332 5" stroke="#333333"/>
<line y1="-0.5" x2="8.66667" y2="-0.5" transform="matrix(0 1 1 0 336 1.66667)" stroke="#333333"/>
<path d="M330 9V15.6667H341.333V9" stroke="#333333"/>
</svg>
