<svg width="132" height="11" viewBox="0 0 132 11" fill="none" xmlns="http://www.w3.org/2000/svg">
<path d="M1.57314 5.49765H6.99054V9.99707H8.16711V0.946519H6.99054V4.9029H1.57314V0.946519H0.39657V9.99707H1.57314V5.49765ZM18.2974 7.33362L19.5386 9.99707H20.7927L16.5778 0.946519H15.9313L12.1042 9.99707H12.6989L13.8367 7.33362H18.2974ZM18.0258 6.7518H14.0824L15.9442 2.39461H15.9959L18.0258 6.7518ZM24.7376 0.946519V9.99707H30.5817V9.28596H25.9142V5.49765H29.9223V4.9029H25.9142V1.65763H30.5817V0.946519H24.7376ZM41.0356 9.99707H44.2809C44.8584 9.99707 45.3454 9.9238 45.7419 9.77727C46.1384 9.62212 46.4573 9.42387 46.6987 9.18252C46.94 8.94117 47.1124 8.66966 47.2159 8.36797C47.3279 8.05767 47.3839 7.74736 47.3839 7.43706C47.3839 6.94574 47.2762 6.55355 47.0607 6.26049C46.8538 5.96742 46.6039 5.74331 46.3108 5.58816C46.0177 5.43301 45.7161 5.32957 45.4057 5.27785C45.0954 5.22614 44.8455 5.19597 44.6558 5.18735V5.13563C44.9575 5.13563 45.242 5.0796 45.5092 4.96755C45.7764 4.84688 46.0091 4.69603 46.2074 4.51502C46.4142 4.32539 46.578 4.1099 46.6987 3.86855C46.8194 3.61859 46.8797 3.35569 46.8797 3.07986C46.8797 2.83852 46.828 2.59286 46.7245 2.34289C46.6211 2.09292 46.4616 1.8645 46.2462 1.65763C46.0393 1.45076 45.7678 1.28268 45.4316 1.15339C45.1041 1.01548 44.7162 0.946519 44.268 0.946519H41.0356V9.99707ZM42.2122 9.42818V5.47179H43.6344C44.0568 5.47179 44.4231 5.52782 44.7334 5.63988C45.0437 5.75193 45.298 5.90277 45.4963 6.0924C45.7031 6.28203 45.854 6.50183 45.9488 6.7518C46.0522 7.00177 46.1039 7.26467 46.1039 7.54049C46.1039 7.84218 46.0479 8.10938 45.9358 8.34211C45.8324 8.57484 45.6902 8.77309 45.5092 8.93686C45.3282 9.10063 45.1127 9.22562 44.8627 9.31181C44.6214 9.38939 44.3628 9.42818 44.087 9.42818H42.2122ZM42.2122 4.9029V1.51541H43.7896C44.1257 1.51541 44.4102 1.56282 44.6429 1.65763C44.8843 1.75245 45.0782 1.87743 45.2247 2.03259C45.3799 2.18774 45.4919 2.36444 45.5609 2.56269C45.6299 2.76094 45.6643 2.95919 45.6643 3.15744C45.6643 3.40741 45.6126 3.64014 45.5092 3.85563C45.4144 4.07111 45.2765 4.25644 45.0954 4.41159C44.9231 4.56674 44.7205 4.68741 44.4878 4.77361C44.2637 4.85981 44.0223 4.9029 43.7637 4.9029H42.2122ZM50.42 0.946519L53.5489 6.57079V9.99707H54.7255V6.45443L57.9061 0.946519H57.2079L54.441 5.71745H54.3893L51.7517 0.946519H50.42ZM69.5381 5.49765H74.9555V9.99707H76.132V0.946519H74.9555V4.9029H69.5381V0.946519H68.3615V9.99707H69.5381V5.49765ZM86.2623 7.33362L87.5035 9.99707H88.7576L84.5427 0.946519H83.8962L80.0691 9.99707H80.6639L81.8016 7.33362H86.2623ZM85.9908 6.7518H82.0473L83.9091 2.39461H83.9608L85.9908 6.7518ZM92.7025 0.946519V9.99707H98.5466V9.28596H93.8791V5.49765H97.8872V4.9029H93.8791V1.65763H98.5466V0.946519H92.7025ZM102.48 9.99707H103.657V6.81645L105.118 5.252L108.557 9.99707H109.902L105.868 4.45038L109.152 0.946519H108.505L103.657 6.04069V0.946519H102.48V9.99707ZM114.354 0.946519V9.99707H115.53V0.946519H114.354ZM122.031 0.946519H121.152V9.99707H121.721V2.61441H121.773L125.768 10.1522H126.001L130.086 2.66612H130.138V9.99707H131.315V0.946519H130.422L126.233 8.71706H126.182L122.031 0.946519Z" fill="#FCFCFC"/>
</svg>
