<svg width="181" height="14" viewBox="0 0 181 14" fill="none" xmlns="http://www.w3.org/2000/svg">
<path d="M6.32359 0.399999V9.49C6.32359 9.778 6.31159 10.096 6.28759 10.444C6.27559 10.78 6.20959 11.098 6.08959 11.398C5.96959 11.686 5.78359 11.932 5.53159 12.136C5.29159 12.328 4.94359 12.424 4.48759 12.424C4.09159 12.424 3.76159 12.352 3.49759 12.208C3.24559 12.064 3.04159 11.884 2.88559 11.668C2.74159 11.452 2.63359 11.224 2.56159 10.984C2.50159 10.732 2.47159 10.51 2.47159 10.318H0.905586C0.929586 11.242 1.22959 11.956 1.80559 12.46C2.38159 12.964 3.24559 13.216 4.39759 13.216C5.22559 13.216 5.87959 13.096 6.35959 12.856C6.83959 12.604 7.19359 12.292 7.42159 11.92C7.66159 11.536 7.81159 11.122 7.87159 10.678C7.93159 10.234 7.96159 9.82 7.96159 9.436V0.399999H6.32359ZM15.5699 0.399999V8.14C15.5699 8.632 15.6179 9.178 15.7139 9.778C15.8099 10.366 16.0379 10.918 16.3979 11.434C16.7579 11.938 17.2919 12.364 17.9999 12.712C18.7079 13.048 19.6739 13.216 20.8979 13.216C21.6659 13.216 22.3439 13.096 22.9319 12.856C23.5319 12.616 24.0299 12.286 24.4259 11.866C24.8339 11.446 25.1399 10.96 25.3439 10.408C25.5479 9.844 25.6499 9.244 25.6499 8.608V0.399999H24.8579V8.014C24.8579 8.278 24.8519 8.548 24.8399 8.824C24.8279 9.088 24.7919 9.358 24.7319 9.634C24.6719 9.898 24.5759 10.162 24.4439 10.426C24.3239 10.69 24.1439 10.954 23.9039 11.218C23.4719 11.686 22.9859 12.004 22.4459 12.172C21.9059 12.34 21.3419 12.424 20.7539 12.424C20.2499 12.424 19.7999 12.346 19.4039 12.19C19.0199 12.034 18.6539 11.8 18.3059 11.488C18.0299 11.248 17.8199 11.008 17.6759 10.768C17.5319 10.528 17.4239 10.294 17.3519 10.066C17.2799 9.826 17.2379 9.586 17.2259 9.346C17.2139 9.106 17.2079 8.866 17.2079 8.626V0.399999H15.5699ZM31.751 9.814C31.775 10.33 31.907 10.798 32.147 11.218C32.399 11.638 32.735 11.998 33.155 12.298C33.587 12.586 34.091 12.814 34.667 12.982C35.243 13.138 35.873 13.216 36.557 13.216C37.253 13.216 37.877 13.132 38.429 12.964C38.993 12.796 39.473 12.556 39.869 12.244C40.265 11.932 40.571 11.554 40.787 11.11C41.003 10.666 41.111 10.174 41.111 9.634C41.111 8.89 40.925 8.284 40.553 7.816C40.181 7.336 39.713 6.94 39.149 6.628C38.597 6.304 37.991 6.034 37.331 5.818C36.683 5.602 36.077 5.374 35.513 5.134C34.961 4.894 34.499 4.618 34.127 4.306C33.755 3.994 33.569 3.58 33.569 3.064C33.569 2.776 33.629 2.506 33.749 2.254C33.881 2.002 34.067 1.786 34.307 1.606C34.559 1.414 34.865 1.264 35.225 1.156C35.585 1.036 35.999 0.975999 36.467 0.975999C37.247 0.975999 37.907 1.144 38.447 1.48C38.999 1.804 39.323 2.32 39.419 3.028H40.643C40.571 2.584 40.409 2.188 40.157 1.84C39.905 1.48 39.587 1.18 39.203 0.94C38.819 0.687999 38.381 0.501999 37.889 0.381999C37.409 0.25 36.905 0.184 36.377 0.184C35.825 0.184 35.297 0.256 34.793 0.399999C34.301 0.543999 33.863 0.754 33.479 1.03C33.107 1.306 32.807 1.654 32.579 2.074C32.363 2.494 32.255 2.974 32.255 3.514C32.255 4.222 32.435 4.792 32.795 5.224C33.155 5.656 33.605 6.016 34.145 6.304C34.697 6.592 35.291 6.838 35.927 7.042C36.563 7.246 37.151 7.48 37.691 7.744C38.243 7.996 38.699 8.308 39.059 8.68C39.419 9.052 39.599 9.55 39.599 10.174C39.599 10.954 39.311 11.524 38.735 11.884C38.171 12.244 37.415 12.424 36.467 12.424C35.711 12.424 35.105 12.328 34.649 12.136C34.193 11.932 33.845 11.692 33.605 11.416C33.365 11.14 33.203 10.858 33.119 10.57C33.035 10.27 32.987 10.018 32.975 9.814H31.751ZM53.157 13V1.39H57.981V0.399999H46.695V1.39H51.519V13H53.157ZM74.7938 0.399999V13H76.4318V6.736H82.0118V5.908H76.4318V1.39H82.9298V0.399999H74.7938ZM88.3619 6.7C88.3619 7.372 88.4879 8.092 88.7399 8.86C89.0039 9.616 89.4119 10.318 89.9639 10.966C90.5159 11.614 91.2179 12.154 92.0699 12.586C92.9219 13.006 93.9419 13.216 95.1299 13.216C95.9339 13.216 96.6599 13.12 97.3079 12.928C97.9679 12.724 98.5559 12.454 99.0719 12.118C99.5999 11.782 100.056 11.398 100.44 10.966C100.824 10.522 101.136 10.06 101.376 9.58C101.628 9.088 101.814 8.596 101.934 8.104C102.066 7.612 102.132 7.144 102.132 6.7C102.132 6.028 101.994 5.314 101.718 4.558C101.442 3.79 101.016 3.082 100.44 2.434C99.8639 1.786 99.1319 1.252 98.2439 0.831999C97.3679 0.399999 96.3299 0.184 95.1299 0.184C93.9419 0.184 92.9219 0.394 92.0699 0.813999C91.2179 1.234 90.5159 1.768 89.9639 2.416C89.4119 3.052 89.0039 3.754 88.7399 4.522C88.4879 5.29 88.3619 6.016 88.3619 6.7ZM90.1259 6.7C90.1259 5.86 90.2519 5.092 90.5039 4.396C90.7679 3.688 91.1219 3.082 91.5659 2.578C92.0219 2.074 92.5559 1.684 93.1679 1.408C93.7799 1.12 94.4459 0.975999 95.1659 0.975999C95.8739 0.975999 96.5399 1.12 97.1639 1.408C97.7999 1.684 98.3519 2.074 98.8199 2.578C99.2999 3.082 99.6779 3.688 99.9539 4.396C100.23 5.092 100.368 5.86 100.368 6.7C100.368 7.54 100.23 8.314 99.9539 9.022C99.6779 9.718 99.2999 10.318 98.8199 10.822C98.3519 11.326 97.7999 11.722 97.1639 12.01C96.5399 12.286 95.8739 12.424 95.1659 12.424C94.4459 12.424 93.7799 12.286 93.1679 12.01C92.5559 11.722 92.0219 11.326 91.5659 10.822C91.1219 10.318 90.7679 9.718 90.5039 9.022C90.2519 8.314 90.1259 7.54 90.1259 6.7ZM109.196 0.399999V13H110.834V7.438H111.626C111.962 7.438 112.238 7.468 112.454 7.528C112.682 7.588 112.886 7.69 113.066 7.834C113.246 7.978 113.414 8.164 113.57 8.392C113.726 8.62 113.912 8.902 114.128 9.238L115.55 11.344C115.73 11.62 115.904 11.872 116.072 12.1C116.252 12.328 116.444 12.526 116.648 12.694C116.852 12.85 117.08 12.976 117.332 13.072C117.596 13.168 117.908 13.216 118.268 13.216C118.532 13.216 118.748 13.204 118.916 13.18C119.084 13.156 119.252 13.096 119.42 13V12.334C119.36 12.346 119.3 12.358 119.24 12.37C119.18 12.37 119.12 12.37 119.06 12.37C118.808 12.37 118.586 12.334 118.394 12.262C118.202 12.19 118.022 12.088 117.854 11.956C117.686 11.812 117.524 11.644 117.368 11.452C117.212 11.248 117.05 11.02 116.882 10.768C116.378 10.036 115.988 9.454 115.712 9.022C115.436 8.578 115.214 8.236 115.046 7.996C114.89 7.756 114.758 7.582 114.65 7.474C114.554 7.366 114.434 7.276 114.29 7.204L114.11 7.114V7.042C114.686 7.006 115.178 6.88 115.586 6.664C116.006 6.448 116.348 6.178 116.612 5.854C116.876 5.53 117.068 5.182 117.188 4.81C117.308 4.426 117.368 4.054 117.368 3.694C117.368 3.37 117.302 3.016 117.17 2.632C117.05 2.248 116.834 1.894 116.522 1.57C116.222 1.234 115.808 0.957999 115.28 0.741999C114.752 0.513999 114.086 0.399999 113.282 0.399999H109.196ZM110.834 1.192H112.652C113.108 1.192 113.516 1.258 113.876 1.39C114.248 1.522 114.566 1.708 114.83 1.948C115.094 2.176 115.292 2.452 115.424 2.776C115.568 3.1 115.64 3.454 115.64 3.838C115.64 4.162 115.574 4.492 115.442 4.828C115.322 5.152 115.136 5.452 114.884 5.728C114.632 5.992 114.32 6.208 113.948 6.376C113.588 6.544 113.168 6.628 112.688 6.628H110.834V1.192ZM134.789 0.399999L139.145 8.23V13H140.783V8.068L145.211 0.399999H144.239L140.387 7.042H140.315L136.643 0.399999H134.789ZM150.645 6.7C150.645 7.372 150.771 8.092 151.023 8.86C151.287 9.616 151.695 10.318 152.247 10.966C152.799 11.614 153.501 12.154 154.353 12.586C155.205 13.006 156.225 13.216 157.413 13.216C158.217 13.216 158.943 13.12 159.591 12.928C160.251 12.724 160.839 12.454 161.355 12.118C161.883 11.782 162.339 11.398 162.723 10.966C163.107 10.522 163.419 10.06 163.659 9.58C163.911 9.088 164.097 8.596 164.217 8.104C164.349 7.612 164.415 7.144 164.415 6.7C164.415 6.028 164.277 5.314 164.001 4.558C163.725 3.79 163.299 3.082 162.723 2.434C162.147 1.786 161.415 1.252 160.527 0.831999C159.651 0.399999 158.613 0.184 157.413 0.184C156.225 0.184 155.205 0.394 154.353 0.813999C153.501 1.234 152.799 1.768 152.247 2.416C151.695 3.052 151.287 3.754 151.023 4.522C150.771 5.29 150.645 6.016 150.645 6.7ZM152.409 6.7C152.409 5.86 152.535 5.092 152.787 4.396C153.051 3.688 153.405 3.082 153.849 2.578C154.305 2.074 154.839 1.684 155.451 1.408C156.063 1.12 156.729 0.975999 157.449 0.975999C158.157 0.975999 158.823 1.12 159.447 1.408C160.083 1.684 160.635 2.074 161.103 2.578C161.583 3.082 161.961 3.688 162.237 4.396C162.513 5.092 162.651 5.86 162.651 6.7C162.651 7.54 162.513 8.314 162.237 9.022C161.961 9.718 161.583 10.318 161.103 10.822C160.635 11.326 160.083 11.722 159.447 12.01C158.823 12.286 158.157 12.424 157.449 12.424C156.729 12.424 156.063 12.286 155.451 12.01C154.839 11.722 154.305 11.326 153.849 10.822C153.405 10.318 153.051 9.718 152.787 9.022C152.535 8.314 152.409 7.54 152.409 6.7ZM170.759 0.399999V8.14C170.759 8.632 170.807 9.178 170.903 9.778C170.999 10.366 171.227 10.918 171.587 11.434C171.947 11.938 172.481 12.364 173.189 12.712C173.897 13.048 174.863 13.216 176.087 13.216C176.855 13.216 177.533 13.096 178.121 12.856C178.721 12.616 179.219 12.286 179.615 11.866C180.023 11.446 180.329 10.96 180.533 10.408C180.737 9.844 180.839 9.244 180.839 8.608V0.399999H180.047V8.014C180.047 8.278 180.041 8.548 180.029 8.824C180.017 9.088 179.981 9.358 179.921 9.634C179.861 9.898 179.765 10.162 179.633 10.426C179.513 10.69 179.333 10.954 179.093 11.218C178.661 11.686 178.175 12.004 177.635 12.172C177.095 12.34 176.531 12.424 175.943 12.424C175.439 12.424 174.989 12.346 174.593 12.19C174.209 12.034 173.843 11.8 173.495 11.488C173.219 11.248 173.009 11.008 172.865 10.768C172.721 10.528 172.613 10.294 172.541 10.066C172.469 9.826 172.427 9.586 172.415 9.346C172.403 9.106 172.397 8.866 172.397 8.626V0.399999H170.759Z" fill="black"/>
</svg>
