<svg width="43" height="11" viewBox="0 0 43 11" fill="none" xmlns="http://www.w3.org/2000/svg">
<path opacity="0.5" d="M0.946602 10.1194H2.2206V6.67538L3.8026 4.98138L7.5266 10.1194H8.9826L4.6146 4.11338L8.1706 0.319384H7.4706L2.2206 5.83538V0.319384H0.946602V10.1194ZM14.6375 0.319384V10.1194H15.9115V0.319384H14.6375ZM22.9733 10.1194V0.319384H26.1933C26.968 0.319384 27.6773 0.445384 28.3213 0.697384C28.9653 0.940051 29.516 1.28072 29.9733 1.71938C30.44 2.14872 30.7993 2.66205 31.0513 3.25938C31.3127 3.85672 31.4433 4.50072 31.4433 5.19138C31.4433 5.91005 31.308 6.57272 31.0373 7.17938C30.776 7.77672 30.412 8.29472 29.9453 8.73338C29.488 9.17205 28.9513 9.51272 28.3353 9.75538C27.7193 9.99805 27.0613 10.1194 26.3613 10.1194H22.9733ZM24.2473 9.50338H25.7873C26.5527 9.50338 27.2013 9.37738 27.7333 9.12538C28.2747 8.86405 28.718 8.52805 29.0633 8.11738C29.4087 7.70672 29.6607 7.24938 29.8193 6.74538C29.978 6.23205 30.0573 5.72338 30.0573 5.21938C30.0573 4.65938 29.964 4.12272 29.7773 3.60938C29.5907 3.08672 29.3153 2.62938 28.9513 2.23738C28.5967 1.83605 28.1533 1.51872 27.6213 1.28538C27.0893 1.05205 26.478 0.935385 25.7873 0.935385H24.2473V9.50338ZM35.3764 7.64138C35.3951 8.04272 35.4977 8.40672 35.6844 8.73338C35.8804 9.06005 36.1417 9.34005 36.4684 9.57338C36.8044 9.79738 37.1964 9.97472 37.6444 10.1054C38.0924 10.2267 38.5824 10.2874 39.1144 10.2874C39.6557 10.2874 40.1411 10.2221 40.5704 10.0914C41.0091 9.96072 41.3824 9.77405 41.6904 9.53138C41.9984 9.28872 42.2364 8.99472 42.4044 8.64938C42.5724 8.30405 42.6564 7.92138 42.6564 7.50138C42.6564 6.92272 42.5117 6.45138 42.2224 6.08738C41.9331 5.71405 41.5691 5.40605 41.1304 5.16338C40.7011 4.91138 40.2297 4.70138 39.7164 4.53338C39.2124 4.36538 38.7411 4.18805 38.3024 4.00138C37.8731 3.81472 37.5137 3.60005 37.2244 3.35738C36.9351 3.11472 36.7904 2.79272 36.7904 2.39138C36.7904 2.16738 36.8371 1.95738 36.9304 1.76138C37.0331 1.56538 37.1777 1.39738 37.3644 1.25738C37.5604 1.10805 37.7984 0.991384 38.0784 0.907384C38.3584 0.814051 38.6804 0.767384 39.0444 0.767384C39.6511 0.767384 40.1644 0.898051 40.5844 1.15938C41.0137 1.41138 41.2657 1.81272 41.3404 2.36338H42.2924C42.2364 2.01805 42.1104 1.71005 41.9144 1.43938C41.7184 1.15938 41.4711 0.926051 41.1724 0.739385C40.8737 0.543384 40.5331 0.398718 40.1504 0.305384C39.7771 0.202718 39.3851 0.151385 38.9744 0.151385C38.5451 0.151385 38.1344 0.207384 37.7424 0.319384C37.3597 0.431384 37.0191 0.594718 36.7204 0.809384C36.4311 1.02405 36.1977 1.29472 36.0204 1.62138C35.8524 1.94805 35.7684 2.32138 35.7684 2.74138C35.7684 3.29205 35.9084 3.73538 36.1884 4.07138C36.4684 4.40738 36.8184 4.68738 37.2384 4.91138C37.6677 5.13538 38.1297 5.32672 38.6244 5.48538C39.1191 5.64405 39.5764 5.82605 39.9964 6.03138C40.4257 6.22738 40.7804 6.47005 41.0604 6.75938C41.3404 7.04872 41.4804 7.43605 41.4804 7.92138C41.4804 8.52805 41.2564 8.97138 40.8084 9.25138C40.3697 9.53138 39.7817 9.67138 39.0444 9.67138C38.4564 9.67138 37.9851 9.59672 37.6304 9.44738C37.2757 9.28872 37.0051 9.10205 36.8184 8.88738C36.6317 8.67272 36.5057 8.45338 36.4404 8.22938C36.3751 7.99605 36.3377 7.80005 36.3284 7.64138H35.3764Z" fill="#333333"/>
</svg>
