<svg width="75" height="11" viewBox="0 0 75 11" fill="none" xmlns="http://www.w3.org/2000/svg">
<path d="M0.68 10V0.199999H1.954V9.23H7.008V10H0.68ZM16.5479 7.116L17.8919 10H19.2499L14.6859 0.199999H13.9859L9.84188 10H10.4859L11.7179 7.116H16.5479ZM16.2539 6.486H11.9839L13.9999 1.768H14.0559L16.2539 6.486ZM24.3078 0.199999H23.3558V10H23.9718V2.006H24.0278L28.3538 10.168H28.6058L33.0298 2.062H33.0858V10H34.3598V0.199999H33.3938L28.8578 8.614H28.8018L24.3078 0.199999ZM39.7249 0.199999V10H46.0529V9.23H40.9989V5.128H45.3389V4.484H40.9989V0.969999H46.0529V0.199999H39.7249ZM50.1468 0.199999V10H51.4208V5.674H52.0368C52.2981 5.674 52.5128 5.69733 52.6808 5.744C52.8581 5.79067 53.0168 5.87 53.1568 5.982C53.2968 6.094 53.4275 6.23867 53.5488 6.416C53.6701 6.59333 53.8148 6.81267 53.9828 7.074L55.0888 8.712C55.2288 8.92667 55.3641 9.12267 55.4948 9.3C55.6348 9.47733 55.7841 9.63133 55.9428 9.762C56.1015 9.88333 56.2788 9.98133 56.4748 10.056C56.6801 10.1307 56.9228 10.168 57.2028 10.168C57.4081 10.168 57.5761 10.1587 57.7068 10.14C57.8375 10.1213 57.9681 10.0747 58.0988 10V9.482C58.0521 9.49133 58.0055 9.50067 57.9588 9.51C57.9121 9.51 57.8655 9.51 57.8188 9.51C57.6228 9.51 57.4501 9.482 57.3008 9.426C57.1515 9.37 57.0115 9.29067 56.8808 9.188C56.7501 9.076 56.6241 8.94533 56.5028 8.796C56.3815 8.63733 56.2555 8.46 56.1248 8.264C55.7328 7.69467 55.4295 7.242 55.2148 6.906C55.0001 6.56067 54.8275 6.29467 54.6968 6.108C54.5755 5.92133 54.4728 5.786 54.3888 5.702C54.3141 5.618 54.2208 5.548 54.1088 5.492L53.9688 5.422V5.366C54.4168 5.338 54.7995 5.24 55.1168 5.072C55.4435 4.904 55.7095 4.694 55.9148 4.442C56.1201 4.19 56.2695 3.91933 56.3628 3.63C56.4561 3.33133 56.5028 3.042 56.5028 2.762C56.5028 2.51 56.4515 2.23467 56.3488 1.936C56.2555 1.63733 56.0875 1.362 55.8448 1.11C55.6115 0.848666 55.2895 0.633999 54.8788 0.465999C54.4681 0.288666 53.9501 0.199999 53.3248 0.199999H50.1468ZM51.4208 0.816H52.8348C53.1895 0.816 53.5068 0.867333 53.7868 0.969999C54.0761 1.07267 54.3235 1.21733 54.5288 1.404C54.7341 1.58133 54.8881 1.796 54.9908 2.048C55.1028 2.3 55.1588 2.57533 55.1588 2.874C55.1588 3.126 55.1075 3.38267 55.0048 3.644C54.9115 3.896 54.7668 4.12933 54.5708 4.344C54.3748 4.54933 54.1321 4.71733 53.8428 4.848C53.5628 4.97867 53.2361 5.044 52.8628 5.044H51.4208V0.816ZM62.1956 0.199999V10H68.5236V9.23H63.4696V5.128H67.8096V4.484H63.4696V0.969999H68.5236V0.199999H62.1956ZM73.1775 0.199999V10H74.4515V0.199999H73.1775Z" fill="black"/>
</svg>
