<svg width="79" height="32" viewBox="0 0 79 32" fill="none" xmlns="http://www.w3.org/2000/svg">
<g opacity="0.8" clip-path="url(#clip0_1021_1701)">
<path d="M2.18275 24.381V31.6294H0V15.6088H10.6667L10.955 17.1326C10.9138 17.1326 10.9138 17.1326 10.8726 17.0914C10.7902 17.0914 10.749 17.0914 10.749 17.0502C10.5843 16.8031 9.96654 16.556 8.93694 16.3089C7.86615 16.0618 6.46589 15.9382 4.69498 15.9382H2.18275V23.9691H9.14286V24.3398H2.18275V24.381Z" fill="white"/>
<path d="M18.2857 27.0991C18.2857 26.6873 18.2857 26.2754 18.2857 25.8636C18.2857 25.4106 18.2445 24.9987 18.2445 24.5457C18.0798 24.9164 17.7915 25.1635 17.3796 25.4106C16.9678 25.6165 16.5148 25.8224 16.0206 25.9871C15.5263 26.1519 14.991 26.3166 14.4556 26.4402C13.9202 26.6049 13.3848 26.7696 12.9318 27.0167C12.4787 27.2638 12.1081 27.5521 11.8198 27.9228C11.5315 28.2935 11.3668 28.7877 11.3668 29.3642C11.3668 30.0232 11.5315 30.4762 11.861 30.8057C12.1904 31.1352 12.6435 31.2999 13.22 31.2999C13.7966 31.2999 14.5379 31.1351 15.3204 30.7645C16.1441 30.3938 17.0502 29.8584 18.0386 29.1583C17.7915 29.4054 17.462 29.6937 17.0502 30.0232C16.6383 30.3527 16.1441 30.6409 15.6087 30.9292C15.0733 31.2175 14.5379 31.4646 14.0025 31.6294C13.426 31.8353 12.9318 31.9176 12.4787 31.9176C12.1081 31.9176 11.6962 31.8765 11.3256 31.7941C10.9549 31.7117 10.5843 31.5882 10.2548 31.3823C9.92532 31.1763 9.67821 30.9292 9.47229 30.5998C9.26637 30.2703 9.14282 29.8173 9.14282 29.2819C9.14282 28.8288 9.26637 28.417 9.51348 28.0875C9.76058 27.7581 10.0901 27.4698 10.5019 27.2227C10.9137 26.9756 11.4079 26.7696 11.9433 26.6049C12.4787 26.4402 13.0141 26.2754 13.5907 26.1519C14.1673 25.9871 14.7027 25.8636 15.2381 25.74C15.7735 25.6165 16.2677 25.4518 16.6795 25.287C17.1325 25.1223 17.462 24.9164 17.7503 24.7104C17.9974 24.4633 18.1621 24.2162 18.2033 23.8868C18.1209 23.3925 18.0386 22.9395 17.8738 22.4865C17.7503 22.0335 17.5444 21.6628 17.2973 21.3333C17.0502 21.0039 16.7207 20.7568 16.35 20.5509C15.9794 20.3449 15.4852 20.3037 14.9498 20.3037C14.1261 20.3449 13.5083 20.4273 13.0965 20.592C12.6846 20.7568 12.3964 20.9627 12.1904 21.2098C11.9845 21.4569 11.9433 21.704 11.9433 21.9923C11.9433 22.2806 11.9433 22.5277 11.9433 22.7748C11.9433 23.0631 11.861 23.269 11.6962 23.4337C11.5315 23.5985 11.3256 23.6397 11.0785 23.6397C10.8314 23.6397 10.5843 23.5573 10.3372 23.3514C10.0901 23.1454 10.0077 22.8983 10.0077 22.5689C10.0077 22.1158 10.2136 21.704 10.5843 21.3745C10.9549 21.0451 11.4491 20.7568 11.9845 20.5509C12.5199 20.3449 13.0965 20.1802 13.6731 20.0978C14.2496 20.0155 14.7027 19.9743 15.0733 19.9743C16.2265 19.9743 17.1737 20.139 17.8738 20.4685C18.574 20.798 19.1094 21.251 19.48 21.7864C19.8507 22.3218 20.0978 22.9807 20.2213 23.722C20.3449 24.4633 20.3861 25.2046 20.3861 26.0283V31.6705H18.3269V27.0991H18.2857Z" fill="white"/>
<path d="M24.9164 30.8057C25.1223 31.094 25.4518 31.2999 25.9048 31.4235C26.3579 31.547 26.8109 31.6294 27.3463 31.6294C27.8405 31.6294 28.3759 31.5882 28.8701 31.4646C29.4055 31.3411 29.8585 31.1763 30.2703 30.9704C30.6822 30.7645 31.0528 30.5174 31.2999 30.1879C31.5882 29.8996 31.7118 29.529 31.7118 29.1171C31.7118 28.6229 31.5059 28.2111 31.0528 27.9228C30.5998 27.6345 30.0232 27.3874 29.3643 27.1815C28.7053 26.9756 27.964 26.7697 27.1815 26.6049C26.399 26.4402 25.6577 26.1931 24.9988 25.946C24.3398 25.6577 23.7633 25.3282 23.3102 24.8752C22.8572 24.4222 22.6513 23.8456 22.6513 23.1455C22.6513 22.4865 22.816 21.9511 23.1455 21.5393C23.475 21.1274 23.928 20.798 24.4222 20.5509C24.9576 20.3038 25.493 20.139 26.1107 20.0567C26.7285 19.9743 27.2639 19.9331 27.7993 19.9331C28.0464 19.9331 28.3759 19.9743 28.7877 20.0155C29.1996 20.0567 29.6114 20.1802 29.982 20.3449C30.3527 20.5097 30.7234 20.6744 31.0117 20.9215C31.2999 21.1686 31.4647 21.4981 31.4647 21.8688C31.4647 22.1159 31.3823 22.3218 31.1764 22.4865C30.9705 22.6513 30.7645 22.7336 30.5174 22.7336C30.188 22.7336 29.982 22.6513 29.8173 22.5277C29.6526 22.4041 29.5702 22.2394 29.4878 22.0335C29.4055 21.8688 29.3643 21.6628 29.3231 21.4569C29.2819 21.251 29.2407 21.0863 29.1172 20.9627C28.9113 20.7156 28.6642 20.5097 28.4171 20.4273C28.1288 20.3449 27.7993 20.2626 27.4286 20.2626C27.0168 20.2626 26.605 20.3038 26.1931 20.3861C25.7401 20.4685 25.3694 20.5921 24.9988 20.7568C24.6281 20.9215 24.3398 21.1686 24.1339 21.4157C23.8868 21.704 23.8044 22.0335 23.8044 22.4041C23.8044 22.7748 23.928 23.1043 24.2163 23.3514C24.4634 23.5985 24.834 23.8044 25.2459 24.0103C25.6577 24.1751 26.1519 24.3398 26.7285 24.4634C27.2639 24.5869 27.8405 24.7105 28.4171 24.8752C28.9936 25.0399 29.5702 25.2047 30.1056 25.3694C30.641 25.5341 31.1352 25.7812 31.5882 26.0283C32.0001 26.2754 32.3707 26.6049 32.6178 26.9756C32.8649 27.3462 33.0297 27.8404 33.0297 28.3758C33.0297 28.9936 32.8649 29.529 32.5355 29.982C32.206 30.435 31.7941 30.7645 31.2588 31.0528C30.7234 31.3411 30.1468 31.547 29.4878 31.6706C28.8289 31.7941 28.1288 31.8765 27.4286 31.8765C27.1815 31.8765 26.9344 31.8765 26.605 31.8353C26.2755 31.7941 25.946 31.7941 25.5754 31.7117C25.2047 31.6706 24.8752 31.5882 24.5046 31.4646C24.1339 31.3823 23.8456 31.2587 23.5573 31.094C23.2691 30.9292 23.0631 30.7645 22.8572 30.5586C22.6925 30.3527 22.6101 30.1056 22.6101 29.7761C22.6101 29.529 22.6925 29.3643 22.8984 29.1995C23.1043 29.0348 23.3102 28.9524 23.5573 28.9524C23.8868 28.9524 24.0927 29.0348 24.2575 29.1583C24.4222 29.2819 24.5046 29.4466 24.5869 29.6525C24.6281 29.8585 24.7105 30.0232 24.7105 30.2291C24.7517 30.5174 24.834 30.6821 24.9164 30.8057Z" fill="white"/>
<path d="M34.5945 15.6088L36.6537 14.4968V31.6705H34.5945V15.6088ZM36.9008 21.3333C37.0655 21.0862 37.3126 20.8803 37.5597 20.7156C37.8068 20.5509 38.0951 20.3861 38.4246 20.3037C38.7541 20.2214 39.0424 20.0978 39.3718 20.0566C39.7013 20.0155 39.9896 19.9743 40.3191 19.9743C41.2663 19.9743 42.0488 20.0978 42.6666 20.3037C43.2843 20.5097 43.8197 20.8391 44.1904 21.2098C44.6022 21.5805 44.8905 22.0335 45.0964 22.5277C45.3023 23.0219 45.4671 23.5573 45.5494 24.0927C45.6318 24.6693 45.673 25.2046 45.7142 25.8224C45.7142 26.399 45.7142 26.9756 45.7142 27.511V31.6705H43.655V27.305C43.655 26.8932 43.655 26.4814 43.655 25.9871C43.655 25.4929 43.6138 24.9987 43.5726 24.4633C43.5314 23.9279 43.4079 23.4337 43.2843 22.9395C43.1608 22.4453 42.9548 22.0335 42.7077 21.6216C42.4606 21.251 42.09 20.9215 41.6781 20.7156C41.2663 20.4685 40.7309 20.3449 40.072 20.3449C39.5366 20.3449 39.1247 20.3861 38.7541 20.4685C38.3834 20.5509 38.0951 20.6332 37.848 20.7156C37.6009 20.798 37.395 20.9215 37.2714 21.0451C37.1067 21.1686 36.9832 21.251 36.9008 21.3333Z" fill="white"/>
<path d="M50.3813 19.6036V31.6293H48.3221V20.7156L50.3813 19.6036Z" fill="white"/>
<path d="M47.7577 16.0612C47.4331 16.2318 46.6311 16.3077 46.6311 16.3077V16.6111C46.6311 16.6111 47.4331 16.6869 47.7577 16.8576C48.0632 17.0282 48.3305 17.2558 48.5214 17.5592C48.7315 17.8626 48.8651 18.2039 48.9606 18.6021C49.0561 19.0003 49.0942 19.3435 49.0942 19.3435H49.3616C49.3616 19.3435 49.4558 18.7992 49.4952 18.6021C49.5907 18.2039 49.7434 17.8626 49.9344 17.5592C50.1253 17.2558 50.3735 17.0282 50.6981 16.8576C51.0227 16.6869 51.8247 16.6111 51.8247 16.6111V16.3077C51.8247 16.3077 51.0227 16.2318 50.6981 16.0612C50.3926 15.8905 50.1253 15.663 49.9344 15.3596C49.7243 15.0562 49.5907 14.7149 49.4952 14.3166C49.4514 14.0819 49.3616 13.4839 49.3616 13.4839H49.0942C49.0942 13.4839 49.0055 14.165 48.9606 14.3166C48.8651 14.7149 48.7124 15.0562 48.5214 15.3596C48.3305 15.663 48.0823 15.8905 47.7577 16.0612Z" fill="white"/>
<path d="M52.8584 25.946C52.8584 25.1635 52.982 24.4222 53.2291 23.6809C53.4762 22.9395 53.888 22.3218 54.4234 21.7452C54.9588 21.1686 55.6177 20.7568 56.4002 20.4273C57.1827 20.0978 58.13 19.9331 59.2007 19.9331C60.2715 19.9331 61.2188 20.0978 62.0013 20.4273C62.7838 20.7568 63.4427 21.2098 63.9781 21.7864C64.5135 22.363 64.8841 22.9807 65.1312 23.722C65.3783 24.4222 65.5019 25.2047 65.5019 25.946C65.5019 26.7285 65.3783 27.4698 65.1312 28.2111C64.8841 28.9524 64.4723 29.5702 63.9369 30.1467C63.4015 30.7233 62.7426 31.1352 61.9601 31.4646C61.1776 31.7941 60.2303 31.9588 59.2007 31.9588C58.1711 31.9588 57.1827 31.7941 56.4002 31.4646C55.6177 31.1352 54.9588 30.6821 54.4234 30.1056C53.888 29.529 53.5173 28.9112 53.2291 28.1699C52.982 27.4698 52.8584 26.7285 52.8584 25.946ZM58.13 20.4273C57.4298 20.4273 56.8532 20.592 56.4002 20.9215C55.9472 21.251 55.5765 21.6628 55.3294 22.157C55.0823 22.6513 54.9588 23.269 54.8764 23.928C54.8352 24.5869 54.8764 25.287 55 25.9872C55.1235 26.6873 55.3294 27.3462 55.6589 28.0464C55.9472 28.7053 56.3179 29.2819 56.7709 29.8173C57.2239 30.3115 57.7181 30.7645 58.2947 31.0528C58.8713 31.3823 59.489 31.547 60.1892 31.547C60.8893 31.547 61.4247 31.3823 61.8777 31.0528C62.3307 30.7233 62.6602 30.3115 62.9073 29.8173C63.1544 29.3231 63.278 28.7053 63.3603 28.0464C63.4015 27.3874 63.3603 26.6873 63.2368 25.9872C63.1132 25.287 62.8661 24.6281 62.5778 23.928C62.2895 23.269 61.9189 22.6924 61.4659 22.157C61.0128 21.6628 60.5186 21.2098 59.9421 20.9215C59.3655 20.6332 58.8301 20.4273 58.13 20.4273Z" fill="white"/>
<path d="M67.2683 20.7156L69.3275 19.6036V31.6293H67.2683V20.7156ZM69.5334 21.3333C69.6982 21.0862 69.9453 20.8803 70.1924 20.7156C70.4395 20.5508 70.7278 20.3861 71.0572 20.3037C71.3867 20.2214 71.675 20.0978 72.0045 20.0566C72.3339 20.0154 72.6222 19.9743 72.9517 19.9743C73.8989 19.9743 74.6814 20.0978 75.2992 20.3037C75.917 20.5097 76.4524 20.8391 76.823 21.2098C77.2348 21.5804 77.5231 22.0335 77.7291 22.5277C77.935 23.0219 78.0997 23.5573 78.1821 24.0927C78.2645 24.6692 78.3056 25.2046 78.3468 25.8224C78.3468 26.399 78.3468 26.9756 78.3468 27.5109V31.6705H76.2876V27.305C76.2876 26.8932 76.2876 26.4813 76.2876 25.9871C76.2876 25.4929 76.2464 24.9987 76.2052 24.4633C76.1641 23.9279 76.0405 23.4337 75.917 22.9395C75.7934 22.4453 75.5875 22.0335 75.3404 21.6216C75.0933 21.251 74.7226 20.9215 74.3108 20.7156C73.8989 20.4685 73.3635 20.3449 72.7046 20.3449C72.1692 20.3449 71.7574 20.3861 71.3867 20.4685C71.0161 20.5508 70.7278 20.6332 70.4807 20.7156C70.2336 20.7979 70.0276 20.9215 69.9041 21.045C69.7394 21.1686 69.6158 21.251 69.5334 21.3333Z" fill="white"/>
<path d="M22.4813 0.86496C24.1287 0.86496 25.5701 1.11206 26.8057 1.56509C28.0412 2.0593 29.0708 2.67706 29.8945 3.45955C30.7181 4.24205 31.3359 5.10692 31.7477 6.13652C32.1596 7.12493 32.3655 8.15453 32.3655 9.22532C32.3655 10.2549 32.1596 11.2845 31.7477 12.2729C31.3359 13.2614 30.7181 14.1674 29.8945 14.9499C29.0708 15.7324 28.0412 16.3502 26.8057 16.8444C25.5701 17.3386 24.1287 17.5857 22.4813 17.5857C20.834 17.5857 19.3925 17.3386 18.157 16.8444C16.9215 16.3502 15.8919 15.7324 15.0682 14.9499C14.2445 14.1674 13.6268 13.2614 13.2149 12.2729C12.8031 11.2845 12.5972 10.2549 12.5972 9.22532C12.5972 8.15453 12.8031 7.16612 13.2149 6.13652C13.6268 5.1481 14.2445 4.24205 15.0682 3.45955C15.8919 2.67706 16.9215 2.0593 18.157 1.56509C19.3925 1.11206 20.834 0.86496 22.4813 0.86496ZM23.7169 17.0503C24.9524 17.0503 26.0232 16.8444 26.888 16.3913C27.7529 15.9383 28.453 15.3617 28.9884 14.6204C29.5238 13.8791 29.8533 13.0554 30.018 12.1082C30.1827 11.161 30.1827 10.2137 30.0592 9.22532C29.8945 8.2369 29.6062 7.28967 29.112 6.34244C28.6178 5.3952 28.0412 4.57152 27.2999 3.83021C26.5586 3.0889 25.6937 2.51232 24.6641 2.0593C23.6345 1.60627 22.5225 1.40035 21.287 1.40035C20.0103 1.40035 18.9395 1.60627 18.0746 2.0593C17.2098 2.51232 16.5097 3.0889 16.0154 3.83021C15.48 4.57152 15.1506 5.3952 14.9858 6.34244C14.8211 7.28967 14.8211 8.2369 14.9447 9.22532C15.1094 10.2137 15.3977 11.161 15.8507 12.1082C16.3037 13.0554 16.9215 13.8791 17.6628 14.6204C18.4041 15.3617 19.3102 15.9383 20.2986 16.3913C21.3282 16.8032 22.4813 17.0503 23.7169 17.0503Z" fill="white"/>
<path d="M34.5945 4.73618L36.6537 3.62421V10.4608C36.6949 11.1609 36.8184 11.861 37.0243 12.4788C37.2303 13.0965 37.5185 13.6731 37.9304 14.1261C38.301 14.5792 38.7541 14.991 39.3306 15.2381C39.866 15.5264 40.4838 15.6499 41.1839 15.6499C42.0488 15.6499 42.7077 15.3617 43.2431 14.8263C43.7785 14.2909 44.108 13.5907 44.3139 12.7671C44.5198 11.9434 44.561 11.0373 44.4787 10.0901C44.3963 9.14287 44.1492 8.23682 43.7785 7.41314C43.4079 6.58946 42.9137 5.88933 42.2959 5.35394C41.6781 4.81854 40.9368 4.53026 40.1131 4.53026C39.8249 4.53026 39.4954 4.57144 39.2071 4.69499C38.9188 4.81854 38.6305 4.9421 38.3422 5.10683C38.0539 5.27157 37.8068 5.47749 37.6009 5.68341C37.3538 5.88933 37.1891 6.13643 37.0655 6.34235C37.395 5.64222 37.9304 5.06565 38.6305 4.61262C39.3718 4.1596 40.1543 3.95368 40.978 3.95368C42.0076 3.95368 42.8725 4.11842 43.6138 4.44789C44.3551 4.77736 44.9317 5.23038 45.4259 5.80696C45.8789 6.38354 46.2496 7.0013 46.4555 7.74261C46.6614 8.48392 46.785 9.18405 46.785 9.96655C46.785 10.749 46.6614 11.4492 46.4555 12.1905C46.2496 12.8906 45.8789 13.5496 45.4259 14.1261C44.9729 14.7027 44.3551 15.1557 43.6138 15.4852C42.8725 15.8147 42.0076 16.0206 41.0192 16.0206C39.9484 16.0206 39.0424 15.8559 38.3422 15.5676C37.6421 15.2793 37.1067 14.8675 36.6949 14.3732V21.4157H34.6357V4.73618H34.5945Z" fill="white"/>
<path d="M51.5954 7.90735C51.5954 8.68984 51.719 9.47234 51.9661 10.296C52.2132 11.1197 52.5838 11.8198 53.0369 12.52C53.4899 13.1789 54.0665 13.7143 54.7254 14.1261C55.3844 14.538 56.1257 14.7439 56.9082 14.7439C57.6495 14.7439 58.3084 14.5792 58.885 14.2909C59.4616 13.9614 59.9558 13.5907 60.3676 13.1789C60.7795 12.7671 61.1089 12.314 61.3149 11.9022C61.562 11.4904 61.6855 11.1609 61.6855 10.955C61.6443 11.4904 61.4384 12.0669 61.1089 12.6023C60.7795 13.1377 60.3676 13.6319 59.8322 14.085C59.2968 14.538 58.7203 14.8675 58.0201 15.1557C57.32 15.4028 56.5787 15.5676 55.7962 15.5676C54.7254 15.5676 53.7782 15.4028 52.9957 15.0734C52.2132 14.7439 51.5542 14.2909 51.0189 13.7143C50.4835 13.1377 50.1128 12.52 49.8245 11.7786C49.5774 11.0785 49.4539 10.296 49.4539 9.55471C49.4539 8.52511 49.6186 7.66024 49.9481 6.91893C50.2775 6.17762 50.7306 5.55986 51.266 5.06565C51.8013 4.57144 52.4191 4.20078 53.1192 3.99486C53.8194 3.74776 54.5195 3.62421 55.2196 3.62421C55.755 3.62421 56.2904 3.70657 56.7846 3.87131C57.32 4.03605 57.773 4.28315 58.2261 4.61262C58.6791 4.9421 59.0497 5.31275 59.3792 5.72459C59.7087 6.17762 59.9558 6.63064 60.1617 7.16603C60.2441 7.41314 60.2029 7.61906 60.0793 7.78379C59.9558 7.94853 59.7499 8.0309 59.4616 8.0309H51.5954V7.90735ZM54.8078 3.91249C54.2724 3.91249 53.8194 3.99486 53.4075 4.20078C52.9957 4.4067 52.6662 4.65381 52.4191 4.98328C52.172 5.31275 51.9661 5.72459 51.8013 6.13643C51.6778 6.58946 51.5954 7.04248 51.5542 7.53669H58.3084C58.2261 7.2484 58.1025 6.91893 57.9378 6.50709C57.773 6.09525 57.5259 5.68341 57.2376 5.31275C56.9494 4.9421 56.6199 4.61262 56.208 4.32434C55.7962 4.03605 55.302 3.91249 54.8078 3.91249Z" fill="white"/>
<path d="M62.8037 4.61261L64.8629 3.50064V15.5264H62.8037V4.61261ZM65.11 5.23037C65.2748 4.98327 65.5219 4.77735 65.769 4.61261C66.0161 4.44787 66.3044 4.28314 66.6338 4.20077C66.9633 4.07722 67.2516 3.99485 67.5811 3.95367C67.9105 3.91248 68.1988 3.8713 68.5283 3.8713C69.4755 3.8713 70.258 3.99485 70.8758 4.20077C71.4935 4.40669 72.0289 4.73616 72.3996 5.10682C72.8114 5.47747 73.0997 5.9305 73.3056 6.42471C73.5116 6.91892 73.6763 7.45431 73.7587 7.9897C73.841 8.56628 73.8822 9.10167 73.9234 9.71943C73.9234 10.296 73.9234 10.8726 73.9234 11.408V15.5676H71.8642V11.2021C71.8642 10.7902 71.8642 10.3784 71.8642 9.84298C71.8642 9.34877 71.823 8.85457 71.7818 8.31917C71.7406 7.78378 71.6171 7.28957 71.4935 6.79536C71.37 6.30116 71.1641 5.88932 70.917 5.47747C70.6699 5.10682 70.2992 4.77735 69.8874 4.53024C69.4755 4.28314 68.9401 4.15959 68.2812 4.15959C67.7458 4.15959 67.334 4.20077 66.9633 4.28314C66.5926 4.36551 66.3044 4.44787 66.0573 4.53024C65.8101 4.61261 65.6042 4.73616 65.4807 4.85971C65.3159 5.02445 65.1924 5.148 65.11 5.23037Z" fill="white"/>
</g>
<defs>
<clipPath id="clip0_1021_1701">
<rect width="78.0849" height="32" fill="white"/>
</clipPath>
</defs>
</svg>
