<svg width="40" height="11" viewBox="0 0 40 11" fill="none" xmlns="http://www.w3.org/2000/svg">
<path opacity="0.5" d="M1.24089 0.319384H0.288887V10.1194H0.904887V2.12538H0.960887L5.28689 10.2874H5.53889L9.96289 2.18138H10.0189V10.1194H11.2929V0.319384H10.3269L5.79089 8.73338H5.73489L1.24089 0.319384ZM23.104 7.23538L24.448 10.1194H25.806L21.242 0.319384H20.542L16.398 10.1194H17.042L18.274 7.23538H23.104ZM22.81 6.60538H18.54L20.556 1.88738H20.612L22.81 6.60538ZM38.8079 0.319384V7.80938H38.7519L30.9819 0.151385H30.9119V10.1194H31.5559V2.62938H31.6119L39.3819 10.2874H39.4519V0.319384H38.8079Z" fill="#333333"/>
</svg>
