<svg width="98" height="11" viewBox="0 0 98 11" fill="none" xmlns="http://www.w3.org/2000/svg">
<path d="M1.05473 0.199999H0.10273V10H0.71873V2.006H0.77473L5.10073 10.168H5.35273L9.77673 2.062H9.83273V10H11.1067V0.199999H10.1407L5.60473 8.614H5.54873L1.05473 0.199999ZM21.9179 7.116L23.2619 10H24.6199L20.0559 0.199999H19.3559L15.2119 10H15.8559L17.0879 7.116H21.9179ZM21.6239 6.486H17.3539L19.3699 1.768H19.4259L21.6239 6.486ZM30.6701 10V0.969999H34.4221V0.199999H25.6441V0.969999H29.3961V10H30.6701ZM38.382 0.199999V10H44.71V9.23H39.656V5.128H43.996V4.484H39.656V0.969999H44.71V0.199999H38.382ZM48.8039 0.199999V10H50.0779V5.674H50.6939C50.9552 5.674 51.1699 5.69733 51.3379 5.744C51.5152 5.79067 51.6739 5.87 51.8139 5.982C51.9539 6.094 52.0846 6.23867 52.2059 6.416C52.3272 6.59333 52.4719 6.81267 52.6399 7.074L53.7459 8.712C53.8859 8.92667 54.0212 9.12267 54.1519 9.3C54.2919 9.47733 54.4412 9.63133 54.5999 9.762C54.7586 9.88333 54.9359 9.98133 55.1319 10.056C55.3372 10.1307 55.5799 10.168 55.8599 10.168C56.0652 10.168 56.2332 10.1587 56.3639 10.14C56.4946 10.1213 56.6252 10.0747 56.7559 10V9.482C56.7092 9.49133 56.6626 9.50067 56.6159 9.51C56.5692 9.51 56.5226 9.51 56.4759 9.51C56.2799 9.51 56.1072 9.482 55.9579 9.426C55.8086 9.37 55.6686 9.29067 55.5379 9.188C55.4072 9.076 55.2812 8.94533 55.1599 8.796C55.0386 8.63733 54.9126 8.46 54.7819 8.264C54.3899 7.69467 54.0866 7.242 53.8719 6.906C53.6572 6.56067 53.4846 6.29467 53.3539 6.108C53.2326 5.92133 53.1299 5.786 53.0459 5.702C52.9712 5.618 52.8779 5.548 52.7659 5.492L52.6259 5.422V5.366C53.0739 5.338 53.4566 5.24 53.7739 5.072C54.1006 4.904 54.3666 4.694 54.5719 4.442C54.7772 4.19 54.9266 3.91933 55.0199 3.63C55.1132 3.33133 55.1599 3.042 55.1599 2.762C55.1599 2.51 55.1086 2.23467 55.0059 1.936C54.9126 1.63733 54.7446 1.362 54.5019 1.11C54.2686 0.848666 53.9466 0.633999 53.5359 0.465999C53.1252 0.288666 52.6072 0.199999 51.9819 0.199999H48.8039ZM50.0779 0.816H51.4919C51.8466 0.816 52.1639 0.867333 52.4439 0.969999C52.7332 1.07267 52.9806 1.21733 53.1859 1.404C53.3912 1.58133 53.5452 1.796 53.6479 2.048C53.7599 2.3 53.8159 2.57533 53.8159 2.874C53.8159 3.126 53.7646 3.38267 53.6619 3.644C53.5686 3.896 53.4239 4.12933 53.2279 4.344C53.0319 4.54933 52.7892 4.71733 52.4999 4.848C52.2199 4.97867 51.8932 5.044 51.5199 5.044H50.0779V0.816ZM61.4127 0.199999V10H62.6867V0.199999H61.4127ZM74.0546 7.116L75.3986 10H76.7566L72.1926 0.199999H71.4926L67.3486 10H67.9926L69.2246 7.116H74.0546ZM73.7606 6.486H69.4906L71.5066 1.768H71.5626L73.7606 6.486ZM80.8625 10V0.199999H82.1365V9.23H87.1905V10H80.8625ZM90.1224 7.522C90.141 7.92333 90.2437 8.28733 90.4304 8.614C90.6264 8.94067 90.8877 9.22067 91.2144 9.454C91.5504 9.678 91.9424 9.85533 92.3904 9.986C92.8384 10.1073 93.3284 10.168 93.8604 10.168C94.4017 10.168 94.887 10.1027 95.3164 9.972C95.755 9.84133 96.1284 9.65467 96.4364 9.412C96.7444 9.16933 96.9824 8.87533 97.1504 8.53C97.3184 8.18467 97.4024 7.802 97.4024 7.382C97.4024 6.80333 97.2577 6.332 96.9684 5.968C96.679 5.59467 96.315 5.28667 95.8764 5.044C95.447 4.792 94.9757 4.582 94.4624 4.414C93.9584 4.246 93.487 4.06867 93.0484 3.882C92.619 3.69533 92.2597 3.48067 91.9704 3.238C91.681 2.99533 91.5364 2.67333 91.5364 2.272C91.5364 2.048 91.583 1.838 91.6764 1.642C91.779 1.446 91.9237 1.278 92.1104 1.138C92.3064 0.988666 92.5444 0.871999 92.8244 0.787999C93.1044 0.694666 93.4264 0.647999 93.7904 0.647999C94.397 0.647999 94.9104 0.778666 95.3304 1.04C95.7597 1.292 96.0117 1.69333 96.0864 2.244H97.0384C96.9824 1.89867 96.8564 1.59067 96.6604 1.32C96.4644 1.04 96.217 0.806666 95.9184 0.62C95.6197 0.424 95.279 0.279333 94.8964 0.186C94.523 0.0833331 94.131 0.0319998 93.7204 0.0319998C93.291 0.0319998 92.8804 0.0879997 92.4884 0.199999C92.1057 0.312 91.765 0.475333 91.4664 0.69C91.177 0.904666 90.9437 1.17533 90.7664 1.502C90.5984 1.82867 90.5144 2.202 90.5144 2.622C90.5144 3.17267 90.6544 3.616 90.9344 3.952C91.2144 4.288 91.5644 4.568 91.9844 4.792C92.4137 5.016 92.8757 5.20733 93.3704 5.366C93.865 5.52467 94.3224 5.70667 94.7424 5.912C95.1717 6.108 95.5264 6.35067 95.8064 6.64C96.0864 6.92933 96.2264 7.31667 96.2264 7.802C96.2264 8.40867 96.0024 8.852 95.5544 9.132C95.1157 9.412 94.5277 9.552 93.7904 9.552C93.2024 9.552 92.731 9.47733 92.3764 9.328C92.0217 9.16933 91.751 8.98267 91.5644 8.768C91.3777 8.55333 91.2517 8.334 91.1864 8.11C91.121 7.87667 91.0837 7.68067 91.0744 7.522H90.1224Z" fill="black"/>
</svg>
