<svg width="148" height="33" viewBox="0 0 148 33" fill="none" xmlns="http://www.w3.org/2000/svg">
<path d="M11.5055 32.6965C7.98882 32.6965 5.26065 31.6987 3.32092 29.7032C1.38119 27.7076 0.411332 25.0073 0.411332 21.6024C0.411332 19.1463 0.753226 16.8437 1.43701 14.6947C2.1208 12.5456 3.05578 10.5989 4.24194 8.85459C5.44206 7.11023 6.81662 5.61008 8.36561 4.35414C9.9146 3.0982 11.5613 2.13532 13.3056 1.46548C15.0639 0.79565 16.8362 0.460733 18.6224 0.460733C20.8273 0.460733 22.7601 0.914267 24.4207 1.82133C26.0953 2.71445 27.3931 3.99132 28.3141 5.65194C29.2491 7.31257 29.7166 9.28021 29.7166 11.5549C29.7166 14.6249 29.2142 17.4508 28.2094 20.0324C27.2047 22.6001 25.8371 24.8329 24.1067 26.7308C22.3902 28.6147 20.4435 30.0799 18.2666 31.1266C16.0896 32.1732 13.8359 32.6965 11.5055 32.6965ZM11.5055 32.4034C12.6498 32.4034 13.7243 32.0266 14.729 31.2731C15.7477 30.5195 16.6827 29.4938 17.534 28.196C18.3992 26.8843 19.1667 25.3981 19.8365 23.7375C20.5203 22.0768 21.0994 20.3255 21.5739 18.4834C22.0484 16.6414 22.4042 14.8063 22.6414 12.9782C22.8926 11.1362 23.0182 9.4058 23.0182 7.78704C23.0182 6.87997 22.9415 6.00779 22.788 5.1705C22.6484 4.33321 22.4042 3.58662 22.0553 2.93075C21.7204 2.26091 21.2669 1.73063 20.6947 1.33989C20.1365 0.949155 19.4458 0.753786 18.6224 0.753786C17.5479 0.753786 16.5152 1.13057 15.5245 1.88413C14.5476 2.63769 13.6266 3.67035 12.7614 4.98211C11.9101 6.27991 11.1356 7.75913 10.4379 9.41976C9.75412 11.0804 9.16103 12.8317 8.65866 14.6738C8.17024 16.5158 7.78648 18.3579 7.50738 20.1999C7.24224 22.028 7.10967 23.7514 7.10967 25.3702C7.10967 26.8494 7.24224 28.1123 7.50738 29.1589C7.78648 30.2055 8.24699 31.0079 8.88891 31.5661C9.53084 32.1243 10.403 32.4034 11.5055 32.4034ZM37.6061 32.6965C35.4291 32.6965 33.7406 32.1104 32.5404 30.9382C31.3543 29.766 30.7612 28.1681 30.7612 26.1447C30.7612 24.5399 31.0891 22.942 31.745 21.3512C32.4149 19.7464 33.3289 18.2881 34.4872 16.9763C35.6454 15.6506 36.9711 14.59 38.4643 13.7946C39.9714 12.9992 41.5762 12.6015 43.2787 12.6015C44.5207 12.6015 45.6092 12.8317 46.5442 13.2922C47.4791 13.7388 48.2048 14.3179 48.7211 15.0296C49.2374 15.7274 49.4956 16.453 49.4956 17.2066C49.4956 18.1555 49.1956 18.93 48.5955 19.5301C47.9955 20.1301 47.2628 20.4301 46.3976 20.4301C45.6162 20.4301 44.9184 20.2069 44.3044 19.7603C43.6904 19.2998 43.3834 18.6021 43.3834 17.6671C43.3834 16.8298 43.6695 16.1321 44.2416 15.5739C44.8277 15.0017 45.5324 14.7156 46.3558 14.7156C46.8581 14.7156 47.3466 14.8063 47.821 14.9878C48.2955 15.1692 48.6862 15.4483 48.9932 15.825C49.3002 16.1879 49.4538 16.6484 49.4538 17.2066H49.1816C49.1816 16.4949 48.9444 15.832 48.4699 15.218C48.0094 14.604 47.4163 14.1086 46.6907 13.7318C45.965 13.3411 45.1975 13.1457 44.3881 13.1457C43.3415 13.1457 42.3786 13.5225 41.4995 14.2761C40.6203 15.0157 39.8388 15.9925 39.1551 17.2066C38.4713 18.4206 37.8852 19.7394 37.3967 21.1628C36.9083 22.5722 36.5385 23.9607 36.2873 25.3283C36.0361 26.6819 35.9106 27.8681 35.9106 28.8868C35.9106 29.9055 36.1338 30.7079 36.5804 31.294C37.0409 31.8662 37.6968 32.1522 38.548 32.1522C39.7481 32.1522 40.8715 31.8941 41.9181 31.3777C42.9647 30.8614 43.9137 30.1916 44.7649 29.3682C45.6301 28.5309 46.3767 27.6378 47.0047 26.6889L47.2768 26.8564C46.6209 27.8332 45.8325 28.7682 44.9114 29.6613C44.0044 30.5544 42.9438 31.287 41.7297 31.8592C40.5296 32.4174 39.1551 32.6965 37.6061 32.6965ZM55.6922 32.6965C54.6177 32.6965 53.7595 32.55 53.1176 32.2569C52.4896 31.9499 52.0361 31.5661 51.757 31.1056C51.4918 30.6312 51.3592 30.1358 51.3592 29.6194C51.3592 29.2985 51.4081 28.9147 51.5058 28.4682C51.6174 28.0076 51.729 27.5681 51.8407 27.1494L56.7179 8.83366H62.1603L56.3411 30.3311C56.2993 30.4707 56.2574 30.6381 56.2155 30.8335C56.1737 31.0149 56.1527 31.2033 56.1527 31.3987C56.1527 31.8313 56.4458 32.0476 57.0319 32.0476C57.4505 32.0476 57.9041 31.9429 58.3925 31.7336C58.8949 31.5243 59.4112 31.1754 59.9415 30.687C60.4857 30.1986 61.0369 29.5217 61.5951 28.6565C62.1533 27.7774 62.6976 26.6819 63.2279 25.3702L63.5418 25.4539C62.872 27.0587 62.1673 28.3984 61.4277 29.4729C60.702 30.5474 59.8717 31.3568 58.9367 31.9011C58.0157 32.4313 56.9342 32.6965 55.6922 32.6965ZM51.4848 13.3341V13.0201H64.8815V13.3341H51.4848ZM72.4027 32.6965C70.1281 32.6965 68.3837 32.1243 67.1697 30.98C65.9556 29.8357 65.3486 28.217 65.3486 26.1237C65.3486 24.3654 65.6835 22.6769 66.3533 21.0581C67.0231 19.4394 67.9372 17.995 69.0954 16.7251C70.2537 15.4552 71.5794 14.4505 73.0726 13.7109C74.5797 12.9713 76.1636 12.6015 77.8242 12.6015C80.0989 12.6015 81.8572 13.1946 83.0992 14.3807C84.3551 15.5669 84.9831 17.2066 84.9831 19.2998C84.9831 21.0163 84.6551 22.6769 83.9992 24.2817C83.3434 25.8865 82.4363 27.3239 81.278 28.5937C80.1337 29.8497 78.8011 30.8475 77.28 31.5871C75.7589 32.3267 74.1332 32.6965 72.4027 32.6965ZM72.1516 32.3825C72.7237 32.3825 73.3098 32.0964 73.9099 31.5243C74.5099 30.9382 75.096 30.1567 75.6682 29.1799C76.2543 28.203 76.8055 27.1145 77.3218 25.9144C77.8382 24.7003 78.2917 23.4514 78.6824 22.1675C79.0732 20.8697 79.3802 19.6208 79.6035 18.4206C79.8267 17.2205 79.9384 16.16 79.9384 15.2389C79.9384 14.5133 79.7849 13.9481 79.4779 13.5434C79.1848 13.1387 78.7173 12.9364 78.0754 12.9364C77.5033 12.9364 76.9171 13.2225 76.3171 13.7946C75.717 14.3668 75.1239 15.1413 74.5378 16.1181C73.9517 17.0949 73.4005 18.1904 72.8842 19.4045C72.3818 20.6185 71.9353 21.8675 71.5445 23.1513C71.1538 24.4352 70.8468 25.6772 70.6235 26.8773C70.4002 28.0774 70.2886 29.145 70.2886 30.0799C70.2886 30.7916 70.4351 31.3568 70.7282 31.7755C71.0352 32.1801 71.5096 32.3825 72.1516 32.3825ZM94.714 32.6965C93.5836 32.6965 92.53 32.4592 91.5532 31.9848C90.5763 31.4964 89.7042 30.8405 88.9366 30.0171C88.1691 29.1938 87.5412 28.2728 87.0527 27.2541L94.0441 1.19337H90.7787V0.879379H99.5493L91.8462 29.5148C91.8462 30.2823 91.9648 30.9312 92.2021 31.4615C92.4533 31.9918 92.9417 32.2569 93.6673 32.2569C94.393 32.2569 95.1117 31.915 95.8234 31.2312C96.5351 30.5474 97.2049 29.6473 97.8329 28.531C98.4608 27.4006 99.019 26.1656 99.5075 24.8259C99.9959 23.4863 100.38 22.1536 100.659 20.8279C100.938 19.4882 101.077 18.2881 101.077 17.2275C101.077 16.139 100.91 15.2808 100.575 14.6528C100.24 14.0109 99.7656 13.6899 99.1516 13.6899C98.4539 13.6899 97.8189 14.0039 97.2468 14.6319C96.6746 15.2459 96.1513 16.0553 95.6768 17.06C95.2024 18.0508 94.7768 19.1323 94.4 20.3046C94.0232 21.4628 93.6883 22.5932 93.3952 23.6956H93.1022C93.5766 21.9931 94.0441 20.465 94.5046 19.1114C94.9791 17.7438 95.4954 16.5786 96.0536 15.6157C96.6258 14.6528 97.2886 13.9202 98.0422 13.4178C98.8097 12.9015 99.7238 12.6433 100.784 12.6433C102.654 12.6433 104.092 13.2992 105.096 14.611C106.115 15.9227 106.624 17.6601 106.624 19.8231C106.624 21.4558 106.31 23.0397 105.682 24.5747C105.055 26.1098 104.189 27.4913 103.087 28.7193C101.984 29.9334 100.715 30.9033 99.2772 31.6289C97.8398 32.3406 96.3188 32.6965 94.714 32.6965ZM115.753 32.6965C114.232 32.6965 112.962 32.4034 111.944 31.8173C110.939 31.2173 110.178 30.4149 109.662 29.4101C109.16 28.3914 108.908 27.2541 108.908 25.9981C108.908 24.2817 109.229 22.6211 109.871 21.0163C110.513 19.4114 111.406 17.9811 112.551 16.7251C113.695 15.4552 115.021 14.4505 116.528 13.7109C118.035 12.9713 119.654 12.6015 121.384 12.6015C123.366 12.6015 124.908 13.0341 126.01 13.8993C127.112 14.7645 127.664 15.825 127.664 17.081C127.664 18.0997 127.343 19.0207 126.701 19.844C126.073 20.6674 125.166 21.3791 123.98 21.9791C122.807 22.5792 121.405 23.0606 119.772 23.4235C118.139 23.7863 116.318 24.0166 114.309 24.1142V23.884C115.328 23.8142 116.284 23.563 117.177 23.1304C118.07 22.6839 118.879 22.1257 119.605 21.4558C120.33 20.772 120.958 20.0324 121.489 19.237C122.019 18.4276 122.424 17.6182 122.703 16.8089C122.996 15.9995 123.142 15.2529 123.142 14.5691C123.142 14.1505 123.059 13.7737 122.891 13.4388C122.724 13.1038 122.417 12.9364 121.97 12.9364C121.342 12.9364 120.707 13.2155 120.065 13.7737C119.437 14.3319 118.823 15.0854 118.223 16.0344C117.637 16.9833 117.093 18.0369 116.591 19.1951C116.088 20.3534 115.649 21.5465 115.272 22.7746C114.895 24.0026 114.595 25.1818 114.372 26.3121C114.162 27.4425 114.058 28.4333 114.058 29.2845C114.058 30.4149 114.288 31.1894 114.748 31.608C115.223 32.0127 115.844 32.215 116.611 32.215C117.644 32.215 118.663 31.9987 119.668 31.5661C120.686 31.1196 121.663 30.4846 122.598 29.6613C123.533 28.838 124.384 27.8472 125.152 26.6889L125.424 26.8564C124.768 27.8472 123.987 28.7891 123.08 29.6822C122.172 30.5614 121.112 31.287 119.898 31.8592C118.698 32.4174 117.316 32.6965 115.753 32.6965ZM129.071 32.2778L133.885 13.3341H130.536V13.0201H139.181L134.472 32.2778H129.071ZM135.769 25.9981C136.021 24.9655 136.321 23.8421 136.669 22.628C137.032 21.414 137.451 20.2208 137.925 19.0486C138.414 17.8764 138.958 16.8089 139.558 15.846C140.172 14.8691 140.856 14.0877 141.61 13.5016C142.377 12.9155 143.214 12.6224 144.121 12.6224C145.224 12.6224 146.117 12.9434 146.801 13.5853C147.498 14.2133 147.847 15.0226 147.847 16.0134C147.847 16.9624 147.554 17.7648 146.968 18.4206C146.382 19.0626 145.615 19.3835 144.666 19.3835C143.759 19.3835 143.005 19.0975 142.405 18.5253C141.805 17.9532 141.505 17.2205 141.505 16.3274C141.505 15.4483 141.805 14.7366 142.405 14.1923C143.005 13.6481 143.766 13.376 144.687 13.376C145.538 13.376 146.27 13.6062 146.884 14.0667C147.498 14.5272 147.805 15.1761 147.805 16.0134H147.512C147.512 15.0924 147.198 14.3528 146.57 13.7946C145.956 13.2225 145.14 12.9364 144.121 12.9364C143.242 12.9364 142.44 13.2294 141.714 13.8155C140.989 14.3877 140.326 15.1552 139.726 16.1181C139.126 17.067 138.588 18.1206 138.114 19.2789C137.653 20.4232 137.242 21.5814 136.879 22.7536C136.53 23.9258 136.23 25.0073 135.979 25.9981H135.769Z" fill="#FCFCFC"/>
</svg>
