<svg width="193" height="10" viewBox="0 0 193 10" fill="none" xmlns="http://www.w3.org/2000/svg">
<path d="M0.878028 4.8391C0.878028 5.3218 0.968533 5.83898 1.14954 6.39063C1.33917 6.93366 1.63224 7.43791 2.02874 7.90336C2.42524 8.36882 2.92949 8.7567 3.54148 9.067C4.15347 9.36869 4.88613 9.51953 5.73947 9.51953C6.31698 9.51953 6.83846 9.45058 7.30392 9.31266C7.778 9.16613 8.20035 8.97219 8.571 8.73084C8.95026 8.48949 9.2778 8.21367 9.55363 7.90336C9.82945 7.58444 10.0536 7.25258 10.226 6.9078C10.407 6.5544 10.5406 6.201 10.6268 5.84759C10.7216 5.49419 10.769 5.15803 10.769 4.8391C10.769 4.35641 10.6699 3.84354 10.4716 3.30051C10.2734 2.74886 9.96737 2.2403 9.55363 1.77485C9.13989 1.30939 8.61409 0.925819 7.97625 0.624133C7.34702 0.313829 6.60142 0.158677 5.73947 0.158677C4.88613 0.158677 4.15347 0.30952 3.54148 0.611204C2.92949 0.912889 2.42524 1.29646 2.02874 1.76192C1.63224 2.21875 1.33917 2.723 1.14954 3.27465C0.968533 3.8263 0.878028 4.34779 0.878028 4.8391ZM2.1451 4.8391C2.1451 4.23573 2.23561 3.68408 2.41662 3.18415C2.60625 2.67559 2.86053 2.2403 3.17945 1.87828C3.507 1.51626 3.89057 1.23612 4.33017 1.03787C4.76976 0.831003 5.24815 0.727569 5.76533 0.727569C6.27388 0.727569 6.75227 0.831003 7.20048 1.03787C7.65732 1.23612 8.05382 1.51626 8.38998 1.87828C8.73477 2.2403 9.00628 2.67559 9.20453 3.18415C9.40278 3.68408 9.50191 4.23573 9.50191 4.8391C9.50191 5.44247 9.40278 5.99844 9.20453 6.50699C9.00628 7.00693 8.73477 7.43791 8.38998 7.79993C8.05382 8.16195 7.65732 8.4464 7.20048 8.65327C6.75227 8.85152 6.27388 8.95064 5.76533 8.95064C5.24815 8.95064 4.76976 8.85152 4.33017 8.65327C3.89057 8.4464 3.507 8.16195 3.17945 7.79993C2.86053 7.43791 2.60625 7.00693 2.41662 6.50699C2.23561 5.99844 2.1451 5.44247 2.1451 4.8391ZM22.5854 7.69649C21.7062 8.52397 20.6632 8.93771 19.4565 8.93771C18.7842 8.93771 18.1894 8.82135 17.6722 8.58862C17.1551 8.35589 16.7241 8.04559 16.3793 7.6577C16.0345 7.26982 15.7716 6.82161 15.5906 6.31305C15.4182 5.8045 15.332 5.27439 15.332 4.72274C15.332 4.13661 15.4225 3.6022 15.6035 3.1195C15.7932 2.62818 16.0561 2.20583 16.3922 1.85242C16.7284 1.49902 17.1249 1.22319 17.5817 1.02494C18.0472 0.826694 18.5514 0.727569 19.0945 0.727569C19.4651 0.727569 19.8013 0.770666 20.103 0.856862C20.4133 0.943058 20.6848 1.05511 20.9175 1.19303C21.1589 1.33094 21.3528 1.4904 21.4993 1.67141C21.6545 1.8438 21.7622 2.0205 21.8226 2.20152H22.7793C22.65 1.90845 22.482 1.63693 22.2751 1.38697C22.0768 1.137 21.8269 0.921509 21.5252 0.740498C21.2235 0.559487 20.8701 0.417264 20.465 0.313829C20.0599 0.210394 19.5987 0.158677 19.0815 0.158677C18.3316 0.158677 17.6464 0.266422 17.0258 0.481911C16.4138 0.6974 15.888 1.0077 15.4484 1.41282C15.0088 1.80933 14.6683 2.29202 14.427 2.86091C14.1856 3.42118 14.065 4.05041 14.065 4.7486C14.065 5.35197 14.1598 5.94241 14.3494 6.51992C14.5476 7.08881 14.8493 7.59737 15.2545 8.04559C15.6596 8.48518 16.1767 8.8429 16.806 9.11872C17.4352 9.38593 18.1851 9.51953 19.0557 9.51953C19.6073 9.51953 20.0987 9.46781 20.5296 9.36438C20.9692 9.26095 21.3485 9.13596 21.6674 8.98943C21.995 8.83428 22.2665 8.6705 22.482 8.49811C22.6975 8.32572 22.8612 8.17488 22.9733 8.04559L22.5854 7.69649ZM30.1294 9.36438V1.02494H33.5944V0.313829H25.4877V1.02494H28.9528V9.36438H30.1294ZM35.5903 4.8391C35.5903 5.3218 35.6808 5.83898 35.8618 6.39063C36.0514 6.93366 36.3445 7.43791 36.741 7.90336C37.1375 8.36882 37.6418 8.7567 38.2537 9.067C38.8657 9.36869 39.5984 9.51953 40.4517 9.51953C41.0292 9.51953 41.5507 9.45058 42.0162 9.31266C42.4903 9.16613 42.9126 8.97219 43.2833 8.73084C43.6625 8.48949 43.9901 8.21367 44.2659 7.90336C44.5417 7.58444 44.7658 7.25258 44.9382 6.9078C45.1192 6.5544 45.2528 6.201 45.339 5.84759C45.4338 5.49419 45.4813 5.15803 45.4813 4.8391C45.4813 4.35641 45.3821 3.84354 45.1839 3.30051C44.9856 2.74886 44.6796 2.2403 44.2659 1.77485C43.8522 1.30939 43.3264 0.925819 42.6885 0.624133C42.0593 0.313829 41.3137 0.158677 40.4517 0.158677C39.5984 0.158677 38.8657 0.30952 38.2537 0.611204C37.6418 0.912889 37.1375 1.29646 36.741 1.76192C36.3445 2.21875 36.0514 2.723 35.8618 3.27465C35.6808 3.8263 35.5903 4.34779 35.5903 4.8391ZM36.8574 4.8391C36.8574 4.23573 36.9479 3.68408 37.1289 3.18415C37.3185 2.67559 37.5728 2.2403 37.8917 1.87828C38.2193 1.51626 38.6028 1.23612 39.0424 1.03787C39.482 0.831003 39.9604 0.727569 40.4776 0.727569C40.9861 0.727569 41.4645 0.831003 41.9127 1.03787C42.3696 1.23612 42.7661 1.51626 43.1022 1.87828C43.447 2.2403 43.7185 2.67559 43.9168 3.18415C44.115 3.68408 44.2142 4.23573 44.2142 4.8391C44.2142 5.44247 44.115 5.99844 43.9168 6.50699C43.7185 7.00693 43.447 7.43791 43.1022 7.79993C42.7661 8.16195 42.3696 8.4464 41.9127 8.65327C41.4645 8.85152 40.9861 8.95064 40.4776 8.95064C39.9604 8.95064 39.482 8.85152 39.0424 8.65327C38.6028 8.4464 38.2193 8.16195 37.8917 7.79993C37.5728 7.43791 37.3185 7.00693 37.1289 6.50699C36.9479 5.99844 36.8574 5.44247 36.8574 4.8391ZM49.6823 9.36438H52.9275C53.5051 9.36438 53.9921 9.29111 54.3886 9.14458C54.7851 8.98943 55.104 8.79118 55.3453 8.54983C55.5867 8.30848 55.7591 8.03697 55.8625 7.73528C55.9746 7.42498 56.0306 7.11467 56.0306 6.80437C56.0306 6.31305 55.9228 5.92086 55.7074 5.6278C55.5005 5.33473 55.2505 5.11062 54.9574 4.95547C54.6644 4.80032 54.3627 4.69688 54.0524 4.64516C53.7421 4.59345 53.4921 4.56328 53.3025 4.55466V4.50294C53.6042 4.50294 53.8886 4.44691 54.1558 4.33486C54.423 4.21419 54.6558 4.06334 54.854 3.88233C55.0609 3.6927 55.2247 3.47721 55.3453 3.23586C55.466 2.9859 55.5263 2.723 55.5263 2.44717C55.5263 2.20583 55.4746 1.96017 55.3712 1.7102C55.2678 1.46023 55.1083 1.23181 54.8928 1.02494C54.6859 0.818074 54.4144 0.649993 54.0783 0.520699C53.7507 0.382786 53.3628 0.313829 52.9146 0.313829H49.6823V9.36438ZM50.8588 8.79549V4.8391H52.2811C52.7034 4.8391 53.0698 4.89513 53.3801 5.00719C53.6904 5.11924 53.9447 5.27008 54.1429 5.45971C54.3498 5.64934 54.5006 5.86914 54.5954 6.11911C54.6989 6.36908 54.7506 6.63198 54.7506 6.9078C54.7506 7.20949 54.6946 7.47669 54.5825 7.70942C54.4791 7.94215 54.3368 8.1404 54.1558 8.30417C53.9748 8.46794 53.7593 8.59293 53.5094 8.67912C53.268 8.7567 53.0094 8.79549 52.7336 8.79549H50.8588ZM50.8588 4.27021V0.882721H52.4362C52.7724 0.882721 53.0568 0.930129 53.2896 1.02494C53.5309 1.11976 53.7249 1.24474 53.8714 1.39989C54.0265 1.55505 54.1386 1.73175 54.2075 1.93C54.2765 2.12825 54.311 2.3265 54.311 2.52475C54.311 2.77472 54.2593 3.00745 54.1558 3.22293C54.061 3.43842 53.9231 3.62374 53.7421 3.7789C53.5697 3.93405 53.3671 4.05472 53.1344 4.14092C52.9103 4.22711 52.669 4.27021 52.4104 4.27021H50.8588ZM60.2303 0.313829V9.36438H66.0744V8.65327H61.4069V4.86496H65.415V4.27021H61.4069V1.02494H66.0744V0.313829H60.2303ZM70.0081 0.313829V9.36438H71.1847V5.36921H71.7536C71.9949 5.36921 72.1932 5.39076 72.3483 5.43385C72.5121 5.47695 72.6586 5.55022 72.7879 5.65365C72.9172 5.75709 73.0379 5.89069 73.1499 6.05446C73.262 6.21824 73.3956 6.4208 73.5508 6.66214L74.5722 8.17488C74.7015 8.37313 74.8265 8.55414 74.9471 8.71791C75.0764 8.88168 75.2143 9.02391 75.3609 9.14458C75.5074 9.25664 75.6712 9.34714 75.8522 9.4161C76.0418 9.48505 76.2659 9.51953 76.5245 9.51953C76.7141 9.51953 76.8693 9.51091 76.99 9.49367C77.1106 9.47643 77.2313 9.43334 77.352 9.36438V8.88599C77.3089 8.89461 77.2658 8.90323 77.2227 8.91185C77.1796 8.91185 77.1365 8.91185 77.0934 8.91185C76.9124 8.91185 76.7529 8.88599 76.615 8.83428C76.4771 8.78256 76.3478 8.70929 76.2271 8.61448C76.1065 8.51104 75.9901 8.39037 75.878 8.25246C75.766 8.10592 75.6496 7.94215 75.5289 7.76114C75.1669 7.23535 74.8868 6.8173 74.6885 6.50699C74.4903 6.18807 74.3308 5.94241 74.2102 5.77002C74.0981 5.59763 74.0033 5.47264 73.9257 5.39507C73.8568 5.31749 73.7706 5.25284 73.6671 5.20113L73.5378 5.13648V5.08476C73.9516 5.0589 74.305 4.9684 74.598 4.81325C74.8997 4.65809 75.1454 4.46415 75.335 4.23142C75.5246 3.9987 75.6626 3.74873 75.7487 3.48152C75.8349 3.2057 75.878 2.93849 75.878 2.6799C75.878 2.44717 75.8306 2.1929 75.7358 1.91707C75.6496 1.64124 75.4945 1.38697 75.2704 1.15424C75.0549 0.912889 74.7575 0.714639 74.3782 0.559487C73.999 0.395715 73.5206 0.313829 72.9431 0.313829H70.0081ZM71.1847 0.882721H72.4905C72.8181 0.882721 73.1112 0.930129 73.3697 1.02494C73.637 1.11976 73.8654 1.25336 74.055 1.42575C74.2446 1.58953 74.3869 1.78778 74.4817 2.0205C74.5851 2.25323 74.6368 2.50751 74.6368 2.78334C74.6368 3.01607 74.5894 3.2531 74.4946 3.49445C74.4084 3.72718 74.2748 3.94267 74.0938 4.14092C73.9128 4.33055 73.6887 4.4857 73.4215 4.60638C73.1629 4.72705 72.8612 4.78739 72.5164 4.78739H71.1847V0.882721ZM95.4241 7.69649C94.5449 8.52397 93.5019 8.93771 92.2952 8.93771C91.6228 8.93771 91.0281 8.82135 90.5109 8.58862C89.9937 8.35589 89.5628 8.04559 89.218 7.6577C88.8732 7.26982 88.6103 6.82161 88.4293 6.31305C88.2569 5.8045 88.1707 5.27439 88.1707 4.72274C88.1707 4.13661 88.2612 3.6022 88.4422 3.1195C88.6319 2.62818 88.8948 2.20583 89.2309 1.85242C89.5671 1.49902 89.9636 1.22319 90.4204 1.02494C90.8859 0.826694 91.3901 0.727569 91.9332 0.727569C92.3038 0.727569 92.64 0.770666 92.9416 0.856862C93.2519 0.943058 93.5235 1.05511 93.7562 1.19303C93.9975 1.33094 94.1915 1.4904 94.338 1.67141C94.4932 1.8438 94.6009 2.0205 94.6612 2.20152H95.618C95.4887 1.90845 95.3206 1.63693 95.1138 1.38697C94.9155 1.137 94.6656 0.921509 94.3639 0.740498C94.0622 0.559487 93.7088 0.417264 93.3037 0.313829C92.8985 0.210394 92.4374 0.158677 91.9202 0.158677C91.1703 0.158677 90.4851 0.266422 89.8645 0.481911C89.2525 0.6974 88.7267 1.0077 88.2871 1.41282C87.8475 1.80933 87.507 2.29202 87.2657 2.86091C87.0243 3.42118 86.9036 4.05041 86.9036 4.7486C86.9036 5.35197 86.9984 5.94241 87.1881 6.51992C87.3863 7.08881 87.688 7.59737 88.0931 8.04559C88.4983 8.48518 89.0154 8.8429 89.6447 9.11872C90.2739 9.38593 91.0238 9.51953 91.8944 9.51953C92.446 9.51953 92.9373 9.46781 93.3683 9.36438C93.8079 9.26095 94.1872 9.13596 94.5061 8.98943C94.8336 8.83428 95.1052 8.6705 95.3206 8.49811C95.5361 8.32572 95.6999 8.17488 95.812 8.04559L95.4241 7.69649ZM98.7143 4.8391C98.7143 5.3218 98.8048 5.83898 98.9858 6.39063C99.1754 6.93366 99.4685 7.43791 99.865 7.90336C100.261 8.36882 100.766 8.7567 101.378 9.067C101.99 9.36869 102.722 9.51953 103.576 9.51953C104.153 9.51953 104.675 9.45058 105.14 9.31266C105.614 9.16613 106.037 8.97219 106.407 8.73084C106.787 8.48949 107.114 8.21367 107.39 7.90336C107.666 7.58444 107.89 7.25258 108.062 6.9078C108.243 6.5544 108.377 6.201 108.463 5.84759C108.558 5.49419 108.605 5.15803 108.605 4.8391C108.605 4.35641 108.506 3.84354 108.308 3.30051C108.11 2.74886 107.804 2.2403 107.39 1.77485C106.976 1.30939 106.45 0.925819 105.813 0.624133C105.183 0.313829 104.438 0.158677 103.576 0.158677C102.722 0.158677 101.99 0.30952 101.378 0.611204C100.766 0.912889 100.261 1.29646 99.865 1.76192C99.4685 2.21875 99.1754 2.723 98.9858 3.27465C98.8048 3.8263 98.7143 4.34779 98.7143 4.8391ZM99.9814 4.8391C99.9814 4.23573 100.072 3.68408 100.253 3.18415C100.443 2.67559 100.697 2.2403 101.016 1.87828C101.343 1.51626 101.727 1.23612 102.166 1.03787C102.606 0.831003 103.084 0.727569 103.602 0.727569C104.11 0.727569 104.589 0.831003 105.037 1.03787C105.494 1.23612 105.89 1.51626 106.226 1.87828C106.571 2.2403 106.843 2.67559 107.041 3.18415C107.239 3.68408 107.338 4.23573 107.338 4.8391C107.338 5.44247 107.239 5.99844 107.041 6.50699C106.843 7.00693 106.571 7.43791 106.226 7.79993C105.89 8.16195 105.494 8.4464 105.037 8.65327C104.589 8.85152 104.11 8.95064 103.602 8.95064C103.084 8.95064 102.606 8.85152 102.166 8.65327C101.727 8.4464 101.343 8.16195 101.016 7.79993C100.697 7.43791 100.443 7.00693 100.253 6.50699C100.072 5.99844 99.9814 5.44247 99.9814 4.8391ZM112.806 9.36438V0.313829H113.983V8.65327H118.65V9.36438H112.806ZM122.584 9.36438V0.313829H123.761V8.65327H128.428V9.36438H122.584ZM132.362 0.313829V9.36438H138.206V8.65327H133.538V4.86496H137.547V4.27021H133.538V1.02494H138.206V0.313829H132.362ZM149.755 7.69649C148.876 8.52397 147.833 8.93771 146.626 8.93771C145.954 8.93771 145.359 8.82135 144.842 8.58862C144.325 8.35589 143.894 8.04559 143.549 7.6577C143.204 7.26982 142.941 6.82161 142.76 6.31305C142.588 5.8045 142.502 5.27439 142.502 4.72274C142.502 4.13661 142.592 3.6022 142.773 3.1195C142.963 2.62818 143.226 2.20583 143.562 1.85242C143.898 1.49902 144.295 1.22319 144.751 1.02494C145.217 0.826694 145.721 0.727569 146.264 0.727569C146.635 0.727569 146.971 0.770666 147.273 0.856862C147.583 0.943058 147.854 1.05511 148.087 1.19303C148.329 1.33094 148.523 1.4904 148.669 1.67141C148.824 1.8438 148.932 2.0205 148.992 2.20152H149.949C149.82 1.90845 149.652 1.63693 149.445 1.38697C149.247 1.137 148.997 0.921509 148.695 0.740498C148.393 0.559487 148.04 0.417264 147.635 0.313829C147.23 0.210394 146.768 0.158677 146.251 0.158677C145.501 0.158677 144.816 0.266422 144.195 0.481911C143.583 0.6974 143.058 1.0077 142.618 1.41282C142.179 1.80933 141.838 2.29202 141.597 2.86091C141.355 3.42118 141.235 4.05041 141.235 4.7486C141.235 5.35197 141.329 5.94241 141.519 6.51992C141.717 7.08881 142.019 7.59737 142.424 8.04559C142.829 8.48518 143.346 8.8429 143.976 9.11872C144.605 9.38593 145.355 9.51953 146.225 9.51953C146.777 9.51953 147.268 9.46781 147.699 9.36438C148.139 9.26095 148.518 9.13596 148.837 8.98943C149.165 8.83428 149.436 8.6705 149.652 8.49811C149.867 8.32572 150.031 8.17488 150.143 8.04559L149.755 7.69649ZM157.299 9.36438V1.02494H160.764V0.313829H152.657V1.02494H156.122V9.36438H157.299ZM165.091 0.313829V9.36438H166.268V0.313829H165.091ZM170.985 4.8391C170.985 5.3218 171.075 5.83898 171.256 6.39063C171.446 6.93366 171.739 7.43791 172.135 7.90336C172.532 8.36882 173.036 8.7567 173.648 9.067C174.26 9.36869 174.993 9.51953 175.846 9.51953C176.424 9.51953 176.945 9.45058 177.411 9.31266C177.885 9.16613 178.307 8.97219 178.678 8.73084C179.057 8.48949 179.385 8.21367 179.66 7.90336C179.936 7.58444 180.16 7.25258 180.333 6.9078C180.514 6.5544 180.647 6.201 180.734 5.84759C180.828 5.49419 180.876 5.15803 180.876 4.8391C180.876 4.35641 180.777 3.84354 180.578 3.30051C180.38 2.74886 180.074 2.2403 179.66 1.77485C179.247 1.30939 178.721 0.925819 178.083 0.624133C177.454 0.313829 176.708 0.158677 175.846 0.158677C174.993 0.158677 174.26 0.30952 173.648 0.611204C173.036 0.912889 172.532 1.29646 172.135 1.76192C171.739 2.21875 171.446 2.723 171.256 3.27465C171.075 3.8263 170.985 4.34779 170.985 4.8391ZM172.252 4.8391C172.252 4.23573 172.342 3.68408 172.523 3.18415C172.713 2.67559 172.967 2.2403 173.286 1.87828C173.614 1.51626 173.997 1.23612 174.437 1.03787C174.877 0.831003 175.355 0.727569 175.872 0.727569C176.381 0.727569 176.859 0.831003 177.307 1.03787C177.764 1.23612 178.161 1.51626 178.497 1.87828C178.842 2.2403 179.113 2.67559 179.311 3.18415C179.51 3.68408 179.609 4.23573 179.609 4.8391C179.609 5.44247 179.51 5.99844 179.311 6.50699C179.113 7.00693 178.842 7.43791 178.497 7.79993C178.161 8.16195 177.764 8.4464 177.307 8.65327C176.859 8.85152 176.381 8.95064 175.872 8.95064C175.355 8.95064 174.877 8.85152 174.437 8.65327C173.997 8.4464 173.614 8.16195 173.286 7.79993C172.967 7.43791 172.713 7.00693 172.523 6.50699C172.342 5.99844 172.252 5.44247 172.252 4.8391ZM192.369 0.313829V7.23104H192.317L185.141 0.158677H185.077V9.36438H185.672V2.44717H185.723L192.899 9.51953H192.964V0.313829H192.369Z" fill="#FCFCFC"/>
</svg>
