<svg width="264" height="54" viewBox="0 0 264 54" fill="none" xmlns="http://www.w3.org/2000/svg">
<path d="M1.47139 0.373095H0.519386V10.1731H1.13539V2.1791H1.19139L5.51739 10.3411H5.76939L10.1934 2.2351H10.2494V10.1731H11.5234V0.373095H10.5574L6.02139 8.7871H5.96539L1.47139 0.373095ZM17.0445 3.0191C17.7259 3.0191 18.2532 3.1171 18.6265 3.3131C18.9999 3.49976 19.2705 3.7471 19.4385 4.0551C19.6159 4.3631 19.7185 4.71776 19.7465 5.1191C19.7745 5.52043 19.7885 5.9311 19.7885 6.3511V10.1731H18.6545V9.4871C18.3839 9.74843 18.0385 9.95843 17.6185 10.1171C17.1985 10.2664 16.7785 10.3411 16.3585 10.3411C15.9572 10.3411 15.6025 10.2711 15.2945 10.1311C14.9865 9.9911 14.7299 9.8091 14.5245 9.5851C14.3192 9.3611 14.1652 9.1091 14.0625 8.8291C13.9599 8.5491 13.9085 8.26443 13.9085 7.9751C13.9085 7.67643 13.9645 7.37776 14.0765 7.0791C14.1885 6.78043 14.3565 6.51443 14.5805 6.2811C14.8045 6.03843 15.0799 5.84243 15.4065 5.6931C15.7332 5.54376 16.1065 5.4691 16.5265 5.4691C16.9465 5.4691 17.3432 5.5531 17.7165 5.7211C18.0992 5.87976 18.4119 6.10843 18.6545 6.4071V5.8051C18.6545 5.03976 18.5379 4.47043 18.3045 4.0971C18.0805 3.72376 17.6652 3.5371 17.0585 3.5371C16.7972 3.5371 16.5685 3.56976 16.3725 3.6351C16.1765 3.70043 15.9992 3.79376 15.8405 3.9151C15.6912 4.0271 15.5512 4.17176 15.4205 4.3491C15.2899 4.5171 15.1592 4.70843 15.0285 4.9231L14.3005 4.1951C14.4312 4.0551 14.5665 3.9151 14.7065 3.7751C14.8559 3.6351 15.0332 3.5091 15.2385 3.3971C15.4532 3.2851 15.7052 3.19643 15.9945 3.1311C16.2839 3.05643 16.6339 3.0191 17.0445 3.0191ZM18.6545 7.4011C18.6079 7.2891 18.5379 7.15843 18.4445 7.0091C18.3605 6.85976 18.2485 6.7151 18.1085 6.5751C17.9685 6.4351 17.8005 6.31843 17.6045 6.2251C17.4085 6.12243 17.1752 6.0711 16.9045 6.0711C16.6339 6.0711 16.3865 6.1271 16.1625 6.2391C15.9385 6.34176 15.7472 6.48176 15.5885 6.6591C15.4392 6.8271 15.3225 7.02776 15.2385 7.2611C15.1545 7.49443 15.1125 7.7371 15.1125 7.9891C15.1125 8.28776 15.1639 8.5491 15.2665 8.7731C15.3785 8.98776 15.5185 9.17443 15.6865 9.3331C15.8545 9.48243 16.0412 9.59443 16.2465 9.6691C16.4519 9.74376 16.6479 9.7811 16.8345 9.7811C17.0119 9.7811 17.1892 9.74843 17.3665 9.6831C17.5532 9.61776 17.7259 9.5291 17.8845 9.4171C18.0525 9.29576 18.2019 9.15576 18.3325 8.9971C18.4632 8.83843 18.5705 8.66576 18.6545 8.4791V7.4011ZM23.3591 0.373095H22.1691V10.1731H23.3591V7.5411L24.1711 6.7151L26.9851 10.1731H28.5531L25.0391 5.8611L27.7131 3.1731H26.8031L23.3591 6.6451V0.373095ZM30.2629 3.1731V10.1731H31.4529V3.1731H30.2629ZM30.0949 0.961095C30.0949 1.16643 30.1696 1.34376 30.3189 1.4931C30.4683 1.64243 30.6456 1.7171 30.8509 1.7171C31.0563 1.7171 31.2336 1.64243 31.3829 1.4931C31.5323 1.34376 31.6069 1.16643 31.6069 0.961095C31.6069 0.755762 31.5323 0.578429 31.3829 0.429095C31.2336 0.279762 31.0563 0.205096 30.8509 0.205096C30.6456 0.205096 30.4683 0.279762 30.3189 0.429095C30.1696 0.578429 30.0949 0.755762 30.0949 0.961095ZM40.1136 10.1731V5.6371C40.1136 5.4691 40.0996 5.24043 40.0716 4.9511C40.0436 4.65243 39.9502 4.3631 39.7916 4.0831C39.6422 3.79376 39.3996 3.54643 39.0636 3.3411C38.7276 3.12643 38.2516 3.0191 37.6356 3.0191C37.3649 3.00976 37.0616 3.06576 36.7256 3.1871C36.3896 3.2991 36.0582 3.51843 35.7316 3.8451L35.5076 4.0691H35.4516V3.1731H34.2616V10.1731H35.4516V5.8471C35.4516 5.4831 35.5029 5.17043 35.6056 4.9091C35.7082 4.64776 35.8482 4.42843 36.0256 4.2511C36.2029 4.07376 36.4036 3.9431 36.6276 3.8591C36.8609 3.7751 37.0989 3.7331 37.3416 3.7331C37.7336 3.7331 38.0369 3.81243 38.2516 3.9711C38.4662 4.12043 38.6202 4.29776 38.7136 4.5031C38.8162 4.70843 38.8769 4.91376 38.8956 5.1191C38.9142 5.32443 38.9236 5.47376 38.9236 5.5671V10.1731H40.1136ZM47.5343 10.7611C47.5343 11.1904 47.483 11.5544 47.3803 11.8531C47.2777 12.1518 47.133 12.3944 46.9463 12.5811C46.769 12.7678 46.5543 12.9031 46.3023 12.9871C46.0597 13.0711 45.7983 13.1131 45.5183 13.1131C45.0237 13.1131 44.6223 12.9871 44.3143 12.7351C44.0157 12.4831 43.7403 12.1471 43.4883 11.7271L42.7183 12.4271C42.7837 12.5111 42.8863 12.6184 43.0263 12.7491C43.1663 12.8891 43.3437 13.0244 43.5583 13.1551C43.773 13.2951 44.0297 13.4118 44.3283 13.5051C44.627 13.6078 44.9677 13.6591 45.3503 13.6591C46.0597 13.6591 46.6337 13.5564 47.0723 13.3511C47.511 13.1551 47.8517 12.8891 48.0943 12.5531C48.337 12.2171 48.5003 11.8298 48.5843 11.3911C48.6777 10.9618 48.7243 10.5138 48.7243 10.0471V3.1731H47.5343V4.2651H47.4783C47.3663 3.8731 47.1237 3.56976 46.7503 3.3551C46.3863 3.1311 45.9057 3.0191 45.3083 3.0191C44.8323 3.0191 44.3983 3.10776 44.0063 3.2851C43.6143 3.4531 43.2783 3.69576 42.9983 4.0131C42.7183 4.33043 42.499 4.7131 42.3403 5.1611C42.191 5.6091 42.1163 6.10843 42.1163 6.6591C42.1163 7.2191 42.191 7.72776 42.3403 8.1851C42.499 8.6331 42.7183 9.02043 42.9983 9.3471C43.2783 9.66443 43.6097 9.91176 43.9923 10.0891C44.3843 10.2571 44.8183 10.3411 45.2943 10.3411C45.817 10.3411 46.2697 10.2384 46.6523 10.0331C47.0443 9.82776 47.3197 9.5011 47.4783 9.0531H47.5343V10.7611ZM47.5343 7.1911C47.5343 7.5831 47.4783 7.92843 47.3663 8.2271C47.2637 8.52576 47.1237 8.77776 46.9463 8.9831C46.769 9.18843 46.5637 9.3471 46.3303 9.4591C46.097 9.56176 45.8543 9.6131 45.6023 9.6131C45.3783 9.6131 45.1357 9.57576 44.8743 9.5011C44.6223 9.4171 44.3843 9.26776 44.1603 9.0531C43.9457 8.83843 43.7637 8.5351 43.6143 8.1431C43.4743 7.7511 43.4043 7.2471 43.4043 6.6311C43.4043 5.97776 43.493 5.45976 43.6703 5.0771C43.8477 4.6851 44.053 4.38643 44.2863 4.1811C44.529 3.97576 44.7717 3.8451 45.0143 3.7891C45.2663 3.72376 45.4623 3.6911 45.6023 3.6911C45.9103 3.6911 46.1857 3.7611 46.4283 3.9011C46.671 4.03176 46.8717 4.21376 47.0303 4.4471C47.1983 4.6711 47.3243 4.93243 47.4083 5.2311C47.4923 5.52976 47.5343 5.83776 47.5343 6.1551V7.1911ZM58.7087 3.0191C59.3901 3.0191 59.9174 3.1171 60.2907 3.3131C60.6641 3.49976 60.9347 3.7471 61.1027 4.0551C61.2801 4.3631 61.3827 4.71776 61.4107 5.1191C61.4387 5.52043 61.4527 5.9311 61.4527 6.3511V10.1731H60.3187V9.4871C60.0481 9.74843 59.7027 9.95843 59.2827 10.1171C58.8627 10.2664 58.4427 10.3411 58.0227 10.3411C57.6214 10.3411 57.2667 10.2711 56.9587 10.1311C56.6507 9.9911 56.3941 9.8091 56.1887 9.5851C55.9834 9.3611 55.8294 9.1091 55.7267 8.8291C55.6241 8.5491 55.5727 8.26443 55.5727 7.9751C55.5727 7.67643 55.6287 7.37776 55.7407 7.0791C55.8527 6.78043 56.0207 6.51443 56.2447 6.2811C56.4687 6.03843 56.7441 5.84243 57.0707 5.6931C57.3974 5.54376 57.7707 5.4691 58.1907 5.4691C58.6107 5.4691 59.0074 5.5531 59.3807 5.7211C59.7634 5.87976 60.0761 6.10843 60.3187 6.4071V5.8051C60.3187 5.03976 60.2021 4.47043 59.9687 4.0971C59.7447 3.72376 59.3294 3.5371 58.7227 3.5371C58.4614 3.5371 58.2327 3.56976 58.0367 3.6351C57.8407 3.70043 57.6634 3.79376 57.5047 3.9151C57.3554 4.0271 57.2154 4.17176 57.0847 4.3491C56.9541 4.5171 56.8234 4.70843 56.6927 4.9231L55.9647 4.1951C56.0954 4.0551 56.2307 3.9151 56.3707 3.7751C56.5201 3.6351 56.6974 3.5091 56.9027 3.3971C57.1174 3.2851 57.3694 3.19643 57.6587 3.1311C57.9481 3.05643 58.2981 3.0191 58.7087 3.0191ZM60.3187 7.4011C60.2721 7.2891 60.2021 7.15843 60.1087 7.0091C60.0247 6.85976 59.9127 6.7151 59.7727 6.5751C59.6327 6.4351 59.4647 6.31843 59.2687 6.2251C59.0727 6.12243 58.8394 6.0711 58.5687 6.0711C58.2981 6.0711 58.0507 6.1271 57.8267 6.2391C57.6027 6.34176 57.4114 6.48176 57.2527 6.6591C57.1034 6.8271 56.9867 7.02776 56.9027 7.2611C56.8187 7.49443 56.7767 7.7371 56.7767 7.9891C56.7767 8.28776 56.8281 8.5491 56.9307 8.7731C57.0427 8.98776 57.1827 9.17443 57.3507 9.3331C57.5187 9.48243 57.7054 9.59443 57.9107 9.6691C58.1161 9.74376 58.3121 9.7811 58.4987 9.7811C58.6761 9.7811 58.8534 9.74843 59.0307 9.6831C59.2174 9.61776 59.3901 9.5291 59.5487 9.4171C59.7167 9.29576 59.8661 9.15576 59.9967 8.9971C60.1274 8.83843 60.2347 8.66576 60.3187 8.4791V7.4011ZM70.3378 0.373095H69.1478V10.1731H70.3378V0.373095ZM73 3.1731V7.7231C73 7.8911 73.014 8.12443 73.042 8.4231C73.0793 8.71243 73.1773 9.00176 73.336 9.2911C73.4947 9.5711 73.742 9.81843 74.078 10.0331C74.4233 10.2384 74.904 10.3411 75.52 10.3411C75.7907 10.3504 76.0847 10.2944 76.402 10.1731C76.7287 10.0611 77.0553 9.84176 77.382 9.5151L77.606 9.2911H77.662V10.1731H78.852V3.1731H77.662V7.5131C77.662 7.8771 77.6107 8.18976 77.508 8.4511C77.4053 8.71243 77.27 8.93176 77.102 9.1091C76.934 9.2771 76.738 9.4031 76.514 9.4871C76.29 9.5711 76.0567 9.6131 75.814 9.6131C75.422 9.6131 75.114 9.53843 74.89 9.3891C74.6753 9.23043 74.512 9.04843 74.4 8.8431C74.2973 8.63776 74.2367 8.4371 74.218 8.2411C74.1993 8.03576 74.19 7.88643 74.19 7.7931V3.1731H73ZM83.5988 7.2751L85.7408 10.1731H87.1688L84.3128 6.3371L86.6648 3.1731H85.8528L83.9068 5.7911L81.9888 3.1731H80.5748L83.1928 6.7291L80.5888 10.1731H81.4148L83.5988 7.2751ZM88.8523 3.1731V7.7231C88.8523 7.8911 88.8663 8.12443 88.8943 8.4231C88.9316 8.71243 89.0296 9.00176 89.1883 9.2911C89.3469 9.5711 89.5943 9.81843 89.9303 10.0331C90.2756 10.2384 90.7563 10.3411 91.3723 10.3411C91.6429 10.3504 91.9369 10.2944 92.2543 10.1731C92.5809 10.0611 92.9076 9.84176 93.2343 9.5151L93.4583 9.2911H93.5143V10.1731H94.7043V3.1731H93.5143V7.5131C93.5143 7.8771 93.4629 8.18976 93.3603 8.4511C93.2576 8.71243 93.1223 8.93176 92.9543 9.1091C92.7863 9.2771 92.5903 9.4031 92.3663 9.4871C92.1423 9.5711 91.9089 9.6131 91.6663 9.6131C91.2743 9.6131 90.9663 9.53843 90.7423 9.3891C90.5276 9.23043 90.3643 9.04843 90.2523 8.8431C90.1496 8.63776 90.0889 8.4371 90.0703 8.2411C90.0516 8.03576 90.0423 7.88643 90.0423 7.7931V3.1731H88.8523ZM97.127 3.1731V10.1731H98.317V5.9451C98.317 5.56243 98.359 5.24043 98.443 4.9791C98.5364 4.70843 98.653 4.4891 98.793 4.3211C98.933 4.1531 99.087 4.03176 99.255 3.9571C99.423 3.88243 99.5864 3.8451 99.745 3.8451C99.9597 3.8451 100.156 3.9151 100.333 4.0551C100.52 4.1951 100.655 4.32576 100.739 4.4471L101.215 3.5791C101.131 3.4671 101.028 3.37376 100.907 3.2991C100.795 3.22443 100.678 3.16843 100.557 3.1311C100.445 3.08443 100.338 3.05643 100.235 3.0471C100.142 3.02843 100.072 3.0191 100.025 3.0191C99.633 3.0191 99.3064 3.12643 99.045 3.3411C98.7837 3.55576 98.569 3.8731 98.401 4.2931H98.317V3.1731H97.127ZM103.061 3.1731V10.1731H104.251V3.1731H103.061ZM102.893 0.961095C102.893 1.16643 102.967 1.34376 103.117 1.4931C103.266 1.64243 103.443 1.7171 103.649 1.7171C103.854 1.7171 104.031 1.64243 104.181 1.4931C104.33 1.34376 104.405 1.16643 104.405 0.961095C104.405 0.755762 104.33 0.578429 104.181 0.429095C104.031 0.279762 103.854 0.205096 103.649 0.205096C103.443 0.205096 103.266 0.279762 103.117 0.429095C102.967 0.578429 102.893 0.755762 102.893 0.961095ZM113.891 6.6871C113.891 7.17243 113.807 7.6391 113.639 8.0871C113.471 8.52576 113.229 8.9131 112.911 9.2491C112.603 9.5851 112.225 9.8511 111.777 10.0471C111.339 10.2431 110.844 10.3411 110.293 10.3411C109.733 10.3411 109.225 10.2431 108.767 10.0471C108.319 9.84176 107.937 9.5711 107.619 9.2351C107.311 8.8991 107.069 8.51176 106.891 8.0731C106.723 7.6251 106.639 7.1631 106.639 6.6871C106.639 6.20176 106.723 5.73976 106.891 5.3011C107.069 4.8531 107.311 4.4611 107.619 4.1251C107.937 3.7891 108.319 3.5231 108.767 3.3271C109.225 3.12176 109.733 3.0191 110.293 3.0191C110.844 3.0191 111.339 3.12176 111.777 3.3271C112.225 3.5231 112.603 3.7891 112.911 4.1251C113.229 4.4611 113.471 4.8531 113.639 5.3011C113.807 5.73976 113.891 6.20176 113.891 6.6871ZM112.561 6.6871C112.561 6.03376 112.491 5.50643 112.351 5.1051C112.211 4.69443 112.029 4.3771 111.805 4.1531C111.581 3.9291 111.334 3.77976 111.063 3.7051C110.793 3.6211 110.531 3.5791 110.279 3.5791C110.027 3.5791 109.766 3.6211 109.495 3.7051C109.225 3.77976 108.973 3.9291 108.739 4.1531C108.515 4.3771 108.329 4.69443 108.179 5.1051C108.039 5.50643 107.969 6.03376 107.969 6.6871C107.969 7.3311 108.039 7.85843 108.179 8.2691C108.329 8.67043 108.515 8.9831 108.739 9.2071C108.973 9.4311 109.225 9.5851 109.495 9.6691C109.766 9.74376 110.027 9.7811 110.279 9.7811C110.531 9.7811 110.793 9.74376 111.063 9.6691C111.334 9.5851 111.581 9.4311 111.805 9.2071C112.029 8.9831 112.211 8.67043 112.351 8.2691C112.491 7.85843 112.561 7.3311 112.561 6.6871ZM115.854 3.1731V7.7231C115.854 7.8911 115.868 8.12443 115.896 8.4231C115.933 8.71243 116.031 9.00176 116.19 9.2911C116.348 9.5711 116.596 9.81843 116.932 10.0331C117.277 10.2384 117.758 10.3411 118.374 10.3411C118.644 10.3504 118.938 10.2944 119.256 10.1731C119.582 10.0611 119.909 9.84176 120.236 9.5151L120.46 9.2911H120.516V10.1731H121.706V3.1731H120.516V7.5131C120.516 7.8771 120.464 8.18976 120.362 8.4511C120.259 8.71243 120.124 8.93176 119.956 9.1091C119.788 9.2771 119.592 9.4031 119.368 9.4871C119.144 9.5711 118.91 9.6131 118.668 9.6131C118.276 9.6131 117.968 9.53843 117.744 9.3891C117.529 9.23043 117.366 9.04843 117.254 8.8431C117.151 8.63776 117.09 8.4371 117.072 8.2411C117.053 8.03576 117.044 7.88643 117.044 7.7931V3.1731H115.854ZM128.594 4.7691C128.594 4.5171 128.529 4.28376 128.398 4.0691C128.268 3.85443 128.086 3.67243 127.852 3.5231C127.628 3.36443 127.362 3.2431 127.054 3.1591C126.756 3.06576 126.434 3.0191 126.088 3.0191C125.762 3.0191 125.454 3.0611 125.164 3.1451C124.884 3.2291 124.637 3.3551 124.422 3.5231C124.217 3.6911 124.054 3.9011 123.932 4.1531C123.811 4.39576 123.75 4.68043 123.75 5.0071C123.75 5.4551 123.853 5.80976 124.058 6.0711C124.264 6.33243 124.52 6.54243 124.828 6.7011C125.136 6.85976 125.468 6.99043 125.822 7.0931C126.186 7.18643 126.522 7.29376 126.83 7.4151C127.138 7.5271 127.395 7.67176 127.6 7.8491C127.806 8.02643 127.908 8.2691 127.908 8.5771C127.908 8.70776 127.885 8.8431 127.838 8.9831C127.801 9.1231 127.726 9.25376 127.614 9.3751C127.502 9.4871 127.348 9.5851 127.152 9.6691C126.956 9.74376 126.709 9.7811 126.41 9.7811C126.037 9.7811 125.72 9.7251 125.458 9.6131C125.206 9.49176 124.996 9.35176 124.828 9.1931C124.67 9.0251 124.553 8.8571 124.478 8.6891C124.413 8.5211 124.38 8.3811 124.38 8.2691H123.47C123.47 8.53043 123.531 8.7871 123.652 9.0391C123.774 9.28176 123.956 9.5011 124.198 9.6971C124.45 9.8931 124.754 10.0518 125.108 10.1731C125.472 10.2851 125.892 10.3411 126.368 10.3411C127.227 10.3411 127.871 10.1544 128.3 9.7811C128.739 9.39843 128.958 8.8991 128.958 8.2831C128.958 7.8351 128.851 7.47576 128.636 7.2051C128.431 6.93443 128.17 6.71976 127.852 6.5611C127.535 6.3931 127.19 6.25776 126.816 6.1551C126.452 6.05243 126.112 5.9451 125.794 5.8331C125.477 5.7211 125.211 5.58576 124.996 5.4271C124.791 5.26843 124.688 5.04443 124.688 4.7551C124.688 4.63376 124.712 4.50776 124.758 4.3771C124.805 4.2371 124.884 4.1111 124.996 3.9991C125.108 3.87776 125.258 3.77976 125.444 3.7051C125.631 3.6211 125.864 3.5791 126.144 3.5791C126.424 3.5791 126.667 3.6211 126.872 3.7051C127.078 3.77976 127.25 3.87776 127.39 3.9991C127.53 4.1111 127.633 4.2371 127.698 4.3771C127.764 4.5171 127.796 4.64776 127.796 4.7691H128.594ZM137.5 0.373095H136.31V10.1731H137.5V0.373095ZM140.61 3.1731V10.1731H141.8V3.1731H140.61ZM140.442 0.961095C140.442 1.16643 140.516 1.34376 140.666 1.4931C140.815 1.64243 140.992 1.7171 141.198 1.7171C141.403 1.7171 141.58 1.64243 141.73 1.4931C141.879 1.34376 141.954 1.16643 141.954 0.961095C141.954 0.755762 141.879 0.578429 141.73 0.429095C141.58 0.279762 141.403 0.205096 141.198 0.205096C140.992 0.205096 140.815 0.279762 140.666 0.429095C140.516 0.578429 140.442 0.755762 140.442 0.961095ZM143.908 3.1731V3.7331H145.126V10.1731H146.316V3.7331H148.01V3.1731H146.316V1.99709C146.316 1.8851 146.321 1.75443 146.33 1.6051C146.34 1.44643 146.368 1.30176 146.414 1.1711C146.461 1.0311 146.531 0.914428 146.624 0.821095C146.727 0.727762 146.867 0.681095 147.044 0.681095C147.268 0.681095 147.45 0.774428 147.59 0.961095C147.74 1.14776 147.861 1.3391 147.954 1.5351L148.57 0.877095C148.346 0.653095 148.113 0.485095 147.87 0.373095C147.637 0.261095 147.371 0.205096 147.072 0.205096C146.83 0.205096 146.592 0.247096 146.358 0.331096C146.125 0.415096 145.915 0.545762 145.728 0.723096C145.551 0.891096 145.406 1.11043 145.294 1.3811C145.182 1.65176 145.126 1.9691 145.126 2.3331V3.1731H143.908ZM156.05 6.9811V6.6871C156.05 6.06176 155.962 5.52043 155.784 5.0631C155.607 4.60576 155.364 4.22776 155.056 3.9291C154.758 3.63043 154.408 3.40643 154.006 3.2571C153.605 3.10776 153.18 3.0331 152.732 3.0331C152.256 3.0331 151.818 3.1171 151.416 3.2851C151.015 3.44376 150.665 3.68176 150.366 3.9991C150.068 4.3071 149.834 4.6851 149.666 5.1331C149.498 5.57176 149.414 6.0711 149.414 6.6311C149.414 7.09776 149.484 7.5551 149.624 8.0031C149.774 8.44176 149.993 8.83843 150.282 9.1931C150.581 9.53843 150.954 9.81843 151.402 10.0331C151.86 10.2384 152.396 10.3411 153.012 10.3411C153.61 10.3411 154.16 10.2384 154.664 10.0331C155.168 9.81843 155.607 9.5151 155.98 9.1231L155.532 8.6751C155.336 8.8431 155.15 8.9971 154.972 9.1371C154.804 9.2771 154.632 9.39376 154.454 9.4871C154.277 9.58043 154.09 9.6551 153.894 9.7111C153.708 9.75776 153.498 9.7811 153.264 9.7811C153.003 9.7811 152.723 9.74376 152.424 9.6691C152.135 9.5851 151.864 9.44043 151.612 9.2351C151.36 9.02976 151.15 8.7451 150.982 8.3811C150.814 8.0171 150.73 7.55043 150.73 6.9811H156.05ZM150.73 6.4211C150.73 6.04776 150.768 5.68843 150.842 5.3431C150.926 4.98843 151.048 4.67576 151.206 4.4051C151.374 4.13443 151.584 3.91976 151.836 3.7611C152.088 3.5931 152.387 3.5091 152.732 3.5091C153.395 3.5091 153.908 3.77043 154.272 4.2931C154.646 4.80643 154.832 5.51576 154.832 6.4211H150.73ZM162.479 4.7691C162.479 4.5171 162.414 4.28376 162.283 4.0691C162.153 3.85443 161.971 3.67243 161.737 3.5231C161.513 3.36443 161.247 3.2431 160.939 3.1591C160.641 3.06576 160.319 3.0191 159.973 3.0191C159.647 3.0191 159.339 3.0611 159.049 3.1451C158.769 3.2291 158.522 3.3551 158.307 3.5231C158.102 3.6911 157.939 3.9011 157.817 4.1531C157.696 4.39576 157.635 4.68043 157.635 5.0071C157.635 5.4551 157.738 5.80976 157.943 6.0711C158.149 6.33243 158.405 6.54243 158.713 6.7011C159.021 6.85976 159.353 6.99043 159.707 7.0931C160.071 7.18643 160.407 7.29376 160.715 7.4151C161.023 7.5271 161.28 7.67176 161.485 7.8491C161.691 8.02643 161.793 8.2691 161.793 8.5771C161.793 8.70776 161.77 8.8431 161.723 8.9831C161.686 9.1231 161.611 9.25376 161.499 9.3751C161.387 9.4871 161.233 9.5851 161.037 9.6691C160.841 9.74376 160.594 9.7811 160.295 9.7811C159.922 9.7811 159.605 9.7251 159.343 9.6131C159.091 9.49176 158.881 9.35176 158.713 9.1931C158.555 9.0251 158.438 8.8571 158.363 8.6891C158.298 8.5211 158.265 8.3811 158.265 8.2691H157.355C157.355 8.53043 157.416 8.7871 157.537 9.0391C157.659 9.28176 157.841 9.5011 158.083 9.6971C158.335 9.8931 158.639 10.0518 158.993 10.1731C159.357 10.2851 159.777 10.3411 160.253 10.3411C161.112 10.3411 161.756 10.1544 162.185 9.7811C162.624 9.39843 162.843 8.8991 162.843 8.2831C162.843 7.8351 162.736 7.47576 162.521 7.2051C162.316 6.93443 162.055 6.71976 161.737 6.5611C161.42 6.3931 161.075 6.25776 160.701 6.1551C160.337 6.05243 159.997 5.9451 159.679 5.8331C159.362 5.7211 159.096 5.58576 158.881 5.4271C158.676 5.26843 158.573 5.04443 158.573 4.7551C158.573 4.63376 158.597 4.50776 158.643 4.3771C158.69 4.2371 158.769 4.1111 158.881 3.9991C158.993 3.87776 159.143 3.77976 159.329 3.7051C159.516 3.6211 159.749 3.5791 160.029 3.5791C160.309 3.5791 160.552 3.6211 160.757 3.7051C160.963 3.77976 161.135 3.87776 161.275 3.9991C161.415 4.1111 161.518 4.2371 161.583 4.3771C161.649 4.5171 161.681 4.64776 161.681 4.7691H162.479ZM164.18 3.7331V3.1731H165.398V1.0171H166.588V3.1731H168.282V3.7331H166.588V8.3811C166.588 8.4931 166.593 8.62376 166.602 8.7731C166.611 8.9131 166.639 9.04843 166.686 9.1791C166.733 9.30043 166.803 9.4031 166.896 9.4871C166.999 9.5711 167.139 9.6131 167.316 9.6131C167.54 9.6131 167.727 9.5291 167.876 9.3611C168.025 9.1931 168.147 9.0111 168.24 8.8151L168.898 9.4871C168.441 9.94443 167.923 10.1731 167.344 10.1731C167.101 10.1731 166.863 10.1311 166.63 10.0471C166.397 9.9631 166.187 9.8371 166 9.6691C165.823 9.49176 165.678 9.26776 165.566 8.9971C165.454 8.72643 165.398 8.4091 165.398 8.0451V3.7331H164.18ZM172.986 8.5351L170.564 3.1731H169.29L172.426 10.0891L171.684 11.9091C171.6 12.1238 171.488 12.2964 171.348 12.4271C171.217 12.5578 171.063 12.6231 170.886 12.6231C170.718 12.6231 170.555 12.5718 170.396 12.4691C170.247 12.3758 170.13 12.2358 170.046 12.0491L169.43 13.2111C169.607 13.3698 169.803 13.4864 170.018 13.5611C170.233 13.6358 170.433 13.6731 170.62 13.6731C170.881 13.6731 171.11 13.6078 171.306 13.4771C171.502 13.3464 171.675 13.1738 171.824 12.9591C171.973 12.7538 172.104 12.5204 172.216 12.2591C172.328 12.0071 172.435 11.7551 172.538 11.5031L175.926 3.1731H175.24L173.042 8.5351H172.986ZM178.935 0.373095H177.745V10.1731H178.935V0.373095ZM187.813 6.9811V6.6871C187.813 6.06176 187.724 5.52043 187.547 5.0631C187.369 4.60576 187.127 4.22776 186.819 3.9291C186.52 3.63043 186.17 3.40643 185.769 3.2571C185.367 3.10776 184.943 3.0331 184.495 3.0331C184.019 3.0331 183.58 3.1171 183.179 3.2851C182.777 3.44376 182.427 3.68176 182.129 3.9991C181.83 4.3071 181.597 4.6851 181.429 5.1331C181.261 5.57176 181.177 6.0711 181.177 6.6311C181.177 7.09776 181.247 7.5551 181.387 8.0031C181.536 8.44176 181.755 8.83843 182.045 9.1931C182.343 9.53843 182.717 9.81843 183.165 10.0331C183.622 10.2384 184.159 10.3411 184.775 10.3411C185.372 10.3411 185.923 10.2384 186.427 10.0331C186.931 9.81843 187.369 9.5151 187.743 9.1231L187.295 8.6751C187.099 8.8431 186.912 8.9971 186.735 9.1371C186.567 9.2771 186.394 9.39376 186.217 9.4871C186.039 9.58043 185.853 9.6551 185.657 9.7111C185.47 9.75776 185.26 9.7811 185.027 9.7811C184.765 9.7811 184.485 9.74376 184.187 9.6691C183.897 9.5851 183.627 9.44043 183.375 9.2351C183.123 9.02976 182.913 8.7451 182.745 8.3811C182.577 8.0171 182.493 7.55043 182.493 6.9811H187.813ZM182.493 6.4211C182.493 6.04776 182.53 5.68843 182.605 5.3431C182.689 4.98843 182.81 4.67576 182.969 4.4051C183.137 4.13443 183.347 3.91976 183.599 3.7611C183.851 3.5931 184.149 3.5091 184.495 3.5091C185.157 3.5091 185.671 3.77043 186.035 4.2931C186.408 4.80643 186.595 5.51576 186.595 6.4211H182.493ZM197.386 3.0191C198.068 3.0191 198.595 3.1171 198.968 3.3131C199.342 3.49976 199.612 3.7471 199.78 4.0551C199.958 4.3631 200.06 4.71776 200.088 5.1191C200.116 5.52043 200.13 5.9311 200.13 6.3511V10.1731H198.996V9.4871C198.726 9.74843 198.38 9.95843 197.96 10.1171C197.54 10.2664 197.12 10.3411 196.7 10.3411C196.299 10.3411 195.944 10.2711 195.636 10.1311C195.328 9.9911 195.072 9.8091 194.866 9.5851C194.661 9.3611 194.507 9.1091 194.404 8.8291C194.302 8.5491 194.25 8.26443 194.25 7.9751C194.25 7.67643 194.306 7.37776 194.418 7.0791C194.53 6.78043 194.698 6.51443 194.922 6.2811C195.146 6.03843 195.422 5.84243 195.748 5.6931C196.075 5.54376 196.448 5.4691 196.868 5.4691C197.288 5.4691 197.685 5.5531 198.058 5.7211C198.441 5.87976 198.754 6.10843 198.996 6.4071V5.8051C198.996 5.03976 198.88 4.47043 198.646 4.0971C198.422 3.72376 198.007 3.5371 197.4 3.5371C197.139 3.5371 196.91 3.56976 196.714 3.6351C196.518 3.70043 196.341 3.79376 196.182 3.9151C196.033 4.0271 195.893 4.17176 195.762 4.3491C195.632 4.5171 195.501 4.70843 195.37 4.9231L194.642 4.1951C194.773 4.0551 194.908 3.9151 195.048 3.7751C195.198 3.6351 195.375 3.5091 195.58 3.3971C195.795 3.2851 196.047 3.19643 196.336 3.1311C196.626 3.05643 196.976 3.0191 197.386 3.0191ZM198.996 7.4011C198.95 7.2891 198.88 7.15843 198.786 7.0091C198.702 6.85976 198.59 6.7151 198.45 6.5751C198.31 6.4351 198.142 6.31843 197.946 6.2251C197.75 6.12243 197.517 6.0711 197.246 6.0711C196.976 6.0711 196.728 6.1271 196.504 6.2391C196.28 6.34176 196.089 6.48176 195.93 6.6591C195.781 6.8271 195.664 7.02776 195.58 7.2611C195.496 7.49443 195.454 7.7371 195.454 7.9891C195.454 8.28776 195.506 8.5491 195.608 8.7731C195.72 8.98776 195.86 9.17443 196.028 9.3331C196.196 9.48243 196.383 9.59443 196.588 9.6691C196.794 9.74376 196.99 9.7811 197.176 9.7811C197.354 9.7811 197.531 9.74843 197.708 9.6831C197.895 9.61776 198.068 9.5291 198.226 9.4171C198.394 9.29576 198.544 9.15576 198.674 8.9971C198.805 8.83843 198.912 8.66576 198.996 8.4791V7.4011ZM206.025 9.6131C205.689 9.6131 205.362 9.56176 205.045 9.4591C204.737 9.35643 204.462 9.1931 204.219 8.9691C203.976 8.73576 203.78 8.43243 203.631 8.0591C203.491 7.67643 203.421 7.20976 203.421 6.6591C203.421 6.08976 203.5 5.6091 203.659 5.2171C203.818 4.81576 204.014 4.49843 204.247 4.2651C204.49 4.02243 204.756 3.84976 205.045 3.7471C205.334 3.6351 205.61 3.5791 205.871 3.5791C206.3 3.5791 206.674 3.6911 206.991 3.9151C207.308 4.1391 207.518 4.41443 207.621 4.7411H208.587C208.494 4.4051 208.344 4.12976 208.139 3.9151C207.934 3.6911 207.696 3.51376 207.425 3.3831C207.164 3.2431 206.879 3.14976 206.571 3.1031C206.272 3.0471 205.983 3.0191 205.703 3.0191C205.115 3.0191 204.597 3.1171 204.149 3.3131C203.701 3.49976 203.323 3.75643 203.015 4.0831C202.707 4.40976 202.474 4.79243 202.315 5.2311C202.166 5.66976 202.091 6.13643 202.091 6.6311C202.091 7.15376 202.175 7.64376 202.343 8.1011C202.511 8.5491 202.749 8.9411 203.057 9.2771C203.374 9.60376 203.752 9.8651 204.191 10.0611C204.63 10.2478 205.124 10.3411 205.675 10.3411C206.291 10.3411 206.828 10.2384 207.285 10.0331C207.752 9.82776 208.144 9.60376 208.461 9.3611L208.055 8.8291C207.728 9.09976 207.402 9.30043 207.075 9.4311C206.758 9.55243 206.408 9.6131 206.025 9.6131ZM213.78 9.6131C213.444 9.6131 213.118 9.56176 212.8 9.4591C212.492 9.35643 212.217 9.1931 211.974 8.9691C211.732 8.73576 211.536 8.43243 211.386 8.0591C211.246 7.67643 211.176 7.20976 211.176 6.6591C211.176 6.08976 211.256 5.6091 211.414 5.2171C211.573 4.81576 211.769 4.49843 212.002 4.2651C212.245 4.02243 212.511 3.84976 212.8 3.7471C213.09 3.6351 213.365 3.5791 213.626 3.5791C214.056 3.5791 214.429 3.6911 214.746 3.9151C215.064 4.1391 215.274 4.41443 215.376 4.7411H216.342C216.249 4.4051 216.1 4.12976 215.894 3.9151C215.689 3.6911 215.451 3.51376 215.18 3.3831C214.919 3.2431 214.634 3.14976 214.326 3.1031C214.028 3.0471 213.738 3.0191 213.458 3.0191C212.87 3.0191 212.352 3.1171 211.904 3.3131C211.456 3.49976 211.078 3.75643 210.77 4.0831C210.462 4.40976 210.229 4.79243 210.07 5.2311C209.921 5.66976 209.846 6.13643 209.846 6.6311C209.846 7.15376 209.93 7.64376 210.098 8.1011C210.266 8.5491 210.504 8.9411 210.812 9.2771C211.13 9.60376 211.508 9.8651 211.946 10.0611C212.385 10.2478 212.88 10.3411 213.43 10.3411C214.046 10.3411 214.583 10.2384 215.04 10.0331C215.507 9.82776 215.899 9.60376 216.216 9.3611L215.81 8.8291C215.484 9.09976 215.157 9.30043 214.83 9.4311C214.513 9.55243 214.163 9.6131 213.78 9.6131ZM224.237 6.9811V6.6871C224.237 6.06176 224.149 5.52043 223.971 5.0631C223.794 4.60576 223.551 4.22776 223.243 3.9291C222.945 3.63043 222.595 3.40643 222.193 3.2571C221.792 3.10776 221.367 3.0331 220.919 3.0331C220.443 3.0331 220.005 3.1171 219.603 3.2851C219.202 3.44376 218.852 3.68176 218.553 3.9991C218.255 4.3071 218.021 4.6851 217.853 5.1331C217.685 5.57176 217.601 6.0711 217.601 6.6311C217.601 7.09776 217.671 7.5551 217.811 8.0031C217.961 8.44176 218.18 8.83843 218.469 9.1931C218.768 9.53843 219.141 9.81843 219.589 10.0331C220.047 10.2384 220.583 10.3411 221.199 10.3411C221.797 10.3411 222.347 10.2384 222.851 10.0331C223.355 9.81843 223.794 9.5151 224.167 9.1231L223.719 8.6751C223.523 8.8431 223.337 8.9971 223.159 9.1371C222.991 9.2771 222.819 9.39376 222.641 9.4871C222.464 9.58043 222.277 9.6551 222.081 9.7111C221.895 9.75776 221.685 9.7811 221.451 9.7811C221.19 9.7811 220.91 9.74376 220.611 9.6691C220.322 9.5851 220.051 9.44043 219.799 9.2351C219.547 9.02976 219.337 8.7451 219.169 8.3811C219.001 8.0171 218.917 7.55043 218.917 6.9811H224.237ZM218.917 6.4211C218.917 6.04776 218.955 5.68843 219.029 5.3431C219.113 4.98843 219.235 4.67576 219.393 4.4051C219.561 4.13443 219.771 3.91976 220.023 3.7611C220.275 3.5931 220.574 3.5091 220.919 3.5091C221.582 3.5091 222.095 3.77043 222.459 4.2931C222.833 4.80643 223.019 5.51576 223.019 6.4211H218.917ZM230.666 4.7691C230.666 4.5171 230.601 4.28376 230.47 4.0691C230.34 3.85443 230.158 3.67243 229.924 3.5231C229.7 3.36443 229.434 3.2431 229.126 3.1591C228.828 3.06576 228.506 3.0191 228.16 3.0191C227.834 3.0191 227.526 3.0611 227.236 3.1451C226.956 3.2291 226.709 3.3551 226.494 3.5231C226.289 3.6911 226.126 3.9011 226.004 4.1531C225.883 4.39576 225.822 4.68043 225.822 5.0071C225.822 5.4551 225.925 5.80976 226.13 6.0711C226.336 6.33243 226.592 6.54243 226.9 6.7011C227.208 6.85976 227.54 6.99043 227.894 7.0931C228.258 7.18643 228.594 7.29376 228.902 7.4151C229.21 7.5271 229.467 7.67176 229.672 7.8491C229.878 8.02643 229.98 8.2691 229.98 8.5771C229.98 8.70776 229.957 8.8431 229.91 8.9831C229.873 9.1231 229.798 9.25376 229.686 9.3751C229.574 9.4871 229.42 9.5851 229.224 9.6691C229.028 9.74376 228.781 9.7811 228.482 9.7811C228.109 9.7811 227.792 9.7251 227.53 9.6131C227.278 9.49176 227.068 9.35176 226.9 9.1931C226.742 9.0251 226.625 8.8571 226.55 8.6891C226.485 8.5211 226.452 8.3811 226.452 8.2691H225.542C225.542 8.53043 225.603 8.7871 225.724 9.0391C225.846 9.28176 226.028 9.5011 226.27 9.6971C226.522 9.8931 226.826 10.0518 227.18 10.1731C227.544 10.2851 227.964 10.3411 228.44 10.3411C229.299 10.3411 229.943 10.1544 230.372 9.7811C230.811 9.39843 231.03 8.8991 231.03 8.2831C231.03 7.8351 230.923 7.47576 230.708 7.2051C230.503 6.93443 230.242 6.71976 229.924 6.5611C229.607 6.3931 229.262 6.25776 228.888 6.1551C228.524 6.05243 228.184 5.9451 227.866 5.8331C227.549 5.7211 227.283 5.58576 227.068 5.4271C226.863 5.26843 226.76 5.04443 226.76 4.7551C226.76 4.63376 226.784 4.50776 226.83 4.3771C226.877 4.2371 226.956 4.1111 227.068 3.9991C227.18 3.87776 227.33 3.77976 227.516 3.7051C227.703 3.6211 227.936 3.5791 228.216 3.5791C228.496 3.5791 228.739 3.6211 228.944 3.7051C229.15 3.77976 229.322 3.87776 229.462 3.9991C229.602 4.1111 229.705 4.2371 229.77 4.3771C229.836 4.5171 229.868 4.64776 229.868 4.7691H230.666ZM237.533 4.7691C237.533 4.5171 237.468 4.28376 237.337 4.0691C237.206 3.85443 237.024 3.67243 236.791 3.5231C236.567 3.36443 236.301 3.2431 235.993 3.1591C235.694 3.06576 235.372 3.0191 235.027 3.0191C234.7 3.0191 234.392 3.0611 234.103 3.1451C233.823 3.2291 233.576 3.3551 233.361 3.5231C233.156 3.6911 232.992 3.9011 232.871 4.1531C232.75 4.39576 232.689 4.68043 232.689 5.0071C232.689 5.4551 232.792 5.80976 232.997 6.0711C233.202 6.33243 233.459 6.54243 233.767 6.7011C234.075 6.85976 234.406 6.99043 234.761 7.0931C235.125 7.18643 235.461 7.29376 235.769 7.4151C236.077 7.5271 236.334 7.67176 236.539 7.8491C236.744 8.02643 236.847 8.2691 236.847 8.5771C236.847 8.70776 236.824 8.8431 236.777 8.9831C236.74 9.1231 236.665 9.25376 236.553 9.3751C236.441 9.4871 236.287 9.5851 236.091 9.6691C235.895 9.74376 235.648 9.7811 235.349 9.7811C234.976 9.7811 234.658 9.7251 234.397 9.6131C234.145 9.49176 233.935 9.35176 233.767 9.1931C233.608 9.0251 233.492 8.8571 233.417 8.6891C233.352 8.5211 233.319 8.3811 233.319 8.2691H232.409C232.409 8.53043 232.47 8.7871 232.591 9.0391C232.712 9.28176 232.894 9.5011 233.137 9.6971C233.389 9.8931 233.692 10.0518 234.047 10.1731C234.411 10.2851 234.831 10.3411 235.307 10.3411C236.166 10.3411 236.81 10.1544 237.239 9.7811C237.678 9.39843 237.897 8.8991 237.897 8.2831C237.897 7.8351 237.79 7.47576 237.575 7.2051C237.37 6.93443 237.108 6.71976 236.791 6.5611C236.474 6.3931 236.128 6.25776 235.755 6.1551C235.391 6.05243 235.05 5.9451 234.733 5.8331C234.416 5.7211 234.15 5.58576 233.935 5.4271C233.73 5.26843 233.627 5.04443 233.627 4.7551C233.627 4.63376 233.65 4.50776 233.697 4.3771C233.744 4.2371 233.823 4.1111 233.935 3.9991C234.047 3.87776 234.196 3.77976 234.383 3.7051C234.57 3.6211 234.803 3.5791 235.083 3.5791C235.363 3.5791 235.606 3.6211 235.811 3.7051C236.016 3.77976 236.189 3.87776 236.329 3.9991C236.469 4.1111 236.572 4.2371 236.637 4.3771C236.702 4.5171 236.735 4.64776 236.735 4.7691H237.533ZM240.382 3.1731V10.1731H241.572V3.1731H240.382ZM240.214 0.961095C240.214 1.16643 240.288 1.34376 240.438 1.4931C240.587 1.64243 240.764 1.7171 240.97 1.7171C241.175 1.7171 241.352 1.64243 241.502 1.4931C241.651 1.34376 241.726 1.16643 241.726 0.961095C241.726 0.755762 241.651 0.578429 241.502 0.429095C241.352 0.279762 241.175 0.205096 240.97 0.205096C240.764 0.205096 240.587 0.279762 240.438 0.429095C240.288 0.578429 240.214 0.755762 240.214 0.961095ZM244.38 0.373095H245.57V4.3211H245.626C245.72 4.07843 245.841 3.87776 245.99 3.7191C246.149 3.5511 246.326 3.41576 246.522 3.3131C246.718 3.21043 246.924 3.13576 247.138 3.0891C247.362 3.04243 247.586 3.0191 247.81 3.0191C248.277 3.0191 248.706 3.10776 249.098 3.2851C249.49 3.4531 249.826 3.69576 250.106 4.0131C250.396 4.33043 250.62 4.7131 250.778 5.1611C250.937 5.6091 251.016 6.10843 251.016 6.6591C251.016 7.2191 250.937 7.72776 250.778 8.1851C250.62 8.6331 250.396 9.02043 250.106 9.3471C249.826 9.66443 249.49 9.91176 249.098 10.0891C248.706 10.2571 248.277 10.3411 247.81 10.3411C246.7 10.3411 245.972 9.9071 245.626 9.0391H245.57V10.1731H244.38V0.373095ZM245.57 7.3731C245.57 7.6811 245.617 7.9751 245.71 8.2551C245.813 8.52576 245.953 8.76376 246.13 8.9691C246.308 9.1651 246.513 9.32376 246.746 9.4451C246.989 9.5571 247.246 9.6131 247.516 9.6131C247.806 9.6131 248.081 9.56176 248.342 9.4591C248.613 9.3471 248.846 9.17443 249.042 8.9411C249.238 8.70776 249.392 8.40443 249.504 8.0311C249.626 7.65776 249.686 7.20976 249.686 6.6871C249.686 6.1551 249.626 5.70243 249.504 5.3291C249.392 4.95576 249.234 4.65243 249.028 4.4191C248.832 4.17643 248.604 4.00376 248.342 3.9011C248.081 3.7891 247.806 3.7331 247.516 3.7331C247.255 3.7331 247.008 3.7891 246.774 3.9011C246.541 4.00376 246.336 4.16243 246.158 4.3771C245.981 4.58243 245.836 4.83443 245.724 5.1331C245.622 5.43176 245.57 5.77243 245.57 6.1551V7.3731ZM254.439 0.373095H253.249V10.1731H254.439V0.373095ZM263.318 6.9811V6.6871C263.318 6.06176 263.229 5.52043 263.052 5.0631C262.874 4.60576 262.632 4.22776 262.324 3.9291C262.025 3.63043 261.675 3.40643 261.274 3.2571C260.872 3.10776 260.448 3.0331 260 3.0331C259.524 3.0331 259.085 3.1171 258.684 3.2851C258.282 3.44376 257.932 3.68176 257.634 3.9991C257.335 4.3071 257.102 4.6851 256.934 5.1331C256.766 5.57176 256.682 6.0711 256.682 6.6311C256.682 7.09776 256.752 7.5551 256.892 8.0031C257.041 8.44176 257.26 8.83843 257.55 9.1931C257.848 9.53843 258.222 9.81843 258.67 10.0331C259.127 10.2384 259.664 10.3411 260.28 10.3411C260.877 10.3411 261.428 10.2384 261.932 10.0331C262.436 9.81843 262.874 9.5151 263.248 9.1231L262.8 8.6751C262.604 8.8431 262.417 8.9971 262.24 9.1371C262.072 9.2771 261.899 9.39376 261.722 9.4871C261.544 9.58043 261.358 9.6551 261.162 9.7111C260.975 9.75776 260.765 9.7811 260.532 9.7811C260.27 9.7811 259.99 9.74376 259.692 9.6691C259.402 9.5851 259.132 9.44043 258.88 9.2351C258.628 9.02976 258.418 8.7451 258.25 8.3811C258.082 8.0171 257.998 7.55043 257.998 6.9811H263.318ZM257.998 6.4211C257.998 6.04776 258.035 5.68843 258.11 5.3431C258.194 4.98843 258.315 4.67576 258.474 4.4051C258.642 4.13443 258.852 3.91976 259.104 3.7611C259.356 3.5931 259.654 3.5091 260 3.5091C260.662 3.5091 261.176 3.77043 261.54 4.2931C261.913 4.80643 262.1 5.51576 262.1 6.4211H257.998ZM1.58852 23.1731V23.7331H2.80652V30.1731H3.99652V23.7331H5.69052V23.1731H3.99652V21.9971C3.99652 21.8851 4.00118 21.7544 4.01052 21.6051C4.01985 21.4464 4.04785 21.3018 4.09452 21.1711C4.14118 21.0311 4.21118 20.9144 4.30452 20.8211C4.40718 20.7278 4.54718 20.6811 4.72452 20.6811C4.94852 20.6811 5.13052 20.7744 5.27052 20.9611C5.41985 21.1478 5.54118 21.3391 5.63452 21.5351L6.25052 20.8771C6.02652 20.6531 5.79318 20.4851 5.55052 20.3731C5.31719 20.2611 5.05118 20.2051 4.75252 20.2051C4.50985 20.2051 4.27185 20.2471 4.03852 20.3311C3.80518 20.4151 3.59518 20.5458 3.40852 20.7231C3.23118 20.8911 3.08652 21.1104 2.97452 21.3811C2.86252 21.6518 2.80652 21.9691 2.80652 22.3331V23.1731H1.58852ZM14.3465 26.6871C14.3465 27.1724 14.2625 27.6391 14.0945 28.0871C13.9265 28.5258 13.6838 28.9131 13.3665 29.2491C13.0585 29.5851 12.6805 29.8511 12.2325 30.0471C11.7938 30.2431 11.2991 30.3411 10.7485 30.3411C10.1885 30.3411 9.67979 30.2431 9.22246 30.0471C8.77446 29.8418 8.39179 29.5711 8.07446 29.2351C7.76646 28.8991 7.52379 28.5118 7.34646 28.0731C7.17845 27.6251 7.09445 27.1631 7.09445 26.6871C7.09445 26.2018 7.17845 25.7398 7.34646 25.3011C7.52379 24.8531 7.76646 24.4611 8.07446 24.1251C8.39179 23.7891 8.77446 23.5231 9.22246 23.3271C9.67979 23.1218 10.1885 23.0191 10.7485 23.0191C11.2991 23.0191 11.7938 23.1218 12.2325 23.3271C12.6805 23.5231 13.0585 23.7891 13.3665 24.1251C13.6838 24.4611 13.9265 24.8531 14.0945 25.3011C14.2625 25.7398 14.3465 26.2018 14.3465 26.6871ZM13.0165 26.6871C13.0165 26.0338 12.9465 25.5064 12.8065 25.1051C12.6665 24.6944 12.4845 24.3771 12.2605 24.1531C12.0365 23.9291 11.7891 23.7798 11.5185 23.7051C11.2478 23.6211 10.9865 23.5791 10.7345 23.5791C10.4825 23.5791 10.2211 23.6211 9.95046 23.7051C9.67979 23.7798 9.42779 23.9291 9.19445 24.1531C8.97046 24.3771 8.78379 24.6944 8.63446 25.1051C8.49446 25.5064 8.42446 26.0338 8.42446 26.6871C8.42446 27.3311 8.49446 27.8584 8.63446 28.2691C8.78379 28.6704 8.97046 28.9831 9.19445 29.2071C9.42779 29.4311 9.67979 29.5851 9.95046 29.6691C10.2211 29.7438 10.4825 29.7811 10.7345 29.7811C10.9865 29.7811 11.2478 29.7438 11.5185 29.6691C11.7891 29.5851 12.0365 29.4311 12.2605 29.2071C12.4845 28.9831 12.6665 28.6704 12.8065 28.2691C12.9465 27.8584 13.0165 27.3311 13.0165 26.6871ZM16.3088 23.1731V30.1731H17.4988V25.9451C17.4988 25.5624 17.5408 25.2404 17.6248 24.9791C17.7181 24.7084 17.8348 24.4891 17.9748 24.3211C18.1148 24.1531 18.2688 24.0318 18.4368 23.9571C18.6048 23.8824 18.7681 23.8451 18.9268 23.8451C19.1414 23.8451 19.3374 23.9151 19.5148 24.0551C19.7014 24.1951 19.8368 24.3258 19.9208 24.4471L20.3968 23.5791C20.3128 23.4671 20.2101 23.3738 20.0888 23.2991C19.9768 23.2244 19.8601 23.1684 19.7388 23.1311C19.6268 23.0844 19.5194 23.0564 19.4168 23.0471C19.3234 23.0284 19.2534 23.0191 19.2068 23.0191C18.8148 23.0191 18.4881 23.1264 18.2268 23.3411C17.9654 23.5558 17.7508 23.8731 17.5828 24.2931H17.4988V23.1731H16.3088ZM29.405 23.0191C30.0863 23.0191 30.6137 23.1171 30.987 23.3131C31.3603 23.4998 31.631 23.7471 31.799 24.0551C31.9763 24.3631 32.079 24.7178 32.107 25.1191C32.135 25.5204 32.149 25.9311 32.149 26.3511V30.1731H31.015V29.4871C30.7443 29.7484 30.399 29.9584 29.979 30.1171C29.559 30.2664 29.139 30.3411 28.719 30.3411C28.3177 30.3411 27.963 30.2711 27.655 30.1311C27.347 29.9911 27.0903 29.8091 26.885 29.5851C26.6797 29.3611 26.5257 29.1091 26.423 28.8291C26.3203 28.5491 26.269 28.2644 26.269 27.9751C26.269 27.6764 26.325 27.3778 26.437 27.0791C26.549 26.7804 26.717 26.5144 26.941 26.2811C27.165 26.0384 27.4403 25.8424 27.767 25.6931C28.0937 25.5438 28.467 25.4691 28.887 25.4691C29.307 25.4691 29.7037 25.5531 30.077 25.7211C30.4597 25.8798 30.7723 26.1084 31.015 26.4071V25.8051C31.015 25.0398 30.8983 24.4704 30.665 24.0971C30.441 23.7238 30.0257 23.5371 29.419 23.5371C29.1577 23.5371 28.929 23.5698 28.733 23.6351C28.537 23.7004 28.3597 23.7938 28.201 23.9151C28.0517 24.0271 27.9117 24.1718 27.781 24.3491C27.6503 24.5171 27.5197 24.7084 27.389 24.9231L26.661 24.1951C26.7917 24.0551 26.927 23.9151 27.067 23.7751C27.2163 23.6351 27.3937 23.5091 27.599 23.3971C27.8137 23.2851 28.0657 23.1964 28.355 23.1311C28.6443 23.0564 28.9943 23.0191 29.405 23.0191ZM31.015 27.4011C30.9683 27.2891 30.8983 27.1584 30.805 27.0091C30.721 26.8598 30.609 26.7151 30.469 26.5751C30.329 26.4351 30.161 26.3184 29.965 26.2251C29.769 26.1224 29.5357 26.0711 29.265 26.0711C28.9943 26.0711 28.747 26.1271 28.523 26.2391C28.299 26.3418 28.1077 26.4818 27.949 26.6591C27.7997 26.8271 27.683 27.0278 27.599 27.2611C27.515 27.4944 27.473 27.7371 27.473 27.9891C27.473 28.2878 27.5243 28.5491 27.627 28.7731C27.739 28.9878 27.879 29.1744 28.047 29.3331C28.215 29.4824 28.4017 29.5944 28.607 29.6691C28.8123 29.7438 29.0083 29.7811 29.195 29.7811C29.3723 29.7811 29.5497 29.7484 29.727 29.6831C29.9137 29.6178 30.0863 29.5291 30.245 29.4171C30.413 29.2958 30.5623 29.1558 30.693 28.9971C30.8237 28.8384 30.931 28.6658 31.015 28.4791V27.4011ZM44.5621 30.7611C44.5621 31.1904 44.5107 31.5544 44.4081 31.8531C44.3054 32.1518 44.1607 32.3944 43.9741 32.5811C43.7967 32.7678 43.5821 32.9031 43.3301 32.9871C43.0874 33.0711 42.8261 33.1131 42.5461 33.1131C42.0514 33.1131 41.6501 32.9871 41.3421 32.7351C41.0434 32.4831 40.7681 32.1471 40.5161 31.7271L39.7461 32.4271C39.8114 32.5111 39.9141 32.6184 40.0541 32.7491C40.1941 32.8891 40.3714 33.0244 40.5861 33.1551C40.8007 33.2951 41.0574 33.4118 41.3561 33.5051C41.6547 33.6078 41.9954 33.6591 42.3781 33.6591C43.0874 33.6591 43.6614 33.5564 44.1001 33.3511C44.5387 33.1551 44.8794 32.8891 45.1221 32.5531C45.3647 32.2171 45.5281 31.8298 45.6121 31.3911C45.7054 30.9618 45.7521 30.5138 45.7521 30.0471V23.1731H44.5621V24.2651H44.5061C44.3941 23.8731 44.1514 23.5698 43.7781 23.3551C43.4141 23.1311 42.9334 23.0191 42.3361 23.0191C41.8601 23.0191 41.4261 23.1078 41.0341 23.2851C40.6421 23.4531 40.3061 23.6958 40.0261 24.0131C39.7461 24.3304 39.5267 24.7131 39.3681 25.1611C39.2187 25.6091 39.1441 26.1084 39.1441 26.6591C39.1441 27.2191 39.2187 27.7278 39.3681 28.1851C39.5267 28.6331 39.7461 29.0204 40.0261 29.3471C40.3061 29.6644 40.6374 29.9118 41.0201 30.0891C41.4121 30.2571 41.8461 30.3411 42.3221 30.3411C42.8447 30.3411 43.2974 30.2384 43.6801 30.0331C44.0721 29.8278 44.3474 29.5011 44.5061 29.0531H44.5621V30.7611ZM44.5621 27.1911C44.5621 27.5831 44.5061 27.9284 44.3941 28.2271C44.2914 28.5258 44.1514 28.7778 43.9741 28.9831C43.7967 29.1884 43.5914 29.3471 43.3581 29.4591C43.1247 29.5618 42.8821 29.6131 42.6301 29.6131C42.4061 29.6131 42.1634 29.5758 41.9021 29.5011C41.6501 29.4171 41.4121 29.2678 41.1881 29.0531C40.9734 28.8384 40.7914 28.5351 40.6421 28.1431C40.5021 27.7511 40.4321 27.2471 40.4321 26.6311C40.4321 25.9778 40.5207 25.4598 40.6981 25.0771C40.8754 24.6851 41.0807 24.3864 41.3141 24.1811C41.5567 23.9758 41.7994 23.8451 42.0421 23.7891C42.2941 23.7238 42.4901 23.6911 42.6301 23.6911C42.9381 23.6911 43.2134 23.7611 43.4561 23.9011C43.6987 24.0318 43.8994 24.2138 44.0581 24.4471C44.2261 24.6711 44.3521 24.9324 44.4361 25.2311C44.5201 25.5298 44.5621 25.8378 44.5621 26.1551V27.1911ZM54.3419 26.9811V26.6871C54.3419 26.0618 54.2533 25.5204 54.0759 25.0631C53.8986 24.6058 53.6559 24.2278 53.3479 23.9291C53.0493 23.6304 52.6993 23.4064 52.2979 23.2571C51.8966 23.1078 51.4719 23.0331 51.0239 23.0331C50.5479 23.0331 50.1093 23.1171 49.7079 23.2851C49.3066 23.4438 48.9566 23.6818 48.6579 23.9991C48.3593 24.3071 48.1259 24.6851 47.9579 25.1331C47.7899 25.5718 47.7059 26.0711 47.7059 26.6311C47.7059 27.0978 47.7759 27.5551 47.9159 28.0031C48.0653 28.4418 48.2846 28.8384 48.5739 29.1931C48.8726 29.5384 49.2459 29.8184 49.6939 30.0331C50.1513 30.2384 50.6879 30.3411 51.3039 30.3411C51.9013 30.3411 52.4519 30.2384 52.9559 30.0331C53.4599 29.8184 53.8986 29.5151 54.2719 29.1231L53.8239 28.6751C53.6279 28.8431 53.4413 28.9971 53.2639 29.1371C53.0959 29.2771 52.9233 29.3938 52.7459 29.4871C52.5686 29.5804 52.3819 29.6551 52.1859 29.7111C51.9993 29.7578 51.7893 29.7811 51.5559 29.7811C51.2946 29.7811 51.0146 29.7438 50.7159 29.6691C50.4266 29.5851 50.1559 29.4404 49.9039 29.2351C49.6519 29.0298 49.4419 28.7451 49.2739 28.3811C49.1059 28.0171 49.0219 27.5504 49.0219 26.9811H54.3419ZM49.0219 26.4211C49.0219 26.0478 49.0593 25.6884 49.1339 25.3431C49.2179 24.9884 49.3393 24.6758 49.4979 24.4051C49.6659 24.1344 49.8759 23.9198 50.1279 23.7611C50.3799 23.5931 50.6786 23.5091 51.0239 23.5091C51.6866 23.5091 52.1999 23.7704 52.5639 24.2931C52.9373 24.8064 53.1239 25.5158 53.1239 26.4211H49.0219ZM62.157 30.1731V25.6371C62.157 25.4691 62.143 25.2404 62.115 24.9511C62.087 24.6524 61.9937 24.3631 61.835 24.0831C61.6857 23.7938 61.443 23.5464 61.107 23.3411C60.771 23.1264 60.295 23.0191 59.679 23.0191C59.4083 23.0098 59.105 23.0658 58.769 23.1871C58.433 23.2991 58.1017 23.5184 57.775 23.8451L57.551 24.0691H57.495V23.1731H56.305V30.1731H57.495V25.8471C57.495 25.4831 57.5463 25.1704 57.649 24.9091C57.7517 24.6478 57.8917 24.4284 58.069 24.2511C58.2463 24.0738 58.447 23.9431 58.671 23.8591C58.9043 23.7751 59.1423 23.7331 59.385 23.7331C59.777 23.7331 60.0803 23.8124 60.295 23.9711C60.5097 24.1204 60.6637 24.2978 60.757 24.5031C60.8597 24.7084 60.9203 24.9138 60.939 25.1191C60.9577 25.3244 60.967 25.4738 60.967 25.5671V30.1731H62.157ZM70.7958 26.9811V26.6871C70.7958 26.0618 70.7071 25.5204 70.5298 25.0631C70.3524 24.6058 70.1098 24.2278 69.8018 23.9291C69.5031 23.6304 69.1531 23.4064 68.7518 23.2571C68.3504 23.1078 67.9258 23.0331 67.4778 23.0331C67.0018 23.0331 66.5631 23.1171 66.1618 23.2851C65.7604 23.4438 65.4104 23.6818 65.1118 23.9991C64.8131 24.3071 64.5798 24.6851 64.4118 25.1331C64.2438 25.5718 64.1598 26.0711 64.1598 26.6311C64.1598 27.0978 64.2298 27.5551 64.3698 28.0031C64.5191 28.4418 64.7384 28.8384 65.0278 29.1931C65.3264 29.5384 65.6998 29.8184 66.1478 30.0331C66.6051 30.2384 67.1418 30.3411 67.7578 30.3411C68.3551 30.3411 68.9058 30.2384 69.4098 30.0331C69.9138 29.8184 70.3524 29.5151 70.7258 29.1231L70.2778 28.6751C70.0818 28.8431 69.8951 28.9971 69.7178 29.1371C69.5498 29.2771 69.3771 29.3938 69.1998 29.4871C69.0224 29.5804 68.8358 29.6551 68.6398 29.7111C68.4531 29.7578 68.2431 29.7811 68.0098 29.7811C67.7484 29.7811 67.4684 29.7438 67.1698 29.6691C66.8804 29.5851 66.6098 29.4404 66.3578 29.2351C66.1058 29.0298 65.8958 28.7451 65.7278 28.3811C65.5598 28.0171 65.4758 27.5504 65.4758 26.9811H70.7958ZM65.4758 26.4211C65.4758 26.0478 65.5131 25.6884 65.5878 25.3431C65.6718 24.9884 65.7931 24.6758 65.9518 24.4051C66.1198 24.1344 66.3298 23.9198 66.5818 23.7611C66.8338 23.5931 67.1324 23.5091 67.4778 23.5091C68.1404 23.5091 68.6538 23.7704 69.0178 24.2931C69.3911 24.8064 69.5778 25.5158 69.5778 26.4211H65.4758ZM72.7588 23.1731V30.1731H73.9488V25.9451C73.9488 25.5624 73.9908 25.2404 74.0748 24.9791C74.1682 24.7084 74.2848 24.4891 74.4248 24.3211C74.5648 24.1531 74.7188 24.0318 74.8868 23.9571C75.0548 23.8824 75.2182 23.8451 75.3768 23.8451C75.5915 23.8451 75.7875 23.9151 75.9648 24.0551C76.1515 24.1951 76.2868 24.3258 76.3708 24.4471L76.8468 23.5791C76.7628 23.4671 76.6602 23.3738 76.5388 23.2991C76.4268 23.2244 76.3102 23.1684 76.1888 23.1311C76.0768 23.0844 75.9695 23.0564 75.8668 23.0471C75.7735 23.0284 75.7035 23.0191 75.6568 23.0191C75.2648 23.0191 74.9382 23.1264 74.6768 23.3411C74.4155 23.5558 74.2008 23.8731 74.0328 24.2931H73.9488V23.1731H72.7588ZM85.0765 26.6871C85.0765 27.1724 84.9925 27.6391 84.8245 28.0871C84.6565 28.5258 84.4139 28.9131 84.0965 29.2491C83.7885 29.5851 83.4105 29.8511 82.9625 30.0471C82.5239 30.2431 82.0292 30.3411 81.4785 30.3411C80.9185 30.3411 80.4099 30.2431 79.9525 30.0471C79.5045 29.8418 79.1219 29.5711 78.8045 29.2351C78.4965 28.8991 78.2539 28.5118 78.0765 28.0731C77.9085 27.6251 77.8245 27.1631 77.8245 26.6871C77.8245 26.2018 77.9085 25.7398 78.0765 25.3011C78.2539 24.8531 78.4965 24.4611 78.8045 24.1251C79.1219 23.7891 79.5045 23.5231 79.9525 23.3271C80.4099 23.1218 80.9185 23.0191 81.4785 23.0191C82.0292 23.0191 82.5239 23.1218 82.9625 23.3271C83.4105 23.5231 83.7885 23.7891 84.0965 24.1251C84.4139 24.4611 84.6565 24.8531 84.8245 25.3011C84.9925 25.7398 85.0765 26.2018 85.0765 26.6871ZM83.7465 26.6871C83.7465 26.0338 83.6765 25.5064 83.5365 25.1051C83.3965 24.6944 83.2145 24.3771 82.9905 24.1531C82.7665 23.9291 82.5192 23.7798 82.2485 23.7051C81.9779 23.6211 81.7165 23.5791 81.4645 23.5791C81.2125 23.5791 80.9512 23.6211 80.6805 23.7051C80.4099 23.7798 80.1579 23.9291 79.9245 24.1531C79.7005 24.3771 79.5139 24.6944 79.3645 25.1051C79.2245 25.5064 79.1545 26.0338 79.1545 26.6871C79.1545 27.3311 79.2245 27.8584 79.3645 28.2691C79.5139 28.6704 79.7005 28.9831 79.9245 29.2071C80.1579 29.4311 80.4099 29.5851 80.6805 29.6691C80.9512 29.7438 81.2125 29.7811 81.4645 29.7811C81.7165 29.7811 81.9779 29.7438 82.2485 29.6691C82.5192 29.5851 82.7665 29.4311 82.9905 29.2071C83.2145 28.9831 83.3965 28.6704 83.5365 28.2691C83.6765 27.8584 83.7465 27.3311 83.7465 26.6871ZM87.0388 23.1731V27.7231C87.0388 27.8911 87.0528 28.1244 87.0808 28.4231C87.1182 28.7124 87.2162 29.0018 87.3748 29.2911C87.5335 29.5711 87.7808 29.8184 88.1168 30.0331C88.4622 30.2384 88.9428 30.3411 89.5588 30.3411C89.8295 30.3504 90.1235 30.2944 90.4408 30.1731C90.7675 30.0611 91.0942 29.8418 91.4208 29.5151L91.6448 29.2911H91.7008V30.1731H92.8908V23.1731H91.7008V27.5131C91.7008 27.8771 91.6495 28.1898 91.5468 28.4511C91.4442 28.7124 91.3088 28.9318 91.1408 29.1091C90.9728 29.2771 90.7768 29.4031 90.5528 29.4871C90.3288 29.5711 90.0955 29.6131 89.8528 29.6131C89.4608 29.6131 89.1528 29.5384 88.9288 29.3891C88.7142 29.2304 88.5508 29.0484 88.4388 28.8431C88.3362 28.6378 88.2755 28.4371 88.2568 28.2411C88.2382 28.0358 88.2288 27.8864 88.2288 27.7931V23.1731H87.0388ZM99.7796 24.7691C99.7796 24.5171 99.7143 24.2838 99.5836 24.0691C99.4529 23.8544 99.2709 23.6724 99.0376 23.5231C98.8136 23.3644 98.5476 23.2431 98.2396 23.1591C97.9409 23.0658 97.6189 23.0191 97.2736 23.0191C96.9469 23.0191 96.6389 23.0611 96.3496 23.1451C96.0696 23.2291 95.8223 23.3551 95.6076 23.5231C95.4023 23.6911 95.2389 23.9011 95.1176 24.1531C94.9963 24.3958 94.9356 24.6804 94.9356 25.0071C94.9356 25.4551 95.0383 25.8098 95.2436 26.0711C95.4489 26.3324 95.7056 26.5424 96.0136 26.7011C96.3216 26.8598 96.6529 26.9904 97.0076 27.0931C97.3716 27.1864 97.7076 27.2938 98.0156 27.4151C98.3236 27.5271 98.5803 27.6718 98.7856 27.8491C98.9909 28.0264 99.0936 28.2691 99.0936 28.5771C99.0936 28.7078 99.0703 28.8431 99.0236 28.9831C98.9863 29.1231 98.9116 29.2538 98.7996 29.3751C98.6876 29.4871 98.5336 29.5851 98.3376 29.6691C98.1416 29.7438 97.8943 29.7811 97.5956 29.7811C97.2223 29.7811 96.9049 29.7251 96.6436 29.6131C96.3916 29.4918 96.1816 29.3518 96.0136 29.1931C95.8549 29.0251 95.7383 28.8571 95.6636 28.6891C95.5983 28.5211 95.5656 28.3811 95.5656 28.2691H94.6556C94.6556 28.5304 94.7163 28.7871 94.8376 29.0391C94.9589 29.2818 95.1409 29.5011 95.3836 29.6971C95.6356 29.8931 95.9389 30.0518 96.2936 30.1731C96.6576 30.2851 97.0776 30.3411 97.5536 30.3411C98.4123 30.3411 99.0563 30.1544 99.4856 29.7811C99.9243 29.3984 100.144 28.8991 100.144 28.2831C100.144 27.8351 100.036 27.4758 99.8216 27.2051C99.6163 26.9344 99.3549 26.7198 99.0376 26.5611C98.7203 26.3931 98.3749 26.2578 98.0016 26.1551C97.6376 26.0524 97.2969 25.9451 96.9796 25.8331C96.6623 25.7211 96.3963 25.5858 96.1816 25.4271C95.9763 25.2684 95.8736 25.0444 95.8736 24.7551C95.8736 24.6338 95.8969 24.5078 95.9436 24.3771C95.9903 24.2371 96.0696 24.1111 96.1816 23.9991C96.2936 23.8778 96.4429 23.7798 96.6296 23.7051C96.8163 23.6211 97.0496 23.5791 97.3296 23.5791C97.6096 23.5791 97.8523 23.6211 98.0576 23.7051C98.2629 23.7798 98.4356 23.8778 98.5756 23.9991C98.7156 24.1111 98.8183 24.2371 98.8836 24.3771C98.9489 24.5171 98.9816 24.6478 98.9816 24.7691H99.7796ZM112.213 30.7611C112.213 31.1904 112.161 31.5544 112.059 31.8531C111.956 32.1518 111.811 32.3944 111.625 32.5811C111.447 32.7678 111.233 32.9031 110.981 32.9871C110.738 33.0711 110.477 33.1131 110.197 33.1131C109.702 33.1131 109.301 32.9871 108.993 32.7351C108.694 32.4831 108.419 32.1471 108.167 31.7271L107.397 32.4271C107.462 32.5111 107.565 32.6184 107.705 32.7491C107.845 32.8891 108.022 33.0244 108.237 33.1551C108.451 33.2951 108.708 33.4118 109.007 33.5051C109.305 33.6078 109.646 33.6591 110.029 33.6591C110.738 33.6591 111.312 33.5564 111.751 33.3511C112.189 33.1551 112.53 32.8891 112.773 32.5531C113.015 32.2171 113.179 31.8298 113.263 31.3911C113.356 30.9618 113.403 30.5138 113.403 30.0471V23.1731H112.213V24.2651H112.157C112.045 23.8731 111.802 23.5698 111.429 23.3551C111.065 23.1311 110.584 23.0191 109.987 23.0191C109.511 23.0191 109.077 23.1078 108.685 23.2851C108.293 23.4531 107.957 23.6958 107.677 24.0131C107.397 24.3304 107.177 24.7131 107.019 25.1611C106.869 25.6091 106.795 26.1084 106.795 26.6591C106.795 27.2191 106.869 27.7278 107.019 28.1851C107.177 28.6331 107.397 29.0204 107.677 29.3471C107.957 29.6644 108.288 29.9118 108.671 30.0891C109.063 30.2571 109.497 30.3411 109.973 30.3411C110.495 30.3411 110.948 30.2384 111.331 30.0331C111.723 29.8278 111.998 29.5011 112.157 29.0531H112.213V30.7611ZM112.213 27.1911C112.213 27.5831 112.157 27.9284 112.045 28.2271C111.942 28.5258 111.802 28.7778 111.625 28.9831C111.447 29.1884 111.242 29.3471 111.009 29.4591C110.775 29.5618 110.533 29.6131 110.281 29.6131C110.057 29.6131 109.814 29.5758 109.553 29.5011C109.301 29.4171 109.063 29.2678 108.839 29.0531C108.624 28.8384 108.442 28.5351 108.293 28.1431C108.153 27.7511 108.083 27.2471 108.083 26.6311C108.083 25.9778 108.171 25.4598 108.349 25.0771C108.526 24.6851 108.731 24.3864 108.965 24.1811C109.207 23.9758 109.45 23.8451 109.693 23.7891C109.945 23.7238 110.141 23.6911 110.281 23.6911C110.589 23.6911 110.864 23.7611 111.107 23.9011C111.349 24.0318 111.55 24.2138 111.709 24.4471C111.877 24.6711 112.003 24.9324 112.087 25.2311C112.171 25.5298 112.213 25.8378 112.213 26.1551V27.1911ZM115.777 23.1731V30.1731H116.967V25.9451C116.967 25.5624 117.009 25.2404 117.093 24.9791C117.186 24.7084 117.303 24.4891 117.443 24.3211C117.583 24.1531 117.737 24.0318 117.905 23.9571C118.073 23.8824 118.236 23.8451 118.395 23.8451C118.609 23.8451 118.805 23.9151 118.983 24.0551C119.169 24.1951 119.305 24.3258 119.389 24.4471L119.865 23.5791C119.781 23.4671 119.678 23.3738 119.557 23.2991C119.445 23.2244 119.328 23.1684 119.207 23.1311C119.095 23.0844 118.987 23.0564 118.885 23.0471C118.791 23.0284 118.721 23.0191 118.675 23.0191C118.283 23.0191 117.956 23.1264 117.695 23.3411C117.433 23.5558 117.219 23.8731 117.051 24.2931H116.967V23.1731H115.777ZM128.094 26.6871C128.094 27.1724 128.01 27.6391 127.842 28.0871C127.674 28.5258 127.432 28.9131 127.114 29.2491C126.806 29.5851 126.428 29.8511 125.98 30.0471C125.542 30.2431 125.047 30.3411 124.496 30.3411C123.936 30.3411 123.428 30.2431 122.97 30.0471C122.522 29.8418 122.14 29.5711 121.822 29.2351C121.514 28.8991 121.272 28.5118 121.094 28.0731C120.926 27.6251 120.842 27.1631 120.842 26.6871C120.842 26.2018 120.926 25.7398 121.094 25.3011C121.272 24.8531 121.514 24.4611 121.822 24.1251C122.14 23.7891 122.522 23.5231 122.97 23.3271C123.428 23.1218 123.936 23.0191 124.496 23.0191C125.047 23.0191 125.542 23.1218 125.98 23.3271C126.428 23.5231 126.806 23.7891 127.114 24.1251C127.432 24.4611 127.674 24.8531 127.842 25.3011C128.01 25.7398 128.094 26.2018 128.094 26.6871ZM126.764 26.6871C126.764 26.0338 126.694 25.5064 126.554 25.1051C126.414 24.6944 126.232 24.3771 126.008 24.1531C125.784 23.9291 125.537 23.7798 125.266 23.7051C124.996 23.6211 124.734 23.5791 124.482 23.5791C124.23 23.5791 123.969 23.6211 123.698 23.7051C123.428 23.7798 123.176 23.9291 122.942 24.1531C122.718 24.3771 122.532 24.6944 122.382 25.1051C122.242 25.5064 122.172 26.0338 122.172 26.6871C122.172 27.3311 122.242 27.8584 122.382 28.2691C122.532 28.6704 122.718 28.9831 122.942 29.2071C123.176 29.4311 123.428 29.5851 123.698 29.6691C123.969 29.7438 124.23 29.7811 124.482 29.7811C124.734 29.7811 124.996 29.7438 125.266 29.6691C125.537 29.5851 125.784 29.4311 126.008 29.2071C126.232 28.9831 126.414 28.6704 126.554 28.2691C126.694 27.8584 126.764 27.3311 126.764 26.6871ZM130.057 23.1731V27.7231C130.057 27.8911 130.071 28.1244 130.099 28.4231C130.136 28.7124 130.234 29.0018 130.393 29.2911C130.551 29.5711 130.799 29.8184 131.135 30.0331C131.48 30.2384 131.961 30.3411 132.577 30.3411C132.847 30.3504 133.141 30.2944 133.459 30.1731C133.785 30.0611 134.112 29.8418 134.439 29.5151L134.663 29.2911H134.719V30.1731H135.909V23.1731H134.719V27.5131C134.719 27.8771 134.667 28.1898 134.565 28.4511C134.462 28.7124 134.327 28.9318 134.159 29.1091C133.991 29.2771 133.795 29.4031 133.571 29.4871C133.347 29.5711 133.113 29.6131 132.871 29.6131C132.479 29.6131 132.171 29.5384 131.947 29.3891C131.732 29.2304 131.569 29.0484 131.457 28.8431C131.354 28.6378 131.293 28.4371 131.275 28.2411C131.256 28.0358 131.247 27.8864 131.247 27.7931V23.1731H130.057ZM138.331 33.6731H139.521V29.0251H139.577C139.671 29.2678 139.792 29.4731 139.941 29.6411C140.1 29.8091 140.277 29.9444 140.473 30.0471C140.669 30.1498 140.875 30.2244 141.089 30.2711C141.313 30.3178 141.537 30.3411 141.761 30.3411C142.228 30.3411 142.657 30.2571 143.049 30.0891C143.441 29.9118 143.777 29.6644 144.057 29.3471C144.347 29.0298 144.571 28.6471 144.729 28.1991C144.888 27.7418 144.967 27.2378 144.967 26.6871C144.967 26.1271 144.888 25.6231 144.729 25.1751C144.571 24.7271 144.347 24.3444 144.057 24.0271C143.777 23.7004 143.441 23.4531 143.049 23.2851C142.657 23.1078 142.228 23.0191 141.761 23.0191C140.651 23.0191 139.923 23.4484 139.577 24.3071H139.521V23.1731H138.331V33.6731ZM139.521 25.9731C139.521 25.6651 139.568 25.3758 139.661 25.1051C139.764 24.8251 139.904 24.5871 140.081 24.3911C140.259 24.1858 140.464 24.0271 140.697 23.9151C140.94 23.7938 141.197 23.7331 141.467 23.7331C141.757 23.7331 142.032 23.7891 142.293 23.9011C142.564 24.0038 142.797 24.1718 142.993 24.4051C143.189 24.6384 143.343 24.9418 143.455 25.3151C143.577 25.6884 143.637 26.1364 143.637 26.6591C143.637 27.1911 143.577 27.6438 143.455 28.0171C143.343 28.3904 143.185 28.6984 142.979 28.9411C142.783 29.1744 142.555 29.3471 142.293 29.4591C142.032 29.5618 141.757 29.6131 141.467 29.6131C141.206 29.6131 140.959 29.5618 140.725 29.4591C140.492 29.3471 140.287 29.1884 140.109 28.9831C139.932 28.7684 139.787 28.5118 139.675 28.2131C139.573 27.9144 139.521 27.5738 139.521 27.1911V25.9731ZM158.787 26.6871C158.787 27.1724 158.703 27.6391 158.535 28.0871C158.367 28.5258 158.124 28.9131 157.807 29.2491C157.499 29.5851 157.121 29.8511 156.673 30.0471C156.234 30.2431 155.74 30.3411 155.189 30.3411C154.629 30.3411 154.12 30.2431 153.663 30.0471C153.215 29.8418 152.832 29.5711 152.515 29.2351C152.207 28.8991 151.964 28.5118 151.787 28.0731C151.619 27.6251 151.535 27.1631 151.535 26.6871C151.535 26.2018 151.619 25.7398 151.787 25.3011C151.964 24.8531 152.207 24.4611 152.515 24.1251C152.832 23.7891 153.215 23.5231 153.663 23.3271C154.12 23.1218 154.629 23.0191 155.189 23.0191C155.74 23.0191 156.234 23.1218 156.673 23.3271C157.121 23.5231 157.499 23.7891 157.807 24.1251C158.124 24.4611 158.367 24.8531 158.535 25.3011C158.703 25.7398 158.787 26.2018 158.787 26.6871ZM157.457 26.6871C157.457 26.0338 157.387 25.5064 157.247 25.1051C157.107 24.6944 156.925 24.3771 156.701 24.1531C156.477 23.9291 156.23 23.7798 155.959 23.7051C155.688 23.6211 155.427 23.5791 155.175 23.5791C154.923 23.5791 154.662 23.6211 154.391 23.7051C154.12 23.7798 153.868 23.9291 153.635 24.1531C153.411 24.3771 153.224 24.6944 153.075 25.1051C152.935 25.5064 152.865 26.0338 152.865 26.6871C152.865 27.3311 152.935 27.8584 153.075 28.2691C153.224 28.6704 153.411 28.9831 153.635 29.2071C153.868 29.4311 154.12 29.5851 154.391 29.6691C154.662 29.7438 154.923 29.7811 155.175 29.7811C155.427 29.7811 155.688 29.7438 155.959 29.6691C156.23 29.5851 156.477 29.4311 156.701 29.2071C156.925 28.9831 157.107 28.6704 157.247 28.2691C157.387 27.8584 157.457 27.3311 157.457 26.6871ZM160.049 23.1731V23.7331H161.267V30.1731H162.457V23.7331H164.151V23.1731H162.457V21.9971C162.457 21.8851 162.462 21.7544 162.471 21.6051C162.481 21.4464 162.509 21.3018 162.555 21.1711C162.602 21.0311 162.672 20.9144 162.765 20.8211C162.868 20.7278 163.008 20.6811 163.185 20.6811C163.409 20.6811 163.591 20.7744 163.731 20.9611C163.881 21.1478 164.002 21.3391 164.095 21.5351L164.711 20.8771C164.487 20.6531 164.254 20.4851 164.011 20.3731C163.778 20.2611 163.512 20.2051 163.213 20.2051C162.971 20.2051 162.733 20.2471 162.499 20.3311C162.266 20.4151 162.056 20.5458 161.869 20.7231C161.692 20.8911 161.547 21.1104 161.435 21.3811C161.323 21.6518 161.267 21.9691 161.267 22.3331V23.1731H160.049ZM170.17 23.1731L172.592 30.1731H173.348L174.972 25.4831H175.028L176.848 30.1731H177.506L180.054 23.1731H179.326L177.422 28.4091H177.366L175.378 23.1731H175.098L173.264 28.4511H173.208L171.388 23.1731H170.17ZM188.427 26.6871C188.427 27.1724 188.343 27.6391 188.175 28.0871C188.007 28.5258 187.764 28.9131 187.447 29.2491C187.139 29.5851 186.761 29.8511 186.313 30.0471C185.874 30.2431 185.38 30.3411 184.829 30.3411C184.269 30.3411 183.76 30.2431 183.303 30.0471C182.855 29.8418 182.472 29.5711 182.155 29.2351C181.847 28.8991 181.604 28.5118 181.427 28.0731C181.259 27.6251 181.175 27.1631 181.175 26.6871C181.175 26.2018 181.259 25.7398 181.427 25.3011C181.604 24.8531 181.847 24.4611 182.155 24.1251C182.472 23.7891 182.855 23.5231 183.303 23.3271C183.76 23.1218 184.269 23.0191 184.829 23.0191C185.38 23.0191 185.874 23.1218 186.313 23.3271C186.761 23.5231 187.139 23.7891 187.447 24.1251C187.764 24.4611 188.007 24.8531 188.175 25.3011C188.343 25.7398 188.427 26.2018 188.427 26.6871ZM187.097 26.6871C187.097 26.0338 187.027 25.5064 186.887 25.1051C186.747 24.6944 186.565 24.3771 186.341 24.1531C186.117 23.9291 185.87 23.7798 185.599 23.7051C185.328 23.6211 185.067 23.5791 184.815 23.5791C184.563 23.5791 184.302 23.6211 184.031 23.7051C183.76 23.7798 183.508 23.9291 183.275 24.1531C183.051 24.3771 182.864 24.6944 182.715 25.1051C182.575 25.5064 182.505 26.0338 182.505 26.6871C182.505 27.3311 182.575 27.8584 182.715 28.2691C182.864 28.6704 183.051 28.9831 183.275 29.2071C183.508 29.4311 183.76 29.5851 184.031 29.6691C184.302 29.7438 184.563 29.7811 184.815 29.7811C185.067 29.7811 185.328 29.7438 185.599 29.6691C185.87 29.5851 186.117 29.4311 186.341 29.2071C186.565 28.9831 186.747 28.6704 186.887 28.2691C187.027 27.8584 187.097 27.3311 187.097 26.6871ZM191.579 30.1731V26.1831C191.579 26.0151 191.593 25.7958 191.621 25.5251C191.649 25.2451 191.719 24.9744 191.831 24.7131C191.953 24.4424 192.135 24.2138 192.377 24.0271C192.62 23.8311 192.961 23.7331 193.399 23.7331C193.717 23.7331 193.959 23.8031 194.127 23.9431C194.305 24.0831 194.435 24.2558 194.519 24.4611C194.603 24.6664 194.65 24.8811 194.659 25.1051C194.678 25.3291 194.687 25.5251 194.687 25.6931V30.1731H195.877V26.1831C195.877 25.9778 195.896 25.7351 195.933 25.4551C195.971 25.1658 196.05 24.8951 196.171 24.6431C196.293 24.3911 196.465 24.1764 196.689 23.9991C196.923 23.8218 197.235 23.7331 197.627 23.7331C197.917 23.7331 198.15 23.7751 198.327 23.8591C198.505 23.9431 198.64 24.0691 198.733 24.2371C198.836 24.4051 198.901 24.6104 198.929 24.8531C198.967 25.0958 198.985 25.3758 198.985 25.6931V30.1731H200.175V25.2871C200.175 25.0724 200.152 24.8344 200.105 24.5731C200.059 24.3024 199.956 24.0551 199.797 23.8311C199.648 23.5978 199.424 23.4064 199.125 23.2571C198.836 23.0984 198.449 23.0191 197.963 23.0191C197.823 23.0191 197.66 23.0331 197.473 23.0611C197.287 23.0891 197.091 23.1498 196.885 23.2431C196.68 23.3364 196.479 23.4718 196.283 23.6491C196.097 23.8264 195.933 24.0598 195.793 24.3491H195.695C195.639 24.1998 195.56 24.0504 195.457 23.9011C195.355 23.7424 195.224 23.5978 195.065 23.4671C194.907 23.3364 194.715 23.2291 194.491 23.1451C194.277 23.0611 194.015 23.0191 193.707 23.0191C193.567 23.0191 193.399 23.0378 193.203 23.0751C193.007 23.1031 192.811 23.1638 192.615 23.2571C192.419 23.3504 192.233 23.4811 192.055 23.6491C191.887 23.8171 191.747 24.0364 191.635 24.3071H191.579V23.1731H190.389V30.1731H191.579ZM208.777 26.9811V26.6871C208.777 26.0618 208.688 25.5204 208.511 25.0631C208.333 24.6058 208.091 24.2278 207.783 23.9291C207.484 23.6304 207.134 23.4064 206.733 23.2571C206.331 23.1078 205.907 23.0331 205.459 23.0331C204.983 23.0331 204.544 23.1171 204.143 23.2851C203.741 23.4438 203.391 23.6818 203.093 23.9991C202.794 24.3071 202.561 24.6851 202.393 25.1331C202.225 25.5718 202.141 26.0711 202.141 26.6311C202.141 27.0978 202.211 27.5551 202.351 28.0031C202.5 28.4418 202.719 28.8384 203.009 29.1931C203.307 29.5384 203.681 29.8184 204.129 30.0331C204.586 30.2384 205.123 30.3411 205.739 30.3411C206.336 30.3411 206.887 30.2384 207.391 30.0331C207.895 29.8184 208.333 29.5151 208.707 29.1231L208.259 28.6751C208.063 28.8431 207.876 28.9971 207.699 29.1371C207.531 29.2771 207.358 29.3938 207.181 29.4871C207.003 29.5804 206.817 29.6551 206.621 29.7111C206.434 29.7578 206.224 29.7811 205.991 29.7811C205.729 29.7811 205.449 29.7438 205.151 29.6691C204.861 29.5851 204.591 29.4404 204.339 29.2351C204.087 29.0298 203.877 28.7451 203.709 28.3811C203.541 28.0171 203.457 27.5504 203.457 26.9811H208.777ZM203.457 26.4211C203.457 26.0478 203.494 25.6884 203.569 25.3431C203.653 24.9884 203.774 24.6758 203.933 24.4051C204.101 24.1344 204.311 23.9198 204.563 23.7611C204.815 23.5931 205.113 23.5091 205.459 23.5091C206.121 23.5091 206.635 23.7704 206.999 24.2931C207.372 24.8064 207.559 25.5158 207.559 26.4211H203.457ZM216.592 30.1731V25.6371C216.592 25.4691 216.578 25.2404 216.55 24.9511C216.522 24.6524 216.428 24.3631 216.27 24.0831C216.12 23.7938 215.878 23.5464 215.542 23.3411C215.206 23.1264 214.73 23.0191 214.114 23.0191C213.843 23.0098 213.54 23.0658 213.204 23.1871C212.868 23.2991 212.536 23.5184 212.21 23.8451L211.986 24.0691H211.93V23.1731H210.74V30.1731H211.93V25.8471C211.93 25.4831 211.981 25.1704 212.084 24.9091C212.186 24.6478 212.326 24.4284 212.504 24.2511C212.681 24.0738 212.882 23.9431 213.106 23.8591C213.339 23.7751 213.577 23.7331 213.82 23.7331C214.212 23.7331 214.515 23.8124 214.73 23.9711C214.944 24.1204 215.098 24.2978 215.192 24.5031C215.294 24.7084 215.355 24.9138 215.374 25.1191C215.392 25.3244 215.402 25.4738 215.402 25.5671V30.1731H216.592ZM224.497 23.1731V30.1731H225.687V23.1731H224.497ZM224.329 20.9611C224.329 21.1664 224.404 21.3438 224.553 21.4931C224.702 21.6424 224.88 21.7171 225.085 21.7171C225.29 21.7171 225.468 21.6424 225.617 21.4931C225.766 21.3438 225.841 21.1664 225.841 20.9611C225.841 20.7558 225.766 20.5784 225.617 20.4291C225.468 20.2798 225.29 20.2051 225.085 20.2051C224.88 20.2051 224.702 20.2798 224.553 20.4291C224.404 20.5784 224.329 20.7558 224.329 20.9611ZM232.962 24.7691C232.962 24.5171 232.896 24.2838 232.766 24.0691C232.635 23.8544 232.453 23.6724 232.22 23.5231C231.996 23.3644 231.73 23.2431 231.422 23.1591C231.123 23.0658 230.801 23.0191 230.456 23.0191C230.129 23.0191 229.821 23.0611 229.532 23.1451C229.252 23.2291 229.004 23.3551 228.79 23.5231C228.584 23.6911 228.421 23.9011 228.3 24.1531C228.178 24.3958 228.118 24.6804 228.118 25.0071C228.118 25.4551 228.22 25.8098 228.426 26.0711C228.631 26.3324 228.888 26.5424 229.196 26.7011C229.504 26.8598 229.835 26.9904 230.19 27.0931C230.554 27.1864 230.89 27.2938 231.198 27.4151C231.506 27.5271 231.762 27.6718 231.968 27.8491C232.173 28.0264 232.276 28.2691 232.276 28.5771C232.276 28.7078 232.252 28.8431 232.206 28.9831C232.168 29.1231 232.094 29.2538 231.982 29.3751C231.87 29.4871 231.716 29.5851 231.52 29.6691C231.324 29.7438 231.076 29.7811 230.778 29.7811C230.404 29.7811 230.087 29.7251 229.826 29.6131C229.574 29.4918 229.364 29.3518 229.196 29.1931C229.037 29.0251 228.92 28.8571 228.846 28.6891C228.78 28.5211 228.748 28.3811 228.748 28.2691H227.838C227.838 28.5304 227.898 28.7871 228.02 29.0391C228.141 29.2818 228.323 29.5011 228.566 29.6971C228.818 29.8931 229.121 30.0518 229.476 30.1731C229.84 30.2851 230.26 30.3411 230.736 30.3411C231.594 30.3411 232.238 30.1544 232.668 29.7811C233.106 29.3984 233.326 28.8991 233.326 28.2831C233.326 27.8351 233.218 27.4758 233.004 27.2051C232.798 26.9344 232.537 26.7198 232.22 26.5611C231.902 26.3931 231.557 26.2578 231.184 26.1551C230.82 26.0524 230.479 25.9451 230.162 25.8331C229.844 25.7211 229.578 25.5858 229.364 25.4271C229.158 25.2684 229.056 25.0444 229.056 24.7551C229.056 24.6338 229.079 24.5078 229.126 24.3771C229.172 24.2371 229.252 24.1111 229.364 23.9991C229.476 23.8778 229.625 23.7798 229.812 23.7051C229.998 23.6211 230.232 23.5791 230.512 23.5791C230.792 23.5791 231.034 23.6211 231.24 23.7051C231.445 23.7798 231.618 23.8778 231.758 23.9991C231.898 24.1111 232 24.2371 232.066 24.3771C232.131 24.5171 232.164 24.6478 232.164 24.7691H232.962ZM247.229 26.6871C247.229 27.1724 247.145 27.6391 246.977 28.0871C246.809 28.5258 246.566 28.9131 246.249 29.2491C245.941 29.5851 245.563 29.8511 245.115 30.0471C244.676 30.2431 244.181 30.3411 243.631 30.3411C243.071 30.3411 242.562 30.2431 242.105 30.0471C241.657 29.8418 241.274 29.5711 240.957 29.2351C240.649 28.8991 240.406 28.5118 240.229 28.0731C240.061 27.6251 239.977 27.1631 239.977 26.6871C239.977 26.2018 240.061 25.7398 240.229 25.3011C240.406 24.8531 240.649 24.4611 240.957 24.1251C241.274 23.7891 241.657 23.5231 242.105 23.3271C242.562 23.1218 243.071 23.0191 243.631 23.0191C244.181 23.0191 244.676 23.1218 245.115 23.3271C245.563 23.5231 245.941 23.7891 246.249 24.1251C246.566 24.4611 246.809 24.8531 246.977 25.3011C247.145 25.7398 247.229 26.2018 247.229 26.6871ZM245.899 26.6871C245.899 26.0338 245.829 25.5064 245.689 25.1051C245.549 24.6944 245.367 24.3771 245.143 24.1531C244.919 23.9291 244.671 23.7798 244.401 23.7051C244.13 23.6211 243.869 23.5791 243.617 23.5791C243.365 23.5791 243.103 23.6211 242.833 23.7051C242.562 23.7798 242.31 23.9291 242.077 24.1531C241.853 24.3771 241.666 24.6944 241.517 25.1051C241.377 25.5064 241.307 26.0338 241.307 26.6871C241.307 27.3311 241.377 27.8584 241.517 28.2691C241.666 28.6704 241.853 28.9831 242.077 29.2071C242.31 29.4311 242.562 29.5851 242.833 29.6691C243.103 29.7438 243.365 29.7811 243.617 29.7811C243.869 29.7811 244.13 29.7438 244.401 29.6691C244.671 29.5851 244.919 29.4311 245.143 29.2071C245.367 28.9831 245.549 28.6704 245.689 28.2691C245.829 27.8584 245.899 27.3311 245.899 26.6871ZM249.191 23.1731V27.7231C249.191 27.8911 249.205 28.1244 249.233 28.4231C249.27 28.7124 249.368 29.0018 249.527 29.2911C249.686 29.5711 249.933 29.8184 250.269 30.0331C250.614 30.2384 251.095 30.3411 251.711 30.3411C251.982 30.3504 252.276 30.2944 252.593 30.1731C252.92 30.0611 253.246 29.8418 253.573 29.5151L253.797 29.2911H253.853V30.1731H255.043V23.1731H253.853V27.5131C253.853 27.8771 253.802 28.1898 253.699 28.4511C253.596 28.7124 253.461 28.9318 253.293 29.1091C253.125 29.2771 252.929 29.4031 252.705 29.4871C252.481 29.5711 252.248 29.6131 252.005 29.6131C251.613 29.6131 251.305 29.5384 251.081 29.3891C250.866 29.2304 250.703 29.0484 250.591 28.8431C250.488 28.6378 250.428 28.4371 250.409 28.2411C250.39 28.0358 250.381 27.8864 250.381 27.7931V23.1731H249.191ZM257.466 23.1731V30.1731H258.656V25.9451C258.656 25.5624 258.698 25.2404 258.782 24.9791C258.875 24.7084 258.992 24.4891 259.132 24.3211C259.272 24.1531 259.426 24.0318 259.594 23.9571C259.762 23.8824 259.925 23.8451 260.084 23.8451C260.299 23.8451 260.495 23.9151 260.672 24.0551C260.859 24.1951 260.994 24.3258 261.078 24.4471L261.554 23.5791C261.47 23.4671 261.367 23.3738 261.246 23.2991C261.134 23.2244 261.017 23.1684 260.896 23.1311C260.784 23.0844 260.677 23.0564 260.574 23.0471C260.481 23.0284 260.411 23.0191 260.364 23.0191C259.972 23.0191 259.645 23.1264 259.384 23.3411C259.123 23.5558 258.908 23.8731 258.74 24.2931H258.656V23.1731H257.466ZM101.425 40.3731H100.235V44.3211H100.179C100.086 44.0784 99.9601 43.8778 99.8014 43.7191C99.6521 43.5511 99.4794 43.4158 99.2834 43.3131C99.0874 43.2104 98.8774 43.1358 98.6534 43.0891C98.4387 43.0424 98.2194 43.0191 97.9954 43.0191C97.5288 43.0191 97.0994 43.1078 96.7074 43.2851C96.3154 43.4531 95.9747 43.6958 95.6854 44.0131C95.4054 44.3304 95.1861 44.7131 95.0274 45.1611C94.8687 45.6091 94.7894 46.1084 94.7894 46.6591C94.7894 47.2191 94.8687 47.7278 95.0274 48.1851C95.1861 48.6331 95.4054 49.0204 95.6854 49.3471C95.9747 49.6644 96.3154 49.9118 96.7074 50.0891C97.0994 50.2571 97.5288 50.3411 97.9954 50.3411C99.0968 50.3411 99.8248 49.9071 100.179 49.0391H100.235V50.1731H101.425V40.3731ZM100.235 47.3731C100.235 47.6811 100.184 47.9751 100.081 48.2551C99.9788 48.5258 99.8388 48.7638 99.6614 48.9691C99.4934 49.1651 99.2881 49.3238 99.0454 49.4451C98.8121 49.5571 98.5601 49.6131 98.2894 49.6131C97.9907 49.6131 97.7107 49.5618 97.4494 49.4591C97.1881 49.3471 96.9594 49.1744 96.7634 48.9411C96.5674 48.7078 96.4087 48.4044 96.2874 48.0311C96.1754 47.6578 96.1194 47.2098 96.1194 46.6871C96.1194 46.1551 96.1754 45.7024 96.2874 45.3291C96.4087 44.9558 96.5674 44.6524 96.7634 44.4191C96.9688 44.1764 97.2021 44.0038 97.4634 43.9011C97.7248 43.7891 98.0001 43.7331 98.2894 43.7331C98.5507 43.7331 98.7981 43.7891 99.0314 43.9011C99.2648 44.0038 99.4701 44.1624 99.6474 44.3771C99.8247 44.5824 99.9647 44.8344 100.067 45.1331C100.179 45.4318 100.235 45.7724 100.235 46.1551V47.3731ZM106.375 43.0191C107.056 43.0191 107.583 43.1171 107.957 43.3131C108.33 43.4998 108.601 43.7471 108.769 44.0551C108.946 44.3631 109.049 44.7178 109.077 45.1191C109.105 45.5204 109.119 45.9311 109.119 46.3511V50.1731H107.985V49.4871C107.714 49.7484 107.369 49.9584 106.949 50.1171C106.529 50.2664 106.109 50.3411 105.689 50.3411C105.287 50.3411 104.933 50.2711 104.625 50.1311C104.317 49.9911 104.06 49.8091 103.855 49.5851C103.649 49.3611 103.495 49.1091 103.393 48.8291C103.29 48.5491 103.239 48.2644 103.239 47.9751C103.239 47.6764 103.295 47.3778 103.407 47.0791C103.519 46.7804 103.687 46.5144 103.911 46.2811C104.135 46.0384 104.41 45.8424 104.737 45.6931C105.063 45.5438 105.437 45.4691 105.857 45.4691C106.277 45.4691 106.673 45.5531 107.047 45.7211C107.429 45.8798 107.742 46.1084 107.985 46.4071V45.8051C107.985 45.0398 107.868 44.4704 107.635 44.0971C107.411 43.7238 106.995 43.5371 106.389 43.5371C106.127 43.5371 105.899 43.5698 105.703 43.6351C105.507 43.7004 105.329 43.7938 105.171 43.9151C105.021 44.0271 104.881 44.1718 104.751 44.3491C104.62 44.5171 104.489 44.7084 104.359 44.9231L103.631 44.1951C103.761 44.0551 103.897 43.9151 104.037 43.7751C104.186 43.6351 104.363 43.5091 104.569 43.3971C104.783 43.2851 105.035 43.1964 105.325 43.1311C105.614 43.0564 105.964 43.0191 106.375 43.0191ZM107.985 47.4011C107.938 47.2891 107.868 47.1584 107.775 47.0091C107.691 46.8598 107.579 46.7151 107.439 46.5751C107.299 46.4351 107.131 46.3184 106.935 46.2251C106.739 46.1224 106.505 46.0711 106.235 46.0711C105.964 46.0711 105.717 46.1271 105.493 46.2391C105.269 46.3418 105.077 46.4818 104.919 46.6591C104.769 46.8271 104.653 47.0278 104.569 47.2611C104.485 47.4944 104.443 47.7371 104.443 47.9891C104.443 48.2878 104.494 48.5491 104.597 48.7731C104.709 48.9878 104.849 49.1744 105.017 49.3331C105.185 49.4824 105.371 49.5944 105.577 49.6691C105.782 49.7438 105.978 49.7811 106.165 49.7811C106.342 49.7811 106.519 49.7484 106.697 49.6831C106.883 49.6178 107.056 49.5291 107.215 49.4171C107.383 49.2958 107.532 49.1558 107.663 48.9971C107.793 48.8384 107.901 48.6658 107.985 48.4791V47.4011ZM111.947 43.1731V50.1731H113.137V43.1731H111.947ZM111.779 40.9611C111.779 41.1664 111.854 41.3438 112.003 41.4931C112.153 41.6424 112.33 41.7171 112.535 41.7171C112.741 41.7171 112.918 41.6424 113.067 41.4931C113.217 41.3438 113.291 41.1664 113.291 40.9611C113.291 40.7558 113.217 40.5784 113.067 40.4291C112.918 40.2798 112.741 40.2051 112.535 40.2051C112.33 40.2051 112.153 40.2798 112.003 40.4291C111.854 40.5784 111.779 40.7558 111.779 40.9611ZM117.416 40.3731H116.226V50.1731H117.416V40.3731ZM122.794 48.5351L120.372 43.1731H119.098L122.234 50.0891L121.492 51.9091C121.408 52.1238 121.296 52.2964 121.156 52.4271C121.025 52.5578 120.871 52.6231 120.694 52.6231C120.526 52.6231 120.363 52.5718 120.204 52.4691C120.055 52.3758 119.938 52.2358 119.854 52.0491L119.238 53.2111C119.415 53.3698 119.611 53.4864 119.826 53.5611C120.041 53.6358 120.241 53.6731 120.428 53.6731C120.689 53.6731 120.918 53.6078 121.114 53.4771C121.31 53.3464 121.483 53.1738 121.632 52.9591C121.781 52.7538 121.912 52.5204 122.024 52.2591C122.136 52.0071 122.243 51.7551 122.346 51.5031L125.734 43.1731H125.048L122.85 48.5351H122.794ZM138.523 40.3731H137.333V44.3211H137.277C137.184 44.0784 137.058 43.8778 136.899 43.7191C136.75 43.5511 136.577 43.4158 136.381 43.3131C136.185 43.2104 135.975 43.1358 135.751 43.0891C135.537 43.0424 135.317 43.0191 135.093 43.0191C134.627 43.0191 134.197 43.1078 133.805 43.2851C133.413 43.4531 133.073 43.6958 132.783 44.0131C132.503 44.3304 132.284 44.7131 132.125 45.1611C131.967 45.6091 131.887 46.1084 131.887 46.6591C131.887 47.2191 131.967 47.7278 132.125 48.1851C132.284 48.6331 132.503 49.0204 132.783 49.3471C133.073 49.6644 133.413 49.9118 133.805 50.0891C134.197 50.2571 134.627 50.3411 135.093 50.3411C136.195 50.3411 136.923 49.9071 137.277 49.0391H137.333V50.1731H138.523V40.3731ZM137.333 47.3731C137.333 47.6811 137.282 47.9751 137.179 48.2551C137.077 48.5258 136.937 48.7638 136.759 48.9691C136.591 49.1651 136.386 49.3238 136.143 49.4451C135.91 49.5571 135.658 49.6131 135.387 49.6131C135.089 49.6131 134.809 49.5618 134.547 49.4591C134.286 49.3471 134.057 49.1744 133.861 48.9411C133.665 48.7078 133.507 48.4044 133.385 48.0311C133.273 47.6578 133.217 47.2098 133.217 46.6871C133.217 46.1551 133.273 45.7024 133.385 45.3291C133.507 44.9558 133.665 44.6524 133.861 44.4191C134.067 44.1764 134.3 44.0038 134.561 43.9011C134.823 43.7891 135.098 43.7331 135.387 43.7331C135.649 43.7331 135.896 43.7891 136.129 43.9011C136.363 44.0038 136.568 44.1624 136.745 44.3771C136.923 44.5824 137.063 44.8344 137.165 45.1331C137.277 45.4318 137.333 45.7724 137.333 46.1551V47.3731ZM140.896 43.1731V50.1731H142.086V45.9451C142.086 45.5624 142.128 45.2404 142.212 44.9791C142.306 44.7084 142.422 44.4891 142.562 44.3211C142.702 44.1531 142.856 44.0318 143.024 43.9571C143.192 43.8824 143.356 43.8451 143.514 43.8451C143.729 43.8451 143.925 43.9151 144.102 44.0551C144.289 44.1951 144.424 44.3258 144.508 44.4471L144.984 43.5791C144.9 43.4671 144.798 43.3738 144.676 43.2991C144.564 43.2244 144.448 43.1684 144.326 43.1311C144.214 43.0844 144.107 43.0564 144.004 43.0471C143.911 43.0284 143.841 43.0191 143.794 43.0191C143.402 43.0191 143.076 43.1264 142.814 43.3411C142.553 43.5558 142.338 43.8731 142.17 44.2931H142.086V43.1731H140.896ZM146.83 43.1731V50.1731H148.02V43.1731H146.83ZM146.662 40.9611C146.662 41.1664 146.737 41.3438 146.886 41.4931C147.035 41.6424 147.213 41.7171 147.418 41.7171C147.623 41.7171 147.801 41.6424 147.95 41.4931C148.099 41.3438 148.174 41.1664 148.174 40.9611C148.174 40.7558 148.099 40.5784 147.95 40.4291C147.801 40.2798 147.623 40.2051 147.418 40.2051C147.213 40.2051 147.035 40.2798 146.886 40.4291C146.737 40.5784 146.662 40.7558 146.662 40.9611ZM149.989 43.1731L152.901 50.1731H153.741L156.569 43.1731H155.911L153.643 48.7871H153.559L151.221 43.1731H149.989ZM164.322 46.9811V46.6871C164.322 46.0618 164.233 45.5204 164.056 45.0631C163.878 44.6058 163.636 44.2278 163.328 43.9291C163.029 43.6304 162.679 43.4064 162.278 43.2571C161.876 43.1078 161.452 43.0331 161.004 43.0331C160.528 43.0331 160.089 43.1171 159.688 43.2851C159.286 43.4438 158.936 43.6818 158.638 43.9991C158.339 44.3071 158.106 44.6851 157.938 45.1331C157.77 45.5718 157.686 46.0711 157.686 46.6311C157.686 47.0978 157.756 47.5551 157.896 48.0031C158.045 48.4418 158.264 48.8384 158.554 49.1931C158.852 49.5384 159.226 49.8184 159.674 50.0331C160.131 50.2384 160.668 50.3411 161.284 50.3411C161.881 50.3411 162.432 50.2384 162.936 50.0331C163.44 49.8184 163.878 49.5151 164.252 49.1231L163.804 48.6751C163.608 48.8431 163.421 48.9971 163.244 49.1371C163.076 49.2771 162.903 49.3938 162.726 49.4871C162.548 49.5804 162.362 49.6551 162.166 49.7111C161.979 49.7578 161.769 49.7811 161.536 49.7811C161.274 49.7811 160.994 49.7438 160.696 49.6691C160.406 49.5851 160.136 49.4404 159.884 49.2351C159.632 49.0298 159.422 48.7451 159.254 48.3811C159.086 48.0171 159.002 47.5504 159.002 46.9811H164.322ZM159.002 46.4211C159.002 46.0478 159.039 45.6884 159.114 45.3431C159.198 44.9884 159.319 44.6758 159.478 44.4051C159.646 44.1344 159.856 43.9198 160.108 43.7611C160.36 43.5931 160.658 43.5091 161.004 43.5091C161.666 43.5091 162.18 43.7704 162.544 44.2931C162.917 44.8064 163.104 45.5158 163.104 46.4211H159.002ZM166.285 49.5711C166.285 49.3658 166.359 49.1884 166.509 49.0391C166.658 48.8898 166.835 48.8151 167.041 48.8151C167.246 48.8151 167.423 48.8898 167.573 49.0391C167.722 49.1884 167.797 49.3658 167.797 49.5711C167.797 49.7764 167.722 49.9538 167.573 50.1031C167.423 50.2524 167.246 50.3271 167.041 50.3271C166.835 50.3271 166.658 50.2524 166.509 50.1031C166.359 49.9538 166.285 49.7764 166.285 49.5711Z" fill="#555555"/>
</svg>
