<svg width="297" height="39" viewBox="0 0 297 39" fill="none" xmlns="http://www.w3.org/2000/svg">
<path d="M1.148 4.78808L1.582 3.40208L0.42 2.53408H1.89L2.324 1.13408L2.786 2.53408H4.242L3.052 3.40208L3.514 4.78808L2.324 3.90608L1.148 4.78808ZM10.2481 5.53008C10.2481 5.27808 10.1828 5.04475 10.0521 4.83008C9.92144 4.61542 9.73944 4.43342 9.50611 4.28408C9.28211 4.12542 9.01611 4.00408 8.70811 3.92008C8.40944 3.82675 8.08744 3.78008 7.74211 3.78008C7.41544 3.78008 7.10744 3.82208 6.81811 3.90608C6.53811 3.99008 6.29078 4.11608 6.07611 4.28408C5.87078 4.45208 5.70744 4.66208 5.58611 4.91408C5.46478 5.15675 5.40411 5.44142 5.40411 5.76808C5.40411 6.21608 5.50678 6.57075 5.71211 6.83208C5.91744 7.09342 6.17411 7.30342 6.48211 7.46208C6.79011 7.62075 7.12144 7.75142 7.47611 7.85408C7.84011 7.94742 8.17611 8.05475 8.48411 8.17608C8.79211 8.28808 9.04878 8.43275 9.25411 8.61008C9.45944 8.78742 9.56211 9.03008 9.56211 9.33808C9.56211 9.46875 9.53878 9.60408 9.49211 9.74408C9.45478 9.88408 9.38011 10.0147 9.26811 10.1361C9.15611 10.2481 9.00211 10.3461 8.80611 10.4301C8.61011 10.5047 8.36278 10.5421 8.06411 10.5421C7.69078 10.5421 7.37344 10.4861 7.11211 10.3741C6.86011 10.2527 6.65011 10.1127 6.48211 9.95408C6.32344 9.78608 6.20678 9.61808 6.13211 9.45008C6.06678 9.28208 6.03411 9.14208 6.03411 9.03008H5.12411C5.12411 9.29142 5.18478 9.54808 5.30611 9.80008C5.42744 10.0427 5.60944 10.2621 5.85211 10.4581C6.10411 10.6541 6.40744 10.8127 6.76211 10.9341C7.12611 11.0461 7.54611 11.1021 8.02211 11.1021C8.88078 11.1021 9.52478 10.9154 9.95411 10.5421C10.3928 10.1594 10.6121 9.66008 10.6121 9.04408C10.6121 8.59608 10.5048 8.23675 10.2901 7.96608C10.0848 7.69542 9.82344 7.48075 9.50611 7.32208C9.18878 7.15408 8.84344 7.01875 8.47011 6.91608C8.10611 6.81342 7.76544 6.70608 7.44811 6.59408C7.13078 6.48208 6.86478 6.34675 6.65011 6.18808C6.44478 6.02942 6.34211 5.80542 6.34211 5.51608C6.34211 5.39475 6.36544 5.26875 6.41211 5.13808C6.45878 4.99808 6.53811 4.87208 6.65011 4.76008C6.76211 4.63875 6.91144 4.54075 7.09811 4.46608C7.28478 4.38208 7.51811 4.34008 7.79811 4.34008C8.07811 4.34008 8.32078 4.38208 8.52611 4.46608C8.73144 4.54075 8.90411 4.63875 9.04411 4.76008C9.18411 4.87208 9.28678 4.99808 9.35211 5.13808C9.41744 5.27808 9.45011 5.40875 9.45011 5.53008H10.2481ZM12.5087 1.13408V10.9341H13.6987V6.88808C13.6987 6.70142 13.7127 6.47275 13.7407 6.20208C13.7687 5.93142 13.8433 5.67008 13.9647 5.41808C14.0953 5.16608 14.2867 4.95141 14.5387 4.77408C14.7907 4.58742 15.1407 4.49408 15.5887 4.49408C15.906 4.49408 16.158 4.55475 16.3447 4.67608C16.5407 4.78808 16.69 4.94208 16.7927 5.13808C16.8953 5.33408 16.9607 5.56275 16.9887 5.82408C17.026 6.08542 17.0447 6.35608 17.0447 6.63608V10.9341H18.2347V6.31408C18.2347 5.79142 18.16 5.36675 18.0107 5.04008C17.8613 4.70408 17.6747 4.44275 17.4507 4.25608C17.2267 4.06942 16.9793 3.94342 16.7087 3.87808C16.4473 3.81275 16.1953 3.78008 15.9527 3.78008C15.626 3.78008 15.2807 3.84541 14.9167 3.97608C14.562 4.09742 14.226 4.33542 13.9087 4.69008L13.7547 4.88608H13.6987V1.13408H12.5087ZM20.9274 3.93408V10.9341H22.1174V3.93408H20.9274ZM20.7594 1.72208C20.7594 1.92741 20.834 2.10475 20.9834 2.25408C21.1327 2.40342 21.31 2.47808 21.5154 2.47808C21.7207 2.47808 21.898 2.40342 22.0474 2.25408C22.1967 2.10475 22.2714 1.92741 22.2714 1.72208C22.2714 1.51675 22.1967 1.33942 22.0474 1.19008C21.898 1.04075 21.7207 0.966082 21.5154 0.966082C21.31 0.966082 21.1327 1.04075 20.9834 1.19008C20.834 1.33942 20.7594 1.51675 20.7594 1.72208ZM24.786 14.4341H25.976V9.78608H26.032C26.1253 10.0287 26.2467 10.2341 26.396 10.4021C26.5547 10.5701 26.732 10.7054 26.928 10.8081C27.124 10.9107 27.3293 10.9854 27.544 11.0321C27.768 11.0787 27.992 11.1021 28.216 11.1021C28.6827 11.1021 29.112 11.0181 29.504 10.8501C29.896 10.6727 30.232 10.4254 30.512 10.1081C30.8013 9.79075 31.0253 9.40808 31.184 8.96008C31.3427 8.50275 31.422 7.99875 31.422 7.44808C31.422 6.88808 31.3427 6.38408 31.184 5.93608C31.0253 5.48808 30.8013 5.10542 30.512 4.78808C30.232 4.46141 29.896 4.21408 29.504 4.04608C29.112 3.86875 28.6827 3.78008 28.216 3.78008C27.1053 3.78008 26.3773 4.20941 26.032 5.06808H25.976V3.93408H24.786V14.4341ZM25.976 6.73408C25.976 6.42608 26.0227 6.13675 26.116 5.86608C26.2187 5.58608 26.3587 5.34808 26.536 5.15208C26.7133 4.94675 26.9187 4.78808 27.152 4.67608C27.3947 4.55475 27.6513 4.49408 27.922 4.49408C28.2113 4.49408 28.4867 4.55008 28.748 4.66208C29.0187 4.76475 29.252 4.93275 29.448 5.16608C29.644 5.39941 29.798 5.70275 29.91 6.07608C30.0313 6.44942 30.092 6.89742 30.092 7.42008C30.092 7.95208 30.0313 8.40475 29.91 8.77808C29.798 9.15142 29.6393 9.45942 29.434 9.70208C29.238 9.93542 29.0093 10.1081 28.748 10.2201C28.4867 10.3227 28.2113 10.3741 27.922 10.3741C27.6607 10.3741 27.4133 10.3227 27.18 10.2201C26.9467 10.1081 26.7413 9.94942 26.564 9.74408C26.3867 9.52942 26.242 9.27275 26.13 8.97408C26.0273 8.67542 25.976 8.33475 25.976 7.95208V6.73408ZM33.2352 14.4341H34.4252V9.78608H34.4812C34.5746 10.0287 34.6959 10.2341 34.8452 10.4021C35.0039 10.5701 35.1812 10.7054 35.3772 10.8081C35.5732 10.9107 35.7786 10.9854 35.9932 11.0321C36.2172 11.0787 36.4412 11.1021 36.6652 11.1021C37.1319 11.1021 37.5612 11.0181 37.9532 10.8501C38.3452 10.6727 38.6812 10.4254 38.9612 10.1081C39.2506 9.79075 39.4746 9.40808 39.6332 8.96008C39.7919 8.50275 39.8712 7.99875 39.8712 7.44808C39.8712 6.88808 39.7919 6.38408 39.6332 5.93608C39.4746 5.48808 39.2506 5.10542 38.9612 4.78808C38.6812 4.46141 38.3452 4.21408 37.9532 4.04608C37.5612 3.86875 37.1319 3.78008 36.6652 3.78008C35.5546 3.78008 34.8266 4.20941 34.4812 5.06808H34.4252V3.93408H33.2352V14.4341ZM34.4252 6.73408C34.4252 6.42608 34.4719 6.13675 34.5652 5.86608C34.6679 5.58608 34.8079 5.34808 34.9852 5.15208C35.1626 4.94675 35.3679 4.78808 35.6012 4.67608C35.8439 4.55475 36.1006 4.49408 36.3712 4.49408C36.6606 4.49408 36.9359 4.55008 37.1972 4.66208C37.4679 4.76475 37.7012 4.93275 37.8972 5.16608C38.0932 5.39941 38.2472 5.70275 38.3592 6.07608C38.4806 6.44942 38.5412 6.89742 38.5412 7.42008C38.5412 7.95208 38.4806 8.40475 38.3592 8.77808C38.2472 9.15142 38.0886 9.45942 37.8832 9.70208C37.6872 9.93542 37.4586 10.1081 37.1972 10.2201C36.9359 10.3227 36.6606 10.3741 36.3712 10.3741C36.1099 10.3741 35.8626 10.3227 35.6292 10.2201C35.3959 10.1081 35.1906 9.94942 35.0132 9.74408C34.8359 9.52942 34.6912 9.27275 34.5792 8.97408C34.4766 8.67542 34.4252 8.33475 34.4252 7.95208V6.73408ZM42.1325 3.93408V10.9341H43.3225V3.93408H42.1325ZM41.9645 1.72208C41.9645 1.92741 42.0391 2.10475 42.1885 2.25408C42.3378 2.40342 42.5151 2.47808 42.7205 2.47808C42.9258 2.47808 43.1031 2.40342 43.2525 2.25408C43.4018 2.10475 43.4765 1.92741 43.4765 1.72208C43.4765 1.51675 43.4018 1.33942 43.2525 1.19008C43.1031 1.04075 42.9258 0.966082 42.7205 0.966082C42.5151 0.966082 42.3378 1.04075 42.1885 1.19008C42.0391 1.33942 41.9645 1.51675 41.9645 1.72208ZM51.8431 10.9341V6.39808C51.8431 6.23008 51.8291 6.00142 51.8011 5.71208C51.7731 5.41341 51.6798 5.12408 51.5211 4.84408C51.3718 4.55475 51.1291 4.30742 50.7931 4.10208C50.4571 3.88741 49.9811 3.78008 49.3651 3.78008C49.0944 3.77075 48.7911 3.82675 48.4551 3.94808C48.1191 4.06008 47.7878 4.27942 47.4611 4.60608L47.2371 4.83008H47.1811V3.93408H45.9911V10.9341H47.1811V6.60808C47.1811 6.24408 47.2324 5.93142 47.3351 5.67008C47.4378 5.40875 47.5778 5.18942 47.7551 5.01208C47.9324 4.83475 48.1331 4.70408 48.3571 4.62008C48.5904 4.53608 48.8284 4.49408 49.0711 4.49408C49.4631 4.49408 49.7664 4.57342 49.9811 4.73208C50.1958 4.88142 50.3498 5.05875 50.4431 5.26408C50.5458 5.46942 50.6064 5.67475 50.6251 5.88008C50.6438 6.08542 50.6531 6.23475 50.6531 6.32808V10.9341H51.8431ZM59.1239 11.5221C59.1239 11.9514 59.0725 12.3154 58.9699 12.6141C58.8672 12.9127 58.7225 13.1554 58.5359 13.3421C58.3585 13.5287 58.1439 13.6641 57.8919 13.7481C57.6492 13.8321 57.3879 13.8741 57.1079 13.8741C56.6132 13.8741 56.2119 13.7481 55.9039 13.4961C55.6052 13.2441 55.3299 12.9081 55.0779 12.4881L54.3079 13.1881C54.3732 13.2721 54.4759 13.3794 54.6159 13.5101C54.7559 13.6501 54.9332 13.7854 55.1479 13.9161C55.3625 14.0561 55.6192 14.1727 55.9179 14.2661C56.2165 14.3687 56.5572 14.4201 56.9399 14.4201C57.6492 14.4201 58.2232 14.3174 58.6619 14.1121C59.1005 13.9161 59.4412 13.6501 59.6839 13.3141C59.9265 12.9781 60.0899 12.5907 60.1739 12.1521C60.2672 11.7227 60.3139 11.2747 60.3139 10.8081V3.93408H59.1239V5.02608H59.0679C58.9559 4.63408 58.7132 4.33075 58.3399 4.11608C57.9759 3.89208 57.4952 3.78008 56.8979 3.78008C56.4219 3.78008 55.9879 3.86875 55.5959 4.04608C55.2039 4.21408 54.8679 4.45675 54.5879 4.77408C54.3079 5.09142 54.0885 5.47408 53.9299 5.92208C53.7805 6.37008 53.7059 6.86942 53.7059 7.42008C53.7059 7.98008 53.7805 8.48875 53.9299 8.94608C54.0885 9.39408 54.3079 9.78142 54.5879 10.1081C54.8679 10.4254 55.1992 10.6727 55.5819 10.8501C55.9739 11.0181 56.4079 11.1021 56.8839 11.1021C57.4065 11.1021 57.8592 10.9994 58.2419 10.7941C58.6339 10.5887 58.9092 10.2621 59.0679 9.81408H59.1239V11.5221ZM59.1239 7.95208C59.1239 8.34408 59.0679 8.68942 58.9559 8.98808C58.8532 9.28675 58.7132 9.53875 58.5359 9.74408C58.3585 9.94942 58.1532 10.1081 57.9199 10.2201C57.6865 10.3227 57.4439 10.3741 57.1919 10.3741C56.9679 10.3741 56.7252 10.3367 56.4639 10.2621C56.2119 10.1781 55.9739 10.0287 55.7499 9.81408C55.5352 9.59942 55.3532 9.29608 55.2039 8.90408C55.0639 8.51208 54.9939 8.00808 54.9939 7.39208C54.9939 6.73875 55.0825 6.22075 55.2599 5.83808C55.4372 5.44608 55.6425 5.14742 55.8759 4.94208C56.1185 4.73675 56.3612 4.60608 56.6039 4.55008C56.8559 4.48475 57.0519 4.45208 57.1919 4.45208C57.4999 4.45208 57.7752 4.52208 58.0179 4.66208C58.2605 4.79275 58.4612 4.97475 58.6199 5.20808C58.7879 5.43208 58.9139 5.69342 58.9979 5.99208C59.0819 6.29075 59.1239 6.59875 59.1239 6.91608V7.95208ZM70.9563 10.3741C70.6203 10.3741 70.2936 10.3227 69.9763 10.2201C69.6683 10.1174 69.3929 9.95408 69.1503 9.73008C68.9076 9.49675 68.7116 9.19342 68.5623 8.82008C68.4223 8.43742 68.3523 7.97075 68.3523 7.42008C68.3523 6.85075 68.4316 6.37008 68.5903 5.97808C68.7489 5.57675 68.9449 5.25942 69.1783 5.02608C69.4209 4.78342 69.6869 4.61075 69.9763 4.50808C70.2656 4.39608 70.5409 4.34008 70.8023 4.34008C71.2316 4.34008 71.6049 4.45208 71.9223 4.67608C72.2396 4.90008 72.4496 5.17542 72.5523 5.50208H73.5183C73.4249 5.16608 73.2756 4.89075 73.0703 4.67608C72.8649 4.45208 72.6269 4.27475 72.3563 4.14408C72.0949 4.00408 71.8103 3.91075 71.5023 3.86408C71.2036 3.80808 70.9143 3.78008 70.6343 3.78008C70.0463 3.78008 69.5283 3.87808 69.0803 4.07408C68.6323 4.26075 68.2543 4.51741 67.9463 4.84408C67.6383 5.17075 67.4049 5.55342 67.2463 5.99208C67.0969 6.43075 67.0223 6.89742 67.0223 7.39208C67.0223 7.91475 67.1063 8.40475 67.2743 8.86208C67.4423 9.31008 67.6803 9.70208 67.9883 10.0381C68.3056 10.3647 68.6836 10.6261 69.1223 10.8221C69.5609 11.0087 70.0556 11.1021 70.6063 11.1021C71.2223 11.1021 71.7589 10.9994 72.2163 10.7941C72.6829 10.5887 73.0749 10.3647 73.3923 10.1221L72.9863 9.59008C72.6596 9.86075 72.3329 10.0614 72.0063 10.1921C71.6889 10.3134 71.3389 10.3741 70.9563 10.3741ZM75.0575 1.13408V10.9341H76.2475V6.88808C76.2475 6.70142 76.2615 6.47275 76.2895 6.20208C76.3175 5.93142 76.3922 5.67008 76.5135 5.41808C76.6442 5.16608 76.8355 4.95141 77.0875 4.77408C77.3395 4.58742 77.6895 4.49408 78.1375 4.49408C78.4548 4.49408 78.7068 4.55475 78.8935 4.67608C79.0895 4.78808 79.2388 4.94208 79.3415 5.13808C79.4442 5.33408 79.5095 5.56275 79.5375 5.82408C79.5748 6.08542 79.5935 6.35608 79.5935 6.63608V10.9341H80.7835V6.31408C80.7835 5.79142 80.7088 5.36675 80.5595 5.04008C80.4102 4.70408 80.2235 4.44275 79.9995 4.25608C79.7755 4.06942 79.5282 3.94342 79.2575 3.87808C78.9962 3.81275 78.7442 3.78008 78.5015 3.78008C78.1748 3.78008 77.8295 3.84541 77.4655 3.97608C77.1108 4.09742 76.7748 4.33542 76.4575 4.69008L76.3035 4.88608H76.2475V1.13408H75.0575ZM85.6042 3.78008C86.2855 3.78008 86.8129 3.87808 87.1862 4.07408C87.5595 4.26075 87.8302 4.50808 87.9982 4.81608C88.1755 5.12408 88.2782 5.47875 88.3062 5.88008C88.3342 6.28142 88.3482 6.69208 88.3482 7.11208V10.9341H87.2142V10.2481C86.9435 10.5094 86.5982 10.7194 86.1782 10.8781C85.7582 11.0274 85.3382 11.1021 84.9182 11.1021C84.5169 11.1021 84.1622 11.0321 83.8542 10.8921C83.5462 10.7521 83.2895 10.5701 83.0842 10.3461C82.8789 10.1221 82.7249 9.87008 82.6222 9.59008C82.5195 9.31008 82.4682 9.02542 82.4682 8.73608C82.4682 8.43742 82.5242 8.13875 82.6362 7.84008C82.7482 7.54142 82.9162 7.27542 83.1402 7.04208C83.3642 6.79942 83.6395 6.60342 83.9662 6.45408C84.2929 6.30475 84.6662 6.23008 85.0862 6.23008C85.5062 6.23008 85.9029 6.31408 86.2762 6.48208C86.6589 6.64075 86.9715 6.86941 87.2142 7.16808V6.56608C87.2142 5.80075 87.0975 5.23142 86.8642 4.85808C86.6402 4.48475 86.2249 4.29808 85.6182 4.29808C85.3569 4.29808 85.1282 4.33075 84.9322 4.39608C84.7362 4.46142 84.5589 4.55475 84.4002 4.67608C84.2509 4.78808 84.1109 4.93275 83.9802 5.11008C83.8495 5.27808 83.7189 5.46941 83.5882 5.68408L82.8602 4.95608C82.9909 4.81608 83.1262 4.67608 83.2662 4.53608C83.4155 4.39608 83.5929 4.27008 83.7982 4.15808C84.0129 4.04608 84.2649 3.95742 84.5542 3.89208C84.8435 3.81741 85.1935 3.78008 85.6042 3.78008ZM87.2142 8.16208C87.1675 8.05008 87.0975 7.91942 87.0042 7.77008C86.9202 7.62075 86.8082 7.47608 86.6682 7.33608C86.5282 7.19608 86.3602 7.07942 86.1642 6.98608C85.9682 6.88342 85.7349 6.83208 85.4642 6.83208C85.1935 6.83208 84.9462 6.88808 84.7222 7.00008C84.4982 7.10275 84.3069 7.24275 84.1482 7.42008C83.9989 7.58808 83.8822 7.78875 83.7982 8.02208C83.7142 8.25542 83.6722 8.49808 83.6722 8.75008C83.6722 9.04875 83.7235 9.31008 83.8262 9.53408C83.9382 9.74875 84.0782 9.93542 84.2462 10.0941C84.4142 10.2434 84.6009 10.3554 84.8062 10.4301C85.0115 10.5047 85.2075 10.5421 85.3942 10.5421C85.5715 10.5421 85.7489 10.5094 85.9262 10.4441C86.1129 10.3787 86.2855 10.2901 86.4442 10.1781C86.6122 10.0567 86.7615 9.91675 86.8922 9.75808C87.0229 9.59942 87.1302 9.42675 87.2142 9.24008V8.16208ZM90.5888 3.93408V10.9341H91.7788V6.70608C91.7788 6.32342 91.8208 6.00142 91.9048 5.74008C91.9981 5.46942 92.1148 5.25008 92.2548 5.08208C92.3948 4.91408 92.5488 4.79275 92.7168 4.71808C92.8848 4.64341 93.0481 4.60608 93.2068 4.60608C93.4214 4.60608 93.6174 4.67608 93.7948 4.81608C93.9814 4.95608 94.1168 5.08675 94.2008 5.20808L94.6768 4.34008C94.5928 4.22808 94.4901 4.13475 94.3688 4.06008C94.2568 3.98542 94.1401 3.92942 94.0188 3.89208C93.9068 3.84542 93.7994 3.81742 93.6968 3.80808C93.6034 3.78942 93.5334 3.78008 93.4868 3.78008C93.0948 3.78008 92.7681 3.88741 92.5068 4.10208C92.2454 4.31675 92.0308 4.63408 91.8628 5.05408H91.7788V3.93408H90.5888ZM100.932 11.5221C100.932 11.9514 100.881 12.3154 100.778 12.6141C100.676 12.9127 100.531 13.1554 100.344 13.3421C100.167 13.5287 99.9525 13.6641 99.7005 13.7481C99.4578 13.8321 99.1965 13.8741 98.9165 13.8741C98.4218 13.8741 98.0205 13.7481 97.7125 13.4961C97.4138 13.2441 97.1385 12.9081 96.8865 12.4881L96.1165 13.1881C96.1818 13.2721 96.2845 13.3794 96.4245 13.5101C96.5645 13.6501 96.7418 13.7854 96.9565 13.9161C97.1711 14.0561 97.4278 14.1727 97.7265 14.2661C98.0251 14.3687 98.3658 14.4201 98.7485 14.4201C99.4578 14.4201 100.032 14.3174 100.47 14.1121C100.909 13.9161 101.25 13.6501 101.492 13.3141C101.735 12.9781 101.898 12.5907 101.982 12.1521C102.076 11.7227 102.122 11.2747 102.122 10.8081V3.93408H100.932V5.02608H100.876C100.764 4.63408 100.522 4.33075 100.148 4.11608C99.7845 3.89208 99.3038 3.78008 98.7065 3.78008C98.2305 3.78008 97.7965 3.86875 97.4045 4.04608C97.0125 4.21408 96.6765 4.45675 96.3965 4.77408C96.1165 5.09142 95.8971 5.47408 95.7385 5.92208C95.5891 6.37008 95.5145 6.86942 95.5145 7.42008C95.5145 7.98008 95.5891 8.48875 95.7385 8.94608C95.8971 9.39408 96.1165 9.78142 96.3965 10.1081C96.6765 10.4254 97.0078 10.6727 97.3905 10.8501C97.7825 11.0181 98.2165 11.1021 98.6925 11.1021C99.2151 11.1021 99.6678 10.9994 100.05 10.7941C100.442 10.5887 100.718 10.2621 100.876 9.81408H100.932V11.5221ZM100.932 7.95208C100.932 8.34408 100.876 8.68942 100.764 8.98808C100.662 9.28675 100.522 9.53875 100.344 9.74408C100.167 9.94942 99.9618 10.1081 99.7285 10.2201C99.4951 10.3227 99.2525 10.3741 99.0005 10.3741C98.7765 10.3741 98.5338 10.3367 98.2725 10.2621C98.0205 10.1781 97.7825 10.0287 97.5585 9.81408C97.3438 9.59942 97.1618 9.29608 97.0125 8.90408C96.8725 8.51208 96.8025 8.00808 96.8025 7.39208C96.8025 6.73875 96.8911 6.22075 97.0685 5.83808C97.2458 5.44608 97.4511 5.14742 97.6845 4.94208C97.9271 4.73675 98.1698 4.60608 98.4125 4.55008C98.6645 4.48475 98.8605 4.45208 99.0005 4.45208C99.3085 4.45208 99.5838 4.52208 99.8265 4.66208C100.069 4.79275 100.27 4.97475 100.428 5.20808C100.596 5.43208 100.722 5.69342 100.806 5.99208C100.89 6.29075 100.932 6.59875 100.932 6.91608V7.95208ZM110.572 7.74208V7.44808C110.572 6.82275 110.484 6.28142 110.306 5.82408C110.129 5.36675 109.886 4.98875 109.578 4.69008C109.28 4.39142 108.93 4.16742 108.528 4.01808C108.127 3.86875 107.702 3.79408 107.254 3.79408C106.778 3.79408 106.34 3.87808 105.938 4.04608C105.537 4.20475 105.187 4.44275 104.888 4.76008C104.59 5.06808 104.356 5.44608 104.188 5.89408C104.02 6.33275 103.936 6.83208 103.936 7.39208C103.936 7.85875 104.006 8.31608 104.146 8.76408C104.296 9.20275 104.515 9.59942 104.804 9.95408C105.103 10.2994 105.476 10.5794 105.924 10.7941C106.382 10.9994 106.918 11.1021 107.534 11.1021C108.132 11.1021 108.682 10.9994 109.186 10.7941C109.69 10.5794 110.129 10.2761 110.502 9.88408L110.054 9.43608C109.858 9.60408 109.672 9.75808 109.494 9.89808C109.326 10.0381 109.154 10.1547 108.976 10.2481C108.799 10.3414 108.612 10.4161 108.416 10.4721C108.23 10.5187 108.02 10.5421 107.786 10.5421C107.525 10.5421 107.245 10.5047 106.946 10.4301C106.657 10.3461 106.386 10.2014 106.134 9.99608C105.882 9.79075 105.672 9.50608 105.504 9.14208C105.336 8.77808 105.252 8.31142 105.252 7.74208H110.572ZM105.252 7.18208C105.252 6.80875 105.29 6.44941 105.364 6.10408C105.448 5.74942 105.57 5.43675 105.728 5.16608C105.896 4.89542 106.106 4.68075 106.358 4.52208C106.61 4.35408 106.909 4.27008 107.254 4.27008C107.917 4.27008 108.43 4.53142 108.794 5.05408C109.168 5.56742 109.354 6.27675 109.354 7.18208H105.252ZM116.861 5.53008C116.861 5.27808 116.796 5.04475 116.665 4.83008C116.535 4.61542 116.353 4.43342 116.119 4.28408C115.895 4.12542 115.629 4.00408 115.321 3.92008C115.023 3.82675 114.701 3.78008 114.355 3.78008C114.029 3.78008 113.721 3.82208 113.431 3.90608C113.151 3.99008 112.904 4.11608 112.689 4.28408C112.484 4.45208 112.321 4.66208 112.199 4.91408C112.078 5.15675 112.017 5.44142 112.017 5.76808C112.017 6.21608 112.12 6.57075 112.325 6.83208C112.531 7.09342 112.787 7.30342 113.095 7.46208C113.403 7.62075 113.735 7.75142 114.089 7.85408C114.453 7.94742 114.789 8.05475 115.097 8.17608C115.405 8.28808 115.662 8.43275 115.867 8.61008C116.073 8.78742 116.175 9.03008 116.175 9.33808C116.175 9.46875 116.152 9.60408 116.105 9.74408C116.068 9.88408 115.993 10.0147 115.881 10.1361C115.769 10.2481 115.615 10.3461 115.419 10.4301C115.223 10.5047 114.976 10.5421 114.677 10.5421C114.304 10.5421 113.987 10.4861 113.725 10.3741C113.473 10.2527 113.263 10.1127 113.095 9.95408C112.937 9.78608 112.82 9.61808 112.745 9.45008C112.68 9.28208 112.647 9.14208 112.647 9.03008H111.737C111.737 9.29142 111.798 9.54808 111.919 9.80008C112.041 10.0427 112.223 10.2621 112.465 10.4581C112.717 10.6541 113.021 10.8127 113.375 10.9341C113.739 11.0461 114.159 11.1021 114.635 11.1021C115.494 11.1021 116.138 10.9154 116.567 10.5421C117.006 10.1594 117.225 9.66008 117.225 9.04408C117.225 8.59608 117.118 8.23675 116.903 7.96608C116.698 7.69542 116.437 7.48075 116.119 7.32208C115.802 7.15408 115.457 7.01875 115.083 6.91608C114.719 6.81342 114.379 6.70608 114.061 6.59408C113.744 6.48208 113.478 6.34675 113.263 6.18808C113.058 6.02942 112.955 5.80542 112.955 5.51608C112.955 5.39475 112.979 5.26875 113.025 5.13808C113.072 4.99808 113.151 4.87208 113.263 4.76008C113.375 4.63875 113.525 4.54075 113.711 4.46608C113.898 4.38208 114.131 4.34008 114.411 4.34008C114.691 4.34008 114.934 4.38208 115.139 4.46608C115.345 4.54075 115.517 4.63875 115.657 4.76008C115.797 4.87208 115.9 4.99808 115.965 5.13808C116.031 5.27808 116.063 5.40875 116.063 5.53008H116.861ZM119.304 12.8381H118.842V9.22608H120.158L119.304 12.8381ZM126.871 4.49408V3.93408H128.089V1.77808H129.279V3.93408H130.973V4.49408H129.279V9.14208C129.279 9.25408 129.284 9.38475 129.293 9.53408C129.303 9.67408 129.331 9.80942 129.377 9.94008C129.424 10.0614 129.494 10.1641 129.587 10.2481C129.69 10.3321 129.83 10.3741 130.007 10.3741C130.231 10.3741 130.418 10.2901 130.567 10.1221C130.717 9.95408 130.838 9.77208 130.931 9.57608L131.589 10.2481C131.132 10.7054 130.614 10.9341 130.035 10.9341C129.793 10.9341 129.555 10.8921 129.321 10.8081C129.088 10.7241 128.878 10.5981 128.691 10.4301C128.514 10.2527 128.369 10.0287 128.257 9.75808C128.145 9.48742 128.089 9.17008 128.089 8.80608V4.49408H126.871ZM135.397 3.78008C136.079 3.78008 136.606 3.87808 136.979 4.07408C137.353 4.26075 137.623 4.50808 137.791 4.81608C137.969 5.12408 138.071 5.47875 138.099 5.88008C138.127 6.28142 138.141 6.69208 138.141 7.11208V10.9341H137.007V10.2481C136.737 10.5094 136.391 10.7194 135.971 10.8781C135.551 11.0274 135.131 11.1021 134.711 11.1021C134.31 11.1021 133.955 11.0321 133.647 10.8921C133.339 10.7521 133.083 10.5701 132.877 10.3461C132.672 10.1221 132.518 9.87008 132.415 9.59008C132.313 9.31008 132.261 9.02542 132.261 8.73608C132.261 8.43742 132.317 8.13875 132.429 7.84008C132.541 7.54142 132.709 7.27542 132.933 7.04208C133.157 6.79942 133.433 6.60342 133.759 6.45408C134.086 6.30475 134.459 6.23008 134.879 6.23008C135.299 6.23008 135.696 6.31408 136.069 6.48208C136.452 6.64075 136.765 6.86941 137.007 7.16808V6.56608C137.007 5.80075 136.891 5.23142 136.657 4.85808C136.433 4.48475 136.018 4.29808 135.411 4.29808C135.15 4.29808 134.921 4.33075 134.725 4.39608C134.529 4.46142 134.352 4.55475 134.193 4.67608C134.044 4.78808 133.904 4.93275 133.773 5.11008C133.643 5.27808 133.512 5.46941 133.381 5.68408L132.653 4.95608C132.784 4.81608 132.919 4.67608 133.059 4.53608C133.209 4.39608 133.386 4.27008 133.591 4.15808C133.806 4.04608 134.058 3.95742 134.347 3.89208C134.637 3.81741 134.987 3.78008 135.397 3.78008ZM137.007 8.16208C136.961 8.05008 136.891 7.91942 136.797 7.77008C136.713 7.62075 136.601 7.47608 136.461 7.33608C136.321 7.19608 136.153 7.07942 135.957 6.98608C135.761 6.88342 135.528 6.83208 135.257 6.83208C134.987 6.83208 134.739 6.88808 134.515 7.00008C134.291 7.10275 134.1 7.24275 133.941 7.42008C133.792 7.58808 133.675 7.78875 133.591 8.02208C133.507 8.25542 133.465 8.49808 133.465 8.75008C133.465 9.04875 133.517 9.31008 133.619 9.53408C133.731 9.74875 133.871 9.93542 134.039 10.0941C134.207 10.2434 134.394 10.3554 134.599 10.4301C134.805 10.5047 135.001 10.5421 135.187 10.5421C135.365 10.5421 135.542 10.5094 135.719 10.4441C135.906 10.3787 136.079 10.2901 136.237 10.1781C136.405 10.0567 136.555 9.91675 136.685 9.75808C136.816 9.59942 136.923 9.42675 137.007 9.24008V8.16208ZM142.706 8.03608L144.848 10.9341H146.276L143.42 7.09808L145.772 3.93408H144.96L143.014 6.55208L141.096 3.93408H139.682L142.3 7.49008L139.696 10.9341H140.522L142.706 8.03608ZM154.035 7.74208V7.44808C154.035 6.82275 153.947 6.28142 153.769 5.82408C153.592 5.36675 153.349 4.98875 153.041 4.69008C152.743 4.39142 152.393 4.16742 151.991 4.01808C151.59 3.86875 151.165 3.79408 150.717 3.79408C150.241 3.79408 149.803 3.87808 149.401 4.04608C149 4.20475 148.65 4.44275 148.351 4.76008C148.053 5.06808 147.819 5.44608 147.651 5.89408C147.483 6.33275 147.399 6.83208 147.399 7.39208C147.399 7.85875 147.469 8.31608 147.609 8.76408C147.759 9.20275 147.978 9.59942 148.267 9.95408C148.566 10.2994 148.939 10.5794 149.387 10.7941C149.845 10.9994 150.381 11.1021 150.997 11.1021C151.595 11.1021 152.145 10.9994 152.649 10.7941C153.153 10.5794 153.592 10.2761 153.965 9.88408L153.517 9.43608C153.321 9.60408 153.135 9.75808 152.957 9.89808C152.789 10.0381 152.617 10.1547 152.439 10.2481C152.262 10.3414 152.075 10.4161 151.879 10.4721C151.693 10.5187 151.483 10.5421 151.249 10.5421C150.988 10.5421 150.708 10.5047 150.409 10.4301C150.12 10.3461 149.849 10.2014 149.597 9.99608C149.345 9.79075 149.135 9.50608 148.967 9.14208C148.799 8.77808 148.715 8.31142 148.715 7.74208H154.035ZM148.715 7.18208C148.715 6.80875 148.753 6.44941 148.827 6.10408C148.911 5.74942 149.033 5.43675 149.191 5.16608C149.359 4.89542 149.569 4.68075 149.821 4.52208C150.073 4.35408 150.372 4.27008 150.717 4.27008C151.38 4.27008 151.893 4.53142 152.257 5.05408C152.631 5.56742 152.817 6.27675 152.817 7.18208H148.715ZM160.324 5.53008C160.324 5.27808 160.259 5.04475 160.128 4.83008C159.998 4.61542 159.816 4.43342 159.582 4.28408C159.358 4.12542 159.092 4.00408 158.784 3.92008C158.486 3.82675 158.164 3.78008 157.818 3.78008C157.492 3.78008 157.184 3.82208 156.894 3.90608C156.614 3.99008 156.367 4.11608 156.152 4.28408C155.947 4.45208 155.784 4.66208 155.662 4.91408C155.541 5.15675 155.48 5.44142 155.48 5.76808C155.48 6.21608 155.583 6.57075 155.788 6.83208C155.994 7.09342 156.25 7.30342 156.558 7.46208C156.866 7.62075 157.198 7.75142 157.552 7.85408C157.916 7.94742 158.252 8.05475 158.56 8.17608C158.868 8.28808 159.125 8.43275 159.33 8.61008C159.536 8.78742 159.638 9.03008 159.638 9.33808C159.638 9.46875 159.615 9.60408 159.568 9.74408C159.531 9.88408 159.456 10.0147 159.344 10.1361C159.232 10.2481 159.078 10.3461 158.882 10.4301C158.686 10.5047 158.439 10.5421 158.14 10.5421C157.767 10.5421 157.45 10.4861 157.188 10.3741C156.936 10.2527 156.726 10.1127 156.558 9.95408C156.4 9.78608 156.283 9.61808 156.208 9.45008C156.143 9.28208 156.11 9.14208 156.11 9.03008H155.2C155.2 9.29142 155.261 9.54808 155.382 9.80008C155.504 10.0427 155.686 10.2621 155.928 10.4581C156.18 10.6541 156.484 10.8127 156.838 10.9341C157.202 11.0461 157.622 11.1021 158.098 11.1021C158.957 11.1021 159.601 10.9154 160.03 10.5421C160.469 10.1594 160.688 9.66008 160.688 9.04408C160.688 8.59608 160.581 8.23675 160.366 7.96608C160.161 7.69542 159.9 7.48075 159.582 7.32208C159.265 7.15408 158.92 7.01875 158.546 6.91608C158.182 6.81342 157.842 6.70608 157.524 6.59408C157.207 6.48208 156.941 6.34675 156.726 6.18808C156.521 6.02942 156.418 5.80542 156.418 5.51608C156.418 5.39475 156.442 5.26875 156.488 5.13808C156.535 4.99808 156.614 4.87208 156.726 4.76008C156.838 4.63875 156.988 4.54075 157.174 4.46608C157.361 4.38208 157.594 4.34008 157.874 4.34008C158.154 4.34008 158.397 4.38208 158.602 4.46608C158.808 4.54075 158.98 4.63875 159.12 4.76008C159.26 4.87208 159.363 4.99808 159.428 5.13808C159.494 5.27808 159.526 5.40875 159.526 5.53008H160.324ZM170.055 3.78008C170.737 3.78008 171.264 3.87808 171.637 4.07408C172.011 4.26075 172.281 4.50808 172.449 4.81608C172.627 5.12408 172.729 5.47875 172.757 5.88008C172.785 6.28142 172.799 6.69208 172.799 7.11208V10.9341H171.665V10.2481C171.395 10.5094 171.049 10.7194 170.629 10.8781C170.209 11.0274 169.789 11.1021 169.369 11.1021C168.968 11.1021 168.613 11.0321 168.305 10.8921C167.997 10.7521 167.741 10.5701 167.535 10.3461C167.33 10.1221 167.176 9.87008 167.073 9.59008C166.971 9.31008 166.919 9.02542 166.919 8.73608C166.919 8.43742 166.975 8.13875 167.087 7.84008C167.199 7.54142 167.367 7.27542 167.591 7.04208C167.815 6.79942 168.091 6.60342 168.417 6.45408C168.744 6.30475 169.117 6.23008 169.537 6.23008C169.957 6.23008 170.354 6.31408 170.727 6.48208C171.11 6.64075 171.423 6.86941 171.665 7.16808V6.56608C171.665 5.80075 171.549 5.23142 171.315 4.85808C171.091 4.48475 170.676 4.29808 170.069 4.29808C169.808 4.29808 169.579 4.33075 169.383 4.39608C169.187 4.46142 169.01 4.55475 168.851 4.67608C168.702 4.78808 168.562 4.93275 168.431 5.11008C168.301 5.27808 168.17 5.46941 168.039 5.68408L167.311 4.95608C167.442 4.81608 167.577 4.67608 167.717 4.53608C167.867 4.39608 168.044 4.27008 168.249 4.15808C168.464 4.04608 168.716 3.95742 169.005 3.89208C169.295 3.81741 169.645 3.78008 170.055 3.78008ZM171.665 8.16208C171.619 8.05008 171.549 7.91942 171.455 7.77008C171.371 7.62075 171.259 7.47608 171.119 7.33608C170.979 7.19608 170.811 7.07942 170.615 6.98608C170.419 6.88342 170.186 6.83208 169.915 6.83208C169.645 6.83208 169.397 6.88808 169.173 7.00008C168.949 7.10275 168.758 7.24275 168.599 7.42008C168.45 7.58808 168.333 7.78875 168.249 8.02208C168.165 8.25542 168.123 8.49808 168.123 8.75008C168.123 9.04875 168.175 9.31008 168.277 9.53408C168.389 9.74875 168.529 9.93542 168.697 10.0941C168.865 10.2434 169.052 10.3554 169.257 10.4301C169.463 10.5047 169.659 10.5421 169.845 10.5421C170.023 10.5421 170.2 10.5094 170.377 10.4441C170.564 10.3787 170.737 10.2901 170.895 10.1781C171.063 10.0567 171.213 9.91675 171.343 9.75808C171.474 9.59942 171.581 9.42675 171.665 9.24008V8.16208ZM180.892 10.9341V6.39808C180.892 6.23008 180.878 6.00142 180.85 5.71208C180.822 5.41341 180.729 5.12408 180.57 4.84408C180.421 4.55475 180.178 4.30742 179.842 4.10208C179.506 3.88741 179.03 3.78008 178.414 3.78008C178.143 3.77075 177.84 3.82675 177.504 3.94808C177.168 4.06008 176.837 4.27942 176.51 4.60608L176.286 4.83008H176.23V3.93408H175.04V10.9341H176.23V6.60808C176.23 6.24408 176.281 5.93142 176.384 5.67008C176.487 5.40875 176.627 5.18942 176.804 5.01208C176.981 4.83475 177.182 4.70408 177.406 4.62008C177.639 4.53608 177.877 4.49408 178.12 4.49408C178.512 4.49408 178.815 4.57342 179.03 4.73208C179.245 4.88142 179.399 5.05875 179.492 5.26408C179.595 5.46942 179.655 5.67475 179.674 5.88008C179.693 6.08542 179.702 6.23475 179.702 6.32808V10.9341H180.892ZM189.391 1.13408H188.201V5.08208H188.145C188.051 4.83941 187.925 4.63875 187.767 4.48008C187.617 4.31208 187.445 4.17675 187.249 4.07408C187.053 3.97141 186.843 3.89675 186.619 3.85008C186.404 3.80341 186.185 3.78008 185.961 3.78008C185.494 3.78008 185.065 3.86875 184.673 4.04608C184.281 4.21408 183.94 4.45675 183.651 4.77408C183.371 5.09142 183.151 5.47408 182.993 5.92208C182.834 6.37008 182.755 6.86942 182.755 7.42008C182.755 7.98008 182.834 8.48875 182.993 8.94608C183.151 9.39408 183.371 9.78142 183.651 10.1081C183.94 10.4254 184.281 10.6727 184.673 10.8501C185.065 11.0181 185.494 11.1021 185.961 11.1021C187.062 11.1021 187.79 10.6681 188.145 9.80008H188.201V10.9341H189.391V1.13408ZM188.201 8.13408C188.201 8.44208 188.149 8.73608 188.047 9.01608C187.944 9.28675 187.804 9.52475 187.627 9.73008C187.459 9.92608 187.253 10.0847 187.011 10.2061C186.777 10.3181 186.525 10.3741 186.255 10.3741C185.956 10.3741 185.676 10.3227 185.415 10.2201C185.153 10.1081 184.925 9.93542 184.729 9.70208C184.533 9.46875 184.374 9.16542 184.253 8.79208C184.141 8.41875 184.085 7.97075 184.085 7.44808C184.085 6.91608 184.141 6.46342 184.253 6.09008C184.374 5.71675 184.533 5.41342 184.729 5.18008C184.934 4.93742 185.167 4.76475 185.429 4.66208C185.69 4.55008 185.965 4.49408 186.255 4.49408C186.516 4.49408 186.763 4.55008 186.997 4.66208C187.23 4.76475 187.435 4.92342 187.613 5.13808C187.79 5.34342 187.93 5.59542 188.033 5.89408C188.145 6.19275 188.201 6.53342 188.201 6.91608V8.13408ZM202.734 1.13408H201.544V5.08208H201.488C201.395 4.83941 201.269 4.63875 201.11 4.48008C200.961 4.31208 200.788 4.17675 200.592 4.07408C200.396 3.97141 200.186 3.89675 199.962 3.85008C199.748 3.80341 199.528 3.78008 199.304 3.78008C198.838 3.78008 198.408 3.86875 198.016 4.04608C197.624 4.21408 197.284 4.45675 196.994 4.77408C196.714 5.09142 196.495 5.47408 196.336 5.92208C196.178 6.37008 196.098 6.86942 196.098 7.42008C196.098 7.98008 196.178 8.48875 196.336 8.94608C196.495 9.39408 196.714 9.78142 196.994 10.1081C197.284 10.4254 197.624 10.6727 198.016 10.8501C198.408 11.0181 198.838 11.1021 199.304 11.1021C200.406 11.1021 201.134 10.6681 201.488 9.80008H201.544V10.9341H202.734V1.13408ZM201.544 8.13408C201.544 8.44208 201.493 8.73608 201.39 9.01608C201.288 9.28675 201.148 9.52475 200.97 9.73008C200.802 9.92608 200.597 10.0847 200.354 10.2061C200.121 10.3181 199.869 10.3741 199.598 10.3741C199.3 10.3741 199.02 10.3227 198.758 10.2201C198.497 10.1081 198.268 9.93542 198.072 9.70208C197.876 9.46875 197.718 9.16542 197.596 8.79208C197.484 8.41875 197.428 7.97075 197.428 7.44808C197.428 6.91608 197.484 6.46342 197.596 6.09008C197.718 5.71675 197.876 5.41342 198.072 5.18008C198.278 4.93742 198.511 4.76475 198.772 4.66208C199.034 4.55008 199.309 4.49408 199.598 4.49408C199.86 4.49408 200.107 4.55008 200.34 4.66208C200.574 4.76475 200.779 4.92342 200.956 5.13808C201.134 5.34342 201.274 5.59542 201.376 5.89408C201.488 6.19275 201.544 6.53342 201.544 6.91608V8.13408ZM205.416 3.93408V10.9341H206.606V3.93408H205.416ZM205.248 1.72208C205.248 1.92741 205.322 2.10475 205.472 2.25408C205.621 2.40342 205.798 2.47808 206.004 2.47808C206.209 2.47808 206.386 2.40342 206.536 2.25408C206.685 2.10475 206.76 1.92741 206.76 1.72208C206.76 1.51675 206.685 1.33942 206.536 1.19008C206.386 1.04075 206.209 0.966082 206.004 0.966082C205.798 0.966082 205.621 1.04075 205.472 1.19008C205.322 1.33942 205.248 1.51675 205.248 1.72208ZM213.74 5.53008C213.74 5.27808 213.675 5.04475 213.544 4.83008C213.414 4.61542 213.232 4.43342 212.998 4.28408C212.774 4.12542 212.508 4.00408 212.2 3.92008C211.902 3.82675 211.58 3.78008 211.234 3.78008C210.908 3.78008 210.6 3.82208 210.31 3.90608C210.03 3.99008 209.783 4.11608 209.568 4.28408C209.363 4.45208 209.2 4.66208 209.078 4.91408C208.957 5.15675 208.896 5.44142 208.896 5.76808C208.896 6.21608 208.999 6.57075 209.204 6.83208C209.41 7.09342 209.666 7.30342 209.974 7.46208C210.282 7.62075 210.614 7.75142 210.968 7.85408C211.332 7.94742 211.668 8.05475 211.976 8.17608C212.284 8.28808 212.541 8.43275 212.746 8.61008C212.952 8.78742 213.054 9.03008 213.054 9.33808C213.054 9.46875 213.031 9.60408 212.984 9.74408C212.947 9.88408 212.872 10.0147 212.76 10.1361C212.648 10.2481 212.494 10.3461 212.298 10.4301C212.102 10.5047 211.855 10.5421 211.556 10.5421C211.183 10.5421 210.866 10.4861 210.604 10.3741C210.352 10.2527 210.142 10.1127 209.974 9.95408C209.816 9.78608 209.699 9.61808 209.624 9.45008C209.559 9.28208 209.526 9.14208 209.526 9.03008H208.616C208.616 9.29142 208.677 9.54808 208.798 9.80008C208.92 10.0427 209.102 10.2621 209.344 10.4581C209.596 10.6541 209.9 10.8127 210.254 10.9341C210.618 11.0461 211.038 11.1021 211.514 11.1021C212.373 11.1021 213.017 10.9154 213.446 10.5421C213.885 10.1594 214.104 9.66008 214.104 9.04408C214.104 8.59608 213.997 8.23675 213.782 7.96608C213.577 7.69542 213.316 7.48075 212.998 7.32208C212.681 7.15408 212.336 7.01875 211.962 6.91608C211.598 6.81342 211.258 6.70608 210.94 6.59408C210.623 6.48208 210.357 6.34675 210.142 6.18808C209.937 6.02942 209.834 5.80542 209.834 5.51608C209.834 5.39475 209.858 5.26875 209.904 5.13808C209.951 4.99808 210.03 4.87208 210.142 4.76008C210.254 4.63875 210.404 4.54075 210.59 4.46608C210.777 4.38208 211.01 4.34008 211.29 4.34008C211.57 4.34008 211.813 4.38208 212.018 4.46608C212.224 4.54075 212.396 4.63875 212.536 4.76008C212.676 4.87208 212.779 4.99808 212.844 5.13808C212.91 5.27808 212.942 5.40875 212.942 5.53008H213.74ZM219.515 10.3741C219.179 10.3741 218.852 10.3227 218.535 10.2201C218.227 10.1174 217.952 9.95408 217.709 9.73008C217.466 9.49675 217.27 9.19342 217.121 8.82008C216.981 8.43742 216.911 7.97075 216.911 7.42008C216.911 6.85075 216.99 6.37008 217.149 5.97808C217.308 5.57675 217.504 5.25942 217.737 5.02608C217.98 4.78342 218.246 4.61075 218.535 4.50808C218.824 4.39608 219.1 4.34008 219.361 4.34008C219.79 4.34008 220.164 4.45208 220.481 4.67608C220.798 4.90008 221.008 5.17542 221.111 5.50208H222.077C221.984 5.16608 221.834 4.89075 221.629 4.67608C221.424 4.45208 221.186 4.27475 220.915 4.14408C220.654 4.00408 220.369 3.91075 220.061 3.86408C219.762 3.80808 219.473 3.78008 219.193 3.78008C218.605 3.78008 218.087 3.87808 217.639 4.07408C217.191 4.26075 216.813 4.51741 216.505 4.84408C216.197 5.17075 215.964 5.55342 215.805 5.99208C215.656 6.43075 215.581 6.89742 215.581 7.39208C215.581 7.91475 215.665 8.40475 215.833 8.86208C216.001 9.31008 216.239 9.70208 216.547 10.0381C216.864 10.3647 217.242 10.6261 217.681 10.8221C218.12 11.0087 218.614 11.1021 219.165 11.1021C219.781 11.1021 220.318 10.9994 220.775 10.7941C221.242 10.5887 221.634 10.3647 221.951 10.1221L221.545 9.59008C221.218 9.86075 220.892 10.0614 220.565 10.1921C220.248 10.3134 219.898 10.3741 219.515 10.3741ZM230.448 7.44808C230.448 7.93342 230.364 8.40008 230.196 8.84808C230.028 9.28675 229.785 9.67408 229.468 10.0101C229.16 10.3461 228.782 10.6121 228.334 10.8081C227.895 11.0041 227.401 11.1021 226.85 11.1021C226.29 11.1021 225.781 11.0041 225.324 10.8081C224.876 10.6027 224.493 10.3321 224.176 9.99608C223.868 9.66008 223.625 9.27275 223.448 8.83408C223.28 8.38608 223.196 7.92408 223.196 7.44808C223.196 6.96275 223.28 6.50075 223.448 6.06208C223.625 5.61408 223.868 5.22208 224.176 4.88608C224.493 4.55008 224.876 4.28408 225.324 4.08808C225.781 3.88275 226.29 3.78008 226.85 3.78008C227.401 3.78008 227.895 3.88275 228.334 4.08808C228.782 4.28408 229.16 4.55008 229.468 4.88608C229.785 5.22208 230.028 5.61408 230.196 6.06208C230.364 6.50075 230.448 6.96275 230.448 7.44808ZM229.118 7.44808C229.118 6.79475 229.048 6.26742 228.908 5.86608C228.768 5.45542 228.586 5.13808 228.362 4.91408C228.138 4.69008 227.891 4.54075 227.62 4.46608C227.349 4.38208 227.088 4.34008 226.836 4.34008C226.584 4.34008 226.323 4.38208 226.052 4.46608C225.781 4.54075 225.529 4.69008 225.296 4.91408C225.072 5.13808 224.885 5.45542 224.736 5.86608C224.596 6.26742 224.526 6.79475 224.526 7.44808C224.526 8.09208 224.596 8.61942 224.736 9.03008C224.885 9.43142 225.072 9.74408 225.296 9.96808C225.529 10.1921 225.781 10.3461 226.052 10.4301C226.323 10.5047 226.584 10.5421 226.836 10.5421C227.088 10.5421 227.349 10.5047 227.62 10.4301C227.891 10.3461 228.138 10.1921 228.362 9.96808C228.586 9.74408 228.768 9.43142 228.908 9.03008C229.048 8.61942 229.118 8.09208 229.118 7.44808ZM232.27 3.93408V8.48408C232.27 8.65208 232.284 8.88542 232.312 9.18408C232.35 9.47342 232.448 9.76275 232.606 10.0521C232.765 10.3321 233.012 10.5794 233.348 10.7941C233.694 10.9994 234.174 11.1021 234.79 11.1021C235.061 11.1114 235.355 11.0554 235.672 10.9341C235.999 10.8221 236.326 10.6027 236.652 10.2761L236.876 10.0521H236.932V10.9341H238.122V3.93408H236.932V8.27408C236.932 8.63808 236.881 8.95075 236.778 9.21208C236.676 9.47342 236.54 9.69275 236.372 9.87008C236.204 10.0381 236.008 10.1641 235.784 10.2481C235.56 10.3321 235.327 10.3741 235.084 10.3741C234.692 10.3741 234.384 10.2994 234.16 10.1501C233.946 9.99142 233.782 9.80942 233.67 9.60408C233.568 9.39875 233.507 9.19808 233.488 9.00208C233.47 8.79675 233.46 8.64742 233.46 8.55408V3.93408H232.27ZM246.257 10.9341V6.39808C246.257 6.23008 246.243 6.00142 246.215 5.71208C246.187 5.41341 246.094 5.12408 245.935 4.84408C245.786 4.55475 245.543 4.30742 245.207 4.10208C244.871 3.88741 244.395 3.78008 243.779 3.78008C243.508 3.77075 243.205 3.82675 242.869 3.94808C242.533 4.06008 242.202 4.27942 241.875 4.60608L241.651 4.83008H241.595V3.93408H240.405V10.9341H241.595V6.60808C241.595 6.24408 241.646 5.93142 241.749 5.67008C241.852 5.40875 241.992 5.18942 242.169 5.01208C242.346 4.83475 242.547 4.70408 242.771 4.62008C243.004 4.53608 243.242 4.49408 243.485 4.49408C243.877 4.49408 244.18 4.57342 244.395 4.73208C244.61 4.88142 244.764 5.05875 244.857 5.26408C244.96 5.46942 245.02 5.67475 245.039 5.88008C245.058 6.08542 245.067 6.23475 245.067 6.32808V10.9341H246.257ZM247.84 4.49408V3.93408H249.058V1.77808H250.248V3.93408H251.942V4.49408H250.248V9.14208C250.248 9.25408 250.253 9.38475 250.262 9.53408C250.271 9.67408 250.299 9.80942 250.346 9.94008C250.393 10.0614 250.463 10.1641 250.556 10.2481C250.659 10.3321 250.799 10.3741 250.976 10.3741C251.2 10.3741 251.387 10.2901 251.536 10.1221C251.685 9.95408 251.807 9.77208 251.9 9.57608L252.558 10.2481C252.101 10.7054 251.583 10.9341 251.004 10.9341C250.761 10.9341 250.523 10.8921 250.29 10.8081C250.057 10.7241 249.847 10.5981 249.66 10.4301C249.483 10.2527 249.338 10.0287 249.226 9.75808C249.114 9.48742 249.058 9.17008 249.058 8.80608V4.49408H247.84ZM262.198 10.3741C261.862 10.3741 261.536 10.3227 261.218 10.2201C260.91 10.1174 260.635 9.95408 260.392 9.73008C260.15 9.49675 259.954 9.19342 259.804 8.82008C259.664 8.43742 259.594 7.97075 259.594 7.42008C259.594 6.85075 259.674 6.37008 259.832 5.97808C259.991 5.57675 260.187 5.25942 260.42 5.02608C260.663 4.78342 260.929 4.61075 261.218 4.50808C261.508 4.39608 261.783 4.34008 262.044 4.34008C262.474 4.34008 262.847 4.45208 263.164 4.67608C263.482 4.90008 263.692 5.17542 263.794 5.50208H264.76C264.667 5.16608 264.518 4.89075 264.312 4.67608C264.107 4.45208 263.869 4.27475 263.598 4.14408C263.337 4.00408 263.052 3.91075 262.744 3.86408C262.446 3.80808 262.156 3.78008 261.876 3.78008C261.288 3.78008 260.77 3.87808 260.322 4.07408C259.874 4.26075 259.496 4.51741 259.188 4.84408C258.88 5.17075 258.647 5.55342 258.488 5.99208C258.339 6.43075 258.264 6.89742 258.264 7.39208C258.264 7.91475 258.348 8.40475 258.516 8.86208C258.684 9.31008 258.922 9.70208 259.23 10.0381C259.548 10.3647 259.926 10.6261 260.364 10.8221C260.803 11.0087 261.298 11.1021 261.848 11.1021C262.464 11.1021 263.001 10.9994 263.458 10.7941C263.925 10.5887 264.317 10.3647 264.634 10.1221L264.228 9.59008C263.902 9.86075 263.575 10.0614 263.248 10.1921C262.931 10.3134 262.581 10.3741 262.198 10.3741ZM273.132 7.44808C273.132 7.93342 273.048 8.40008 272.88 8.84808C272.712 9.28675 272.469 9.67408 272.152 10.0101C271.844 10.3461 271.466 10.6121 271.018 10.8081C270.579 11.0041 270.084 11.1021 269.534 11.1021C268.974 11.1021 268.465 11.0041 268.008 10.8081C267.56 10.6027 267.177 10.3321 266.86 9.99608C266.552 9.66008 266.309 9.27275 266.132 8.83408C265.964 8.38608 265.88 7.92408 265.88 7.44808C265.88 6.96275 265.964 6.50075 266.132 6.06208C266.309 5.61408 266.552 5.22208 266.86 4.88608C267.177 4.55008 267.56 4.28408 268.008 4.08808C268.465 3.88275 268.974 3.78008 269.534 3.78008C270.084 3.78008 270.579 3.88275 271.018 4.08808C271.466 4.28408 271.844 4.55008 272.152 4.88608C272.469 5.22208 272.712 5.61408 272.88 6.06208C273.048 6.50075 273.132 6.96275 273.132 7.44808ZM271.802 7.44808C271.802 6.79475 271.732 6.26742 271.592 5.86608C271.452 5.45542 271.27 5.13808 271.046 4.91408C270.822 4.69008 270.574 4.54075 270.304 4.46608C270.033 4.38208 269.772 4.34008 269.52 4.34008C269.268 4.34008 269.006 4.38208 268.736 4.46608C268.465 4.54075 268.213 4.69008 267.98 4.91408C267.756 5.13808 267.569 5.45542 267.42 5.86608C267.28 6.26742 267.21 6.79475 267.21 7.44808C267.21 8.09208 267.28 8.61942 267.42 9.03008C267.569 9.43142 267.756 9.74408 267.98 9.96808C268.213 10.1921 268.465 10.3461 268.736 10.4301C269.006 10.5047 269.268 10.5421 269.52 10.5421C269.772 10.5421 270.033 10.5047 270.304 10.4301C270.574 10.3461 270.822 10.1921 271.046 9.96808C271.27 9.74408 271.452 9.43142 271.592 9.03008C271.732 8.61942 271.802 8.09208 271.802 7.44808ZM281.17 1.13408H279.98V5.08208H279.924C279.831 4.83941 279.705 4.63875 279.546 4.48008C279.397 4.31208 279.224 4.17675 279.028 4.07408C278.832 3.97141 278.622 3.89675 278.398 3.85008C278.183 3.80341 277.964 3.78008 277.74 3.78008C277.273 3.78008 276.844 3.86875 276.452 4.04608C276.06 4.21408 275.719 4.45675 275.43 4.77408C275.15 5.09142 274.931 5.47408 274.772 5.92208C274.613 6.37008 274.534 6.86942 274.534 7.42008C274.534 7.98008 274.613 8.48875 274.772 8.94608C274.931 9.39408 275.15 9.78142 275.43 10.1081C275.719 10.4254 276.06 10.6727 276.452 10.8501C276.844 11.0181 277.273 11.1021 277.74 11.1021C278.841 11.1021 279.569 10.6681 279.924 9.80008H279.98V10.9341H281.17V1.13408ZM279.98 8.13408C279.98 8.44208 279.929 8.73608 279.826 9.01608C279.723 9.28675 279.583 9.52475 279.406 9.73008C279.238 9.92608 279.033 10.0847 278.79 10.2061C278.557 10.3181 278.305 10.3741 278.034 10.3741C277.735 10.3741 277.455 10.3227 277.194 10.2201C276.933 10.1081 276.704 9.93542 276.508 9.70208C276.312 9.46875 276.153 9.16542 276.032 8.79208C275.92 8.41875 275.864 7.97075 275.864 7.44808C275.864 6.91608 275.92 6.46342 276.032 6.09008C276.153 5.71675 276.312 5.41342 276.508 5.18008C276.713 4.93742 276.947 4.76475 277.208 4.66208C277.469 4.55008 277.745 4.49408 278.034 4.49408C278.295 4.49408 278.543 4.55008 278.776 4.66208C279.009 4.76475 279.215 4.92342 279.392 5.13808C279.569 5.34342 279.709 5.59542 279.812 5.89408C279.924 6.19275 279.98 6.53342 279.98 6.91608V8.13408ZM289.619 7.74208V7.44808C289.619 6.82275 289.531 6.28142 289.353 5.82408C289.176 5.36675 288.933 4.98875 288.625 4.69008C288.327 4.39142 287.977 4.16742 287.575 4.01808C287.174 3.86875 286.749 3.79408 286.301 3.79408C285.825 3.79408 285.387 3.87808 284.985 4.04608C284.584 4.20475 284.234 4.44275 283.935 4.76008C283.637 5.06808 283.403 5.44608 283.235 5.89408C283.067 6.33275 282.983 6.83208 282.983 7.39208C282.983 7.85875 283.053 8.31608 283.193 8.76408C283.343 9.20275 283.562 9.59942 283.851 9.95408C284.15 10.2994 284.523 10.5794 284.971 10.7941C285.429 10.9994 285.965 11.1021 286.581 11.1021C287.179 11.1021 287.729 10.9994 288.233 10.7941C288.737 10.5794 289.176 10.2761 289.549 9.88408L289.101 9.43608C288.905 9.60408 288.719 9.75808 288.541 9.89808C288.373 10.0381 288.201 10.1547 288.023 10.2481C287.846 10.3414 287.659 10.4161 287.463 10.4721C287.277 10.5187 287.067 10.5421 286.833 10.5421C286.572 10.5421 286.292 10.5047 285.993 10.4301C285.704 10.3461 285.433 10.2014 285.181 9.99608C284.929 9.79075 284.719 9.50608 284.551 9.14208C284.383 8.77808 284.299 8.31142 284.299 7.74208H289.619ZM284.299 7.18208C284.299 6.80875 284.337 6.44941 284.411 6.10408C284.495 5.74942 284.617 5.43675 284.775 5.16608C284.943 4.89542 285.153 4.68075 285.405 4.52208C285.657 4.35408 285.956 4.27008 286.301 4.27008C286.964 4.27008 287.477 4.53142 287.841 5.05408C288.215 5.56742 288.401 6.27675 288.401 7.18208H284.299ZM295.908 5.53008C295.908 5.27808 295.843 5.04475 295.712 4.83008C295.582 4.61542 295.4 4.43342 295.166 4.28408C294.942 4.12542 294.676 4.00408 294.368 3.92008C294.07 3.82675 293.748 3.78008 293.402 3.78008C293.076 3.78008 292.768 3.82208 292.478 3.90608C292.198 3.99008 291.951 4.11608 291.736 4.28408C291.531 4.45208 291.368 4.66208 291.246 4.91408C291.125 5.15675 291.064 5.44142 291.064 5.76808C291.064 6.21608 291.167 6.57075 291.372 6.83208C291.578 7.09342 291.834 7.30342 292.142 7.46208C292.45 7.62075 292.782 7.75142 293.136 7.85408C293.5 7.94742 293.836 8.05475 294.144 8.17608C294.452 8.28808 294.709 8.43275 294.914 8.61008C295.12 8.78742 295.222 9.03008 295.222 9.33808C295.222 9.46875 295.199 9.60408 295.152 9.74408C295.115 9.88408 295.04 10.0147 294.928 10.1361C294.816 10.2481 294.662 10.3461 294.466 10.4301C294.27 10.5047 294.023 10.5421 293.724 10.5421C293.351 10.5421 293.034 10.4861 292.772 10.3741C292.52 10.2527 292.31 10.1127 292.142 9.95408C291.984 9.78608 291.867 9.61808 291.792 9.45008C291.727 9.28208 291.694 9.14208 291.694 9.03008H290.784C290.784 9.29142 290.845 9.54808 290.966 9.80008C291.088 10.0427 291.27 10.2621 291.512 10.4581C291.764 10.6541 292.068 10.8127 292.422 10.9341C292.786 11.0461 293.206 11.1021 293.682 11.1021C294.541 11.1021 295.185 10.9154 295.614 10.5421C296.053 10.1594 296.272 9.66008 296.272 9.04408C296.272 8.59608 296.165 8.23675 295.95 7.96608C295.745 7.69542 295.484 7.48075 295.166 7.32208C294.849 7.15408 294.504 7.01875 294.13 6.91608C293.766 6.81342 293.426 6.70608 293.108 6.59408C292.791 6.48208 292.525 6.34675 292.31 6.18808C292.105 6.02942 292.002 5.80542 292.002 5.51608C292.002 5.39475 292.026 5.26875 292.072 5.13808C292.119 4.99808 292.198 4.87208 292.31 4.76008C292.422 4.63875 292.572 4.54075 292.758 4.46608C292.945 4.38208 293.178 4.34008 293.458 4.34008C293.738 4.34008 293.981 4.38208 294.186 4.46608C294.392 4.54075 294.564 4.63875 294.704 4.76008C294.844 4.87208 294.947 4.99808 295.012 5.13808C295.078 5.27808 295.11 5.40875 295.11 5.53008H295.908ZM3.696 27.7801C4.37733 27.7801 4.90467 27.8781 5.278 28.0741C5.65133 28.2607 5.922 28.5081 6.09 28.8161C6.26733 29.1241 6.37 29.4787 6.398 29.8801C6.426 30.2814 6.44 30.6921 6.44 31.1121V34.9341H5.306V34.2481C5.03533 34.5094 4.69 34.7194 4.27 34.8781C3.85 35.0274 3.43 35.1021 3.01 35.1021C2.60867 35.1021 2.254 35.0321 1.946 34.8921C1.638 34.7521 1.38133 34.5701 1.176 34.3461C0.970667 34.1221 0.816667 33.8701 0.714 33.5901C0.611333 33.3101 0.56 33.0254 0.56 32.7361C0.56 32.4374 0.616 32.1387 0.728 31.8401C0.84 31.5414 1.008 31.2754 1.232 31.0421C1.456 30.7994 1.73133 30.6034 2.058 30.4541C2.38467 30.3047 2.758 30.2301 3.178 30.2301C3.598 30.2301 3.99467 30.3141 4.368 30.4821C4.75067 30.6407 5.06333 30.8694 5.306 31.1681V30.5661C5.306 29.8007 5.18933 29.2314 4.956 28.8581C4.732 28.4847 4.31667 28.2981 3.71 28.2981C3.44867 28.2981 3.22 28.3307 3.024 28.3961C2.828 28.4614 2.65067 28.5547 2.492 28.6761C2.34267 28.7881 2.20267 28.9327 2.072 29.1101C1.94133 29.2781 1.81067 29.4694 1.68 29.6841L0.952 28.9561C1.08267 28.8161 1.218 28.6761 1.358 28.5361C1.50733 28.3961 1.68467 28.2701 1.89 28.1581C2.10467 28.0461 2.35667 27.9574 2.646 27.8921C2.93533 27.8174 3.28533 27.7801 3.696 27.7801ZM5.306 32.1621C5.25933 32.0501 5.18933 31.9194 5.096 31.7701C5.012 31.6207 4.9 31.4761 4.76 31.3361C4.62 31.1961 4.452 31.0794 4.256 30.9861C4.06 30.8834 3.82667 30.8321 3.556 30.8321C3.28533 30.8321 3.038 30.8881 2.814 31.0001C2.59 31.1027 2.39867 31.2427 2.24 31.4201C2.09067 31.5881 1.974 31.7887 1.89 32.0221C1.806 32.2554 1.764 32.4981 1.764 32.7501C1.764 33.0487 1.81533 33.3101 1.918 33.5341C2.03 33.7487 2.17 33.9354 2.338 34.0941C2.506 34.2434 2.69267 34.3554 2.898 34.4301C3.10333 34.5047 3.29933 34.5421 3.486 34.5421C3.66333 34.5421 3.84067 34.5094 4.018 34.4441C4.20467 34.3787 4.37733 34.2901 4.536 34.1781C4.704 34.0567 4.85333 33.9167 4.984 33.7581C5.11467 33.5994 5.222 33.4267 5.306 33.2401V32.1621ZM8.68055 27.9341V34.9341H9.87055V30.7061C9.87055 30.3234 9.91255 30.0014 9.99655 29.7401C10.0899 29.4694 10.2065 29.2501 10.3465 29.0821C10.4865 28.9141 10.6405 28.7927 10.8085 28.7181C10.9765 28.6434 11.1399 28.6061 11.2985 28.6061C11.5132 28.6061 11.7092 28.6761 11.8865 28.8161C12.0732 28.9561 12.2085 29.0867 12.2925 29.2081L12.7685 28.3401C12.6845 28.2281 12.5819 28.1347 12.4605 28.0601C12.3485 27.9854 12.2319 27.9294 12.1105 27.8921C11.9985 27.8454 11.8912 27.8174 11.7885 27.8081C11.6952 27.7894 11.6252 27.7801 11.5785 27.7801C11.1865 27.7801 10.8599 27.8874 10.5985 28.1021C10.3372 28.3167 10.1225 28.6341 9.95455 29.0541H9.87055V27.9341H8.68055ZM20.2423 31.7421V31.4481C20.2423 30.8227 20.1536 30.2814 19.9762 29.8241C19.7989 29.3667 19.5563 28.9887 19.2483 28.6901C18.9496 28.3914 18.5996 28.1674 18.1983 28.0181C17.7969 27.8687 17.3723 27.7941 16.9243 27.7941C16.4483 27.7941 16.0096 27.8781 15.6083 28.0461C15.2069 28.2047 14.8569 28.4427 14.5583 28.7601C14.2596 29.0681 14.0263 29.4461 13.8583 29.8941C13.6903 30.3327 13.6063 30.8321 13.6063 31.3921C13.6063 31.8587 13.6763 32.3161 13.8163 32.7641C13.9656 33.2027 14.1849 33.5994 14.4743 33.9541C14.7729 34.2994 15.1463 34.5794 15.5943 34.7941C16.0516 34.9994 16.5883 35.1021 17.2043 35.1021C17.8016 35.1021 18.3523 34.9994 18.8563 34.7941C19.3603 34.5794 19.7989 34.2761 20.1723 33.8841L19.7243 33.4361C19.5283 33.6041 19.3416 33.7581 19.1643 33.8981C18.9963 34.0381 18.8236 34.1547 18.6463 34.2481C18.4689 34.3414 18.2823 34.4161 18.0863 34.4721C17.8996 34.5187 17.6896 34.5421 17.4563 34.5421C17.1949 34.5421 16.9149 34.5047 16.6163 34.4301C16.3269 34.3461 16.0563 34.2014 15.8043 33.9961C15.5523 33.7907 15.3423 33.5061 15.1743 33.1421C15.0063 32.7781 14.9223 32.3114 14.9223 31.7421H20.2423ZM14.9223 31.1821C14.9223 30.8087 14.9596 30.4494 15.0343 30.1041C15.1183 29.7494 15.2396 29.4367 15.3983 29.1661C15.5663 28.8954 15.7763 28.6807 16.0283 28.5221C16.2803 28.3541 16.5789 28.2701 16.9243 28.2701C17.5869 28.2701 18.1003 28.5314 18.4643 29.0541C18.8376 29.5674 19.0243 30.2767 19.0243 31.1821H14.9223ZM30.4738 34.3741C30.1378 34.3741 29.8112 34.3227 29.4938 34.2201C29.1858 34.1174 28.9105 33.9541 28.6678 33.7301C28.4252 33.4967 28.2292 33.1934 28.0798 32.8201C27.9398 32.4374 27.8698 31.9707 27.8698 31.4201C27.8698 30.8507 27.9492 30.3701 28.1078 29.9781C28.2665 29.5767 28.4625 29.2594 28.6958 29.0261C28.9385 28.7834 29.2045 28.6107 29.4938 28.5081C29.7832 28.3961 30.0585 28.3401 30.3198 28.3401C30.7492 28.3401 31.1225 28.4521 31.4398 28.6761C31.7572 28.9001 31.9672 29.1754 32.0698 29.5021H33.0358C32.9425 29.1661 32.7932 28.8907 32.5878 28.6761C32.3825 28.4521 32.1445 28.2747 31.8738 28.1441C31.6125 28.0041 31.3278 27.9107 31.0198 27.8641C30.7212 27.8081 30.4318 27.7801 30.1518 27.7801C29.5638 27.7801 29.0458 27.8781 28.5978 28.0741C28.1498 28.2607 27.7718 28.5174 27.4638 28.8441C27.1558 29.1707 26.9225 29.5534 26.7638 29.9921C26.6145 30.4307 26.5398 30.8974 26.5398 31.3921C26.5398 31.9147 26.6238 32.4047 26.7918 32.8621C26.9598 33.3101 27.1978 33.7021 27.5058 34.0381C27.8232 34.3647 28.2012 34.6261 28.6398 34.8221C29.0785 35.0087 29.5732 35.1021 30.1238 35.1021C30.7398 35.1021 31.2765 34.9994 31.7338 34.7941C32.2005 34.5887 32.5925 34.3647 32.9098 34.1221L32.5038 33.5901C32.1772 33.8607 31.8505 34.0614 31.5238 34.1921C31.2065 34.3134 30.8565 34.3741 30.4738 34.3741ZM37.1511 27.7801C37.8324 27.7801 38.3597 27.8781 38.7331 28.0741C39.1064 28.2607 39.3771 28.5081 39.5451 28.8161C39.7224 29.1241 39.8251 29.4787 39.8531 29.8801C39.8811 30.2814 39.8951 30.6921 39.8951 31.1121V34.9341H38.7611V34.2481C38.4904 34.5094 38.1451 34.7194 37.7251 34.8781C37.3051 35.0274 36.8851 35.1021 36.4651 35.1021C36.0637 35.1021 35.7091 35.0321 35.4011 34.8921C35.0931 34.7521 34.8364 34.5701 34.6311 34.3461C34.4257 34.1221 34.2717 33.8701 34.1691 33.5901C34.0664 33.3101 34.0151 33.0254 34.0151 32.7361C34.0151 32.4374 34.0711 32.1387 34.1831 31.8401C34.2951 31.5414 34.4631 31.2754 34.6871 31.0421C34.9111 30.7994 35.1864 30.6034 35.5131 30.4541C35.8397 30.3047 36.2131 30.2301 36.6331 30.2301C37.0531 30.2301 37.4497 30.3141 37.8231 30.4821C38.2057 30.6407 38.5184 30.8694 38.7611 31.1681V30.5661C38.7611 29.8007 38.6444 29.2314 38.4111 28.8581C38.1871 28.4847 37.7717 28.2981 37.1651 28.2981C36.9037 28.2981 36.6751 28.3307 36.4791 28.3961C36.2831 28.4614 36.1057 28.5547 35.9471 28.6761C35.7977 28.7881 35.6577 28.9327 35.5271 29.1101C35.3964 29.2781 35.2657 29.4694 35.1351 29.6841L34.4071 28.9561C34.5377 28.8161 34.6731 28.6761 34.8131 28.5361C34.9624 28.3961 35.1397 28.2701 35.3451 28.1581C35.5597 28.0461 35.8117 27.9574 36.1011 27.8921C36.3904 27.8174 36.7404 27.7801 37.1511 27.7801ZM38.7611 32.1621C38.7144 32.0501 38.6444 31.9194 38.5511 31.7701C38.4671 31.6207 38.3551 31.4761 38.2151 31.3361C38.0751 31.1961 37.9071 31.0794 37.7111 30.9861C37.5151 30.8834 37.2817 30.8321 37.0111 30.8321C36.7404 30.8321 36.4931 30.8881 36.2691 31.0001C36.0451 31.1027 35.8537 31.2427 35.6951 31.4201C35.5457 31.5881 35.4291 31.7887 35.3451 32.0221C35.2611 32.2554 35.2191 32.4981 35.2191 32.7501C35.2191 33.0487 35.2704 33.3101 35.3731 33.5341C35.4851 33.7487 35.6251 33.9354 35.7931 34.0941C35.9611 34.2434 36.1477 34.3554 36.3531 34.4301C36.5584 34.5047 36.7544 34.5421 36.9411 34.5421C37.1184 34.5421 37.2957 34.5094 37.4731 34.4441C37.6597 34.3787 37.8324 34.2901 37.9911 34.1781C38.1591 34.0567 38.3084 33.9167 38.4391 33.7581C38.5697 33.5994 38.6771 33.4267 38.7611 33.2401V32.1621ZM43.6056 25.1341H42.4156V34.9341H43.6056V25.1341ZM49.6418 34.3741C49.3058 34.3741 48.9791 34.3227 48.6618 34.2201C48.3538 34.1174 48.0785 33.9541 47.8358 33.7301C47.5931 33.4967 47.3971 33.1934 47.2478 32.8201C47.1078 32.4374 47.0378 31.9707 47.0378 31.4201C47.0378 30.8507 47.1171 30.3701 47.2758 29.9781C47.4345 29.5767 47.6305 29.2594 47.8638 29.0261C48.1065 28.7834 48.3725 28.6107 48.6618 28.5081C48.9511 28.3961 49.2265 28.3401 49.4878 28.3401C49.9171 28.3401 50.2905 28.4521 50.6078 28.6761C50.9251 28.9001 51.1351 29.1754 51.2378 29.5021H52.2038C52.1105 29.1661 51.9611 28.8907 51.7558 28.6761C51.5505 28.4521 51.3125 28.2747 51.0418 28.1441C50.7805 28.0041 50.4958 27.9107 50.1878 27.8641C49.8891 27.8081 49.5998 27.7801 49.3198 27.7801C48.7318 27.7801 48.2138 27.8781 47.7658 28.0741C47.3178 28.2607 46.9398 28.5174 46.6318 28.8441C46.3238 29.1707 46.0905 29.5534 45.9318 29.9921C45.7825 30.4307 45.7078 30.8974 45.7078 31.3921C45.7078 31.9147 45.7918 32.4047 45.9598 32.8621C46.1278 33.3101 46.3658 33.7021 46.6738 34.0381C46.9911 34.3647 47.3691 34.6261 47.8078 34.8221C48.2465 35.0087 48.7411 35.1021 49.2918 35.1021C49.9078 35.1021 50.4445 34.9994 50.9018 34.7941C51.3685 34.5887 51.7605 34.3647 52.0778 34.1221L51.6718 33.5901C51.3451 33.8607 51.0185 34.0614 50.6918 34.1921C50.3745 34.3134 50.0245 34.3741 49.6418 34.3741ZM53.743 27.9341V32.4841C53.743 32.6521 53.757 32.8854 53.785 33.1841C53.8224 33.4734 53.9204 33.7627 54.079 34.0521C54.2377 34.3321 54.485 34.5794 54.821 34.7941C55.1664 34.9994 55.647 35.1021 56.263 35.1021C56.5337 35.1114 56.8277 35.0554 57.145 34.9341C57.4717 34.8221 57.7984 34.6027 58.125 34.2761L58.349 34.0521H58.405V34.9341H59.595V27.9341H58.405V32.2741C58.405 32.6381 58.3537 32.9507 58.251 33.2121C58.1484 33.4734 58.013 33.6927 57.845 33.8701C57.677 34.0381 57.481 34.1641 57.257 34.2481C57.033 34.3321 56.7997 34.3741 56.557 34.3741C56.165 34.3741 55.857 34.2994 55.633 34.1501C55.4184 33.9914 55.255 33.8094 55.143 33.6041C55.0404 33.3987 54.9797 33.1981 54.961 33.0021C54.9424 32.7967 54.933 32.6474 54.933 32.5541V27.9341H53.743ZM63.3478 25.1341H62.1578V34.9341H63.3478V25.1341ZM68.446 27.7801C69.1273 27.7801 69.6547 27.8781 70.028 28.0741C70.4013 28.2607 70.672 28.5081 70.84 28.8161C71.0173 29.1241 71.12 29.4787 71.148 29.8801C71.176 30.2814 71.19 30.6921 71.19 31.1121V34.9341H70.056V34.2481C69.7853 34.5094 69.44 34.7194 69.02 34.8781C68.6 35.0274 68.18 35.1021 67.76 35.1021C67.3587 35.1021 67.004 35.0321 66.696 34.8921C66.388 34.7521 66.1313 34.5701 65.926 34.3461C65.7207 34.1221 65.5667 33.8701 65.464 33.5901C65.3613 33.3101 65.31 33.0254 65.31 32.7361C65.31 32.4374 65.366 32.1387 65.478 31.8401C65.59 31.5414 65.758 31.2754 65.982 31.0421C66.206 30.7994 66.4813 30.6034 66.808 30.4541C67.1347 30.3047 67.508 30.2301 67.928 30.2301C68.348 30.2301 68.7447 30.3141 69.118 30.4821C69.5007 30.6407 69.8133 30.8694 70.056 31.1681V30.5661C70.056 29.8007 69.9393 29.2314 69.706 28.8581C69.482 28.4847 69.0667 28.2981 68.46 28.2981C68.1987 28.2981 67.97 28.3307 67.774 28.3961C67.578 28.4614 67.4007 28.5547 67.242 28.6761C67.0927 28.7881 66.9527 28.9327 66.822 29.1101C66.6913 29.2781 66.5607 29.4694 66.43 29.6841L65.702 28.9561C65.8327 28.8161 65.968 28.6761 66.108 28.5361C66.2573 28.3961 66.4347 28.2701 66.64 28.1581C66.8547 28.0461 67.1067 27.9574 67.396 27.8921C67.6853 27.8174 68.0353 27.7801 68.446 27.7801ZM70.056 32.1621C70.0093 32.0501 69.9393 31.9194 69.846 31.7701C69.762 31.6207 69.65 31.4761 69.51 31.3361C69.37 31.1961 69.202 31.0794 69.006 30.9861C68.81 30.8834 68.5767 30.8321 68.306 30.8321C68.0353 30.8321 67.788 30.8881 67.564 31.0001C67.34 31.1027 67.1487 31.2427 66.99 31.4201C66.8407 31.5881 66.724 31.7887 66.64 32.0221C66.556 32.2554 66.514 32.4981 66.514 32.7501C66.514 33.0487 66.5653 33.3101 66.668 33.5341C66.78 33.7487 66.92 33.9354 67.088 34.0941C67.256 34.2434 67.4427 34.3554 67.648 34.4301C67.8533 34.5047 68.0493 34.5421 68.236 34.5421C68.4133 34.5421 68.5907 34.5094 68.768 34.4441C68.9547 34.3787 69.1273 34.2901 69.286 34.1781C69.454 34.0567 69.6033 33.9167 69.734 33.7581C69.8647 33.5994 69.972 33.4267 70.056 33.2401V32.1621ZM72.7305 28.4941V27.9341H73.9485V25.7781H75.1385V27.9341H76.8325V28.4941H75.1385V33.1421C75.1385 33.2541 75.1432 33.3847 75.1525 33.5341C75.1619 33.6741 75.1899 33.8094 75.2365 33.9401C75.2832 34.0614 75.3532 34.1641 75.4465 34.2481C75.5492 34.3321 75.6892 34.3741 75.8665 34.3741C76.0905 34.3741 76.2772 34.2901 76.4265 34.1221C76.5759 33.9541 76.6972 33.7721 76.7905 33.5761L77.4485 34.2481C76.9912 34.7054 76.4732 34.9341 75.8945 34.9341C75.6519 34.9341 75.4139 34.8921 75.1805 34.8081C74.9472 34.7241 74.7372 34.5981 74.5505 34.4301C74.3732 34.2527 74.2285 34.0287 74.1165 33.7581C74.0045 33.4874 73.9485 33.1701 73.9485 32.8061V28.4941H72.7305ZM84.8965 31.7421V31.4481C84.8965 30.8227 84.8079 30.2814 84.6305 29.8241C84.4532 29.3667 84.2105 28.9887 83.9025 28.6901C83.6039 28.3914 83.2539 28.1674 82.8525 28.0181C82.4512 27.8687 82.0265 27.7941 81.5785 27.7941C81.1025 27.7941 80.6639 27.8781 80.2625 28.0461C79.8612 28.2047 79.5112 28.4427 79.2125 28.7601C78.9139 29.0681 78.6805 29.4461 78.5125 29.8941C78.3445 30.3327 78.2605 30.8321 78.2605 31.3921C78.2605 31.8587 78.3305 32.3161 78.4705 32.7641C78.6199 33.2027 78.8392 33.5994 79.1285 33.9541C79.4272 34.2994 79.8005 34.5794 80.2485 34.7941C80.7059 34.9994 81.2425 35.1021 81.8585 35.1021C82.4559 35.1021 83.0065 34.9994 83.5105 34.7941C84.0145 34.5794 84.4532 34.2761 84.8265 33.8841L84.3785 33.4361C84.1825 33.6041 83.9959 33.7581 83.8185 33.8981C83.6505 34.0381 83.4779 34.1547 83.3005 34.2481C83.1232 34.3414 82.9365 34.4161 82.7405 34.4721C82.5539 34.5187 82.3439 34.5421 82.1105 34.5421C81.8492 34.5421 81.5692 34.5047 81.2705 34.4301C80.9812 34.3461 80.7105 34.2014 80.4585 33.9961C80.2065 33.7907 79.9965 33.5061 79.8285 33.1421C79.6605 32.7781 79.5765 32.3114 79.5765 31.7421H84.8965ZM79.5765 31.1821C79.5765 30.8087 79.6139 30.4494 79.6885 30.1041C79.7725 29.7494 79.8939 29.4367 80.0525 29.1661C80.2205 28.8954 80.4305 28.6807 80.6825 28.5221C80.9345 28.3541 81.2332 28.2701 81.5785 28.2701C82.2412 28.2701 82.7545 28.5314 83.1185 29.0541C83.4919 29.5674 83.6785 30.2767 83.6785 31.1821H79.5765ZM92.9356 25.1341H91.7456V29.0821H91.6896C91.5963 28.8394 91.4703 28.6387 91.3116 28.4801C91.1623 28.3121 90.9896 28.1767 90.7936 28.0741C90.5976 27.9714 90.3876 27.8967 90.1636 27.8501C89.9489 27.8034 89.7296 27.7801 89.5056 27.7801C89.0389 27.7801 88.6096 27.8687 88.2176 28.0461C87.8256 28.2141 87.4849 28.4567 87.1956 28.7741C86.9156 29.0914 86.6963 29.4741 86.5376 29.9221C86.3789 30.3701 86.2996 30.8694 86.2996 31.4201C86.2996 31.9801 86.3789 32.4887 86.5376 32.9461C86.6963 33.3941 86.9156 33.7814 87.1956 34.1081C87.4849 34.4254 87.8256 34.6727 88.2176 34.8501C88.6096 35.0181 89.0389 35.1021 89.5056 35.1021C90.6069 35.1021 91.3349 34.6681 91.6896 33.8001H91.7456V34.9341H92.9356V25.1341ZM91.7456 32.1341C91.7456 32.4421 91.6943 32.7361 91.5916 33.0161C91.4889 33.2867 91.3489 33.5247 91.1716 33.7301C91.0036 33.9261 90.7983 34.0847 90.5556 34.2061C90.3223 34.3181 90.0703 34.3741 89.7996 34.3741C89.5009 34.3741 89.2209 34.3227 88.9596 34.2201C88.6983 34.1081 88.4696 33.9354 88.2736 33.7021C88.0776 33.4687 87.9189 33.1654 87.7976 32.7921C87.6856 32.4187 87.6296 31.9707 87.6296 31.4481C87.6296 30.9161 87.6856 30.4634 87.7976 30.0901C87.9189 29.7167 88.0776 29.4134 88.2736 29.1801C88.4789 28.9374 88.7123 28.7647 88.9736 28.6621C89.2349 28.5501 89.5103 28.4941 89.7996 28.4941C90.0609 28.4941 90.3083 28.5501 90.5416 28.6621C90.7749 28.7647 90.9803 28.9234 91.1576 29.1381C91.3349 29.3434 91.4749 29.5954 91.5776 29.8941C91.6896 30.1927 91.7456 30.5334 91.7456 30.9161V32.1341ZM102.639 27.7801C103.321 27.7801 103.848 27.8781 104.221 28.0741C104.595 28.2607 104.865 28.5081 105.033 28.8161C105.211 29.1241 105.313 29.4787 105.341 29.8801C105.369 30.2814 105.383 30.6921 105.383 31.1121V34.9341H104.249V34.2481C103.979 34.5094 103.633 34.7194 103.213 34.8781C102.793 35.0274 102.373 35.1021 101.953 35.1021C101.552 35.1021 101.197 35.0321 100.889 34.8921C100.581 34.7521 100.325 34.5701 100.119 34.3461C99.914 34.1221 99.76 33.8701 99.6574 33.5901C99.5547 33.3101 99.5034 33.0254 99.5034 32.7361C99.5034 32.4374 99.5594 32.1387 99.6714 31.8401C99.7834 31.5414 99.9514 31.2754 100.175 31.0421C100.399 30.7994 100.675 30.6034 101.001 30.4541C101.328 30.3047 101.701 30.2301 102.121 30.2301C102.541 30.2301 102.938 30.3141 103.311 30.4821C103.694 30.6407 104.007 30.8694 104.249 31.1681V30.5661C104.249 29.8007 104.133 29.2314 103.899 28.8581C103.675 28.4847 103.26 28.2981 102.653 28.2981C102.392 28.2981 102.163 28.3307 101.967 28.3961C101.771 28.4614 101.594 28.5547 101.435 28.6761C101.286 28.7881 101.146 28.9327 101.015 29.1101C100.885 29.2781 100.754 29.4694 100.623 29.6841L99.8954 28.9561C100.026 28.8161 100.161 28.6761 100.301 28.5361C100.451 28.3961 100.628 28.2701 100.833 28.1581C101.048 28.0461 101.3 27.9574 101.589 27.8921C101.879 27.8174 102.229 27.7801 102.639 27.7801ZM104.249 32.1621C104.203 32.0501 104.133 31.9194 104.039 31.7701C103.955 31.6207 103.843 31.4761 103.703 31.3361C103.563 31.1961 103.395 31.0794 103.199 30.9861C103.003 30.8834 102.77 30.8321 102.499 30.8321C102.229 30.8321 101.981 30.8881 101.757 31.0001C101.533 31.1027 101.342 31.2427 101.183 31.4201C101.034 31.5881 100.917 31.7887 100.833 32.0221C100.749 32.2554 100.707 32.4981 100.707 32.7501C100.707 33.0487 100.759 33.3101 100.861 33.5341C100.973 33.7487 101.113 33.9354 101.281 34.0941C101.449 34.2434 101.636 34.3554 101.841 34.4301C102.047 34.5047 102.243 34.5421 102.429 34.5421C102.607 34.5421 102.784 34.5094 102.961 34.4441C103.148 34.3787 103.321 34.2901 103.479 34.1781C103.647 34.0567 103.797 33.9167 103.927 33.7581C104.058 33.5994 104.165 33.4267 104.249 33.2401V32.1621ZM106.924 28.4941V27.9341H108.142V25.7781H109.332V27.9341H111.026V28.4941H109.332V33.1421C109.332 33.2541 109.337 33.3847 109.346 33.5341C109.355 33.6741 109.383 33.8094 109.43 33.9401C109.477 34.0614 109.547 34.1641 109.64 34.2481C109.743 34.3321 109.883 34.3741 110.06 34.3741C110.284 34.3741 110.471 34.2901 110.62 34.1221C110.769 33.9541 110.891 33.7721 110.984 33.5761L111.642 34.2481C111.185 34.7054 110.667 34.9341 110.088 34.9341C109.845 34.9341 109.607 34.8921 109.374 34.8081C109.141 34.7241 108.931 34.5981 108.744 34.4301C108.567 34.2527 108.422 34.0287 108.31 33.7581C108.198 33.4874 108.142 33.1701 108.142 32.8061V28.4941H106.924ZM117.068 28.4941V27.9341H118.286V25.7781H119.476V27.9341H121.17V28.4941H119.476V33.1421C119.476 33.2541 119.481 33.3847 119.49 33.5341C119.5 33.6741 119.528 33.8094 119.574 33.9401C119.621 34.0614 119.691 34.1641 119.784 34.2481C119.887 34.3321 120.027 34.3741 120.204 34.3741C120.428 34.3741 120.615 34.2901 120.764 34.1221C120.914 33.9541 121.035 33.7721 121.128 33.5761L121.786 34.2481C121.329 34.7054 120.811 34.9341 120.232 34.9341C119.99 34.9341 119.752 34.8921 119.518 34.8081C119.285 34.7241 119.075 34.5981 118.888 34.4301C118.711 34.2527 118.566 34.0287 118.454 33.7581C118.342 33.4874 118.286 33.1701 118.286 32.8061V28.4941H117.068ZM123.018 25.1341V34.9341H124.208V30.8881C124.208 30.7014 124.222 30.4727 124.25 30.2021C124.278 29.9314 124.353 29.6701 124.474 29.4181C124.605 29.1661 124.796 28.9514 125.048 28.7741C125.3 28.5874 125.65 28.4941 126.098 28.4941C126.416 28.4941 126.668 28.5547 126.854 28.6761C127.05 28.7881 127.2 28.9421 127.302 29.1381C127.405 29.3341 127.47 29.5627 127.498 29.8241C127.536 30.0854 127.554 30.3561 127.554 30.6361V34.9341H128.744V30.3141C128.744 29.7914 128.67 29.3667 128.52 29.0401C128.371 28.7041 128.184 28.4427 127.96 28.2561C127.736 28.0694 127.489 27.9434 127.218 27.8781C126.957 27.8127 126.705 27.7801 126.462 27.7801C126.136 27.7801 125.79 27.8454 125.426 27.9761C125.072 28.0974 124.736 28.3354 124.418 28.6901L124.264 28.8861H124.208V25.1341H123.018ZM137.205 31.7421V31.4481C137.205 30.8227 137.116 30.2814 136.939 29.8241C136.762 29.3667 136.519 28.9887 136.211 28.6901C135.912 28.3914 135.562 28.1674 135.161 28.0181C134.76 27.8687 134.335 27.7941 133.887 27.7941C133.411 27.7941 132.972 27.8781 132.571 28.0461C132.17 28.2047 131.82 28.4427 131.521 28.7601C131.222 29.0681 130.989 29.4461 130.821 29.8941C130.653 30.3327 130.569 30.8321 130.569 31.3921C130.569 31.8587 130.639 32.3161 130.779 32.7641C130.928 33.2027 131.148 33.5994 131.437 33.9541C131.736 34.2994 132.109 34.5794 132.557 34.7941C133.014 34.9994 133.551 35.1021 134.167 35.1021C134.764 35.1021 135.315 34.9994 135.819 34.7941C136.323 34.5794 136.762 34.2761 137.135 33.8841L136.687 33.4361C136.491 33.6041 136.304 33.7581 136.127 33.8981C135.959 34.0381 135.786 34.1547 135.609 34.2481C135.432 34.3414 135.245 34.4161 135.049 34.4721C134.862 34.5187 134.652 34.5421 134.419 34.5421C134.158 34.5421 133.878 34.5047 133.579 34.4301C133.29 34.3461 133.019 34.2014 132.767 33.9961C132.515 33.7907 132.305 33.5061 132.137 33.1421C131.969 32.7781 131.885 32.3114 131.885 31.7421H137.205ZM131.885 31.1821C131.885 30.8087 131.922 30.4494 131.997 30.1041C132.081 29.7494 132.202 29.4367 132.361 29.1661C132.529 28.8954 132.739 28.6807 132.991 28.5221C133.243 28.3541 133.542 28.2701 133.887 28.2701C134.55 28.2701 135.063 28.5314 135.427 29.0541C135.8 29.5674 135.987 30.2767 135.987 31.1821H131.885ZM143.223 28.4941V27.9341H144.441V25.7781H145.631V27.9341H147.325V28.4941H145.631V33.1421C145.631 33.2541 145.635 33.3847 145.645 33.5341C145.654 33.6741 145.682 33.8094 145.729 33.9401C145.775 34.0614 145.845 34.1641 145.939 34.2481C146.041 34.3321 146.181 34.3741 146.359 34.3741C146.583 34.3741 146.769 34.2901 146.919 34.1221C147.068 33.9541 147.189 33.7721 147.283 33.5761L147.941 34.2481C147.483 34.7054 146.965 34.9341 146.387 34.9341C146.144 34.9341 145.906 34.8921 145.673 34.8081C145.439 34.7241 145.229 34.5981 145.043 34.4301C144.865 34.2527 144.721 34.0287 144.609 33.7581C144.497 33.4874 144.441 33.1701 144.441 32.8061V28.4941H143.223ZM149.621 27.9341V34.9341H150.811V27.9341H149.621ZM149.453 25.7221C149.453 25.9274 149.527 26.1047 149.677 26.2541C149.826 26.4034 150.003 26.4781 150.209 26.4781C150.414 26.4781 150.591 26.4034 150.741 26.2541C150.89 26.1047 150.965 25.9274 150.965 25.7221C150.965 25.5167 150.89 25.3394 150.741 25.1901C150.591 25.0407 150.414 24.9661 150.209 24.9661C150.003 24.9661 149.826 25.0407 149.677 25.1901C149.527 25.3394 149.453 25.5167 149.453 25.7221ZM154.669 34.9341V30.9441C154.669 30.7761 154.683 30.5567 154.711 30.2861C154.739 30.0061 154.809 29.7354 154.921 29.4741C155.043 29.2034 155.225 28.9747 155.467 28.7881C155.71 28.5921 156.051 28.4941 156.489 28.4941C156.807 28.4941 157.049 28.5641 157.217 28.7041C157.395 28.8441 157.525 29.0167 157.609 29.2221C157.693 29.4274 157.74 29.6421 157.749 29.8661C157.768 30.0901 157.777 30.2861 157.777 30.4541V34.9341H158.967V30.9441C158.967 30.7387 158.986 30.4961 159.023 30.2161C159.061 29.9267 159.14 29.6561 159.261 29.4041C159.383 29.1521 159.555 28.9374 159.779 28.7601C160.013 28.5827 160.325 28.4941 160.717 28.4941C161.007 28.4941 161.24 28.5361 161.417 28.6201C161.595 28.7041 161.73 28.8301 161.823 28.9981C161.926 29.1661 161.991 29.3714 162.019 29.6141C162.057 29.8567 162.075 30.1367 162.075 30.4541V34.9341H163.265V30.0481C163.265 29.8334 163.242 29.5954 163.195 29.3341C163.149 29.0634 163.046 28.8161 162.887 28.5921C162.738 28.3587 162.514 28.1674 162.215 28.0181C161.926 27.8594 161.539 27.7801 161.053 27.7801C160.913 27.7801 160.75 27.7941 160.563 27.8221C160.377 27.8501 160.181 27.9107 159.975 28.0041C159.77 28.0974 159.569 28.2327 159.373 28.4101C159.187 28.5874 159.023 28.8207 158.883 29.1101H158.785C158.729 28.9607 158.65 28.8114 158.547 28.6621C158.445 28.5034 158.314 28.3587 158.155 28.2281C157.997 28.0974 157.805 27.9901 157.581 27.9061C157.367 27.8221 157.105 27.7801 156.797 27.7801C156.657 27.7801 156.489 27.7987 156.293 27.8361C156.097 27.8641 155.901 27.9247 155.705 28.0181C155.509 28.1114 155.323 28.2421 155.145 28.4101C154.977 28.5781 154.837 28.7974 154.725 29.0681H154.669V27.9341H153.479V34.9341H154.669ZM171.727 31.7421V31.4481C171.727 30.8227 171.638 30.2814 171.461 29.8241C171.283 29.3667 171.041 28.9887 170.733 28.6901C170.434 28.3914 170.084 28.1674 169.683 28.0181C169.281 27.8687 168.857 27.7941 168.409 27.7941C167.933 27.7941 167.494 27.8781 167.093 28.0461C166.691 28.2047 166.341 28.4427 166.043 28.7601C165.744 29.0681 165.511 29.4461 165.343 29.8941C165.175 30.3327 165.091 30.8321 165.091 31.3921C165.091 31.8587 165.161 32.3161 165.301 32.7641C165.45 33.2027 165.669 33.5994 165.959 33.9541C166.257 34.2994 166.631 34.5794 167.079 34.7941C167.536 34.9994 168.073 35.1021 168.689 35.1021C169.286 35.1021 169.837 34.9994 170.341 34.7941C170.845 34.5794 171.283 34.2761 171.657 33.8841L171.209 33.4361C171.013 33.6041 170.826 33.7581 170.649 33.8981C170.481 34.0381 170.308 34.1547 170.131 34.2481C169.953 34.3414 169.767 34.4161 169.571 34.4721C169.384 34.5187 169.174 34.5421 168.941 34.5421C168.679 34.5421 168.399 34.5047 168.101 34.4301C167.811 34.3461 167.541 34.2014 167.289 33.9961C167.037 33.7907 166.827 33.5061 166.659 33.1421C166.491 32.7781 166.407 32.3114 166.407 31.7421H171.727ZM166.407 31.1821C166.407 30.8087 166.444 30.4494 166.519 30.1041C166.603 29.7494 166.724 29.4367 166.883 29.1661C167.051 28.8954 167.261 28.6807 167.513 28.5221C167.765 28.3541 168.063 28.2701 168.409 28.2701C169.071 28.2701 169.585 28.5314 169.949 29.0541C170.322 29.5674 170.509 30.2767 170.509 31.1821H166.407ZM185.276 31.4481C185.276 31.9334 185.192 32.4001 185.024 32.8481C184.856 33.2867 184.614 33.6741 184.296 34.0101C183.988 34.3461 183.61 34.6121 183.162 34.8081C182.724 35.0041 182.229 35.1021 181.678 35.1021C181.118 35.1021 180.61 35.0041 180.152 34.8081C179.704 34.6027 179.322 34.3321 179.004 33.9961C178.696 33.6601 178.454 33.2727 178.276 32.8341C178.108 32.3861 178.024 31.9241 178.024 31.4481C178.024 30.9627 178.108 30.5007 178.276 30.0621C178.454 29.6141 178.696 29.2221 179.004 28.8861C179.322 28.5501 179.704 28.2841 180.152 28.0881C180.61 27.8827 181.118 27.7801 181.678 27.7801C182.229 27.7801 182.724 27.8827 183.162 28.0881C183.61 28.2841 183.988 28.5501 184.296 28.8861C184.614 29.2221 184.856 29.6141 185.024 30.0621C185.192 30.5007 185.276 30.9627 185.276 31.4481ZM183.946 31.4481C183.946 30.7947 183.876 30.2674 183.736 29.8661C183.596 29.4554 183.414 29.1381 183.19 28.9141C182.966 28.6901 182.719 28.5407 182.448 28.4661C182.178 28.3821 181.916 28.3401 181.664 28.3401C181.412 28.3401 181.151 28.3821 180.88 28.4661C180.61 28.5407 180.358 28.6901 180.124 28.9141C179.9 29.1381 179.714 29.4554 179.564 29.8661C179.424 30.2674 179.354 30.7947 179.354 31.4481C179.354 32.0921 179.424 32.6194 179.564 33.0301C179.714 33.4314 179.9 33.7441 180.124 33.9681C180.358 34.1921 180.61 34.3461 180.88 34.4301C181.151 34.5047 181.412 34.5421 181.664 34.5421C181.916 34.5421 182.178 34.5047 182.448 34.4301C182.719 34.3461 182.966 34.1921 183.19 33.9681C183.414 33.7441 183.596 33.4314 183.736 33.0301C183.876 32.6194 183.946 32.0921 183.946 31.4481ZM186.399 27.9341V28.4941H187.617V34.9341H188.807V28.4941H190.501V27.9341H188.807V26.7581C188.807 26.6461 188.811 26.5154 188.821 26.3661C188.83 26.2074 188.858 26.0627 188.905 25.9321C188.951 25.7921 189.021 25.6754 189.115 25.5821C189.217 25.4887 189.357 25.4421 189.535 25.4421C189.759 25.4421 189.941 25.5354 190.081 25.7221C190.23 25.9087 190.351 26.1001 190.445 26.2961L191.061 25.6381C190.837 25.4141 190.603 25.2461 190.361 25.1341C190.127 25.0221 189.861 24.9661 189.563 24.9661C189.32 24.9661 189.082 25.0081 188.849 25.0921C188.615 25.1761 188.405 25.3067 188.219 25.4841C188.041 25.6521 187.897 25.8714 187.785 26.1421C187.673 26.4127 187.617 26.7301 187.617 27.0941V27.9341H186.399ZM199.655 27.7801C200.336 27.7801 200.864 27.8781 201.237 28.0741C201.61 28.2607 201.881 28.5081 202.049 28.8161C202.226 29.1241 202.329 29.4787 202.357 29.8801C202.385 30.2814 202.399 30.6921 202.399 31.1121V34.9341H201.265V34.2481C200.994 34.5094 200.649 34.7194 200.229 34.8781C199.809 35.0274 199.389 35.1021 198.969 35.1021C198.568 35.1021 198.213 35.0321 197.905 34.8921C197.597 34.7521 197.34 34.5701 197.135 34.3461C196.93 34.1221 196.776 33.8701 196.673 33.5901C196.57 33.3101 196.519 33.0254 196.519 32.7361C196.519 32.4374 196.575 32.1387 196.687 31.8401C196.799 31.5414 196.967 31.2754 197.191 31.0421C197.415 30.7994 197.69 30.6034 198.017 30.4541C198.344 30.3047 198.717 30.2301 199.137 30.2301C199.557 30.2301 199.954 30.3141 200.327 30.4821C200.71 30.6407 201.022 30.8694 201.265 31.1681V30.5661C201.265 29.8007 201.148 29.2314 200.915 28.8581C200.691 28.4847 200.276 28.2981 199.669 28.2981C199.408 28.2981 199.179 28.3307 198.983 28.3961C198.787 28.4614 198.61 28.5547 198.451 28.6761C198.302 28.7881 198.162 28.9327 198.031 29.1101C197.9 29.2781 197.77 29.4694 197.639 29.6841L196.911 28.9561C197.042 28.8161 197.177 28.6761 197.317 28.5361C197.466 28.3961 197.644 28.2701 197.849 28.1581C198.064 28.0461 198.316 27.9574 198.605 27.8921C198.894 27.8174 199.244 27.7801 199.655 27.7801ZM201.265 32.1621C201.218 32.0501 201.148 31.9194 201.055 31.7701C200.971 31.6207 200.859 31.4761 200.719 31.3361C200.579 31.1961 200.411 31.0794 200.215 30.9861C200.019 30.8834 199.786 30.8321 199.515 30.8321C199.244 30.8321 198.997 30.8881 198.773 31.0001C198.549 31.1027 198.358 31.2427 198.199 31.4201C198.05 31.5881 197.933 31.7887 197.849 32.0221C197.765 32.2554 197.723 32.4981 197.723 32.7501C197.723 33.0487 197.774 33.3101 197.877 33.5341C197.989 33.7487 198.129 33.9354 198.297 34.0941C198.465 34.2434 198.652 34.3554 198.857 34.4301C199.062 34.5047 199.258 34.5421 199.445 34.5421C199.622 34.5421 199.8 34.5094 199.977 34.4441C200.164 34.3787 200.336 34.2901 200.495 34.1781C200.663 34.0567 200.812 33.9167 200.943 33.7581C201.074 33.5994 201.181 33.4267 201.265 33.2401V32.1621ZM208.154 34.3741C207.818 34.3741 207.491 34.3227 207.174 34.2201C206.866 34.1174 206.59 33.9541 206.348 33.7301C206.105 33.4967 205.909 33.1934 205.76 32.8201C205.62 32.4374 205.55 31.9707 205.55 31.4201C205.55 30.8507 205.629 30.3701 205.788 29.9781C205.946 29.5767 206.142 29.2594 206.376 29.0261C206.618 28.7834 206.884 28.6107 207.174 28.5081C207.463 28.3961 207.738 28.3401 208 28.3401C208.429 28.3401 208.802 28.4521 209.12 28.6761C209.437 28.9001 209.647 29.1754 209.75 29.5021H210.716C210.622 29.1661 210.473 28.8907 210.268 28.6761C210.062 28.4521 209.824 28.2747 209.554 28.1441C209.292 28.0041 209.008 27.9107 208.7 27.8641C208.401 27.8081 208.112 27.7801 207.832 27.7801C207.244 27.7801 206.726 27.8781 206.278 28.0741C205.83 28.2607 205.452 28.5174 205.144 28.8441C204.836 29.1707 204.602 29.5534 204.444 29.9921C204.294 30.4307 204.22 30.8974 204.22 31.3921C204.22 31.9147 204.304 32.4047 204.472 32.8621C204.64 33.3101 204.878 33.7021 205.186 34.0381C205.503 34.3647 205.881 34.6261 206.32 34.8221C206.758 35.0087 207.253 35.1021 207.804 35.1021C208.42 35.1021 208.956 34.9994 209.414 34.7941C209.88 34.5887 210.272 34.3647 210.59 34.1221L210.184 33.5901C209.857 33.8607 209.53 34.0614 209.204 34.1921C208.886 34.3134 208.536 34.3741 208.154 34.3741ZM215.769 34.3741C215.433 34.3741 215.106 34.3227 214.789 34.2201C214.481 34.1174 214.205 33.9541 213.963 33.7301C213.72 33.4967 213.524 33.1934 213.375 32.8201C213.235 32.4374 213.165 31.9707 213.165 31.4201C213.165 30.8507 213.244 30.3701 213.403 29.9781C213.561 29.5767 213.757 29.2594 213.991 29.0261C214.233 28.7834 214.499 28.6107 214.789 28.5081C215.078 28.3961 215.353 28.3401 215.615 28.3401C216.044 28.3401 216.417 28.4521 216.735 28.6761C217.052 28.9001 217.262 29.1754 217.365 29.5021H218.331C218.237 29.1661 218.088 28.8907 217.883 28.6761C217.677 28.4521 217.439 28.2747 217.169 28.1441C216.907 28.0041 216.623 27.9107 216.315 27.8641C216.016 27.8081 215.727 27.7801 215.447 27.7801C214.859 27.7801 214.341 27.8781 213.893 28.0741C213.445 28.2607 213.067 28.5174 212.759 28.8441C212.451 29.1707 212.217 29.5534 212.059 29.9921C211.909 30.4307 211.835 30.8974 211.835 31.3921C211.835 31.9147 211.919 32.4047 212.087 32.8621C212.255 33.3101 212.493 33.7021 212.801 34.0381C213.118 34.3647 213.496 34.6261 213.935 34.8221C214.373 35.0087 214.868 35.1021 215.419 35.1021C216.035 35.1021 216.571 34.9994 217.029 34.7941C217.495 34.5887 217.887 34.3647 218.205 34.1221L217.799 33.5901C217.472 33.8607 217.145 34.0614 216.819 34.1921C216.501 34.3134 216.151 34.3741 215.769 34.3741ZM226.702 31.4481C226.702 31.9334 226.618 32.4001 226.45 32.8481C226.282 33.2867 226.039 33.6741 225.722 34.0101C225.414 34.3461 225.036 34.6121 224.588 34.8081C224.149 35.0041 223.655 35.1021 223.104 35.1021C222.544 35.1021 222.035 35.0041 221.578 34.8081C221.13 34.6027 220.747 34.3321 220.43 33.9961C220.122 33.6601 219.879 33.2727 219.702 32.8341C219.534 32.3861 219.45 31.9241 219.45 31.4481C219.45 30.9627 219.534 30.5007 219.702 30.0621C219.879 29.6141 220.122 29.2221 220.43 28.8861C220.747 28.5501 221.13 28.2841 221.578 28.0881C222.035 27.8827 222.544 27.7801 223.104 27.7801C223.655 27.7801 224.149 27.8827 224.588 28.0881C225.036 28.2841 225.414 28.5501 225.722 28.8861C226.039 29.2221 226.282 29.6141 226.45 30.0621C226.618 30.5007 226.702 30.9627 226.702 31.4481ZM225.372 31.4481C225.372 30.7947 225.302 30.2674 225.162 29.8661C225.022 29.4554 224.84 29.1381 224.616 28.9141C224.392 28.6901 224.145 28.5407 223.874 28.4661C223.603 28.3821 223.342 28.3401 223.09 28.3401C222.838 28.3401 222.577 28.3821 222.306 28.4661C222.035 28.5407 221.783 28.6901 221.55 28.9141C221.326 29.1381 221.139 29.4554 220.99 29.8661C220.85 30.2674 220.78 30.7947 220.78 31.4481C220.78 32.0921 220.85 32.6194 220.99 33.0301C221.139 33.4314 221.326 33.7441 221.55 33.9681C221.783 34.1921 222.035 34.3461 222.306 34.4301C222.577 34.5047 222.838 34.5421 223.09 34.5421C223.342 34.5421 223.603 34.5047 223.874 34.4301C224.145 34.3461 224.392 34.1921 224.616 33.9681C224.84 33.7441 225.022 33.4314 225.162 33.0301C225.302 32.6194 225.372 32.0921 225.372 31.4481ZM228.524 27.9341V32.4841C228.524 32.6521 228.538 32.8854 228.566 33.1841C228.604 33.4734 228.702 33.7627 228.86 34.0521C229.019 34.3321 229.266 34.5794 229.602 34.7941C229.948 34.9994 230.428 35.1021 231.044 35.1021C231.315 35.1114 231.609 35.0554 231.926 34.9341C232.253 34.8221 232.58 34.6027 232.906 34.2761L233.13 34.0521H233.186V34.9341H234.376V27.9341H233.186V32.2741C233.186 32.6381 233.135 32.9507 233.032 33.2121C232.93 33.4734 232.794 33.6927 232.626 33.8701C232.458 34.0381 232.262 34.1641 232.038 34.2481C231.814 34.3321 231.581 34.3741 231.338 34.3741C230.946 34.3741 230.638 34.2994 230.414 34.1501C230.2 33.9914 230.036 33.8094 229.924 33.6041C229.822 33.3987 229.761 33.1981 229.742 33.0021C229.724 32.7967 229.714 32.6474 229.714 32.5541V27.9341H228.524ZM242.511 34.9341V30.3981C242.511 30.2301 242.497 30.0014 242.469 29.7121C242.441 29.4134 242.348 29.1241 242.189 28.8441C242.04 28.5547 241.797 28.3074 241.461 28.1021C241.125 27.8874 240.649 27.7801 240.033 27.7801C239.762 27.7707 239.459 27.8267 239.123 27.9481C238.787 28.0601 238.456 28.2794 238.129 28.6061L237.905 28.8301H237.849V27.9341H236.659V34.9341H237.849V30.6081C237.849 30.2441 237.9 29.9314 238.003 29.6701C238.106 29.4087 238.246 29.1894 238.423 29.0121C238.6 28.8347 238.801 28.7041 239.025 28.6201C239.258 28.5361 239.496 28.4941 239.739 28.4941C240.131 28.4941 240.434 28.5734 240.649 28.7321C240.864 28.8814 241.018 29.0587 241.111 29.2641C241.214 29.4694 241.274 29.6747 241.293 29.8801C241.312 30.0854 241.321 30.2347 241.321 30.3281V34.9341H242.511ZM244.094 28.4941V27.9341H245.312V25.7781H246.502V27.9341H248.196V28.4941H246.502V33.1421C246.502 33.2541 246.506 33.3847 246.516 33.5341C246.525 33.6741 246.553 33.8094 246.6 33.9401C246.646 34.0614 246.716 34.1641 246.81 34.2481C246.912 34.3321 247.052 34.3741 247.23 34.3741C247.454 34.3741 247.64 34.2901 247.79 34.1221C247.939 33.9541 248.06 33.7721 248.154 33.5761L248.812 34.2481C248.354 34.7054 247.836 34.9341 247.258 34.9341C247.015 34.9341 246.777 34.8921 246.544 34.8081C246.31 34.7241 246.1 34.5981 245.914 34.4301C245.736 34.2527 245.592 34.0287 245.48 33.7581C245.368 33.4874 245.312 33.1701 245.312 32.8061V28.4941H244.094ZM250.492 27.9341V34.9341H251.682V27.9341H250.492ZM250.324 25.7221C250.324 25.9274 250.398 26.1047 250.548 26.2541C250.697 26.4034 250.874 26.4781 251.08 26.4781C251.285 26.4781 251.462 26.4034 251.612 26.2541C251.761 26.1047 251.836 25.9274 251.836 25.7221C251.836 25.5167 251.761 25.3394 251.612 25.1901C251.462 25.0407 251.285 24.9661 251.08 24.9661C250.874 24.9661 250.697 25.0407 250.548 25.1901C250.398 25.3394 250.324 25.5167 250.324 25.7221ZM260.202 34.9341V30.3981C260.202 30.2301 260.188 30.0014 260.16 29.7121C260.132 29.4134 260.039 29.1241 259.88 28.8441C259.731 28.5547 259.488 28.3074 259.152 28.1021C258.816 27.8874 258.34 27.7801 257.724 27.7801C257.454 27.7707 257.15 27.8267 256.814 27.9481C256.478 28.0601 256.147 28.2794 255.82 28.6061L255.596 28.8301H255.54V27.9341H254.35V34.9341H255.54V30.6081C255.54 30.2441 255.592 29.9314 255.694 29.6701C255.797 29.4087 255.937 29.1894 256.114 29.0121C256.292 28.8347 256.492 28.7041 256.716 28.6201C256.95 28.5361 257.188 28.4941 257.43 28.4941C257.822 28.4941 258.126 28.5734 258.34 28.7321C258.555 28.8814 258.709 29.0587 258.802 29.2641C258.905 29.4694 258.966 29.6747 258.984 29.8801C259.003 30.0854 259.012 30.2347 259.012 30.3281V34.9341H260.202ZM267.483 35.5221C267.483 35.9514 267.432 36.3154 267.329 36.6141C267.227 36.9127 267.082 37.1554 266.895 37.3421C266.718 37.5287 266.503 37.6641 266.251 37.7481C266.009 37.8321 265.747 37.8741 265.467 37.8741C264.973 37.8741 264.571 37.7481 264.263 37.4961C263.965 37.2441 263.689 36.9081 263.437 36.4881L262.667 37.1881C262.733 37.2721 262.835 37.3794 262.975 37.5101C263.115 37.6501 263.293 37.7854 263.507 37.9161C263.722 38.0561 263.979 38.1727 264.277 38.2661C264.576 38.3687 264.917 38.4201 265.299 38.4201C266.009 38.4201 266.583 38.3174 267.021 38.1121C267.46 37.9161 267.801 37.6501 268.043 37.3141C268.286 36.9781 268.449 36.5907 268.533 36.1521C268.627 35.7227 268.673 35.2747 268.673 34.8081V27.9341H267.483V29.0261H267.427C267.315 28.6341 267.073 28.3307 266.699 28.1161C266.335 27.8921 265.855 27.7801 265.257 27.7801C264.781 27.7801 264.347 27.8687 263.955 28.0461C263.563 28.2141 263.227 28.4567 262.947 28.7741C262.667 29.0914 262.448 29.4741 262.289 29.9221C262.14 30.3701 262.065 30.8694 262.065 31.4201C262.065 31.9801 262.14 32.4887 262.289 32.9461C262.448 33.3941 262.667 33.7814 262.947 34.1081C263.227 34.4254 263.559 34.6727 263.941 34.8501C264.333 35.0181 264.767 35.1021 265.243 35.1021C265.766 35.1021 266.219 34.9994 266.601 34.7941C266.993 34.5887 267.269 34.2621 267.427 33.8141H267.483V35.5221ZM267.483 31.9521C267.483 32.3441 267.427 32.6894 267.315 32.9881C267.213 33.2867 267.073 33.5387 266.895 33.7441C266.718 33.9494 266.513 34.1081 266.279 34.2201C266.046 34.3227 265.803 34.3741 265.551 34.3741C265.327 34.3741 265.085 34.3367 264.823 34.2621C264.571 34.1781 264.333 34.0287 264.109 33.8141C263.895 33.5994 263.713 33.2961 263.563 32.9041C263.423 32.5121 263.353 32.0081 263.353 31.3921C263.353 30.7387 263.442 30.2207 263.619 29.8381C263.797 29.4461 264.002 29.1474 264.235 28.9421C264.478 28.7367 264.721 28.6061 264.963 28.5501C265.215 28.4847 265.411 28.4521 265.551 28.4521C265.859 28.4521 266.135 28.5221 266.377 28.6621C266.62 28.7927 266.821 28.9747 266.979 29.2081C267.147 29.4321 267.273 29.6934 267.357 29.9921C267.441 30.2907 267.483 30.5987 267.483 30.9161V31.9521ZM270.907 34.3321C270.907 34.1267 270.982 33.9494 271.131 33.8001C271.28 33.6507 271.458 33.5761 271.663 33.5761C271.868 33.5761 272.046 33.6507 272.195 33.8001C272.344 33.9494 272.419 34.1267 272.419 34.3321C272.419 34.5374 272.344 34.7147 272.195 34.8641C272.046 35.0134 271.868 35.0881 271.663 35.0881C271.458 35.0881 271.28 35.0134 271.131 34.8641C270.982 34.7147 270.907 34.5374 270.907 34.3321Z" fill="#888888"/>
</svg>
