<svg width="163" height="33" viewBox="0 0 163 33" fill="none" xmlns="http://www.w3.org/2000/svg">
<path d="M32.8183 0.216161V5.80616C32.8183 6.1615 32.853 6.55583 32.9223 6.98916C32.9917 7.41383 33.1563 7.8125 33.4163 8.18516C33.6763 8.54916 34.062 8.85683 34.5733 9.10816C35.0847 9.35083 35.7823 9.47216 36.6663 9.47216C37.221 9.47216 37.7107 9.3855 38.1353 9.21216C38.5687 9.03883 38.9283 8.8005 39.2143 8.49716C39.509 8.19383 39.73 7.84283 39.8773 7.44416C40.0247 7.03683 40.0983 6.6035 40.0983 6.14416V0.216161H39.5263V5.71516C39.5263 5.90583 39.522 6.10083 39.5133 6.30016C39.5047 6.49083 39.4787 6.68583 39.4353 6.88516C39.392 7.07583 39.3227 7.2665 39.2273 7.45716C39.1407 7.64783 39.0107 7.8385 38.8373 8.02916C38.5253 8.36716 38.1743 8.59683 37.7843 8.71816C37.3943 8.8395 36.987 8.90016 36.5623 8.90016C36.1983 8.90016 35.8733 8.84383 35.5873 8.73116C35.31 8.6185 35.0457 8.4495 34.7943 8.22416C34.595 8.05083 34.4433 7.8775 34.3393 7.70416C34.2353 7.53083 34.1573 7.36183 34.1053 7.19716C34.0533 7.02383 34.023 6.8505 34.0143 6.67716C34.0057 6.50383 34.0013 6.3305 34.0013 6.15716V0.216161H32.8183ZM47.6088 9.31616V5.10416C47.6088 4.94816 47.5958 4.73583 47.5698 4.46716C47.5438 4.18983 47.4571 3.92116 47.3098 3.66116C47.1711 3.3925 46.9458 3.16283 46.6338 2.97216C46.3218 2.77283 45.8798 2.67316 45.3078 2.67316C45.0564 2.6645 44.7748 2.7165 44.4628 2.82916C44.1508 2.93316 43.8431 3.13683 43.5398 3.44016L43.3318 3.64816H43.2798V2.81616H42.1748V9.31616H43.2798V5.29916C43.2798 4.96116 43.3274 4.67083 43.4228 4.42816C43.5181 4.1855 43.6481 3.98183 43.8128 3.81716C43.9774 3.6525 44.1638 3.53116 44.3718 3.45316C44.5884 3.37516 44.8094 3.33616 45.0348 3.33616C45.3988 3.33616 45.6804 3.40983 45.8798 3.55716C46.0791 3.69583 46.2221 3.8605 46.3088 4.05116C46.4041 4.24183 46.4604 4.4325 46.4778 4.62316C46.4951 4.81383 46.5038 4.9525 46.5038 5.03916V9.31616H47.6088ZM50.1445 2.81616V9.31616H51.2495V2.81616H50.1445ZM49.9885 0.762161C49.9885 0.952828 50.0578 1.1175 50.1965 1.25616C50.3351 1.39483 50.4998 1.46416 50.6905 1.46416C50.8811 1.46416 51.0458 1.39483 51.1845 1.25616C51.3231 1.1175 51.3925 0.952828 51.3925 0.762161C51.3925 0.571495 51.3231 0.406829 51.1845 0.268162C51.0458 0.129495 50.8811 0.0601619 50.6905 0.0601619C50.4998 0.0601619 50.3351 0.129495 50.1965 0.268162C50.0578 0.406829 49.9885 0.571495 49.9885 0.762161ZM59.4995 12.5662H58.3945V8.25016H58.3425C58.2558 8.4755 58.1388 8.66616 57.9915 8.82216C57.8528 8.97816 57.6925 9.10383 57.5105 9.19916C57.3285 9.2945 57.1335 9.36383 56.9255 9.40716C56.7262 9.4505 56.5225 9.47216 56.3145 9.47216C55.8812 9.47216 55.4825 9.39416 55.1185 9.23816C54.7545 9.0735 54.4382 8.84383 54.1695 8.54916C53.9095 8.2545 53.7058 7.89916 53.5585 7.48316C53.4112 7.0585 53.3375 6.5905 53.3375 6.07916C53.3375 5.55916 53.4112 5.09116 53.5585 4.67516C53.7058 4.25916 53.9095 3.90383 54.1695 3.60916C54.4382 3.30583 54.7545 3.07616 55.1185 2.92016C55.4825 2.7555 55.8812 2.67316 56.3145 2.67316C57.3458 2.67316 58.0218 3.07183 58.3425 3.86916H58.3945V2.81616H59.4995V12.5662ZM58.3945 5.41616C58.3945 5.13016 58.3468 4.8615 58.2515 4.61016C58.1562 4.35016 58.0262 4.12916 57.8615 3.94716C57.7055 3.7565 57.5148 3.60916 57.2895 3.50516C57.0728 3.3925 56.8388 3.33616 56.5875 3.33616C56.3102 3.33616 56.0502 3.38816 55.8075 3.49216C55.5648 3.5875 55.3525 3.7435 55.1705 3.96016C54.9885 4.17683 54.8412 4.4585 54.7285 4.80516C54.6245 5.15183 54.5725 5.56783 54.5725 6.05316C54.5725 6.54716 54.6245 6.9675 54.7285 7.31416C54.8412 7.66083 54.9885 7.94683 55.1705 8.17216C55.3612 8.38883 55.5778 8.54916 55.8205 8.65316C56.0632 8.7485 56.3188 8.79616 56.5875 8.79616C56.8302 8.79616 57.0598 8.7485 57.2765 8.65316C57.4932 8.54916 57.6838 8.40183 57.8485 8.21116C58.0132 8.01183 58.1432 7.7735 58.2385 7.49616C58.3425 7.21883 58.3945 6.9025 58.3945 6.54716V5.41616ZM61.5732 2.81616V7.04116C61.5732 7.19716 61.5862 7.41383 61.6122 7.69116C61.6469 7.95983 61.7379 8.2285 61.8852 8.49716C62.0325 8.75716 62.2622 8.98683 62.5742 9.18616C62.8949 9.37683 63.3412 9.47216 63.9132 9.47216C64.1645 9.48083 64.4375 9.42883 64.7322 9.31616C65.0355 9.21216 65.3389 9.0085 65.6422 8.70516L65.8502 8.49716H65.9022V9.31616H67.0072V2.81616H65.9022V6.84616C65.9022 7.18416 65.8545 7.4745 65.7592 7.71716C65.6639 7.95983 65.5382 8.1635 65.3822 8.32816C65.2262 8.48416 65.0442 8.60116 64.8362 8.67916C64.6282 8.75716 64.4115 8.79616 64.1862 8.79616C63.8222 8.79616 63.5362 8.72683 63.3282 8.58816C63.1289 8.44083 62.9772 8.27183 62.8732 8.08116C62.7779 7.8905 62.7215 7.70416 62.7042 7.52216C62.6869 7.3315 62.6782 7.19283 62.6782 7.10616V2.81616H61.5732ZM74.8989 6.35216V6.07916C74.8989 5.4985 74.8166 4.99583 74.6519 4.57116C74.4872 4.1465 74.2619 3.7955 73.9759 3.51816C73.6986 3.24083 73.3736 3.03283 73.0009 2.89416C72.6282 2.75549 72.2339 2.68616 71.8179 2.68616C71.3759 2.68616 70.9686 2.76416 70.5959 2.92016C70.2232 3.0675 69.8982 3.2885 69.6209 3.58316C69.3436 3.86916 69.1269 4.22016 68.9709 4.63616C68.8149 5.0435 68.7369 5.50716 68.7369 6.02716C68.7369 6.4605 68.8019 6.88516 68.9319 7.30116C69.0706 7.7085 69.2742 8.07683 69.5429 8.40616C69.8202 8.72683 70.1669 8.98683 70.5829 9.18616C71.0076 9.37683 71.5059 9.47216 72.0779 9.47216C72.6326 9.47216 73.1439 9.37683 73.6119 9.18616C74.0799 8.98683 74.4872 8.70516 74.8339 8.34116L74.4179 7.92516C74.2359 8.08116 74.0626 8.22416 73.8979 8.35416C73.7419 8.48416 73.5816 8.5925 73.4169 8.67916C73.2522 8.76583 73.0789 8.83516 72.8969 8.88716C72.7236 8.9305 72.5286 8.95216 72.3119 8.95216C72.0692 8.95216 71.8092 8.9175 71.5319 8.84816C71.2632 8.77016 71.0119 8.63583 70.7779 8.44516C70.5439 8.2545 70.3489 7.99016 70.1929 7.65216C70.0369 7.31416 69.9589 6.88083 69.9589 6.35216H74.8989ZM69.9589 5.83216C69.9589 5.4855 69.9936 5.15183 70.0629 4.83116C70.1409 4.50183 70.2536 4.2115 70.4009 3.96016C70.5569 3.70883 70.7519 3.5095 70.9859 3.36216C71.2199 3.20616 71.4972 3.12816 71.8179 3.12816C72.4332 3.12816 72.9099 3.37083 73.2479 3.85616C73.5946 4.33283 73.7679 4.9915 73.7679 5.83216H69.9589ZM86.9087 0.216161H85.8037V3.88216H85.7517C85.665 3.65683 85.548 3.4705 85.4007 3.32316C85.262 3.16716 85.1017 3.0415 84.9197 2.94616C84.7377 2.85083 84.5427 2.78149 84.3347 2.73816C84.1353 2.69483 83.9317 2.67316 83.7237 2.67316C83.2903 2.67316 82.8917 2.7555 82.5277 2.92016C82.1637 3.07616 81.8473 3.3015 81.5787 3.59616C81.3187 3.89083 81.115 4.24616 80.9677 4.66216C80.8203 5.07816 80.7467 5.54183 80.7467 6.05316C80.7467 6.57316 80.8203 7.0455 80.9677 7.47016C81.115 7.88616 81.3187 8.24583 81.5787 8.54916C81.8473 8.84383 82.1637 9.0735 82.5277 9.23816C82.8917 9.39416 83.2903 9.47216 83.7237 9.47216C84.7463 9.47216 85.4223 9.06916 85.7517 8.26316H85.8037V9.31616H86.9087V0.216161ZM85.8037 6.71616C85.8037 7.00216 85.756 7.27516 85.6607 7.53516C85.5653 7.7865 85.4353 8.0075 85.2707 8.19816C85.1147 8.38016 84.924 8.5275 84.6987 8.64016C84.482 8.74416 84.248 8.79616 83.9967 8.79616C83.7193 8.79616 83.4593 8.7485 83.2167 8.65316C82.974 8.54916 82.7617 8.38883 82.5797 8.17216C82.3977 7.9555 82.2503 7.67383 82.1377 7.32716C82.0337 6.9805 81.9817 6.5645 81.9817 6.07916C81.9817 5.58516 82.0337 5.16483 82.1377 4.81816C82.2503 4.4715 82.3977 4.18983 82.5797 3.97316C82.7703 3.74783 82.987 3.5875 83.2297 3.49216C83.4723 3.38816 83.728 3.33616 83.9967 3.33616C84.2393 3.33616 84.469 3.38816 84.6857 3.49216C84.9023 3.5875 85.093 3.73483 85.2577 3.93416C85.4223 4.12483 85.5523 4.35883 85.6477 4.63616C85.7517 4.9135 85.8037 5.22983 85.8037 5.58516V6.71616ZM94.7544 6.35216V6.07916C94.7544 5.4985 94.672 4.99583 94.5074 4.57116C94.3427 4.1465 94.1174 3.7955 93.8314 3.51816C93.554 3.24083 93.229 3.03283 92.8564 2.89416C92.4837 2.75549 92.0894 2.68616 91.6734 2.68616C91.2314 2.68616 90.824 2.76416 90.4514 2.92016C90.0787 3.0675 89.7537 3.2885 89.4764 3.58316C89.199 3.86916 88.9824 4.22016 88.8264 4.63616C88.6704 5.0435 88.5924 5.50716 88.5924 6.02716C88.5924 6.4605 88.6574 6.88516 88.7874 7.30116C88.926 7.7085 89.1297 8.07683 89.3984 8.40616C89.6757 8.72683 90.0224 8.98683 90.4384 9.18616C90.863 9.37683 91.3614 9.47216 91.9334 9.47216C92.488 9.47216 92.9994 9.37683 93.4674 9.18616C93.9354 8.98683 94.3427 8.70516 94.6894 8.34116L94.2734 7.92516C94.0914 8.08116 93.918 8.22416 93.7534 8.35416C93.5974 8.48416 93.437 8.5925 93.2724 8.67916C93.1077 8.76583 92.9344 8.83516 92.7524 8.88716C92.579 8.9305 92.384 8.95216 92.1674 8.95216C91.9247 8.95216 91.6647 8.9175 91.3874 8.84816C91.1187 8.77016 90.8674 8.63583 90.6334 8.44516C90.3994 8.2545 90.2044 7.99016 90.0484 7.65216C89.8924 7.31416 89.8144 6.88083 89.8144 6.35216H94.7544ZM89.8144 5.83216C89.8144 5.4855 89.849 5.15183 89.9184 4.83116C89.9964 4.50183 90.109 4.2115 90.2564 3.96016C90.4124 3.70883 90.6074 3.5095 90.8414 3.36216C91.0754 3.20616 91.3527 3.12816 91.6734 3.12816C92.2887 3.12816 92.7654 3.37083 93.1034 3.85616C93.45 4.33283 93.6234 4.9915 93.6234 5.83216H89.8144ZM100.594 4.29816C100.594 4.06416 100.534 3.8475 100.412 3.64816C100.291 3.44883 100.122 3.27983 99.9052 3.14116C99.6972 2.99383 99.4502 2.88116 99.1642 2.80316C98.8869 2.71649 98.5879 2.67316 98.2672 2.67316C97.9639 2.67316 97.6779 2.71216 97.4092 2.79016C97.1492 2.86816 96.9196 2.98516 96.7202 3.14116C96.5296 3.29716 96.3779 3.49216 96.2652 3.72616C96.1526 3.9515 96.0962 4.21583 96.0962 4.51916C96.0962 4.93516 96.1916 5.2645 96.3822 5.50716C96.5729 5.74983 96.8112 5.94483 97.0972 6.09216C97.3832 6.2395 97.6909 6.36083 98.0202 6.45616C98.3582 6.54283 98.6702 6.6425 98.9562 6.75516C99.2422 6.85916 99.4806 6.9935 99.6712 7.15816C99.8619 7.32283 99.9572 7.54816 99.9572 7.83416C99.9572 7.9555 99.9356 8.08116 99.8922 8.21116C99.8576 8.34116 99.7882 8.4625 99.6842 8.57516C99.5802 8.67916 99.4372 8.77016 99.2552 8.84816C99.0732 8.9175 98.8436 8.95216 98.5662 8.95216C98.2196 8.95216 97.9249 8.90016 97.6822 8.79616C97.4482 8.6835 97.2532 8.5535 97.0972 8.40616C96.9499 8.25016 96.8416 8.09416 96.7722 7.93816C96.7116 7.78216 96.6812 7.65216 96.6812 7.54816H95.8362C95.8362 7.79083 95.8926 8.02916 96.0052 8.26316C96.1179 8.4885 96.2869 8.69216 96.5122 8.87416C96.7462 9.05616 97.0279 9.2035 97.3572 9.31616C97.6952 9.42016 98.0852 9.47216 98.5272 9.47216C99.3246 9.47216 99.9226 9.29883 100.321 8.95216C100.729 8.59683 100.932 8.13316 100.932 7.56116C100.932 7.14516 100.833 6.8115 100.633 6.56016C100.443 6.30883 100.2 6.1095 99.9052 5.96216C99.6106 5.80616 99.2899 5.6805 98.9432 5.58516C98.6052 5.48983 98.2889 5.39016 97.9942 5.28616C97.6996 5.18216 97.4526 5.0565 97.2532 4.90916C97.0626 4.76183 96.9672 4.55383 96.9672 4.28516C96.9672 4.1725 96.9889 4.0555 97.0322 3.93416C97.0756 3.80416 97.1492 3.68716 97.2532 3.58316C97.3572 3.4705 97.4959 3.3795 97.6692 3.31016C97.8426 3.23216 98.0592 3.19316 98.3192 3.19316C98.5792 3.19316 98.8046 3.23216 98.9952 3.31016C99.1859 3.3795 99.3462 3.4705 99.4762 3.58316C99.6062 3.68716 99.7016 3.80416 99.7622 3.93416C99.8229 4.06416 99.8532 4.1855 99.8532 4.29816H100.594ZM103.109 2.81616V9.31616H104.214V2.81616H103.109ZM102.953 0.762161C102.953 0.952828 103.023 1.1175 103.161 1.25616C103.3 1.39483 103.465 1.46416 103.655 1.46416C103.846 1.46416 104.011 1.39483 104.149 1.25616C104.288 1.1175 104.357 0.952828 104.357 0.762161C104.357 0.571495 104.288 0.406829 104.149 0.268162C104.011 0.129495 103.846 0.0601619 103.655 0.0601619C103.465 0.0601619 103.3 0.129495 103.161 0.268162C103.023 0.406829 102.953 0.571495 102.953 0.762161ZM111.333 9.86216C111.333 10.2608 111.286 10.5988 111.19 10.8762C111.095 11.1535 110.961 11.3788 110.787 11.5522C110.623 11.7255 110.423 11.8512 110.189 11.9292C109.964 12.0072 109.721 12.0462 109.461 12.0462C109.002 12.0462 108.629 11.9292 108.343 11.6952C108.066 11.4612 107.81 11.1492 107.576 10.7592L106.861 11.4092C106.922 11.4872 107.017 11.5868 107.147 11.7082C107.277 11.8382 107.442 11.9638 107.641 12.0852C107.841 12.2152 108.079 12.3235 108.356 12.4102C108.634 12.5055 108.95 12.5532 109.305 12.5532C109.964 12.5532 110.497 12.4578 110.904 12.2672C111.312 12.0852 111.628 11.8382 111.853 11.5262C112.079 11.2142 112.23 10.8545 112.308 10.4472C112.395 10.0485 112.438 9.6325 112.438 9.19916V2.81616H111.333V3.83016H111.281C111.177 3.46616 110.952 3.1845 110.605 2.98516C110.267 2.77716 109.821 2.67316 109.266 2.67316C108.824 2.67316 108.421 2.7555 108.057 2.92016C107.693 3.07616 107.381 3.3015 107.121 3.59616C106.861 3.89083 106.658 4.24616 106.51 4.66216C106.372 5.07816 106.302 5.54183 106.302 6.05316C106.302 6.57316 106.372 7.0455 106.51 7.47016C106.658 7.88616 106.861 8.24583 107.121 8.54916C107.381 8.84383 107.689 9.0735 108.044 9.23816C108.408 9.39416 108.811 9.47216 109.253 9.47216C109.739 9.47216 110.159 9.37683 110.514 9.18616C110.878 8.9955 111.134 8.69216 111.281 8.27616H111.333V9.86216ZM111.333 6.54716C111.333 6.91116 111.281 7.23183 111.177 7.50916C111.082 7.7865 110.952 8.0205 110.787 8.21116C110.623 8.40183 110.432 8.54916 110.215 8.65316C109.999 8.7485 109.773 8.79616 109.539 8.79616C109.331 8.79616 109.106 8.7615 108.863 8.69216C108.629 8.61416 108.408 8.4755 108.2 8.27616C108.001 8.07683 107.832 7.79516 107.693 7.43116C107.563 7.06716 107.498 6.59916 107.498 6.02716C107.498 5.4205 107.581 4.9395 107.745 4.58416C107.91 4.22016 108.101 3.94283 108.317 3.75216C108.543 3.5615 108.768 3.44016 108.993 3.38816C109.227 3.3275 109.409 3.29716 109.539 3.29716C109.825 3.29716 110.081 3.36216 110.306 3.49216C110.532 3.6135 110.718 3.7825 110.865 3.99916C111.021 4.20716 111.138 4.44983 111.216 4.72716C111.294 5.0045 111.333 5.2905 111.333 5.58516V6.54716ZM119.947 9.31616V5.10416C119.947 4.94816 119.934 4.73583 119.908 4.46716C119.882 4.18983 119.795 3.92116 119.648 3.66116C119.509 3.3925 119.284 3.16283 118.972 2.97216C118.66 2.77283 118.218 2.67316 117.646 2.67316C117.394 2.6645 117.113 2.7165 116.801 2.82916C116.489 2.93316 116.181 3.13683 115.878 3.44016L115.67 3.64816H115.618V2.81616H114.513V9.31616H115.618V5.29916C115.618 4.96116 115.665 4.67083 115.761 4.42816C115.856 4.1855 115.986 3.98183 116.151 3.81716C116.315 3.6525 116.502 3.53116 116.71 3.45316C116.926 3.37516 117.147 3.33616 117.373 3.33616C117.737 3.33616 118.018 3.40983 118.218 3.55716C118.417 3.69583 118.56 3.8605 118.647 4.05116C118.742 4.24183 118.798 4.4325 118.816 4.62316C118.833 4.81383 118.842 4.9525 118.842 5.03916V9.31616H119.947ZM126.213 4.29816C126.213 4.06416 126.153 3.8475 126.031 3.64816C125.91 3.44883 125.741 3.27983 125.524 3.14116C125.316 2.99383 125.069 2.88116 124.783 2.80316C124.506 2.71649 124.207 2.67316 123.886 2.67316C123.583 2.67316 123.297 2.71216 123.028 2.79016C122.768 2.86816 122.539 2.98516 122.339 3.14116C122.149 3.29716 121.997 3.49216 121.884 3.72616C121.772 3.9515 121.715 4.21583 121.715 4.51916C121.715 4.93516 121.811 5.2645 122.001 5.50716C122.192 5.74983 122.43 5.94483 122.716 6.09216C123.002 6.2395 123.31 6.36083 123.639 6.45616C123.977 6.54283 124.289 6.6425 124.575 6.75516C124.861 6.85916 125.1 6.9935 125.29 7.15816C125.481 7.32283 125.576 7.54816 125.576 7.83416C125.576 7.9555 125.555 8.08116 125.511 8.21116C125.477 8.34116 125.407 8.4625 125.303 8.57516C125.199 8.67916 125.056 8.77016 124.874 8.84816C124.692 8.9175 124.463 8.95216 124.185 8.95216C123.839 8.95216 123.544 8.90016 123.301 8.79616C123.067 8.6835 122.872 8.5535 122.716 8.40616C122.569 8.25016 122.461 8.09416 122.391 7.93816C122.331 7.78216 122.3 7.65216 122.3 7.54816H121.455C121.455 7.79083 121.512 8.02916 121.624 8.26316C121.737 8.4885 121.906 8.69216 122.131 8.87416C122.365 9.05616 122.647 9.2035 122.976 9.31616C123.314 9.42016 123.704 9.47216 124.146 9.47216C124.944 9.47216 125.542 9.29883 125.94 8.95216C126.348 8.59683 126.551 8.13316 126.551 7.56116C126.551 7.14516 126.452 6.8115 126.252 6.56016C126.062 6.30883 125.819 6.1095 125.524 5.96216C125.23 5.80616 124.909 5.6805 124.562 5.58516C124.224 5.48983 123.908 5.39016 123.613 5.28616C123.319 5.18216 123.072 5.0565 122.872 4.90916C122.682 4.76183 122.586 4.55383 122.586 4.28516C122.586 4.1725 122.608 4.0555 122.651 3.93416C122.695 3.80416 122.768 3.68716 122.872 3.58316C122.976 3.4705 123.115 3.3795 123.288 3.31016C123.462 3.23216 123.678 3.19316 123.938 3.19316C124.198 3.19316 124.424 3.23216 124.614 3.31016C124.805 3.3795 124.965 3.4705 125.095 3.58316C125.225 3.68716 125.321 3.80416 125.381 3.93416C125.442 4.06416 125.472 4.1855 125.472 4.29816H126.213ZM3.0277 22.6732C3.66037 22.6732 4.15004 22.7642 4.4967 22.9462C4.84337 23.1195 5.0947 23.3492 5.2507 23.6352C5.41537 23.9212 5.5107 24.2505 5.5367 24.6232C5.5627 24.9958 5.5757 25.3772 5.5757 25.7672V29.3162H4.5227V28.6792C4.27137 28.9218 3.9507 29.1168 3.5607 29.2642C3.1707 29.4028 2.7807 29.4722 2.3907 29.4722C2.01804 29.4722 1.6887 29.4072 1.4027 29.2772C1.1167 29.1472 0.87837 28.9782 0.687703 28.7702C0.497037 28.5622 0.354036 28.3282 0.258703 28.0682C0.16337 27.8082 0.115703 27.5438 0.115703 27.2752C0.115703 26.9978 0.167703 26.7205 0.271703 26.4432C0.375703 26.1658 0.531703 25.9188 0.739703 25.7022C0.947703 25.4768 1.20337 25.2948 1.5067 25.1562C1.81004 25.0175 2.1567 24.9482 2.5467 24.9482C2.9367 24.9482 3.30504 25.0262 3.6517 25.1822C4.00704 25.3295 4.29737 25.5418 4.5227 25.8192V25.2602C4.5227 24.5495 4.41437 24.0208 4.1977 23.6742C3.9897 23.3275 3.60404 23.1542 3.0407 23.1542C2.79804 23.1542 2.5857 23.1845 2.4037 23.2452C2.2217 23.3058 2.05704 23.3925 1.9097 23.5052C1.77104 23.6092 1.64104 23.7435 1.5197 23.9082C1.39837 24.0642 1.27704 24.2418 1.1557 24.4412L0.479703 23.7652C0.601036 23.6352 0.726703 23.5052 0.856703 23.3752C0.99537 23.2452 1.16004 23.1282 1.3507 23.0242C1.55004 22.9202 1.78404 22.8378 2.0527 22.7772C2.32137 22.7078 2.64637 22.6732 3.0277 22.6732ZM4.5227 26.7422C4.47937 26.6382 4.41437 26.5168 4.3277 26.3782C4.2497 26.2395 4.1457 26.1052 4.0157 25.9752C3.8857 25.8452 3.7297 25.7368 3.5477 25.6502C3.3657 25.5548 3.14904 25.5072 2.8977 25.5072C2.64637 25.5072 2.4167 25.5592 2.2087 25.6632C2.0007 25.7585 1.82304 25.8885 1.6757 26.0532C1.53704 26.2092 1.4287 26.3955 1.3507 26.6122C1.2727 26.8288 1.2337 27.0542 1.2337 27.2882C1.2337 27.5655 1.28137 27.8082 1.3767 28.0162C1.4807 28.2155 1.6107 28.3888 1.7667 28.5362C1.9227 28.6748 2.09604 28.7788 2.2867 28.8482C2.47737 28.9175 2.65937 28.9522 2.8327 28.9522C2.99737 28.9522 3.16204 28.9218 3.3267 28.8612C3.50004 28.8005 3.66037 28.7182 3.8077 28.6142C3.9637 28.5015 4.10237 28.3715 4.2237 28.2242C4.34504 28.0768 4.4447 27.9165 4.5227 27.7432V26.7422ZM13.0902 29.3162V25.1042C13.0902 24.9482 13.0772 24.7358 13.0512 24.4672C13.0252 24.1898 12.9385 23.9212 12.7912 23.6612C12.6525 23.3925 12.4272 23.1628 12.1152 22.9722C11.8032 22.7728 11.3612 22.6732 10.7892 22.6732C10.5379 22.6645 10.2562 22.7165 9.94421 22.8292C9.63221 22.9332 9.32454 23.1368 9.02121 23.4402L8.81321 23.6482H8.76121V22.8162H7.65621V29.3162H8.76121V25.2992C8.76121 24.9612 8.80888 24.6708 8.90421 24.4282C8.99954 24.1855 9.12954 23.9818 9.29421 23.8172C9.45888 23.6525 9.64521 23.5312 9.85321 23.4532C10.0699 23.3752 10.2909 23.3362 10.5162 23.3362C10.8802 23.3362 11.1619 23.4098 11.3612 23.5572C11.5605 23.6958 11.7035 23.8605 11.7902 24.0512C11.8855 24.2418 11.9419 24.4325 11.9592 24.6232C11.9765 24.8138 11.9852 24.9525 11.9852 25.0392V29.3162H13.0902ZM20.9819 20.2162H19.8769V23.8822H19.8249C19.7383 23.6568 19.6213 23.4705 19.4739 23.3232C19.3353 23.1672 19.1749 23.0415 18.9929 22.9462C18.8109 22.8508 18.6159 22.7815 18.4079 22.7382C18.2086 22.6948 18.0049 22.6732 17.7969 22.6732C17.3636 22.6732 16.9649 22.7555 16.6009 22.9202C16.2369 23.0762 15.9206 23.3015 15.6519 23.5962C15.3919 23.8908 15.1883 24.2462 15.0409 24.6622C14.8936 25.0782 14.8199 25.5418 14.8199 26.0532C14.8199 26.5732 14.8936 27.0455 15.0409 27.4702C15.1883 27.8862 15.3919 28.2458 15.6519 28.5492C15.9206 28.8438 16.2369 29.0735 16.6009 29.2382C16.9649 29.3942 17.3636 29.4722 17.7969 29.4722C18.8196 29.4722 19.4956 29.0692 19.8249 28.2632H19.8769V29.3162H20.9819V20.2162ZM19.8769 26.7162C19.8769 27.0022 19.8293 27.2752 19.7339 27.5352C19.6386 27.7865 19.5086 28.0075 19.3439 28.1982C19.1879 28.3802 18.9973 28.5275 18.7719 28.6402C18.5553 28.7442 18.3213 28.7962 18.0699 28.7962C17.7926 28.7962 17.5326 28.7485 17.2899 28.6532C17.0473 28.5492 16.8349 28.3888 16.6529 28.1722C16.4709 27.9555 16.3236 27.6738 16.2109 27.3272C16.1069 26.9805 16.0549 26.5645 16.0549 26.0792C16.0549 25.5852 16.1069 25.1648 16.2109 24.8182C16.3236 24.4715 16.4709 24.1898 16.6529 23.9732C16.8436 23.7478 17.0603 23.5875 17.3029 23.4922C17.5456 23.3882 17.8013 23.3362 18.0699 23.3362C18.3126 23.3362 18.5423 23.3882 18.7589 23.4922C18.9756 23.5875 19.1663 23.7348 19.3309 23.9342C19.4956 24.1248 19.6256 24.3588 19.7209 24.6362C19.8249 24.9135 19.8769 25.2298 19.8769 25.5852V26.7162ZM27.6005 20.2162V29.3162H28.7055V25.5592C28.7055 25.3858 28.7185 25.1735 28.7445 24.9222C28.7705 24.6708 28.8399 24.4282 28.9525 24.1942C29.0739 23.9602 29.2515 23.7608 29.4855 23.5962C29.7195 23.4228 30.0445 23.3362 30.4605 23.3362C30.7552 23.3362 30.9892 23.3925 31.1625 23.5052C31.3445 23.6092 31.4832 23.7522 31.5785 23.9342C31.6739 24.1162 31.7345 24.3285 31.7605 24.5712C31.7952 24.8138 31.8125 25.0652 31.8125 25.3252V29.3162H32.9175V25.0262C32.9175 24.5408 32.8482 24.1465 32.7095 23.8432C32.5709 23.5312 32.3975 23.2885 32.1895 23.1152C31.9815 22.9418 31.7519 22.8248 31.5005 22.7642C31.2579 22.7035 31.0239 22.6732 30.7985 22.6732C30.4952 22.6732 30.1745 22.7338 29.8365 22.8552C29.5072 22.9678 29.1952 23.1888 28.9005 23.5182L28.7575 23.7002H28.7055V20.2162H27.6005ZM35.4179 22.8162V29.3162H36.5229V22.8162H35.4179ZM35.2619 20.7622C35.2619 20.9528 35.3312 21.1175 35.4699 21.2562C35.6086 21.3948 35.7732 21.4642 35.9639 21.4642C36.1546 21.4642 36.3192 21.3948 36.4579 21.2562C36.5966 21.1175 36.6659 20.9528 36.6659 20.7622C36.6659 20.5715 36.5966 20.4068 36.4579 20.2682C36.3192 20.1295 36.1546 20.0602 35.9639 20.0602C35.7732 20.0602 35.6086 20.1295 35.4699 20.2682C35.3312 20.4068 35.2619 20.5715 35.2619 20.7622ZM43.6419 29.8622C43.6419 30.2608 43.5943 30.5988 43.4989 30.8762C43.4036 31.1535 43.2693 31.3788 43.0959 31.5522C42.9313 31.7255 42.7319 31.8512 42.4979 31.9292C42.2726 32.0072 42.0299 32.0462 41.7699 32.0462C41.3106 32.0462 40.9379 31.9292 40.6519 31.6952C40.3746 31.4612 40.1189 31.1492 39.8849 30.7592L39.1699 31.4092C39.2306 31.4872 39.3259 31.5868 39.4559 31.7082C39.5859 31.8382 39.7506 31.9638 39.9499 32.0852C40.1493 32.2152 40.3876 32.3235 40.6649 32.4102C40.9423 32.5055 41.2586 32.5532 41.6139 32.5532C42.2726 32.5532 42.8056 32.4578 43.2129 32.2672C43.6203 32.0852 43.9366 31.8382 44.1619 31.5262C44.3873 31.2142 44.5389 30.8545 44.6169 30.4472C44.7036 30.0485 44.7469 29.6325 44.7469 29.1992V22.8162H43.6419V23.8302H43.5899C43.4859 23.4662 43.2606 23.1845 42.9139 22.9852C42.5759 22.7772 42.1296 22.6732 41.5749 22.6732C41.1329 22.6732 40.7299 22.7555 40.3659 22.9202C40.0019 23.0762 39.6899 23.3015 39.4299 23.5962C39.1699 23.8908 38.9663 24.2462 38.8189 24.6622C38.6803 25.0782 38.6109 25.5418 38.6109 26.0532C38.6109 26.5732 38.6803 27.0455 38.8189 27.4702C38.9663 27.8862 39.1699 28.2458 39.4299 28.5492C39.6899 28.8438 39.9976 29.0735 40.3529 29.2382C40.7169 29.3942 41.1199 29.4722 41.5619 29.4722C42.0473 29.4722 42.4676 29.3768 42.8229 29.1862C43.1869 28.9955 43.4426 28.6922 43.5899 28.2762H43.6419V29.8622ZM43.6419 26.5472C43.6419 26.9112 43.5899 27.2318 43.4859 27.5092C43.3906 27.7865 43.2606 28.0205 43.0959 28.2112C42.9313 28.4018 42.7406 28.5492 42.5239 28.6532C42.3073 28.7485 42.0819 28.7962 41.8479 28.7962C41.6399 28.7962 41.4146 28.7615 41.1719 28.6922C40.9379 28.6142 40.7169 28.4755 40.5089 28.2762C40.3096 28.0768 40.1406 27.7952 40.0019 27.4312C39.8719 27.0672 39.8069 26.5992 39.8069 26.0272C39.8069 25.4205 39.8893 24.9395 40.0539 24.5842C40.2186 24.2202 40.4093 23.9428 40.6259 23.7522C40.8513 23.5615 41.0766 23.4402 41.3019 23.3882C41.5359 23.3275 41.7179 23.2972 41.8479 23.2972C42.1339 23.2972 42.3896 23.3622 42.6149 23.4922C42.8403 23.6135 43.0266 23.7825 43.1739 23.9992C43.3299 24.2072 43.4469 24.4498 43.5249 24.7272C43.6029 25.0045 43.6419 25.2905 43.6419 25.5852V26.5472ZM46.8213 20.2162V29.3162H47.9263V25.5592C47.9263 25.3858 47.9393 25.1735 47.9653 24.9222C47.9913 24.6708 48.0606 24.4282 48.1733 24.1942C48.2946 23.9602 48.4723 23.7608 48.7063 23.5962C48.9403 23.4228 49.2653 23.3362 49.6813 23.3362C49.9759 23.3362 50.2099 23.3925 50.3833 23.5052C50.5653 23.6092 50.7039 23.7522 50.7993 23.9342C50.8946 24.1162 50.9553 24.3285 50.9813 24.5712C51.0159 24.8138 51.0333 25.0652 51.0333 25.3252V29.3162H52.1383V25.0262C52.1383 24.5408 52.0689 24.1465 51.9303 23.8432C51.7916 23.5312 51.6183 23.2885 51.4103 23.1152C51.2023 22.9418 50.9726 22.8248 50.7213 22.7642C50.4786 22.7035 50.2446 22.6732 50.0193 22.6732C49.7159 22.6732 49.3953 22.7338 49.0573 22.8552C48.7279 22.9678 48.4159 23.1888 48.1213 23.5182L47.9783 23.7002H47.9263V20.2162H46.8213ZM57.1736 25.3512V26.3262H53.9626V25.3512H57.1736ZM64.7681 32.5662H63.6631V28.2502H63.6111C63.5244 28.4755 63.4074 28.6662 63.2601 28.8222C63.1214 28.9782 62.9611 29.1038 62.7791 29.1992C62.5971 29.2945 62.4021 29.3638 62.1941 29.4072C61.9947 29.4505 61.7911 29.4722 61.5831 29.4722C61.1497 29.4722 60.7511 29.3942 60.3871 29.2382C60.0231 29.0735 59.7067 28.8438 59.4381 28.5492C59.1781 28.2545 58.9744 27.8992 58.8271 27.4832C58.6797 27.0585 58.6061 26.5905 58.6061 26.0792C58.6061 25.5592 58.6797 25.0912 58.8271 24.6752C58.9744 24.2592 59.1781 23.9038 59.4381 23.6092C59.7067 23.3058 60.0231 23.0762 60.3871 22.9202C60.7511 22.7555 61.1497 22.6732 61.5831 22.6732C62.6144 22.6732 63.2904 23.0718 63.6111 23.8692H63.6631V22.8162H64.7681V32.5662ZM63.6631 25.4162C63.6631 25.1302 63.6154 24.8615 63.5201 24.6102C63.4247 24.3502 63.2947 24.1292 63.1301 23.9472C62.9741 23.7565 62.7834 23.6092 62.5581 23.5052C62.3414 23.3925 62.1074 23.3362 61.8561 23.3362C61.5787 23.3362 61.3187 23.3882 61.0761 23.4922C60.8334 23.5875 60.6211 23.7435 60.4391 23.9602C60.2571 24.1768 60.1097 24.4585 59.9971 24.8052C59.8931 25.1518 59.8411 25.5678 59.8411 26.0532C59.8411 26.5472 59.8931 26.9675 59.9971 27.3142C60.1097 27.6608 60.2571 27.9468 60.4391 28.1722C60.6297 28.3888 60.8464 28.5492 61.0891 28.6532C61.3317 28.7485 61.5874 28.7962 61.8561 28.7962C62.0987 28.7962 62.3284 28.7485 62.5451 28.6532C62.7617 28.5492 62.9524 28.4018 63.1171 28.2112C63.2817 28.0118 63.4117 27.7735 63.5071 27.4962C63.6111 27.2188 63.6631 26.9025 63.6631 26.5472V25.4162ZM66.8418 22.8162V27.0412C66.8418 27.1972 66.8548 27.4138 66.8808 27.6912C66.9154 27.9598 67.0064 28.2285 67.1538 28.4972C67.3011 28.7572 67.5308 28.9868 67.8428 29.1862C68.1634 29.3768 68.6098 29.4722 69.1818 29.4722C69.4331 29.4808 69.7061 29.4288 70.0008 29.3162C70.3041 29.2122 70.6074 29.0085 70.9108 28.7052L71.1188 28.4972H71.1708V29.3162H72.2758V22.8162H71.1708V26.8462C71.1708 27.1842 71.1231 27.4745 71.0278 27.7172C70.9324 27.9598 70.8068 28.1635 70.6508 28.3282C70.4948 28.4842 70.3128 28.6012 70.1048 28.6792C69.8968 28.7572 69.6801 28.7962 69.4548 28.7962C69.0908 28.7962 68.8048 28.7268 68.5968 28.5882C68.3974 28.4408 68.2458 28.2718 68.1418 28.0812C68.0464 27.8905 67.9901 27.7042 67.9728 27.5222C67.9554 27.3315 67.9468 27.1928 67.9468 27.1062V22.8162H66.8418ZM76.7875 22.6732C77.4201 22.6732 77.9098 22.7642 78.2565 22.9462C78.6031 23.1195 78.8545 23.3492 79.0105 23.6352C79.1751 23.9212 79.2705 24.2505 79.2965 24.6232C79.3225 24.9958 79.3355 25.3772 79.3355 25.7672V29.3162H78.2825V28.6792C78.0311 28.9218 77.7105 29.1168 77.3205 29.2642C76.9305 29.4028 76.5405 29.4722 76.1505 29.4722C75.7778 29.4722 75.4485 29.4072 75.1625 29.2772C74.8765 29.1472 74.6381 28.9782 74.4475 28.7702C74.2568 28.5622 74.1138 28.3282 74.0185 28.0682C73.9231 27.8082 73.8755 27.5438 73.8755 27.2752C73.8755 26.9978 73.9275 26.7205 74.0315 26.4432C74.1355 26.1658 74.2915 25.9188 74.4995 25.7022C74.7075 25.4768 74.9631 25.2948 75.2665 25.1562C75.5698 25.0175 75.9165 24.9482 76.3065 24.9482C76.6965 24.9482 77.0648 25.0262 77.4115 25.1822C77.7668 25.3295 78.0571 25.5418 78.2825 25.8192V25.2602C78.2825 24.5495 78.1741 24.0208 77.9575 23.6742C77.7495 23.3275 77.3638 23.1542 76.8005 23.1542C76.5578 23.1542 76.3455 23.1845 76.1635 23.2452C75.9815 23.3058 75.8168 23.3925 75.6695 23.5052C75.5308 23.6092 75.4008 23.7435 75.2795 23.9082C75.1581 24.0642 75.0368 24.2418 74.9155 24.4412L74.2395 23.7652C74.3608 23.6352 74.4865 23.5052 74.6165 23.3752C74.7551 23.2452 74.9198 23.1282 75.1105 23.0242C75.3098 22.9202 75.5438 22.8378 75.8125 22.7772C76.0811 22.7078 76.4061 22.6732 76.7875 22.6732ZM78.2825 26.7422C78.2391 26.6382 78.1741 26.5168 78.0875 26.3782C78.0095 26.2395 77.9055 26.1052 77.7755 25.9752C77.6455 25.8452 77.4895 25.7368 77.3075 25.6502C77.1255 25.5548 76.9088 25.5072 76.6575 25.5072C76.4061 25.5072 76.1765 25.5592 75.9685 25.6632C75.7605 25.7585 75.5828 25.8885 75.4355 26.0532C75.2968 26.2092 75.1885 26.3955 75.1105 26.6122C75.0325 26.8288 74.9935 27.0542 74.9935 27.2882C74.9935 27.5655 75.0411 27.8082 75.1365 28.0162C75.2405 28.2155 75.3705 28.3888 75.5265 28.5362C75.6825 28.6748 75.8558 28.7788 76.0465 28.8482C76.2371 28.9175 76.4191 28.9522 76.5925 28.9522C76.7571 28.9522 76.9218 28.9218 77.0865 28.8612C77.2598 28.8005 77.4201 28.7182 77.5675 28.6142C77.7235 28.5015 77.8621 28.3715 77.9835 28.2242C78.1048 28.0768 78.2045 27.9165 78.2825 27.7432V26.7422ZM82.781 20.2162H81.676V29.3162H82.781V20.2162ZM85.539 22.8162V29.3162H86.644V22.8162H85.539ZM85.383 20.7622C85.383 20.9528 85.4523 21.1175 85.591 21.2562C85.7297 21.3948 85.8943 21.4642 86.085 21.4642C86.2757 21.4642 86.4403 21.3948 86.579 21.2562C86.7177 21.1175 86.787 20.9528 86.787 20.7622C86.787 20.5715 86.7177 20.4068 86.579 20.2682C86.4403 20.1295 86.2757 20.0602 86.085 20.0602C85.8943 20.0602 85.7297 20.1295 85.591 20.2682C85.4523 20.4068 85.383 20.5715 85.383 20.7622ZM88.472 23.3362V22.8162H89.603V20.8142H90.708V22.8162H92.281V23.3362H90.708V27.6522C90.708 27.7562 90.7124 27.8775 90.721 28.0162C90.7297 28.1462 90.7557 28.2718 90.799 28.3932C90.8424 28.5058 90.9074 28.6012 90.994 28.6792C91.0894 28.7572 91.2194 28.7962 91.384 28.7962C91.592 28.7962 91.7654 28.7182 91.904 28.5622C92.0427 28.4062 92.1554 28.2372 92.242 28.0552L92.853 28.6792C92.4284 29.1038 91.9474 29.3162 91.41 29.3162C91.1847 29.3162 90.9637 29.2772 90.747 29.1992C90.5304 29.1212 90.3354 29.0042 90.162 28.8482C89.9974 28.6835 89.863 28.4755 89.759 28.2242C89.655 27.9728 89.603 27.6782 89.603 27.3402V23.3362H88.472ZM96.519 27.7952L94.27 22.8162H93.087L95.999 29.2382L95.31 30.9282C95.232 31.1275 95.128 31.2878 94.998 31.4092C94.8767 31.5305 94.7337 31.5912 94.569 31.5912C94.413 31.5912 94.2614 31.5435 94.114 31.4482C93.9754 31.3615 93.867 31.2315 93.789 31.0582L93.217 32.1372C93.3817 32.2845 93.5637 32.3928 93.763 32.4622C93.9624 32.5315 94.1487 32.5662 94.322 32.5662C94.5647 32.5662 94.777 32.5055 94.959 32.3842C95.141 32.2628 95.3014 32.1025 95.44 31.9032C95.5787 31.7125 95.7 31.4958 95.804 31.2532C95.908 31.0192 96.0077 30.7852 96.103 30.5512L99.249 22.8162H98.612L96.571 27.7952H96.519ZM106.198 29.3162V25.6112C106.198 25.4552 106.211 25.2515 106.237 25.0002C106.263 24.7402 106.328 24.4888 106.432 24.2462C106.544 23.9948 106.713 23.7825 106.939 23.6092C107.164 23.4272 107.48 23.3362 107.888 23.3362C108.182 23.3362 108.408 23.4012 108.564 23.5312C108.728 23.6612 108.85 23.8215 108.928 24.0122C109.006 24.2028 109.049 24.4022 109.058 24.6102C109.075 24.8182 109.084 25.0002 109.084 25.1562V29.3162H110.189V25.6112C110.189 25.4205 110.206 25.1952 110.241 24.9352C110.275 24.6665 110.349 24.4152 110.462 24.1812C110.574 23.9472 110.735 23.7478 110.943 23.5832C111.159 23.4185 111.45 23.3362 111.814 23.3362C112.082 23.3362 112.299 23.3752 112.464 23.4532C112.628 23.5312 112.754 23.6482 112.841 23.8042C112.936 23.9602 112.997 24.1508 113.023 24.3762C113.057 24.6015 113.075 24.8615 113.075 25.1562V29.3162H114.18V24.7792C114.18 24.5798 114.158 24.3588 114.115 24.1162C114.071 23.8648 113.976 23.6352 113.829 23.4272C113.69 23.2105 113.482 23.0328 113.205 22.8942C112.936 22.7468 112.576 22.6732 112.126 22.6732C111.996 22.6732 111.844 22.6862 111.671 22.7122C111.497 22.7382 111.315 22.7945 111.125 22.8812C110.934 22.9678 110.748 23.0935 110.566 23.2582C110.392 23.4228 110.241 23.6395 110.111 23.9082H110.02C109.968 23.7695 109.894 23.6308 109.799 23.4922C109.703 23.3448 109.582 23.2105 109.435 23.0892C109.287 22.9678 109.11 22.8682 108.902 22.7902C108.702 22.7122 108.46 22.6732 108.174 22.6732C108.044 22.6732 107.888 22.6905 107.706 22.7252C107.524 22.7512 107.342 22.8075 107.16 22.8942C106.978 22.9808 106.804 23.1022 106.64 23.2582C106.484 23.4142 106.354 23.6178 106.25 23.8692H106.198V22.8162H105.093V29.3162H106.198ZM118.657 22.6732C119.289 22.6732 119.779 22.7642 120.126 22.9462C120.472 23.1195 120.724 23.3492 120.88 23.6352C121.044 23.9212 121.14 24.2505 121.166 24.6232C121.192 24.9958 121.205 25.3772 121.205 25.7672V29.3162H120.152V28.6792C119.9 28.9218 119.58 29.1168 119.19 29.2642C118.8 29.4028 118.41 29.4722 118.02 29.4722C117.647 29.4722 117.318 29.4072 117.032 29.2772C116.746 29.1472 116.507 28.9782 116.317 28.7702C116.126 28.5622 115.983 28.3282 115.888 28.0682C115.792 27.8082 115.745 27.5438 115.745 27.2752C115.745 26.9978 115.797 26.7205 115.901 26.4432C116.005 26.1658 116.161 25.9188 116.369 25.7022C116.577 25.4768 116.832 25.2948 117.136 25.1562C117.439 25.0175 117.786 24.9482 118.176 24.9482C118.566 24.9482 118.934 25.0262 119.281 25.1822C119.636 25.3295 119.926 25.5418 120.152 25.8192V25.2602C120.152 24.5495 120.043 24.0208 119.827 23.6742C119.619 23.3275 119.233 23.1542 118.67 23.1542C118.427 23.1542 118.215 23.1845 118.033 23.2452C117.851 23.3058 117.686 23.3925 117.539 23.5052C117.4 23.6092 117.27 23.7435 117.149 23.9082C117.027 24.0642 116.906 24.2418 116.785 24.4412L116.109 23.7652C116.23 23.6352 116.356 23.5052 116.486 23.3752C116.624 23.2452 116.789 23.1282 116.98 23.0242C117.179 22.9202 117.413 22.8378 117.682 22.7772C117.95 22.7078 118.275 22.6732 118.657 22.6732ZM120.152 26.7422C120.108 26.6382 120.043 26.5168 119.957 26.3782C119.879 26.2395 119.775 26.1052 119.645 25.9752C119.515 25.8452 119.359 25.7368 119.177 25.6502C118.995 25.5548 118.778 25.5072 118.527 25.5072C118.275 25.5072 118.046 25.5592 117.838 25.6632C117.63 25.7585 117.452 25.8885 117.305 26.0532C117.166 26.2092 117.058 26.3955 116.98 26.6122C116.902 26.8288 116.863 27.0542 116.863 27.2882C116.863 27.5655 116.91 27.8082 117.006 28.0162C117.11 28.2155 117.24 28.3888 117.396 28.5362C117.552 28.6748 117.725 28.7788 117.916 28.8482C118.106 28.9175 118.288 28.9522 118.462 28.9522C118.626 28.9522 118.791 28.9218 118.956 28.8612C119.129 28.8005 119.289 28.7182 119.437 28.6142C119.593 28.5015 119.731 28.3715 119.853 28.2242C119.974 28.0768 120.074 27.9165 120.152 27.7432V26.7422ZM122.635 23.3362V22.8162H123.766V20.8142H124.871V22.8162H126.444V23.3362H124.871V27.6522C124.871 27.7562 124.875 27.8775 124.884 28.0162C124.893 28.1462 124.919 28.2718 124.962 28.3932C125.005 28.5058 125.07 28.6012 125.157 28.6792C125.252 28.7572 125.382 28.7962 125.547 28.7962C125.755 28.7962 125.928 28.7182 126.067 28.5622C126.206 28.4062 126.318 28.2372 126.405 28.0552L127.016 28.6792C126.591 29.1038 126.11 29.3162 125.573 29.3162C125.348 29.3162 125.127 29.2772 124.91 29.1992C124.693 29.1212 124.498 29.0042 124.325 28.8482C124.16 28.6835 124.026 28.4755 123.922 28.2242C123.818 27.9728 123.766 27.6782 123.766 27.3402V23.3362H122.635ZM133.932 26.3522V26.0792C133.932 25.4985 133.85 24.9958 133.685 24.5712C133.52 24.1465 133.295 23.7955 133.009 23.5182C132.732 23.2408 132.407 23.0328 132.034 22.8942C131.661 22.7555 131.267 22.6862 130.851 22.6862C130.409 22.6862 130.002 22.7642 129.629 22.9202C129.256 23.0675 128.931 23.2885 128.654 23.5832C128.377 23.8692 128.16 24.2202 128.004 24.6362C127.848 25.0435 127.77 25.5072 127.77 26.0272C127.77 26.4605 127.835 26.8852 127.965 27.3012C128.104 27.7085 128.307 28.0768 128.576 28.4062C128.853 28.7268 129.2 28.9868 129.616 29.1862C130.041 29.3768 130.539 29.4722 131.111 29.4722C131.666 29.4722 132.177 29.3768 132.645 29.1862C133.113 28.9868 133.52 28.7052 133.867 28.3412L133.451 27.9252C133.269 28.0812 133.096 28.2242 132.931 28.3542C132.775 28.4842 132.615 28.5925 132.45 28.6792C132.285 28.7658 132.112 28.8352 131.93 28.8872C131.757 28.9305 131.562 28.9522 131.345 28.9522C131.102 28.9522 130.842 28.9175 130.565 28.8482C130.296 28.7702 130.045 28.6358 129.811 28.4452C129.577 28.2545 129.382 27.9902 129.226 27.6522C129.07 27.3142 128.992 26.8808 128.992 26.3522H133.932ZM128.992 25.8322C128.992 25.4855 129.027 25.1518 129.096 24.8312C129.174 24.5018 129.287 24.2115 129.434 23.9602C129.59 23.7088 129.785 23.5095 130.019 23.3622C130.253 23.2062 130.53 23.1282 130.851 23.1282C131.466 23.1282 131.943 23.3708 132.281 23.8562C132.628 24.3328 132.801 24.9915 132.801 25.8322H128.992ZM135.625 22.8162V29.3162H136.73V25.3902C136.73 25.0348 136.769 24.7358 136.847 24.4932C136.934 24.2418 137.042 24.0382 137.172 23.8822C137.302 23.7262 137.445 23.6135 137.601 23.5442C137.757 23.4748 137.909 23.4402 138.056 23.4402C138.255 23.4402 138.437 23.5052 138.602 23.6352C138.775 23.7652 138.901 23.8865 138.979 23.9992L139.421 23.1932C139.343 23.0892 139.248 23.0025 139.135 22.9332C139.031 22.8638 138.923 22.8118 138.81 22.7772C138.706 22.7338 138.606 22.7078 138.511 22.6992C138.424 22.6818 138.359 22.6732 138.316 22.6732C137.952 22.6732 137.649 22.7728 137.406 22.9722C137.163 23.1715 136.964 23.4662 136.808 23.8562H136.73V22.8162H135.625ZM141.005 22.8162V29.3162H142.11V22.8162H141.005ZM140.849 20.7622C140.849 20.9528 140.918 21.1175 141.057 21.2562C141.195 21.3948 141.36 21.4642 141.551 21.4642C141.741 21.4642 141.906 21.3948 142.045 21.2562C142.183 21.1175 142.253 20.9528 142.253 20.7622C142.253 20.5715 142.183 20.4068 142.045 20.2682C141.906 20.1295 141.741 20.0602 141.551 20.0602C141.36 20.0602 141.195 20.1295 141.057 20.2682C140.918 20.4068 140.849 20.5715 140.849 20.7622ZM146.98 22.6732C147.613 22.6732 148.102 22.7642 148.449 22.9462C148.796 23.1195 149.047 23.3492 149.203 23.6352C149.368 23.9212 149.463 24.2505 149.489 24.6232C149.515 24.9958 149.528 25.3772 149.528 25.7672V29.3162H148.475V28.6792C148.224 28.9218 147.903 29.1168 147.513 29.2642C147.123 29.4028 146.733 29.4722 146.343 29.4722C145.97 29.4722 145.641 29.4072 145.355 29.2772C145.069 29.1472 144.831 28.9782 144.64 28.7702C144.449 28.5622 144.306 28.3282 144.211 28.0682C144.116 27.8082 144.068 27.5438 144.068 27.2752C144.068 26.9978 144.12 26.7205 144.224 26.4432C144.328 26.1658 144.484 25.9188 144.692 25.7022C144.9 25.4768 145.156 25.2948 145.459 25.1562C145.762 25.0175 146.109 24.9482 146.499 24.9482C146.889 24.9482 147.257 25.0262 147.604 25.1822C147.959 25.3295 148.25 25.5418 148.475 25.8192V25.2602C148.475 24.5495 148.367 24.0208 148.15 23.6742C147.942 23.3275 147.556 23.1542 146.993 23.1542C146.75 23.1542 146.538 23.1845 146.356 23.2452C146.174 23.3058 146.009 23.3925 145.862 23.5052C145.723 23.6092 145.593 23.7435 145.472 23.9082C145.351 24.0642 145.229 24.2418 145.108 24.4412L144.432 23.7652C144.553 23.6352 144.679 23.5052 144.809 23.3752C144.948 23.2452 145.112 23.1282 145.303 23.0242C145.502 22.9202 145.736 22.8378 146.005 22.7772C146.274 22.7078 146.599 22.6732 146.98 22.6732ZM148.475 26.7422C148.432 26.6382 148.367 26.5168 148.28 26.3782C148.202 26.2395 148.098 26.1052 147.968 25.9752C147.838 25.8452 147.682 25.7368 147.5 25.6502C147.318 25.5548 147.101 25.5072 146.85 25.5072C146.599 25.5072 146.369 25.5592 146.161 25.6632C145.953 25.7585 145.775 25.8885 145.628 26.0532C145.489 26.2092 145.381 26.3955 145.303 26.6122C145.225 26.8288 145.186 27.0542 145.186 27.2882C145.186 27.5655 145.234 27.8082 145.329 28.0162C145.433 28.2155 145.563 28.3888 145.719 28.5362C145.875 28.6748 146.048 28.7788 146.239 28.8482C146.43 28.9175 146.612 28.9522 146.785 28.9522C146.95 28.9522 147.114 28.9218 147.279 28.8612C147.452 28.8005 147.613 28.7182 147.76 28.6142C147.916 28.5015 148.055 28.3715 148.176 28.2242C148.297 28.0768 148.397 27.9165 148.475 27.7432V26.7422ZM152.973 20.2162H151.868V29.3162H152.973V20.2162ZM159.462 24.2982C159.462 24.0642 159.402 23.8475 159.28 23.6482C159.159 23.4488 158.99 23.2798 158.773 23.1412C158.565 22.9938 158.318 22.8812 158.032 22.8032C157.755 22.7165 157.456 22.6732 157.135 22.6732C156.832 22.6732 156.546 22.7122 156.277 22.7902C156.017 22.8682 155.788 22.9852 155.588 23.1412C155.398 23.2972 155.246 23.4922 155.133 23.7262C155.021 23.9515 154.964 24.2158 154.964 24.5192C154.964 24.9352 155.06 25.2645 155.25 25.5072C155.441 25.7498 155.679 25.9448 155.965 26.0922C156.251 26.2395 156.559 26.3608 156.888 26.4562C157.226 26.5428 157.538 26.6425 157.824 26.7552C158.11 26.8592 158.349 26.9935 158.539 27.1582C158.73 27.3228 158.825 27.5482 158.825 27.8342C158.825 27.9555 158.804 28.0812 158.76 28.2112C158.726 28.3412 158.656 28.4625 158.552 28.5752C158.448 28.6792 158.305 28.7702 158.123 28.8482C157.941 28.9175 157.712 28.9522 157.434 28.9522C157.088 28.9522 156.793 28.9002 156.55 28.7962C156.316 28.6835 156.121 28.5535 155.965 28.4062C155.818 28.2502 155.71 28.0942 155.64 27.9382C155.58 27.7822 155.549 27.6522 155.549 27.5482H154.704C154.704 27.7908 154.761 28.0292 154.873 28.2632C154.986 28.4885 155.155 28.6922 155.38 28.8742C155.614 29.0562 155.896 29.2035 156.225 29.3162C156.563 29.4202 156.953 29.4722 157.395 29.4722C158.193 29.4722 158.791 29.2988 159.189 28.9522C159.597 28.5968 159.8 28.1332 159.8 27.5612C159.8 27.1452 159.701 26.8115 159.501 26.5602C159.311 26.3088 159.068 26.1095 158.773 25.9622C158.479 25.8062 158.158 25.6805 157.811 25.5852C157.473 25.4898 157.157 25.3902 156.862 25.2862C156.568 25.1822 156.321 25.0565 156.121 24.9092C155.931 24.7618 155.835 24.5538 155.835 24.2852C155.835 24.1725 155.857 24.0555 155.9 23.9342C155.944 23.8042 156.017 23.6872 156.121 23.5832C156.225 23.4705 156.364 23.3795 156.537 23.3102C156.711 23.2322 156.927 23.1932 157.187 23.1932C157.447 23.1932 157.673 23.2322 157.863 23.3102C158.054 23.3795 158.214 23.4705 158.344 23.5832C158.474 23.6872 158.57 23.8042 158.63 23.9342C158.691 24.0642 158.721 24.1855 158.721 24.2982H159.462ZM161.561 28.7572C161.561 28.5665 161.631 28.4018 161.769 28.2632C161.908 28.1245 162.073 28.0552 162.263 28.0552C162.454 28.0552 162.619 28.1245 162.757 28.2632C162.896 28.4018 162.965 28.5665 162.965 28.7572C162.965 28.9478 162.896 29.1125 162.757 29.2512C162.619 29.3898 162.454 29.4592 162.263 29.4592C162.073 29.4592 161.908 29.3898 161.769 29.2512C161.631 29.1125 161.561 28.9478 161.561 28.7572Z" fill="#555555"/>
</svg>
