<svg width="137" height="32" viewBox="0 0 137 32" fill="none" xmlns="http://www.w3.org/2000/svg">
<path d="M0.515078 0.379247V9.47925H1.69808V4.95525H5.72808V4.35725H1.69808V1.09425H6.39108V0.379247H0.515078ZM10.2074 2.83625C10.8401 2.83625 11.3297 2.92725 11.6764 3.10925C12.0231 3.28258 12.2744 3.51225 12.4304 3.79825C12.5951 4.08425 12.6904 4.41358 12.7164 4.78625C12.7424 5.15891 12.7554 5.54025 12.7554 5.93025V9.47925H11.7024V8.84225C11.4511 9.08491 11.1304 9.27991 10.7404 9.42725C10.3504 9.56591 9.96039 9.63525 9.57039 9.63525C9.19772 9.63525 8.86839 9.57025 8.58239 9.44025C8.29639 9.31025 8.05806 9.14125 7.86739 8.93325C7.67672 8.72525 7.53372 8.49125 7.43839 8.23125C7.34306 7.97125 7.29539 7.70691 7.29539 7.43825C7.29539 7.16091 7.34739 6.88358 7.45139 6.60625C7.55539 6.32891 7.71139 6.08191 7.91939 5.86525C8.12739 5.63991 8.38306 5.45791 8.68639 5.31925C8.98972 5.18058 9.33639 5.11125 9.72639 5.11125C10.1164 5.11125 10.4847 5.18925 10.8314 5.34525C11.1867 5.49258 11.4771 5.70491 11.7024 5.98225V5.42325C11.7024 4.71258 11.5941 4.18391 11.3774 3.83725C11.1694 3.49058 10.7837 3.31725 10.2204 3.31725C9.97772 3.31725 9.76539 3.34758 9.58339 3.40825C9.40139 3.46891 9.23672 3.55558 9.08939 3.66825C8.95072 3.77225 8.82072 3.90658 8.69939 4.07125C8.57806 4.22725 8.45672 4.40491 8.33539 4.60425L7.65939 3.92825C7.78072 3.79825 7.90639 3.66825 8.03639 3.53825C8.17506 3.40825 8.33972 3.29125 8.53039 3.18725C8.72972 3.08325 8.96372 3.00091 9.23239 2.94025C9.50106 2.87091 9.82606 2.83625 10.2074 2.83625ZM11.7024 6.90525C11.6591 6.80125 11.5941 6.67991 11.5074 6.54125C11.4294 6.40258 11.3254 6.26825 11.1954 6.13825C11.0654 6.00825 10.9094 5.89991 10.7274 5.81325C10.5454 5.71791 10.3287 5.67025 10.0774 5.67025C9.82606 5.67025 9.59639 5.72225 9.38839 5.82625C9.18039 5.92158 9.00272 6.05158 8.85539 6.21625C8.71672 6.37225 8.60839 6.55858 8.53039 6.77525C8.45239 6.99191 8.41339 7.21725 8.41339 7.45125C8.41339 7.72858 8.46106 7.97125 8.55639 8.17925C8.66039 8.37858 8.79039 8.55191 8.94639 8.69925C9.10239 8.83791 9.27572 8.94191 9.46639 9.01125C9.65706 9.08058 9.83906 9.11525 10.0124 9.11525C10.1771 9.11525 10.3417 9.08491 10.5064 9.02425C10.6797 8.96358 10.8401 8.88125 10.9874 8.77725C11.1434 8.66458 11.2821 8.53458 11.4034 8.38725C11.5247 8.23991 11.6244 8.07958 11.7024 7.90625V6.90525ZM18.9829 4.46125C18.9829 4.22725 18.9222 4.01058 18.8009 3.81125C18.6796 3.61191 18.5106 3.44291 18.2939 3.30425C18.0859 3.15691 17.8389 3.04425 17.5529 2.96625C17.2756 2.87958 16.9766 2.83625 16.6559 2.83625C16.3526 2.83625 16.0666 2.87525 15.7979 2.95325C15.5379 3.03125 15.3082 3.14825 15.1089 3.30425C14.9182 3.46025 14.7666 3.65525 14.6539 3.88925C14.5412 4.11458 14.4849 4.37891 14.4849 4.68225C14.4849 5.09825 14.5802 5.42758 14.7709 5.67025C14.9616 5.91291 15.1999 6.10791 15.4859 6.25525C15.7719 6.40258 16.0796 6.52391 16.4089 6.61925C16.7469 6.70591 17.0589 6.80558 17.3449 6.91825C17.6309 7.02225 17.8692 7.15658 18.0599 7.32125C18.2506 7.48591 18.3459 7.71125 18.3459 7.99725C18.3459 8.11858 18.3242 8.24425 18.2809 8.37425C18.2462 8.50425 18.1769 8.62558 18.0729 8.73825C17.9689 8.84225 17.8259 8.93325 17.6439 9.01125C17.4619 9.08058 17.2322 9.11525 16.9549 9.11525C16.6082 9.11525 16.3136 9.06325 16.0709 8.95925C15.8369 8.84658 15.6419 8.71658 15.4859 8.56925C15.3386 8.41325 15.2302 8.25725 15.1609 8.10125C15.1002 7.94525 15.0699 7.81525 15.0699 7.71125H14.2249C14.2249 7.95391 14.2812 8.19225 14.3939 8.42625C14.5066 8.65158 14.6756 8.85525 14.9009 9.03725C15.1349 9.21925 15.4166 9.36658 15.7459 9.47925C16.0839 9.58325 16.4739 9.63525 16.9159 9.63525C17.7132 9.63525 18.3112 9.46191 18.7099 9.11525C19.1172 8.75991 19.3209 8.29625 19.3209 7.72425C19.3209 7.30825 19.2212 6.97458 19.0219 6.72325C18.8312 6.47191 18.5886 6.27258 18.2939 6.12525C17.9992 5.96925 17.6786 5.84358 17.3319 5.74825C16.9939 5.65291 16.6776 5.55325 16.3829 5.44925C16.0882 5.34525 15.8412 5.21958 15.6419 5.07225C15.4512 4.92491 15.3559 4.71691 15.3559 4.44825C15.3559 4.33558 15.3776 4.21858 15.4209 4.09725C15.4642 3.96725 15.5379 3.85025 15.6419 3.74625C15.7459 3.63358 15.8846 3.54258 16.0579 3.47325C16.2312 3.39525 16.4479 3.35625 16.7079 3.35625C16.9679 3.35625 17.1932 3.39525 17.3839 3.47325C17.5746 3.54258 17.7349 3.63358 17.8649 3.74625C17.9949 3.85025 18.0902 3.96725 18.1509 4.09725C18.2116 4.22725 18.2419 4.34858 18.2419 4.46125H18.9829ZM20.432 3.49925V2.97925H21.563V0.977247H22.668V2.97925H24.241V3.49925H22.668V7.81525C22.668 7.91925 22.6723 8.04058 22.681 8.17925C22.6897 8.30925 22.7157 8.43491 22.759 8.55625C22.8023 8.66891 22.8673 8.76425 22.954 8.84225C23.0493 8.92025 23.1793 8.95925 23.344 8.95925C23.552 8.95925 23.7253 8.88125 23.864 8.72525C24.0027 8.56925 24.1153 8.40025 24.202 8.21825L24.813 8.84225C24.3883 9.26691 23.9073 9.47925 23.37 9.47925C23.1447 9.47925 22.9237 9.44025 22.707 9.36225C22.4903 9.28425 22.2953 9.16725 22.122 9.01125C21.9573 8.84658 21.823 8.63858 21.719 8.38725C21.615 8.13591 21.563 7.84125 21.563 7.50325V3.49925H20.432ZM34.6489 4.46125C34.6489 4.22725 34.5882 4.01058 34.4669 3.81125C34.3456 3.61191 34.1766 3.44291 33.9599 3.30425C33.7519 3.15691 33.5049 3.04425 33.2189 2.96625C32.9416 2.87958 32.6426 2.83625 32.3219 2.83625C32.0186 2.83625 31.7326 2.87525 31.4639 2.95325C31.2039 3.03125 30.9742 3.14825 30.7749 3.30425C30.5842 3.46025 30.4326 3.65525 30.3199 3.88925C30.2072 4.11458 30.1509 4.37891 30.1509 4.68225C30.1509 5.09825 30.2462 5.42758 30.4369 5.67025C30.6276 5.91291 30.8659 6.10791 31.1519 6.25525C31.4379 6.40258 31.7456 6.52391 32.0749 6.61925C32.4129 6.70591 32.7249 6.80558 33.0109 6.91825C33.2969 7.02225 33.5352 7.15658 33.7259 7.32125C33.9166 7.48591 34.0119 7.71125 34.0119 7.99725C34.0119 8.11858 33.9902 8.24425 33.9469 8.37425C33.9122 8.50425 33.8429 8.62558 33.7389 8.73825C33.6349 8.84225 33.4919 8.93325 33.3099 9.01125C33.1279 9.08058 32.8982 9.11525 32.6209 9.11525C32.2742 9.11525 31.9796 9.06325 31.7369 8.95925C31.5029 8.84658 31.3079 8.71658 31.1519 8.56925C31.0046 8.41325 30.8962 8.25725 30.8269 8.10125C30.7662 7.94525 30.7359 7.81525 30.7359 7.71125H29.8909C29.8909 7.95391 29.9472 8.19225 30.0599 8.42625C30.1726 8.65158 30.3416 8.85525 30.5669 9.03725C30.8009 9.21925 31.0826 9.36658 31.4119 9.47925C31.7499 9.58325 32.1399 9.63525 32.5819 9.63525C33.3792 9.63525 33.9772 9.46191 34.3759 9.11525C34.7832 8.75991 34.9869 8.29625 34.9869 7.72425C34.9869 7.30825 34.8872 6.97458 34.6879 6.72325C34.4972 6.47191 34.2546 6.27258 33.9599 6.12525C33.6652 5.96925 33.3446 5.84358 32.9979 5.74825C32.6599 5.65291 32.3436 5.55325 32.0489 5.44925C31.7542 5.34525 31.5072 5.21958 31.3079 5.07225C31.1172 4.92491 31.0219 4.71691 31.0219 4.44825C31.0219 4.33558 31.0436 4.21858 31.0869 4.09725C31.1302 3.96725 31.2039 3.85025 31.3079 3.74625C31.4119 3.63358 31.5506 3.54258 31.7239 3.47325C31.8972 3.39525 32.1139 3.35625 32.3739 3.35625C32.6339 3.35625 32.8592 3.39525 33.0499 3.47325C33.2406 3.54258 33.4009 3.63358 33.5309 3.74625C33.6609 3.85025 33.7562 3.96725 33.8169 4.09725C33.8776 4.22725 33.9079 4.34858 33.9079 4.46125H34.6489ZM36.748 0.379247V9.47925H37.853V5.72225C37.853 5.54891 37.866 5.33658 37.892 5.08525C37.918 4.83391 37.9873 4.59125 38.1 4.35725C38.2213 4.12325 38.399 3.92391 38.633 3.75925C38.867 3.58591 39.192 3.49925 39.608 3.49925C39.9027 3.49925 40.1367 3.55558 40.31 3.66825C40.492 3.77225 40.6307 3.91525 40.726 4.09725C40.8213 4.27925 40.882 4.49158 40.908 4.73425C40.9427 4.97691 40.96 5.22825 40.96 5.48825V9.47925H42.065V5.18925C42.065 4.70391 41.9957 4.30958 41.857 4.00625C41.7183 3.69425 41.545 3.45158 41.337 3.27825C41.129 3.10491 40.8993 2.98791 40.648 2.92725C40.4053 2.86658 40.1713 2.83625 39.946 2.83625C39.6427 2.83625 39.322 2.89691 38.984 3.01825C38.6547 3.13091 38.3427 3.35191 38.048 3.68125L37.905 3.86325H37.853V0.379247H36.748ZM44.5654 2.97925V9.47925H45.6704V2.97925H44.5654ZM44.4094 0.925247C44.4094 1.11591 44.4787 1.28058 44.6174 1.41925C44.756 1.55791 44.9207 1.62725 45.1114 1.62725C45.302 1.62725 45.4667 1.55791 45.6054 1.41925C45.744 1.28058 45.8134 1.11591 45.8134 0.925247C45.8134 0.734581 45.744 0.569914 45.6054 0.431248C45.4667 0.292581 45.302 0.223248 45.1114 0.223248C44.9207 0.223248 44.756 0.292581 44.6174 0.431248C44.4787 0.569914 44.4094 0.734581 44.4094 0.925247ZM48.1484 12.7292H49.2534V8.41325H49.3054C49.3921 8.63858 49.5047 8.82925 49.6434 8.98525C49.7907 9.14125 49.9554 9.26691 50.1374 9.36225C50.3194 9.45758 50.5101 9.52691 50.7094 9.57025C50.9174 9.61358 51.1254 9.63525 51.3334 9.63525C51.7667 9.63525 52.1654 9.55725 52.5294 9.40125C52.8934 9.23658 53.2054 9.00691 53.4654 8.71225C53.7341 8.41758 53.9421 8.06225 54.0894 7.64625C54.2367 7.22158 54.3104 6.75358 54.3104 6.24225C54.3104 5.72225 54.2367 5.25425 54.0894 4.83825C53.9421 4.42225 53.7341 4.06691 53.4654 3.77225C53.2054 3.46891 52.8934 3.23925 52.5294 3.08325C52.1654 2.91858 51.7667 2.83625 51.3334 2.83625C50.3021 2.83625 49.6261 3.23491 49.3054 4.03225H49.2534V2.97925H48.1484V12.7292ZM49.2534 5.57925C49.2534 5.29325 49.2967 5.02458 49.3834 4.77325C49.4787 4.51325 49.6087 4.29225 49.7734 4.11025C49.9381 3.91958 50.1287 3.77225 50.3454 3.66825C50.5707 3.55558 50.8091 3.49925 51.0604 3.49925C51.3291 3.49925 51.5847 3.55125 51.8274 3.65525C52.0787 3.75058 52.2954 3.90658 52.4774 4.12325C52.6594 4.33991 52.8024 4.62158 52.9064 4.96825C53.0191 5.31491 53.0754 5.73091 53.0754 6.21625C53.0754 6.71025 53.0191 7.13058 52.9064 7.47725C52.8024 7.82391 52.6551 8.10991 52.4644 8.33525C52.2824 8.55191 52.0701 8.71225 51.8274 8.81625C51.5847 8.91158 51.3291 8.95925 51.0604 8.95925C50.8177 8.95925 50.5881 8.91158 50.3714 8.81625C50.1547 8.71225 49.9641 8.56491 49.7994 8.37425C49.6347 8.17491 49.5004 7.93658 49.3964 7.65925C49.3011 7.38191 49.2534 7.06558 49.2534 6.71025V5.57925ZM55.9941 12.7292H57.0991V8.41325H57.1511C57.2378 8.63858 57.3504 8.82925 57.4891 8.98525C57.6364 9.14125 57.8011 9.26691 57.9831 9.36225C58.1651 9.45758 58.3558 9.52691 58.5551 9.57025C58.7631 9.61358 58.9711 9.63525 59.1791 9.63525C59.6124 9.63525 60.0111 9.55725 60.3751 9.40125C60.7391 9.23658 61.0511 9.00691 61.3111 8.71225C61.5798 8.41758 61.7878 8.06225 61.9351 7.64625C62.0824 7.22158 62.1561 6.75358 62.1561 6.24225C62.1561 5.72225 62.0824 5.25425 61.9351 4.83825C61.7878 4.42225 61.5798 4.06691 61.3111 3.77225C61.0511 3.46891 60.7391 3.23925 60.3751 3.08325C60.0111 2.91858 59.6124 2.83625 59.1791 2.83625C58.1478 2.83625 57.4718 3.23491 57.1511 4.03225H57.0991V2.97925H55.9941V12.7292ZM57.0991 5.57925C57.0991 5.29325 57.1424 5.02458 57.2291 4.77325C57.3244 4.51325 57.4544 4.29225 57.6191 4.11025C57.7838 3.91958 57.9744 3.77225 58.1911 3.66825C58.4164 3.55558 58.6548 3.49925 58.9061 3.49925C59.1748 3.49925 59.4304 3.55125 59.6731 3.65525C59.9244 3.75058 60.1411 3.90658 60.3231 4.12325C60.5051 4.33991 60.6481 4.62158 60.7521 4.96825C60.8648 5.31491 60.9211 5.73091 60.9211 6.21625C60.9211 6.71025 60.8648 7.13058 60.7521 7.47725C60.6481 7.82391 60.5008 8.10991 60.3101 8.33525C60.1281 8.55191 59.9158 8.71225 59.6731 8.81625C59.4304 8.91158 59.1748 8.95925 58.9061 8.95925C58.6634 8.95925 58.4338 8.91158 58.2171 8.81625C58.0004 8.71225 57.8098 8.56491 57.6451 8.37425C57.4804 8.17491 57.3461 7.93658 57.2421 7.65925C57.1468 7.38191 57.0991 7.06558 57.0991 6.71025V5.57925ZM64.2558 2.97925V9.47925H65.3608V2.97925H64.2558ZM64.0998 0.925247C64.0998 1.11591 64.1691 1.28058 64.3078 1.41925C64.4465 1.55791 64.6111 1.62725 64.8018 1.62725C64.9925 1.62725 65.1571 1.55791 65.2958 1.41925C65.4345 1.28058 65.5038 1.11591 65.5038 0.925247C65.5038 0.734581 65.4345 0.569914 65.2958 0.431248C65.1571 0.292581 64.9925 0.223248 64.8018 0.223248C64.6111 0.223248 64.4465 0.292581 64.3078 0.431248C64.1691 0.569914 64.0998 0.734581 64.0998 0.925247ZM73.2728 9.47925V5.26725C73.2728 5.11125 73.2598 4.89891 73.2338 4.63025C73.2078 4.35291 73.1212 4.08425 72.9738 3.82425C72.8352 3.55558 72.6098 3.32591 72.2978 3.13525C71.9858 2.93591 71.5438 2.83625 70.9718 2.83625C70.7205 2.82758 70.4388 2.87958 70.1268 2.99225C69.8148 3.09625 69.5072 3.29991 69.2038 3.60325L68.9958 3.81125H68.9438V2.97925H67.8388V9.47925H68.9438V5.46225C68.9438 5.12425 68.9915 4.83391 69.0868 4.59125C69.1822 4.34858 69.3122 4.14491 69.4768 3.98025C69.6415 3.81558 69.8278 3.69425 70.0358 3.61625C70.2525 3.53825 70.4735 3.49925 70.6988 3.49925C71.0628 3.49925 71.3445 3.57291 71.5438 3.72025C71.7432 3.85891 71.8862 4.02358 71.9728 4.21425C72.0682 4.40491 72.1245 4.59558 72.1418 4.78625C72.1592 4.97691 72.1678 5.11558 72.1678 5.20225V9.47925H73.2728ZM80.0335 10.0252C80.0335 10.4239 79.9859 10.7619 79.8905 11.0392C79.7952 11.3166 79.6609 11.5419 79.4875 11.7152C79.3229 11.8886 79.1235 12.0142 78.8895 12.0922C78.6642 12.1702 78.4215 12.2092 78.1615 12.2092C77.7022 12.2092 77.3295 12.0922 77.0435 11.8582C76.7662 11.6242 76.5105 11.3122 76.2765 10.9222L75.5615 11.5722C75.6222 11.6502 75.7175 11.7499 75.8475 11.8712C75.9775 12.0012 76.1422 12.1269 76.3415 12.2482C76.5409 12.3782 76.7792 12.4866 77.0565 12.5732C77.3339 12.6686 77.6502 12.7162 78.0055 12.7162C78.6642 12.7162 79.1972 12.6209 79.6045 12.4302C80.0119 12.2482 80.3282 12.0012 80.5535 11.6892C80.7789 11.3772 80.9305 11.0176 81.0085 10.6102C81.0952 10.2116 81.1385 9.79558 81.1385 9.36225V2.97925H80.0335V3.99325H79.9815C79.8775 3.62925 79.6522 3.34758 79.3055 3.14825C78.9675 2.94025 78.5212 2.83625 77.9665 2.83625C77.5245 2.83625 77.1215 2.91858 76.7575 3.08325C76.3935 3.23925 76.0815 3.46458 75.8215 3.75925C75.5615 4.05391 75.3579 4.40925 75.2105 4.82525C75.0719 5.24125 75.0025 5.70491 75.0025 6.21625C75.0025 6.73625 75.0719 7.20858 75.2105 7.63325C75.3579 8.04925 75.5615 8.40891 75.8215 8.71225C76.0815 9.00691 76.3892 9.23658 76.7445 9.40125C77.1085 9.55725 77.5115 9.63525 77.9535 9.63525C78.4389 9.63525 78.8592 9.53991 79.2145 9.34925C79.5785 9.15858 79.8342 8.85525 79.9815 8.43925H80.0335V10.0252ZM80.0335 6.71025C80.0335 7.07425 79.9815 7.39491 79.8775 7.67225C79.7822 7.94958 79.6522 8.18358 79.4875 8.37425C79.3229 8.56491 79.1322 8.71225 78.9155 8.81625C78.6989 8.91158 78.4735 8.95925 78.2395 8.95925C78.0315 8.95925 77.8062 8.92458 77.5635 8.85525C77.3295 8.77725 77.1085 8.63858 76.9005 8.43925C76.7012 8.23991 76.5322 7.95825 76.3935 7.59425C76.2635 7.23025 76.1985 6.76225 76.1985 6.19025C76.1985 5.58358 76.2809 5.10258 76.4455 4.74725C76.6102 4.38325 76.8009 4.10591 77.0175 3.91525C77.2429 3.72458 77.4682 3.60325 77.6935 3.55125C77.9275 3.49058 78.1095 3.46025 78.2395 3.46025C78.5255 3.46025 78.7812 3.52525 79.0065 3.65525C79.2319 3.77658 79.4182 3.94558 79.5655 4.16225C79.7215 4.37025 79.8385 4.61291 79.9165 4.89025C79.9945 5.16758 80.0335 5.45358 80.0335 5.74825V6.71025ZM83.2129 8.92025C83.2129 8.72958 83.2822 8.56491 83.4209 8.42625C83.5595 8.28758 83.7242 8.21825 83.9149 8.21825C84.1055 8.21825 84.2702 8.28758 84.4089 8.42625C84.5475 8.56491 84.6169 8.72958 84.6169 8.92025C84.6169 9.11091 84.5475 9.27558 84.4089 9.41425C84.2702 9.55291 84.1055 9.62225 83.9149 9.62225C83.7242 9.62225 83.5595 9.55291 83.4209 9.41425C83.2822 9.27558 83.2129 9.11091 83.2129 8.92025ZM91.7563 0.379247V9.47925H92.9393V4.95525H96.9693V4.35725H92.9393V1.09425H97.6323V0.379247H91.7563ZM99.0566 2.97925V9.47925H100.162V5.55325C100.162 5.19791 100.201 4.89891 100.279 4.65625C100.365 4.40491 100.474 4.20125 100.604 4.04525C100.734 3.88925 100.877 3.77658 101.033 3.70725C101.189 3.63791 101.34 3.60325 101.488 3.60325C101.687 3.60325 101.869 3.66825 102.034 3.79825C102.207 3.92825 102.333 4.04958 102.411 4.16225L102.853 3.35625C102.775 3.25225 102.679 3.16558 102.567 3.09625C102.463 3.02691 102.354 2.97491 102.242 2.94025C102.138 2.89691 102.038 2.87091 101.943 2.86225C101.856 2.84491 101.791 2.83625 101.748 2.83625C101.384 2.83625 101.08 2.93591 100.838 3.13525C100.595 3.33458 100.396 3.62925 100.24 4.01925H100.162V2.97925H99.0566ZM109.792 6.51525V6.24225C109.792 5.66158 109.71 5.15891 109.545 4.73425C109.381 4.30958 109.155 3.95858 108.869 3.68125C108.592 3.40391 108.267 3.19591 107.894 3.05725C107.522 2.91858 107.127 2.84925 106.711 2.84925C106.269 2.84925 105.862 2.92725 105.489 3.08325C105.117 3.23058 104.792 3.45158 104.514 3.74625C104.237 4.03225 104.02 4.38325 103.864 4.79925C103.708 5.20658 103.63 5.67025 103.63 6.19025C103.63 6.62358 103.695 7.04825 103.825 7.46425C103.964 7.87158 104.168 8.23991 104.436 8.56925C104.714 8.88991 105.06 9.14991 105.476 9.34925C105.901 9.53991 106.399 9.63525 106.971 9.63525C107.526 9.63525 108.037 9.53991 108.505 9.34925C108.973 9.14991 109.381 8.86825 109.727 8.50425L109.311 8.08825C109.129 8.24425 108.956 8.38725 108.791 8.51725C108.635 8.64725 108.475 8.75558 108.31 8.84225C108.146 8.92891 107.972 8.99825 107.79 9.05025C107.617 9.09358 107.422 9.11525 107.205 9.11525C106.963 9.11525 106.703 9.08058 106.425 9.01125C106.157 8.93325 105.905 8.79891 105.671 8.60825C105.437 8.41758 105.242 8.15325 105.086 7.81525C104.93 7.47725 104.852 7.04391 104.852 6.51525H109.792ZM104.852 5.99525C104.852 5.64858 104.887 5.31491 104.956 4.99425C105.034 4.66491 105.147 4.37458 105.294 4.12325C105.45 3.87191 105.645 3.67258 105.879 3.52525C106.113 3.36925 106.391 3.29125 106.711 3.29125C107.327 3.29125 107.803 3.53391 108.141 4.01925C108.488 4.49591 108.661 5.15458 108.661 5.99525H104.852ZM117.257 6.51525V6.24225C117.257 5.66158 117.175 5.15891 117.01 4.73425C116.846 4.30958 116.62 3.95858 116.334 3.68125C116.057 3.40391 115.732 3.19591 115.359 3.05725C114.987 2.91858 114.592 2.84925 114.176 2.84925C113.734 2.84925 113.327 2.92725 112.954 3.08325C112.582 3.23058 112.257 3.45158 111.979 3.74625C111.702 4.03225 111.485 4.38325 111.329 4.79925C111.173 5.20658 111.095 5.67025 111.095 6.19025C111.095 6.62358 111.16 7.04825 111.29 7.46425C111.429 7.87158 111.633 8.23991 111.901 8.56925C112.179 8.88991 112.525 9.14991 112.941 9.34925C113.366 9.53991 113.864 9.63525 114.436 9.63525C114.991 9.63525 115.502 9.53991 115.97 9.34925C116.438 9.14991 116.846 8.86825 117.192 8.50425L116.776 8.08825C116.594 8.24425 116.421 8.38725 116.256 8.51725C116.1 8.64725 115.94 8.75558 115.775 8.84225C115.611 8.92891 115.437 8.99825 115.255 9.05025C115.082 9.09358 114.887 9.11525 114.67 9.11525C114.428 9.11525 114.168 9.08058 113.89 9.01125C113.622 8.93325 113.37 8.79891 113.136 8.60825C112.902 8.41758 112.707 8.15325 112.551 7.81525C112.395 7.47725 112.317 7.04391 112.317 6.51525H117.257ZM112.317 5.99525C112.317 5.64858 112.352 5.31491 112.421 4.99425C112.499 4.66491 112.612 4.37458 112.759 4.12325C112.915 3.87191 113.11 3.67258 113.344 3.52525C113.578 3.36925 113.856 3.29125 114.176 3.29125C114.792 3.29125 115.268 3.53391 115.606 4.01925C115.953 4.49591 116.126 5.15458 116.126 5.99525H112.317ZM129.839 6.24225C129.839 6.69291 129.761 7.12625 129.605 7.54225C129.449 7.94958 129.224 8.30925 128.929 8.62125C128.643 8.93325 128.292 9.18025 127.876 9.36225C127.469 9.54425 127.009 9.63525 126.498 9.63525C125.978 9.63525 125.506 9.54425 125.081 9.36225C124.665 9.17158 124.31 8.92025 124.015 8.60825C123.729 8.29625 123.504 7.93658 123.339 7.52925C123.183 7.11325 123.105 6.68425 123.105 6.24225C123.105 5.79158 123.183 5.36258 123.339 4.95525C123.504 4.53925 123.729 4.17525 124.015 3.86325C124.31 3.55125 124.665 3.30425 125.081 3.12225C125.506 2.93158 125.978 2.83625 126.498 2.83625C127.009 2.83625 127.469 2.93158 127.876 3.12225C128.292 3.30425 128.643 3.55125 128.929 3.86325C129.224 4.17525 129.449 4.53925 129.605 4.95525C129.761 5.36258 129.839 5.79158 129.839 6.24225ZM128.604 6.24225C128.604 5.63558 128.539 5.14591 128.409 4.77325C128.279 4.39191 128.11 4.09725 127.902 3.88925C127.694 3.68125 127.464 3.54258 127.213 3.47325C126.962 3.39525 126.719 3.35625 126.485 3.35625C126.251 3.35625 126.008 3.39525 125.757 3.47325C125.506 3.54258 125.272 3.68125 125.055 3.88925C124.847 4.09725 124.674 4.39191 124.535 4.77325C124.405 5.14591 124.34 5.63558 124.34 6.24225C124.34 6.84025 124.405 7.32991 124.535 7.71125C124.674 8.08391 124.847 8.37425 125.055 8.58225C125.272 8.79025 125.506 8.93325 125.757 9.01125C126.008 9.08058 126.251 9.11525 126.485 9.11525C126.719 9.11525 126.962 9.08058 127.213 9.01125C127.464 8.93325 127.694 8.79025 127.902 8.58225C128.11 8.37425 128.279 8.08391 128.409 7.71125C128.539 7.32991 128.604 6.84025 128.604 6.24225ZM136.965 9.47925V5.26725C136.965 5.11125 136.952 4.89891 136.926 4.63025C136.9 4.35291 136.814 4.08425 136.666 3.82425C136.528 3.55558 136.302 3.32591 135.99 3.13525C135.678 2.93591 135.236 2.83625 134.664 2.83625C134.413 2.82758 134.131 2.87958 133.819 2.99225C133.507 3.09625 133.2 3.29991 132.896 3.60325L132.688 3.81125H132.636V2.97925H131.531V9.47925H132.636V5.46225C132.636 5.12425 132.684 4.83391 132.779 4.59125C132.875 4.34858 133.005 4.14491 133.169 3.98025C133.334 3.81558 133.52 3.69425 133.728 3.61625C133.945 3.53825 134.166 3.49925 134.391 3.49925C134.755 3.49925 135.037 3.57291 135.236 3.72025C135.436 3.85891 135.579 4.02358 135.665 4.21425C135.761 4.40491 135.817 4.59558 135.834 4.78625C135.852 4.97691 135.86 5.11558 135.86 5.20225V9.47925H136.965ZM25.0266 26.2422C25.0266 26.6929 24.9486 27.1262 24.7926 27.5422C24.6366 27.9496 24.4112 28.3092 24.1166 28.6212C23.8306 28.9332 23.4796 29.1802 23.0636 29.3622C22.6562 29.5442 22.1969 29.6352 21.6856 29.6352C21.1656 29.6352 20.6932 29.5442 20.2686 29.3622C19.8526 29.1716 19.4972 28.9202 19.2026 28.6082C18.9166 28.2962 18.6912 27.9366 18.5266 27.5292C18.3706 27.1132 18.2926 26.6842 18.2926 26.2422C18.2926 25.7916 18.3706 25.3626 18.5266 24.9552C18.6912 24.5392 18.9166 24.1752 19.2026 23.8632C19.4972 23.5512 19.8526 23.3042 20.2686 23.1222C20.6932 22.9316 21.1656 22.8362 21.6856 22.8362C22.1969 22.8362 22.6562 22.9316 23.0636 23.1222C23.4796 23.3042 23.8306 23.5512 24.1166 23.8632C24.4112 24.1752 24.6366 24.5392 24.7926 24.9552C24.9486 25.3626 25.0266 25.7916 25.0266 26.2422ZM23.7916 26.2422C23.7916 25.6356 23.7266 25.1459 23.5966 24.7732C23.4666 24.3919 23.2976 24.0972 23.0896 23.8892C22.8816 23.6812 22.6519 23.5426 22.4006 23.4732C22.1492 23.3952 21.9066 23.3562 21.6726 23.3562C21.4386 23.3562 21.1959 23.3952 20.9446 23.4732C20.6932 23.5426 20.4592 23.6812 20.2426 23.8892C20.0346 24.0972 19.8612 24.3919 19.7226 24.7732C19.5926 25.1459 19.5276 25.6356 19.5276 26.2422C19.5276 26.8402 19.5926 27.3299 19.7226 27.7112C19.8612 28.0839 20.0346 28.3742 20.2426 28.5822C20.4592 28.7902 20.6932 28.9332 20.9446 29.0112C21.1959 29.0806 21.4386 29.1152 21.6726 29.1152C21.9066 29.1152 22.1492 29.0806 22.4006 29.0112C22.6519 28.9332 22.8816 28.7902 23.0896 28.5822C23.2976 28.3742 23.4666 28.0839 23.5966 27.7112C23.7266 27.3299 23.7916 26.8402 23.7916 26.2422ZM26.7187 22.9792V29.4792H27.8237V25.5532C27.8237 25.1979 27.8627 24.8989 27.9407 24.6562C28.0274 24.4049 28.1357 24.2012 28.2657 24.0452C28.3957 23.8892 28.5387 23.7766 28.6947 23.7072C28.8507 23.6379 29.0024 23.6032 29.1497 23.6032C29.349 23.6032 29.531 23.6682 29.6957 23.7982C29.869 23.9282 29.9947 24.0496 30.0727 24.1622L30.5147 23.3562C30.4367 23.2522 30.3414 23.1656 30.2287 23.0962C30.1247 23.0269 30.0164 22.9749 29.9037 22.9402C29.7997 22.8969 29.7 22.8709 29.6047 22.8622C29.518 22.8449 29.453 22.8362 29.4097 22.8362C29.0457 22.8362 28.7424 22.9359 28.4997 23.1352C28.257 23.3346 28.0577 23.6292 27.9017 24.0192H27.8237V22.9792H26.7187ZM37.4546 20.3792H36.3496V24.0452H36.2976C36.2109 23.8199 36.0939 23.6336 35.9466 23.4862C35.8079 23.3302 35.6476 23.2046 35.4656 23.1092C35.2836 23.0139 35.0886 22.9446 34.8806 22.9012C34.6812 22.8579 34.4776 22.8362 34.2696 22.8362C33.8362 22.8362 33.4376 22.9186 33.0736 23.0832C32.7096 23.2392 32.3932 23.4646 32.1246 23.7592C31.8646 24.0539 31.6609 24.4092 31.5136 24.8252C31.3662 25.2412 31.2926 25.7049 31.2926 26.2162C31.2926 26.7362 31.3662 27.2086 31.5136 27.6332C31.6609 28.0492 31.8646 28.4089 32.1246 28.7122C32.3932 29.0069 32.7096 29.2366 33.0736 29.4012C33.4376 29.5572 33.8362 29.6352 34.2696 29.6352C35.2922 29.6352 35.9682 29.2322 36.2976 28.4262H36.3496V29.4792H37.4546V20.3792ZM36.3496 26.8792C36.3496 27.1652 36.3019 27.4382 36.2066 27.6982C36.1112 27.9496 35.9812 28.1706 35.8166 28.3612C35.6606 28.5432 35.4699 28.6906 35.2446 28.8032C35.0279 28.9072 34.7939 28.9592 34.5426 28.9592C34.2652 28.9592 34.0052 28.9116 33.7626 28.8162C33.5199 28.7122 33.3076 28.5519 33.1256 28.3352C32.9436 28.1186 32.7962 27.8369 32.6836 27.4902C32.5796 27.1436 32.5276 26.7276 32.5276 26.2422C32.5276 25.7482 32.5796 25.3279 32.6836 24.9812C32.7962 24.6346 32.9436 24.3529 33.1256 24.1362C33.3162 23.9109 33.5329 23.7506 33.7756 23.6552C34.0182 23.5512 34.2739 23.4992 34.5426 23.4992C34.7852 23.4992 35.0149 23.5512 35.2316 23.6552C35.4482 23.7506 35.6389 23.8979 35.8036 24.0972C35.9682 24.2879 36.0982 24.5219 36.1936 24.7992C36.2976 25.0766 36.3496 25.3929 36.3496 25.7482V26.8792ZM45.3003 26.5152V26.2422C45.3003 25.6616 45.2179 25.1589 45.0533 24.7342C44.8886 24.3096 44.6633 23.9586 44.3773 23.6812C44.0999 23.4039 43.7749 23.1959 43.4023 23.0572C43.0296 22.9186 42.6353 22.8492 42.2193 22.8492C41.7773 22.8492 41.3699 22.9272 40.9973 23.0832C40.6246 23.2306 40.2996 23.4516 40.0223 23.7462C39.7449 24.0322 39.5283 24.3832 39.3723 24.7992C39.2163 25.2066 39.1383 25.6702 39.1383 26.1902C39.1383 26.6236 39.2033 27.0482 39.3333 27.4642C39.4719 27.8716 39.6756 28.2399 39.9443 28.5692C40.2216 28.8899 40.5683 29.1499 40.9843 29.3492C41.4089 29.5399 41.9073 29.6352 42.4793 29.6352C43.0339 29.6352 43.5453 29.5399 44.0133 29.3492C44.4813 29.1499 44.8886 28.8682 45.2353 28.5042L44.8193 28.0882C44.6373 28.2442 44.4639 28.3872 44.2993 28.5172C44.1433 28.6472 43.9829 28.7556 43.8183 28.8422C43.6536 28.9289 43.4803 28.9982 43.2983 29.0502C43.1249 29.0936 42.9299 29.1152 42.7133 29.1152C42.4706 29.1152 42.2106 29.0806 41.9333 29.0112C41.6646 28.9332 41.4133 28.7989 41.1793 28.6082C40.9453 28.4176 40.7503 28.1532 40.5943 27.8152C40.4383 27.4772 40.3603 27.0439 40.3603 26.5152H45.3003ZM40.3603 25.9952C40.3603 25.6486 40.3949 25.3149 40.4643 24.9942C40.5423 24.6649 40.6549 24.3746 40.8023 24.1232C40.9583 23.8719 41.1533 23.6726 41.3873 23.5252C41.6213 23.3692 41.8986 23.2912 42.2193 23.2912C42.8346 23.2912 43.3113 23.5339 43.6493 24.0192C43.9959 24.4959 44.1693 25.1546 44.1693 25.9952H40.3603ZM46.9931 22.9792V29.4792H48.0981V25.5532C48.0981 25.1979 48.1371 24.8989 48.2151 24.6562C48.3018 24.4049 48.4101 24.2012 48.5401 24.0452C48.6701 23.8892 48.8131 23.7766 48.9691 23.7072C49.1251 23.6379 49.2768 23.6032 49.4241 23.6032C49.6235 23.6032 49.8055 23.6682 49.9701 23.7982C50.1435 23.9282 50.2691 24.0496 50.3471 24.1622L50.7891 23.3562C50.7111 23.2522 50.6158 23.1656 50.5031 23.0962C50.3991 23.0269 50.2908 22.9749 50.1781 22.9402C50.0741 22.8969 49.9745 22.8709 49.8791 22.8622C49.7925 22.8449 49.7275 22.8362 49.6841 22.8362C49.3201 22.8362 49.0168 22.9359 48.7741 23.1352C48.5315 23.3346 48.3321 23.6292 48.1761 24.0192H48.0981V22.9792H46.9931ZM56.104 24.4612C56.104 24.2272 56.0433 24.0106 55.922 23.8112C55.8007 23.6119 55.6317 23.4429 55.415 23.3042C55.207 23.1569 54.96 23.0442 54.674 22.9662C54.3967 22.8796 54.0977 22.8362 53.777 22.8362C53.4737 22.8362 53.1877 22.8752 52.919 22.9532C52.659 23.0312 52.4293 23.1482 52.23 23.3042C52.0393 23.4602 51.8877 23.6552 51.775 23.8892C51.6623 24.1146 51.606 24.3789 51.606 24.6822C51.606 25.0982 51.7013 25.4276 51.892 25.6702C52.0827 25.9129 52.321 26.1079 52.607 26.2552C52.893 26.4026 53.2007 26.5239 53.53 26.6192C53.868 26.7059 54.18 26.8056 54.466 26.9182C54.752 27.0222 54.9903 27.1566 55.181 27.3212C55.3717 27.4859 55.467 27.7112 55.467 27.9972C55.467 28.1186 55.4453 28.2442 55.402 28.3742C55.3673 28.5042 55.298 28.6256 55.194 28.7382C55.09 28.8422 54.947 28.9332 54.765 29.0112C54.583 29.0806 54.3533 29.1152 54.076 29.1152C53.7293 29.1152 53.4347 29.0632 53.192 28.9592C52.958 28.8466 52.763 28.7166 52.607 28.5692C52.4597 28.4132 52.3513 28.2572 52.282 28.1012C52.2213 27.9452 52.191 27.8152 52.191 27.7112H51.346C51.346 27.9539 51.4023 28.1922 51.515 28.4262C51.6277 28.6516 51.7967 28.8552 52.022 29.0372C52.256 29.2192 52.5377 29.3666 52.867 29.4792C53.205 29.5832 53.595 29.6352 54.037 29.6352C54.8343 29.6352 55.4323 29.4619 55.831 29.1152C56.2383 28.7599 56.442 28.2962 56.442 27.7242C56.442 27.3082 56.3423 26.9746 56.143 26.7232C55.9523 26.4719 55.7097 26.2726 55.415 26.1252C55.1203 25.9692 54.7997 25.8436 54.453 25.7482C54.115 25.6529 53.7987 25.5532 53.504 25.4492C53.2093 25.3452 52.9623 25.2196 52.763 25.0722C52.5723 24.9249 52.477 24.7169 52.477 24.4482C52.477 24.3356 52.4987 24.2186 52.542 24.0972C52.5853 23.9672 52.659 23.8502 52.763 23.7462C52.867 23.6336 53.0057 23.5426 53.179 23.4732C53.3523 23.3952 53.569 23.3562 53.829 23.3562C54.089 23.3562 54.3143 23.3952 54.505 23.4732C54.6957 23.5426 54.856 23.6336 54.986 23.7462C55.116 23.8502 55.2113 23.9672 55.272 24.0972C55.3327 24.2272 55.363 24.3486 55.363 24.4612H56.104ZM69.092 26.2422C69.092 26.6929 69.014 27.1262 68.858 27.5422C68.702 27.9496 68.4767 28.3092 68.182 28.6212C67.896 28.9332 67.545 29.1802 67.129 29.3622C66.7217 29.5442 66.2623 29.6352 65.751 29.6352C65.231 29.6352 64.7587 29.5442 64.334 29.3622C63.918 29.1716 63.5627 28.9202 63.268 28.6082C62.982 28.2962 62.7567 27.9366 62.592 27.5292C62.436 27.1132 62.358 26.6842 62.358 26.2422C62.358 25.7916 62.436 25.3626 62.592 24.9552C62.7567 24.5392 62.982 24.1752 63.268 23.8632C63.5627 23.5512 63.918 23.3042 64.334 23.1222C64.7587 22.9316 65.231 22.8362 65.751 22.8362C66.2623 22.8362 66.7217 22.9316 67.129 23.1222C67.545 23.3042 67.896 23.5512 68.182 23.8632C68.4767 24.1752 68.702 24.5392 68.858 24.9552C69.014 25.3626 69.092 25.7916 69.092 26.2422ZM67.857 26.2422C67.857 25.6356 67.792 25.1459 67.662 24.7732C67.532 24.3919 67.363 24.0972 67.155 23.8892C66.947 23.6812 66.7173 23.5426 66.466 23.4732C66.2147 23.3952 65.972 23.3562 65.738 23.3562C65.504 23.3562 65.2613 23.3952 65.01 23.4732C64.7587 23.5426 64.5247 23.6812 64.308 23.8892C64.1 24.0972 63.9267 24.3919 63.788 24.7732C63.658 25.1459 63.593 25.6356 63.593 26.2422C63.593 26.8402 63.658 27.3299 63.788 27.7112C63.9267 28.0839 64.1 28.3742 64.308 28.5822C64.5247 28.7902 64.7587 28.9332 65.01 29.0112C65.2613 29.0806 65.504 29.1152 65.738 29.1152C65.972 29.1152 66.2147 29.0806 66.466 29.0112C66.7173 28.9332 66.947 28.7902 67.155 28.5822C67.363 28.3742 67.532 28.0839 67.662 27.7112C67.792 27.3299 67.857 26.8402 67.857 26.2422ZM70.0041 22.9792L72.7081 29.4792H73.4881L76.1141 22.9792H75.5031L73.3971 28.1922H73.3191L71.1481 22.9792H70.0041ZM83.1831 26.5152V26.2422C83.1831 25.6616 83.1008 25.1589 82.9361 24.7342C82.7714 24.3096 82.5461 23.9586 82.2601 23.6812C81.9828 23.4039 81.6578 23.1959 81.2851 23.0572C80.9124 22.9186 80.5181 22.8492 80.1021 22.8492C79.6601 22.8492 79.2528 22.9272 78.8801 23.0832C78.5074 23.2306 78.1824 23.4516 77.9051 23.7462C77.6278 24.0322 77.4111 24.3832 77.2551 24.7992C77.0991 25.2066 77.0211 25.6702 77.0211 26.1902C77.0211 26.6236 77.0861 27.0482 77.2161 27.4642C77.3548 27.8716 77.5584 28.2399 77.8271 28.5692C78.1044 28.8899 78.4511 29.1499 78.8671 29.3492C79.2918 29.5399 79.7901 29.6352 80.3621 29.6352C80.9168 29.6352 81.4281 29.5399 81.8961 29.3492C82.3641 29.1499 82.7714 28.8682 83.1181 28.5042L82.7021 28.0882C82.5201 28.2442 82.3468 28.3872 82.1821 28.5172C82.0261 28.6472 81.8658 28.7556 81.7011 28.8422C81.5364 28.9289 81.3631 28.9982 81.1811 29.0502C81.0078 29.0936 80.8128 29.1152 80.5961 29.1152C80.3534 29.1152 80.0934 29.0806 79.8161 29.0112C79.5474 28.9332 79.2961 28.7989 79.0621 28.6082C78.8281 28.4176 78.6331 28.1532 78.4771 27.8152C78.3211 27.4772 78.2431 27.0439 78.2431 26.5152H83.1831ZM78.2431 25.9952C78.2431 25.6486 78.2778 25.3149 78.3471 24.9942C78.4251 24.6649 78.5378 24.3746 78.6851 24.1232C78.8411 23.8719 79.0361 23.6726 79.2701 23.5252C79.5041 23.3692 79.7814 23.2912 80.1021 23.2912C80.7174 23.2912 81.1941 23.5339 81.5321 24.0192C81.8788 24.4959 82.0521 25.1546 82.0521 25.9952H78.2431ZM84.8759 22.9792V29.4792H85.9809V25.5532C85.9809 25.1979 86.0199 24.8989 86.0979 24.6562C86.1846 24.4049 86.2929 24.2012 86.4229 24.0452C86.5529 23.8892 86.6959 23.7766 86.8519 23.7072C87.0079 23.6379 87.1596 23.6032 87.3069 23.6032C87.5063 23.6032 87.6883 23.6682 87.8529 23.7982C88.0263 23.9282 88.1519 24.0496 88.2299 24.1622L88.6719 23.3562C88.5939 23.2522 88.4986 23.1656 88.3859 23.0962C88.2819 23.0269 88.1736 22.9749 88.0609 22.9402C87.9569 22.8969 87.8573 22.8709 87.7619 22.8622C87.6753 22.8449 87.6103 22.8362 87.5669 22.8362C87.2029 22.8362 86.8996 22.9359 86.6569 23.1352C86.4143 23.3346 86.2149 23.6292 86.0589 24.0192H85.9809V22.9792H84.8759ZM96.8287 19.1182V20.2362C96.4647 20.2622 96.1224 20.3359 95.8017 20.4572C95.4811 20.5699 95.1994 20.7302 94.9567 20.9382C94.7227 21.1376 94.5364 21.3802 94.3977 21.6662C94.2591 21.9436 94.1897 22.2642 94.1897 22.6282C94.1897 23.0096 94.2634 23.3346 94.4107 23.6032C94.5667 23.8719 94.7661 24.1059 95.0087 24.3052C95.2601 24.4959 95.5417 24.6606 95.8537 24.7992C96.1744 24.9292 96.4994 25.0549 96.8287 25.1762V29.0502C96.3694 29.0156 96.0011 28.9246 95.7237 28.7772C95.4551 28.6299 95.2471 28.4609 95.0997 28.2702C94.9524 28.0796 94.8527 27.8846 94.8007 27.6852C94.7487 27.4859 94.7184 27.3169 94.7097 27.1782H93.8257C93.8344 27.5162 93.9167 27.8282 94.0727 28.1142C94.2287 28.4002 94.4367 28.6472 94.6967 28.8552C94.9654 29.0632 95.2774 29.2322 95.6327 29.3622C95.9967 29.4922 96.3954 29.5746 96.8287 29.6092V31.1042H97.7777V29.6092C98.6444 29.5399 99.3291 29.2799 99.8317 28.8292C100.334 28.3699 100.586 27.7762 100.586 27.0482C100.586 26.6322 100.503 26.2812 100.339 25.9952C100.183 25.7006 99.9704 25.4449 99.7017 25.2282C99.4417 25.0116 99.1427 24.8296 98.8047 24.6822C98.4667 24.5349 98.1244 24.3962 97.7777 24.2662V20.8472C98.2024 20.9166 98.5577 21.0682 98.8437 21.3022C99.1297 21.5276 99.3031 21.8526 99.3637 22.2772H100.248C100.152 21.7139 99.8751 21.2632 99.4157 20.9252C98.9564 20.5786 98.4104 20.3576 97.7777 20.2622V19.1182H96.8287ZM99.4937 27.4382C99.4937 27.9236 99.3377 28.2962 99.0257 28.5562C98.7224 28.8162 98.3064 28.9766 97.7777 29.0372V25.5272C98.0117 25.6226 98.2327 25.7309 98.4407 25.8522C98.6487 25.9649 98.8307 26.0949 98.9867 26.2422C99.1427 26.3896 99.2641 26.5629 99.3507 26.7622C99.4461 26.9529 99.4937 27.1782 99.4937 27.4382ZM95.1387 22.3032C95.1387 21.9392 95.2817 21.6186 95.5677 21.3412C95.8537 21.0552 96.2741 20.8819 96.8287 20.8212V23.9152C96.5947 23.8199 96.3737 23.7202 96.1657 23.6162C95.9577 23.5122 95.7757 23.3996 95.6197 23.2782C95.4724 23.1482 95.3554 23.0052 95.2687 22.8492C95.1821 22.6932 95.1387 22.5112 95.1387 22.3032ZM108.152 29.4792H102.172L104.629 26.7362C104.845 26.4762 105.075 26.1946 105.318 25.8912C105.569 25.5879 105.799 25.2672 106.007 24.9292C106.215 24.5912 106.388 24.2402 106.527 23.8762C106.665 23.5122 106.735 23.1396 106.735 22.7582C106.735 22.1602 106.574 21.6836 106.254 21.3282C105.942 20.9729 105.539 20.7952 105.045 20.7952C104.75 20.7952 104.503 20.8516 104.304 20.9642C104.113 21.0769 103.953 21.2286 103.823 21.4192C103.701 21.6012 103.61 21.8179 103.55 22.0692C103.489 22.3119 103.446 22.5676 103.42 22.8362H102.12C102.12 22.4722 102.193 22.1299 102.341 21.8092C102.488 21.4886 102.692 21.2112 102.952 20.9772C103.22 20.7432 103.532 20.5612 103.888 20.4312C104.243 20.2926 104.629 20.2232 105.045 20.2232C105.513 20.2232 105.933 20.2926 106.306 20.4312C106.678 20.5612 106.99 20.7432 107.242 20.9772C107.493 21.2112 107.684 21.4842 107.814 21.7962C107.952 22.0996 108.022 22.4202 108.022 22.7582C108.022 23.1829 107.978 23.5469 107.892 23.8502C107.814 24.1536 107.684 24.4482 107.502 24.7342C107.328 25.0116 107.099 25.3062 106.813 25.6182C106.535 25.9302 106.197 26.3029 105.799 26.7362L104.109 28.5432H108.152V29.4792ZM110.842 23.6422C111.085 23.5469 111.301 23.4776 111.492 23.4342C111.691 23.3822 111.912 23.3562 112.155 23.3562C112.571 23.3562 112.957 23.4256 113.312 23.5642C113.667 23.6942 113.975 23.8892 114.235 24.1492C114.504 24.4006 114.712 24.7039 114.859 25.0592C115.015 25.4146 115.093 25.8132 115.093 26.2552C115.093 26.7926 115.002 27.2692 114.82 27.6852C114.647 28.1012 114.404 28.4522 114.092 28.7382C113.789 29.0242 113.429 29.2452 113.013 29.4012C112.606 29.5486 112.168 29.6222 111.7 29.6222C111.301 29.6222 110.933 29.5659 110.595 29.4532C110.266 29.3319 109.98 29.1716 109.737 28.9722C109.494 28.7729 109.299 28.5346 109.152 28.2572C109.013 27.9799 108.94 27.6852 108.931 27.3732H109.88C109.889 27.6072 109.936 27.8282 110.023 28.0362C110.11 28.2356 110.227 28.4132 110.374 28.5692C110.53 28.7166 110.716 28.8336 110.933 28.9202C111.15 29.0069 111.397 29.0502 111.674 29.0502C111.925 29.0502 112.177 29.0026 112.428 28.9072C112.679 28.8032 112.905 28.6429 113.104 28.4262C113.312 28.2009 113.477 27.9192 113.598 27.5812C113.728 27.2346 113.793 26.8186 113.793 26.3332C113.793 25.6486 113.611 25.0939 113.247 24.6692C112.883 24.2446 112.337 24.0322 111.609 24.0322C111.436 24.0322 111.197 24.0496 110.894 24.0842C110.591 24.1189 110.253 24.2316 109.88 24.4222L111.037 20.3792H114.976L114.716 21.0942H111.596L110.842 23.6422ZM116.919 28.9202C116.919 28.7296 116.988 28.5649 117.127 28.4262C117.266 28.2876 117.43 28.2182 117.621 28.2182C117.812 28.2182 117.976 28.2876 118.115 28.4262C118.254 28.5649 118.323 28.7296 118.323 28.9202C118.323 29.1109 118.254 29.2756 118.115 29.4142C117.976 29.5529 117.812 29.6222 117.621 29.6222C117.43 29.6222 117.266 29.5529 117.127 29.4142C116.988 29.2756 116.919 29.1109 116.919 28.9202Z" fill="#555555"/>
</svg>
