<svg width="152" height="31" viewBox="0 0 152 31" fill="none" xmlns="http://www.w3.org/2000/svg">
<path d="M31.4394 0.216161V9.31616H32.6224V4.79216H36.6524V4.19416H32.6224V0.931162H37.3154V0.216161H31.4394ZM41.1317 2.67316C41.7644 2.67316 42.254 2.76416 42.6007 2.94616C42.9474 3.1195 43.1987 3.34916 43.3547 3.63516C43.5194 3.92116 43.6147 4.2505 43.6407 4.62316C43.6667 4.99583 43.6797 5.37716 43.6797 5.76716V9.31616H42.6267V8.67916C42.3754 8.92183 42.0547 9.11683 41.6647 9.26416C41.2747 9.40283 40.8847 9.47216 40.4947 9.47216C40.122 9.47216 39.7927 9.40716 39.5067 9.27716C39.2207 9.14716 38.9824 8.97816 38.7917 8.77016C38.601 8.56216 38.458 8.32816 38.3627 8.06816C38.2674 7.80816 38.2197 7.54383 38.2197 7.27516C38.2197 6.99783 38.2717 6.7205 38.3757 6.44316C38.4797 6.16583 38.6357 5.91883 38.8437 5.70216C39.0517 5.47683 39.3074 5.29483 39.6107 5.15616C39.914 5.0175 40.2607 4.94816 40.6507 4.94816C41.0407 4.94816 41.409 5.02616 41.7557 5.18216C42.111 5.3295 42.4014 5.54183 42.6267 5.81916V5.26016C42.6267 4.5495 42.5184 4.02083 42.3017 3.67416C42.0937 3.3275 41.708 3.15416 41.1447 3.15416C40.902 3.15416 40.6897 3.1845 40.5077 3.24516C40.3257 3.30583 40.161 3.3925 40.0137 3.50516C39.875 3.60916 39.745 3.7435 39.6237 3.90816C39.5024 4.06416 39.381 4.24183 39.2597 4.44116L38.5837 3.76516C38.705 3.63516 38.8307 3.50516 38.9607 3.37516C39.0994 3.24516 39.264 3.12816 39.4547 3.02416C39.654 2.92016 39.888 2.83783 40.1567 2.77716C40.4254 2.70783 40.7504 2.67316 41.1317 2.67316ZM42.6267 6.74216C42.5834 6.63816 42.5184 6.51683 42.4317 6.37816C42.3537 6.2395 42.2497 6.10516 42.1197 5.97516C41.9897 5.84516 41.8337 5.73683 41.6517 5.65016C41.4697 5.55483 41.253 5.50716 41.0017 5.50716C40.7504 5.50716 40.5207 5.55916 40.3127 5.66316C40.1047 5.7585 39.927 5.8885 39.7797 6.05316C39.641 6.20916 39.5327 6.3955 39.4547 6.61216C39.3767 6.82883 39.3377 7.05416 39.3377 7.28816C39.3377 7.5655 39.3854 7.80816 39.4807 8.01616C39.5847 8.2155 39.7147 8.38883 39.8707 8.53616C40.0267 8.67483 40.2 8.77883 40.3907 8.84816C40.5814 8.9175 40.7634 8.95216 40.9367 8.95216C41.1014 8.95216 41.266 8.92183 41.4307 8.86116C41.604 8.8005 41.7644 8.71816 41.9117 8.61416C42.0677 8.5015 42.2064 8.3715 42.3277 8.22416C42.449 8.07683 42.5487 7.9165 42.6267 7.74316V6.74216ZM49.9072 4.29816C49.9072 4.06416 49.8465 3.8475 49.7252 3.64816C49.6039 3.44883 49.4349 3.27983 49.2182 3.14116C49.0102 2.99383 48.7632 2.88116 48.4772 2.80316C48.1999 2.71649 47.9009 2.67316 47.5802 2.67316C47.2769 2.67316 46.9909 2.71216 46.7222 2.79016C46.4622 2.86816 46.2325 2.98516 46.0332 3.14116C45.8425 3.29716 45.6909 3.49216 45.5782 3.72616C45.4655 3.9515 45.4092 4.21583 45.4092 4.51916C45.4092 4.93516 45.5045 5.2645 45.6952 5.50716C45.8859 5.74983 46.1242 5.94483 46.4102 6.09216C46.6962 6.2395 47.0039 6.36083 47.3332 6.45616C47.6712 6.54283 47.9832 6.6425 48.2692 6.75516C48.5552 6.85916 48.7935 6.9935 48.9842 7.15816C49.1749 7.32283 49.2702 7.54816 49.2702 7.83416C49.2702 7.9555 49.2485 8.08116 49.2052 8.21116C49.1705 8.34116 49.1012 8.4625 48.9972 8.57516C48.8932 8.67916 48.7502 8.77016 48.5682 8.84816C48.3862 8.9175 48.1565 8.95216 47.8792 8.95216C47.5325 8.95216 47.2379 8.90016 46.9952 8.79616C46.7612 8.6835 46.5662 8.5535 46.4102 8.40616C46.2629 8.25016 46.1545 8.09416 46.0852 7.93816C46.0245 7.78216 45.9942 7.65216 45.9942 7.54816H45.1492C45.1492 7.79083 45.2055 8.02916 45.3182 8.26316C45.4309 8.4885 45.5999 8.69216 45.8252 8.87416C46.0592 9.05616 46.3409 9.2035 46.6702 9.31616C47.0082 9.42016 47.3982 9.47216 47.8402 9.47216C48.6375 9.47216 49.2355 9.29883 49.6342 8.95216C50.0415 8.59683 50.2452 8.13316 50.2452 7.56116C50.2452 7.14516 50.1455 6.8115 49.9462 6.56016C49.7555 6.30883 49.5129 6.1095 49.2182 5.96216C48.9235 5.80616 48.6029 5.6805 48.2562 5.58516C47.9182 5.48983 47.6019 5.39016 47.3072 5.28616C47.0125 5.18216 46.7655 5.0565 46.5662 4.90916C46.3755 4.76183 46.2802 4.55383 46.2802 4.28516C46.2802 4.1725 46.3019 4.0555 46.3452 3.93416C46.3885 3.80416 46.4622 3.68716 46.5662 3.58316C46.6702 3.4705 46.8089 3.3795 46.9822 3.31016C47.1555 3.23216 47.3722 3.19316 47.6322 3.19316C47.8922 3.19316 48.1175 3.23216 48.3082 3.31016C48.4989 3.3795 48.6592 3.4705 48.7892 3.58316C48.9192 3.68716 49.0145 3.80416 49.0752 3.93416C49.1359 4.06416 49.1662 4.1855 49.1662 4.29816H49.9072ZM51.3563 3.33616V2.81616H52.4873V0.814162H53.5923V2.81616H55.1653V3.33616H53.5923V7.65216C53.5923 7.75616 53.5966 7.8775 53.6053 8.01616C53.614 8.14616 53.64 8.27183 53.6833 8.39316C53.7266 8.50583 53.7916 8.60116 53.8783 8.67916C53.9736 8.75716 54.1036 8.79616 54.2683 8.79616C54.4763 8.79616 54.6496 8.71816 54.7883 8.56216C54.927 8.40616 55.0396 8.23716 55.1263 8.05516L55.7373 8.67916C55.3126 9.10383 54.8316 9.31616 54.2943 9.31616C54.069 9.31616 53.848 9.27716 53.6313 9.19916C53.4146 9.12116 53.2196 9.00416 53.0463 8.84816C52.8816 8.6835 52.7473 8.4755 52.6433 8.22416C52.5393 7.97283 52.4873 7.67816 52.4873 7.34016V3.33616H51.3563ZM65.5732 4.29816C65.5732 4.06416 65.5126 3.8475 65.3912 3.64816C65.2699 3.44883 65.1009 3.27983 64.8842 3.14116C64.6762 2.99383 64.4292 2.88116 64.1432 2.80316C63.8659 2.71649 63.5669 2.67316 63.2462 2.67316C62.9429 2.67316 62.6569 2.71216 62.3882 2.79016C62.1282 2.86816 61.8986 2.98516 61.6992 3.14116C61.5086 3.29716 61.3569 3.49216 61.2442 3.72616C61.1316 3.9515 61.0752 4.21583 61.0752 4.51916C61.0752 4.93516 61.1706 5.2645 61.3612 5.50716C61.5519 5.74983 61.7902 5.94483 62.0762 6.09216C62.3622 6.2395 62.6699 6.36083 62.9992 6.45616C63.3372 6.54283 63.6492 6.6425 63.9352 6.75516C64.2212 6.85916 64.4596 6.9935 64.6502 7.15816C64.8409 7.32283 64.9362 7.54816 64.9362 7.83416C64.9362 7.9555 64.9146 8.08116 64.8712 8.21116C64.8366 8.34116 64.7672 8.4625 64.6632 8.57516C64.5592 8.67916 64.4162 8.77016 64.2342 8.84816C64.0522 8.9175 63.8226 8.95216 63.5452 8.95216C63.1986 8.95216 62.9039 8.90016 62.6612 8.79616C62.4272 8.6835 62.2322 8.5535 62.0762 8.40616C61.9289 8.25016 61.8206 8.09416 61.7512 7.93816C61.6906 7.78216 61.6602 7.65216 61.6602 7.54816H60.8152C60.8152 7.79083 60.8716 8.02916 60.9842 8.26316C61.0969 8.4885 61.2659 8.69216 61.4912 8.87416C61.7252 9.05616 62.0069 9.2035 62.3362 9.31616C62.6742 9.42016 63.0642 9.47216 63.5062 9.47216C64.3036 9.47216 64.9016 9.29883 65.3002 8.95216C65.7076 8.59683 65.9112 8.13316 65.9112 7.56116C65.9112 7.14516 65.8116 6.8115 65.6122 6.56016C65.4216 6.30883 65.1789 6.1095 64.8842 5.96216C64.5896 5.80616 64.2689 5.6805 63.9222 5.58516C63.5842 5.48983 63.2679 5.39016 62.9732 5.28616C62.6786 5.18216 62.4316 5.0565 62.2322 4.90916C62.0416 4.76183 61.9462 4.55383 61.9462 4.28516C61.9462 4.1725 61.9679 4.0555 62.0112 3.93416C62.0546 3.80416 62.1282 3.68716 62.2322 3.58316C62.3362 3.4705 62.4749 3.3795 62.6482 3.31016C62.8216 3.23216 63.0382 3.19316 63.2982 3.19316C63.5582 3.19316 63.7836 3.23216 63.9742 3.31016C64.1649 3.3795 64.3252 3.4705 64.4552 3.58316C64.5852 3.68716 64.6806 3.80416 64.7412 3.93416C64.8019 4.06416 64.8322 4.1855 64.8322 4.29816H65.5732ZM67.6723 0.216161V9.31616H68.7773V5.55916C68.7773 5.38583 68.7903 5.1735 68.8163 4.92216C68.8423 4.67083 68.9117 4.42816 69.0243 4.19416C69.1457 3.96016 69.3233 3.76083 69.5573 3.59616C69.7913 3.42283 70.1163 3.33616 70.5323 3.33616C70.827 3.33616 71.061 3.3925 71.2343 3.50516C71.4163 3.60916 71.555 3.75216 71.6503 3.93416C71.7457 4.11616 71.8063 4.3285 71.8323 4.57116C71.867 4.81383 71.8843 5.06516 71.8843 5.32516V9.31616H72.9893V5.02616C72.9893 4.54083 72.92 4.1465 72.7813 3.84316C72.6427 3.53116 72.4693 3.2885 72.2613 3.11516C72.0533 2.94183 71.8237 2.82483 71.5723 2.76416C71.3297 2.7035 71.0957 2.67316 70.8703 2.67316C70.567 2.67316 70.2463 2.73383 69.9083 2.85516C69.579 2.96783 69.267 3.18883 68.9723 3.51816L68.8293 3.70016H68.7773V0.216161H67.6723ZM75.4897 2.81616V9.31616H76.5947V2.81616H75.4897ZM75.3337 0.762161C75.3337 0.952828 75.403 1.1175 75.5417 1.25616C75.6804 1.39483 75.845 1.46416 76.0357 1.46416C76.2264 1.46416 76.391 1.39483 76.5297 1.25616C76.6684 1.1175 76.7377 0.952828 76.7377 0.762161C76.7377 0.571495 76.6684 0.406829 76.5297 0.268162C76.391 0.129495 76.2264 0.0601619 76.0357 0.0601619C75.845 0.0601619 75.6804 0.129495 75.5417 0.268162C75.403 0.406829 75.3337 0.571495 75.3337 0.762161ZM79.0727 12.5662H80.1777V8.25016H80.2297C80.3164 8.4755 80.429 8.66616 80.5677 8.82216C80.715 8.97816 80.8797 9.10383 81.0617 9.19916C81.2437 9.2945 81.4344 9.36383 81.6337 9.40716C81.8417 9.4505 82.0497 9.47216 82.2577 9.47216C82.691 9.47216 83.0897 9.39416 83.4537 9.23816C83.8177 9.0735 84.1297 8.84383 84.3897 8.54916C84.6584 8.2545 84.8664 7.89916 85.0137 7.48316C85.161 7.0585 85.2347 6.5905 85.2347 6.07916C85.2347 5.55916 85.161 5.09116 85.0137 4.67516C84.8664 4.25916 84.6584 3.90383 84.3897 3.60916C84.1297 3.30583 83.8177 3.07616 83.4537 2.92016C83.0897 2.7555 82.691 2.67316 82.2577 2.67316C81.2264 2.67316 80.5504 3.07183 80.2297 3.86916H80.1777V2.81616H79.0727V12.5662ZM80.1777 5.41616C80.1777 5.13016 80.221 4.8615 80.3077 4.61016C80.403 4.35016 80.533 4.12916 80.6977 3.94716C80.8624 3.7565 81.053 3.60916 81.2697 3.50516C81.495 3.3925 81.7334 3.33616 81.9847 3.33616C82.2534 3.33616 82.509 3.38816 82.7517 3.49216C83.003 3.5875 83.2197 3.7435 83.4017 3.96016C83.5837 4.17683 83.7267 4.4585 83.8307 4.80516C83.9434 5.15183 83.9997 5.56783 83.9997 6.05316C83.9997 6.54716 83.9434 6.9675 83.8307 7.31416C83.7267 7.66083 83.5794 7.94683 83.3887 8.17216C83.2067 8.38883 82.9944 8.54916 82.7517 8.65316C82.509 8.7485 82.2534 8.79616 81.9847 8.79616C81.742 8.79616 81.5124 8.7485 81.2957 8.65316C81.079 8.54916 80.8884 8.40183 80.7237 8.21116C80.559 8.01183 80.4247 7.7735 80.3207 7.49616C80.2254 7.21883 80.1777 6.9025 80.1777 6.54716V5.41616ZM86.9184 12.5662H88.0234V8.25016H88.0754C88.1621 8.4755 88.2748 8.66616 88.4134 8.82216C88.5608 8.97816 88.7254 9.10383 88.9074 9.19916C89.0894 9.2945 89.2801 9.36383 89.4794 9.40716C89.6874 9.4505 89.8954 9.47216 90.1034 9.47216C90.5368 9.47216 90.9354 9.39416 91.2994 9.23816C91.6634 9.0735 91.9754 8.84383 92.2354 8.54916C92.5041 8.2545 92.7121 7.89916 92.8594 7.48316C93.0068 7.0585 93.0804 6.5905 93.0804 6.07916C93.0804 5.55916 93.0068 5.09116 92.8594 4.67516C92.7121 4.25916 92.5041 3.90383 92.2354 3.60916C91.9754 3.30583 91.6634 3.07616 91.2994 2.92016C90.9354 2.7555 90.5368 2.67316 90.1034 2.67316C89.0721 2.67316 88.3961 3.07183 88.0754 3.86916H88.0234V2.81616H86.9184V12.5662ZM88.0234 5.41616C88.0234 5.13016 88.0668 4.8615 88.1534 4.61016C88.2488 4.35016 88.3788 4.12916 88.5434 3.94716C88.7081 3.7565 88.8988 3.60916 89.1154 3.50516C89.3408 3.3925 89.5791 3.33616 89.8304 3.33616C90.0991 3.33616 90.3548 3.38816 90.5974 3.49216C90.8488 3.5875 91.0654 3.7435 91.2474 3.96016C91.4294 4.17683 91.5724 4.4585 91.6764 4.80516C91.7891 5.15183 91.8454 5.56783 91.8454 6.05316C91.8454 6.54716 91.7891 6.9675 91.6764 7.31416C91.5724 7.66083 91.4251 7.94683 91.2344 8.17216C91.0524 8.38883 90.8401 8.54916 90.5974 8.65316C90.3548 8.7485 90.0991 8.79616 89.8304 8.79616C89.5878 8.79616 89.3581 8.7485 89.1414 8.65316C88.9248 8.54916 88.7341 8.40183 88.5694 8.21116C88.4048 8.01183 88.2704 7.7735 88.1664 7.49616C88.0711 7.21883 88.0234 6.9025 88.0234 6.54716V5.41616ZM95.1801 2.81616V9.31616H96.2851V2.81616H95.1801ZM95.0241 0.762161C95.0241 0.952828 95.0935 1.1175 95.2321 1.25616C95.3708 1.39483 95.5355 1.46416 95.7261 1.46416C95.9168 1.46416 96.0815 1.39483 96.2201 1.25616C96.3588 1.1175 96.4281 0.952828 96.4281 0.762161C96.4281 0.571495 96.3588 0.406829 96.2201 0.268162C96.0815 0.129495 95.9168 0.0601619 95.7261 0.0601619C95.5355 0.0601619 95.3708 0.129495 95.2321 0.268162C95.0935 0.406829 95.0241 0.571495 95.0241 0.762161ZM104.197 9.31616V5.10416C104.197 4.94816 104.184 4.73583 104.158 4.46716C104.132 4.18983 104.045 3.92116 103.898 3.66116C103.759 3.3925 103.534 3.16283 103.222 2.97216C102.91 2.77283 102.468 2.67316 101.896 2.67316C101.645 2.6645 101.363 2.7165 101.051 2.82916C100.739 2.93316 100.431 3.13683 100.128 3.44016L99.9201 3.64816H99.8681V2.81616H98.7631V9.31616H99.8681V5.29916C99.8681 4.96116 99.9158 4.67083 100.011 4.42816C100.106 4.1855 100.236 3.98183 100.401 3.81716C100.566 3.6525 100.752 3.53116 100.96 3.45316C101.177 3.37516 101.398 3.33616 101.623 3.33616C101.987 3.33616 102.269 3.40983 102.468 3.55716C102.667 3.69583 102.81 3.8605 102.897 4.05116C102.992 4.24183 103.049 4.4325 103.066 4.62316C103.083 4.81383 103.092 4.9525 103.092 5.03916V9.31616H104.197ZM110.958 9.86216C110.958 10.2608 110.91 10.5988 110.815 10.8762C110.72 11.1535 110.585 11.3788 110.412 11.5522C110.247 11.7255 110.048 11.8512 109.814 11.9292C109.589 12.0072 109.346 12.0462 109.086 12.0462C108.627 12.0462 108.254 11.9292 107.968 11.6952C107.691 11.4612 107.435 11.1492 107.201 10.7592L106.486 11.4092C106.547 11.4872 106.642 11.5868 106.772 11.7082C106.902 11.8382 107.067 11.9638 107.266 12.0852C107.465 12.2152 107.704 12.3235 107.981 12.4102C108.258 12.5055 108.575 12.5532 108.93 12.5532C109.589 12.5532 110.122 12.4578 110.529 12.2672C110.936 12.0852 111.253 11.8382 111.478 11.5262C111.703 11.2142 111.855 10.8545 111.933 10.4472C112.02 10.0485 112.063 9.6325 112.063 9.19916V2.81616H110.958V3.83016H110.906C110.802 3.46616 110.577 3.1845 110.23 2.98516C109.892 2.77716 109.446 2.67316 108.891 2.67316C108.449 2.67316 108.046 2.7555 107.682 2.92016C107.318 3.07616 107.006 3.3015 106.746 3.59616C106.486 3.89083 106.282 4.24616 106.135 4.66216C105.996 5.07816 105.927 5.54183 105.927 6.05316C105.927 6.57316 105.996 7.0455 106.135 7.47016C106.282 7.88616 106.486 8.24583 106.746 8.54916C107.006 8.84383 107.314 9.0735 107.669 9.23816C108.033 9.39416 108.436 9.47216 108.878 9.47216C109.363 9.47216 109.784 9.37683 110.139 9.18616C110.503 8.9955 110.759 8.69216 110.906 8.27616H110.958V9.86216ZM110.958 6.54716C110.958 6.91116 110.906 7.23183 110.802 7.50916C110.707 7.7865 110.577 8.0205 110.412 8.21116C110.247 8.40183 110.057 8.54916 109.84 8.65316C109.623 8.7485 109.398 8.79616 109.164 8.79616C108.956 8.79616 108.731 8.7615 108.488 8.69216C108.254 8.61416 108.033 8.4755 107.825 8.27616C107.626 8.07683 107.457 7.79516 107.318 7.43116C107.188 7.06716 107.123 6.59916 107.123 6.02716C107.123 5.4205 107.205 4.9395 107.37 4.58416C107.535 4.22016 107.725 3.94283 107.942 3.75216C108.167 3.5615 108.393 3.44016 108.618 3.38816C108.852 3.3275 109.034 3.29716 109.164 3.29716C109.45 3.29716 109.706 3.36216 109.931 3.49216C110.156 3.6135 110.343 3.7825 110.49 3.99916C110.646 4.20716 110.763 4.44983 110.841 4.72716C110.919 5.0045 110.958 5.2905 110.958 5.58516V6.54716ZM114.137 8.75716C114.137 8.5665 114.207 8.40183 114.345 8.26316C114.484 8.1245 114.649 8.05516 114.839 8.05516C115.03 8.05516 115.195 8.1245 115.333 8.26316C115.472 8.40183 115.541 8.5665 115.541 8.75716C115.541 8.94783 115.472 9.1125 115.333 9.25116C115.195 9.38983 115.03 9.45916 114.839 9.45916C114.649 9.45916 114.484 9.38983 114.345 9.25116C114.207 9.1125 114.137 8.94783 114.137 8.75716ZM0.00580084 20.2162V29.3162H1.1888V24.7922H5.2188V24.1942H1.1888V20.9312H5.8818V20.2162H0.00580084ZM7.30611 22.8162V29.3162H8.41111V25.3902C8.41111 25.0348 8.45011 24.7358 8.52811 24.4932C8.61478 24.2418 8.72311 24.0382 8.85311 23.8822C8.98311 23.7262 9.12611 23.6135 9.28211 23.5442C9.43811 23.4748 9.58978 23.4402 9.73711 23.4402C9.93645 23.4402 10.1184 23.5052 10.2831 23.6352C10.4564 23.7652 10.5821 23.8865 10.6601 23.9992L11.1021 23.1932C11.0241 23.0892 10.9288 23.0025 10.8161 22.9332C10.7121 22.8638 10.6038 22.8118 10.4911 22.7772C10.3871 22.7338 10.2874 22.7078 10.1921 22.6992C10.1054 22.6818 10.0404 22.6732 9.99711 22.6732C9.63311 22.6732 9.32978 22.7728 9.08711 22.9722C8.84445 23.1715 8.64511 23.4662 8.48911 23.8562H8.41111V22.8162H7.30611ZM18.042 26.3522V26.0792C18.042 25.4985 17.9596 24.9958 17.795 24.5712C17.6303 24.1465 17.405 23.7955 17.119 23.5182C16.8416 23.2408 16.5166 23.0328 16.144 22.8942C15.7713 22.7555 15.377 22.6862 14.961 22.6862C14.519 22.6862 14.1116 22.7642 13.739 22.9202C13.3663 23.0675 13.0413 23.2885 12.764 23.5832C12.4866 23.8692 12.27 24.2202 12.114 24.6362C11.958 25.0435 11.88 25.5072 11.88 26.0272C11.88 26.4605 11.945 26.8852 12.075 27.3012C12.2136 27.7085 12.4173 28.0768 12.686 28.4062C12.9633 28.7268 13.31 28.9868 13.726 29.1862C14.1506 29.3768 14.649 29.4722 15.221 29.4722C15.7756 29.4722 16.287 29.3768 16.755 29.1862C17.223 28.9868 17.6303 28.7052 17.977 28.3412L17.561 27.9252C17.379 28.0812 17.2056 28.2242 17.041 28.3542C16.885 28.4842 16.7246 28.5925 16.56 28.6792C16.3953 28.7658 16.222 28.8352 16.04 28.8872C15.8666 28.9305 15.6716 28.9522 15.455 28.9522C15.2123 28.9522 14.9523 28.9175 14.675 28.8482C14.4063 28.7702 14.155 28.6358 13.921 28.4452C13.687 28.2545 13.492 27.9902 13.336 27.6522C13.18 27.3142 13.102 26.8808 13.102 26.3522H18.042ZM13.102 25.8322C13.102 25.4855 13.1366 25.1518 13.206 24.8312C13.284 24.5018 13.3966 24.2115 13.544 23.9602C13.7 23.7088 13.895 23.5095 14.129 23.3622C14.363 23.2062 14.6403 23.1282 14.961 23.1282C15.5763 23.1282 16.053 23.3708 16.391 23.8562C16.7376 24.3328 16.911 24.9915 16.911 25.8322H13.102ZM25.5068 26.3522V26.0792C25.5068 25.4985 25.4245 24.9958 25.2598 24.5712C25.0952 24.1465 24.8698 23.7955 24.5838 23.5182C24.3065 23.2408 23.9815 23.0328 23.6088 22.8942C23.2362 22.7555 22.8418 22.6862 22.4258 22.6862C21.9838 22.6862 21.5765 22.7642 21.2038 22.9202C20.8312 23.0675 20.5062 23.2885 20.2288 23.5832C19.9515 23.8692 19.7348 24.2202 19.5788 24.6362C19.4228 25.0435 19.3448 25.5072 19.3448 26.0272C19.3448 26.4605 19.4098 26.8852 19.5398 27.3012C19.6785 27.7085 19.8822 28.0768 20.1508 28.4062C20.4282 28.7268 20.7748 28.9868 21.1908 29.1862C21.6155 29.3768 22.1138 29.4722 22.6858 29.4722C23.2405 29.4722 23.7518 29.3768 24.2198 29.1862C24.6878 28.9868 25.0952 28.7052 25.4418 28.3412L25.0258 27.9252C24.8438 28.0812 24.6705 28.2242 24.5058 28.3542C24.3498 28.4842 24.1895 28.5925 24.0248 28.6792C23.8602 28.7658 23.6868 28.8352 23.5048 28.8872C23.3315 28.9305 23.1365 28.9522 22.9198 28.9522C22.6772 28.9522 22.4172 28.9175 22.1398 28.8482C21.8712 28.7702 21.6198 28.6358 21.3858 28.4452C21.1518 28.2545 20.9568 27.9902 20.8008 27.6522C20.6448 27.3142 20.5668 26.8808 20.5668 26.3522H25.5068ZM20.5668 25.8322C20.5668 25.4855 20.6015 25.1518 20.6708 24.8312C20.7488 24.5018 20.8615 24.2115 21.0088 23.9602C21.1648 23.7088 21.3598 23.5095 21.5938 23.3622C21.8278 23.2062 22.1052 23.1282 22.4258 23.1282C23.0412 23.1282 23.5178 23.3708 23.8558 23.8562C24.2025 24.3328 24.3758 24.9915 24.3758 25.8322H20.5668ZM38.0886 26.0792C38.0886 26.5298 38.0106 26.9632 37.8546 27.3792C37.6986 27.7865 37.4733 28.1462 37.1786 28.4582C36.8926 28.7702 36.5416 29.0172 36.1256 29.1992C35.7183 29.3812 35.2589 29.4722 34.7476 29.4722C34.2276 29.4722 33.7553 29.3812 33.3306 29.1992C32.9146 29.0085 32.5593 28.7572 32.2646 28.4452C31.9786 28.1332 31.7533 27.7735 31.5886 27.3662C31.4326 26.9502 31.3546 26.5212 31.3546 26.0792C31.3546 25.6285 31.4326 25.1995 31.5886 24.7922C31.7533 24.3762 31.9786 24.0122 32.2646 23.7002C32.5593 23.3882 32.9146 23.1412 33.3306 22.9592C33.7553 22.7685 34.2276 22.6732 34.7476 22.6732C35.2589 22.6732 35.7183 22.7685 36.1256 22.9592C36.5416 23.1412 36.8926 23.3882 37.1786 23.7002C37.4733 24.0122 37.6986 24.3762 37.8546 24.7922C38.0106 25.1995 38.0886 25.6285 38.0886 26.0792ZM36.8536 26.0792C36.8536 25.4725 36.7886 24.9828 36.6586 24.6102C36.5286 24.2288 36.3596 23.9342 36.1516 23.7262C35.9436 23.5182 35.7139 23.3795 35.4626 23.3102C35.2113 23.2322 34.9686 23.1932 34.7346 23.1932C34.5006 23.1932 34.2579 23.2322 34.0066 23.3102C33.7553 23.3795 33.5213 23.5182 33.3046 23.7262C33.0966 23.9342 32.9233 24.2288 32.7846 24.6102C32.6546 24.9828 32.5896 25.4725 32.5896 26.0792C32.5896 26.6772 32.6546 27.1668 32.7846 27.5482C32.9233 27.9208 33.0966 28.2112 33.3046 28.4192C33.5213 28.6272 33.7553 28.7702 34.0066 28.8482C34.2579 28.9175 34.5006 28.9522 34.7346 28.9522C34.9686 28.9522 35.2113 28.9175 35.4626 28.8482C35.7139 28.7702 35.9436 28.6272 36.1516 28.4192C36.3596 28.2112 36.5286 27.9208 36.6586 27.5482C36.7886 27.1668 36.8536 26.6772 36.8536 26.0792ZM45.2147 29.3162V25.1042C45.2147 24.9482 45.2017 24.7358 45.1757 24.4672C45.1497 24.1898 45.0631 23.9212 44.9157 23.6612C44.7771 23.3925 44.5517 23.1628 44.2397 22.9722C43.9277 22.7728 43.4857 22.6732 42.9137 22.6732C42.6624 22.6645 42.3807 22.7165 42.0687 22.8292C41.7567 22.9332 41.4491 23.1368 41.1457 23.4402L40.9377 23.6482H40.8857V22.8162H39.7807V29.3162H40.8857V25.2992C40.8857 24.9612 40.9334 24.6708 41.0287 24.4282C41.1241 24.1855 41.2541 23.9818 41.4187 23.8172C41.5834 23.6525 41.7697 23.5312 41.9777 23.4532C42.1944 23.3752 42.4154 23.3362 42.6407 23.3362C43.0047 23.3362 43.2864 23.4098 43.4857 23.5572C43.6851 23.6958 43.8281 23.8605 43.9147 24.0512C44.0101 24.2418 44.0664 24.4325 44.0837 24.6232C44.1011 24.8138 44.1097 24.9525 44.1097 25.0392V29.3162H45.2147ZM58.2234 26.0792C58.2234 26.5298 58.1454 26.9632 57.9894 27.3792C57.8334 27.7865 57.608 28.1462 57.3134 28.4582C57.0274 28.7702 56.6764 29.0172 56.2604 29.1992C55.853 29.3812 55.3937 29.4722 54.8824 29.4722C54.3624 29.4722 53.89 29.3812 53.4654 29.1992C53.0494 29.0085 52.694 28.7572 52.3994 28.4452C52.1134 28.1332 51.888 27.7735 51.7234 27.3662C51.5674 26.9502 51.4894 26.5212 51.4894 26.0792C51.4894 25.6285 51.5674 25.1995 51.7234 24.7922C51.888 24.3762 52.1134 24.0122 52.3994 23.7002C52.694 23.3882 53.0494 23.1412 53.4654 22.9592C53.89 22.7685 54.3624 22.6732 54.8824 22.6732C55.3937 22.6732 55.853 22.7685 56.2604 22.9592C56.6764 23.1412 57.0274 23.3882 57.3134 23.7002C57.608 24.0122 57.8334 24.3762 57.9894 24.7922C58.1454 25.1995 58.2234 25.6285 58.2234 26.0792ZM56.9884 26.0792C56.9884 25.4725 56.9234 24.9828 56.7934 24.6102C56.6634 24.2288 56.4944 23.9342 56.2864 23.7262C56.0784 23.5182 55.8487 23.3795 55.5974 23.3102C55.346 23.2322 55.1034 23.1932 54.8694 23.1932C54.6354 23.1932 54.3927 23.2322 54.1414 23.3102C53.89 23.3795 53.656 23.5182 53.4394 23.7262C53.2314 23.9342 53.058 24.2288 52.9194 24.6102C52.7894 24.9828 52.7244 25.4725 52.7244 26.0792C52.7244 26.6772 52.7894 27.1668 52.9194 27.5482C53.058 27.9208 53.2314 28.2112 53.4394 28.4192C53.656 28.6272 53.89 28.7702 54.1414 28.8482C54.3927 28.9175 54.6354 28.9522 54.8694 28.9522C55.1034 28.9522 55.346 28.9175 55.5974 28.8482C55.8487 28.7702 56.0784 28.6272 56.2864 28.4192C56.4944 28.2112 56.6634 27.9208 56.7934 27.5482C56.9234 27.1668 56.9884 26.6772 56.9884 26.0792ZM59.9155 22.8162V29.3162H61.0205V25.3902C61.0205 25.0348 61.0595 24.7358 61.1375 24.4932C61.2242 24.2418 61.3325 24.0382 61.4625 23.8822C61.5925 23.7262 61.7355 23.6135 61.8915 23.5442C62.0475 23.4748 62.1992 23.4402 62.3465 23.4402C62.5458 23.4402 62.7278 23.5052 62.8925 23.6352C63.0658 23.7652 63.1915 23.8865 63.2695 23.9992L63.7115 23.1932C63.6335 23.0892 63.5382 23.0025 63.4255 22.9332C63.3215 22.8638 63.2132 22.8118 63.1005 22.7772C62.9965 22.7338 62.8968 22.7078 62.8015 22.6992C62.7148 22.6818 62.6498 22.6732 62.6065 22.6732C62.2425 22.6732 61.9392 22.7728 61.6965 22.9722C61.4538 23.1715 61.2545 23.4662 61.0985 23.8562H61.0205V22.8162H59.9155ZM70.6514 20.2162H69.5464V23.8822H69.4944C69.4077 23.6568 69.2907 23.4705 69.1434 23.3232C69.0047 23.1672 68.8444 23.0415 68.6624 22.9462C68.4804 22.8508 68.2854 22.7815 68.0774 22.7382C67.878 22.6948 67.6744 22.6732 67.4664 22.6732C67.033 22.6732 66.6344 22.7555 66.2704 22.9202C65.9064 23.0762 65.59 23.3015 65.3214 23.5962C65.0614 23.8908 64.8577 24.2462 64.7104 24.6622C64.563 25.0782 64.4894 25.5418 64.4894 26.0532C64.4894 26.5732 64.563 27.0455 64.7104 27.4702C64.8577 27.8862 65.0614 28.2458 65.3214 28.5492C65.59 28.8438 65.9064 29.0735 66.2704 29.2382C66.6344 29.3942 67.033 29.4722 67.4664 29.4722C68.489 29.4722 69.165 29.0692 69.4944 28.2632H69.5464V29.3162H70.6514V20.2162ZM69.5464 26.7162C69.5464 27.0022 69.4987 27.2752 69.4034 27.5352C69.308 27.7865 69.178 28.0075 69.0134 28.1982C68.8574 28.3802 68.6667 28.5275 68.4414 28.6402C68.2247 28.7442 67.9907 28.7962 67.7394 28.7962C67.462 28.7962 67.202 28.7485 66.9594 28.6532C66.7167 28.5492 66.5044 28.3888 66.3224 28.1722C66.1404 27.9555 65.993 27.6738 65.8804 27.3272C65.7764 26.9805 65.7244 26.5645 65.7244 26.0792C65.7244 25.5852 65.7764 25.1648 65.8804 24.8182C65.993 24.4715 66.1404 24.1898 66.3224 23.9732C66.513 23.7478 66.7297 23.5875 66.9724 23.4922C67.215 23.3882 67.4707 23.3362 67.7394 23.3362C67.982 23.3362 68.2117 23.3882 68.4284 23.4922C68.645 23.5875 68.8357 23.7348 69.0004 23.9342C69.165 24.1248 69.295 24.3588 69.3904 24.6362C69.4944 24.9135 69.5464 25.2298 69.5464 25.5852V26.7162ZM78.4971 26.3522V26.0792C78.4971 25.4985 78.4147 24.9958 78.2501 24.5712C78.0854 24.1465 77.8601 23.7955 77.5741 23.5182C77.2967 23.2408 76.9717 23.0328 76.5991 22.8942C76.2264 22.7555 75.8321 22.6862 75.4161 22.6862C74.9741 22.6862 74.5667 22.7642 74.1941 22.9202C73.8214 23.0675 73.4964 23.2885 73.2191 23.5832C72.9417 23.8692 72.7251 24.2202 72.5691 24.6362C72.4131 25.0435 72.3351 25.5072 72.3351 26.0272C72.3351 26.4605 72.4001 26.8852 72.5301 27.3012C72.6687 27.7085 72.8724 28.0768 73.1411 28.4062C73.4184 28.7268 73.7651 28.9868 74.1811 29.1862C74.6057 29.3768 75.1041 29.4722 75.6761 29.4722C76.2307 29.4722 76.7421 29.3768 77.2101 29.1862C77.6781 28.9868 78.0854 28.7052 78.4321 28.3412L78.0161 27.9252C77.8341 28.0812 77.6607 28.2242 77.4961 28.3542C77.3401 28.4842 77.1797 28.5925 77.0151 28.6792C76.8504 28.7658 76.6771 28.8352 76.4951 28.8872C76.3217 28.9305 76.1267 28.9522 75.9101 28.9522C75.6674 28.9522 75.4074 28.9175 75.1301 28.8482C74.8614 28.7702 74.6101 28.6358 74.3761 28.4452C74.1421 28.2545 73.9471 27.9902 73.7911 27.6522C73.6351 27.3142 73.5571 26.8808 73.5571 26.3522H78.4971ZM73.5571 25.8322C73.5571 25.4855 73.5917 25.1518 73.6611 24.8312C73.7391 24.5018 73.8517 24.2115 73.9991 23.9602C74.1551 23.7088 74.3501 23.5095 74.5841 23.3622C74.8181 23.2062 75.0954 23.1282 75.4161 23.1282C76.0314 23.1282 76.5081 23.3708 76.8461 23.8562C77.1927 24.3328 77.3661 24.9915 77.3661 25.8322H73.5571ZM80.1899 22.8162V29.3162H81.2949V25.3902C81.2949 25.0348 81.3339 24.7358 81.4119 24.4932C81.4986 24.2418 81.6069 24.0382 81.7369 23.8822C81.8669 23.7262 82.0099 23.6135 82.1659 23.5442C82.3219 23.4748 82.4736 23.4402 82.6209 23.4402C82.8202 23.4402 83.0022 23.5052 83.1669 23.6352C83.3402 23.7652 83.4659 23.8865 83.5439 23.9992L83.9859 23.1932C83.9079 23.0892 83.8126 23.0025 83.6999 22.9332C83.5959 22.8638 83.4876 22.8118 83.3749 22.7772C83.2709 22.7338 83.1712 22.7078 83.0759 22.6992C82.9892 22.6818 82.9242 22.6732 82.8809 22.6732C82.5169 22.6732 82.2136 22.7728 81.9709 22.9722C81.7282 23.1715 81.5289 23.4662 81.3729 23.8562H81.2949V22.8162H80.1899ZM89.3008 24.2982C89.3008 24.0642 89.2401 23.8475 89.1188 23.6482C88.9974 23.4488 88.8284 23.2798 88.6118 23.1412C88.4038 22.9938 88.1568 22.8812 87.8708 22.8032C87.5934 22.7165 87.2944 22.6732 86.9738 22.6732C86.6704 22.6732 86.3844 22.7122 86.1158 22.7902C85.8558 22.8682 85.6261 22.9852 85.4268 23.1412C85.2361 23.2972 85.0844 23.4922 84.9718 23.7262C84.8591 23.9515 84.8028 24.2158 84.8028 24.5192C84.8028 24.9352 84.8981 25.2645 85.0888 25.5072C85.2794 25.7498 85.5178 25.9448 85.8038 26.0922C86.0898 26.2395 86.3974 26.3608 86.7268 26.4562C87.0648 26.5428 87.3768 26.6425 87.6628 26.7552C87.9488 26.8592 88.1871 26.9935 88.3778 27.1582C88.5684 27.3228 88.6638 27.5482 88.6638 27.8342C88.6638 27.9555 88.6421 28.0812 88.5988 28.2112C88.5641 28.3412 88.4948 28.4625 88.3908 28.5752C88.2868 28.6792 88.1438 28.7702 87.9618 28.8482C87.7798 28.9175 87.5501 28.9522 87.2728 28.9522C86.9261 28.9522 86.6314 28.9002 86.3888 28.7962C86.1548 28.6835 85.9598 28.5535 85.8038 28.4062C85.6564 28.2502 85.5481 28.0942 85.4788 27.9382C85.4181 27.7822 85.3878 27.6522 85.3878 27.5482H84.5428C84.5428 27.7908 84.5991 28.0292 84.7118 28.2632C84.8244 28.4885 84.9934 28.6922 85.2188 28.8742C85.4528 29.0562 85.7344 29.2035 86.0638 29.3162C86.4018 29.4202 86.7918 29.4722 87.2338 29.4722C88.0311 29.4722 88.6291 29.2988 89.0278 28.9522C89.4351 28.5968 89.6388 28.1332 89.6388 27.5612C89.6388 27.1452 89.5391 26.8115 89.3398 26.5602C89.1491 26.3088 88.9064 26.1095 88.6118 25.9622C88.3171 25.8062 87.9964 25.6805 87.6498 25.5852C87.3118 25.4898 86.9954 25.3902 86.7008 25.2862C86.4061 25.1822 86.1591 25.0565 85.9598 24.9092C85.7691 24.7618 85.6738 24.5538 85.6738 24.2852C85.6738 24.1725 85.6954 24.0555 85.7388 23.9342C85.7821 23.8042 85.8558 23.6872 85.9598 23.5832C86.0638 23.4705 86.2024 23.3795 86.3758 23.3102C86.5491 23.2322 86.7658 23.1932 87.0258 23.1932C87.2858 23.1932 87.5111 23.2322 87.7018 23.3102C87.8924 23.3795 88.0528 23.4705 88.1828 23.5832C88.3128 23.6872 88.4081 23.8042 88.4688 23.9342C88.5294 24.0642 88.5598 24.1855 88.5598 24.2982H89.3008ZM102.289 26.0792C102.289 26.5298 102.211 26.9632 102.055 27.3792C101.899 27.7865 101.673 28.1462 101.379 28.4582C101.093 28.7702 100.742 29.0172 100.326 29.1992C99.9185 29.3812 99.4591 29.4722 98.9478 29.4722C98.4278 29.4722 97.9555 29.3812 97.5308 29.1992C97.1148 29.0085 96.7595 28.7572 96.4648 28.4452C96.1788 28.1332 95.9535 27.7735 95.7888 27.3662C95.6328 26.9502 95.5548 26.5212 95.5548 26.0792C95.5548 25.6285 95.6328 25.1995 95.7888 24.7922C95.9535 24.3762 96.1788 24.0122 96.4648 23.7002C96.7595 23.3882 97.1148 23.1412 97.5308 22.9592C97.9555 22.7685 98.4278 22.6732 98.9478 22.6732C99.4591 22.6732 99.9185 22.7685 100.326 22.9592C100.742 23.1412 101.093 23.3882 101.379 23.7002C101.673 24.0122 101.899 24.3762 102.055 24.7922C102.211 25.1995 102.289 25.6285 102.289 26.0792ZM101.054 26.0792C101.054 25.4725 100.989 24.9828 100.859 24.6102C100.729 24.2288 100.56 23.9342 100.352 23.7262C100.144 23.5182 99.9141 23.3795 99.6628 23.3102C99.4115 23.2322 99.1688 23.1932 98.9348 23.1932C98.7008 23.1932 98.4581 23.2322 98.2068 23.3102C97.9555 23.3795 97.7215 23.5182 97.5048 23.7262C97.2968 23.9342 97.1235 24.2288 96.9848 24.6102C96.8548 24.9828 96.7898 25.4725 96.7898 26.0792C96.7898 26.6772 96.8548 27.1668 96.9848 27.5482C97.1235 27.9208 97.2968 28.2112 97.5048 28.4192C97.7215 28.6272 97.9555 28.7702 98.2068 28.8482C98.4581 28.9175 98.7008 28.9522 98.9348 28.9522C99.1688 28.9522 99.4115 28.9175 99.6628 28.8482C99.9141 28.7702 100.144 28.6272 100.352 28.4192C100.56 28.2112 100.729 27.9208 100.859 27.5482C100.989 27.1668 101.054 26.6772 101.054 26.0792ZM103.201 22.8162L105.905 29.3162H106.685L109.311 22.8162H108.7L106.594 28.0292H106.516L104.345 22.8162H103.201ZM116.38 26.3522V26.0792C116.38 25.4985 116.298 24.9958 116.133 24.5712C115.968 24.1465 115.743 23.7955 115.457 23.5182C115.18 23.2408 114.855 23.0328 114.482 22.8942C114.109 22.7555 113.715 22.6862 113.299 22.6862C112.857 22.6862 112.45 22.7642 112.077 22.9202C111.704 23.0675 111.379 23.2885 111.102 23.5832C110.825 23.8692 110.608 24.2202 110.452 24.6362C110.296 25.0435 110.218 25.5072 110.218 26.0272C110.218 26.4605 110.283 26.8852 110.413 27.3012C110.552 27.7085 110.755 28.0768 111.024 28.4062C111.301 28.7268 111.648 28.9868 112.064 29.1862C112.489 29.3768 112.987 29.4722 113.559 29.4722C114.114 29.4722 114.625 29.3768 115.093 29.1862C115.561 28.9868 115.968 28.7052 116.315 28.3412L115.899 27.9252C115.717 28.0812 115.544 28.2242 115.379 28.3542C115.223 28.4842 115.063 28.5925 114.898 28.6792C114.733 28.7658 114.56 28.8352 114.378 28.8872C114.205 28.9305 114.01 28.9522 113.793 28.9522C113.55 28.9522 113.29 28.9175 113.013 28.8482C112.744 28.7702 112.493 28.6358 112.259 28.4452C112.025 28.2545 111.83 27.9902 111.674 27.6522C111.518 27.3142 111.44 26.8808 111.44 26.3522H116.38ZM111.44 25.8322C111.44 25.4855 111.475 25.1518 111.544 24.8312C111.622 24.5018 111.735 24.2115 111.882 23.9602C112.038 23.7088 112.233 23.5095 112.467 23.3622C112.701 23.2062 112.978 23.1282 113.299 23.1282C113.914 23.1282 114.391 23.3708 114.729 23.8562C115.076 24.3328 115.249 24.9915 115.249 25.8322H111.44ZM118.073 22.8162V29.3162H119.178V25.3902C119.178 25.0348 119.217 24.7358 119.295 24.4932C119.381 24.2418 119.49 24.0382 119.62 23.8822C119.75 23.7262 119.893 23.6135 120.049 23.5442C120.205 23.4748 120.356 23.4402 120.504 23.4402C120.703 23.4402 120.885 23.5052 121.05 23.6352C121.223 23.7652 121.349 23.8865 121.427 23.9992L121.869 23.1932C121.791 23.0892 121.695 23.0025 121.583 22.9332C121.479 22.8638 121.37 22.8118 121.258 22.7772C121.154 22.7338 121.054 22.7078 120.959 22.6992C120.872 22.6818 120.807 22.6732 120.764 22.6732C120.4 22.6732 120.096 22.7728 119.854 22.9722C119.611 23.1715 119.412 23.4662 119.256 23.8562H119.178V22.8162H118.073ZM130.026 18.9552V20.0732C129.662 20.0992 129.319 20.1728 128.999 20.2942C128.678 20.4068 128.396 20.5672 128.154 20.7752C127.92 20.9745 127.733 21.2172 127.595 21.5032C127.456 21.7805 127.387 22.1012 127.387 22.4652C127.387 22.8465 127.46 23.1715 127.608 23.4402C127.764 23.7088 127.963 23.9428 128.206 24.1422C128.457 24.3328 128.739 24.4975 129.051 24.6362C129.371 24.7662 129.696 24.8918 130.026 25.0132V28.8872C129.566 28.8525 129.198 28.7615 128.921 28.6142C128.652 28.4668 128.444 28.2978 128.297 28.1072C128.149 27.9165 128.05 27.7215 127.998 27.5222C127.946 27.3228 127.915 27.1538 127.907 27.0152H127.023C127.031 27.3532 127.114 27.6652 127.27 27.9512C127.426 28.2372 127.634 28.4842 127.894 28.6922C128.162 28.9002 128.474 29.0692 128.83 29.1992C129.194 29.3292 129.592 29.4115 130.026 29.4462V30.9412H130.975V29.4462C131.841 29.3768 132.526 29.1168 133.029 28.6662C133.531 28.2068 133.783 27.6132 133.783 26.8852C133.783 26.4692 133.7 26.1182 133.536 25.8322C133.38 25.5375 133.167 25.2818 132.899 25.0652C132.639 24.8485 132.34 24.6665 132.002 24.5192C131.664 24.3718 131.321 24.2332 130.975 24.1032V20.6842C131.399 20.7535 131.755 20.9052 132.041 21.1392C132.327 21.3645 132.5 21.6895 132.561 22.1142H133.445C133.349 21.5508 133.072 21.1002 132.613 20.7622C132.153 20.4155 131.607 20.1945 130.975 20.0992V18.9552H130.026ZM132.691 27.2752C132.691 27.7605 132.535 28.1332 132.223 28.3932C131.919 28.6532 131.503 28.8135 130.975 28.8742V25.3642C131.209 25.4595 131.43 25.5678 131.638 25.6892C131.846 25.8018 132.028 25.9318 132.184 26.0792C132.34 26.2265 132.461 26.3998 132.548 26.5992C132.643 26.7898 132.691 27.0152 132.691 27.2752ZM128.336 22.1402C128.336 21.7762 128.479 21.4555 128.765 21.1782C129.051 20.8922 129.471 20.7188 130.026 20.6582V23.7522C129.792 23.6568 129.571 23.5572 129.363 23.4532C129.155 23.3492 128.973 23.2365 128.817 23.1152C128.669 22.9852 128.552 22.8422 128.466 22.6862C128.379 22.5302 128.336 22.3482 128.336 22.1402ZM141.349 29.3162H135.369L137.826 26.5732C138.042 26.3132 138.272 26.0315 138.515 25.7282C138.766 25.4248 138.996 25.1042 139.204 24.7662C139.412 24.4282 139.585 24.0772 139.724 23.7132C139.862 23.3492 139.932 22.9765 139.932 22.5952C139.932 21.9972 139.771 21.5205 139.451 21.1652C139.139 20.8098 138.736 20.6322 138.242 20.6322C137.947 20.6322 137.7 20.6885 137.501 20.8012C137.31 20.9138 137.15 21.0655 137.02 21.2562C136.898 21.4382 136.807 21.6548 136.747 21.9062C136.686 22.1488 136.643 22.4045 136.617 22.6732H135.317C135.317 22.3092 135.39 21.9668 135.538 21.6462C135.685 21.3255 135.889 21.0482 136.149 20.8142C136.417 20.5802 136.729 20.3982 137.085 20.2682C137.44 20.1295 137.826 20.0602 138.242 20.0602C138.71 20.0602 139.13 20.1295 139.503 20.2682C139.875 20.3982 140.187 20.5802 140.439 20.8142C140.69 21.0482 140.881 21.3212 141.011 21.6332C141.149 21.9365 141.219 22.2572 141.219 22.5952C141.219 23.0198 141.175 23.3838 141.089 23.6872C141.011 23.9905 140.881 24.2852 140.699 24.5712C140.525 24.8485 140.296 25.1432 140.01 25.4552C139.732 25.7672 139.394 26.1398 138.996 26.5732L137.306 28.3802H141.349V29.3162ZM144.039 23.4792C144.281 23.3838 144.498 23.3145 144.689 23.2712C144.888 23.2192 145.109 23.1932 145.352 23.1932C145.768 23.1932 146.153 23.2625 146.509 23.4012C146.864 23.5312 147.172 23.7262 147.432 23.9862C147.7 24.2375 147.908 24.5408 148.056 24.8962C148.212 25.2515 148.29 25.6502 148.29 26.0922C148.29 26.6295 148.199 27.1062 148.017 27.5222C147.843 27.9382 147.601 28.2892 147.289 28.5752C146.985 28.8612 146.626 29.0822 146.21 29.2382C145.802 29.3855 145.365 29.4592 144.897 29.4592C144.498 29.4592 144.13 29.4028 143.792 29.2902C143.462 29.1688 143.176 29.0085 142.934 28.8092C142.691 28.6098 142.496 28.3715 142.349 28.0942C142.21 27.8168 142.136 27.5222 142.128 27.2102H143.077C143.085 27.4442 143.133 27.6652 143.22 27.8732C143.306 28.0725 143.423 28.2502 143.571 28.4062C143.727 28.5535 143.913 28.6705 144.13 28.7572C144.346 28.8438 144.593 28.8872 144.871 28.8872C145.122 28.8872 145.373 28.8395 145.625 28.7442C145.876 28.6402 146.101 28.4798 146.301 28.2632C146.509 28.0378 146.673 27.7562 146.795 27.4182C146.925 27.0715 146.99 26.6555 146.99 26.1702C146.99 25.4855 146.808 24.9308 146.444 24.5062C146.08 24.0815 145.534 23.8692 144.806 23.8692C144.632 23.8692 144.394 23.8865 144.091 23.9212C143.787 23.9558 143.449 24.0685 143.077 24.2592L144.234 20.2162H148.173L147.913 20.9312H144.793L144.039 23.4792ZM150.116 28.7572C150.116 28.5665 150.185 28.4018 150.324 28.2632C150.462 28.1245 150.627 28.0552 150.818 28.0552C151.008 28.0552 151.173 28.1245 151.312 28.2632C151.45 28.4018 151.52 28.5665 151.52 28.7572C151.52 28.9478 151.45 29.1125 151.312 29.2512C151.173 29.3898 151.008 29.4592 150.818 29.4592C150.627 29.4592 150.462 29.3898 150.324 29.2512C150.185 29.1125 150.116 28.9478 150.116 28.7572Z" fill="#555555"/>
</svg>
