<svg width="124" height="30" viewBox="0 0 124 30" fill="none" xmlns="http://www.w3.org/2000/svg">
<path d="M0.682721 7.095C0.700055 7.46766 0.795388 7.80566 0.968721 8.109C1.15072 8.41233 1.39339 8.67233 1.69672 8.889C2.00872 9.097 2.37272 9.26166 2.78872 9.383C3.20472 9.49566 3.65972 9.552 4.15372 9.552C4.65639 9.552 5.10705 9.49133 5.50572 9.37C5.91305 9.24866 6.25972 9.07533 6.54572 8.85C6.83172 8.62466 7.05272 8.35166 7.20872 8.031C7.36472 7.71033 7.44272 7.355 7.44272 6.965C7.44272 6.42766 7.30839 5.99 7.03972 5.652C6.77105 5.30533 6.43305 5.01933 6.02572 4.794C5.62705 4.56 5.18939 4.365 4.71272 4.209C4.24472 4.053 3.80705 3.88833 3.39972 3.715C3.00105 3.54166 2.66739 3.34233 2.39872 3.117C2.13005 2.89166 1.99572 2.59266 1.99572 2.22C1.99572 2.012 2.03905 1.817 2.12572 1.635C2.22105 1.453 2.35539 1.297 2.52872 1.167C2.71072 1.02833 2.93172 0.919995 3.19172 0.841995C3.45172 0.755329 3.75072 0.711996 4.08872 0.711996C4.65205 0.711996 5.12872 0.833329 5.51872 1.076C5.91739 1.31 6.15139 1.68266 6.22072 2.194H7.10472C7.05272 1.87333 6.93572 1.58733 6.75372 1.336C6.57172 1.076 6.34205 0.859329 6.06472 0.685996C5.78739 0.503996 5.47105 0.369662 5.11572 0.282996C4.76905 0.187663 4.40505 0.139996 4.02372 0.139996C3.62505 0.139996 3.24372 0.191996 2.87972 0.295995C2.52439 0.399996 2.20805 0.551662 1.93072 0.750996C1.66205 0.950329 1.44539 1.20166 1.28072 1.505C1.12472 1.80833 1.04672 2.155 1.04672 2.545C1.04672 3.05633 1.17672 3.468 1.43672 3.78C1.69672 4.092 2.02172 4.352 2.41172 4.56C2.81039 4.768 3.23939 4.94566 3.69872 5.093C4.15805 5.24033 4.58272 5.40933 4.97272 5.6C5.37139 5.782 5.70072 6.00733 5.96072 6.276C6.22072 6.54466 6.35072 6.90433 6.35072 7.355C6.35072 7.91833 6.14272 8.33 5.72672 8.59C5.31939 8.85 4.77339 8.98 4.08872 8.98C3.54272 8.98 3.10505 8.91066 2.77572 8.772C2.44639 8.62466 2.19505 8.45133 2.02172 8.252C1.84839 8.05266 1.73139 7.849 1.67072 7.641C1.61005 7.42433 1.57539 7.24233 1.56672 7.095H0.682721ZM9.36672 2.896V7.121C9.36672 7.277 9.37972 7.49366 9.40572 7.771C9.44039 8.03966 9.53139 8.30833 9.67872 8.577C9.82605 8.837 10.0557 9.06666 10.3677 9.266C10.6884 9.45666 11.1347 9.552 11.7067 9.552C11.9581 9.56066 12.2311 9.50866 12.5257 9.396C12.8291 9.292 13.1324 9.08833 13.4357 8.785L13.6437 8.577H13.6957V9.396H14.8007V2.896H13.6957V6.926C13.6957 7.264 13.6481 7.55433 13.5527 7.797C13.4574 8.03966 13.3317 8.24333 13.1757 8.408C13.0197 8.564 12.8377 8.681 12.6297 8.759C12.4217 8.837 12.2051 8.876 11.9797 8.876C11.6157 8.876 11.3297 8.80666 11.1217 8.668C10.9224 8.52066 10.7707 8.35166 10.6667 8.161C10.5714 7.97033 10.5151 7.784 10.4977 7.602C10.4804 7.41133 10.4717 7.27266 10.4717 7.186V2.896H9.36672ZM21.0674 4.378C21.0674 4.144 21.0068 3.92733 20.8854 3.728C20.7641 3.52866 20.5951 3.35966 20.3784 3.221C20.1704 3.07366 19.9234 2.961 19.6374 2.883C19.3601 2.79633 19.0611 2.753 18.7404 2.753C18.4371 2.753 18.1511 2.792 17.8824 2.87C17.6224 2.948 17.3928 3.065 17.1934 3.221C17.0028 3.377 16.8511 3.572 16.7384 3.806C16.6258 4.03133 16.5694 4.29566 16.5694 4.599C16.5694 5.015 16.6648 5.34433 16.8554 5.587C17.0461 5.82966 17.2844 6.02466 17.5704 6.172C17.8564 6.31933 18.1641 6.44066 18.4934 6.536C18.8314 6.62266 19.1434 6.72233 19.4294 6.835C19.7154 6.939 19.9538 7.07333 20.1444 7.238C20.3351 7.40266 20.4304 7.628 20.4304 7.914C20.4304 8.03533 20.4088 8.161 20.3654 8.291C20.3308 8.421 20.2614 8.54233 20.1574 8.655C20.0534 8.759 19.9104 8.85 19.7284 8.928C19.5464 8.99733 19.3168 9.032 19.0394 9.032C18.6928 9.032 18.3981 8.98 18.1554 8.876C17.9214 8.76333 17.7264 8.63333 17.5704 8.486C17.4231 8.33 17.3148 8.174 17.2454 8.018C17.1848 7.862 17.1544 7.732 17.1544 7.628H16.3094C16.3094 7.87066 16.3658 8.109 16.4784 8.343C16.5911 8.56833 16.7601 8.772 16.9854 8.954C17.2194 9.136 17.5011 9.28333 17.8304 9.396C18.1684 9.5 18.5584 9.552 19.0004 9.552C19.7978 9.552 20.3958 9.37866 20.7944 9.032C21.2018 8.67666 21.4054 8.213 21.4054 7.641C21.4054 7.225 21.3058 6.89133 21.1064 6.64C20.9158 6.38866 20.6731 6.18933 20.3784 6.042C20.0838 5.886 19.7631 5.76033 19.4164 5.665C19.0784 5.56966 18.7621 5.47 18.4674 5.366C18.1728 5.262 17.9258 5.13633 17.7264 4.989C17.5358 4.84166 17.4404 4.63366 17.4404 4.365C17.4404 4.25233 17.4621 4.13533 17.5054 4.014C17.5488 3.884 17.6224 3.767 17.7264 3.663C17.8304 3.55033 17.9691 3.45933 18.1424 3.39C18.3158 3.312 18.5324 3.273 18.7924 3.273C19.0524 3.273 19.2778 3.312 19.4684 3.39C19.6591 3.45933 19.8194 3.55033 19.9494 3.663C20.0794 3.767 20.1748 3.884 20.2354 4.014C20.2961 4.144 20.3264 4.26533 20.3264 4.378H21.0674ZM22.5165 3.416V2.896H23.6475V0.893996H24.7525V2.896H26.3255V3.416H24.7525V7.732C24.7525 7.836 24.7569 7.95733 24.7655 8.096C24.7742 8.226 24.8002 8.35166 24.8435 8.473C24.8869 8.58566 24.9519 8.681 25.0385 8.759C25.1339 8.837 25.2639 8.876 25.4285 8.876C25.6365 8.876 25.8099 8.798 25.9485 8.642C26.0872 8.486 26.1999 8.317 26.2865 8.135L26.8975 8.759C26.4729 9.18366 25.9919 9.396 25.4545 9.396C25.2292 9.396 25.0082 9.357 24.7915 9.279C24.5749 9.201 24.3799 9.084 24.2065 8.928C24.0419 8.76333 23.9075 8.55533 23.8035 8.304C23.6995 8.05266 23.6475 7.758 23.6475 7.42V3.416H22.5165ZM30.4335 2.753C31.0662 2.753 31.5559 2.844 31.9025 3.026C32.2492 3.19933 32.5005 3.429 32.6565 3.715C32.8212 4.001 32.9165 4.33033 32.9425 4.703C32.9685 5.07566 32.9815 5.457 32.9815 5.847V9.396H31.9285V8.759C31.6772 9.00166 31.3565 9.19666 30.9665 9.344C30.5765 9.48266 30.1865 9.552 29.7965 9.552C29.4239 9.552 29.0945 9.487 28.8085 9.357C28.5225 9.227 28.2842 9.058 28.0935 8.85C27.9029 8.642 27.7599 8.408 27.6645 8.148C27.5692 7.888 27.5215 7.62366 27.5215 7.355C27.5215 7.07766 27.5735 6.80033 27.6775 6.523C27.7815 6.24566 27.9375 5.99866 28.1455 5.782C28.3535 5.55666 28.6092 5.37466 28.9125 5.236C29.2159 5.09733 29.5625 5.028 29.9525 5.028C30.3425 5.028 30.7109 5.106 31.0575 5.262C31.4129 5.40933 31.7032 5.62166 31.9285 5.899V5.34C31.9285 4.62933 31.8202 4.10066 31.6035 3.754C31.3955 3.40733 31.0099 3.234 30.4465 3.234C30.2039 3.234 29.9915 3.26433 29.8095 3.325C29.6275 3.38566 29.4629 3.47233 29.3155 3.585C29.1769 3.689 29.0469 3.82333 28.9255 3.988C28.8042 4.144 28.6829 4.32166 28.5615 4.521L27.8855 3.845C28.0069 3.715 28.1325 3.585 28.2625 3.455C28.4012 3.325 28.5659 3.208 28.7565 3.104C28.9559 3 29.1899 2.91766 29.4585 2.857C29.7272 2.78766 30.0522 2.753 30.4335 2.753ZM31.9285 6.822C31.8852 6.718 31.8202 6.59666 31.7335 6.458C31.6555 6.31933 31.5515 6.185 31.4215 6.055C31.2915 5.925 31.1355 5.81666 30.9535 5.73C30.7715 5.63466 30.5549 5.587 30.3035 5.587C30.0522 5.587 29.8225 5.639 29.6145 5.743C29.4065 5.83833 29.2289 5.96833 29.0815 6.133C28.9429 6.289 28.8345 6.47533 28.7565 6.692C28.6785 6.90866 28.6395 7.134 28.6395 7.368C28.6395 7.64533 28.6872 7.888 28.7825 8.096C28.8865 8.29533 29.0165 8.46866 29.1725 8.616C29.3285 8.75466 29.5019 8.85866 29.6925 8.928C29.8832 8.99733 30.0652 9.032 30.2385 9.032C30.4032 9.032 30.5679 9.00166 30.7325 8.941C30.9059 8.88033 31.0662 8.798 31.2135 8.694C31.3695 8.58133 31.5082 8.45133 31.6295 8.304C31.7509 8.15666 31.8505 7.99633 31.9285 7.823V6.822ZM35.478 2.896V9.396H36.583V2.896H35.478ZM35.322 0.841995C35.322 1.03266 35.3914 1.19733 35.53 1.336C35.6687 1.47466 35.8334 1.544 36.024 1.544C36.2147 1.544 36.3794 1.47466 36.518 1.336C36.6567 1.19733 36.726 1.03266 36.726 0.841995C36.726 0.651329 36.6567 0.486663 36.518 0.347996C36.3794 0.209329 36.2147 0.139996 36.024 0.139996C35.8334 0.139996 35.6687 0.209329 35.53 0.347996C35.3914 0.486663 35.322 0.651329 35.322 0.841995ZM44.4951 9.396V5.184C44.4951 5.028 44.4821 4.81566 44.4561 4.547C44.4301 4.26966 44.3434 4.001 44.1961 3.741C44.0574 3.47233 43.8321 3.24266 43.5201 3.052C43.2081 2.85266 42.7661 2.753 42.1941 2.753C41.9427 2.74433 41.6611 2.79633 41.3491 2.909C41.0371 3.013 40.7294 3.21666 40.4261 3.52L40.2181 3.728H40.1661V2.896H39.0611V9.396H40.1661V5.379C40.1661 5.041 40.2137 4.75066 40.3091 4.508C40.4044 4.26533 40.5344 4.06166 40.6991 3.897C40.8637 3.73233 41.0501 3.611 41.2581 3.533C41.4747 3.455 41.6957 3.416 41.9211 3.416C42.2851 3.416 42.5667 3.48966 42.7661 3.637C42.9654 3.77566 43.1084 3.94033 43.1951 4.131C43.2904 4.32166 43.3467 4.51233 43.3641 4.703C43.3814 4.89366 43.3901 5.03233 43.3901 5.119V9.396H44.4951ZM49.0068 2.753C49.6394 2.753 50.1291 2.844 50.4758 3.026C50.8224 3.19933 51.0738 3.429 51.2298 3.715C51.3944 4.001 51.4898 4.33033 51.5158 4.703C51.5418 5.07566 51.5548 5.457 51.5548 5.847V9.396H50.5018V8.759C50.2504 9.00166 49.9298 9.19666 49.5398 9.344C49.1498 9.48266 48.7598 9.552 48.3698 9.552C47.9971 9.552 47.6678 9.487 47.3818 9.357C47.0958 9.227 46.8574 9.058 46.6668 8.85C46.4761 8.642 46.3331 8.408 46.2378 8.148C46.1424 7.888 46.0948 7.62366 46.0948 7.355C46.0948 7.07766 46.1468 6.80033 46.2508 6.523C46.3548 6.24566 46.5108 5.99866 46.7188 5.782C46.9268 5.55666 47.1824 5.37466 47.4858 5.236C47.7891 5.09733 48.1358 5.028 48.5258 5.028C48.9158 5.028 49.2841 5.106 49.6308 5.262C49.9861 5.40933 50.2764 5.62166 50.5018 5.899V5.34C50.5018 4.62933 50.3934 4.10066 50.1768 3.754C49.9688 3.40733 49.5831 3.234 49.0198 3.234C48.7771 3.234 48.5648 3.26433 48.3828 3.325C48.2008 3.38566 48.0361 3.47233 47.8888 3.585C47.7501 3.689 47.6201 3.82333 47.4988 3.988C47.3774 4.144 47.2561 4.32166 47.1348 4.521L46.4588 3.845C46.5801 3.715 46.7058 3.585 46.8358 3.455C46.9744 3.325 47.1391 3.208 47.3298 3.104C47.5291 3 47.7631 2.91766 48.0318 2.857C48.3004 2.78766 48.6254 2.753 49.0068 2.753ZM50.5018 6.822C50.4584 6.718 50.3934 6.59666 50.3068 6.458C50.2288 6.31933 50.1248 6.185 49.9948 6.055C49.8648 5.925 49.7088 5.81666 49.5268 5.73C49.3448 5.63466 49.1281 5.587 48.8768 5.587C48.6254 5.587 48.3958 5.639 48.1878 5.743C47.9798 5.83833 47.8021 5.96833 47.6548 6.133C47.5161 6.289 47.4078 6.47533 47.3298 6.692C47.2518 6.90866 47.2128 7.134 47.2128 7.368C47.2128 7.64533 47.2604 7.888 47.3558 8.096C47.4598 8.29533 47.5898 8.46866 47.7458 8.616C47.9018 8.75466 48.0751 8.85866 48.2658 8.928C48.4564 8.99733 48.6384 9.032 48.8118 9.032C48.9764 9.032 49.1411 9.00166 49.3058 8.941C49.4791 8.88033 49.6394 8.798 49.7868 8.694C49.9428 8.58133 50.0814 8.45133 50.2028 8.304C50.3241 8.15666 50.4238 7.99633 50.5018 7.823V6.822ZM53.6353 0.295995H54.7403V3.962H54.7923C54.8789 3.73666 54.9916 3.55033 55.1303 3.403C55.2776 3.247 55.4423 3.12133 55.6243 3.026C55.8063 2.93066 55.9969 2.86133 56.1963 2.818C56.4043 2.77466 56.6123 2.753 56.8203 2.753C57.2536 2.753 57.6523 2.83533 58.0163 3C58.3803 3.156 58.6923 3.38133 58.9523 3.676C59.2209 3.97066 59.4289 4.326 59.5763 4.742C59.7236 5.158 59.7973 5.62166 59.7973 6.133C59.7973 6.653 59.7236 7.12533 59.5763 7.55C59.4289 7.966 59.2209 8.32566 58.9523 8.629C58.6923 8.92366 58.3803 9.15333 58.0163 9.318C57.6523 9.474 57.2536 9.552 56.8203 9.552C55.7889 9.552 55.1129 9.149 54.7923 8.343H54.7403V9.396H53.6353V0.295995ZM54.7403 6.796C54.7403 7.082 54.7836 7.355 54.8703 7.615C54.9656 7.86633 55.0956 8.08733 55.2603 8.278C55.4249 8.46 55.6156 8.60733 55.8323 8.72C56.0576 8.824 56.2959 8.876 56.5473 8.876C56.8159 8.876 57.0716 8.82833 57.3143 8.733C57.5656 8.629 57.7823 8.46866 57.9643 8.252C58.1463 8.03533 58.2893 7.75366 58.3933 7.407C58.5059 7.06033 58.5623 6.64433 58.5623 6.159C58.5623 5.665 58.5059 5.24466 58.3933 4.898C58.2893 4.55133 58.1419 4.26966 57.9513 4.053C57.7693 3.82766 57.5569 3.66733 57.3143 3.572C57.0716 3.468 56.8159 3.416 56.5473 3.416C56.3046 3.416 56.0749 3.468 55.8583 3.572C55.6416 3.66733 55.4509 3.81466 55.2863 4.014C55.1216 4.20466 54.9873 4.43866 54.8833 4.716C54.7879 4.99333 54.7403 5.30966 54.7403 5.665V6.796ZM62.846 0.295995H61.741V9.396H62.846V0.295995ZM70.96 6.432V6.159C70.96 5.57833 70.8777 5.07566 70.713 4.651C70.5483 4.22633 70.323 3.87533 70.037 3.598C69.7597 3.32066 69.4347 3.11266 69.062 2.974C68.6893 2.83533 68.295 2.766 67.879 2.766C67.437 2.766 67.0297 2.844 66.657 3C66.2843 3.14733 65.9593 3.36833 65.682 3.663C65.4047 3.949 65.188 4.3 65.032 4.716C64.876 5.12333 64.798 5.587 64.798 6.107C64.798 6.54033 64.863 6.965 64.993 7.381C65.1317 7.78833 65.3353 8.15666 65.604 8.486C65.8813 8.80666 66.228 9.06666 66.644 9.266C67.0687 9.45666 67.567 9.552 68.139 9.552C68.6937 9.552 69.205 9.45666 69.673 9.266C70.141 9.06666 70.5483 8.785 70.895 8.421L70.479 8.005C70.297 8.161 70.1237 8.304 69.959 8.434C69.803 8.564 69.6427 8.67233 69.478 8.759C69.3133 8.84566 69.14 8.915 68.958 8.967C68.7847 9.01033 68.5897 9.032 68.373 9.032C68.1303 9.032 67.8703 8.99733 67.593 8.928C67.3243 8.85 67.073 8.71566 66.839 8.525C66.605 8.33433 66.41 8.07 66.254 7.732C66.098 7.394 66.02 6.96066 66.02 6.432H70.96ZM66.02 5.912C66.02 5.56533 66.0547 5.23166 66.124 4.911C66.202 4.58166 66.3147 4.29133 66.462 4.04C66.618 3.78866 66.813 3.58933 67.047 3.442C67.281 3.286 67.5583 3.208 67.879 3.208C68.4943 3.208 68.971 3.45066 69.309 3.936C69.6557 4.41266 69.829 5.07133 69.829 5.912H66.02ZM77.1978 12.646H78.3028V8.33H78.3548C78.4414 8.55533 78.5541 8.746 78.6928 8.902C78.8401 9.058 79.0048 9.18366 79.1868 9.279C79.3688 9.37433 79.5594 9.44366 79.7588 9.487C79.9668 9.53033 80.1748 9.552 80.3828 9.552C80.8161 9.552 81.2148 9.474 81.5788 9.318C81.9428 9.15333 82.2548 8.92366 82.5148 8.629C82.7834 8.33433 82.9914 7.979 83.1388 7.563C83.2861 7.13833 83.3598 6.67033 83.3598 6.159C83.3598 5.639 83.2861 5.171 83.1388 4.755C82.9914 4.339 82.7834 3.98366 82.5148 3.689C82.2548 3.38566 81.9428 3.156 81.5788 3C81.2148 2.83533 80.8161 2.753 80.3828 2.753C79.3514 2.753 78.6754 3.15166 78.3548 3.949H78.3028V2.896H77.1978V12.646ZM78.3028 5.496C78.3028 5.21 78.3461 4.94133 78.4328 4.69C78.5281 4.43 78.6581 4.209 78.8228 4.027C78.9874 3.83633 79.1781 3.689 79.3948 3.585C79.6201 3.47233 79.8584 3.416 80.1098 3.416C80.3784 3.416 80.6341 3.468 80.8768 3.572C81.1281 3.66733 81.3448 3.82333 81.5268 4.04C81.7088 4.25666 81.8518 4.53833 81.9558 4.885C82.0684 5.23166 82.1248 5.64766 82.1248 6.133C82.1248 6.627 82.0684 7.04733 81.9558 7.394C81.8518 7.74066 81.7044 8.02666 81.5138 8.252C81.3318 8.46866 81.1194 8.629 80.8768 8.733C80.6341 8.82833 80.3784 8.876 80.1098 8.876C79.8671 8.876 79.6374 8.82833 79.4208 8.733C79.2041 8.629 79.0134 8.48166 78.8488 8.291C78.6841 8.09166 78.5498 7.85333 78.4458 7.576C78.3504 7.29866 78.3028 6.98233 78.3028 6.627V5.496ZM85.0435 2.896V9.396H86.1485V5.47C86.1485 5.11466 86.1875 4.81566 86.2655 4.573C86.3521 4.32166 86.4605 4.118 86.5905 3.962C86.7205 3.806 86.8635 3.69333 87.0195 3.624C87.1755 3.55466 87.3271 3.52 87.4745 3.52C87.6738 3.52 87.8558 3.585 88.0205 3.715C88.1938 3.845 88.3195 3.96633 88.3975 4.079L88.8395 3.273C88.7615 3.169 88.6661 3.08233 88.5535 3.013C88.4495 2.94366 88.3411 2.89166 88.2285 2.857C88.1245 2.81366 88.0248 2.78766 87.9295 2.779C87.8428 2.76166 87.7778 2.753 87.7345 2.753C87.3705 2.753 87.0671 2.85266 86.8245 3.052C86.5818 3.25133 86.3825 3.546 86.2265 3.936H86.1485V2.896H85.0435ZM96.3513 6.159C96.3513 6.60966 96.2733 7.043 96.1173 7.459C95.9613 7.86633 95.736 8.226 95.4413 8.538C95.1553 8.85 94.8043 9.097 94.3883 9.279C93.981 9.461 93.5217 9.552 93.0103 9.552C92.4903 9.552 92.018 9.461 91.5933 9.279C91.1773 9.08833 90.822 8.837 90.5273 8.525C90.2413 8.213 90.016 7.85333 89.8513 7.446C89.6953 7.03 89.6173 6.601 89.6173 6.159C89.6173 5.70833 89.6953 5.27933 89.8513 4.872C90.016 4.456 90.2413 4.092 90.5273 3.78C90.822 3.468 91.1773 3.221 91.5933 3.039C92.018 2.84833 92.4903 2.753 93.0103 2.753C93.5217 2.753 93.981 2.84833 94.3883 3.039C94.8043 3.221 95.1553 3.468 95.4413 3.78C95.736 4.092 95.9613 4.456 96.1173 4.872C96.2733 5.27933 96.3513 5.70833 96.3513 6.159ZM95.1163 6.159C95.1163 5.55233 95.0513 5.06266 94.9213 4.69C94.7913 4.30866 94.6223 4.014 94.4143 3.806C94.2063 3.598 93.9767 3.45933 93.7253 3.39C93.474 3.312 93.2313 3.273 92.9973 3.273C92.7633 3.273 92.5207 3.312 92.2693 3.39C92.018 3.45933 91.784 3.598 91.5673 3.806C91.3593 4.014 91.186 4.30866 91.0473 4.69C90.9173 5.06266 90.8523 5.55233 90.8523 6.159C90.8523 6.757 90.9173 7.24666 91.0473 7.628C91.186 8.00066 91.3593 8.291 91.5673 8.499C91.784 8.707 92.018 8.85 92.2693 8.928C92.5207 8.99733 92.7633 9.032 92.9973 9.032C93.2313 9.032 93.474 8.99733 93.7253 8.928C93.9767 8.85 94.2063 8.707 94.4143 8.499C94.6223 8.291 94.7913 8.00066 94.9213 7.628C95.0513 7.24666 95.1163 6.757 95.1163 6.159ZM101.306 8.876C100.994 8.876 100.691 8.82833 100.396 8.733C100.11 8.63766 99.8548 8.486 99.6295 8.278C99.4041 8.06133 99.2221 7.77966 99.0835 7.433C98.9535 7.07766 98.8885 6.64433 98.8885 6.133C98.8885 5.60433 98.9621 5.158 99.1095 4.794C99.2568 4.42133 99.4388 4.12666 99.6555 3.91C99.8808 3.68466 100.128 3.52433 100.396 3.429C100.665 3.325 100.921 3.273 101.163 3.273C101.562 3.273 101.909 3.377 102.203 3.585C102.498 3.793 102.693 4.04866 102.788 4.352H103.685C103.599 4.04 103.46 3.78433 103.269 3.585C103.079 3.377 102.858 3.21233 102.606 3.091C102.364 2.961 102.099 2.87433 101.813 2.831C101.536 2.779 101.267 2.753 101.007 2.753C100.461 2.753 99.9805 2.844 99.5645 3.026C99.1485 3.19933 98.7975 3.43766 98.5115 3.741C98.2255 4.04433 98.0088 4.39966 97.8615 4.807C97.7228 5.21433 97.6535 5.64766 97.6535 6.107C97.6535 6.59233 97.7315 7.04733 97.8875 7.472C98.0435 7.888 98.2645 8.252 98.5505 8.564C98.8451 8.86733 99.1961 9.11 99.6035 9.292C100.011 9.46533 100.47 9.552 100.981 9.552C101.553 9.552 102.052 9.45666 102.476 9.266C102.91 9.07533 103.274 8.86733 103.568 8.642L103.191 8.148C102.888 8.39933 102.585 8.58566 102.281 8.707C101.987 8.81966 101.662 8.876 101.306 8.876ZM110.887 6.432V6.159C110.887 5.57833 110.804 5.07566 110.64 4.651C110.475 4.22633 110.25 3.87533 109.964 3.598C109.686 3.32066 109.361 3.11266 108.989 2.974C108.616 2.83533 108.222 2.766 107.806 2.766C107.364 2.766 106.956 2.844 106.584 3C106.211 3.14733 105.886 3.36833 105.609 3.663C105.331 3.949 105.115 4.3 104.959 4.716C104.803 5.12333 104.725 5.587 104.725 6.107C104.725 6.54033 104.79 6.965 104.92 7.381C105.058 7.78833 105.262 8.15666 105.531 8.486C105.808 8.80666 106.155 9.06666 106.571 9.266C106.995 9.45666 107.494 9.552 108.066 9.552C108.62 9.552 109.132 9.45666 109.6 9.266C110.068 9.06666 110.475 8.785 110.822 8.421L110.406 8.005C110.224 8.161 110.05 8.304 109.886 8.434C109.73 8.564 109.569 8.67233 109.405 8.759C109.24 8.84566 109.067 8.915 108.885 8.967C108.711 9.01033 108.516 9.032 108.3 9.032C108.057 9.032 107.797 8.99733 107.52 8.928C107.251 8.85 107 8.71566 106.766 8.525C106.532 8.33433 106.337 8.07 106.181 7.732C106.025 7.394 105.947 6.96066 105.947 6.432H110.887ZM105.947 5.912C105.947 5.56533 105.981 5.23166 106.051 4.911C106.129 4.58166 106.241 4.29133 106.389 4.04C106.545 3.78866 106.74 3.58933 106.974 3.442C107.208 3.286 107.485 3.208 107.806 3.208C108.421 3.208 108.898 3.45066 109.236 3.936C109.582 4.41266 109.756 5.07133 109.756 5.912H105.947ZM116.727 4.378C116.727 4.144 116.666 3.92733 116.545 3.728C116.423 3.52866 116.254 3.35966 116.038 3.221C115.83 3.07366 115.583 2.961 115.297 2.883C115.019 2.79633 114.72 2.753 114.4 2.753C114.096 2.753 113.81 2.792 113.542 2.87C113.282 2.948 113.052 3.065 112.853 3.221C112.662 3.377 112.51 3.572 112.398 3.806C112.285 4.03133 112.229 4.29566 112.229 4.599C112.229 5.015 112.324 5.34433 112.515 5.587C112.705 5.82966 112.944 6.02466 113.23 6.172C113.516 6.31933 113.823 6.44066 114.153 6.536C114.491 6.62266 114.803 6.72233 115.089 6.835C115.375 6.939 115.613 7.07333 115.804 7.238C115.994 7.40266 116.09 7.628 116.09 7.914C116.09 8.03533 116.068 8.161 116.025 8.291C115.99 8.421 115.921 8.54233 115.817 8.655C115.713 8.759 115.57 8.85 115.388 8.928C115.206 8.99733 114.976 9.032 114.699 9.032C114.352 9.032 114.057 8.98 113.815 8.876C113.581 8.76333 113.386 8.63333 113.23 8.486C113.082 8.33 112.974 8.174 112.905 8.018C112.844 7.862 112.814 7.732 112.814 7.628H111.969C111.969 7.87066 112.025 8.109 112.138 8.343C112.25 8.56833 112.419 8.772 112.645 8.954C112.879 9.136 113.16 9.28333 113.49 9.396C113.828 9.5 114.218 9.552 114.66 9.552C115.457 9.552 116.055 9.37866 116.454 9.032C116.861 8.67666 117.065 8.213 117.065 7.641C117.065 7.225 116.965 6.89133 116.766 6.64C116.575 6.38866 116.332 6.18933 116.038 6.042C115.743 5.886 115.422 5.76033 115.076 5.665C114.738 5.56966 114.421 5.47 114.127 5.366C113.832 5.262 113.585 5.13633 113.386 4.989C113.195 4.84166 113.1 4.63366 113.1 4.365C113.1 4.25233 113.121 4.13533 113.165 4.014C113.208 3.884 113.282 3.767 113.386 3.663C113.49 3.55033 113.628 3.45933 113.802 3.39C113.975 3.312 114.192 3.273 114.452 3.273C114.712 3.273 114.937 3.312 115.128 3.39C115.318 3.45933 115.479 3.55033 115.609 3.663C115.739 3.767 115.834 3.884 115.895 4.014C115.955 4.144 115.986 4.26533 115.986 4.378H116.727ZM122.973 4.378C122.973 4.144 122.912 3.92733 122.791 3.728C122.669 3.52866 122.5 3.35966 122.284 3.221C122.076 3.07366 121.829 2.961 121.543 2.883C121.265 2.79633 120.966 2.753 120.646 2.753C120.342 2.753 120.056 2.792 119.788 2.87C119.528 2.948 119.298 3.065 119.099 3.221C118.908 3.377 118.756 3.572 118.644 3.806C118.531 4.03133 118.475 4.29566 118.475 4.599C118.475 5.015 118.57 5.34433 118.761 5.587C118.951 5.82966 119.19 6.02466 119.476 6.172C119.762 6.31933 120.069 6.44066 120.399 6.536C120.737 6.62266 121.049 6.72233 121.335 6.835C121.621 6.939 121.859 7.07333 122.05 7.238C122.24 7.40266 122.336 7.628 122.336 7.914C122.336 8.03533 122.314 8.161 122.271 8.291C122.236 8.421 122.167 8.54233 122.063 8.655C121.959 8.759 121.816 8.85 121.634 8.928C121.452 8.99733 121.222 9.032 120.945 9.032C120.598 9.032 120.303 8.98 120.061 8.876C119.827 8.76333 119.632 8.63333 119.476 8.486C119.328 8.33 119.22 8.174 119.151 8.018C119.09 7.862 119.06 7.732 119.06 7.628H118.215C118.215 7.87066 118.271 8.109 118.384 8.343C118.496 8.56833 118.665 8.772 118.891 8.954C119.125 9.136 119.406 9.28333 119.736 9.396C120.074 9.5 120.464 9.552 120.906 9.552C121.703 9.552 122.301 9.37866 122.7 9.032C123.107 8.67666 123.311 8.213 123.311 7.641C123.311 7.225 123.211 6.89133 123.012 6.64C122.821 6.38866 122.578 6.18933 122.284 6.042C121.989 5.886 121.668 5.76033 121.322 5.665C120.984 5.56966 120.667 5.47 120.373 5.366C120.078 5.262 119.831 5.13633 119.632 4.989C119.441 4.84166 119.346 4.63366 119.346 4.365C119.346 4.25233 119.367 4.13533 119.411 4.014C119.454 3.884 119.528 3.767 119.632 3.663C119.736 3.55033 119.874 3.45933 120.048 3.39C120.221 3.312 120.438 3.273 120.698 3.273C120.958 3.273 121.183 3.312 121.374 3.39C121.564 3.45933 121.725 3.55033 121.855 3.663C121.985 3.767 122.08 3.884 122.141 4.014C122.201 4.144 122.232 4.26533 122.232 4.378H122.973ZM4.36858 22.896V23.416H5.49958V29.396H6.60458V23.416H8.17758V22.896H6.60458V21.804C6.60458 21.7 6.60891 21.5787 6.61758 21.44C6.62624 21.2927 6.65224 21.1583 6.69558 21.037C6.73891 20.907 6.80391 20.7987 6.89058 20.712C6.98591 20.6253 7.11591 20.582 7.28058 20.582C7.48858 20.582 7.65758 20.6687 7.78758 20.842C7.92624 21.0153 8.03891 21.193 8.12558 21.375L8.69758 20.764C8.48958 20.556 8.27291 20.4 8.04758 20.296C7.83091 20.192 7.58391 20.14 7.30658 20.14C7.08124 20.14 6.86024 20.179 6.64358 20.257C6.42691 20.335 6.23191 20.4563 6.05858 20.621C5.89391 20.777 5.75958 20.9807 5.65558 21.232C5.55158 21.4833 5.49958 21.778 5.49958 22.116V22.896H4.36858ZM9.74123 22.896V29.396H10.8462V25.47C10.8462 25.1147 10.8852 24.8157 10.9632 24.573C11.0499 24.3217 11.1582 24.118 11.2882 23.962C11.4182 23.806 11.5612 23.6933 11.7172 23.624C11.8732 23.5547 12.0249 23.52 12.1722 23.52C12.3716 23.52 12.5536 23.585 12.7182 23.715C12.8916 23.845 13.0172 23.9663 13.0952 24.079L13.5372 23.273C13.4592 23.169 13.3639 23.0823 13.2512 23.013C13.1472 22.9437 13.0389 22.8917 12.9262 22.857C12.8222 22.8137 12.7226 22.7877 12.6272 22.779C12.5406 22.7617 12.4756 22.753 12.4322 22.753C12.0682 22.753 11.7649 22.8527 11.5222 23.052C11.2796 23.2513 11.0802 23.546 10.9242 23.936H10.8462V22.896H9.74123ZM21.0491 26.159C21.0491 26.6097 20.9711 27.043 20.8151 27.459C20.6591 27.8663 20.4338 28.226 20.1391 28.538C19.8531 28.85 19.5021 29.097 19.0861 29.279C18.6788 29.461 18.2194 29.552 17.7081 29.552C17.1881 29.552 16.7158 29.461 16.2911 29.279C15.8751 29.0883 15.5198 28.837 15.2251 28.525C14.9391 28.213 14.7138 27.8533 14.5491 27.446C14.3931 27.03 14.3151 26.601 14.3151 26.159C14.3151 25.7083 14.3931 25.2793 14.5491 24.872C14.7138 24.456 14.9391 24.092 15.2251 23.78C15.5198 23.468 15.8751 23.221 16.2911 23.039C16.7158 22.8483 17.1881 22.753 17.7081 22.753C18.2194 22.753 18.6788 22.8483 19.0861 23.039C19.5021 23.221 19.8531 23.468 20.1391 23.78C20.4338 24.092 20.6591 24.456 20.8151 24.872C20.9711 25.2793 21.0491 25.7083 21.0491 26.159ZM19.8141 26.159C19.8141 25.5523 19.7491 25.0627 19.6191 24.69C19.4891 24.3087 19.3201 24.014 19.1121 23.806C18.9041 23.598 18.6744 23.4593 18.4231 23.39C18.1718 23.312 17.9291 23.273 17.6951 23.273C17.4611 23.273 17.2184 23.312 16.9671 23.39C16.7158 23.4593 16.4818 23.598 16.2651 23.806C16.0571 24.014 15.8838 24.3087 15.7451 24.69C15.6151 25.0627 15.5501 25.5523 15.5501 26.159C15.5501 26.757 15.6151 27.2467 15.7451 27.628C15.8838 28.0007 16.0571 28.291 16.2651 28.499C16.4818 28.707 16.7158 28.85 16.9671 28.928C17.2184 28.9973 17.4611 29.032 17.6951 29.032C17.9291 29.032 18.1718 28.9973 18.4231 28.928C18.6744 28.85 18.9041 28.707 19.1121 28.499C19.3201 28.291 19.4891 28.0007 19.6191 27.628C19.7491 27.2467 19.8141 26.757 19.8141 26.159ZM23.8462 29.396V25.691C23.8462 25.535 23.8592 25.3313 23.8852 25.08C23.9112 24.82 23.9762 24.5687 24.0802 24.326C24.1929 24.0747 24.3619 23.8623 24.5872 23.689C24.8126 23.507 25.1289 23.416 25.5362 23.416C25.8309 23.416 26.0562 23.481 26.2122 23.611C26.3769 23.741 26.4982 23.9013 26.5762 24.092C26.6542 24.2827 26.6976 24.482 26.7062 24.69C26.7236 24.898 26.7322 25.08 26.7322 25.236V29.396H27.8372V25.691C27.8372 25.5003 27.8546 25.275 27.8892 25.015C27.9239 24.7463 27.9976 24.495 28.1102 24.261C28.2229 24.027 28.3832 23.8277 28.5912 23.663C28.8079 23.4983 29.0982 23.416 29.4622 23.416C29.7309 23.416 29.9476 23.455 30.1122 23.533C30.2769 23.611 30.4026 23.728 30.4892 23.884C30.5846 24.04 30.6452 24.2307 30.6712 24.456C30.7059 24.6813 30.7232 24.9413 30.7232 25.236V29.396H31.8282V24.859C31.8282 24.6597 31.8066 24.4387 31.7632 24.196C31.7199 23.9447 31.6246 23.715 31.4772 23.507C31.3386 23.2903 31.1306 23.1127 30.8532 22.974C30.5846 22.8267 30.2249 22.753 29.7742 22.753C29.6442 22.753 29.4926 22.766 29.3192 22.792C29.1459 22.818 28.9639 22.8743 28.7732 22.961C28.5826 23.0477 28.3962 23.1733 28.2142 23.338C28.0409 23.5027 27.8892 23.7193 27.7592 23.988H27.6682C27.6162 23.8493 27.5426 23.7107 27.4472 23.572C27.3519 23.4247 27.2306 23.2903 27.0832 23.169C26.9359 23.0477 26.7582 22.948 26.5502 22.87C26.3509 22.792 26.1082 22.753 25.8222 22.753C25.6922 22.753 25.5362 22.7703 25.3542 22.805C25.1722 22.831 24.9902 22.8873 24.8082 22.974C24.6262 23.0607 24.4529 23.182 24.2882 23.338C24.1322 23.494 24.0022 23.6977 23.8982 23.949H23.8462V22.896H22.7412V29.396H23.8462ZM42.605 24.378C42.605 24.144 42.5444 23.9273 42.423 23.728C42.3017 23.5287 42.1327 23.3597 41.916 23.221C41.708 23.0737 41.461 22.961 41.175 22.883C40.8977 22.7963 40.5987 22.753 40.278 22.753C39.9747 22.753 39.6887 22.792 39.42 22.87C39.16 22.948 38.9304 23.065 38.731 23.221C38.5404 23.377 38.3887 23.572 38.276 23.806C38.1634 24.0313 38.107 24.2957 38.107 24.599C38.107 25.015 38.2024 25.3443 38.393 25.587C38.5837 25.8297 38.822 26.0247 39.108 26.172C39.394 26.3193 39.7017 26.4407 40.031 26.536C40.369 26.6227 40.681 26.7223 40.967 26.835C41.253 26.939 41.4914 27.0733 41.682 27.238C41.8727 27.4027 41.968 27.628 41.968 27.914C41.968 28.0353 41.9464 28.161 41.903 28.291C41.8684 28.421 41.799 28.5423 41.695 28.655C41.591 28.759 41.448 28.85 41.266 28.928C41.084 28.9973 40.8544 29.032 40.577 29.032C40.2304 29.032 39.9357 28.98 39.693 28.876C39.459 28.7633 39.264 28.6333 39.108 28.486C38.9607 28.33 38.8524 28.174 38.783 28.018C38.7224 27.862 38.692 27.732 38.692 27.628H37.847C37.847 27.8707 37.9034 28.109 38.016 28.343C38.1287 28.5683 38.2977 28.772 38.523 28.954C38.757 29.136 39.0387 29.2833 39.368 29.396C39.706 29.5 40.096 29.552 40.538 29.552C41.3354 29.552 41.9334 29.3787 42.332 29.032C42.7394 28.6767 42.943 28.213 42.943 27.641C42.943 27.225 42.8434 26.8913 42.644 26.64C42.4534 26.3887 42.2107 26.1893 41.916 26.042C41.6214 25.886 41.3007 25.7603 40.954 25.665C40.616 25.5697 40.2997 25.47 40.005 25.366C39.7104 25.262 39.4634 25.1363 39.264 24.989C39.0734 24.8417 38.978 24.6337 38.978 24.365C38.978 24.2523 38.9997 24.1353 39.043 24.014C39.0864 23.884 39.16 23.767 39.264 23.663C39.368 23.5503 39.5067 23.4593 39.68 23.39C39.8534 23.312 40.07 23.273 40.33 23.273C40.59 23.273 40.8154 23.312 41.006 23.39C41.1967 23.4593 41.357 23.5503 41.487 23.663C41.617 23.767 41.7124 23.884 41.773 24.014C41.8337 24.144 41.864 24.2653 41.864 24.378H42.605ZM44.0541 23.416V22.896H45.1851V20.894H46.2901V22.896H47.8631V23.416H46.2901V27.732C46.2901 27.836 46.2945 27.9573 46.3031 28.096C46.3118 28.226 46.3378 28.3517 46.3811 28.473C46.4245 28.5857 46.4895 28.681 46.5761 28.759C46.6715 28.837 46.8015 28.876 46.9661 28.876C47.1741 28.876 47.3475 28.798 47.4861 28.642C47.6248 28.486 47.7375 28.317 47.8241 28.135L48.4351 28.759C48.0105 29.1837 47.5295 29.396 46.9921 29.396C46.7668 29.396 46.5458 29.357 46.3291 29.279C46.1125 29.201 45.9175 29.084 45.7441 28.928C45.5795 28.7633 45.4451 28.5553 45.3411 28.304C45.2371 28.0527 45.1851 27.758 45.1851 27.42V23.416H44.0541ZM51.9711 22.753C52.6038 22.753 53.0935 22.844 53.4401 23.026C53.7868 23.1993 54.0381 23.429 54.1941 23.715C54.3588 24.001 54.4541 24.3303 54.4801 24.703C54.5061 25.0757 54.5191 25.457 54.5191 25.847V29.396H53.4661V28.759C53.2148 29.0017 52.8941 29.1967 52.5041 29.344C52.1141 29.4827 51.7241 29.552 51.3341 29.552C50.9615 29.552 50.6321 29.487 50.3461 29.357C50.0601 29.227 49.8218 29.058 49.6311 28.85C49.4405 28.642 49.2975 28.408 49.2021 28.148C49.1068 27.888 49.0591 27.6237 49.0591 27.355C49.0591 27.0777 49.1111 26.8003 49.2151 26.523C49.3191 26.2457 49.4751 25.9987 49.6831 25.782C49.8911 25.5567 50.1468 25.3747 50.4501 25.236C50.7535 25.0973 51.1001 25.028 51.4901 25.028C51.8801 25.028 52.2485 25.106 52.5951 25.262C52.9505 25.4093 53.2408 25.6217 53.4661 25.899V25.34C53.4661 24.6293 53.3578 24.1007 53.1411 23.754C52.9331 23.4073 52.5475 23.234 51.9841 23.234C51.7415 23.234 51.5291 23.2643 51.3471 23.325C51.1651 23.3857 51.0005 23.4723 50.8531 23.585C50.7145 23.689 50.5845 23.8233 50.4631 23.988C50.3418 24.144 50.2205 24.3217 50.0991 24.521L49.4231 23.845C49.5445 23.715 49.6701 23.585 49.8001 23.455C49.9388 23.325 50.1035 23.208 50.2941 23.104C50.4935 23 50.7275 22.9177 50.9961 22.857C51.2648 22.7877 51.5898 22.753 51.9711 22.753ZM53.4661 26.822C53.4228 26.718 53.3578 26.5967 53.2711 26.458C53.1931 26.3193 53.0891 26.185 52.9591 26.055C52.8291 25.925 52.6731 25.8167 52.4911 25.73C52.3091 25.6347 52.0925 25.587 51.8411 25.587C51.5898 25.587 51.3601 25.639 51.1521 25.743C50.9441 25.8383 50.7665 25.9683 50.6191 26.133C50.4805 26.289 50.3721 26.4753 50.2941 26.692C50.2161 26.9087 50.1771 27.134 50.1771 27.368C50.1771 27.6453 50.2248 27.888 50.3201 28.096C50.4241 28.2953 50.5541 28.4687 50.7101 28.616C50.8661 28.7547 51.0395 28.8587 51.2301 28.928C51.4208 28.9973 51.6028 29.032 51.7761 29.032C51.9408 29.032 52.1055 29.0017 52.2701 28.941C52.4435 28.8803 52.6038 28.798 52.7511 28.694C52.9071 28.5813 53.0458 28.4513 53.1671 28.304C53.2885 28.1567 53.3881 27.9963 53.4661 27.823V26.822ZM56.5996 22.896V29.396H57.7046V25.47C57.7046 25.1147 57.7436 24.8157 57.8216 24.573C57.9083 24.3217 58.0166 24.118 58.1466 23.962C58.2766 23.806 58.4196 23.6933 58.5756 23.624C58.7316 23.5547 58.8833 23.52 59.0306 23.52C59.23 23.52 59.412 23.585 59.5766 23.715C59.75 23.845 59.8756 23.9663 59.9536 24.079L60.3956 23.273C60.3176 23.169 60.2223 23.0823 60.1096 23.013C60.0056 22.9437 59.8973 22.8917 59.7846 22.857C59.6806 22.8137 59.581 22.7877 59.4856 22.779C59.399 22.7617 59.334 22.753 59.2906 22.753C58.9266 22.753 58.6233 22.8527 58.3806 23.052C58.138 23.2513 57.9386 23.546 57.7826 23.936H57.7046V22.896H56.5996ZM60.9135 23.416V22.896H62.0445V20.894H63.1495V22.896H64.7225V23.416H63.1495V27.732C63.1495 27.836 63.1538 27.9573 63.1625 28.096C63.1712 28.226 63.1972 28.3517 63.2405 28.473C63.2838 28.5857 63.3488 28.681 63.4355 28.759C63.5308 28.837 63.6608 28.876 63.8255 28.876C64.0335 28.876 64.2068 28.798 64.3455 28.642C64.4842 28.486 64.5968 28.317 64.6835 28.135L65.2945 28.759C64.8698 29.1837 64.3888 29.396 63.8515 29.396C63.6262 29.396 63.4052 29.357 63.1885 29.279C62.9718 29.201 62.7768 29.084 62.6035 28.928C62.4388 28.7633 62.3045 28.5553 62.2005 28.304C62.0965 28.0527 62.0445 27.758 62.0445 27.42V23.416H60.9135ZM70.3334 23.416V22.896H71.4644V20.894H72.5694V22.896H74.1424V23.416H72.5694V27.732C72.5694 27.836 72.5738 27.9573 72.5824 28.096C72.5911 28.226 72.6171 28.3517 72.6604 28.473C72.7038 28.5857 72.7688 28.681 72.8554 28.759C72.9508 28.837 73.0808 28.876 73.2454 28.876C73.4534 28.876 73.6268 28.798 73.7654 28.642C73.9041 28.486 74.0168 28.317 74.1034 28.135L74.7144 28.759C74.2898 29.1837 73.8088 29.396 73.2714 29.396C73.0461 29.396 72.8251 29.357 72.6084 29.279C72.3918 29.201 72.1968 29.084 72.0234 28.928C71.8588 28.7633 71.7244 28.5553 71.6204 28.304C71.5164 28.0527 71.4644 27.758 71.4644 27.42V23.416H70.3334ZM82.2024 26.159C82.2024 26.6097 82.1244 27.043 81.9684 27.459C81.8124 27.8663 81.5871 28.226 81.2924 28.538C81.0064 28.85 80.6554 29.097 80.2394 29.279C79.8321 29.461 79.3728 29.552 78.8614 29.552C78.3414 29.552 77.8691 29.461 77.4444 29.279C77.0284 29.0883 76.6731 28.837 76.3784 28.525C76.0924 28.213 75.8671 27.8533 75.7024 27.446C75.5464 27.03 75.4684 26.601 75.4684 26.159C75.4684 25.7083 75.5464 25.2793 75.7024 24.872C75.8671 24.456 76.0924 24.092 76.3784 23.78C76.6731 23.468 77.0284 23.221 77.4444 23.039C77.8691 22.8483 78.3414 22.753 78.8614 22.753C79.3728 22.753 79.8321 22.8483 80.2394 23.039C80.6554 23.221 81.0064 23.468 81.2924 23.78C81.5871 24.092 81.8124 24.456 81.9684 24.872C82.1244 25.2793 82.2024 25.7083 82.2024 26.159ZM80.9674 26.159C80.9674 25.5523 80.9024 25.0627 80.7724 24.69C80.6424 24.3087 80.4734 24.014 80.2654 23.806C80.0574 23.598 79.8278 23.4593 79.5764 23.39C79.3251 23.312 79.0824 23.273 78.8484 23.273C78.6144 23.273 78.3718 23.312 78.1204 23.39C77.8691 23.4593 77.6351 23.598 77.4184 23.806C77.2104 24.014 77.0371 24.3087 76.8984 24.69C76.7684 25.0627 76.7034 25.5523 76.7034 26.159C76.7034 26.757 76.7684 27.2467 76.8984 27.628C77.0371 28.0007 77.2104 28.291 77.4184 28.499C77.6351 28.707 77.8691 28.85 78.1204 28.928C78.3718 28.9973 78.6144 29.032 78.8484 29.032C79.0824 29.032 79.3251 28.9973 79.5764 28.928C79.8278 28.85 80.0574 28.707 80.2654 28.499C80.4734 28.291 80.6424 28.0007 80.7724 27.628C80.9024 27.2467 80.9674 26.757 80.9674 26.159ZM87.7895 22.896V23.416H88.9205V29.396H90.0255V23.416H91.5985V22.896H90.0255V21.804C90.0255 21.7 90.0298 21.5787 90.0385 21.44C90.0471 21.2927 90.0731 21.1583 90.1165 21.037C90.1598 20.907 90.2248 20.7987 90.3115 20.712C90.4068 20.6253 90.5368 20.582 90.7015 20.582C90.9095 20.582 91.0785 20.6687 91.2085 20.842C91.3471 21.0153 91.4598 21.193 91.5465 21.375L92.1185 20.764C91.9105 20.556 91.6938 20.4 91.4685 20.296C91.2518 20.192 91.0048 20.14 90.7275 20.14C90.5021 20.14 90.2811 20.179 90.0645 20.257C89.8478 20.335 89.6528 20.4563 89.4795 20.621C89.3148 20.777 89.1805 20.9807 89.0765 21.232C88.9725 21.4833 88.9205 21.778 88.9205 22.116V22.896H87.7895ZM93.5781 22.896V29.396H94.6831V22.896H93.5781ZM93.4221 20.842C93.4221 21.0327 93.4915 21.1973 93.6301 21.336C93.7688 21.4747 93.9335 21.544 94.1241 21.544C94.3148 21.544 94.4795 21.4747 94.6181 21.336C94.7568 21.1973 94.8261 21.0327 94.8261 20.842C94.8261 20.6513 94.7568 20.4867 94.6181 20.348C94.4795 20.2093 94.3148 20.14 94.1241 20.14C93.9335 20.14 93.7688 20.2093 93.6301 20.348C93.4915 20.4867 93.4221 20.6513 93.4221 20.842ZM102.595 29.396V25.184C102.595 25.028 102.582 24.8157 102.556 24.547C102.53 24.2697 102.443 24.001 102.296 23.741C102.157 23.4723 101.932 23.2427 101.62 23.052C101.308 22.8527 100.866 22.753 100.294 22.753C100.043 22.7443 99.7612 22.7963 99.4492 22.909C99.1372 23.013 98.8295 23.2167 98.5262 23.52L98.3182 23.728H98.2662V22.896H97.1612V29.396H98.2662V25.379C98.2662 25.041 98.3138 24.7507 98.4092 24.508C98.5045 24.2653 98.6345 24.0617 98.7992 23.897C98.9638 23.7323 99.1502 23.611 99.3582 23.533C99.5748 23.455 99.7958 23.416 100.021 23.416C100.385 23.416 100.667 23.4897 100.866 23.637C101.065 23.7757 101.208 23.9403 101.295 24.131C101.39 24.3217 101.447 24.5123 101.464 24.703C101.481 24.8937 101.49 25.0323 101.49 25.119V29.396H102.595ZM105.131 22.896V29.396H106.236V22.896H105.131ZM104.975 20.842C104.975 21.0327 105.044 21.1973 105.183 21.336C105.322 21.4747 105.486 21.544 105.677 21.544C105.868 21.544 106.032 21.4747 106.171 21.336C106.31 21.1973 106.379 21.0327 106.379 20.842C106.379 20.6513 106.31 20.4867 106.171 20.348C106.032 20.2093 105.868 20.14 105.677 20.14C105.486 20.14 105.322 20.2093 105.183 20.348C105.044 20.4867 104.975 20.6513 104.975 20.842ZM112.861 24.378C112.861 24.144 112.8 23.9273 112.679 23.728C112.558 23.5287 112.389 23.3597 112.172 23.221C111.964 23.0737 111.717 22.961 111.431 22.883C111.154 22.7963 110.855 22.753 110.534 22.753C110.231 22.753 109.945 22.792 109.676 22.87C109.416 22.948 109.186 23.065 108.987 23.221C108.796 23.377 108.645 23.572 108.532 23.806C108.419 24.0313 108.363 24.2957 108.363 24.599C108.363 25.015 108.458 25.3443 108.649 25.587C108.84 25.8297 109.078 26.0247 109.364 26.172C109.65 26.3193 109.958 26.4407 110.287 26.536C110.625 26.6227 110.937 26.7223 111.223 26.835C111.509 26.939 111.747 27.0733 111.938 27.238C112.129 27.4027 112.224 27.628 112.224 27.914C112.224 28.0353 112.202 28.161 112.159 28.291C112.124 28.421 112.055 28.5423 111.951 28.655C111.847 28.759 111.704 28.85 111.522 28.928C111.34 28.9973 111.11 29.032 110.833 29.032C110.486 29.032 110.192 28.98 109.949 28.876C109.715 28.7633 109.52 28.6333 109.364 28.486C109.217 28.33 109.108 28.174 109.039 28.018C108.978 27.862 108.948 27.732 108.948 27.628H108.103C108.103 27.8707 108.159 28.109 108.272 28.343C108.385 28.5683 108.554 28.772 108.779 28.954C109.013 29.136 109.295 29.2833 109.624 29.396C109.962 29.5 110.352 29.552 110.794 29.552C111.591 29.552 112.189 29.3787 112.588 29.032C112.995 28.6767 113.199 28.213 113.199 27.641C113.199 27.225 113.099 26.8913 112.9 26.64C112.709 26.3887 112.467 26.1893 112.172 26.042C111.877 25.886 111.557 25.7603 111.21 25.665C110.872 25.5697 110.556 25.47 110.261 25.366C109.966 25.262 109.719 25.1363 109.52 24.989C109.329 24.8417 109.234 24.6337 109.234 24.365C109.234 24.2523 109.256 24.1353 109.299 24.014C109.342 23.884 109.416 23.767 109.52 23.663C109.624 23.5503 109.763 23.4593 109.936 23.39C110.109 23.312 110.326 23.273 110.586 23.273C110.846 23.273 111.071 23.312 111.262 23.39C111.453 23.4593 111.613 23.5503 111.743 23.663C111.873 23.767 111.968 23.884 112.029 24.014C112.09 24.144 112.12 24.2653 112.12 24.378H112.861ZM114.96 20.296V29.396H116.065V25.639C116.065 25.4657 116.078 25.2533 116.104 25.002C116.13 24.7507 116.199 24.508 116.312 24.274C116.433 24.04 116.611 23.8407 116.845 23.676C117.079 23.5027 117.404 23.416 117.82 23.416C118.115 23.416 118.349 23.4723 118.522 23.585C118.704 23.689 118.843 23.832 118.938 24.014C119.033 24.196 119.094 24.4083 119.12 24.651C119.155 24.8937 119.172 25.145 119.172 25.405V29.396H120.277V25.106C120.277 24.6207 120.208 24.2263 120.069 23.923C119.93 23.611 119.757 23.3683 119.549 23.195C119.341 23.0217 119.111 22.9047 118.86 22.844C118.617 22.7833 118.383 22.753 118.158 22.753C117.855 22.753 117.534 22.8137 117.196 22.935C116.867 23.0477 116.555 23.2687 116.26 23.598L116.117 23.78H116.065V20.296H114.96ZM122.361 28.837C122.361 28.6463 122.431 28.4817 122.569 28.343C122.708 28.2043 122.873 28.135 123.063 28.135C123.254 28.135 123.419 28.2043 123.557 28.343C123.696 28.4817 123.765 28.6463 123.765 28.837C123.765 29.0277 123.696 29.1923 123.557 29.331C123.419 29.4697 123.254 29.539 123.063 29.539C122.873 29.539 122.708 29.4697 122.569 29.331C122.431 29.1923 122.361 29.0277 122.361 28.837Z" fill="#555555"/>
</svg>
