<svg width="143" height="25" viewBox="0 0 143 25" fill="none" xmlns="http://www.w3.org/2000/svg">
<path d="M23.3497 6.24357C22.5841 6.58357 21.7617 6.81237 20.8985 6.91557C21.7801 6.38757 22.4561 5.55157 22.7745 4.55477C21.9505 5.04357 21.0369 5.39877 20.0641 5.59077C19.2857 4.76117 18.1769 4.24277 16.9497 4.24277C14.5929 4.24277 12.6825 6.15397 12.6825 8.50997C12.6825 8.84437 12.7209 9.17077 12.7929 9.48197C9.24649 9.30437 6.10249 7.60517 3.99689 5.02277C3.63049 5.65317 3.42009 6.38597 3.42009 7.16917C3.42009 8.64917 4.17289 9.95557 5.31769 10.7204C4.61849 10.698 3.96009 10.506 3.38489 10.1868C3.38489 10.2052 3.38489 10.222 3.38489 10.2404C3.38489 12.3084 4.85529 14.0332 6.80809 14.4244C6.45049 14.522 6.07289 14.574 5.68329 14.574C5.40889 14.574 5.14089 14.5468 4.88089 14.498C5.42409 16.1932 7.00009 17.4276 8.86729 17.462C7.40729 18.6068 5.56729 19.2892 3.56729 19.2892C3.22329 19.2892 2.88329 19.2692 2.54889 19.2292C4.43769 20.4396 6.68009 21.146 9.09049 21.146C16.9401 21.146 21.2313 14.6436 21.2313 9.00437C21.2313 8.81957 21.2273 8.63557 21.2193 8.45237C22.0537 7.84997 22.7777 7.09877 23.3497 6.24357Z" fill="#555555"/>
<path d="M67.9482 3.09396C64.861 3.09396 62.3497 5.60752 62.3497 8.69552V16.6955C62.3497 19.7827 64.8633 22.294 67.9513 22.294H75.9513C79.0385 22.294 81.5497 19.7804 81.5497 16.6924V8.6924C81.5497 5.6052 79.0362 3.09396 75.9482 3.09396H67.9482ZM77.5497 6.29396C77.9913 6.29396 78.3497 6.65236 78.3497 7.09396C78.3497 7.53556 77.9913 7.89396 77.5497 7.89396C77.1081 7.89396 76.7497 7.53556 76.7497 7.09396C76.7497 6.65236 77.1081 6.29396 77.5497 6.29396ZM71.9497 7.89396C74.5969 7.89396 76.7497 10.0468 76.7497 12.694C76.7497 15.3412 74.5969 17.494 71.9497 17.494C69.3025 17.494 67.1497 15.3412 67.1497 12.694C67.1497 10.0468 69.3025 7.89396 71.9497 7.89396ZM71.9497 9.49396C71.101 9.49396 70.2871 9.8311 69.687 10.4312C69.0869 11.0313 68.7497 11.8453 68.7497 12.694C68.7497 13.5427 69.0869 14.3566 69.687 14.9567C70.2871 15.5568 71.101 15.894 71.9497 15.894C72.7984 15.894 73.6124 15.5568 74.2125 14.9567C74.8126 14.3566 75.1497 13.5427 75.1497 12.694C75.1497 11.8453 74.8126 11.0313 74.2125 10.4312C73.6124 9.8311 72.7984 9.49396 71.9497 9.49396Z" fill="#555555"/>
<path d="M130.95 3.89398C127.601 3.89398 123.254 4.73304 123.254 4.73304L123.243 4.74554C121.718 4.98947 120.55 6.30008 120.55 7.89398V12.694V12.6955V17.494V17.4955C120.551 18.2568 120.824 18.9925 121.319 19.5707C121.814 20.1489 122.499 20.5317 123.251 20.6502L123.254 20.6549C123.254 20.6549 127.601 21.4955 130.95 21.4955C134.298 21.4955 138.645 20.6549 138.645 20.6549L138.647 20.6534C139.399 20.535 140.085 20.152 140.581 19.5731C141.076 18.9942 141.349 18.2575 141.35 17.4955V17.494V12.6955V12.694V7.89398C141.349 7.13248 141.076 6.39634 140.581 5.81782C140.086 5.23931 139.4 4.85634 138.648 4.73773L138.645 4.73304C138.645 4.73304 134.298 3.89398 130.95 3.89398ZM128.55 9.01273L134.95 12.694L128.55 16.3752V9.01273Z" fill="#555555"/>
</svg>
