<svg width="95" height="11" viewBox="0 0 95 11" fill="none" xmlns="http://www.w3.org/2000/svg">
<path d="M0.518 7.522C0.536667 7.92333 0.639333 8.28733 0.826 8.614C1.022 8.94067 1.28333 9.22067 1.61 9.454C1.946 9.678 2.338 9.85533 2.786 9.986C3.234 10.1073 3.724 10.168 4.256 10.168C4.79733 10.168 5.28267 10.1027 5.712 9.972C6.15067 9.84133 6.524 9.65467 6.832 9.412C7.14 9.16933 7.378 8.87533 7.546 8.53C7.714 8.18467 7.798 7.802 7.798 7.382C7.798 6.80333 7.65333 6.332 7.364 5.968C7.07467 5.59467 6.71067 5.28667 6.272 5.044C5.84267 4.792 5.37133 4.582 4.858 4.414C4.354 4.246 3.88267 4.06867 3.444 3.882C3.01467 3.69533 2.65533 3.48067 2.366 3.238C2.07667 2.99533 1.932 2.67333 1.932 2.272C1.932 2.048 1.97867 1.838 2.072 1.642C2.17467 1.446 2.31933 1.278 2.506 1.138C2.702 0.988666 2.94 0.871999 3.22 0.787999C3.5 0.694666 3.822 0.647999 4.186 0.647999C4.79267 0.647999 5.306 0.778666 5.726 1.04C6.15533 1.292 6.40733 1.69333 6.482 2.244H7.434C7.378 1.89867 7.252 1.59067 7.056 1.32C6.86 1.04 6.61267 0.806666 6.314 0.62C6.01533 0.424 5.67467 0.279333 5.292 0.186C4.91867 0.0833331 4.52667 0.0319998 4.116 0.0319998C3.68667 0.0319998 3.276 0.0879997 2.884 0.199999C2.50133 0.312 2.16067 0.475333 1.862 0.69C1.57267 0.904666 1.33933 1.17533 1.162 1.502C0.994 1.82867 0.91 2.202 0.91 2.622C0.91 3.17267 1.05 3.616 1.33 3.952C1.61 4.288 1.96 4.568 2.38 4.792C2.80933 5.016 3.27133 5.20733 3.766 5.366C4.26067 5.52467 4.718 5.70667 5.138 5.912C5.56733 6.108 5.922 6.35067 6.202 6.64C6.482 6.92933 6.622 7.31667 6.622 7.802C6.622 8.40867 6.398 8.852 5.95 9.132C5.51133 9.412 4.92333 9.552 4.186 9.552C3.598 9.552 3.12667 9.47733 2.772 9.328C2.41733 9.16933 2.14667 8.98267 1.96 8.768C1.77333 8.55333 1.64733 8.334 1.582 8.11C1.51667 7.87667 1.47933 7.68067 1.47 7.522H0.518ZM11.87 0.199999V6.22C11.87 6.60267 11.9073 7.02733 11.982 7.494C12.0567 7.95133 12.234 8.38067 12.514 8.782C12.794 9.174 13.2093 9.50533 13.76 9.776C14.3107 10.0373 15.062 10.168 16.014 10.168C16.6113 10.168 17.1387 10.0747 17.596 9.888C18.0627 9.70133 18.45 9.44467 18.758 9.118C19.0753 8.79133 19.3133 8.41333 19.472 7.984C19.6307 7.54533 19.71 7.07867 19.71 6.584V0.199999H19.094V6.122C19.094 6.32733 19.0893 6.53733 19.08 6.752C19.0707 6.95733 19.0427 7.16733 18.996 7.382C18.9493 7.58733 18.8747 7.79267 18.772 7.998C18.6787 8.20333 18.5387 8.40867 18.352 8.614C18.016 8.978 17.638 9.22533 17.218 9.356C16.798 9.48667 16.3593 9.552 15.902 9.552C15.51 9.552 15.16 9.49133 14.852 9.37C14.5533 9.24867 14.2687 9.06667 13.998 8.824C13.7833 8.63733 13.62 8.45067 13.508 8.264C13.396 8.07733 13.312 7.89533 13.256 7.718C13.2 7.53133 13.1673 7.34467 13.158 7.158C13.1487 6.97133 13.144 6.78467 13.144 6.598V0.199999H11.87ZM24.5062 10H28.0202C28.6455 10 29.1728 9.92067 29.6022 9.762C30.0315 9.594 30.3768 9.37933 30.6382 9.118C30.8995 8.85667 31.0862 8.56267 31.1982 8.236C31.3195 7.9 31.3802 7.564 31.3802 7.228C31.3802 6.696 31.2635 6.27133 31.0302 5.954C30.8062 5.63667 30.5355 5.394 30.2182 5.226C29.9008 5.058 29.5742 4.946 29.2382 4.89C28.9022 4.834 28.6315 4.80133 28.4262 4.792V4.736C28.7528 4.736 29.0608 4.67533 29.3502 4.554C29.6395 4.42333 29.8915 4.26 30.1062 4.064C30.3302 3.85867 30.5075 3.62533 30.6382 3.364C30.7688 3.09333 30.8342 2.80867 30.8342 2.51C30.8342 2.24867 30.7782 1.98267 30.6662 1.712C30.5542 1.44133 30.3815 1.194 30.1482 0.969999C29.9242 0.746 29.6302 0.564 29.2662 0.424C28.9115 0.274666 28.4915 0.199999 28.0062 0.199999H24.5062V10ZM25.7802 9.384V5.1H27.3202C27.7775 5.1 28.1742 5.16067 28.5102 5.282C28.8462 5.40333 29.1215 5.56667 29.3362 5.772C29.5602 5.97733 29.7235 6.21533 29.8262 6.486C29.9382 6.75667 29.9942 7.04133 29.9942 7.34C29.9942 7.66667 29.9335 7.956 29.8122 8.208C29.7002 8.46 29.5462 8.67467 29.3502 8.852C29.1542 9.02933 28.9208 9.16467 28.6502 9.258C28.3888 9.342 28.1088 9.384 27.8102 9.384H25.7802ZM25.7802 4.484V0.816H27.4882C27.8522 0.816 28.1602 0.867333 28.4122 0.969999C28.6735 1.07267 28.8835 1.208 29.0422 1.376C29.2102 1.544 29.3315 1.73533 29.4062 1.95C29.4808 2.16467 29.5182 2.37933 29.5182 2.594C29.5182 2.86467 29.4622 3.11667 29.3502 3.35C29.2475 3.58333 29.0982 3.784 28.9022 3.952C28.7155 4.12 28.4962 4.25067 28.2442 4.344C28.0015 4.43733 27.7402 4.484 27.4602 4.484H25.7802ZM46.2826 10V0.969999H50.0346V0.199999H41.2566V0.969999H45.0086V10H46.2826ZM52.0301 5.1C52.0301 5.62267 52.1281 6.18267 52.3241 6.78C52.5294 7.368 52.8467 7.914 53.2761 8.418C53.7054 8.922 54.2514 9.342 54.9141 9.678C55.5767 10.0047 56.3701 10.168 57.2941 10.168C57.9194 10.168 58.4841 10.0933 58.9881 9.944C59.5014 9.78533 59.9587 9.57533 60.3601 9.314C60.7707 9.05267 61.1254 8.754 61.4241 8.418C61.7227 8.07267 61.9654 7.71333 62.1521 7.34C62.3481 6.95733 62.4927 6.57467 62.5861 6.192C62.6887 5.80933 62.7401 5.44533 62.7401 5.1C62.7401 4.57733 62.6327 4.022 62.4181 3.434C62.2034 2.83667 61.8721 2.286 61.4241 1.782C60.9761 1.278 60.4067 0.862666 59.7161 0.535999C59.0347 0.2 58.2274 0.0319998 57.2941 0.0319998C56.3701 0.0319998 55.5767 0.195333 54.9141 0.521999C54.2514 0.848666 53.7054 1.264 53.2761 1.768C52.8467 2.26267 52.5294 2.80867 52.3241 3.406C52.1281 4.00333 52.0301 4.568 52.0301 5.1ZM53.4021 5.1C53.4021 4.44667 53.5001 3.84933 53.6961 3.308C53.9014 2.75733 54.1767 2.286 54.5221 1.894C54.8767 1.502 55.2921 1.19867 55.7681 0.983999C56.2441 0.759999 56.7621 0.647999 57.3221 0.647999C57.8727 0.647999 58.3907 0.759999 58.8761 0.983999C59.3707 1.19867 59.8001 1.502 60.1641 1.894C60.5374 2.286 60.8314 2.75733 61.0461 3.308C61.2607 3.84933 61.3681 4.44667 61.3681 5.1C61.3681 5.75333 61.2607 6.35533 61.0461 6.906C60.8314 7.44733 60.5374 7.914 60.1641 8.306C59.8001 8.698 59.3707 9.006 58.8761 9.23C58.3907 9.44467 57.8727 9.552 57.3221 9.552C56.7621 9.552 56.2441 9.44467 55.7681 9.23C55.2921 9.006 54.8767 8.698 54.5221 8.306C54.1767 7.914 53.9014 7.44733 53.6961 6.906C53.5001 6.35533 53.4021 5.75333 53.4021 5.1ZM69.765 10V0.969999H73.517V0.199999H64.739V0.969999H68.491V10H69.765ZM81.2412 7.116L82.5852 10H83.9432L79.3792 0.199999H78.6792L74.5352 10H75.1792L76.4112 7.116H81.2412ZM80.9472 6.486H76.6772L78.6932 1.768H78.7492L80.9472 6.486ZM88.0491 10V0.199999H89.3231V9.23H94.3771V10H88.0491Z" fill="#333333"/>
</svg>
