<svg width="375" height="50" viewBox="0 0 375 50" fill="none" xmlns="http://www.w3.org/2000/svg">
<path d="M59.04 13.2512L63.396 21.0812V25.8512H65.034V20.9192L69.462 13.2512H68.49L64.638 19.8932H64.566L60.894 13.2512H59.04ZM74.8961 19.5512C74.8961 20.2232 75.0221 20.9432 75.2741 21.7112C75.5381 22.4672 75.9461 23.1692 76.4981 23.8172C77.0501 24.4652 77.7521 25.0052 78.6041 25.4372C79.4561 25.8572 80.4761 26.0672 81.6641 26.0672C82.4681 26.0672 83.1941 25.9712 83.8421 25.7792C84.5021 25.5752 85.0901 25.3052 85.6061 24.9692C86.1341 24.6332 86.5901 24.2492 86.9741 23.8172C87.3581 23.3732 87.6701 22.9112 87.9101 22.4312C88.1621 21.9392 88.3481 21.4472 88.4681 20.9552C88.6001 20.4632 88.6661 19.9952 88.6661 19.5512C88.6661 18.8792 88.5281 18.1652 88.2521 17.4092C87.9761 16.6412 87.5501 15.9332 86.9741 15.2852C86.3981 14.6372 85.6661 14.1032 84.7781 13.6832C83.9021 13.2512 82.8641 13.0352 81.6641 13.0352C80.4761 13.0352 79.4561 13.2452 78.6041 13.6652C77.7521 14.0852 77.0501 14.6192 76.4981 15.2672C75.9461 15.9032 75.5381 16.6052 75.2741 17.3732C75.0221 18.1412 74.8961 18.8672 74.8961 19.5512ZM76.6601 19.5512C76.6601 18.7112 76.7861 17.9432 77.0381 17.2472C77.3021 16.5392 77.6561 15.9332 78.1001 15.4292C78.5561 14.9252 79.0901 14.5352 79.7021 14.2592C80.3141 13.9712 80.9801 13.8272 81.7001 13.8272C82.4081 13.8272 83.0741 13.9712 83.6981 14.2592C84.3341 14.5352 84.8861 14.9252 85.3541 15.4292C85.8341 15.9332 86.2121 16.5392 86.4881 17.2472C86.7641 17.9432 86.9021 18.7112 86.9021 19.5512C86.9021 20.3912 86.7641 21.1652 86.4881 21.8732C86.2121 22.5692 85.8341 23.1692 85.3541 23.6732C84.8861 24.1772 84.3341 24.5732 83.6981 24.8612C83.0741 25.1372 82.4081 25.2752 81.7001 25.2752C80.9801 25.2752 80.3141 25.1372 79.7021 24.8612C79.0901 24.5732 78.5561 24.1772 78.1001 23.6732C77.6561 23.1692 77.3021 22.5692 77.0381 21.8732C76.7861 21.1652 76.6601 20.3912 76.6601 19.5512ZM95.0103 13.2512V20.9912C95.0103 21.4832 95.0583 22.0292 95.1543 22.6292C95.2503 23.2172 95.4783 23.7692 95.8383 24.2852C96.1983 24.7892 96.7323 25.2152 97.4403 25.5632C98.1483 25.8992 99.1143 26.0672 100.338 26.0672C101.106 26.0672 101.784 25.9472 102.372 25.7072C102.972 25.4672 103.47 25.1372 103.866 24.7172C104.274 24.2972 104.58 23.8112 104.784 23.2592C104.988 22.6952 105.09 22.0952 105.09 21.4592V13.2512H104.298V20.8652C104.298 21.1292 104.292 21.3992 104.28 21.6752C104.268 21.9392 104.232 22.2092 104.172 22.4852C104.112 22.7492 104.016 23.0132 103.884 23.2772C103.764 23.5412 103.584 23.8052 103.344 24.0692C102.912 24.5372 102.426 24.8552 101.886 25.0232C101.346 25.1912 100.782 25.2752 100.194 25.2752C99.6903 25.2752 99.2403 25.1972 98.8443 25.0412C98.4603 24.8852 98.0943 24.6512 97.7463 24.3392C97.4703 24.0992 97.2603 23.8592 97.1163 23.6192C96.9723 23.3792 96.8643 23.1452 96.7923 22.9172C96.7203 22.6772 96.6783 22.4372 96.6663 22.1972C96.6543 21.9572 96.6483 21.7172 96.6483 21.4772V13.2512H95.0103ZM124.202 13.2512H122.978V25.8512H123.77V15.5732H123.842L129.404 26.0672H129.728L135.416 15.6452H135.488V25.8512H137.126V13.2512H135.884L130.052 24.0692H129.98L124.202 13.2512ZM152.455 22.1432L154.183 25.8512H155.929L150.061 13.2512H149.161L143.833 25.8512H144.661L146.245 22.1432H152.455ZM152.077 21.3332H146.587L149.179 15.2672H149.251L152.077 21.3332ZM159.399 13.2512L163.755 21.0812V25.8512H165.393V20.9192L169.821 13.2512H168.849L164.997 19.8932H164.925L161.253 13.2512H159.399ZM193.81 22.1432L195.538 25.8512H197.284L191.416 13.2512H190.516L185.188 25.8512H186.016L187.6 22.1432H193.81ZM193.432 21.3332H187.942L190.534 15.2672H190.606L193.432 21.3332ZM203.992 25.8512V13.2512H205.63V24.8612H212.128V25.8512H203.992ZM217.326 22.6652C217.35 23.1812 217.482 23.6492 217.722 24.0692C217.974 24.4892 218.31 24.8492 218.73 25.1492C219.162 25.4372 219.666 25.6652 220.242 25.8332C220.818 25.9892 221.448 26.0672 222.132 26.0672C222.828 26.0672 223.452 25.9832 224.004 25.8152C224.568 25.6472 225.048 25.4072 225.444 25.0952C225.84 24.7832 226.146 24.4052 226.362 23.9612C226.578 23.5172 226.686 23.0252 226.686 22.4852C226.686 21.7412 226.5 21.1352 226.128 20.6672C225.756 20.1872 225.288 19.7912 224.724 19.4792C224.172 19.1552 223.566 18.8852 222.906 18.6692C222.258 18.4532 221.652 18.2252 221.088 17.9852C220.536 17.7452 220.074 17.4692 219.702 17.1572C219.33 16.8452 219.144 16.4312 219.144 15.9152C219.144 15.6272 219.204 15.3572 219.324 15.1052C219.456 14.8532 219.642 14.6372 219.882 14.4572C220.134 14.2652 220.44 14.1152 220.8 14.0072C221.16 13.8872 221.574 13.8272 222.042 13.8272C222.822 13.8272 223.482 13.9952 224.022 14.3312C224.574 14.6552 224.898 15.1712 224.994 15.8792H226.218C226.146 15.4352 225.984 15.0392 225.732 14.6912C225.48 14.3312 225.162 14.0312 224.778 13.7912C224.394 13.5392 223.956 13.3532 223.464 13.2332C222.984 13.1012 222.48 13.0352 221.952 13.0352C221.4 13.0352 220.872 13.1072 220.368 13.2512C219.876 13.3952 219.438 13.6052 219.054 13.8812C218.682 14.1572 218.382 14.5052 218.154 14.9252C217.938 15.3452 217.83 15.8252 217.83 16.3652C217.83 17.0732 218.01 17.6432 218.37 18.0752C218.73 18.5072 219.18 18.8672 219.72 19.1552C220.272 19.4432 220.866 19.6892 221.502 19.8932C222.138 20.0972 222.726 20.3312 223.266 20.5952C223.818 20.8472 224.274 21.1592 224.634 21.5312C224.994 21.9032 225.174 22.4012 225.174 23.0252C225.174 23.8052 224.886 24.3752 224.31 24.7352C223.746 25.0952 222.99 25.2752 222.042 25.2752C221.286 25.2752 220.68 25.1792 220.224 24.9872C219.768 24.7832 219.42 24.5432 219.18 24.2672C218.94 23.9912 218.778 23.7092 218.694 23.4212C218.61 23.1212 218.562 22.8692 218.55 22.6652H217.326ZM232.81 19.5512C232.81 20.2232 232.936 20.9432 233.188 21.7112C233.452 22.4672 233.86 23.1692 234.412 23.8172C234.964 24.4652 235.666 25.0052 236.518 25.4372C237.37 25.8572 238.39 26.0672 239.578 26.0672C240.382 26.0672 241.108 25.9712 241.756 25.7792C242.416 25.5752 243.004 25.3052 243.52 24.9692C244.048 24.6332 244.504 24.2492 244.888 23.8172C245.272 23.3732 245.584 22.9112 245.824 22.4312C246.076 21.9392 246.262 21.4472 246.382 20.9552C246.514 20.4632 246.58 19.9952 246.58 19.5512C246.58 18.8792 246.442 18.1652 246.166 17.4092C245.89 16.6412 245.464 15.9332 244.888 15.2852C244.312 14.6372 243.58 14.1032 242.692 13.6832C241.816 13.2512 240.778 13.0352 239.578 13.0352C238.39 13.0352 237.37 13.2452 236.518 13.6652C235.666 14.0852 234.964 14.6192 234.412 15.2672C233.86 15.9032 233.452 16.6052 233.188 17.3732C232.936 18.1412 232.81 18.8672 232.81 19.5512ZM234.574 19.5512C234.574 18.7112 234.7 17.9432 234.952 17.2472C235.216 16.5392 235.57 15.9332 236.014 15.4292C236.47 14.9252 237.004 14.5352 237.616 14.2592C238.228 13.9712 238.894 13.8272 239.614 13.8272C240.322 13.8272 240.988 13.9712 241.612 14.2592C242.248 14.5352 242.8 14.9252 243.268 15.4292C243.748 15.9332 244.126 16.5392 244.402 17.2472C244.678 17.9432 244.816 18.7112 244.816 19.5512C244.816 20.3912 244.678 21.1652 244.402 21.8732C244.126 22.5692 243.748 23.1692 243.268 23.6732C242.8 24.1772 242.248 24.5732 241.612 24.8612C240.988 25.1372 240.322 25.2752 239.614 25.2752C238.894 25.2752 238.228 25.1372 237.616 24.8612C237.004 24.5732 236.47 24.1772 236.014 23.6732C235.57 23.1692 235.216 22.5692 234.952 21.8732C234.7 21.1652 234.574 20.3912 234.574 19.5512ZM263.937 25.8512V13.2512H265.575V24.8612H272.073V25.8512H263.937ZM279.485 13.2512V25.8512H281.123V13.2512H279.485ZM290.166 25.8512H291.804V21.4232L293.838 19.2452L298.626 25.8512H300.498L294.882 18.1292L299.454 13.2512H298.554L291.804 20.3432V13.2512H290.166V25.8512ZM307.191 13.2512V25.8512H315.327V24.8612H308.829V19.5872H314.409V18.7592H308.829V14.2412H315.327V13.2512H307.191Z" fill="#FCFCFC"/>
<path d="M187.577 49.6005L192.127 45.0509H249.979V44.8441H192.127L187.577 40.3462L183.08 44.8441H125.021V45.0509H183.08L187.577 49.6005ZM187.577 40.6564L191.92 44.9475L187.577 49.2903L183.235 44.9475L187.577 40.6564Z" fill="#FCFCFC"/>
</svg>
