<svg width="375" height="140" viewBox="0 0 375 140" fill="none" xmlns="http://www.w3.org/2000/svg">
<path d="M125.33 22.352H123.782L123.404 23.468C123.212 23.18 123.008 22.958 122.792 22.802C122.588 22.634 122.384 22.514 122.18 22.442C121.988 22.358 121.802 22.304 121.622 22.28C121.454 22.256 121.31 22.244 121.19 22.244C120.482 22.244 119.822 22.382 119.21 22.658C118.598 22.934 118.064 23.312 117.608 23.792C117.152 24.272 116.792 24.83 116.528 25.466C116.276 26.09 116.15 26.756 116.15 27.464C116.15 28.1 116.24 28.646 116.42 29.102C116.612 29.546 116.858 29.912 117.158 30.2C117.47 30.488 117.818 30.698 118.202 30.83C118.598 30.962 119 31.028 119.408 31.028C119.828 31.028 120.224 30.95 120.596 30.794C120.98 30.626 121.394 30.368 121.838 30.02C122.006 30.284 122.186 30.494 122.378 30.65C122.582 30.806 122.786 30.926 122.99 31.01C123.194 31.094 123.386 31.148 123.566 31.172C123.758 31.196 123.926 31.208 124.07 31.208C124.706 31.208 125.294 31.07 125.834 30.794C126.386 30.506 126.866 30.116 127.274 29.624C127.682 29.12 128 28.538 128.228 27.878C128.456 27.206 128.57 26.492 128.57 25.736C128.57 25.232 128.534 24.728 128.462 24.224C128.39 23.72 128.264 23.228 128.084 22.748C127.868 22.196 127.55 21.644 127.13 21.092C126.71 20.54 126.2 20.042 125.6 19.598C125 19.154 124.31 18.8 123.53 18.536C122.75 18.26 121.892 18.122 120.956 18.122C120.368 18.122 119.78 18.164 119.192 18.248C118.616 18.32 118.058 18.458 117.518 18.662C116.69 18.986 115.946 19.424 115.286 19.976C114.638 20.528 114.08 21.158 113.612 21.866C113.156 22.562 112.808 23.324 112.568 24.152C112.328 24.968 112.208 25.796 112.208 26.636C112.208 27.68 112.4 28.718 112.784 29.75C113.168 30.77 113.714 31.688 114.422 32.504C115.142 33.332 116.012 33.998 117.032 34.502C118.064 35.006 119.228 35.258 120.524 35.258C120.86 35.258 121.226 35.24 121.622 35.204C122.03 35.168 122.462 35.084 122.918 34.952C123.374 34.82 123.854 34.628 124.358 34.376C124.862 34.136 125.396 33.806 125.96 33.386L125.546 32.864C125.414 32.984 125.21 33.14 124.934 33.332C124.658 33.536 124.304 33.728 123.872 33.908C123.452 34.1 122.96 34.262 122.396 34.394C121.832 34.526 121.19 34.592 120.47 34.592C119.294 34.592 118.232 34.358 117.284 33.89C116.348 33.434 115.55 32.828 114.89 32.072C114.242 31.328 113.738 30.482 113.378 29.534C113.03 28.586 112.856 27.626 112.856 26.654C112.856 25.718 112.994 24.854 113.27 24.062C113.558 23.258 113.93 22.55 114.386 21.938C114.854 21.314 115.376 20.78 115.952 20.336C116.54 19.892 117.14 19.55 117.752 19.31C118.208 19.13 118.676 18.998 119.156 18.914C119.648 18.83 120.14 18.788 120.632 18.788C121.736 18.788 122.738 18.968 123.638 19.328C124.538 19.676 125.3 20.162 125.924 20.786C126.56 21.41 127.046 22.148 127.382 23C127.73 23.84 127.904 24.752 127.904 25.736C127.904 26.456 127.784 27.11 127.544 27.698C127.304 28.286 127.004 28.796 126.644 29.228C126.284 29.648 125.888 29.972 125.456 30.2C125.036 30.428 124.634 30.542 124.25 30.542C124.178 30.542 124.088 30.53 123.98 30.506C123.884 30.47 123.788 30.41 123.692 30.326C123.596 30.242 123.512 30.122 123.44 29.966C123.38 29.81 123.35 29.606 123.35 29.354C123.35 29.222 123.374 29.036 123.422 28.796C123.482 28.544 123.578 28.202 123.71 27.77L125.33 22.352ZM121.694 29.174C121.598 29.306 121.478 29.444 121.334 29.588C121.202 29.72 121.046 29.846 120.866 29.966C120.686 30.074 120.488 30.164 120.272 30.236C120.056 30.308 119.822 30.344 119.57 30.344C119.018 30.344 118.61 30.14 118.346 29.732C118.082 29.324 117.95 28.796 117.95 28.148C117.95 27.404 118.046 26.708 118.238 26.06C118.43 25.412 118.676 24.854 118.976 24.386C119.276 23.906 119.612 23.534 119.984 23.27C120.368 22.994 120.752 22.856 121.136 22.856C121.592 22.856 121.988 23.024 122.324 23.36C122.66 23.684 122.876 24.116 122.972 24.656L121.694 29.174ZM140.477 32V20.39H145.301V19.4H134.015V20.39H138.839V32H140.477ZM151.821 19.4V32H153.459V26.438H154.251C154.587 26.438 154.863 26.468 155.079 26.528C155.307 26.588 155.511 26.69 155.691 26.834C155.871 26.978 156.039 27.164 156.195 27.392C156.351 27.62 156.537 27.902 156.753 28.238L158.175 30.344C158.355 30.62 158.529 30.872 158.697 31.1C158.877 31.328 159.069 31.526 159.273 31.694C159.477 31.85 159.705 31.976 159.957 32.072C160.221 32.168 160.533 32.216 160.893 32.216C161.157 32.216 161.373 32.204 161.541 32.18C161.709 32.156 161.877 32.096 162.045 32V31.334C161.985 31.346 161.925 31.358 161.865 31.37C161.805 31.37 161.745 31.37 161.685 31.37C161.433 31.37 161.211 31.334 161.019 31.262C160.827 31.19 160.647 31.088 160.479 30.956C160.311 30.812 160.149 30.644 159.993 30.452C159.837 30.248 159.675 30.02 159.507 29.768C159.003 29.036 158.613 28.454 158.337 28.022C158.061 27.578 157.839 27.236 157.671 26.996C157.515 26.756 157.383 26.582 157.275 26.474C157.179 26.366 157.059 26.276 156.915 26.204L156.735 26.114V26.042C157.311 26.006 157.803 25.88 158.211 25.664C158.631 25.448 158.973 25.178 159.237 24.854C159.501 24.53 159.693 24.182 159.813 23.81C159.933 23.426 159.993 23.054 159.993 22.694C159.993 22.37 159.927 22.016 159.795 21.632C159.675 21.248 159.459 20.894 159.147 20.57C158.847 20.234 158.433 19.958 157.905 19.742C157.377 19.514 156.711 19.4 155.907 19.4H151.821ZM153.459 20.192H155.277C155.733 20.192 156.141 20.258 156.501 20.39C156.873 20.522 157.191 20.708 157.455 20.948C157.719 21.176 157.917 21.452 158.049 21.776C158.193 22.1 158.265 22.454 158.265 22.838C158.265 23.162 158.199 23.492 158.067 23.828C157.947 24.152 157.761 24.452 157.509 24.728C157.257 24.992 156.945 25.208 156.573 25.376C156.213 25.544 155.793 25.628 155.313 25.628H153.459V20.192ZM168.741 19.4V32H176.877V31.01H170.379V25.736H175.959V24.908H170.379V20.39H176.877V19.4H168.741ZM193.721 19.4V29.03H193.649L183.659 19.184H183.569V32H184.397V22.37H184.469L194.459 32.216H194.549V19.4H193.721ZM203.042 32V19.4H207.182C208.178 19.4 209.09 19.562 209.918 19.886C210.746 20.198 211.454 20.636 212.042 21.2C212.642 21.752 213.104 22.412 213.428 23.18C213.764 23.948 213.932 24.776 213.932 25.664C213.932 26.588 213.758 27.44 213.41 28.22C213.074 28.988 212.606 29.654 212.006 30.218C211.418 30.782 210.728 31.22 209.936 31.532C209.144 31.844 208.298 32 207.398 32H203.042ZM204.68 31.208H206.66C207.644 31.208 208.478 31.046 209.162 30.722C209.858 30.386 210.428 29.954 210.872 29.426C211.316 28.898 211.64 28.31 211.844 27.662C212.048 27.002 212.15 26.348 212.15 25.7C212.15 24.98 212.03 24.29 211.79 23.63C211.55 22.958 211.196 22.37 210.728 21.866C210.272 21.35 209.702 20.942 209.018 20.642C208.334 20.342 207.548 20.192 206.66 20.192H204.68V31.208ZM221.346 19.4V32H222.984V19.4H221.346ZM242.178 19.4V29.03H242.106L232.116 19.184H232.026V32H232.854V22.37H232.926L242.916 32.216H243.006V19.4H242.178ZM262.785 26.384H259.221V27.122H261.237V30.38C260.697 30.728 260.145 30.986 259.581 31.154C259.017 31.322 258.375 31.406 257.655 31.406C256.707 31.406 255.879 31.262 255.171 30.974C254.463 30.686 253.875 30.29 253.407 29.786C252.939 29.27 252.585 28.664 252.345 27.968C252.117 27.26 252.003 26.486 252.003 25.646C252.003 24.818 252.111 24.056 252.327 23.36C252.555 22.664 252.891 22.064 253.335 21.56C253.779 21.056 254.319 20.666 254.955 20.39C255.603 20.114 256.353 19.976 257.205 19.976C257.769 19.976 258.297 20.036 258.789 20.156C259.281 20.276 259.719 20.432 260.103 20.624C260.487 20.816 260.799 21.038 261.039 21.29C261.291 21.53 261.453 21.776 261.525 22.028H262.821C262.713 21.764 262.527 21.47 262.263 21.146C262.011 20.81 261.663 20.498 261.219 20.21C260.775 19.922 260.223 19.682 259.563 19.49C258.915 19.286 258.147 19.184 257.259 19.184C256.239 19.184 255.297 19.328 254.433 19.616C253.581 19.904 252.843 20.318 252.219 20.858C251.595 21.398 251.109 22.064 250.761 22.856C250.413 23.636 250.239 24.524 250.239 25.52C250.239 26.372 250.371 27.2 250.635 28.004C250.911 28.796 251.325 29.51 251.877 30.146C252.441 30.77 253.155 31.274 254.019 31.658C254.883 32.03 255.915 32.216 257.115 32.216C258.015 32.216 258.813 32.12 259.509 31.928C260.205 31.724 260.781 31.502 261.237 31.262V32H262.785V26.384Z" fill="black"/>
<rect x="16" y="54" width="61" height="32" rx="16" fill="#F9F9F9"/>
<path d="M30.6372 68.546L31.2392 65.69H32.1212L31.5052 68.546H33.7312L34.3472 65.676H35.1872L34.5852 68.546H37.4132L37.2312 69.4H34.4032L33.9412 71.64H36.7692L36.5732 72.494H33.7592L33.1292 75.308H32.2892L32.8912 72.494H30.6652L30.0632 75.308H29.1952L29.7972 72.494H26.9692L27.1512 71.64H30.0072L30.4412 69.4H27.5852L27.7952 68.546H30.6372ZM30.8612 71.64H33.0872L33.5632 69.4H31.3092L30.8612 71.64ZM45.5921 75H39.1521L41.7981 72.046C42.0315 71.766 42.2788 71.4627 42.5401 71.136C42.8108 70.8093 43.0581 70.464 43.2821 70.1C43.5061 69.736 43.6928 69.358 43.8421 68.966C43.9915 68.574 44.0661 68.1727 44.0661 67.762C44.0661 67.118 43.8935 66.6047 43.5481 66.222C43.2121 65.8393 42.7781 65.648 42.2461 65.648C41.9288 65.648 41.6628 65.7087 41.4481 65.83C41.2428 65.9513 41.0701 66.1147 40.9301 66.32C40.7995 66.516 40.7015 66.7493 40.6361 67.02C40.5708 67.2813 40.5241 67.5567 40.4961 67.846H39.0961C39.0961 67.454 39.1755 67.0853 39.3341 66.74C39.4928 66.3947 39.7121 66.096 39.9921 65.844C40.2815 65.592 40.6175 65.396 41.0001 65.256C41.3828 65.1067 41.7981 65.032 42.2461 65.032C42.7501 65.032 43.2028 65.1067 43.6041 65.256C44.0055 65.396 44.3415 65.592 44.6121 65.844C44.8828 66.096 45.0881 66.39 45.2281 66.726C45.3775 67.0527 45.4521 67.398 45.4521 67.762C45.4521 68.2193 45.4055 68.6113 45.3121 68.938C45.2281 69.2647 45.0881 69.582 44.8921 69.89C44.7055 70.1887 44.4581 70.506 44.1501 70.842C43.8515 71.178 43.4875 71.5793 43.0581 72.046L41.2381 73.992H45.5921V75ZM46.9914 70.128C46.9914 69.8573 47.01 69.5447 47.0474 69.19C47.094 68.826 47.164 68.4573 47.2574 68.084C47.36 67.7013 47.4907 67.328 47.6494 66.964C47.8174 66.6 48.0227 66.278 48.2654 65.998C48.508 65.7087 48.7974 65.4753 49.1334 65.298C49.4694 65.1207 49.8614 65.032 50.3094 65.032C50.7574 65.032 51.1494 65.1207 51.4854 65.298C51.8307 65.4753 52.1247 65.7087 52.3674 65.998C52.6194 66.278 52.8294 66.6 52.9974 66.964C53.1654 67.328 53.296 67.7013 53.3894 68.084C53.492 68.4573 53.562 68.826 53.5994 69.19C53.646 69.5447 53.6694 69.8573 53.6694 70.128C53.6694 70.716 53.604 71.3087 53.4734 71.906C53.3427 72.494 53.1374 73.0307 52.8574 73.516C52.5867 74.0013 52.2367 74.398 51.8074 74.706C51.3874 75.0047 50.888 75.154 50.3094 75.154C49.7307 75.154 49.2314 75.0047 48.8114 74.706C48.4007 74.398 48.06 74.0013 47.7894 73.516C47.5187 73.0307 47.318 72.494 47.1874 71.906C47.0567 71.3087 46.9914 70.716 46.9914 70.128ZM48.3914 70.128C48.3914 70.604 48.41 71.1033 48.4474 71.626C48.4847 72.1487 48.5687 72.6247 48.6994 73.054C48.8394 73.4833 49.0354 73.838 49.2874 74.118C49.5394 74.398 49.88 74.538 50.3094 74.538C50.748 74.538 51.098 74.398 51.3594 74.118C51.6207 73.838 51.8167 73.4833 51.9474 73.054C52.0874 72.6247 52.176 72.1487 52.2134 71.626C52.2507 71.1033 52.2694 70.604 52.2694 70.128C52.2694 69.6427 52.2507 69.134 52.2134 68.602C52.176 68.07 52.0874 67.5893 51.9474 67.16C51.8167 66.7213 51.6207 66.362 51.3594 66.082C51.098 65.7927 50.748 65.648 50.3094 65.648C49.88 65.648 49.5394 65.7927 49.2874 66.082C49.0354 66.362 48.8394 66.7213 48.6994 67.16C48.5687 67.5893 48.4847 68.07 48.4474 68.602C48.41 69.134 48.3914 69.6427 48.3914 70.128ZM61.8409 75H55.4009L58.0469 72.046C58.2802 71.766 58.5275 71.4627 58.7889 71.136C59.0595 70.8093 59.3069 70.464 59.5309 70.1C59.7549 69.736 59.9415 69.358 60.0909 68.966C60.2402 68.574 60.3149 68.1727 60.3149 67.762C60.3149 67.118 60.1422 66.6047 59.7969 66.222C59.4609 65.8393 59.0269 65.648 58.4949 65.648C58.1775 65.648 57.9115 65.7087 57.6969 65.83C57.4915 65.9513 57.3189 66.1147 57.1789 66.32C57.0482 66.516 56.9502 66.7493 56.8849 67.02C56.8195 67.2813 56.7729 67.5567 56.7449 67.846H55.3449C55.3449 67.454 55.4242 67.0853 55.5829 66.74C55.7415 66.3947 55.9609 66.096 56.2409 65.844C56.5302 65.592 56.8662 65.396 57.2489 65.256C57.6315 65.1067 58.0469 65.032 58.4949 65.032C58.9989 65.032 59.4515 65.1067 59.8529 65.256C60.2542 65.396 60.5902 65.592 60.8609 65.844C61.1315 66.096 61.3369 66.39 61.4769 66.726C61.6262 67.0527 61.7009 67.398 61.7009 67.762C61.7009 68.2193 61.6542 68.6113 61.5609 68.938C61.4769 69.2647 61.3369 69.582 61.1409 69.89C60.9542 70.1887 60.7069 70.506 60.3989 70.842C60.1002 71.178 59.7362 71.5793 59.3069 72.046L57.4869 73.992H61.8409V75ZM65.4661 75H64.2761V66.516L63.1981 67.636L62.8201 67.244L64.7941 65.2H65.4661V75Z" fill="#333333"/>
<rect x="16" y="94" width="69" height="32" rx="16" fill="#F9F9F9"/>
<path d="M30.951 108.546L31.553 105.69H32.435L31.819 108.546H34.045L34.661 105.676H35.501L34.899 108.546H37.727L37.545 109.4H34.717L34.255 111.64H37.083L36.887 112.494H34.073L33.443 115.308H32.603L33.205 112.494H30.979L30.377 115.308H29.509L30.111 112.494H27.283L27.465 111.64H30.321L30.755 109.4H27.899L28.109 108.546H30.951ZM31.175 111.64H33.401L33.877 109.4H31.623L31.175 111.64ZM46.0459 105.2H44.8559V109.148H44.7999C44.7066 108.905 44.5806 108.705 44.4219 108.546C44.2726 108.378 44.0999 108.243 43.9039 108.14C43.7079 108.037 43.4979 107.963 43.2739 107.916C43.0593 107.869 42.8399 107.846 42.6159 107.846C42.1493 107.846 41.7199 107.935 41.3279 108.112C40.9359 108.28 40.5953 108.523 40.3059 108.84C40.0259 109.157 39.8066 109.54 39.6479 109.988C39.4893 110.436 39.4099 110.935 39.4099 111.486C39.4099 112.046 39.4893 112.555 39.6479 113.012C39.8066 113.46 40.0259 113.847 40.3059 114.174C40.5953 114.491 40.9359 114.739 41.3279 114.916C41.7199 115.084 42.1493 115.168 42.6159 115.168C43.7173 115.168 44.4453 114.734 44.7999 113.866H44.8559V115H46.0459V105.2ZM44.8559 112.2C44.8559 112.508 44.8046 112.802 44.7019 113.082C44.5993 113.353 44.4593 113.591 44.2819 113.796C44.1139 113.992 43.9086 114.151 43.6659 114.272C43.4326 114.384 43.1806 114.44 42.9099 114.44C42.6113 114.44 42.3313 114.389 42.0699 114.286C41.8086 114.174 41.5799 114.001 41.3839 113.768C41.1879 113.535 41.0293 113.231 40.9079 112.858C40.7959 112.485 40.7399 112.037 40.7399 111.514C40.7399 110.982 40.7959 110.529 40.9079 110.156C41.0293 109.783 41.1879 109.479 41.3839 109.246C41.5893 109.003 41.8226 108.831 42.0839 108.728C42.3453 108.616 42.6206 108.56 42.9099 108.56C43.1713 108.56 43.4186 108.616 43.6519 108.728C43.8853 108.831 44.0906 108.989 44.2679 109.204C44.4453 109.409 44.5853 109.661 44.6879 109.96C44.7999 110.259 44.8559 110.599 44.8559 110.982V112.2ZM48.4191 108V115H49.6091V110.772C49.6091 110.389 49.6511 110.067 49.7351 109.806C49.8285 109.535 49.9451 109.316 50.0851 109.148C50.2251 108.98 50.3791 108.859 50.5471 108.784C50.7151 108.709 50.8785 108.672 51.0371 108.672C51.2518 108.672 51.4478 108.742 51.6251 108.882C51.8118 109.022 51.9471 109.153 52.0311 109.274L52.5071 108.406C52.4231 108.294 52.3205 108.201 52.1991 108.126C52.0871 108.051 51.9705 107.995 51.8491 107.958C51.7371 107.911 51.6298 107.883 51.5271 107.874C51.4338 107.855 51.3638 107.846 51.3171 107.846C50.9251 107.846 50.5985 107.953 50.3371 108.168C50.0758 108.383 49.8611 108.7 49.6931 109.12H49.6091V108H48.4191ZM60.1208 111.808V111.514C60.1208 110.889 60.0322 110.347 59.8548 109.89C59.6775 109.433 59.4348 109.055 59.1268 108.756C58.8282 108.457 58.4782 108.233 58.0768 108.084C57.6755 107.935 57.2508 107.86 56.8028 107.86C56.3268 107.86 55.8882 107.944 55.4868 108.112C55.0855 108.271 54.7355 108.509 54.4368 108.826C54.1382 109.134 53.9048 109.512 53.7368 109.96C53.5688 110.399 53.4848 110.898 53.4848 111.458C53.4848 111.925 53.5548 112.382 53.6948 112.83C53.8442 113.269 54.0635 113.665 54.3528 114.02C54.6515 114.365 55.0248 114.645 55.4728 114.86C55.9302 115.065 56.4668 115.168 57.0828 115.168C57.6802 115.168 58.2308 115.065 58.7348 114.86C59.2388 114.645 59.6775 114.342 60.0508 113.95L59.6028 113.502C59.4068 113.67 59.2202 113.824 59.0428 113.964C58.8748 114.104 58.7022 114.221 58.5248 114.314C58.3475 114.407 58.1608 114.482 57.9648 114.538C57.7782 114.585 57.5682 114.608 57.3348 114.608C57.0735 114.608 56.7935 114.571 56.4948 114.496C56.2055 114.412 55.9348 114.267 55.6828 114.062C55.4308 113.857 55.2208 113.572 55.0528 113.208C54.8848 112.844 54.8008 112.377 54.8008 111.808H60.1208ZM54.8008 111.248C54.8008 110.875 54.8382 110.515 54.9128 110.17C54.9968 109.815 55.1182 109.503 55.2768 109.232C55.4448 108.961 55.6548 108.747 55.9068 108.588C56.1588 108.42 56.4575 108.336 56.8028 108.336C57.4655 108.336 57.9788 108.597 58.3428 109.12C58.7162 109.633 58.9028 110.343 58.9028 111.248H54.8008ZM66.5499 109.596C66.5499 109.344 66.4846 109.111 66.3539 108.896C66.2232 108.681 66.0412 108.499 65.8079 108.35C65.5839 108.191 65.3179 108.07 65.0099 107.986C64.7112 107.893 64.3892 107.846 64.0439 107.846C63.7172 107.846 63.4092 107.888 63.1199 107.972C62.8399 108.056 62.5926 108.182 62.3779 108.35C62.1726 108.518 62.0092 108.728 61.8879 108.98C61.7666 109.223 61.7059 109.507 61.7059 109.834C61.7059 110.282 61.8086 110.637 62.0139 110.898C62.2192 111.159 62.4759 111.369 62.7839 111.528C63.0919 111.687 63.4232 111.817 63.7779 111.92C64.1419 112.013 64.4779 112.121 64.7859 112.242C65.0939 112.354 65.3506 112.499 65.5559 112.676C65.7612 112.853 65.8639 113.096 65.8639 113.404C65.8639 113.535 65.8406 113.67 65.7939 113.81C65.7566 113.95 65.6819 114.081 65.5699 114.202C65.4579 114.314 65.3039 114.412 65.1079 114.496C64.9119 114.571 64.6646 114.608 64.3659 114.608C63.9926 114.608 63.6752 114.552 63.4139 114.44C63.1619 114.319 62.9519 114.179 62.7839 114.02C62.6252 113.852 62.5086 113.684 62.4339 113.516C62.3686 113.348 62.3359 113.208 62.3359 113.096H61.4259C61.4259 113.357 61.4866 113.614 61.6079 113.866C61.7292 114.109 61.9112 114.328 62.1539 114.524C62.4059 114.72 62.7092 114.879 63.0639 115C63.4279 115.112 63.8479 115.168 64.3239 115.168C65.1826 115.168 65.8266 114.981 66.2559 114.608C66.6946 114.225 66.9139 113.726 66.9139 113.11C66.9139 112.662 66.8066 112.303 66.5919 112.032C66.3866 111.761 66.1252 111.547 65.8079 111.388C65.4906 111.22 65.1452 111.085 64.7719 110.982C64.4079 110.879 64.0672 110.772 63.7499 110.66C63.4326 110.548 63.1666 110.413 62.9519 110.254C62.7466 110.095 62.6439 109.871 62.6439 109.582C62.6439 109.461 62.6672 109.335 62.7139 109.204C62.7606 109.064 62.8399 108.938 62.9519 108.826C63.0639 108.705 63.2132 108.607 63.3999 108.532C63.5866 108.448 63.8199 108.406 64.0999 108.406C64.3799 108.406 64.6226 108.448 64.8279 108.532C65.0332 108.607 65.2059 108.705 65.3459 108.826C65.4859 108.938 65.5886 109.064 65.6539 109.204C65.7192 109.344 65.7519 109.475 65.7519 109.596H66.5499ZM73.4165 109.596C73.4165 109.344 73.3511 109.111 73.2205 108.896C73.0898 108.681 72.9078 108.499 72.6745 108.35C72.4505 108.191 72.1845 108.07 71.8765 107.986C71.5778 107.893 71.2558 107.846 70.9105 107.846C70.5838 107.846 70.2758 107.888 69.9865 107.972C69.7065 108.056 69.4591 108.182 69.2445 108.35C69.0391 108.518 68.8758 108.728 68.7545 108.98C68.6331 109.223 68.5725 109.507 68.5725 109.834C68.5725 110.282 68.6751 110.637 68.8805 110.898C69.0858 111.159 69.3425 111.369 69.6505 111.528C69.9585 111.687 70.2898 111.817 70.6445 111.92C71.0085 112.013 71.3445 112.121 71.6525 112.242C71.9605 112.354 72.2171 112.499 72.4225 112.676C72.6278 112.853 72.7305 113.096 72.7305 113.404C72.7305 113.535 72.7071 113.67 72.6605 113.81C72.6231 113.95 72.5485 114.081 72.4365 114.202C72.3245 114.314 72.1705 114.412 71.9745 114.496C71.7785 114.571 71.5311 114.608 71.2325 114.608C70.8591 114.608 70.5418 114.552 70.2805 114.44C70.0285 114.319 69.8185 114.179 69.6505 114.02C69.4918 113.852 69.3751 113.684 69.3005 113.516C69.2351 113.348 69.2025 113.208 69.2025 113.096H68.2925C68.2925 113.357 68.3531 113.614 68.4745 113.866C68.5958 114.109 68.7778 114.328 69.0205 114.524C69.2725 114.72 69.5758 114.879 69.9305 115C70.2945 115.112 70.7145 115.168 71.1905 115.168C72.0491 115.168 72.6931 114.981 73.1225 114.608C73.5611 114.225 73.7805 113.726 73.7805 113.11C73.7805 112.662 73.6731 112.303 73.4585 112.032C73.2531 111.761 72.9918 111.547 72.6745 111.388C72.3571 111.22 72.0118 111.085 71.6385 110.982C71.2745 110.879 70.9338 110.772 70.6165 110.66C70.2991 110.548 70.0331 110.413 69.8185 110.254C69.6131 110.095 69.5105 109.871 69.5105 109.582C69.5105 109.461 69.5338 109.335 69.5805 109.204C69.6271 109.064 69.7065 108.938 69.8185 108.826C69.9305 108.705 70.0798 108.607 70.2665 108.532C70.4531 108.448 70.6865 108.406 70.9665 108.406C71.2465 108.406 71.4891 108.448 71.6945 108.532C71.8998 108.607 72.0725 108.705 72.2125 108.826C72.3525 108.938 72.4551 109.064 72.5205 109.204C72.5858 109.344 72.6185 109.475 72.6185 109.596H73.4165Z" fill="#333333"/>
<rect x="93" y="94" width="150" height="32" rx="16" fill="#F9F9F9"/>
<path d="M107.575 108.546L108.177 105.69H109.059L108.443 108.546H110.669L111.285 105.676H112.125L111.523 108.546H114.351L114.169 109.4H111.341L110.879 111.64H113.707L113.511 112.494H110.697L110.067 115.308H109.227L109.829 112.494H107.603L107.001 115.308H106.133L106.735 112.494H103.907L104.089 111.64H106.945L107.379 109.4H104.523L104.733 108.546H107.575ZM107.799 111.64H110.025L110.501 109.4H108.247L107.799 111.64ZM119.029 107.846C119.711 107.846 120.238 107.944 120.611 108.14C120.985 108.327 121.255 108.574 121.423 108.882C121.601 109.19 121.703 109.545 121.731 109.946C121.759 110.347 121.773 110.758 121.773 111.178V115H120.639V114.314C120.369 114.575 120.023 114.785 119.603 114.944C119.183 115.093 118.763 115.168 118.343 115.168C117.942 115.168 117.587 115.098 117.279 114.958C116.971 114.818 116.715 114.636 116.509 114.412C116.304 114.188 116.15 113.936 116.047 113.656C115.945 113.376 115.893 113.091 115.893 112.802C115.893 112.503 115.949 112.205 116.061 111.906C116.173 111.607 116.341 111.341 116.565 111.108C116.789 110.865 117.065 110.669 117.391 110.52C117.718 110.371 118.091 110.296 118.511 110.296C118.931 110.296 119.328 110.38 119.701 110.548C120.084 110.707 120.397 110.935 120.639 111.234V110.632C120.639 109.867 120.523 109.297 120.289 108.924C120.065 108.551 119.65 108.364 119.043 108.364C118.782 108.364 118.553 108.397 118.357 108.462C118.161 108.527 117.984 108.621 117.825 108.742C117.676 108.854 117.536 108.999 117.405 109.176C117.275 109.344 117.144 109.535 117.013 109.75L116.285 109.022C116.416 108.882 116.551 108.742 116.691 108.602C116.841 108.462 117.018 108.336 117.223 108.224C117.438 108.112 117.69 108.023 117.979 107.958C118.269 107.883 118.619 107.846 119.029 107.846ZM120.639 112.228C120.593 112.116 120.523 111.985 120.429 111.836C120.345 111.687 120.233 111.542 120.093 111.402C119.953 111.262 119.785 111.145 119.589 111.052C119.393 110.949 119.16 110.898 118.889 110.898C118.619 110.898 118.371 110.954 118.147 111.066C117.923 111.169 117.732 111.309 117.573 111.486C117.424 111.654 117.307 111.855 117.223 112.088C117.139 112.321 117.097 112.564 117.097 112.816C117.097 113.115 117.149 113.376 117.251 113.6C117.363 113.815 117.503 114.001 117.671 114.16C117.839 114.309 118.026 114.421 118.231 114.496C118.437 114.571 118.633 114.608 118.819 114.608C118.997 114.608 119.174 114.575 119.351 114.51C119.538 114.445 119.711 114.356 119.869 114.244C120.037 114.123 120.187 113.983 120.317 113.824C120.448 113.665 120.555 113.493 120.639 113.306V112.228ZM124.154 108V112.55C124.154 112.718 124.168 112.951 124.196 113.25C124.233 113.539 124.331 113.829 124.49 114.118C124.649 114.398 124.896 114.645 125.232 114.86C125.577 115.065 126.058 115.168 126.674 115.168C126.945 115.177 127.239 115.121 127.556 115C127.883 114.888 128.209 114.669 128.536 114.342L128.76 114.118H128.816V115H130.006V108H128.816V112.34C128.816 112.704 128.765 113.017 128.662 113.278C128.559 113.539 128.424 113.759 128.256 113.936C128.088 114.104 127.892 114.23 127.668 114.314C127.444 114.398 127.211 114.44 126.968 114.44C126.576 114.44 126.268 114.365 126.044 114.216C125.829 114.057 125.666 113.875 125.554 113.67C125.451 113.465 125.391 113.264 125.372 113.068C125.353 112.863 125.344 112.713 125.344 112.62V108H124.154ZM131.729 108.56V108H132.947V105.844H134.137V108H135.831V108.56H134.137V113.208C134.137 113.32 134.141 113.451 134.151 113.6C134.16 113.74 134.188 113.875 134.235 114.006C134.281 114.127 134.351 114.23 134.445 114.314C134.547 114.398 134.687 114.44 134.865 114.44C135.089 114.44 135.275 114.356 135.425 114.188C135.574 114.02 135.695 113.838 135.789 113.642L136.447 114.314C135.989 114.771 135.471 115 134.893 115C134.65 115 134.412 114.958 134.179 114.874C133.945 114.79 133.735 114.664 133.549 114.496C133.371 114.319 133.227 114.095 133.115 113.824C133.003 113.553 132.947 113.236 132.947 112.872V108.56H131.729ZM137.819 108V112.55C137.819 112.718 137.833 112.951 137.861 113.25C137.898 113.539 137.996 113.829 138.155 114.118C138.313 114.398 138.561 114.645 138.897 114.86C139.242 115.065 139.723 115.168 140.339 115.168C140.609 115.177 140.903 115.121 141.221 115C141.547 114.888 141.874 114.669 142.201 114.342L142.425 114.118H142.481V115H143.671V108H142.481V112.34C142.481 112.704 142.429 113.017 142.327 113.278C142.224 113.539 142.089 113.759 141.921 113.936C141.753 114.104 141.557 114.23 141.333 114.314C141.109 114.398 140.875 114.44 140.633 114.44C140.241 114.44 139.933 114.365 139.709 114.216C139.494 114.057 139.331 113.875 139.219 113.67C139.116 113.465 139.055 113.264 139.037 113.068C139.018 112.863 139.009 112.713 139.009 112.62V108H137.819ZM147.284 115V111.01C147.284 110.842 147.298 110.623 147.326 110.352C147.354 110.072 147.424 109.801 147.536 109.54C147.657 109.269 147.839 109.041 148.082 108.854C148.324 108.658 148.665 108.56 149.104 108.56C149.421 108.56 149.664 108.63 149.832 108.77C150.009 108.91 150.14 109.083 150.224 109.288C150.308 109.493 150.354 109.708 150.364 109.932C150.382 110.156 150.392 110.352 150.392 110.52V115H151.582V111.01C151.582 110.805 151.6 110.562 151.638 110.282C151.675 109.993 151.754 109.722 151.876 109.47C151.997 109.218 152.17 109.003 152.394 108.826C152.627 108.649 152.94 108.56 153.332 108.56C153.621 108.56 153.854 108.602 154.032 108.686C154.209 108.77 154.344 108.896 154.438 109.064C154.54 109.232 154.606 109.437 154.634 109.68C154.671 109.923 154.69 110.203 154.69 110.52V115H155.88V110.114C155.88 109.899 155.856 109.661 155.81 109.4C155.763 109.129 155.66 108.882 155.502 108.658C155.352 108.425 155.128 108.233 154.83 108.084C154.54 107.925 154.153 107.846 153.668 107.846C153.528 107.846 153.364 107.86 153.178 107.888C152.991 107.916 152.795 107.977 152.59 108.07C152.384 108.163 152.184 108.299 151.988 108.476C151.801 108.653 151.638 108.887 151.498 109.176H151.4C151.344 109.027 151.264 108.877 151.162 108.728C151.059 108.569 150.928 108.425 150.77 108.294C150.611 108.163 150.42 108.056 150.196 107.972C149.981 107.888 149.72 107.846 149.412 107.846C149.272 107.846 149.104 107.865 148.908 107.902C148.712 107.93 148.516 107.991 148.32 108.084C148.124 108.177 147.937 108.308 147.76 108.476C147.592 108.644 147.452 108.863 147.34 109.134H147.284V108H146.094V115H147.284ZM164.117 115V110.464C164.117 110.296 164.103 110.067 164.075 109.778C164.047 109.479 163.953 109.19 163.795 108.91C163.645 108.621 163.403 108.373 163.067 108.168C162.731 107.953 162.255 107.846 161.639 107.846C161.368 107.837 161.065 107.893 160.729 108.014C160.393 108.126 160.061 108.345 159.735 108.672L159.511 108.896H159.455V108H158.265V115H159.455V110.674C159.455 110.31 159.506 109.997 159.609 109.736C159.711 109.475 159.851 109.255 160.029 109.078C160.206 108.901 160.407 108.77 160.631 108.686C160.864 108.602 161.102 108.56 161.345 108.56C161.737 108.56 162.04 108.639 162.255 108.798C162.469 108.947 162.623 109.125 162.717 109.33C162.819 109.535 162.88 109.741 162.899 109.946C162.917 110.151 162.927 110.301 162.927 110.394V115H164.117ZM170.054 114.44C169.718 114.44 169.391 114.389 169.074 114.286C168.766 114.183 168.49 114.02 168.248 113.796C168.005 113.563 167.809 113.259 167.66 112.886C167.52 112.503 167.45 112.037 167.45 111.486C167.45 110.917 167.529 110.436 167.688 110.044C167.846 109.643 168.042 109.325 168.276 109.092C168.518 108.849 168.784 108.677 169.074 108.574C169.363 108.462 169.638 108.406 169.9 108.406C170.329 108.406 170.702 108.518 171.02 108.742C171.337 108.966 171.547 109.241 171.65 109.568H172.616C172.522 109.232 172.373 108.957 172.168 108.742C171.962 108.518 171.724 108.341 171.454 108.21C171.192 108.07 170.908 107.977 170.6 107.93C170.301 107.874 170.012 107.846 169.732 107.846C169.144 107.846 168.626 107.944 168.178 108.14C167.73 108.327 167.352 108.583 167.044 108.91C166.736 109.237 166.502 109.619 166.344 110.058C166.194 110.497 166.12 110.963 166.12 111.458C166.12 111.981 166.204 112.471 166.372 112.928C166.54 113.376 166.778 113.768 167.086 114.104C167.403 114.431 167.781 114.692 168.22 114.888C168.658 115.075 169.153 115.168 169.704 115.168C170.32 115.168 170.856 115.065 171.314 114.86C171.78 114.655 172.172 114.431 172.49 114.188L172.084 113.656C171.757 113.927 171.43 114.127 171.104 114.258C170.786 114.379 170.436 114.44 170.054 114.44ZM181.127 111.514C181.127 111.999 181.043 112.466 180.875 112.914C180.707 113.353 180.464 113.74 180.147 114.076C179.839 114.412 179.461 114.678 179.013 114.874C178.574 115.07 178.079 115.168 177.529 115.168C176.969 115.168 176.46 115.07 176.003 114.874C175.555 114.669 175.172 114.398 174.855 114.062C174.547 113.726 174.304 113.339 174.127 112.9C173.959 112.452 173.875 111.99 173.875 111.514C173.875 111.029 173.959 110.567 174.127 110.128C174.304 109.68 174.547 109.288 174.855 108.952C175.172 108.616 175.555 108.35 176.003 108.154C176.46 107.949 176.969 107.846 177.529 107.846C178.079 107.846 178.574 107.949 179.013 108.154C179.461 108.35 179.839 108.616 180.147 108.952C180.464 109.288 180.707 109.68 180.875 110.128C181.043 110.567 181.127 111.029 181.127 111.514ZM179.797 111.514C179.797 110.861 179.727 110.333 179.587 109.932C179.447 109.521 179.265 109.204 179.041 108.98C178.817 108.756 178.569 108.607 178.299 108.532C178.028 108.448 177.767 108.406 177.515 108.406C177.263 108.406 177.001 108.448 176.731 108.532C176.46 108.607 176.208 108.756 175.975 108.98C175.751 109.204 175.564 109.521 175.415 109.932C175.275 110.333 175.205 110.861 175.205 111.514C175.205 112.158 175.275 112.685 175.415 113.096C175.564 113.497 175.751 113.81 175.975 114.034C176.208 114.258 176.46 114.412 176.731 114.496C177.001 114.571 177.263 114.608 177.515 114.608C177.767 114.608 178.028 114.571 178.299 114.496C178.569 114.412 178.817 114.258 179.041 114.034C179.265 113.81 179.447 113.497 179.587 113.096C179.727 112.685 179.797 112.158 179.797 111.514ZM184.559 105.2H183.369V115H184.559V105.2ZM188.691 105.2H187.501V115H188.691V105.2ZM197.569 111.808V111.514C197.569 110.889 197.481 110.347 197.303 109.89C197.126 109.433 196.883 109.055 196.575 108.756C196.277 108.457 195.927 108.233 195.525 108.084C195.124 107.935 194.699 107.86 194.251 107.86C193.775 107.86 193.337 107.944 192.935 108.112C192.534 108.271 192.184 108.509 191.885 108.826C191.587 109.134 191.353 109.512 191.185 109.96C191.017 110.399 190.933 110.898 190.933 111.458C190.933 111.925 191.003 112.382 191.143 112.83C191.293 113.269 191.512 113.665 191.801 114.02C192.1 114.365 192.473 114.645 192.921 114.86C193.379 115.065 193.915 115.168 194.531 115.168C195.129 115.168 195.679 115.065 196.183 114.86C196.687 114.645 197.126 114.342 197.499 113.95L197.051 113.502C196.855 113.67 196.669 113.824 196.491 113.964C196.323 114.104 196.151 114.221 195.973 114.314C195.796 114.407 195.609 114.482 195.413 114.538C195.227 114.585 195.017 114.608 194.783 114.608C194.522 114.608 194.242 114.571 193.943 114.496C193.654 114.412 193.383 114.267 193.131 114.062C192.879 113.857 192.669 113.572 192.501 113.208C192.333 112.844 192.249 112.377 192.249 111.808H197.569ZM192.249 111.248C192.249 110.875 192.287 110.515 192.361 110.17C192.445 109.815 192.567 109.503 192.725 109.232C192.893 108.961 193.103 108.747 193.355 108.588C193.607 108.42 193.906 108.336 194.251 108.336C194.914 108.336 195.427 108.597 195.791 109.12C196.165 109.633 196.351 110.343 196.351 111.248H192.249ZM203.047 114.44C202.711 114.44 202.384 114.389 202.067 114.286C201.759 114.183 201.483 114.02 201.241 113.796C200.998 113.563 200.802 113.259 200.653 112.886C200.513 112.503 200.443 112.037 200.443 111.486C200.443 110.917 200.522 110.436 200.681 110.044C200.839 109.643 201.035 109.325 201.269 109.092C201.511 108.849 201.777 108.677 202.067 108.574C202.356 108.462 202.631 108.406 202.893 108.406C203.322 108.406 203.695 108.518 204.013 108.742C204.33 108.966 204.54 109.241 204.643 109.568H205.609C205.515 109.232 205.366 108.957 205.161 108.742C204.955 108.518 204.717 108.341 204.447 108.21C204.185 108.07 203.901 107.977 203.593 107.93C203.294 107.874 203.005 107.846 202.725 107.846C202.137 107.846 201.619 107.944 201.171 108.14C200.723 108.327 200.345 108.583 200.037 108.91C199.729 109.237 199.495 109.619 199.337 110.058C199.187 110.497 199.113 110.963 199.113 111.458C199.113 111.981 199.197 112.471 199.365 112.928C199.533 113.376 199.771 113.768 200.079 114.104C200.396 114.431 200.774 114.692 201.213 114.888C201.651 115.075 202.146 115.168 202.697 115.168C203.313 115.168 203.849 115.065 204.307 114.86C204.773 114.655 205.165 114.431 205.483 114.188L205.077 113.656C204.75 113.927 204.423 114.127 204.097 114.258C203.779 114.379 203.429 114.44 203.047 114.44ZM206.588 108.56V108H207.806V105.844H208.996V108H210.69V108.56H208.996V113.208C208.996 113.32 209 113.451 209.01 113.6C209.019 113.74 209.047 113.875 209.094 114.006C209.14 114.127 209.21 114.23 209.304 114.314C209.406 114.398 209.546 114.44 209.724 114.44C209.948 114.44 210.134 114.356 210.284 114.188C210.433 114.02 210.554 113.838 210.648 113.642L211.306 114.314C210.848 114.771 210.33 115 209.752 115C209.509 115 209.271 114.958 209.038 114.874C208.804 114.79 208.594 114.664 208.408 114.496C208.23 114.319 208.086 114.095 207.974 113.824C207.862 113.553 207.806 113.236 207.806 112.872V108.56H206.588ZM213.126 108V115H214.316V108H213.126ZM212.958 105.788C212.958 105.993 213.032 106.171 213.182 106.32C213.331 106.469 213.508 106.544 213.714 106.544C213.919 106.544 214.096 106.469 214.246 106.32C214.395 106.171 214.47 105.993 214.47 105.788C214.47 105.583 214.395 105.405 214.246 105.256C214.096 105.107 213.919 105.032 213.714 105.032C213.508 105.032 213.331 105.107 213.182 105.256C213.032 105.405 212.958 105.583 212.958 105.788ZM223.956 111.514C223.956 111.999 223.872 112.466 223.704 112.914C223.536 113.353 223.294 113.74 222.976 114.076C222.668 114.412 222.29 114.678 221.842 114.874C221.404 115.07 220.909 115.168 220.358 115.168C219.798 115.168 219.29 115.07 218.832 114.874C218.384 114.669 218.002 114.398 217.684 114.062C217.376 113.726 217.134 113.339 216.956 112.9C216.788 112.452 216.704 111.99 216.704 111.514C216.704 111.029 216.788 110.567 216.956 110.128C217.134 109.68 217.376 109.288 217.684 108.952C218.002 108.616 218.384 108.35 218.832 108.154C219.29 107.949 219.798 107.846 220.358 107.846C220.909 107.846 221.404 107.949 221.842 108.154C222.29 108.35 222.668 108.616 222.976 108.952C223.294 109.288 223.536 109.68 223.704 110.128C223.872 110.567 223.956 111.029 223.956 111.514ZM222.626 111.514C222.626 110.861 222.556 110.333 222.416 109.932C222.276 109.521 222.094 109.204 221.87 108.98C221.646 108.756 221.399 108.607 221.128 108.532C220.858 108.448 220.596 108.406 220.344 108.406C220.092 108.406 219.831 108.448 219.56 108.532C219.29 108.607 219.038 108.756 218.804 108.98C218.58 109.204 218.394 109.521 218.244 109.932C218.104 110.333 218.034 110.861 218.034 111.514C218.034 112.158 218.104 112.685 218.244 113.096C218.394 113.497 218.58 113.81 218.804 114.034C219.038 114.258 219.29 114.412 219.56 114.496C219.831 114.571 220.092 114.608 220.344 114.608C220.596 114.608 220.858 114.571 221.128 114.496C221.399 114.412 221.646 114.258 221.87 114.034C222.094 113.81 222.276 113.497 222.416 113.096C222.556 112.685 222.626 112.158 222.626 111.514ZM231.771 115V110.464C231.771 110.296 231.757 110.067 231.729 109.778C231.701 109.479 231.607 109.19 231.449 108.91C231.299 108.621 231.057 108.373 230.721 108.168C230.385 107.953 229.909 107.846 229.293 107.846C229.022 107.837 228.719 107.893 228.383 108.014C228.047 108.126 227.715 108.345 227.389 108.672L227.165 108.896H227.109V108H225.919V115H227.109V110.674C227.109 110.31 227.16 109.997 227.263 109.736C227.365 109.475 227.505 109.255 227.683 109.078C227.86 108.901 228.061 108.77 228.285 108.686C228.518 108.602 228.756 108.56 228.999 108.56C229.391 108.56 229.694 108.639 229.909 108.798C230.123 108.947 230.277 109.125 230.371 109.33C230.473 109.535 230.534 109.741 230.553 109.946C230.571 110.151 230.581 110.301 230.581 110.394V115H231.771Z" fill="#333333"/>
<rect x="85" y="54" width="75" height="32" rx="16" fill="#F9F9F9"/>
<path d="M99.8321 68.546L100.434 65.69H101.316L100.7 68.546H102.926L103.542 65.676H104.382L103.78 68.546H106.608L106.426 69.4H103.598L103.136 71.64H105.964L105.768 72.494H102.954L102.324 75.308H101.484L102.086 72.494H99.8601L99.2581 75.308H98.3901L98.9921 72.494H96.1641L96.3461 71.64H99.2021L99.6361 69.4H96.7801L96.9901 68.546H99.8321ZM100.056 71.64H102.282L102.758 69.4H100.504L100.056 71.64ZM113.177 69.596C113.177 69.344 113.112 69.1107 112.981 68.896C112.85 68.6813 112.668 68.4993 112.435 68.35C112.211 68.1913 111.945 68.07 111.637 67.986C111.338 67.8927 111.016 67.846 110.671 67.846C110.344 67.846 110.036 67.888 109.747 67.972C109.467 68.056 109.22 68.182 109.005 68.35C108.8 68.518 108.636 68.728 108.515 68.98C108.394 69.2227 108.333 69.5073 108.333 69.834C108.333 70.282 108.436 70.6367 108.641 70.898C108.846 71.1593 109.103 71.3693 109.411 71.528C109.719 71.6867 110.05 71.8173 110.405 71.92C110.769 72.0133 111.105 72.1207 111.413 72.242C111.721 72.354 111.978 72.4987 112.183 72.676C112.388 72.8533 112.491 73.096 112.491 73.404C112.491 73.5347 112.468 73.67 112.421 73.81C112.384 73.95 112.309 74.0807 112.197 74.202C112.085 74.314 111.931 74.412 111.735 74.496C111.539 74.5707 111.292 74.608 110.993 74.608C110.62 74.608 110.302 74.552 110.041 74.44C109.789 74.3187 109.579 74.1787 109.411 74.02C109.252 73.852 109.136 73.684 109.061 73.516C108.996 73.348 108.963 73.208 108.963 73.096H108.053C108.053 73.3573 108.114 73.614 108.235 73.866C108.356 74.1087 108.538 74.328 108.781 74.524C109.033 74.72 109.336 74.8787 109.691 75C110.055 75.112 110.475 75.168 110.951 75.168C111.81 75.168 112.454 74.9813 112.883 74.608C113.322 74.2253 113.541 73.726 113.541 73.11C113.541 72.662 113.434 72.3027 113.219 72.032C113.014 71.7613 112.752 71.5467 112.435 71.388C112.118 71.22 111.772 71.0847 111.399 70.982C111.035 70.8793 110.694 70.772 110.377 70.66C110.06 70.548 109.794 70.4127 109.579 70.254C109.374 70.0953 109.271 69.8713 109.271 69.582C109.271 69.4607 109.294 69.3347 109.341 69.204C109.388 69.064 109.467 68.938 109.579 68.826C109.691 68.7047 109.84 68.6067 110.027 68.532C110.214 68.448 110.447 68.406 110.727 68.406C111.007 68.406 111.25 68.448 111.455 68.532C111.66 68.6067 111.833 68.7047 111.973 68.826C112.113 68.938 112.216 69.064 112.281 69.204C112.346 69.344 112.379 69.4747 112.379 69.596H113.177ZM115.578 78.5H116.768V73.852H116.824C116.917 74.0947 117.038 74.3 117.188 74.468C117.346 74.636 117.524 74.7713 117.72 74.874C117.916 74.9767 118.121 75.0513 118.336 75.098C118.56 75.1447 118.784 75.168 119.008 75.168C119.474 75.168 119.904 75.084 120.296 74.916C120.688 74.7387 121.024 74.4913 121.304 74.174C121.593 73.8567 121.817 73.474 121.976 73.026C122.134 72.5687 122.214 72.0647 122.214 71.514C122.214 70.954 122.134 70.45 121.976 70.002C121.817 69.554 121.593 69.1713 121.304 68.854C121.024 68.5273 120.688 68.28 120.296 68.112C119.904 67.9347 119.474 67.846 119.008 67.846C117.897 67.846 117.169 68.2753 116.824 69.134H116.768V68H115.578V78.5ZM116.768 70.8C116.768 70.492 116.814 70.2027 116.908 69.932C117.01 69.652 117.15 69.414 117.328 69.218C117.505 69.0127 117.71 68.854 117.944 68.742C118.186 68.6207 118.443 68.56 118.714 68.56C119.003 68.56 119.278 68.616 119.54 68.728C119.81 68.8307 120.044 68.9987 120.24 69.232C120.436 69.4653 120.59 69.7687 120.702 70.142C120.823 70.5153 120.884 70.9633 120.884 71.486C120.884 72.018 120.823 72.4707 120.702 72.844C120.59 73.2173 120.431 73.5253 120.226 73.768C120.03 74.0013 119.801 74.174 119.54 74.286C119.278 74.3887 119.003 74.44 118.714 74.44C118.452 74.44 118.205 74.3887 117.972 74.286C117.738 74.174 117.533 74.0153 117.356 73.81C117.178 73.5953 117.034 73.3387 116.922 73.04C116.819 72.7413 116.768 72.4007 116.768 72.018V70.8ZM124.167 68V75H125.357V70.772C125.357 70.3893 125.399 70.0673 125.483 69.806C125.576 69.5353 125.693 69.316 125.833 69.148C125.973 68.98 126.127 68.8587 126.295 68.784C126.463 68.7093 126.626 68.672 126.785 68.672C127 68.672 127.196 68.742 127.373 68.882C127.56 69.022 127.695 69.1527 127.779 69.274L128.255 68.406C128.171 68.294 128.068 68.2007 127.947 68.126C127.835 68.0513 127.718 67.9953 127.597 67.958C127.485 67.9113 127.378 67.8833 127.275 67.874C127.182 67.8553 127.112 67.846 127.065 67.846C126.673 67.846 126.346 67.9533 126.085 68.168C125.824 68.3827 125.609 68.7 125.441 69.12H125.357V68H124.167ZM130.101 68V75H131.291V68H130.101ZM129.933 65.788C129.933 65.9933 130.007 66.1707 130.157 66.32C130.306 66.4693 130.483 66.544 130.689 66.544C130.894 66.544 131.071 66.4693 131.221 66.32C131.37 66.1707 131.445 65.9933 131.445 65.788C131.445 65.5827 131.37 65.4053 131.221 65.256C131.071 65.1067 130.894 65.032 130.689 65.032C130.483 65.032 130.306 65.1067 130.157 65.256C130.007 65.4053 129.933 65.5827 129.933 65.788ZM139.951 75V70.464C139.951 70.296 139.937 70.0673 139.909 69.778C139.881 69.4793 139.788 69.19 139.629 68.91C139.48 68.6207 139.237 68.3733 138.901 68.168C138.565 67.9533 138.089 67.846 137.473 67.846C137.203 67.8367 136.899 67.8927 136.563 68.014C136.227 68.126 135.896 68.3453 135.569 68.672L135.345 68.896H135.289V68H134.099V75H135.289V70.674C135.289 70.31 135.341 69.9973 135.443 69.736C135.546 69.4747 135.686 69.2553 135.863 69.078C136.041 68.9007 136.241 68.77 136.465 68.686C136.699 68.602 136.937 68.56 137.179 68.56C137.571 68.56 137.875 68.6393 138.089 68.798C138.304 68.9473 138.458 69.1247 138.551 69.33C138.654 69.5353 138.715 69.7407 138.733 69.946C138.752 70.1513 138.761 70.3007 138.761 70.394V75H139.951ZM147.372 75.588C147.372 76.0173 147.321 76.3813 147.218 76.68C147.115 76.9787 146.971 77.2213 146.784 77.408C146.607 77.5947 146.392 77.73 146.14 77.814C145.897 77.898 145.636 77.94 145.356 77.94C144.861 77.94 144.46 77.814 144.152 77.562C143.853 77.31 143.578 76.974 143.326 76.554L142.556 77.254C142.621 77.338 142.724 77.4453 142.864 77.576C143.004 77.716 143.181 77.8513 143.396 77.982C143.611 78.122 143.867 78.2387 144.166 78.332C144.465 78.4347 144.805 78.486 145.188 78.486C145.897 78.486 146.471 78.3833 146.91 78.178C147.349 77.982 147.689 77.716 147.932 77.38C148.175 77.044 148.338 76.6567 148.422 76.218C148.515 75.7887 148.562 75.3407 148.562 74.874V68H147.372V69.092H147.316C147.204 68.7 146.961 68.3967 146.588 68.182C146.224 67.958 145.743 67.846 145.146 67.846C144.67 67.846 144.236 67.9347 143.844 68.112C143.452 68.28 143.116 68.5227 142.836 68.84C142.556 69.1573 142.337 69.54 142.178 69.988C142.029 70.436 141.954 70.9353 141.954 71.486C141.954 72.046 142.029 72.5547 142.178 73.012C142.337 73.46 142.556 73.8473 142.836 74.174C143.116 74.4913 143.447 74.7387 143.83 74.916C144.222 75.084 144.656 75.168 145.132 75.168C145.655 75.168 146.107 75.0653 146.49 74.86C146.882 74.6547 147.157 74.328 147.316 73.88H147.372V75.588ZM147.372 72.018C147.372 72.41 147.316 72.7553 147.204 73.054C147.101 73.3527 146.961 73.6047 146.784 73.81C146.607 74.0153 146.401 74.174 146.168 74.286C145.935 74.3887 145.692 74.44 145.44 74.44C145.216 74.44 144.973 74.4027 144.712 74.328C144.46 74.244 144.222 74.0947 143.998 73.88C143.783 73.6653 143.601 73.362 143.452 72.97C143.312 72.578 143.242 72.074 143.242 71.458C143.242 70.8047 143.331 70.2867 143.508 69.904C143.685 69.512 143.891 69.2133 144.124 69.008C144.367 68.8027 144.609 68.672 144.852 68.616C145.104 68.5507 145.3 68.518 145.44 68.518C145.748 68.518 146.023 68.588 146.266 68.728C146.509 68.8587 146.709 69.0407 146.868 69.274C147.036 69.498 147.162 69.7593 147.246 70.058C147.33 70.3567 147.372 70.6647 147.372 70.982V72.018Z" fill="#333333"/>
<rect x="168" y="54" width="100" height="32" rx="16" fill="#F9F9F9"/>
<path d="M182.618 68.546L183.22 65.69H184.102L183.486 68.546H185.712L186.328 65.676H187.168L186.566 68.546H189.394L189.212 69.4H186.384L185.922 71.64H188.75L188.554 72.494H185.74L185.11 75.308H184.27L184.872 72.494H182.646L182.044 75.308H181.176L181.778 72.494H178.95L179.132 71.64H181.988L182.422 69.4H179.566L179.776 68.546H182.618ZM182.842 71.64H185.068L185.544 69.4H183.29L182.842 71.64ZM195.011 74.44C194.675 74.44 194.348 74.3887 194.031 74.286C193.723 74.1833 193.447 74.02 193.205 73.796C192.962 73.5627 192.766 73.2593 192.617 72.886C192.477 72.5033 192.407 72.0367 192.407 71.486C192.407 70.9167 192.486 70.436 192.645 70.044C192.803 69.6427 192.999 69.3253 193.233 69.092C193.475 68.8493 193.741 68.6767 194.031 68.574C194.32 68.462 194.595 68.406 194.857 68.406C195.286 68.406 195.659 68.518 195.977 68.742C196.294 68.966 196.504 69.2413 196.607 69.568H197.573C197.479 69.232 197.33 68.9567 197.125 68.742C196.919 68.518 196.681 68.3407 196.411 68.21C196.149 68.07 195.865 67.9767 195.557 67.93C195.258 67.874 194.969 67.846 194.689 67.846C194.101 67.846 193.583 67.944 193.135 68.14C192.687 68.3267 192.309 68.5833 192.001 68.91C191.693 69.2367 191.459 69.6193 191.301 70.058C191.151 70.4967 191.077 70.9633 191.077 71.458C191.077 71.9807 191.161 72.4707 191.329 72.928C191.497 73.376 191.735 73.768 192.043 74.104C192.36 74.4307 192.738 74.692 193.177 74.888C193.615 75.0747 194.11 75.168 194.661 75.168C195.277 75.168 195.813 75.0653 196.271 74.86C196.737 74.6547 197.129 74.4307 197.447 74.188L197.041 73.656C196.714 73.9267 196.387 74.1273 196.061 74.258C195.743 74.3793 195.393 74.44 195.011 74.44ZM206.084 71.514C206.084 71.9993 206 72.466 205.832 72.914C205.664 73.3527 205.421 73.74 205.104 74.076C204.796 74.412 204.418 74.678 203.97 74.874C203.531 75.07 203.036 75.168 202.486 75.168C201.926 75.168 201.417 75.07 200.96 74.874C200.512 74.6687 200.129 74.398 199.812 74.062C199.504 73.726 199.261 73.3387 199.084 72.9C198.916 72.452 198.832 71.99 198.832 71.514C198.832 71.0287 198.916 70.5667 199.084 70.128C199.261 69.68 199.504 69.288 199.812 68.952C200.129 68.616 200.512 68.35 200.96 68.154C201.417 67.9487 201.926 67.846 202.486 67.846C203.036 67.846 203.531 67.9487 203.97 68.154C204.418 68.35 204.796 68.616 205.104 68.952C205.421 69.288 205.664 69.68 205.832 70.128C206 70.5667 206.084 71.0287 206.084 71.514ZM204.754 71.514C204.754 70.8607 204.684 70.3333 204.544 69.932C204.404 69.5213 204.222 69.204 203.998 68.98C203.774 68.756 203.526 68.6067 203.256 68.532C202.985 68.448 202.724 68.406 202.472 68.406C202.22 68.406 201.958 68.448 201.688 68.532C201.417 68.6067 201.165 68.756 200.932 68.98C200.708 69.204 200.521 69.5213 200.372 69.932C200.232 70.3333 200.162 70.8607 200.162 71.514C200.162 72.158 200.232 72.6853 200.372 73.096C200.521 73.4973 200.708 73.81 200.932 74.034C201.165 74.258 201.417 74.412 201.688 74.496C201.958 74.5707 202.22 74.608 202.472 74.608C202.724 74.608 202.985 74.5707 203.256 74.496C203.526 74.412 203.774 74.258 203.998 74.034C204.222 73.81 204.404 73.4973 204.544 73.096C204.684 72.6853 204.754 72.158 204.754 71.514ZM209.516 65.2H208.326V75H209.516V65.2ZM213.648 65.2H212.458V75H213.648V65.2ZM222.526 71.808V71.514C222.526 70.8887 222.438 70.3473 222.26 69.89C222.083 69.4327 221.84 69.0547 221.532 68.756C221.234 68.4573 220.884 68.2333 220.482 68.084C220.081 67.9347 219.656 67.86 219.208 67.86C218.732 67.86 218.294 67.944 217.892 68.112C217.491 68.2707 217.141 68.5087 216.842 68.826C216.544 69.134 216.31 69.512 216.142 69.96C215.974 70.3987 215.89 70.898 215.89 71.458C215.89 71.9247 215.96 72.382 216.1 72.83C216.25 73.2687 216.469 73.6653 216.758 74.02C217.057 74.3653 217.43 74.6453 217.878 74.86C218.336 75.0653 218.872 75.168 219.488 75.168C220.086 75.168 220.636 75.0653 221.14 74.86C221.644 74.6453 222.083 74.342 222.456 73.95L222.008 73.502C221.812 73.67 221.626 73.824 221.448 73.964C221.28 74.104 221.108 74.2207 220.93 74.314C220.753 74.4073 220.566 74.482 220.37 74.538C220.184 74.5847 219.974 74.608 219.74 74.608C219.479 74.608 219.199 74.5707 218.9 74.496C218.611 74.412 218.34 74.2673 218.088 74.062C217.836 73.8567 217.626 73.572 217.458 73.208C217.29 72.844 217.206 72.3773 217.206 71.808H222.526ZM217.206 71.248C217.206 70.8747 217.244 70.5153 217.318 70.17C217.402 69.8153 217.524 69.5027 217.682 69.232C217.85 68.9613 218.06 68.7467 218.312 68.588C218.564 68.42 218.863 68.336 219.208 68.336C219.871 68.336 220.384 68.5973 220.748 69.12C221.122 69.6333 221.308 70.3427 221.308 71.248H217.206ZM228.003 74.44C227.667 74.44 227.341 74.3887 227.023 74.286C226.715 74.1833 226.44 74.02 226.197 73.796C225.955 73.5627 225.759 73.2593 225.609 72.886C225.469 72.5033 225.399 72.0367 225.399 71.486C225.399 70.9167 225.479 70.436 225.637 70.044C225.796 69.6427 225.992 69.3253 226.225 69.092C226.468 68.8493 226.734 68.6767 227.023 68.574C227.313 68.462 227.588 68.406 227.849 68.406C228.279 68.406 228.652 68.518 228.969 68.742C229.287 68.966 229.497 69.2413 229.599 69.568H230.565C230.472 69.232 230.323 68.9567 230.117 68.742C229.912 68.518 229.674 68.3407 229.403 68.21C229.142 68.07 228.857 67.9767 228.549 67.93C228.251 67.874 227.961 67.846 227.681 67.846C227.093 67.846 226.575 67.944 226.127 68.14C225.679 68.3267 225.301 68.5833 224.993 68.91C224.685 69.2367 224.452 69.6193 224.293 70.058C224.144 70.4967 224.069 70.9633 224.069 71.458C224.069 71.9807 224.153 72.4707 224.321 72.928C224.489 73.376 224.727 73.768 225.035 74.104C225.353 74.4307 225.731 74.692 226.169 74.888C226.608 75.0747 227.103 75.168 227.653 75.168C228.269 75.168 228.806 75.0653 229.263 74.86C229.73 74.6547 230.122 74.4307 230.439 74.188L230.033 73.656C229.707 73.9267 229.38 74.1273 229.053 74.258C228.736 74.3793 228.386 74.44 228.003 74.44ZM231.545 68.56V68H232.763V65.844H233.953V68H235.647V68.56H233.953V73.208C233.953 73.32 233.957 73.4507 233.967 73.6C233.976 73.74 234.004 73.8753 234.051 74.006C234.097 74.1273 234.167 74.23 234.261 74.314C234.363 74.398 234.503 74.44 234.681 74.44C234.905 74.44 235.091 74.356 235.241 74.188C235.39 74.02 235.511 73.838 235.605 73.642L236.263 74.314C235.805 74.7713 235.287 75 234.709 75C234.466 75 234.228 74.958 233.995 74.874C233.761 74.79 233.551 74.664 233.365 74.496C233.187 74.3187 233.043 74.0947 232.931 73.824C232.819 73.5533 232.763 73.236 232.763 72.872V68.56H231.545ZM238.083 68V75H239.273V68H238.083ZM237.915 65.788C237.915 65.9933 237.989 66.1707 238.139 66.32C238.288 66.4693 238.465 66.544 238.671 66.544C238.876 66.544 239.053 66.4693 239.203 66.32C239.352 66.1707 239.427 65.9933 239.427 65.788C239.427 65.5827 239.352 65.4053 239.203 65.256C239.053 65.1067 238.876 65.032 238.671 65.032C238.465 65.032 238.288 65.1067 238.139 65.256C237.989 65.4053 237.915 65.5827 237.915 65.788ZM248.913 71.514C248.913 71.9993 248.829 72.466 248.661 72.914C248.493 73.3527 248.251 73.74 247.933 74.076C247.625 74.412 247.247 74.678 246.799 74.874C246.361 75.07 245.866 75.168 245.315 75.168C244.755 75.168 244.247 75.07 243.789 74.874C243.341 74.6687 242.959 74.398 242.641 74.062C242.333 73.726 242.091 73.3387 241.913 72.9C241.745 72.452 241.661 71.99 241.661 71.514C241.661 71.0287 241.745 70.5667 241.913 70.128C242.091 69.68 242.333 69.288 242.641 68.952C242.959 68.616 243.341 68.35 243.789 68.154C244.247 67.9487 244.755 67.846 245.315 67.846C245.866 67.846 246.361 67.9487 246.799 68.154C247.247 68.35 247.625 68.616 247.933 68.952C248.251 69.288 248.493 69.68 248.661 70.128C248.829 70.5667 248.913 71.0287 248.913 71.514ZM247.583 71.514C247.583 70.8607 247.513 70.3333 247.373 69.932C247.233 69.5213 247.051 69.204 246.827 68.98C246.603 68.756 246.356 68.6067 246.085 68.532C245.815 68.448 245.553 68.406 245.301 68.406C245.049 68.406 244.788 68.448 244.517 68.532C244.247 68.6067 243.995 68.756 243.761 68.98C243.537 69.204 243.351 69.5213 243.201 69.932C243.061 70.3333 242.991 70.8607 242.991 71.514C242.991 72.158 243.061 72.6853 243.201 73.096C243.351 73.4973 243.537 73.81 243.761 74.034C243.995 74.258 244.247 74.412 244.517 74.496C244.788 74.5707 245.049 74.608 245.301 74.608C245.553 74.608 245.815 74.5707 246.085 74.496C246.356 74.412 246.603 74.258 246.827 74.034C247.051 73.81 247.233 73.4973 247.373 73.096C247.513 72.6853 247.583 72.158 247.583 71.514ZM256.728 75V70.464C256.728 70.296 256.714 70.0673 256.686 69.778C256.658 69.4793 256.564 69.19 256.406 68.91C256.256 68.6207 256.014 68.3733 255.678 68.168C255.342 67.9533 254.866 67.846 254.25 67.846C253.979 67.8367 253.676 67.8927 253.34 68.014C253.004 68.126 252.672 68.3453 252.346 68.672L252.122 68.896H252.066V68H250.876V75H252.066V70.674C252.066 70.31 252.117 69.9973 252.22 69.736C252.322 69.4747 252.462 69.2553 252.64 69.078C252.817 68.9007 253.018 68.77 253.242 68.686C253.475 68.602 253.713 68.56 253.956 68.56C254.348 68.56 254.651 68.6393 254.866 68.798C255.08 68.9473 255.234 69.1247 255.328 69.33C255.43 69.5353 255.491 69.7407 255.51 69.946C255.528 70.1513 255.538 70.3007 255.538 70.394V75H256.728Z" fill="#333333"/>
<rect x="276" y="54" width="54" height="32" rx="16" fill="#F9F9F9"/>
<path d="M290.849 68.546L291.451 65.69H292.333L291.717 68.546H293.943L294.559 65.676H295.399L294.797 68.546H297.625L297.443 69.4H294.615L294.153 71.64H296.981L296.785 72.494H293.971L293.341 75.308H292.501L293.103 72.494H290.877L290.275 75.308H289.407L290.009 72.494H287.181L287.363 71.64H290.219L290.653 69.4H287.797L288.007 68.546H290.849ZM291.073 71.64H293.299L293.775 69.4H291.521L291.073 71.64ZM299.028 68V68.56H300.246V75H301.436V68.56H303.13V68H301.436V66.824C301.436 66.712 301.441 66.5813 301.45 66.432C301.459 66.2733 301.487 66.1287 301.534 65.998C301.581 65.858 301.651 65.7413 301.744 65.648C301.847 65.5547 301.987 65.508 302.164 65.508C302.388 65.508 302.57 65.6013 302.71 65.788C302.859 65.9747 302.981 66.166 303.074 66.362L303.69 65.704C303.466 65.48 303.233 65.312 302.99 65.2C302.757 65.088 302.491 65.032 302.192 65.032C301.949 65.032 301.711 65.074 301.478 65.158C301.245 65.242 301.035 65.3727 300.848 65.55C300.671 65.718 300.526 65.9373 300.414 66.208C300.302 66.4787 300.246 66.796 300.246 67.16V68H299.028ZM307.53 67.846C308.211 67.846 308.739 67.944 309.112 68.14C309.485 68.3267 309.756 68.574 309.924 68.882C310.101 69.19 310.204 69.5447 310.232 69.946C310.26 70.3473 310.274 70.758 310.274 71.178V75H309.14V74.314C308.869 74.5753 308.524 74.7853 308.104 74.944C307.684 75.0933 307.264 75.168 306.844 75.168C306.443 75.168 306.088 75.098 305.78 74.958C305.472 74.818 305.215 74.636 305.01 74.412C304.805 74.188 304.651 73.936 304.548 73.656C304.445 73.376 304.394 73.0913 304.394 72.802C304.394 72.5033 304.45 72.2047 304.562 71.906C304.674 71.6073 304.842 71.3413 305.066 71.108C305.29 70.8653 305.565 70.6693 305.892 70.52C306.219 70.3707 306.592 70.296 307.012 70.296C307.432 70.296 307.829 70.38 308.202 70.548C308.585 70.7067 308.897 70.9353 309.14 71.234V70.632C309.14 69.8667 309.023 69.2973 308.79 68.924C308.566 68.5507 308.151 68.364 307.544 68.364C307.283 68.364 307.054 68.3967 306.858 68.462C306.662 68.5273 306.485 68.6207 306.326 68.742C306.177 68.854 306.037 68.9987 305.906 69.176C305.775 69.344 305.645 69.5353 305.514 69.75L304.786 69.022C304.917 68.882 305.052 68.742 305.192 68.602C305.341 68.462 305.519 68.336 305.724 68.224C305.939 68.112 306.191 68.0233 306.48 67.958C306.769 67.8833 307.119 67.846 307.53 67.846ZM309.14 72.228C309.093 72.116 309.023 71.9853 308.93 71.836C308.846 71.6867 308.734 71.542 308.594 71.402C308.454 71.262 308.286 71.1453 308.09 71.052C307.894 70.9493 307.661 70.898 307.39 70.898C307.119 70.898 306.872 70.954 306.648 71.066C306.424 71.1687 306.233 71.3087 306.074 71.486C305.925 71.654 305.808 71.8547 305.724 72.088C305.64 72.3213 305.598 72.564 305.598 72.816C305.598 73.1147 305.649 73.376 305.752 73.6C305.864 73.8147 306.004 74.0013 306.172 74.16C306.34 74.3093 306.527 74.4213 306.732 74.496C306.937 74.5707 307.133 74.608 307.32 74.608C307.497 74.608 307.675 74.5753 307.852 74.51C308.039 74.4447 308.211 74.356 308.37 74.244C308.538 74.1227 308.687 73.9827 308.818 73.824C308.949 73.6653 309.056 73.4927 309.14 73.306V72.228ZM314.125 65.2H312.935V75H314.125V65.2ZM318.257 65.2H317.067V75H318.257V65.2Z" fill="#333333"/>
<rect x="251" y="94" width="116" height="32" rx="16" fill="#F9F9F9"/>
<path d="M265.816 108.546L266.418 105.69H267.3L266.684 108.546H268.91L269.526 105.676H270.366L269.764 108.546H272.592L272.41 109.4H269.582L269.12 111.64H271.948L271.752 112.494H268.938L268.308 115.308H267.468L268.07 112.494H265.844L265.242 115.308H264.374L264.976 112.494H262.148L262.33 111.64H265.186L265.62 109.4H262.764L262.974 108.546H265.816ZM266.04 111.64H268.266L268.742 109.4H266.488L266.04 111.64ZM281.527 111.514C281.527 111.999 281.443 112.466 281.275 112.914C281.107 113.353 280.864 113.74 280.547 114.076C280.239 114.412 279.861 114.678 279.413 114.874C278.974 115.07 278.48 115.168 277.929 115.168C277.369 115.168 276.86 115.07 276.403 114.874C275.955 114.669 275.572 114.398 275.255 114.062C274.947 113.726 274.704 113.339 274.527 112.9C274.359 112.452 274.275 111.99 274.275 111.514C274.275 111.029 274.359 110.567 274.527 110.128C274.704 109.68 274.947 109.288 275.255 108.952C275.572 108.616 275.955 108.35 276.403 108.154C276.86 107.949 277.369 107.846 277.929 107.846C278.48 107.846 278.974 107.949 279.413 108.154C279.861 108.35 280.239 108.616 280.547 108.952C280.864 109.288 281.107 109.68 281.275 110.128C281.443 110.567 281.527 111.029 281.527 111.514ZM280.197 111.514C280.197 110.861 280.127 110.333 279.987 109.932C279.847 109.521 279.665 109.204 279.441 108.98C279.217 108.756 278.97 108.607 278.699 108.532C278.428 108.448 278.167 108.406 277.915 108.406C277.663 108.406 277.402 108.448 277.131 108.532C276.86 108.607 276.608 108.756 276.375 108.98C276.151 109.204 275.964 109.521 275.815 109.932C275.675 110.333 275.605 110.861 275.605 111.514C275.605 112.158 275.675 112.685 275.815 113.096C275.964 113.497 276.151 113.81 276.375 114.034C276.608 114.258 276.86 114.412 277.131 114.496C277.402 114.571 277.663 114.608 277.915 114.608C278.167 114.608 278.428 114.571 278.699 114.496C278.97 114.412 279.217 114.258 279.441 114.034C279.665 113.81 279.847 113.497 279.987 113.096C280.127 112.685 280.197 112.158 280.197 111.514ZM283.489 118.5H284.679V113.852H284.735C284.829 114.095 284.95 114.3 285.099 114.468C285.258 114.636 285.435 114.771 285.631 114.874C285.827 114.977 286.033 115.051 286.247 115.098C286.471 115.145 286.695 115.168 286.919 115.168C287.386 115.168 287.815 115.084 288.207 114.916C288.599 114.739 288.935 114.491 289.215 114.174C289.505 113.857 289.729 113.474 289.887 113.026C290.046 112.569 290.125 112.065 290.125 111.514C290.125 110.954 290.046 110.45 289.887 110.002C289.729 109.554 289.505 109.171 289.215 108.854C288.935 108.527 288.599 108.28 288.207 108.112C287.815 107.935 287.386 107.846 286.919 107.846C285.809 107.846 285.081 108.275 284.735 109.134H284.679V108H283.489V118.5ZM284.679 110.8C284.679 110.492 284.726 110.203 284.819 109.932C284.922 109.652 285.062 109.414 285.239 109.218C285.417 109.013 285.622 108.854 285.855 108.742C286.098 108.621 286.355 108.56 286.625 108.56C286.915 108.56 287.19 108.616 287.451 108.728C287.722 108.831 287.955 108.999 288.151 109.232C288.347 109.465 288.501 109.769 288.613 110.142C288.735 110.515 288.795 110.963 288.795 111.486C288.795 112.018 288.735 112.471 288.613 112.844C288.501 113.217 288.343 113.525 288.137 113.768C287.941 114.001 287.713 114.174 287.451 114.286C287.19 114.389 286.915 114.44 286.625 114.44C286.364 114.44 286.117 114.389 285.883 114.286C285.65 114.174 285.445 114.015 285.267 113.81C285.09 113.595 284.945 113.339 284.833 113.04C284.731 112.741 284.679 112.401 284.679 112.018V110.8ZM298.295 111.808V111.514C298.295 110.889 298.206 110.347 298.029 109.89C297.851 109.433 297.609 109.055 297.301 108.756C297.002 108.457 296.652 108.233 296.251 108.084C295.849 107.935 295.425 107.86 294.977 107.86C294.501 107.86 294.062 107.944 293.661 108.112C293.259 108.271 292.909 108.509 292.611 108.826C292.312 109.134 292.079 109.512 291.911 109.96C291.743 110.399 291.659 110.898 291.659 111.458C291.659 111.925 291.729 112.382 291.869 112.83C292.018 113.269 292.237 113.665 292.527 114.02C292.825 114.365 293.199 114.645 293.647 114.86C294.104 115.065 294.641 115.168 295.257 115.168C295.854 115.168 296.405 115.065 296.909 114.86C297.413 114.645 297.851 114.342 298.225 113.95L297.777 113.502C297.581 113.67 297.394 113.824 297.217 113.964C297.049 114.104 296.876 114.221 296.699 114.314C296.521 114.407 296.335 114.482 296.139 114.538C295.952 114.585 295.742 114.608 295.509 114.608C295.247 114.608 294.967 114.571 294.669 114.496C294.379 114.412 294.109 114.267 293.857 114.062C293.605 113.857 293.395 113.572 293.227 113.208C293.059 112.844 292.975 112.377 292.975 111.808H298.295ZM292.975 111.248C292.975 110.875 293.012 110.515 293.087 110.17C293.171 109.815 293.292 109.503 293.451 109.232C293.619 108.961 293.829 108.747 294.081 108.588C294.333 108.42 294.631 108.336 294.977 108.336C295.639 108.336 296.153 108.597 296.517 109.12C296.89 109.633 297.077 110.343 297.077 111.248H292.975ZM306.11 115V110.464C306.11 110.296 306.096 110.067 306.068 109.778C306.04 109.479 305.946 109.19 305.788 108.91C305.638 108.621 305.396 108.373 305.06 108.168C304.724 107.953 304.248 107.846 303.632 107.846C303.361 107.837 303.058 107.893 302.722 108.014C302.386 108.126 302.054 108.345 301.728 108.672L301.504 108.896H301.448V108H300.258V115H301.448V110.674C301.448 110.31 301.499 109.997 301.602 109.736C301.704 109.475 301.844 109.255 302.022 109.078C302.199 108.901 302.4 108.77 302.624 108.686C302.857 108.602 303.095 108.56 303.338 108.56C303.73 108.56 304.033 108.639 304.248 108.798C304.462 108.947 304.616 109.125 304.71 109.33C304.812 109.535 304.873 109.741 304.892 109.946C304.91 110.151 304.92 110.301 304.92 110.394V115H306.11ZM307.832 108V108.56H309.05V115H310.24V108.56H311.934V108H310.24V106.824C310.24 106.712 310.245 106.581 310.254 106.432C310.264 106.273 310.292 106.129 310.338 105.998C310.385 105.858 310.455 105.741 310.548 105.648C310.651 105.555 310.791 105.508 310.968 105.508C311.192 105.508 311.374 105.601 311.514 105.788C311.664 105.975 311.785 106.166 311.878 106.362L312.494 105.704C312.27 105.48 312.037 105.312 311.794 105.2C311.561 105.088 311.295 105.032 310.996 105.032C310.754 105.032 310.516 105.074 310.282 105.158C310.049 105.242 309.839 105.373 309.652 105.55C309.475 105.718 309.33 105.937 309.218 106.208C309.106 106.479 309.05 106.796 309.05 107.16V108H307.832ZM316.334 107.846C317.016 107.846 317.543 107.944 317.916 108.14C318.29 108.327 318.56 108.574 318.728 108.882C318.906 109.19 319.008 109.545 319.036 109.946C319.064 110.347 319.078 110.758 319.078 111.178V115H317.944V114.314C317.674 114.575 317.328 114.785 316.908 114.944C316.488 115.093 316.068 115.168 315.648 115.168C315.247 115.168 314.892 115.098 314.584 114.958C314.276 114.818 314.02 114.636 313.814 114.412C313.609 114.188 313.455 113.936 313.352 113.656C313.25 113.376 313.198 113.091 313.198 112.802C313.198 112.503 313.254 112.205 313.366 111.906C313.478 111.607 313.646 111.341 313.87 111.108C314.094 110.865 314.37 110.669 314.696 110.52C315.023 110.371 315.396 110.296 315.816 110.296C316.236 110.296 316.633 110.38 317.006 110.548C317.389 110.707 317.702 110.935 317.944 111.234V110.632C317.944 109.867 317.828 109.297 317.594 108.924C317.37 108.551 316.955 108.364 316.348 108.364C316.087 108.364 315.858 108.397 315.662 108.462C315.466 108.527 315.289 108.621 315.13 108.742C314.981 108.854 314.841 108.999 314.71 109.176C314.58 109.344 314.449 109.535 314.318 109.75L313.59 109.022C313.721 108.882 313.856 108.742 313.996 108.602C314.146 108.462 314.323 108.336 314.528 108.224C314.743 108.112 314.995 108.023 315.284 107.958C315.574 107.883 315.924 107.846 316.334 107.846ZM317.944 112.228C317.898 112.116 317.828 111.985 317.734 111.836C317.65 111.687 317.538 111.542 317.398 111.402C317.258 111.262 317.09 111.145 316.894 111.052C316.698 110.949 316.465 110.898 316.194 110.898C315.924 110.898 315.676 110.954 315.452 111.066C315.228 111.169 315.037 111.309 314.878 111.486C314.729 111.654 314.612 111.855 314.528 112.088C314.444 112.321 314.402 112.564 314.402 112.816C314.402 113.115 314.454 113.376 314.556 113.6C314.668 113.815 314.808 114.001 314.976 114.16C315.144 114.309 315.331 114.421 315.536 114.496C315.742 114.571 315.938 114.608 316.124 114.608C316.302 114.608 316.479 114.575 316.656 114.51C316.843 114.445 317.016 114.356 317.174 114.244C317.342 114.123 317.492 113.983 317.622 113.824C317.753 113.665 317.86 113.493 317.944 113.306V112.228ZM325.925 109.596C325.925 109.344 325.86 109.111 325.729 108.896C325.598 108.681 325.416 108.499 325.183 108.35C324.959 108.191 324.693 108.07 324.385 107.986C324.086 107.893 323.764 107.846 323.419 107.846C323.092 107.846 322.784 107.888 322.495 107.972C322.215 108.056 321.968 108.182 321.753 108.35C321.548 108.518 321.384 108.728 321.263 108.98C321.142 109.223 321.081 109.507 321.081 109.834C321.081 110.282 321.184 110.637 321.389 110.898C321.594 111.159 321.851 111.369 322.159 111.528C322.467 111.687 322.798 111.817 323.153 111.92C323.517 112.013 323.853 112.121 324.161 112.242C324.469 112.354 324.726 112.499 324.931 112.676C325.136 112.853 325.239 113.096 325.239 113.404C325.239 113.535 325.216 113.67 325.169 113.81C325.132 113.95 325.057 114.081 324.945 114.202C324.833 114.314 324.679 114.412 324.483 114.496C324.287 114.571 324.04 114.608 323.741 114.608C323.368 114.608 323.05 114.552 322.789 114.44C322.537 114.319 322.327 114.179 322.159 114.02C322 113.852 321.884 113.684 321.809 113.516C321.744 113.348 321.711 113.208 321.711 113.096H320.801C320.801 113.357 320.862 113.614 320.983 113.866C321.104 114.109 321.286 114.328 321.529 114.524C321.781 114.72 322.084 114.879 322.439 115C322.803 115.112 323.223 115.168 323.699 115.168C324.558 115.168 325.202 114.981 325.631 114.608C326.07 114.225 326.289 113.726 326.289 113.11C326.289 112.662 326.182 112.303 325.967 112.032C325.762 111.761 325.5 111.547 325.183 111.388C324.866 111.22 324.52 111.085 324.147 110.982C323.783 110.879 323.442 110.772 323.125 110.66C322.808 110.548 322.542 110.413 322.327 110.254C322.122 110.095 322.019 109.871 322.019 109.582C322.019 109.461 322.042 109.335 322.089 109.204C322.136 109.064 322.215 108.938 322.327 108.826C322.439 108.705 322.588 108.607 322.775 108.532C322.962 108.448 323.195 108.406 323.475 108.406C323.755 108.406 323.998 108.448 324.203 108.532C324.408 108.607 324.581 108.705 324.721 108.826C324.861 108.938 324.964 109.064 325.029 109.204C325.094 109.344 325.127 109.475 325.127 109.596H325.925ZM328.325 105.2V115H329.515V110.954C329.515 110.767 329.529 110.539 329.557 110.268C329.585 109.997 329.66 109.736 329.781 109.484C329.912 109.232 330.103 109.017 330.355 108.84C330.607 108.653 330.957 108.56 331.405 108.56C331.723 108.56 331.975 108.621 332.161 108.742C332.357 108.854 332.507 109.008 332.609 109.204C332.712 109.4 332.777 109.629 332.805 109.89C332.843 110.151 332.861 110.422 332.861 110.702V115H334.051V110.38C334.051 109.857 333.977 109.433 333.827 109.106C333.678 108.77 333.491 108.509 333.267 108.322C333.043 108.135 332.796 108.009 332.525 107.944C332.264 107.879 332.012 107.846 331.769 107.846C331.443 107.846 331.097 107.911 330.733 108.042C330.379 108.163 330.043 108.401 329.725 108.756L329.571 108.952H329.515V105.2H328.325ZM336.884 108V115H338.074V108H336.884ZM336.716 105.788C336.716 105.993 336.791 106.171 336.94 106.32C337.09 106.469 337.267 106.544 337.472 106.544C337.678 106.544 337.855 106.469 338.004 106.32C338.154 106.171 338.228 105.993 338.228 105.788C338.228 105.583 338.154 105.405 338.004 105.256C337.855 105.107 337.678 105.032 337.472 105.032C337.267 105.032 337.09 105.107 336.94 105.256C336.791 105.405 336.716 105.583 336.716 105.788ZM347.715 111.514C347.715 111.999 347.631 112.466 347.463 112.914C347.295 113.353 347.052 113.74 346.735 114.076C346.427 114.412 346.049 114.678 345.601 114.874C345.162 115.07 344.667 115.168 344.117 115.168C343.557 115.168 343.048 115.07 342.591 114.874C342.143 114.669 341.76 114.398 341.443 114.062C341.135 113.726 340.892 113.339 340.715 112.9C340.547 112.452 340.463 111.99 340.463 111.514C340.463 111.029 340.547 110.567 340.715 110.128C340.892 109.68 341.135 109.288 341.443 108.952C341.76 108.616 342.143 108.35 342.591 108.154C343.048 107.949 343.557 107.846 344.117 107.846C344.667 107.846 345.162 107.949 345.601 108.154C346.049 108.35 346.427 108.616 346.735 108.952C347.052 109.288 347.295 109.68 347.463 110.128C347.631 110.567 347.715 111.029 347.715 111.514ZM346.385 111.514C346.385 110.861 346.315 110.333 346.175 109.932C346.035 109.521 345.853 109.204 345.629 108.98C345.405 108.756 345.157 108.607 344.887 108.532C344.616 108.448 344.355 108.406 344.103 108.406C343.851 108.406 343.589 108.448 343.319 108.532C343.048 108.607 342.796 108.756 342.563 108.98C342.339 109.204 342.152 109.521 342.003 109.932C341.863 110.333 341.793 110.861 341.793 111.514C341.793 112.158 341.863 112.685 342.003 113.096C342.152 113.497 342.339 113.81 342.563 114.034C342.796 114.258 343.048 114.412 343.319 114.496C343.589 114.571 343.851 114.608 344.103 114.608C344.355 114.608 344.616 114.571 344.887 114.496C345.157 114.412 345.405 114.258 345.629 114.034C345.853 113.81 346.035 113.497 346.175 113.096C346.315 112.685 346.385 112.158 346.385 111.514ZM355.529 115V110.464C355.529 110.296 355.515 110.067 355.487 109.778C355.459 109.479 355.366 109.19 355.207 108.91C355.058 108.621 354.815 108.373 354.479 108.168C354.143 107.953 353.667 107.846 353.051 107.846C352.78 107.837 352.477 107.893 352.141 108.014C351.805 108.126 351.474 108.345 351.147 108.672L350.923 108.896H350.867V108H349.677V115H350.867V110.674C350.867 110.31 350.918 109.997 351.021 109.736C351.124 109.475 351.264 109.255 351.441 109.078C351.618 108.901 351.819 108.77 352.043 108.686C352.276 108.602 352.514 108.56 352.757 108.56C353.149 108.56 353.452 108.639 353.667 108.798C353.882 108.947 354.036 109.125 354.129 109.33C354.232 109.535 354.292 109.741 354.311 109.946C354.33 110.151 354.339 110.301 354.339 110.394V115H355.529Z" fill="#333333"/>
</svg>
