<svg width="25" height="25" viewBox="0 0 25 25" fill="none" xmlns="http://www.w3.org/2000/svg">
<path d="M22.9 6.33332C22.1344 6.67332 21.312 6.90212 20.4488 7.00532C21.3304 6.47732 22.0064 5.64132 22.3248 4.64452C21.5008 5.13332 20.5872 5.48852 19.6144 5.68052C18.836 4.85092 17.7272 4.33252 16.5 4.33252C14.1432 4.33252 12.2328 6.24372 12.2328 8.59972C12.2328 8.93412 12.2712 9.26052 12.3432 9.57172C8.79684 9.39412 5.65284 7.69492 3.54724 5.11252C3.18084 5.74292 2.97044 6.47572 2.97044 7.25892C2.97044 8.73892 3.72324 10.0453 4.86804 10.8101C4.16884 10.7877 3.51044 10.5957 2.93524 10.2765C2.93524 10.2949 2.93524 10.3117 2.93524 10.3301C2.93524 12.3981 4.40564 14.1229 6.35844 14.5141C6.00084 14.6117 5.62324 14.6637 5.23364 14.6637C4.95924 14.6637 4.69124 14.6365 4.43124 14.5877C4.97444 16.2829 6.55044 17.5173 8.41764 17.5517C6.95764 18.6965 5.11764 19.3789 3.11764 19.3789C2.77364 19.3789 2.43364 19.3589 2.09924 19.3189C3.98804 20.5293 6.23044 21.2357 8.64084 21.2357C16.4904 21.2357 20.7816 14.7333 20.7816 9.09412C20.7816 8.90932 20.7776 8.72532 20.7696 8.54212C21.604 7.93972 22.328 7.18852 22.9 6.33332Z" fill="#333333"/>
</svg>
