<svg width="72" height="11" viewBox="0 0 72 11" fill="none" xmlns="http://www.w3.org/2000/svg">
<path d="M0.42 0.319384L3.892 10.1194H4.732L7.406 2.46138H7.476L10.066 10.1194H10.892L14.364 0.319384H13.72L10.822 8.49538H10.766L8.036 0.319384H7.434L4.648 8.45338H4.592L1.708 0.319384H0.42ZM18.4793 5.21938C18.4793 5.74205 18.5773 6.30205 18.7733 6.89938C18.9786 7.48738 19.296 8.03338 19.7253 8.53738C20.1546 9.04138 20.7006 9.46138 21.3633 9.79738C22.026 10.1241 22.8193 10.2874 23.7433 10.2874C24.3686 10.2874 24.9333 10.2127 25.4373 10.0634C25.9506 9.90472 26.408 9.69472 26.8093 9.43338C27.22 9.17205 27.5746 8.87338 27.8733 8.53738C28.172 8.19205 28.4146 7.83272 28.6013 7.45938C28.7973 7.07672 28.942 6.69405 29.0353 6.31138C29.138 5.92872 29.1893 5.56472 29.1893 5.21938C29.1893 4.69672 29.082 4.14138 28.8673 3.55338C28.6526 2.95605 28.3213 2.40538 27.8733 1.90138C27.4253 1.39738 26.856 0.982051 26.1653 0.655384C25.484 0.319384 24.6766 0.151385 23.7433 0.151385C22.8193 0.151385 22.026 0.314718 21.3633 0.641384C20.7006 0.968051 20.1546 1.38338 19.7253 1.88738C19.296 2.38205 18.9786 2.92805 18.7733 3.52538C18.5773 4.12272 18.4793 4.68738 18.4793 5.21938ZM19.8513 5.21938C19.8513 4.56605 19.9493 3.96872 20.1453 3.42738C20.3506 2.87672 20.626 2.40538 20.9713 2.01338C21.326 1.62138 21.7413 1.31805 22.2173 1.10338C22.6933 0.879384 23.2113 0.767384 23.7713 0.767384C24.322 0.767384 24.84 0.879384 25.3253 1.10338C25.82 1.31805 26.2493 1.62138 26.6133 2.01338C26.9866 2.40538 27.2806 2.87672 27.4953 3.42738C27.71 3.96872 27.8173 4.56605 27.8173 5.21938C27.8173 5.87272 27.71 6.47472 27.4953 7.02538C27.2806 7.56672 26.9866 8.03338 26.6133 8.42538C26.2493 8.81738 25.82 9.12538 25.3253 9.34938C24.84 9.56405 24.322 9.67138 23.7713 9.67138C23.2113 9.67138 22.6933 9.56405 22.2173 9.34938C21.7413 9.12538 21.326 8.81738 20.9713 8.42538C20.626 8.03338 20.3506 7.56672 20.1453 7.02538C19.9493 6.47472 19.8513 5.87272 19.8513 5.21938ZM35.5246 0.319384H34.5726V10.1194H35.1886V2.12538H35.2446L39.5706 10.2874H39.8226L44.2466 2.18138H44.3026V10.1194H45.5766V0.319384H44.6106L40.0746 8.73338H40.0186L35.5246 0.319384ZM51.9417 0.319384V10.1194H58.2697V9.34938H53.2157V5.24738H57.5557V4.60338H53.2157V1.08938H58.2697V0.319384H51.9417ZM71.2596 0.319384V7.80938H71.2036L63.4336 0.151385H63.3636V10.1194H64.0076V2.62938H64.0636L71.8336 10.2874H71.9036V0.319384H71.2596Z" fill="#333333"/>
</svg>
