<svg width="374" height="50" viewBox="0 0 374 50" fill="none" xmlns="http://www.w3.org/2000/svg">
<path d="M52.7116 12.9577L57.0676 20.7877V25.5577H58.7056V20.6257L63.1336 12.9577H62.1616L58.3096 19.5997H58.2376L54.5656 12.9577H52.7116ZM68.5677 19.2577C68.5677 19.9297 68.6937 20.6497 68.9457 21.4177C69.2097 22.1737 69.6177 22.8757 70.1697 23.5237C70.7217 24.1717 71.4237 24.7117 72.2757 25.1437C73.1277 25.5637 74.1477 25.7737 75.3357 25.7737C76.1397 25.7737 76.8657 25.6777 77.5137 25.4857C78.1737 25.2817 78.7617 25.0117 79.2777 24.6757C79.8057 24.3397 80.2617 23.9557 80.6457 23.5237C81.0297 23.0797 81.3417 22.6177 81.5817 22.1377C81.8337 21.6457 82.0197 21.1537 82.1397 20.6617C82.2717 20.1697 82.3377 19.7017 82.3377 19.2577C82.3377 18.5857 82.1997 17.8717 81.9237 17.1157C81.6477 16.3477 81.2217 15.6397 80.6457 14.9917C80.0697 14.3437 79.3377 13.8097 78.4497 13.3897C77.5737 12.9577 76.5357 12.7417 75.3357 12.7417C74.1477 12.7417 73.1277 12.9517 72.2757 13.3717C71.4237 13.7917 70.7217 14.3257 70.1697 14.9737C69.6177 15.6097 69.2097 16.3117 68.9457 17.0797C68.6937 17.8477 68.5677 18.5737 68.5677 19.2577ZM70.3317 19.2577C70.3317 18.4177 70.4577 17.6497 70.7097 16.9537C70.9737 16.2457 71.3277 15.6397 71.7717 15.1357C72.2277 14.6317 72.7617 14.2417 73.3737 13.9657C73.9857 13.6777 74.6517 13.5337 75.3717 13.5337C76.0797 13.5337 76.7457 13.6777 77.3697 13.9657C78.0057 14.2417 78.5577 14.6317 79.0257 15.1357C79.5057 15.6397 79.8837 16.2457 80.1597 16.9537C80.4357 17.6497 80.5737 18.4177 80.5737 19.2577C80.5737 20.0977 80.4357 20.8717 80.1597 21.5797C79.8837 22.2757 79.5057 22.8757 79.0257 23.3797C78.5577 23.8837 78.0057 24.2797 77.3697 24.5677C76.7457 24.8437 76.0797 24.9817 75.3717 24.9817C74.6517 24.9817 73.9857 24.8437 73.3737 24.5677C72.7617 24.2797 72.2277 23.8837 71.7717 23.3797C71.3277 22.8757 70.9737 22.2757 70.7097 21.5797C70.4577 20.8717 70.3317 20.0977 70.3317 19.2577ZM88.6819 12.9577V20.6977C88.6819 21.1897 88.7299 21.7357 88.8259 22.3357C88.9219 22.9237 89.1499 23.4757 89.5099 23.9917C89.8699 24.4957 90.4039 24.9217 91.1119 25.2697C91.8199 25.6057 92.7859 25.7737 94.0099 25.7737C94.7779 25.7737 95.4559 25.6537 96.0439 25.4137C96.6439 25.1737 97.1419 24.8437 97.5379 24.4237C97.9459 24.0037 98.2519 23.5177 98.4559 22.9657C98.6599 22.4017 98.7619 21.8017 98.7619 21.1657V12.9577H97.9699V20.5717C97.9699 20.8357 97.9639 21.1057 97.9519 21.3817C97.9399 21.6457 97.9039 21.9157 97.8439 22.1917C97.7839 22.4557 97.6879 22.7197 97.5559 22.9837C97.4359 23.2477 97.2559 23.5117 97.0159 23.7757C96.5839 24.2437 96.0979 24.5617 95.5579 24.7297C95.0179 24.8977 94.4539 24.9817 93.8659 24.9817C93.3619 24.9817 92.9119 24.9037 92.5159 24.7477C92.1319 24.5917 91.7659 24.3577 91.4179 24.0457C91.1419 23.8057 90.9319 23.5657 90.7879 23.3257C90.6439 23.0857 90.5359 22.8517 90.4639 22.6237C90.3919 22.3837 90.3499 22.1437 90.3379 21.9037C90.3259 21.6637 90.3199 21.4237 90.3199 21.1837V12.9577H88.6819ZM117.874 12.9577H116.65V25.5577H117.442V15.2797H117.514L123.076 25.7737H123.4L129.088 15.3517H129.16V25.5577H130.798V12.9577H129.556L123.724 23.7757H123.652L117.874 12.9577ZM146.127 21.8497L147.855 25.5577H149.601L143.733 12.9577H142.833L137.505 25.5577H138.333L139.917 21.8497H146.127ZM145.749 21.0397H140.259L142.851 14.9737H142.923L145.749 21.0397ZM153.071 12.9577L157.427 20.7877V25.5577H159.065V20.6257L163.493 12.9577H162.521L158.669 19.5997H158.597L154.925 12.9577H153.071ZM187.482 21.8497L189.21 25.5577H190.956L185.088 12.9577H184.188L178.86 25.5577H179.688L181.272 21.8497H187.482ZM187.104 21.0397H181.614L184.206 14.9737H184.278L187.104 21.0397ZM197.664 25.5577V12.9577H199.302V24.5677H205.8V25.5577H197.664ZM210.998 22.3717C211.022 22.8877 211.154 23.3557 211.394 23.7757C211.646 24.1957 211.982 24.5557 212.402 24.8557C212.834 25.1437 213.338 25.3717 213.914 25.5397C214.49 25.6957 215.12 25.7737 215.804 25.7737C216.5 25.7737 217.124 25.6897 217.676 25.5217C218.24 25.3537 218.72 25.1137 219.116 24.8017C219.512 24.4897 219.818 24.1117 220.034 23.6677C220.25 23.2237 220.358 22.7317 220.358 22.1917C220.358 21.4477 220.172 20.8417 219.8 20.3737C219.428 19.8937 218.96 19.4977 218.396 19.1857C217.844 18.8617 217.238 18.5917 216.578 18.3757C215.93 18.1597 215.324 17.9317 214.76 17.6917C214.208 17.4517 213.746 17.1757 213.374 16.8637C213.002 16.5517 212.816 16.1377 212.816 15.6217C212.816 15.3337 212.876 15.0637 212.996 14.8117C213.128 14.5597 213.314 14.3437 213.554 14.1637C213.806 13.9717 214.112 13.8217 214.472 13.7137C214.832 13.5937 215.246 13.5337 215.714 13.5337C216.494 13.5337 217.154 13.7017 217.694 14.0377C218.246 14.3617 218.57 14.8777 218.666 15.5857H219.89C219.818 15.1417 219.656 14.7457 219.404 14.3977C219.152 14.0377 218.834 13.7377 218.45 13.4977C218.066 13.2457 217.628 13.0597 217.136 12.9397C216.656 12.8077 216.152 12.7417 215.624 12.7417C215.072 12.7417 214.544 12.8137 214.04 12.9577C213.548 13.1017 213.11 13.3117 212.726 13.5877C212.354 13.8637 212.054 14.2117 211.826 14.6317C211.61 15.0517 211.502 15.5317 211.502 16.0717C211.502 16.7797 211.682 17.3497 212.042 17.7817C212.402 18.2137 212.852 18.5737 213.392 18.8617C213.944 19.1497 214.538 19.3957 215.174 19.5997C215.81 19.8037 216.398 20.0377 216.938 20.3017C217.49 20.5537 217.946 20.8657 218.306 21.2377C218.666 21.6097 218.846 22.1077 218.846 22.7317C218.846 23.5117 218.558 24.0817 217.982 24.4417C217.418 24.8017 216.662 24.9817 215.714 24.9817C214.958 24.9817 214.352 24.8857 213.896 24.6937C213.44 24.4897 213.092 24.2497 212.852 23.9737C212.612 23.6977 212.45 23.4157 212.366 23.1277C212.282 22.8277 212.234 22.5757 212.222 22.3717H210.998ZM226.482 19.2577C226.482 19.9297 226.608 20.6497 226.86 21.4177C227.124 22.1737 227.532 22.8757 228.084 23.5237C228.636 24.1717 229.338 24.7117 230.19 25.1437C231.042 25.5637 232.062 25.7737 233.25 25.7737C234.054 25.7737 234.78 25.6777 235.428 25.4857C236.088 25.2817 236.676 25.0117 237.192 24.6757C237.72 24.3397 238.176 23.9557 238.56 23.5237C238.944 23.0797 239.256 22.6177 239.496 22.1377C239.748 21.6457 239.934 21.1537 240.054 20.6617C240.186 20.1697 240.252 19.7017 240.252 19.2577C240.252 18.5857 240.114 17.8717 239.838 17.1157C239.562 16.3477 239.136 15.6397 238.56 14.9917C237.984 14.3437 237.252 13.8097 236.364 13.3897C235.488 12.9577 234.45 12.7417 233.25 12.7417C232.062 12.7417 231.042 12.9517 230.19 13.3717C229.338 13.7917 228.636 14.3257 228.084 14.9737C227.532 15.6097 227.124 16.3117 226.86 17.0797C226.608 17.8477 226.482 18.5737 226.482 19.2577ZM228.246 19.2577C228.246 18.4177 228.372 17.6497 228.624 16.9537C228.888 16.2457 229.242 15.6397 229.686 15.1357C230.142 14.6317 230.676 14.2417 231.288 13.9657C231.9 13.6777 232.566 13.5337 233.286 13.5337C233.994 13.5337 234.66 13.6777 235.284 13.9657C235.92 14.2417 236.472 14.6317 236.94 15.1357C237.42 15.6397 237.798 16.2457 238.074 16.9537C238.35 17.6497 238.488 18.4177 238.488 19.2577C238.488 20.0977 238.35 20.8717 238.074 21.5797C237.798 22.2757 237.42 22.8757 236.94 23.3797C236.472 23.8837 235.92 24.2797 235.284 24.5677C234.66 24.8437 233.994 24.9817 233.286 24.9817C232.566 24.9817 231.9 24.8437 231.288 24.5677C230.676 24.2797 230.142 23.8837 229.686 23.3797C229.242 22.8757 228.888 22.2757 228.624 21.5797C228.372 20.8717 228.246 20.0977 228.246 19.2577ZM257.609 25.5577V12.9577H259.247V24.5677H265.745V25.5577H257.609ZM273.157 12.9577V25.5577H274.795V12.9577H273.157ZM283.837 25.5577H285.475V21.1297L287.509 18.9517L292.297 25.5577H294.169L288.553 17.8357L293.125 12.9577H292.225L285.475 20.0497V12.9577H283.837V25.5577ZM300.863 12.9577V25.5577H308.999V24.5677H302.501V19.2937H308.081V18.4657H302.501V13.9477H308.999V12.9577H300.863Z" fill="black"/>
<path d="M181.249 49.3068L185.799 44.7572H243.651V44.5504H185.799L181.249 40.0525L176.751 44.5504H118.692V44.7572H176.751L181.249 49.3068ZM181.249 40.3627L185.592 44.6538L181.249 48.9966L176.906 44.6538L181.249 40.3627Z" fill="#555555"/>
</svg>
