<svg width="374" height="50" viewBox="0 0 374 50" fill="none" xmlns="http://www.w3.org/2000/svg">
<path d="M112.919 13.8241V23.4541H112.847L102.857 13.6081H102.767V26.4241H103.595V16.7941H103.667L113.657 26.6401H113.747V13.8241H112.919ZM122.06 13.8241V26.4241H130.196V25.4341H123.698V20.1601H129.278V19.3321H123.698V14.8141H130.196V13.8241H122.06ZM135.268 13.8241L139.732 26.4241H140.812L144.25 16.5781H144.34L147.67 26.4241H148.732L153.196 13.8241H152.368L148.642 24.3361H148.57L145.06 13.8241H144.286L140.704 24.2821H140.632L136.924 13.8241H135.268ZM177.185 22.7161L178.913 26.4241H180.659L174.791 13.8241H173.891L168.563 26.4241H169.391L170.975 22.7161H177.185ZM176.807 21.9061H171.317L173.909 15.8401H173.981L176.807 21.9061ZM187.367 13.8241V26.4241H189.005V20.8621H189.797C190.133 20.8621 190.409 20.8921 190.625 20.9521C190.853 21.0121 191.057 21.1141 191.237 21.2581C191.417 21.4021 191.585 21.5881 191.741 21.8161C191.897 22.0441 192.083 22.3261 192.299 22.6621L193.721 24.7681C193.901 25.0441 194.075 25.2961 194.243 25.5241C194.423 25.7521 194.615 25.9501 194.819 26.1181C195.023 26.2741 195.251 26.4001 195.503 26.4961C195.767 26.5921 196.079 26.6401 196.439 26.6401C196.703 26.6401 196.919 26.6281 197.087 26.6041C197.255 26.5801 197.423 26.5201 197.591 26.4241V25.7581C197.531 25.7701 197.471 25.7821 197.411 25.7941C197.351 25.7941 197.291 25.7941 197.231 25.7941C196.979 25.7941 196.757 25.7581 196.565 25.6861C196.373 25.6141 196.193 25.5121 196.025 25.3801C195.857 25.2361 195.695 25.0681 195.539 24.8761C195.383 24.6721 195.221 24.4441 195.053 24.1921C194.549 23.4601 194.159 22.8781 193.883 22.4461C193.607 22.0021 193.385 21.6601 193.217 21.4201C193.061 21.1801 192.929 21.0061 192.821 20.8981C192.725 20.7901 192.605 20.7001 192.461 20.6281L192.281 20.5381V20.4661C192.857 20.4301 193.349 20.3041 193.757 20.0881C194.177 19.8721 194.519 19.6021 194.783 19.2781C195.047 18.9541 195.239 18.6061 195.359 18.2341C195.479 17.8501 195.539 17.4781 195.539 17.1181C195.539 16.7941 195.473 16.4401 195.341 16.0561C195.221 15.6721 195.005 15.3181 194.693 14.9941C194.393 14.6581 193.979 14.3821 193.451 14.1661C192.923 13.9381 192.257 13.8241 191.453 13.8241H187.367ZM189.005 14.6161H190.823C191.279 14.6161 191.687 14.6821 192.047 14.8141C192.419 14.9461 192.737 15.1321 193.001 15.3721C193.265 15.6001 193.463 15.8761 193.595 16.2001C193.739 16.5241 193.811 16.8781 193.811 17.2621C193.811 17.5861 193.745 17.9161 193.613 18.2521C193.493 18.5761 193.307 18.8761 193.055 19.1521C192.803 19.4161 192.491 19.6321 192.119 19.8001C191.759 19.9681 191.339 20.0521 190.859 20.0521H189.005V14.6161ZM204.287 13.8241V26.4241H205.925V20.8621H206.717C207.053 20.8621 207.329 20.8921 207.545 20.9521C207.773 21.0121 207.977 21.1141 208.157 21.2581C208.337 21.4021 208.505 21.5881 208.661 21.8161C208.817 22.0441 209.003 22.3261 209.219 22.6621L210.641 24.7681C210.821 25.0441 210.995 25.2961 211.163 25.5241C211.343 25.7521 211.535 25.9501 211.739 26.1181C211.943 26.2741 212.171 26.4001 212.423 26.4961C212.687 26.5921 212.999 26.6401 213.359 26.6401C213.623 26.6401 213.839 26.6281 214.007 26.6041C214.175 26.5801 214.343 26.5201 214.511 26.4241V25.7581C214.451 25.7701 214.391 25.7821 214.331 25.7941C214.271 25.7941 214.211 25.7941 214.151 25.7941C213.899 25.7941 213.677 25.7581 213.485 25.6861C213.293 25.6141 213.113 25.5121 212.945 25.3801C212.777 25.2361 212.615 25.0681 212.459 24.8761C212.303 24.6721 212.141 24.4441 211.973 24.1921C211.469 23.4601 211.079 22.8781 210.803 22.4461C210.527 22.0021 210.305 21.6601 210.137 21.4201C209.981 21.1801 209.849 21.0061 209.741 20.8981C209.645 20.7901 209.525 20.7001 209.381 20.6281L209.201 20.5381V20.4661C209.777 20.4301 210.269 20.3041 210.677 20.0881C211.097 19.8721 211.439 19.6021 211.703 19.2781C211.967 18.9541 212.159 18.6061 212.279 18.2341C212.399 17.8501 212.459 17.4781 212.459 17.1181C212.459 16.7941 212.393 16.4401 212.261 16.0561C212.141 15.6721 211.925 15.3181 211.613 14.9941C211.313 14.6581 210.899 14.3821 210.371 14.1661C209.843 13.9381 209.177 13.8241 208.373 13.8241H204.287ZM205.925 14.6161H207.743C208.199 14.6161 208.607 14.6821 208.967 14.8141C209.339 14.9461 209.657 15.1321 209.921 15.3721C210.185 15.6001 210.383 15.8761 210.515 16.2001C210.659 16.5241 210.731 16.8781 210.731 17.2621C210.731 17.5861 210.665 17.9161 210.533 18.2521C210.413 18.5761 210.227 18.8761 209.975 19.1521C209.723 19.4161 209.411 19.6321 209.039 19.8001C208.679 19.9681 208.259 20.0521 207.779 20.0521H205.925V14.6161ZM221.927 13.8241V26.4241H223.565V13.8241H221.927ZM230.987 13.8241L236.261 26.4241H237.341L242.453 13.8241H241.517L237.323 24.1921H237.251L232.931 13.8241H230.987ZM254.543 22.7161L256.271 26.4241H258.017L252.149 13.8241H251.249L245.921 26.4241H246.749L248.333 22.7161H254.543ZM254.165 21.9061H248.675L251.267 15.8401H251.339L254.165 21.9061ZM264.724 26.4241V13.8241H266.362V25.4341H272.86V26.4241H264.724Z" fill="black"/>
<path d="M187.078 42.2543L191.627 37.7047H249.479V37.4979H191.627L187.078 33L182.58 37.4979H124.521V37.7047H182.58L187.078 42.2543ZM187.078 33.3102L191.42 37.6013L187.078 41.9441L182.735 37.6013L187.078 33.3102Z" fill="#555555"/>
</svg>
